<svg xmlns="http://www.w3.org/2000/svg" xmlns:xlink="http://www.w3.org/1999/xlink" width="206" height="206" viewBox="0 0 206 206"><path fill="#FFF" d="M38.5 41.55l-1.2-18.4c3.1-1.5 8.3-3.7 15.2-5.9 12.2-3.9 29.6-7.9 50.5-7.9s38.3 3.9 50.5 7.9c6.9 2.2 12.1 4.4 15.2 5.9l-1.4 21.2-3.5 54.7c-2.4 27.1-8.6 44.7-18.8 55.9-9.3 9-20.4 16.4-29.3 21.5-5.5 3.2-10 5.4-12.7 6.7-2.7-1.3-7.2-3.5-12.7-6.7-8.9-5.1-20-12.5-29.3-21.5-10.2-11.2-16.4-28.8-18.8-55.9l-3.7-57.5z"/><path fill="none" stroke="#BDBEC0" stroke-width="2" stroke-miterlimit="3.864" d="M38.5 41.55l-1.2-18.4c3.1-1.5 8.3-3.7 15.2-5.9 12.2-3.9 29.6-7.9 50.5-7.9s38.3 3.9 50.5 7.9c6.9 2.2 12.1 4.4 15.2 5.9l-1.4 21.2-3.5 54.7c-2.4 27.1-8.6 44.7-18.8 55.9-9.3 9-20.4 16.4-29.3 21.5-5.5 3.2-10 5.4-12.7 6.7-2.7-1.3-7.2-3.5-12.7-6.7-8.9-5.1-20-12.5-29.3-21.5-10.2-11.2-16.4-28.8-18.8-55.9l-3.7-57.5z"/><defs><path id="a" d="M38.8 46.15l3.4 53c2.4 27.1 8.6 44.7 18.8 55.9 9.3 9 20.4 16.4 29.3 21.5 5.5 3.2 10 5.4 12.7 6.7 2.7-1.3 7.2-3.5 12.7-6.7 8.9-5.1 20-12.5 29.3-21.5 10.2-11.2 16.4-28.8 18.8-55.9l3.4-53c-3.2-1.4-7.8-3.3-13.7-5.2-12.2-3.9-29.6-7.9-50.5-7.9s-38.3 3.9-50.5 7.9c-5.9 1.8-10.5 3.7-13.7 5.2zm114.6-28.9c-12.2-3.9-29.6-7.9-50.5-7.9s-38.3 3.9-50.5 7.9c-6.8 2.2-12 4.4-15.1 5.9l1.4 21.2c3.2-1.4 7.9-3.4 13.8-5.3 12.2-3.9 29.6-7.9 50.5-7.9s38.3 3.9 50.5 7.9c6 1.9 10.7 3.8 13.8 5.3l1.4-21.2c-3.2-1.5-8.4-3.7-15.3-5.9zM103 3.05c43.4 0 72.3 16.3 72.3 16.3l-5.2 80.2c-2.4 27.7-8.9 47.1-20.6 59.8-19.7 19.2-46.5 30.8-46.5 30.8s-26.8-11.6-46.5-30.8c-11.7-12.7-18.2-32.1-20.6-59.8l-5.2-80.2S59.6 3.05 103 3.05z"/></defs><clipPath id="b"><use xlink:href="#a" overflow="visible"/></clipPath><g clip-path="url(#b)"><path fill="#952B24" d="M16.1-9.85h173.2v211.4H16.1z"/><radialGradient id="c" cx="453.942" cy="-511.621" r="187.514" gradientTransform="matrix(.4485 0 0 -.4485 -100.993 -130.812)" gradientUnits="userSpaceOnUse"><stop offset="0" stop-color="#e01f26"/><stop offset=".73" stop-color="#e01f26"/><stop offset="1" stop-color="#952b24"/></radialGradient><circle fill="url(#c)" cx="102.6" cy="98.65" r="84.1"/></g><linearGradient id="d" gradientUnits="userSpaceOnUse" x1="39.86" y1="4.289" x2="133.766" y2="4.289" gradientTransform="matrix(1 0 0 -1 12.34 97.04)"><stop offset="0" stop-color="#952b24"/><stop offset=".505" stop-color="#e01f26"/><stop offset="1" stop-color="#952b24"/></linearGradient><path fill="url(#d)" d="M70 79.55c-.3-.1-.5-.2-.2-1.7.2-.5 0-.9-.8-.9 0 0-.7.1-1.7.1-3.4 0-4.2-1.6-4.2-1.6s-.9-1.6.6-1.3c1.1.2 4.6-1.2 4.6-1.6 0-.6-1-.3-1.8-.3-.7-.1-1.8-.5-3.4-1.2-1.2-.4-2.1-.3-3.4.2 0 0-1.1 1.3-.6-.6.5-1.8 2.9-3.3 4.3-3.7.4-.1-.2-1.5-.7-1.4-.7.1-1.4.8-2.5.8 0 0-1.5-.1-2.1-.9-.2-.3-.2-.5-.3-.7-.3-.5-.5-.9-.4-1.3.1-.4.3-.6.5-.9.2-.3.5-.8.7-1 .6-.4 1.8 0 1.9-.3.3-1-2.5-.7-3.3-1-.4-.2-.6-.6-.9-.9-.2-.3-.5-.8-.6-1 0-.5 0-.9.3-1.7.5-1.9 1.8-3.1 2.4-3.1.7 0 1.5 0 2.3-.1s-.4-2.4.5-3c1.1-.7 2 .2 2.4.3.3.1.8.2 1.8.2.6 0 1.4.2 1.2 1 0 0-.2 2 .1 2.3.3.1 1-1 1.3-1.4.2-.4 1-.9 1.5-.1 0 0 .5.9 1.2 1.5 1 .7.3 1.6.3 1.6s-.9 1.3-2.6 1.2c-.3 0-.7.2-1 .7-.3.6-.3 5.3.8 6 1.3.8 3.9 1.6 6 2.7 2.3 1.3 3.1 2.4 4.2 3.9.9 1.1 4.2 1.3 4.7 1.7.2.2 0 2-4.7 4.7-4.8 2.3-6.4 1.7-6.8 1.9-.2.3-.8 1.2-1.6.9zm24.5-16.9c.9.3 1.9-1.3 1.9-1.3s-.4-.7-1.5-.7c-1.4.1-1.7.5-1.7.5s.1 1.1 1.3 1.5zm-2.1-4.8c1.4-.6 2.3-.8 2.3-.8s-.3-.4-.9-.2c-1.1.4-1.4 1-1.4 1zm10.5-9.3s-1.1-.4-2.5 0c-1.4.5-1.8 1.1-1.7 1.2.1.3 1.1.2 1.9.2 1.4-.1 2.3-1.4 2.3-1.4zm-8.1 20.8c-2 .4-4.5 1-6.5 1.7-1.9.8-3.3 1.5-5.1 3.5-1.4 1.3-2.9 3.2-5.9 4.4-2.1.8-3.4 2.1-3.4 2.5 0 0-.3.7.2.4 0 0 .8-.6 2.3-.8 1.5-.1 2.8-.1 2.8-.1l.3.3s-1.8 1.2-2.9 2.9c-.9 1.4-1.5 2.8-1.5 4.6 0 .4.4 1.1.8.5 0 0 2-2.7 3-2.7.9 0 2.1.7 3.7.7 2.7 0 3.6-.2 3.6-.2l.1.4s-1 1-2 2.7c-.6 1.1-1.1 2.4-1.3 4 0 .7.3 1 .9.5 0 0 1.5-1.8 2.2-2.2.8-.4 2.2-.6 3.7-1.2 1.9-.6 3-1.4 3-1.4l.4.4s-.4 1.9-.2 3.2c.3 1.1.9 1.9.9 3.3 0 1.8-1.7 4.5-1.7 4.5v.6s2-.9 4.3-1.7c1.6-.6 3.3-2 4-3.3 1.1-2 1.6-2 1.6-2s.4.7.1 2c-.6 1.8-1.2 3.2-1.2 4.1 0 0 .2.1.5.3 1.9-2.6 3.9-2.6 6.2-5.6 3-4.3 2.4-9 2.4-9l.2-.2s.8.3 1.4.4c.8.1 1.6 0 2.5.2.9.3 1.2.9 1.3 1.5.1.6.2 1.9.6 3.4.1.6.5.7.9.3.4-.4 2.2-2.5 3.1-6.8.4-2 .1-3.3-1.1-4.9-.7-.9-2.4-2.4-3.7-4-.9-1.1-1.4-2.4-1.1-3.9.1-.7.6-.6 1.1-.4.3.2.6.2.6.2s1.6.3 3.1-.6c2.4-1.6 2.8-3.7 2.8-3.7s-.4-.3-1.3.2c-.3.2-.7.5-1.4.3-.5-.1-2.1-.9-2.1-2.4 0 0-.1-1.5-.5-3.7-.4-2.3-.7-3.3-.7-3.3s-.2-.7.3-.7c.7.1 1.9.1 2.6-.2 0 0 2.1-.8 3.1-3 .3-.6.8-1.7.4-2.3-.2-.3-1.3.5-2.4.7-.8.1-1.6 0-2.1-.7-.2-.4-.8-1-1.2-1.9-.4-1.1-.1-1.8-.1-1.8s1.9-.2 3.3-1.5c.7-.7 3.8-5.4 3.8-7 0-.2-.3-.6-1-.3 0 0-3.4 3.3-5.9 4.4-2.1.7-3.5-.8-3.5-.8s1.6-.9 3.4-2.2c1.2-.9 2.1-2 2.1-3.4 0-.5-.1-.9-.8-.4 0 0-2.5 1.5-4.3 2.1-3.2 1-5.4.9-5.4.9s.1-1 2.1-2c1.3-.6 2-.5 1.9-1.2-.1-.3-.4-.7-.9-.9 0 0-2.4-.9-5.1 1.6-2.3 2.4-3.1 4.2-3.1 4.2s-2.2.2-4.5 1c-3.5 1.3-4.5 2.3-4.9 2.6 0 0-1.3 1.2-2 1.5-1.2.4-2.1.3-3.4.3-1 0-2.4.1-2.9.4-.4.2-1 .5-1.7 1.7-.2.5-.2.8-.1.9.4.3 1 .6 1.3 1 .3.5.4 1.4 1.1 2.6.6.9 1.5 2.2 2.4 2.7.7.3 1.6.3 1.9.7 0 0-1.6 1.1-3.2.8-.9-.2-2.2-1-3.1-3.4-.5-1.3-1.3-2.2-2.3-2.5-.8-.1-2.1-.1-3.5.9-1 .8-1.4 1.2-1.8 1.7s-1 1.5-.8 2.1c.2.4.7.9 1.6.9.6 0 1.3-.3 2.2-1 .5-.4 1.3-.7 1.8-.7.8.1 1.3 3.3 3.8 4.7 1.7.9 4 .7 4 .7s.6.3.6 1.2c0 .5.2 1.2.4 1.5-.1.7-.6 1.3-1.5 1.9-.4.3-.6.7-.6.7s.7.9 3 .4c1.3-.3 2.8-1.4 2.8-1.4s.3.2.1.7c-.1.2-.1.3.1.5.3.2.6.3 1.2.3.7 0 2.2-.8 3-1.5.3-.2.5.1.1.5.3.2-1.1 1.6-3.3 2.1zm-31.7-19.8c.5.2.5.3.9.4.5.1.7.1.8 0 .2-.6.4-1.8 0-2.3-.8-.8-2.5-1-2.8-.6-.1.3 0 .6.3.9 1.1.6.8 1.6.8 1.6zm-8.7 8.8c.8 0 .9-.4.9-.6.1-.3.1-.7.3-1.5 0-.2.3-.9-.6-.6-1.5.5-2.8 2.9-2.8 2.9s-.4.6.2.6c1.3-.3 1.7-.9 2-.8zm3.2 7.8c.3 0 .4-.2.3-.5-.1-.2-.4-.5-1-.6-.6 0-.8.4-.8.4-.1.2-.1.4-.1.7 0 .4-.2.6-.2 1.3 0 .4.4.6.7.2.4-.5.4-1.2.5-1.4.1-.1.3-.1.6-.1zm12.7-14.3c-.1.1 0 .3.2.7.2.3.9.8.9.8.4-.1.9-.5.8-1.1-.1-1.2-.3-1.7-.4-2s-.5-.9-.9-.8c-.1.1-.1.8-.1.8s.1.5 0 .9c-.2.3-.5.7-.5.7zm40.9 35.8s.6 2.6-1.3 6.6c-1.6 3.1-4.3 4.8-4.3 4.8s.4 1.7 1.8 2.3c2.2.8 4.3 4.9 4.3 6.5-.1 3.4-.4 4.2-1.4 6.9-1.1 2.6-1.7 5.7-1.7 6.9 0 2 1.9 4.3 1.9 6 0 2.6-.8 3.7-1.8 6.7-1.6 4.3-.3 6.6-.3 6.6.3.6.5.4.7 0 1.7-4.5 4.2-6.1 4.2-6.1.8-.6.8.1.6.8-.9 2.9-1.2 5.4-1.2 5.4l.5-.1c3.2-3.6 3.8-4.9 4.2-6.1.6-2.3.6-4.5.6-4.5s.3-1.3 2-1.1c1.7.3 2.8-.2 4.2-.9 1.7-1.2 2.9-2.5 2.9-2.5s.8-.7 1.8 0c1.7 1.6 1.7 3.9.8 5.7-1.3 2.4-2.4 2.8-3 2.8-.8 0-1.6-1.2-2.8-1.2-1.6 0-2.3 1-2.3 1.4 0 .9.7.9.8 1.6.3 1.6 1.1 2.9 1.1 2.9-.2.4-1.6 1.1-2 1.6-.3.4-.4 1.2-.4 1.2s-.3.5 1.1 1.2c1.1.5 1.2 1.6 2.4 2.5.9.6 1.7-.3 1.7-.3.9-1.2 1.1-2.1 1.1-2.1.2-.5.8-.3.8 0 .1.8.7 1.1 1 1.1 1.2.1 2-.6 2-.6s1 .1 1.7-.4c1.3-.8 1.8-1.7 1.8-1.7s.3-.6-.2-1.6c-.3-.4-.8-.7-.8-.7s.3-1 1.1-1c.9 0 1.8-.9 2.2-1.8.4-1.1.5-2.1.5-2.1.1-.3-.3-1.4.7-1.6 1.2-.3 1.7-.6 2.2-1.4.6-1.1.5-1.8.5-1.8-.1-.2-.5-.3-.5-.3-.3-.1-.2-.3-.1-.4 1-.9 2.6-2.4 2.8-3.4.1-.6 0-1-.5-1.5-2 1.1-3.2.9-3.3.6 0-.3 1.3-.9 1.3-.9 1.6-1 2.3-2.5 2.6-3.7.5-2.3.2-3.5.2-3.5h-.4c-1.8 3.2-4.6 4.3-4.6 4.3-.5.2-.6-.4-.4-.7 1.3-1.6 1.8-2.6 2-4.2s.1-2.4-.4-3.7c-.1-.3-.3-.2-.4 0-.8 1.8-1.2 2-2 3.3-1.1 1.5-2.4 2.1-2.9 1.8-.8-.7-.7-2.3-1.3-3-1-.9-2.5-.7-3.7-.1-.9.5-2.6 2.1-2.6 2.1l-.2-.2c.4-2.7-.5-4.9-.5-4.9l.3-.4c1.2-.1 2 .3 2 .3 2 .8 3.2.9 5.8.9 3.4 0 7.8-2.3 10-5.7 3.1-5.2 1.8-9.9 1.1-11.7-.9-2.1-1.5-2.8-1.8-3.1-.4-.3-.6-.1-.5.3.4 1.4.6 3.5.1 6.9-.1.7-.5.6-.8.2-.6-1.1-1.7-2.8-2.5-3.6-1.3-1.3-2.5-2.1-2.5-2.1-.6-.5-.4-1.2-.3-2 .6-2.6.3-4-.2-6.1-.6-2.2-2.9-4.7-3.9-5.3-.4-.3-.7 0-.4.4.6.7 1.1 2 1.2 4.4 0 1.6-.4 3-.4 3-1.2-.8-2.9-3.6-4-6.2-.9-1.9-1.3-4.5-.7-6.5.6-1.7 1.9-2.9 3-3.6 1.9-1.3 3.7-3.8 4.2-5.8.7-3.8-.9-4.3-.9-4.3-1.3 3.9-4.3 5.7-4.6 5.9-.4.2-.5.1-.4-.3.5-2 2-4.5 2-6.9 0-1.7-1.2-3-2.3-4.4-1.2-1.8-1.2-3.8.8-6.2 1.5-1.6 2.9-2.3 3.8-2.5.7-.2 1.2-.4 1-.8-.2-.5-.5-.5-1.2-.2-2.5.9-4.4 1.8-6.2 2.8-1.7.9-2 1-2.7 1.6-1.4 1.6-1.5 2.7-1.4 5.3.2 2.3 1.1 5.5 1.1 5.5l-.2.4s-1.7-1.3-3.4-1.6c-2.5-.3-2.5.5-2.5.5s3.8 3.8 4.4 6.6c.4 2.7.4 4.4.4 8.2 0 6.2.8 8.9 3.1 11.4 2 1.9 4.7 4.7 5 6.5.1.4 0 .5-.3.5-.8.2-1.1.3-1.9.5-.9.3-1.3.6-2.5.1-1.8-.8-2.7-2.6-3-3.5-.1-.6-.2-.9-.2-.9-.1-.8-.9-.8-.9-.1-.1 1.5-.1 2 .3 3.6.9 2.8 4.7 4.4 6.6 5 2.3.6 5.6.9 6.9 1.6 1.8 1.3 2.4 3.1 1.8 5.1-.9 1.8-2.3 2.3-4.1 2.6-2.6.3-3.6-.2-5.8-1.6-3.8-2.4-7.2-5.6-9.1-8.5-2.1-3.6-4.9-6.6-4.9-6.6l-2.7-3.4-.5.3zm26.6 49.9c-.7.4-.9 1.7-.6 2 .6.4 1.3.2 2.2-.2 1.6-.8 1.9-2.3 1.9-2.3.1-.9-.8-.3-1.2.1-.7.5-1.3.7-1.7.7-.4-.1-.6-.3-.6-.3zm-5.3 7c-1.3.3-1.8.5-1.6 1 .4 1.5 1.8 1.6 2.2 1.6 1.2 0 2.4-1.2 2.4-1.2.9-1.2-.2-.9-.5-.8-1.1.4-1.1.3-1.4.3-.4 0-1.1-.9-1.1-.9zm-9.2.8c-.4-.7-.6-.9-.9-1.1-.8-.6-1.1 0-1.3.2-.6 1.3-.6 1.9-.6 2.5 0 1.2 1 1.6 1 1.6.3.1 1 .1 1.2-.2.1-.3-.3-.5-.4-.9-.2-.7.4-1.2.4-1.2.6-.5.6-.9.6-.9zm-1.7-8.1c.3 0 .6-.3.2-.9-.3-.3-.8-.4-1.3-.2-.9.2-1.3.8-1.7 1.5-.7 1.2-.3 1.5 0 1.8.7.5 1.1.4 1.1.4s-.3-.8.2-1.3c.9-.7 1.1-1.1 1.1-1.1.1-.2.4-.2.4-.2zm-12.9-23.7c.1-.1 2.3-2 1.9-5.8-.7-4-2.4-4.9-2.4-4.9s-3.5 3.1-5.9 2.6c-3.1-.8-4.9-1.1-7.9-1.1-1.9 0-3.6 1.3-4.6 2.4-1.5 2-1.8 5.6-1.8 5.6s0 1.4-1.9 1.4c-1.5-.1-2.2.1-3 .3-1.6.5-2.3 1.7-2.5 2.3-.8 2.5.1 3.6.1 3.6.7-.7 1-1.6 1.9-2.5.9-.8 2-.6 2.5 0 .8 1 1.6 1.6 2.3 1.7 1.1.1 2.2-.4 3 .2.2 2.1.9 3.8.9 3.8s0 3-2.6 5.6c-1.6 1.5-2.6 1.9-3.9 1.9-1.2 0-1.7-1.5-2-2.3-.3-1-.9-1.9-1.9-1.7-1.2.3-2.1 1.1-2.2 2.3-1.8.5-2.6.9-2.9 1.6-.4.9.1 1.4.1 1.4s-2.2 1.5-2.2 2.6c0 1.8.9 3.4 2.2 3.4 1.4 0 2.2-1.5 3.4-1.4-.9.8-1.3 1.7-1.3 2.4 0 .6.6 1.2 2.2 2.2 1.3.6 3.1.8 3.8.1.6-.7.7-1.6 1.2-1.7.3.6 1.1 1.3 1.5 1.3 1.5 0 1.5-.3 3.3-.5 1.4-.2 2.8-.8 2.8-1.6s-1.6-1.4-1.6-2.3c0-.3.6-1.2 1.1-1.7.5-.7 1-.2 1-.2s.7 3.2 2.1 4.4c1.7 1.3 3.1 1.1 4.5-.5-3.3-.3-2-2.3-2-2.3s1.6 1.2 5.1 1.2c1.5 0 2.7-1.6 2.7-1.6v-.6s-1.7.3-2.5-1.1c-1-1.5-1.1-2.2-1.1-2.2-.2-.3.1-.4.3-.4 1-.1 1 .6 2.7-.5 1.5-1 1.7-2.5 1.7-2.5.1-.5-.2-.7-.3-.6-.9 1.2-1.7.9-2.4.5-1.1-.9-1.4-2-1.4-2s-.2-.8.6-1.1c2.3-.9 4.1-3.6 4.3-6.2 0-.1-.3-.2-.3-.2-.4.5-1.9 1.4-3 1.5-1.1 0-1.7-.6-1.9-1.2-.4-1.4 0-2 .5-2.7 1.7-2.2 3.6-2.7 5.8-2.9zm-20.2 29.6s1.5 1 2.4 1.3c.8.3 1.1.1.8-.5 0 0-.5-.8-.7-1.7-.1-.4-.2-.5-.4-.6 0 0-.5-.3-1.2 0 0 0-.4.1-.9.5-.4.1-.4.6 0 1zm-10.4-.4c0 .3.4.7.6 1.3.2.5 1 .7 1.2.5.1-.2.5-1.3.4-2.4 0 0-.6-.2-.9-.5s-.5-.3-.9-.4c.1-.1-.4.1-.4 1.5zm-7-6.1c-.3 1 .7 1.9.7 1.9s.1-.5.8-.9c.6-.4.7-1 .7-1s-.1-.1-.1-.3c-.1-.5.2-1.1 0-1.5-.2-.3-.6-.2-.6-.2s-1.1.8-1.5 2zm4.8-10.1c-1 .4-2 1-2 1.2 0 .3.3.4.3.4s.4-.3 1.4 0c1 .3 1.4.1 1.4.1s.1-.4.8-.7c.7-.3.3-1.1.3-1.1s-1.1-.3-2.2.1zm-9.1-34.4c-.2-1-.3-1.6-1.3-1.6-1.5 0-.8 1.1-3.1 2.1-3.2.9-2.2 2.8-2.2 2.8s-.9-.2-2 .4c-1 .6-2 3.3-.1 5.6.2.2 0 .4 1 .5.2 0 .3.2.1.5 0 0-1.5 1.8-.6 3.4.4.6 1.4 1.5 5.9 1.8 1.4.1 1.4-1.2 1.8-1.2.7 0 .5.7 2 .7 1 0 1.5-1.8 2.4-2.4 1-.6 2.2-.4 2.9-1.4.7-1.1-.6-2.1-.6-2.1s.5-.4 1.5-.1c0 0 2.7 3.2 4.8 3.2 2.9 0 4.7-1.3 4.7-1.3s1.4-.8.1-1c0 0-2.3-.2-3.2-1.3 0 0-.7-.9-.2-1.4.7-.6 1.1-.1 1.3.1.9 1.4 1.7 1.8 2.3 2.1.6.2 1.1.3 2.3.3.9 0 1.3-.5 1.3-.6-.9-.8-1.9-3.3-.6-5.3 1-1.4 2.7-.4 3 0 .4.4.8 1.2 1.9 1 .9-.2.4-3.5-.6-4.8 0 0-1.5-.4-4.1.6-1.7.7-3.8 2.9-4.5 2.8-.8-.3-1.5-2.4-.8-4 .6-1.2 2.2-2.9.4-3.6-2.6-1-5.7 1.5-6.8 2.5-1.3 1.1-2.5 2.8-6 4.5 0 0-3 1.3-3 .3.2-.8.1-1.8 0-3.1zm-6.8-1.6c-2.7.9-2 1.9-2 1.9s1.8-.4 2.6.3c0 0 2.5-.6 3.2-1.9.1 0-1-1.1-3.8-.3zm-5.8 8.9c-.8 1-.5 3-.4 3.4s.3.9.7.2c0 0 1-1.9 2.5-2.4 0 0-.3-.7-.4-2.1 0-.1-1.2-.5-2.4.9zm7.6 10.5c1.4 2.1 3.1 1.3 3.1 1.3s-.8-1.3-.6-2.4c.1-.4.4-.3.4-.7 0 0-1.9 0-3.4-.4 0-.1-.5.4.5 2.2zm10.1-4.5c-1 .1-1.8 1.5-1.8 1.5 1.5 2.4 4 1 4 1s.2-.5-.1-.5c-.9-.2-1.1-.3-1.2-.4-.5-1.2-.9-1.6-.9-1.6z"/><path fill="none" stroke="#010101" stroke-width="1.701" stroke-miterlimit="3.864" d="M103 3.05c43.4 0 72.3 16.3 72.3 16.3l-5.2 80.2c-2.4 27.7-8.9 47.1-20.6 59.8-19.7 19.2-46.5 30.8-46.5 30.8s-26.8-11.6-46.5-30.8c-11.7-12.7-18.2-32.1-20.6-59.8l-5.2-80.2S59.6 3.05 103 3.05z"/><g fill="#FFF" stroke="#010101"><path d="M18.1 177.15l-5.3-6.5s1.8-.6 3.7-2.1c2.3-1.8 3.9-4.1 3.1-5.8.7 1.5.9 2.9.9 4.6.4 5.1 2 8.7 2 8.7-1.7.5-3.2.9-4.4 1.1z"/><path stroke-miterlimit="3.864" d="M18.1 177.15l-5.3-6.5s1.8-.6 3.7-2.1c2.3-1.8 3.9-4.1 3.1-5.8.7 1.5.9 2.9.9 4.6.4 5.1 2 8.7 2 8.7-1.7.5-3.2.9-4.4 1.1z"/></g><path fill="none" d="M186.4 160.725c-.7 1.5-.9 2.9-.9 4.6-.4 5.1-2 8.7-2 8.7"/><path fill="#FFF" d="M183.5 174.025c1.7.5 3.1.8 4.3 1l5.3-6.5s-1.8-.6-3.7-2.1c-2.1-1.6-3.7-3.6-3.4-5.2-.5 1.3-.7 2.5-.6 4-.2 5.2-1.9 8.8-1.9 8.8z"/><path fill="none" stroke="#010101" stroke-miterlimit="3.864" d="M183.5 174.025c1.7.5 3.1.8 4.3 1l5.3-6.5s-1.8-.6-3.7-2.1c-2.1-1.6-3.7-3.6-3.4-5.2-.5 1.3-.7 2.5-.6 4-.2 5.2-1.9 8.8-1.9 8.8z"/><path fill="#FFF" d="M76.3 182.45l12.3-18.1s-.4-.7-4-.7c-11.9 0-23.6 6.1-32.6 11.9-19.8 13.3-26.6 15.2-31 15.3-2-.2-4.4-.2-6.4-4.4-.7-1.4-5.3-10.3-6.7-13.1H8c.8 1.5 2 3.7 6.6 4.1 4.4-.1 12.9-1.1 32.7-14.4 9-5.7 20.6-11.9 32.6-11.9 3.6 0 4.7 1.9 4.7 1.9l5.9 10.5-13.1 19.2-1.1-.3z"/><path fill="none" stroke="#010101" stroke-miterlimit="3.864" d="M77.2 182.85l13.1-19.2-5.9-10.5s-1.1-1.9-4.7-1.9c-11.9 0-23.6 6.1-32.6 11.9-19.8 13.2-28.3 14.2-32.7 14.3-4.6-.4-5.7-2.5-6.6-4.1"/><path fill="#FFF" stroke="#010101" d="M135.9 166.35s-1.1.7-.7 1.2l4.9 6.1s1.2 1.3.9 3.3l-3.4 15.6s-.6 2.1-2.8 2.9c-5.2 2.4-18.2 7.5-31.8 7.5-13.8 0-26.9-5.3-32-7.6-2.2-1.2-2.6-3-2.6-3l-3.4-15.4c-.3-2 .9-3.3.9-3.3l4.9-6.1c.4-.5-.8-1.2-.8-1.2l1.5-.5s1.4.9.7 2.1l-4.2 5.7s-1.5 1.8-.1 3c0 0 14.2 13 35.1 13s35.1-13 35.1-13c1.4-1.2-.1-3-.1-3l-4.2-5.7c-.7-1.2.7-2.1.7-2.1l1.4.5z"/><path fill="none" d="M135.9 166.35s-1.1.7-.7 1.2l4.9 6.1s1.2 1.3.9 3.3l-3.4 15.6s-.6 2.1-2.8 2.9c-5.2 2.4-18.2 7.5-31.8 7.5-13.8 0-26.9-5.3-32-7.6-2.2-1.2-2.6-3-2.6-3l-3.4-15.4c-.3-2 .9-3.3.9-3.3l4.9-6.1c.4-.5-.8-1.2-.8-1.2l1.5-.5s1.4.9.7 2.1l-4.2 5.7s-1.5 1.8-.1 3c0 0 14.2 13 35.1 13s35.1-13 35.1-13c1.4-1.2-.1-3-.1-3l-4.2-5.7c-.7-1.2.7-2.1.7-2.1l1.4.5z"/><defs><path id="e" d="M71.5 165.85s1.4.9.7 2.1l-4.2 5.7s-1.5 1.8-.1 3c0 0 3 2.8 8.4 5.8l12.3-18.1s-.4-.7-4-.7c-4.5 0-8.9.9-13.1 2.2z"/></defs><defs><path id="g" d="M71.5 165.85s1.4.9.7 2.1l-4.2 5.7s-1.5 1.8-.1 3c0 0 3 2.8 8.4 5.8l12.3-18.1s-.4-.7-4-.7c-4.5 0-8.9.9-13.1 2.2z"/></defs><clipPath id="f"><use xlink:href="#e" overflow="visible"/></clipPath><clipPath id="h" clip-path="url(#f)"><use xlink:href="#g" overflow="visible"/></clipPath><linearGradient id="i" gradientUnits="userSpaceOnUse" x1="-6559.286" y1="8098.39" x2="-6541.175" y2="8098.39" gradientTransform="matrix(.4166 -1.1456 1.2937 .4705 -7670.943 -11142.497)"><stop offset="0" stop-color="#952b24"/><stop offset=".505" stop-color="#e01f26"/><stop offset="1" stop-color="#952b24"/></linearGradient><path clip-path="url(#h)" fill="url(#i)" stroke="#010101" d="M73 158.45l-7.6 20.8 15.9 5.7 7.5-20.7z"/><path fill="none" stroke="#010101" d="M71.5 165.85s1.4.9.7 2.1l-4.2 5.7s-1.5 1.8-.1 3c0 0 3 2.8 8.4 5.8l12.3-18.1s-.4-.7-4-.7c-4.5 0-8.9.9-13.1 2.2z"/><path fill="none" stroke="#010101" d="M71.5 165.85s1.4.9.7 2.1l-4.2 5.7s-1.5 1.8-.1 3c0 0 3 2.8 8.4 5.8l12.3-18.1s-.4-.7-4-.7c-4.5 0-8.9.9-13.1 2.2z"/><path fill="#FFF" d="M128.8 182.85l-13.1-19.2 5.9-10.5s1.1-1.9 4.7-1.9c11.9 0 23.6 6.1 32.6 11.9 19.8 13.3 28.3 14.2 32.7 14.4 4.6-.4 5.7-2.5 6.6-4.1-1.4 2.7-5.9 11.6-6.7 13.1-2 4.1-4.3 4.2-6.4 4.4-4.4-.1-11.2-2.1-31-15.3-9-5.7-20.6-11.9-32.6-11.9-3.6 0-4 .7-4 .7l12.3 18.1-1 .3z"/><path fill="none" stroke="#010101" stroke-miterlimit="3.864" d="M128.8 182.85l-13.1-19.2 5.9-10.5s1.1-1.9 4.7-1.9c11.9 0 23.6 6.1 32.6 11.9 19.8 13.3 28.3 14.2 32.7 14.4 4.6-.4 5.7-2.5 6.6-4.1m-121.9 9l12.3-18.1s-.4-.7-4-.7c-11.9 0-23.6 6.1-32.6 11.9-19.8 13.3-26.6 15.2-31 15.3-2-.2-4.4-.2-6.4-4.4-1-1.6-7.2-13.8-7.2-13.8-.5-1.2-1.1-2.9 1.3-5.9 4-4.3 9.9-5.7 11-3.8.8 1.7-.9 3.9-3.2 5.7-1.9 1.5-3.7 2.1-3.7 2.1l5.4 6.5"/><path fill="none" stroke="#010101" stroke-miterlimit="3.864" d="M129.7 182.45l-12.3-18.1s.4-.7 4-.7c11.9 0 23.6 6.1 32.6 11.9 19.8 13.3 26.6 15.2 31 15.3 2-.2 4.4-.2 6.4-4.4.9-1.7 7.2-13.9 7.2-13.9.5-1.2 1.1-2.9-1.3-5.9-4-4.3-9.9-5.7-11-3.8-.8 1.7.9 3.9 3.2 5.7 1.9 1.5 3.7 2.1 3.7 2.1l-5.3 6.5"/><defs><path id="j" d="M7.8 173.35l-.4-.7c-.5-1.2-1.1-2.9 1.3-5.9 4-4.3 9.9-5.7 11-3.8.8 1.7-.9 3.9-3.2 5.7-1.9 1.5-3.7 2.1-3.7 2.1l5.3 6.5c-1.5.3-2.7.3-3.7.4-4.6-.6-5.8-2.7-6.6-4.3z"/></defs><clipPath id="k"><use xlink:href="#j" overflow="visible"/></clipPath><linearGradient id="l" gradientUnits="userSpaceOnUse" x1="-2837.328" y1="8452.407" x2="-2822.41" y2="8452.407" gradientTransform="matrix(.935 -.5344 .646 1.1303 -2799.387 -10895.532)"><stop offset="0" stop-color="#952b24"/><stop offset=".505" stop-color="#e01f26"/><stop offset="1" stop-color="#952b24"/></linearGradient><path clip-path="url(#k)" fill="url(#l)" stroke="#010101" d="M18.3 160.15l-13.9 8 7.2 12.7 14-8z"/><path fill="none" stroke="#010101" d="M7.8 173.35l-.4-.7c-.5-1.2-1.1-2.9 1.3-5.9 4-4.3 9.9-5.7 11-3.8.8 1.7-.9 3.9-3.2 5.7-1.9 1.5-3.7 2.1-3.7 2.1l5.3 6.5c-1.5.3-2.7.3-3.7.4-4.6-.6-5.8-2.7-6.6-4.3z"/><path fill="#BDBEC0" d="M102.9 201.05c-12.5 0-24.6-4.5-30.1-7 0 0-.2-.1-.2.4 0 .2.2.3.2.3 5.7 2.5 17.6 6.9 30.1 6.9s24.5-4.4 30.2-6.9c0 0 .2-.1.2-.3 0-.5-.2-.4-.2-.4-5.5 2.5-17.6 7-30.2 7zm-18.1-38.6h-.2c-12.3 0-24.3 6.3-33.3 12.1-19.7 13.2-26.3 15-30.3 15.1h-.4s-.8-.1-.3-.7c.2 0 .5.1.8.1 3.8-.2 10.3-1.9 29.9-15 9-5.7 21-12.1 33.5-12.2.6-.1.7.6.3.6zm36.4 0h.2c12.3 0 24.3 6.3 33.3 12.1 19.7 13.2 26.3 15 30.3 15.1h.4s.8-.1.3-.7c-.2 0-.5.1-.8.1-3.8-.2-10.3-1.9-29.9-15-9-5.7-21-12.1-33.5-12.2-.7-.1-.7.6-.3.6z"/><g fill="#E01F26" stroke="#952B24" stroke-width=".5" stroke-miterlimit="3.864"><path d="M43.4 26.35c.2.3.6.6 1.1 1.2.5.5 1 1.1 1.6 1.6l1.7 1.7c.5.5.8.7.9.8.2-3 .3-5.4.3-7.2 1-.4 2-.7 2.9-1.1.1 0 .1-.1.2-.1.2-.1.3 0 .3.1s0 .2-.1.3c-.5.2-.8.5-.8.9s.2 1.3.7 2.7l1.2 3.5c.2.7.5 1.2.8 1.4s.6.3 1 .2c.2-.1.3 0 .4.1 0 .1 0 .1-.1.2l-1.8.6c-.6.2-1.3.5-2.3.9-.1 0-.2-.1-.2-.2s.1-.2.3-.3.4-.2.4-.4c.1-.1.1-.3.1-.5s-.1-.6-.2-1l-1.1-3.2c-.6-1.6-.9-2.5-1-2.8-.2 3.4-.2 5.5-.3 6.4v2.1c0 .2 0 .4-.1.4s-.2-.1-.4-.3c-.6-.6-2.5-2.6-5.9-6 .4 1.2.9 2.7 1.6 4.7.4 1 .6 1.7.8 1.9s.6.3 1.1.2c.2 0 .3 0 .3.1s0 .2-.1.3h-.2c-.5.1-.9.3-1.1.3-.6.2-1.1.4-1.4.6-.1 0-.1.1-.1.1-.2.1-.3 0-.3-.1v-.2s.1-.1.3-.2c.4-.2.6-.5.7-.8 0-.3 0-.7-.2-1.2l-1.4-4c-.3-.9-.5-1.5-.7-1.8-.1-.3-.3-.5-.6-.6-.2-.1-.5-.1-1-.1-.2 0-.3 0-.3-.2 0-.1 0-.2.2-.3h.1c.4.1 1.4-.2 2.7-.7zm10.4-3.5c.2 0 .5-.1 1-.2.4-.1.7-.2.9-.2l2-.6c.2 0 .3 0 .3.1s0 .2-.2.3c-.3.1-.6.3-.6.4-.1.1-.1.4-.1.8s.3 1.2.6 2.6c.4 1.5.8 2.7 1.1 3.5s.5 1.3.7 1.4c.2.2.4.2.8.1.2-.1.3 0 .4.1 0 .2 0 .3-.3.4-.1 0-.2 0-.3.1-.9.2-1.4.3-1.7.4-.7.2-1.2.4-1.5.5-.2.1-.3.1-.4.1-.2 0-.3 0-.3-.1s0-.2.2-.3c.4-.2.6-.3.7-.6.1-.2 0-.7-.1-1.3-.2-.7-.4-1.7-.8-3.1-.4-1.5-.7-2.5-.9-2.9-.2-.5-.4-.8-.5-.9s-.4-.1-.7 0c-.2 0-.3 0-.3-.1-.2-.3-.1-.4 0-.5zm12.6 7.1c-.2 0-1 .2-2.4.5l-1.5.3-.9.2c-.2 0-.3.1-.4 0-.1 0-.1-.1-.1-.2s0-.2.2-.3c.4-.1.6-.2.8-.4.1-.2.2-.4.2-.8s-.2-1.1-.4-2.2-.4-2.1-.6-3c-.3-1.3-.5-2.1-.7-2.3-.2-.3-.5-.4-1-.3-.2 0-.3 0-.3-.2 0-.1 0-.2.2-.2.1 0 .4-.1.9-.1.6-.1.9-.1 1.2-.2l2.5-.6c.9-.2 1.7-.2 2.6 0s1.6.6 2.3 1.3c.7.7 1.1 1.5 1.3 2.5.2.7.2 1.5.1 2.2s-.4 1.3-.8 1.9-.9 1-1.3 1.2c-.6.4-1.2.6-1.9.7zm-.6-.4c.9-.2 1.6-.7 2-1.6.4-.8.4-1.9.1-3.2-.3-1.3-.9-2.4-1.7-3.1-.8-.7-1.7-1-2.8-.7-.4.1-.6.2-.7.2-.1.1-.1.1-.1.2s.1.6.3 1.6l.5 2.5c.1.6.3 1.4.5 2.3.2.7.3 1.1.4 1.4.1.2.3.4.5.5.3 0 .6 0 1-.1z"/><path d="M76.3 28.05c-.2 0-1 .1-2.5.3l-1.5.2-.9.1H71c-.1 0-.1-.1-.1-.2s.1-.2.3-.3c.4-.1.6-.2.8-.3.2-.2.2-.4.2-.8s-.1-1.1-.2-2.2-.3-2.1-.4-3c-.2-1.3-.4-2.1-.6-2.4s-.5-.4-.9-.3c-.2 0-.3 0-.3-.2 0-.1 0-.2.2-.2.1 0 .4 0 .9-.1.6 0 1-.1 1.2-.1l2.6-.5c.9-.1 1.7-.1 2.6.1s1.6.7 2.2 1.4c.6.7 1 1.6 1.1 2.6.1.8.1 1.5-.1 2.2s-.5 1.3-.9 1.8c-.5.5-.9.9-1.4 1.1-.6.5-1.2.7-1.9.8zm-.5-.4c1-.2 1.7-.6 2.1-1.4s.6-1.9.3-3.2c-.2-1.4-.7-2.4-1.4-3.2-.7-.8-1.7-1.1-2.8-.9-.4.1-.6.1-.7.2s-.1.1-.1.2 0 .6.2 1.7l.3 2.5c.1.6.2 1.4.3 2.3.1.7.2 1.1.3 1.4.1.2.2.4.5.5.2-.1.6-.1 1-.1z"/><path d="M89 26.45c-1.2.1-2.9.2-5.4.5-.8.1-1.5.2-2.1.3h-.3c-.2 0-.3 0-.3-.2 0-.1 0-.1.1-.1 0 0 .2-.1.3-.1.3-.1.5-.2.6-.3l.3-.6c0-.3 0-1-.1-2.1s-.2-2.4-.4-3.9c-.1-.6-.2-1-.3-1.3-.1-.3-.3-.5-.4-.6-.2-.1-.4-.2-.7-.1-.2 0-.3-.1-.3-.2s.1-.2.3-.3l2.3-.2c.4 0 .8-.1 1.5-.2.2 0 .4-.1.5-.1.2 0 .3 0 .3.2 0 .1 0 .1-.1.2-.1 0-.2.1-.5.2s-.5.2-.6.3-.2.4-.2.7c0 .3 0 1 .2 2.1l.5 4.5c.1.7.2 1.1.3 1.2.1.1.3.2.6.1.8-.1 1.3-.2 1.7-.4.4-.2.7-.4 1-.8s.6-1 .9-1.8c.1-.2.1-.3.2-.3s.2.1.2.2c.1.2.1 1.3-.1 3.1zm7.9-10.4c.2.8.4 1.5.6 2.3 0 .1-.1.2-.2.2s-.2-.1-.3-.2c-.5-.7-1-1.2-1.4-1.4-.4-.2-1-.3-1.7-.3-.4 0-.8.1-1.2.2v2.9c0 .2 0 .5.1.9h.5c.3 0 .6-.1.8-.2.2-.1.4-.3.6-.6.1-.3.2-.5.3-.6 0-.2.1-.2.2-.2s.2 0 .2.2v.1c0 .3 0 1.2.1 2.8 0 .2 0 .4.1.6v.1c0 .1-.1.2-.2.2s-.2-.1-.3-.4c-.1-.5-.3-.8-.7-1-.3-.2-.9-.3-1.6-.3 0 .8 0 1.4.1 1.6.1 1.1.1 1.8.2 2 0 .2.2.4.4.5.2.1.6.2 1 .1 1.8-.1 2.9-.8 3.4-2 .1-.2.2-.3.2-.3.1 0 .2 0 .2.2v.3l-.3 2.2-2.6.1c-.7 0-1.4 0-2 .1H92c-.4 0-1 .1-1.7.2h-.2c-.2 0-.3-.1-.3-.2s.1-.2.3-.2c.4 0 .7-.2.9-.4.1-.3.2-.8.2-1.6l-.2-3.8c-.1-1.3-.1-2.1-.2-2.4 0-.3-.1-.5-.3-.6-.1-.1-.4-.2-.7-.2-.1 0-.2-.1-.2-.2s.1-.2.2-.2h1.7l5.4-.5zm7.2.2c.1-.1.1-.2.2-.3.1-.2.1-.2.2-.2s.2.1.2.3l.2 2v.2c0 .1-.1.2-.2.2s-.2 0-.2-.1c0 0-.1-.2-.2-.5-.2-.4-.5-.8-1-1.2s-.9-.5-1.4-.5c-.4 0-.8.1-1.1.4-.3.3-.4.6-.4 1 0 .3.1.6.4.9.3.3.8.5 1.6.8 1.2.4 2.1.8 2.5 1.4s.7 1.2.7 1.9-.2 1.3-.5 1.7c-.3.5-.7.8-1.1 1.1-.4.3-1 .4-1.7.4-.4 0-.8-.1-1.2-.2-.4-.1-.9-.3-1.3-.6-.1.1-.2.3-.2.4-.1.2-.2.3-.3.3-.1 0-.2-.1-.2-.4l-.2-2.7v-.2c0-.1.1-.2.2-.2s.2.1.3.4c.3.7.7 1.4 1.1 1.9.5.5 1 .7 1.7.7.5 0 1-.2 1.3-.5s.5-.7.5-1.2c0-.4-.2-.8-.5-1.1-.3-.3-.9-.6-1.7-.9-.8-.3-1.4-.5-1.7-.8-.4-.2-.7-.6-.9-1-.2-.4-.3-.9-.3-1.3 0-.8.3-1.4.8-2 .6-.5 1.3-.8 2.3-.8l2.1.7zm7.4 4.4c.9.3 1.7.6 2.1 1.1.5.5.7 1 .7 1.7 0 .6-.2 1.1-.6 1.5s-.8.7-1.3.9c-.5.1-1.2.2-2.2.2-.2 0-.6 0-1.1-.1-.4 0-.7-.1-1-.1h-1.8c-.2 0-.3-.1-.3-.2s.1-.2.2-.2c.3 0 .5-.1.6-.1l.3-.3c.1-.2.1-.4.2-.8l.2-3.5c0-1.1.1-1.9.1-2.6 0-.7 0-1.1-.1-1.3 0-.2-.1-.3-.2-.4-.1-.1-.3-.1-.5-.2-.2 0-.3 0-.4-.1 0 0-.1-.1-.1-.2s.1-.2.2-.2h4.6c.8 0 1.5.3 2 .7s.7 1 .7 1.6c.2 1.3-.7 2.1-2.3 2.6zm-1.9-.2c1.6.1 2.4-.7 2.5-2.1 0-.6-.1-1.1-.4-1.5-.3-.3-.6-.5-1-.5-.3 0-.6 0-1 .2-.1.5-.1 1-.1 1.6v2.3zm0 .5c-.1 1-.1 1.9-.1 2.6v1.6c.1.1.3.2.7.2.7 0 1.2-.2 1.5-.5.3-.4.5-.9.6-1.6 0-.7-.1-1.2-.5-1.7-.3-.4-.8-.7-1.5-.7-.3.1-.5.1-.7.1zm10.9.7c.6.2 1.1.4 1.5.8.4.3.6 1 .7 1.9s.2 1.5.4 1.8c.2.3.5.5.9.5.2 0 .3.1.3.3 0 .1-.2.2-.5.2l-2.6-.3c-.2-.3-.4-.9-.4-1.6 0-1-.1-1.7-.2-2.1s-.3-.7-.5-.9c-.3-.2-.6-.3-.9-.4h-.4c-.2 1.7-.3 2.8-.3 3.2 0 .4 0 .7.1.9.1.2.4.3.8.4.2 0 .3.1.3.3 0 .1-.1.2-.3.2l-2.1-.3c-.3 0-.7-.1-1.1-.1h-.8c-.2 0-.3-.1-.3-.2s.1-.2.3-.2c.3 0 .5 0 .7-.1s.4-.7.5-1.7l.1-1.4.3-2.7c.1-1.4.2-2.2.1-2.5-.1-.3-.4-.5-.9-.6-.2 0-.3-.1-.3-.2s.2-.2.4-.2c1.3.1 2.4.2 3.3.3.4 0 .8 0 1.1.1 1 .1 1.8.4 2.4.9.5.5.8 1.1.7 1.8-.1.5-.2.9-.6 1.3-.3.4-.7.6-1.1.7-.6-.1-1.1-.1-1.6-.1zm-1.9-.5h.3c.4 0 .8 0 1.2-.1.4-.1.7-.3.9-.7.2-.3.3-.7.4-1.1.1-.6-.1-1.1-.4-1.5s-.7-.6-1.3-.7c-.2 0-.5 0-.8.1l-.3 4zm11.7-3.2c.9.1 1.7.5 2.3 1s1.1 1.2 1.4 2 .4 1.7.2 2.6c-.2 1.4-.9 2.5-2 3.4-1.1.9-2.4 1.3-3.8 1-1.3-.2-2.3-.8-3.1-1.8-.8-1-1-2.3-.8-3.8.2-1.4.9-2.5 2-3.4 1.2-.9 2.4-1.3 3.8-1zm1.6 5.3c.2-1.5.2-2.6-.2-3.5-.4-.8-.9-1.3-1.6-1.4s-1.4.2-2 .9c-.6.7-1 1.8-1.2 3.2-.2 1.4-.2 2.6.1 3.4.3.9.9 1.3 1.6 1.5.7.1 1.3-.2 1.9-.8.7-.6 1.2-1.7 1.4-3.3zm3.7-4.4l2.2.5c.2 0 .4.1.7.1.4.1.8.1 1 .2.2 0 .3.1.3.3 0 .1-.1.2-.3.2-.3 0-.6 0-.8.2s-.4.6-.6 1.4c-.2.7-.4 1.5-.6 2.3-.3 1.4-.4 2.3-.4 2.8s.2.9.5 1.3.8.6 1.5.8c.7.1 1.2.1 1.6-.1.4-.2.7-.7 1-1.3.3-.6.6-1.8 1-3.6.2-1.1.3-1.8.2-2.2-.1-.4-.3-.7-.6-.8-.3-.1-.4-.2-.3-.3 0-.1.2-.2.4-.1.1 0 .3.1.5.2s.5.1.8.2.5.1.9.1c.2 0 .4.1.5.1.2 0 .3.1.3.3 0 .1-.1.2-.3.1-.2 0-.5 0-.7.2s-.4.5-.6.9c-.1.5-.4 1.6-.8 3.6-.3 1.3-.6 2.2-.9 2.7-.4.5-.9.9-1.5 1.1s-1.4.2-2.3 0c-.7-.1-1.2-.3-1.7-.6-.5-.2-.8-.5-1.1-.8-.2-.3-.4-.7-.4-1.1-.1-.4 0-.9.1-1.6l.9-3.9c.1-.5.2-1 .2-1.4s0-.6-.1-.7-.3-.3-.5-.3c-.2-.1-.2-.1-.3-.1v-.2c-.1-.5 0-.6.2-.5zm18.8 5.5l-.4 2.1c0 .1 0 .2-.1.2 0 .1-.1.2-.2.2s-.2-.1-.2-.3c-.1-.9-.4-1.6-.8-2.3-.4-.6-1-1.1-1.7-1.3-.9-.3-1.8-.1-2.6.6s-1.3 1.6-1.7 2.8c-.4 1.3-.4 2.4 0 3.4s.9 1.6 1.7 1.8c.3.1.7.1 1.1 0 .4-.1.7-.2.8-.3.2-.2.3-.4.4-.8.2-.8.3-1.3.3-1.5s-.1-.4-.2-.5c-.1-.1-.4-.3-.8-.4-.2-.1-.2-.2-.2-.3 0-.1.1-.2.3-.1l1 .3 3.1.8c.1 0 .2.1.2.2s-.1.1-.1.1h-.6c-.3 0-.4 0-.5.1s-.4.8-.8 2.1c-.1.3-.2.5-.2.5l-.9.3c-.6.1-1.2.2-1.8.2s-1.1-.1-1.7-.3c-.9-.3-1.7-.7-2.3-1.3-.6-.6-1-1.3-1.3-2.1-.2-.8-.2-1.7.1-2.7.4-1.4 1.2-2.4 2.3-3.2 1.2-.7 2.5-.9 4.1-.5.5.2 1 .4 1.4.6.4.3.8.6 1.3 1 .1.1.2.1.3.2.1 0 .2 0 .3-.1.1-.2.2-.2.3-.2.1.2.1.4.1.7zm7 6.4l.8-2.1c.2-.6.3-1 .3-1.3s-.2-.5-.6-.7c-.3-.1-.4-.2-.4-.4.1-.1.2-.2.3-.1.2.1.5.2.9.4.5.2.8.3.9.4.7.3 1.4.5 2 .6.1 0 .2.1.2.1.2.1.2.2.2.3-.1.1-.2.2-.4.1-.3-.1-.5-.1-.7-.1s-.3.1-.4.3c-.1.2-.4.8-.8 1.8s-.7 1.8-.8 2.2c-.6 1.6-1 2.7-1.1 3-.1.4-.1.7 0 .9s.3.4.6.5c.2.1.3.2.2.3 0 .1-.1.2-.3.1-.1 0-.2-.1-.3-.1l-1.8-.7c-.1 0-.3-.1-.6-.2-.6-.2-1-.3-1.2-.4-.2-.1-.2-.2-.2-.3s.1-.2.3-.1c.3.1.6.1.7.1.2-.1.4-.3.6-.7.2-.4.6-1.2 1-2.5 0-.1.1-.3.2-.6-.8-.3-1.4-.6-2-.8-.7-.2-1.2-.4-1.6-.5-.4.9-.7 1.8-1 2.5-.2.5-.3.9-.2 1.2 0 .3.2.4.6.6.2.1.2.2.2.3s-.2.2-.3.1c-.1 0-.2-.1-.3-.1-.5-.2-1-.5-1.6-.7-.3-.1-.6-.2-1.1-.3-.3-.1-.5-.2-.6-.2-.2-.1-.3-.2-.3-.3s.2-.1.3-.1c.3.1.6.1.8 0 .2-.1.3-.3.5-.6s.6-1.2 1.1-2.7c.6-1.5.9-2.4.9-2.5.3-.7.4-1.2.5-1.5s.1-.6 0-.7-.2-.3-.4-.4-.3-.2-.3-.2v-.2c.1-.1.2-.2.3-.1.2.1.5.2.9.4.2.1.5.2.8.3l1.9.6c.2.1.3.2.2.3-.1.1-.2.2-.3.1-.3-.1-.5-.1-.6-.1s-.3.2-.4.4c-.1.2-.3.6-.5 1.2l-.7 2c.5.3 1.1.5 1.7.7.7.2 1.3.4 1.9.5z"/></g><path fill="#E01F26" stroke="#952B24" stroke-width=".5" stroke-miterlimit="3.864" d="M90.6 190.15v6.2c0 .9.1 1.4.2 1.7s.4.4.8.5c.3.1.5.1.5.2.1 0 .1.1.1.2s-.1.2-.3.2h-.2c-.9-.2-1.6-.4-2-.5-.5-.1-1.1-.2-2-.3-.3 0-.5-.1-.6-.1-.2 0-.3-.1-.3-.3 0-.1 0-.1.1-.2h.5c.4 0 .6 0 .8-.1.2-.1.3-.2.3-.4 0-.1.1-.5.1-1v-3.7c0-.6 0-1.1-.1-1.3-.1-.3-.2-.5-.4-.6-.2-.1-.4-.3-.8-.4-.3-.1-.5-.2-.5-.2-.1 0-.1-.1-.1-.2s0-.2.1-.2h.5c1.1.1 2 .1 2.9-.1h.2c.1.1.2.2.2.6zm9.7 5c.6.3 1.1.7 1.5 1.1.3.4.5.9.5 1.4 0 .8-.4 1.4-1.1 1.8-.7.5-1.6.7-2.7.6-1-.1-1.8-.4-2.4-.8-.6-.5-1-1-1-1.5 0-.4.2-.7.5-1.1.3-.4.8-.7 1.5-.9-.6-.3-1-.6-1.3-1s-.4-.8-.4-1.2c0-.8.3-1.4 1-1.8.7-.4 1.5-.6 2.5-.5.9.1 1.7.3 2.2.7.6.4.8.9.8 1.4 0 .3-.1.7-.4.9-.2.2-.6.5-1.2.9zm-.7-.4c.3-.2.5-.4.7-.6.2-.3.3-.6.3-.9 0-.3-.2-.7-.5-1-.3-.4-.8-.6-1.4-.6s-1 .1-1.3.3c-.3.3-.5.6-.5.9 0 .2.1.5.3.7.2.3.8.6 1.6.9.5.2.7.3.8.3zm-1.9 1.2c-.4.2-.7.5-.9.8-.2.3-.3.6-.3 1 0 .5.2.9.6 1.2s.9.5 1.4.6c.7.1 1.1-.1 1.5-.4.3-.3.5-.6.5-1.1 0-.3-.1-.6-.4-.9-.2-.2-1-.6-2.4-1.2zm13-3.7l-3.1.4c-.8.1-1.3.2-1.6.3-.2.1-.5.4-.8.7-.2.3-.4.5-.5.5-.2 0-.2 0-.2-.2s.1-.7.3-1.5c.2-.8.4-1.4.5-1.5.1-.2.2-.3.3-.3.1 0 .2 0 .3.2.1.1.2.2.3.2.1 0 .6 0 1.3-.1.7-.1 1.1-.1 1.2-.2l3.5-.5c-.1.2-.2.5-.4.9-.8 1.4-1.3 2.5-1.5 3.4-.3.9-.4 1.9-.5 3 0 .7-.1 1.3-.3 1.6-.2.3-.5.5-1 .6-.3 0-.6 0-.8-.2-.2-.2-.3-.4-.3-.7s.1-.7.3-1.2c.2-.5.6-1.3 1.2-2.3l1.8-3.1zm5.6 1c.3-.3.7-.5 1-.6.4-.2.7-.3 1.1-.4.9-.2 1.7-.1 2.4.3s1 1 1 1.8c0 .9-.4 1.7-1.1 2.4s-1.7 1.2-2.8 1.4c-1.3.3-2.3.1-3-.5s-1.1-1.5-1.1-2.6c0-1.4.5-2.8 1.5-4s2.3-2 3.9-2.3c.9-.2 1.6-.2 2 0 .5.2.7.5.7 1 0 .3-.1.6-.4.8-.2.3-.5.4-.8.5s-.6 0-.8-.1c-.2-.2-.3-.4-.3-.7v-.5c0-.3-.2-.5-.7-.4-.6.1-1.2.5-1.7 1.2-.4.6-.7 1.5-.9 2.7zm3.2 1.7c0-.8-.1-1.3-.4-1.7-.3-.3-.7-.4-1.2-.3-.6.1-1 .4-1.3.9s-.5 1-.5 1.7c0 .8.2 1.3.5 1.7s.7.5 1.2.4.9-.4 1.2-.9c.3-.5.5-1.1.5-1.8zm-92.2-17.4l.9 1.5v.3s-.1 0-.2-.1c-.4-.3-.9-.5-1.3-.6s-1 0-1.8.3c-.5.2-.8.4-.8.5s.3 1 1 2.6c.4-.2.7-.3.9-.4.2-.1.3-.3.4-.5s.1-.5 0-.9c0-.1 0-.2.1-.2s.2 0 .2.1l.6 1.7c.2.6.3.9.3 1s0 .1-.1.1-.2 0-.2-.1c-.2-.3-.4-.5-.6-.6-.3-.1-.7 0-1.4.2l.8 2 .4.8c.1.1.2.2.4.2.1 0 .3 0 .6-.1.2-.1.3-.1.3-.1.1 0 .1 0 .1.1s0 .2-.2.3c-.1.1-.4.2-.8.3s-.6.2-.8.3l-1.6.7c-.2.1-.3.1-.3-.1 0-.1 0-.2.2-.3.4-.2.5-.4.5-.7-.1-.3-.5-1.5-1.2-3.4-.5-1.2-.8-2-1-2.2s-.5-.2-.8-.1l-.1.1c-.1.1-.2 0-.3-.1 0-.1 0-.2.2-.3l5.6-2.3zm3.6-2.2c.7-.4 1.3-.6 2-.6s1.3.2 1.9.5c.6.3 1 .8 1.4 1.4.5.9.6 1.9.3 3.1-.3 1.1-1 1.9-2 2.5-.9.5-1.9.7-2.9.4-1-.2-1.8-.8-2.3-1.9-.5-1-.6-2-.3-3 .2-1 .8-1.8 1.9-2.4zm3.6 2.5c-.6-1-1.1-1.7-1.8-2-.6-.3-1.2-.3-1.7 0s-.8.8-.9 1.5.2 1.5.7 2.5 1.1 1.6 1.7 2c.6.3 1.2.4 1.8.1.5-.3.8-.7.9-1.4.1-.8-.1-1.7-.7-2.7zm3.6-6.7c.7-.4 1.3-.6 1.9-.7.7 0 1.3.1 1.9.4.6.3 1.1.8 1.5 1.3.6.9.7 1.9.5 3s-.9 2-1.8 2.6c-.9.6-1.9.8-2.9.6s-1.8-.8-2.4-1.7c-.6-.9-.7-1.9-.5-3 .2-1 .8-1.9 1.8-2.5zm3.7 2.2c-.6-1-1.2-1.6-1.9-1.9-.6-.3-1.2-.3-1.7 0s-.8.8-.8 1.5.3 1.5.9 2.5c.6.9 1.2 1.6 1.8 1.9.6.3 1.2.3 1.8 0 .5-.3.7-.8.8-1.5 0-.6-.3-1.4-.9-2.5zm0-4.6c1.7-1 2.9-1.8 3.7-2.3.6-.4 1.3-.8 2-1.3.3-.2.5-.3.6-.4.1 0 .2-.1.3-.2.1.1.3.4.6.8l.6.7c.1.1.1.2 0 .3s-.2 0-.4-.1c-.3-.2-.6-.3-.9-.4-.3-.1-.6 0-.9.1-.3.1-.7.3-1.3.7.3.5.6 1.2 1.1 1.9.5.8 1 1.5 1.4 2.2.5.7.8 1.1.9 1.2.1.1.3.2.4.2.1 0 .4-.1.8-.3.1-.1.2-.1.3 0s0 .2-.1.2l-.1.1-1 .6c-.8.5-1.2.8-1.4.9l-.6.4s-.1.1-.3.2h-.2c-.1-.1 0-.2.1-.3.3-.2.5-.4.5-.6.1-.2 0-.5-.1-.7-.1-.3-.5-.9-1-1.7-.9-1.4-1.6-2.4-2.2-3.2-.5.3-.9.6-1.1.8-.2.2-.4.5-.5.8s-.1.7-.1 1.1c0 .2 0 .3-.1.3-.1.1-.2.1-.3 0 0 0-.1-.3-.3-.7-.1-.7-.3-1-.4-1.3zm12.9-3.8c.8-.2 1.4-.3 1.9-.2s.9.4 1.1.9c.2.4.3.8.2 1.2s-.3.8-.6 1.1-.8.6-1.5 1l-.8.4c-.3.1-.5.3-.7.4-.2.1-.5.3-.9.6-.1.1-.3.2-.3.2-.1.1-.2.1-.3 0 0-.1 0-.1.1-.2.2-.1.3-.3.4-.4.1-.1.1-.2.1-.4 0-.1-.1-.3-.2-.6l-1.2-2.3c-.4-.7-.7-1.3-1-1.7s-.4-.7-.6-.8c-.1-.1-.2-.2-.3-.2s-.2 0-.4.1c-.1.1-.2.1-.3.1 0 0-.1 0-.1-.1v-.2c.1-.1.3-.2.6-.4.7-.4 1.3-.7 1.8-1.1.3-.2.6-.4.8-.5.6-.3 1.2-.5 1.7-.4s.9.3 1.1.8c.7.9.4 1.7-.6 2.7zm-1.4.7c1.1-.6 1.4-1.4.9-2.4-.2-.4-.5-.7-.8-.8s-.6-.1-.9.1c-.2.1-.4.3-.6.5.2.3.3.7.5 1.1.2.3.5.8.9 1.5zm.2.4c.4.7.7 1.3.9 1.8.3.6.6 1 .7 1 .1.1.3 0 .5-.1.5-.3.8-.6.9-1 .1-.4 0-.8-.2-1.3-.2-.4-.6-.7-1-.9s-.9-.1-1.4.2c0 .1-.2.2-.4.3zm5.3-7.3l.4-.2c.9.8 2.3 2 4.1 3.7.8.8 1.4 1.3 1.6 1.4.2.1.5.2.9.1.1 0 .2 0 .2.1s0 .2-.1.3c-.1 0-.3.1-.6.2-.4.1-.7.3-.9.4-.2.1-.5.3-.9.5-.3.2-.5.3-.5.3-.2.1-.3.1-.3 0s0-.1.1-.2c.4-.2.5-.5.4-.8-.1-.1-.2-.4-.5-.7s-.6-.6-.9-.8c-.2.1-.4.2-.5.2-.7.3-1.2.6-1.6.8.1 1 .2 1.6.3 1.8s.2.3.4.3h.6c.1 0 .2 0 .3.1 0 .1 0 .2-.1.2s-.2.1-.4.2c-.3.1-.5.2-.7.3-.3.1-.5.3-.8.4-.1 0-.1.1-.1.1-.1.1-.2 0-.3-.1 0-.1 0-.1.1-.2l.4-.4c.1-.1.1-.4.1-.7s0-.8-.1-1.4c-.3-1.5-.5-3.5-.6-5.9zm.5 2l.2 2.7 1.8-.9c-.2-.2-.5-.5-1-.9-.4-.4-.8-.7-1-.9zm13.3 1c-.9.2-2.3.7-4.2 1.3-.7.2-1.2.4-1.6.6-.1 0-.2.1-.2.1-.1 0-.2 0-.3-.1v-.1l.2-.2c.2-.1.4-.2.5-.4.1-.1.1-.3.1-.5s-.1-.7-.4-1.5c-.3-.8-.6-1.8-.9-2.9-.1-.4-.3-.8-.4-.9-.1-.2-.3-.3-.4-.3-.1-.1-.3-.1-.6 0-.2 0-.3 0-.3-.1s0-.2.2-.2l1.8-.5c.3-.1.7-.2 1.2-.4.2-.1.3-.1.4-.1.2 0 .2 0 .3.1v.1s-.2.1-.3.2c-.2.1-.4.2-.5.4-.1.1-.1.3 0 .5 0 .2.2.7.4 1.5l1.1 3.3c.2.5.3.8.4.9.1.1.3.1.5 0 .6-.2 1-.4 1.3-.6.3-.2.5-.4.7-.8.2-.3.3-.8.4-1.5 0-.1.1-.2.1-.2.1 0 .2 0 .2.1 0 0 .1.8.3 2.2zm7-1.4c-.9.1-2.4.4-4.4.8-.7.1-1.2.3-1.7.4-.1 0-.2 0-.2.1-.1 0-.2 0-.2-.1v-.1s.1-.1.3-.1c.2-.1.4-.2.5-.3s.2-.3.2-.5-.1-.7-.2-1.6c-.2-.8-.3-1.8-.6-3-.1-.5-.2-.8-.3-1-.1-.2-.2-.3-.4-.4-.1-.1-.3-.1-.6-.1-.2 0-.3 0-.3-.1s.1-.2.2-.2l1.9-.3c.3-.1.7-.1 1.2-.3.2 0 .3-.1.4-.1.2 0 .2 0 .3.1 0 .1 0 .1-.1.1l-.4.2c-.2.1-.4.2-.5.3s-.1.3-.1.5.1.8.3 1.6l.7 3.4c.1.5.2.8.3.9.1.1.3.1.5 0 .6-.1 1.1-.3 1.3-.4.3-.2.5-.4.7-.7s.4-.8.6-1.4c0-.1.1-.2.2-.2s.2 0 .2.1c.2.2.2 1 .2 2.4zm70.9 1.1c.1-.1.2-.1.4-.2s.3-.1.3-.1c.1 0 .1.1.1.1s0 .2-.1.3l-.7 1.6-.1.2c-.1.1-.2.2-.3.1-.1 0-.1-.1-.1-.3 0-.4 0-1-.2-1.6-.1-.6-.5-1.1-1-1.3-.4-.2-.8-.2-1.2-.1-.4.1-.8.3-1.1.7-.4.3-.7.8-1 1.4-.5 1-.6 1.9-.5 2.7.2.8.5 1.3 1.2 1.7.7.3 1.5.2 2.5-.3.1-.1.2-.1.3-.1.1.1.1.1.1.2-.1.2-.6.5-1.3.7-.8.2-1.6.1-2.4-.2-1.1-.5-1.8-1.3-2.1-2.2-.3-1-.2-1.9.3-2.9s1.2-1.6 2.2-2 1.9-.4 2.9.1c.7.2 1.3.7 1.8 1.5zm3.7 10.2c-.8-.5-2.1-1.3-3.8-2.3-.6-.3-1.1-.6-1.5-.8-.1 0-.2-.1-.2-.1-.1-.1-.2-.2-.1-.3l.1-.1s.1 0 .3.1.4.1.6.1c.2 0 .3-.1.5-.3s.4-.6.9-1.3c.4-.7.9-1.6 1.5-2.6.2-.4.4-.7.4-.9v-.5c-.1-.1-.2-.3-.4-.4-.1-.1-.2-.2-.1-.3.1-.1.2-.1.3 0l1.6 1c.3.1.6.3 1.1.6.2.1.3.1.3.2.1.1.2.2.1.3 0 .1-.1.1-.1.1-.1 0-.2 0-.4-.1s-.4-.1-.6-.1c-.1 0-.3.1-.4.3-.1.2-.4.6-.8 1.3l-1.7 3c-.3.5-.4.8-.4.9 0 .1.2.3.4.4.5.3 1 .5 1.3.6s.7.1 1 0c.4-.1.8-.3 1.4-.7.1-.1.2-.1.3-.1.1.1.1.1.1.2-.3.1-.8.7-1.7 1.8zm4.2-6.2l1.5 1c.1.1.3.2.5.3.3.2.6.3.7.4.2.1.2.2.2.3-.1.1-.1.1-.3 0s-.5-.2-.7-.1c-.2.1-.5.3-.8.8s-.7 1-1 1.5c-.6.9-.9 1.6-1 1.9-.1.4-.1.7.1 1.1.2.4.5.7 1 1s.9.4 1.3.4c.4-.1.7-.3 1.1-.7.4-.4.9-1.2 1.7-2.3.4-.7.7-1.2.7-1.6.1-.3 0-.6-.3-.8-.2-.1-.2-.3-.2-.3.1-.1.2-.1.3 0 .1 0 .2.1.4.3.2.1.4.3.5.4l.6.3c.2.1.3.2.4.2.2.1.2.2.2.3s-.1.1-.3 0-.4-.1-.6 0c-.2.1-.4.2-.7.5-.2.3-.7 1.1-1.5 2.3-.5.8-1 1.4-1.4 1.7s-.9.4-1.4.3c-.5-.1-1.1-.3-1.7-.7-.5-.3-.9-.6-1.2-.9-.3-.3-.5-.6-.6-.9-.1-.3-.1-.6-.1-.9.1-.3.2-.7.5-1.1l1.6-2.6c.2-.4.4-.7.5-.9.1-.3.1-.4.1-.6 0-.1-.1-.3-.3-.4-.1-.1-.2-.1-.2-.2v-.1c.2 0 .3 0 .4.1zm9.4 10.1c.6.6.9 1.1 1.1 1.6.2.5.1 1-.2 1.4-.2.4-.6.6-1 .8-.4.1-.8.2-1.3 0-.4-.1-1-.4-1.6-.8-.2-.1-.4-.3-.8-.5-.3-.2-.5-.3-.7-.4-.2-.1-.5-.3-.9-.5-.2-.1-.3-.1-.3-.2-.1-.1-.2-.2-.1-.3 0-.1.1-.1.2 0 .2.1.4.2.5.2s.2 0 .4-.1c.1-.1.3-.2.4-.4l1.4-2.2c.4-.7.8-1.3 1-1.7s.4-.7.4-.9v-.4c0-.1-.1-.2-.3-.3l-.2-.2v-.1c0-.1.1-.1.2-.1s.3.2.7.4c.6.4 1.3.8 1.8 1.1.3.2.6.3.8.5.6.4 1 .8 1.2 1.3s.1.9-.1 1.4c-.3.6-1.2.8-2.6.4zm-1.2-.9c1.1.7 2 .6 2.6-.4.3-.4.4-.8.3-1.1-.1-.3-.2-.6-.5-.7-.2-.1-.4-.2-.8-.3-.2.3-.5.6-.7 1-.2.2-.5.8-.9 1.5zm-.3.4c-.5.7-.8 1.2-1.1 1.7-.4.6-.6 1-.6 1.1s.1.3.4.4c.5.3.9.4 1.3.3.4-.1.7-.4 1-.8.3-.4.4-.9.3-1.3-.1-.4-.3-.8-.8-1.1-.1-.1-.3-.2-.5-.3z"/><defs><path id="m" d="M186.4 164.825s2.2 2.2 4.6 3.8c.4.3.2.6.2.6l-3.8 4.4c.5-.6 2.3-4 2.3-4s.2-.5-.1-.9c-.7-.9-2.8-3.4-3.2-3.9z"/></defs><clipPath id="n"><use xlink:href="#m" overflow="visible"/></clipPath><g clip-path="url(#n)"><linearGradient id="o" gradientUnits="userSpaceOnUse" x1="174.014" y1="-72.235" x2="178.951" y2="-72.235" gradientTransform="matrix(1 0 0 -1 12.34 97.04)"><stop offset="0" stop-color="#fff"/><stop offset="1" stop-color="#6e6f72"/></linearGradient><path fill="url(#o)" d="M186.4 164.825h4.9v8.9h-4.9z"/></g><defs><path id="p" d="M19.6 166.85s-2.2 2.2-4.6 3.8c-.4.3-.2.6-.2.6l3.8 4.4c-.5-.6-2.3-4-2.3-4s-.2-.5.1-.9c.7-.9 2.8-3.4 3.2-3.9z"/></defs><clipPath id="q"><use xlink:href="#p" overflow="visible"/></clipPath><g clip-path="url(#q)"><linearGradient id="r" gradientUnits="userSpaceOnUse" x1="-7583.033" y1="-74.26" x2="-7578.096" y2="-74.26" gradientTransform="rotate(180 -3781.68 48.52)"><stop offset="0" stop-color="#fff"/><stop offset="1" stop-color="#6e6f72"/></linearGradient><path fill="url(#r)" d="M14.7 166.85h4.9v8.9h-4.9z"/></g><defs><path id="s" d="M188.7 176.425c1.5.4 2.2.3 3.5.2.8-.1 2.3-.9 1.9.1-1.1 2.9-2.9 5.8-4.2 8.6-.4.8.3-1.1 1-3.2.3-.9.7-1.9 1-2.8.1-.5.3-1.2-.2-1.4-.5-.2-2.6-1.2-3-1.5z"/></defs><clipPath id="t"><use xlink:href="#s" overflow="visible"/></clipPath><linearGradient id="u" gradientUnits="userSpaceOnUse" x1="176.292" y1="-83.685" x2="181.837" y2="-83.685" gradientTransform="matrix(1 0 0 -1 12.34 97.04)"><stop offset="0" stop-color="#fff"/><stop offset="1" stop-color="#6e6f72"/></linearGradient><path clip-path="url(#t)" fill="url(#u)" d="M188.6 176.125h5.5v9.2h-5.5z"/><defs><path id="v" d="M198.2 171.325l.4-.8c.5-1.2 1.1-2.9-1.3-5.9-4-4.3-9.9-5.7-11-3.8-.8 1.7.9 3.9 3.2 5.7 1.9 1.5 3.7 2.1 3.7 2.1l-5.3 6.5c1.5.3 2.7.3 3.7.4 4.5-.5 5.8-2.6 6.6-4.2z"/></defs><clipPath id="w"><use xlink:href="#v" overflow="visible"/></clipPath><linearGradient id="x" gradientUnits="userSpaceOnUse" x1="1088.048" y1="3043.459" x2="1102.966" y2="3043.459" gradientTransform="matrix(.935 .5344 .646 -1.1303 -2799.387 3023.077)"><stop offset="0" stop-color="#952b24"/><stop offset=".505" stop-color="#e01f26"/><stop offset="1" stop-color="#952b24"/></linearGradient><path clip-path="url(#w)" fill="url(#x)" stroke="#010101" d="M194.3 178.825l-13.9-8 7.2-12.7 14 8z"/><path fill="none" stroke="#010101" d="M198.2 171.325l.4-.8c.5-1.2 1.1-2.9-1.3-5.9-4-4.3-9.9-5.7-11-3.8-.8 1.7.9 3.9 3.2 5.7 1.9 1.5 3.7 2.1 3.7 2.1l-5.3 6.5c1.5.3 2.7.3 3.7.4 4.5-.5 5.8-2.6 6.6-4.2z"/><defs><path id="y" d="M134.4 165.85s-1.4.9-.7 2.1l4.2 5.7s1.5 1.8.1 3c0 0-3 2.8-8.4 5.8l-12.2-18.1s.4-.7 4-.7c4.4 0 8.8.9 13 2.2z"/></defs><defs><path id="A" d="M134.4 165.85s-1.4.9-.7 2.1l4.2 5.7s1.5 1.8.1 3c0 0-3 2.8-8.4 5.8l-12.2-18.1s.4-.7 4-.7c4.4 0 8.8.9 13 2.2z"/></defs><clipPath id="z"><use xlink:href="#y" overflow="visible"/></clipPath><clipPath id="B" clip-path="url(#z)"><use xlink:href="#A" overflow="visible"/></clipPath><linearGradient id="C" gradientUnits="userSpaceOnUse" x1="-214.978" y1="6095.38" x2="-196.867" y2="6095.38" gradientTransform="matrix(.4166 1.1456 1.2937 -.4705 -7670.943 3275.518)"><stop offset="0" stop-color="#952b24"/><stop offset=".505" stop-color="#e01f26"/><stop offset="1" stop-color="#952b24"/></linearGradient><path clip-path="url(#B)" fill="url(#C)" stroke="#010101" d="M124.7 184.95l-7.5-20.7 15.8-5.8 7.5 20.8z"/><path fill="none" stroke="#010101" d="M134.4 165.85s-1.4.9-.7 2.1l4.2 5.7s1.5 1.8.1 3c0 0-3 2.8-8.4 5.8l-12.2-18.1s.4-.7 4-.7c4.4 0 8.8.9 13 2.2z"/><path fill="none" stroke="#010101" d="M134.4 165.85s-1.4.9-.7 2.1l4.2 5.7s1.5 1.8.1 3c0 0-3 2.8-8.4 5.8l-12.2-18.1s.4-.7 4-.7c4.4 0 8.8.9 13 2.2z"/><defs><path id="D" d="M127.6 152.65c-.3 0-2 .6-2.4.7-.8.2-1.3.7-1.8 1.3-.6.7-1 1.5-1.5 2.2-.7 1-3.5 4.8-4 5.8.5-.9 2.9-5.1 3.5-6.3.5-1.1 1-2.1 1.8-2.9 1.1-1.1 3-.9 4.4-.8z"/></defs><clipPath id="E"><use xlink:href="#D" overflow="visible"/></clipPath><linearGradient id="F" gradientUnits="userSpaceOnUse" x1="-143.501" y1="121.783" x2="-143.501" y2="134.285" gradientTransform="matrix(1.0633 .0034 -.0034 -1.0448 275.62 291.967)"><stop offset="0" stop-color="#fff"/><stop offset="1" stop-color="#6e6f72"/></linearGradient><path clip-path="url(#E)" fill="url(#F)" d="M125.5 164.25l-7.9-1.4 2-11.7 8 1.4z"/><defs><path id="G" d="M78.5 152.65c.3 0 2 .6 2.4.7.8.2 1.3.7 1.8 1.3.6.7 1 1.5 1.5 2.2.7 1 3.5 4.8 4 5.8-.5-.9-2.9-5.1-3.5-6.3-.5-1.1-1-2.1-1.8-2.9-1.2-1.1-3-.9-4.4-.8z"/></defs><clipPath id="H"><use xlink:href="#G" overflow="visible"/></clipPath><linearGradient id="I" gradientUnits="userSpaceOnUse" x1="-7716.65" y1="97.138" x2="-7716.65" y2="109.64" gradientTransform="matrix(-1.0633 .0034 .0034 -1.0448 -8122.016 291.967)"><stop offset="0" stop-color="#fff"/><stop offset="1" stop-color="#6e6f72"/></linearGradient><path clip-path="url(#H)" fill="url(#I)" d="M80.5 164.25l8-1.4-2.1-11.7-8 1.4z"/><defs><path id="J" d="M136.3 192.55l2.7-12.1c.5-1.9-1.1-.8-1.1-.8l-5.2 2.6 2.8-.3c1.6 0 1.4 1.7 1.4 1.7l-.6 8.9z"/></defs><clipPath id="K"><use xlink:href="#J" overflow="visible"/></clipPath><linearGradient id="L" gradientUnits="userSpaceOnUse" x1="120.186" y1="-88.96" x2="126.745" y2="-88.96" gradientTransform="matrix(1 0 0 -1 12.34 97.04)"><stop offset="0" stop-color="#fff"/><stop offset="1" stop-color="#6e6f72"/></linearGradient><path clip-path="url(#K)" fill="url(#L)" d="M132.5 179.25h6.6v13.5h-6.6z"/><defs><path id="M" d="M69.7 192.55l-2.7-12.1c-.5-1.9 1.1-.8 1.1-.8l5.2 2.6-2.8-.3c-1.6 0-1.4 1.7-1.4 1.7l.6 8.9z"/></defs><clipPath id="N"><use xlink:href="#M" overflow="visible"/></clipPath><linearGradient id="O" gradientUnits="userSpaceOnUse" x1="-7873.285" y1="-88.96" x2="-7866.726" y2="-88.96" gradientTransform="rotate(180 -3899.893 48.52)"><stop offset="0" stop-color="#fff"/><stop offset="1" stop-color="#6e6f72"/></linearGradient><path clip-path="url(#N)" fill="url(#O)" d="M66.9 179.25h6.6v13.5h-6.6z"/><defs><path id="P" d="M17.2 178.45c-1.5.4-2.2.3-3.5.2-.8-.1-2.3-.9-1.9.1 1.1 2.9 2.9 5.8 4.2 8.6.4.8-.3-1.1-1-3.2-.3-.9-.7-1.9-1-2.8-.1-.5-.3-1.2.2-1.4.5-.2 2.6-1.2 3-1.5z"/></defs><clipPath id="Q"><use xlink:href="#P" overflow="visible"/></clipPath><linearGradient id="R" gradientUnits="userSpaceOnUse" x1="-7569.128" y1="-85.71" x2="-7563.582" y2="-85.71" gradientTransform="rotate(180 -3775.922 48.52)"><stop offset="0" stop-color="#fff"/><stop offset="1" stop-color="#6e6f72"/></linearGradient><path clip-path="url(#Q)" fill="url(#R)" d="M11.7 178.15h5.5v9.2h-5.5z"/></svg>