<svg xmlns="http://www.w3.org/2000/svg" width="458" height="458" viewBox="0 0 458 458"><path fill="#EC2529" d="M230.129 458.802l203.634-203.646-67.018-153.75h37.868V.92H55.622v100.486H93.5l-67.018 153.75z"/><path fill="#F9ED27" d="M74.712 20.01v62.306h310.822V20.01H74.712z"/><path fill="#010101" d="M230.129 101.406h-115.79c-17.747 40.715-58.277 133.688-65.154 149.455a2693900.92 2693900.92 0 0 0 180.944 180.956v-330.41z"/><path fill="#F9ED27" d="M345.907 101.406h-115.79v330.41c22.401-22.4 165.327-165.338 180.944-180.955-6.877-15.767-47.407-108.74-65.154-149.455z"/><path fill="#010101" d="M118.993 43.06l6.784 31.36h8.833l10.453-44.326h-8.069l-6.726 34.081-6.737-34.081h-8.498l-6.83 34.081-6.853-34.081h-8.197l10.454 44.327h9.18zm41.12 15.617l4.874-15.062 4.874 15.062h-9.748zm14.83 15.744h8.485L169.19 35.697h-8.416l-14.24 38.724h8.486l2.918-9.018h14.1l2.906 9.018zm8.624-38.713v6.726h10.605v31.987h8.126V42.434h10.385l1.609-6.726zm37.613 0v38.713h7.85V57.635h11.738V50.92h-11.739v-8.486h13.614l1.61-6.726zm46.087 33.562c-7.722 0-9.632-6.287-9.632-14.032s1.91-14.03 9.632-14.03 9.632 6.285 9.632 14.03-1.922 14.031-9.632 14.031zm0-34.06c-13.186 0-18.708 8.961-18.708 20.028 0 11.056 5.522 20.028 18.708 20.028s18.72-8.972 18.72-20.028c-.012-11.055-5.534-20.027-18.72-20.027zm42.081 17.308h-6.1V42.434h6.1c2.211 0 5.545.348 5.545 4.724s-3.334 5.36-5.545 5.36zm4.978 5.545v-.417c2.593 0 9.111-2.454 9.111-10.731 0-8.266-6.31-11.207-13.533-11.207h-14.668v38.713h8V58.27h.671c2.697 0 12.167 16.15 12.167 16.15h10.095l-11.843-16.358zm34.186 9.632h-6.124v-25.26h6.124c5.28 0 8.324 5.105 8.324 12.722.011 7.63-3.033 12.538-8.324 12.538zm-.266-31.987h-13.753v38.713h13.753c12.34 0 17.48-8.266 17.48-19.252s-5.14-19.46-17.48-19.46zM164.605 131.9c0 1.18.127 1.92.231 2.592.116.718.243 1.447.243 3.323 0 5.904-1.354 8.67-2.292 8.67-.197 0-.29-.01-.359-.022a7.82 7.82 0 0 1-.451-.614c-1.598-2.28-3.786-4.7-9.667-4.7-5.464 0-9.122 3.878-9.122 9.643 0 8.463 2.142 15.305 3.855 20.804 1.007 3.195 1.864 5.95 1.864 7.79 0 1.471-.706 2.918-1.135 3.23-2.141-.034-2.848-.729-4.364-2.21-2.038-2.015-4.84-4.782-11.114-4.782-2.674 0-8.868.915-8.868 9.424 0 3.704 1.297 6.876 2.536 9.933 1.331 3.253 2.697 6.61 2.697 11.02 0 .348-.035 3.474-1.053 3.474-4.017 0-5.534-2.49-7.85-6.877-2.025-3.832-4.537-8.578-10.36-8.578-9.563 0-9.563 14.285-9.563 19.657 0 30.377 28.826 41.387 48.206 41.387 3.68 0 5.834-.313 7.918-.614 2.153-.313 4.18-.614 8.185-.614 11.762 0 20.664 2.35 26.024 6.796-2.952-1.123-6.471-1.864-10.662-1.864-10.118 0-13.857 2.408-17.411 5.314-1.332 1.1-2.316 1.898-4.122 2.42l-14.378 4.11 14.587 3.264c6.089 1.366 9.458 6.147 13.035 11.206 3.809 5.395 8.115 11.519 16.034 11.519.74 0 1.435-.058 2.107-.162a77.814 77.814 0 0 0-1.25 13.95c0 7.906 1.933 10.986 4.48 14.193l1.215 1.62c1.135 1.656 2.339 3.265 3.52 4.816 4.167 5.51 8.115 10.732 8.115 17.875 0 3.808.185 6.888.359 9.851.185 2.976.335 5.777.335 9.297 0 10.534 7.282 13.799 11.195 15.547.394.185.868.394 1.239.579.752 3.6 4.306 4.781 6.529 5.499l.776.254.81.325c1.135.486 2.674 1.157 5.476 1.157 7.282 0 10.477-5.406 11.137-9.91.127-.057.254-.104.37-.161 3.207-1.424 9.887-4.365 9.887-13.754 0-4.92-.614-8.636-1.158-11.912-.394-2.42-.753-4.515-.753-6.587 0-5.95 2.443-8.972 5.789-13.14 4.515-5.626 10.152-12.607 10.152-28.34 0-5.568-.312-9.828-.729-13.046.915.208 1.864.359 2.848.359 10.419 0 14.02-6.252 16.636-11.427 4.885-9.69 14.332-9.122 14.332-9.122s-7.479-12.943-25.295-12.943c-5.43 0-9.598 1.088-12.746 2.512 1.458-4.19 3.947-6.054 5.996-7.154 4.92-2.605 12.225-2.836 18.697-2.836 3.97 0 6.784.29 9.516.578 2.57.267 5.22.545 8.636.545 26.267 0 33.167-8.324 40.46-17.134 6.206-7.478 10.315-14.737 10.315-25.966 0-7.548-2.176-15.606-8.312-15.606-5.302 0-7.582 4.955-9.412 8.937-2.188 4.747-3.473 6.738-5.73 6.738-2.952 0-5.348-2.906-5.348-6.471 0-3.3 2.188-7.467 4.306-11.496 2.408-4.608 4.92-9.366 4.92-14.089 0-2.662-1.1-5.036-3.102-6.68-1.667-1.377-3.81-2.141-6.043-2.141-4.666 0-8.382 3.878-11.982 7.629-2.292 2.396-5.418 5.65-7.317 5.765-.382-.336-.972-1.656-.972-2.709 0-3.276 1.458-8.115 2.882-12.78 1.529-5.025 2.952-9.783 2.952-13.592 0-8.23-4.792-11.9-9.55-11.9-4.33 0-7.143 2.025-9.4 3.658-1.69 1.215-2.779 1.921-4.11 2.026a.49.49 0 0 1-.07-.162l.012-3.937c0-1.192.011-2.35.011-3.461 0-8.717-.359-14.644-3.739-18.036-1.644-1.656-3.797-2.49-6.39-2.49-11.936 0-17.296 15.768-17.296 31.385 0 7.247.301 13.649.59 19.83.278 5.905.533 11.462.533 17.505 0 14.494-2.964 26.36-5.499 32.565-.822-6.911-2.084-17.319-10.13-17.319-6.668 0-8.23 8.52-10.025 18.384-1.62 8.856-3.855 20.989-9.354 20.989-4.619 0-5.95-8.44-7.235-19.472-1.25-10.813-2.674-23.061-12.295-23.061-10.465 0-11.148 13.568-11.588 22.54a129.102 129.102 0 0 1-.231 3.739c-2.559-5.013-5.638-13.637-5.638-21.556 0-10.048.625-17.92 1.25-25.538.59-7.293 1.204-14.841 1.204-24.01 0-20.213-5.024-25.677-9.458-30.493l-.313-.336c-2.975-3.23-5.777-6.286-10.187-6.286-6.263.023-9.574 5.985-9.574 11.866z"/><path fill="#EC2529" d="M258.214 300.132l-.648 1.065s-3.6-1.17-6.923-1.17c-5.985 0-8.185 4.11-8.185 4.11s1.968-1.17 5.846-1.17c5.14 0 8.88 2.756 8.88 3.787 0 1.065-1.586 1.632-2.86 1.632 0 2.477-3.369 5.892-13.521 5.892 0 5.002 3.09 8.324 3.09 9.783-2.581 0-2.952 2.477-2.952 6.876 0 0-3.554-14.077-3.554-19.738 0-8.37 3.37-14.69 10.524-14.69 5.117.022 10.303 3.623 10.303 3.623zm21.637-28.178c1.574 0 2.454.278 2.454.278-9.435 1.725-9.33 13.128-16.879 13.128-1.644 0-2.732-.741-2.732-.741 1.065-2.072 4.596-2.57 4.596-5.36-2.443 0-4.237.208-6.633.694.011-.914 7.56-7.999 19.194-7.999zm-63.174 59.597v-6.078c0-1.69-.753-2.42-2.246-2.42l3.936-8.983v-.891c-6.97 0-13.012-1.401-13.012-6.356h-1.968c-.417 0-1.32-.475-1.32-1.32 0-.613 2.338-3.264 7.86-3.264 4.214 0 6.738 1.77 6.738 1.77s-2.385-5.614-8.798-5.614c-3.786 0-4.77.51-4.77.51s2.292-2.953 5.372-2.953c9.678 0 12.202 6.078 12.202 16.787.034 11.333-3.994 18.812-3.994 18.812zm-26.881-50.544c0 .984 3.137 1.736 4.954 1.736 0 1.123-2.2 2.756-4.248 2.756-7.907 0-4.075-12.26-19.877-15.34 0 0 .845-.37 2.894-.37 12.48 0 16.091 9.678 22.875 9.678-1.98.22-6.598.37-6.598 1.54zm158.207-80.817c-6.321 0-5.893 15.663-15.154 15.663-5.117 0-9.169-4.584-9.169-10.291 0-8.324 9.215-17.875 9.215-25.585 0-3.3-2.778-5.001-5.337-5.001-6.216 0-12.537 13.429-19.402 13.429-3.23 0-4.689-4.214-4.689-6.552 0-7.479 5.846-19.68 5.846-26.372 0-5.372-2.442-8.092-5.73-8.092-6.1 0-8.138 5.73-13.869 5.73-2.188 0-3.508-2.396-3.508-3.936 0-15.015.764-24.207-6.297-24.207-9.146 0-13.464 13.823-13.464 27.576 0 13.961 1.123 24.763 1.123 37.346 0 19.484-4.7 35.819-8.798 39.338 0 0-1.02 11.345 3.461 11.345 9.053 0 23.755-25.353 42-25.353 8.231 0 8.799 5.06 8.799 7.108 0 6.634-9.354 10.014-9.354 14.216 0 2.154 3.264 2.339 7.293 2.339 11.97 0 20.768-7.386 20.768-7.386s-8.601 10.2-22.065 10.2c-5.904 0-10.477-1.865-10.477-5.338 0-5.51 11.137-9.91 11.137-15.432 0-1.678-1.864-4.017-6.078-4.017-14.876 0-30.585 28.155-42.833 28.155-2.524 0-6.032-1.679-6.032-8.08 0-5.465-.428-28.04-7.258-28.04-8.208 0-4.272 39.373-19.391 39.373-15.965 0-6.437-42.533-19.53-42.533-7.953 0-6.703 11.519-7.953 21.88-1.03 8.486-3.485 16.208-8.695 16.208-6.876 0-11.738-3.16-17.596-6.784-3.728-2.304-7.687-4.573-10.975-7.04-5.337-3.993-8.266-7.987-13.533-7.987-2.802 0-5.892 1.54-5.892 4.41 0 5.615 5.892 7.792 5.892 12.63 0 2.733-3.994 4.91-8.567 4.91-13.892 0-22.239-9.111-22.239-12.77 0 0 6.946 9.817 22.864 9.817 3.439 0 4.7-.764 4.7-2.454 0-3.149-4.769-5.962-4.769-12.063 0-3.855 3.01-7.015 7.363-7.015 5.545 0 9.296 4.052 15.015 8.208 8.23 5.985 18.94 12.757 27.147 12.757 3.149 0 5.256-1.4 5.256-4.677 0-3.114-9.33-11.658-9.33-29.138 0-19.982 2.453-31.142 2.453-49.549 0-19.194-4.596-23.709-8.763-28.247-3.126-3.415-4.84-5.059-7.363-5.059-4.353 0-5.823 4.77-5.823 8.046 0 2.003.486 2.13.486 5.916 0 6.807-1.609 12.48-6.1 12.48-5.257 0-2.524-5.337-10.478-5.337-3.808 0-5.302 2.732-5.302 5.823 0 13.185 5.72 22.597 5.72 28.582 0 2.987-1.726 7.05-4.794 7.05-7.93 0-6.529-7.015-15.628-7.015-3.878 0-5.06 2.246-5.06 5.615 0 6.518 5.233 11.507 5.233 20.942 0 4.168-1.4 7.293-4.862 7.293-11.831 0-10.36-15.466-18.198-15.466-4.006 0-5.742 5.244-5.742 15.837 0 28.34 27.691 37.578 44.385 37.578 7.085 0 7.849-1.216 16.103-1.216 38.747 0 35.621 23.72 35.621 23.72s-4.954-11.17-20.259-11.17c-14.922 0-13.301 5.51-20.49 7.582 14.899 3.346 16.218 22.633 28.247 22.633 5.371 0 8.034-4.11 8.034-4.11s-3.37 8.682-3.37 21.73c0 8.913 2.629 10.129 5.037 13.671 5.128 7.537 12.294 14.193 12.294 24.844 1.714 0 3.01-7.93 3.971-7.93.625 0 1.158 1.227 1.158 2.975 0 4.064-4.411 11.218-4.411 24.103 0 7.721 4.839 10.222 8.451 11.854.88 0 5.939-10.615 5.939-10.615-3.033 8.265-2.107 12.908-2.107 13.463 0 2.2 2.142 2.651 4.874 3.554 1.55.521 2.35 1.285 5.07 1.285 6.344 0 7.456-5.65 7.456-7.872 0-2.246-2.293-6.46-2.293-8.983 0 0-.092-1.54.278-1.54.787 0 4.145 8.821 4.145 8.821 2.975-1.32 7.988-3.241 7.988-10.43 0-8.37-5.07-19.739-5.07-24.855 0-1.181.416-1.968.844-1.968.984 0 2.64 4.63 2.64 4.63 2.188-12.804 15.651-14.02 15.651-37.775 0-15.038-2.292-19.877-2.292-19.877s3.994 3.37 8.22 3.37c14.494 0 11.067-14.449 22.447-19.265 0-1.435-6.124-6.598-16.786-6.598-13.464 0-17.817 7.305-17.817 7.305 0-21.14 14.807-22.401 29.74-22.401 8 0 11.438 1.123 18.153 1.123 24.508 0 30.528-7.305 37.555-15.79 6.24-7.537 9.4-14.032 9.4-23.502.011-5.082-1.25-11.75-4.48-11.75z"/><path fill="#EC2529" d="M242.076 309.856l-.556 1.216s1.17.845 3.682.845c5.059 0 7.281-4.098 6.784-4.585-.487-.486-2.675 3.138-6.6 3.138-2.338 0-3.31-.614-3.31-.614z"/><path fill="#EC2529" d="M247.552 308.455c0 .382-.498.706-1.123.706-.614 0-1.123-.312-1.123-.706 0-.382.498-.706 1.123-.706s1.123.324 1.123.706zm-38.666-1.875c.52.393 1.574 3.045 4.34 3.045 2.015 0 2.293-.753 2.918-1.1s1.285.312.892.891c-.394.59-1.146 1.331-3.717 1.331-3.322 0-5.255-2.708-5.51-3.368-.463-1.146.012-1.54 1.077-.8z"/><path fill="#EC2529" d="M213.725 307.367c0 .359-.417.648-.926.648-.521 0-.938-.289-.938-.648 0-.347.417-.637.938-.637.509 0 .926.29.926.637z"/></svg>