<svg xmlns="http://www.w3.org/2000/svg" xmlns:xlink="http://www.w3.org/1999/xlink" width="554" height="554" viewBox="0 0 554 554"><path fill="#FFFFFD" d="M195.701 439.115s-62.327-31.169-92.008-78.654c0 40.807-2.225 92.005-2.225 92.005l94.973 18.55m162.495-31.163s61.584-28.936 91.262-76.421c0 40.807 2.228 89.034 2.228 89.034l-94.232 18.55"/><path fill="#FFFFFD" d="M194.957 424.273h164.721v74.935H194.957z"/><path fill="#FFFFFD" d="M326.287 430.203c0 25.977-22.257 47.491-48.971 47.491-26.71 0-48.97-21.515-48.97-47.491 0-26.707 22.26-48.222 48.97-48.222 26.714 0 48.971 21.515 48.971 48.222M80.693 454.694v-69.748l-3.71-1.479v-9.649l3.71-2.228v-6.672l-3.71-1.486v-11.134l13.356-13.358v-2.964s.74-2.966 4.45-2.966H98.5s2.968.736 2.968 2.966v2.964l14.1 13.358v11.134l-3.711 1.486v6.672l3.711 2.228v74.198m359.116 6.678v-69.748l4.453-1.479v-9.649l-4.453-2.228v-6.672l4.453-1.486v-11.134L465.04 338.94v-2.964s0-2.966-3.71-2.966h-4.453s-2.969.736-2.969 2.966v2.964l-14.096 13.358v11.134l4.45 1.486v6.672l-4.45 2.228v74.198"/><defs><path id="a" d="M78.468 484.372h399.184v69.749H78.468z"/></defs><clipPath id="b"><use xlink:href="#a" overflow="visible"/></clipPath><path clip-path="url(#b)" fill="#FFFFFD" d="M272.867 554.121c-34.132 0-55.649-11.872-78.652-24.492-12.614-6.679-25.228-13.35-40.067-17.801-41.55-14.1-69.005 2.965-70.488 3.707l-5.192-8.9c1.482-.75 32.646-20.784 79.391-5.199 15.582 5.936 28.196 12.614 40.81 19.292 23.743 12.614 46.745 24.485 83.101 22.258 34.875-1.486 58.617-13.357 81.616-25.228 9.647-4.451 18.551-8.901 28.196-12.608.742 0 1.484-.749 2.228-.749 12.611-5.193 49.71-20.029 82.358 4.456l-6.679 8.163c-27.452-20.777-59.359-8.163-71.23-2.97-1.483 0-2.225 0-2.967.742-8.904 3.714-17.808 8.157-27.454 12.614-23.003 11.128-48.97 23.742-85.325 25.97-2.968.001-6.679.745-9.646.745"/><defs><path id="c" d="M55.465 433.917h443.704v103.14H55.465z"/></defs><clipPath id="d"><use xlink:href="#c" overflow="visible"/></clipPath><path clip-path="url(#d)" fill="#FFFFFD" d="M456.134 535.571l-7.419-5.193c-1.484-.749-5.935-1.486-10.388-.749-.742 0-1.482 0-2.225.749-3.711.735-8.16 1.479-11.871-1.486-1.486-.742-2.969-2.97-2.969-7.421 0-2.964 1.482-5.935 3.708-7.42 8.163-6.679 27.455-2.223 33.391-.743 4.451.743 8.162.743 8.904 0 2.225-22.257 11.129-37.843 16.325-45.256-36.36-22.264-92.009-10.394-112.783 2.964-31.163 20.035-57.135 32.648-89.78 32.648-28.195 0-52.681-11.871-77.909-23.741-14.097-7.422-28.935-14.101-44.518-20.036-34.131-11.135-72.715 1.485-86.811 7.415 5.193 7.428 13.354 22.264 14.096 43.042.743 1.484 5.193 1.484 8.903.735 5.936-1.479 25.971-5.193 34.132 1.486 2.228 2.228 2.968 5.193 2.968 8.163 0 4.456-2.226 6.679-3.711 7.421-2.968 2.964-8.161 1.479-11.129.742-.743-.742-2.225-.742-2.967-.742-3.711-.742-8.161-.742-9.646.742l-7.418 3.708-.742-11.871c-2.968.742-11.132 2.222-16.325-2.222-2.225-1.486-3.71-4.456-3.71-7.428-1.482-26.707-16.321-41.543-16.321-42.292l-5.196-4.449 6.678-3.708c1.486-.743 54.167-25.971 100.169-10.392 17.064 5.941 31.903 13.355 46.003 20.035 24.485 11.871 46.745 23.006 72.713 23.006 31.163 0 55.648-11.871 85.329-30.421 23.743-15.585 88.294-28.941 128.361 0l4.453 2.964-3.711 4.451s-14.838 17.064-17.065 43.777c0 3.708-1.483 5.936-4.451 8.163-5.193 3.708-13.357 2.222-16.324 1.486"/><path fill="#FFFFFD" d="M128.178 512.565s-5.192-4.45-7.418-8.901c-4.454-7.421-37.1 7.415-37.1 7.415l8.904 2.234m331.667 1.48s5.191-5.193 7.418-8.907c3.711-7.415 36.358 8.165 36.358 8.165l-8.906 2.229"/><path fill="#FFFFFD" d="M79.95 513.313s-.742-20.034-5.192-28.941c-4.454-9.643-6.679-18.55-6.679-18.55s27.454-13.357 46.003-14.1c17.807 0 62.327 7.422 76.423 14.843 14.099 8.164 51.198 28.936 70.49 32.643 20.032 4.456 51.939-.737 71.97-8.9 20.036-8.163 33.389-22.256 41.554-25.97 8.16-3.708 34.873-13.352 51.938-14.837 17.807-1.485 39.323 5.93 51.196 8.164 11.874 2.222 10.388 6.673 10.388 6.673l-14.839 46.006s-23.003-8.165-38.585-8.907c-14.839 0-41.55 11.129-49.713 14.843-8.16 2.963-43.774 17.806-55.649 22.256-11.128 4.451-50.451 14.842-72.712 9.642-22.259-4.443-65.294-26.707-76.422-31.898-11.132-5.935-51.941-19.293-57.134-17.071-5.938 2.97-43.037 14.104-43.037 14.104M464.299 75.54c-.744-2.968-4.455-4.45-22.261-4.45h-13.357c-11.129.739-20.774 3.708-30.421 7.418 12.615-14.839 31.163-23.743 43.036-28.195.742-.74 2.225-1.483 2.225-1.483.742-1.485 1.485-2.225.742-3.71-1.483-2.225-6.678-2.968-9.647-2.968-3.707 0-8.902.743-15.581 1.482-3.708.743-6.677 1.485-9.644 1.485v.743c-13.356 2.968-25.971 8.161-36.359 17.064-1.482.743-2.967 2.228-4.449 2.968l8.16-14.097c5.193-7.42 9.645-14.099 14.839-20.035l.742-1.482c0-1.485 1.486-2.968.742-3.711-.742-.743-1.484-1.485-2.967-1.485-1.485 0-6.679.742-25.972 15.582-17.806 12.614-33.388 28.938-45.259 47.488-4.452 8.161-11.871 23.003-14.839 33.389 0-.74 0-1.483-.742-2.968 0-4.45-.743-8.903-.743-14.097 0-5.935.743-11.871.743-15.581 0-1.486 0-5.193-1.485-5.193-1.483-.742-3.708 2.226-4.45 3.708-9.645 21.518-11.872 40.067-12.614 50.456l-2.969 31.164c-.742 2.225-2.225 12.614-2.225 12.614-2.971-4.454-4.453-7.421-6.678-12.614l-2.969-5.193h-.742c-4.454-5.936-8.904-8.163-14.1-11.874-7.418-4.45-16.321-9.643-30.421-25.225-7.417-8.907-16.321-26.713-18.549-38.585-5.936-23.743-5.193-52.681 1.486-78.648 0-1.485.742-4.454 0-5.938-.743-.74-1.486-1.482-2.969-1.482-2.227 0-3.71 2.225-16.323 22.26-8.161 13.354-14.097 28.195-17.064 43.777-.743 2.969-.743 6.676-1.486 9.643-2.968-7.417-5.192-14.838-6.678-22.257-4.451-16.324-5.936-33.392-4.451-48.23.74-1.482.74-3.71 0-4.45-.742-.742-1.485-.742-2.228-.742-2.968 0-7.418 3.71-16.321 27.453-8.163 22.26-11.131 43.035-8.163 65.294-9.646-11.871-14.097-29.678-17.807-45.259-1.483-4.454-2.225-8.165-2.968-11.875-.743-1.482-2.226-5.936-3.711-5.193h-.743v.743l-1.482 4.45c-.743.743-1.486 2.228-1.486 4.453v5.194c-1.482 11.871-2.225 42.295 13.356 74.198l.743.743.743 1.485c1.481 3.708 3.707 7.418 5.192 10.386.743.743 1.483 2.225 2.225 2.968 1.486 3.71 3.711 5.936 5.937 8.164-8.903-1.486-22.26-4.454-28.936-5.195-1.485 0-2.228.742-2.968 2.227-.743 1.482 0 2.968.74 3.708 5.936 2.968 15.582 11.874 25.228 21.517l17.807 16.321 2.228 2.229c5.193 5.198 11.872 11.128 17.064 16.32l-11.871-1.479c-1.482 0-2.968.743-2.968 2.228-.743.737-.743 2.223.742 3.708l28.196 23 12.614 9.643.74.749 21.517 17.064c0 .735.743.735 1.486.735h5.936c-11.871 5.193-23.003 5.193-34.874.749-9.646-2.971-19.292-8.164-26.71-14.105-1.486-1.48-4.454-2.965-5.193-2.223-1.485 1.486-.742 4.456 0 5.936 2.225 5.936 6.675 11.129 11.872 15.585-14.839-2.228-28.939-5.942-43.778-13.357-1.485 0-3.711-1.485-5.192-.742-.743.742 0 4.45.739 5.935 7.421 10.386 12.615 17.807 18.55 23.743 5.935 5.936 13.356 11.871 17.067 14.842.742 0 2.967 1.485 11.871 1.485 3.711 0 7.421-.749 10.389-.749h1.482c-8.903 2.971-17.807 4.457-25.227 3.714-1.483-.743-5.193 0-5.193 1.479-.742 1.485 2.226 3.713 3.71 4.456 11.129 3.707 22.261 6.678 31.904 8.164 3.71.735 13.356 2.965 23.745 3.707.743.742 1.483.742 2.226 0 .743.742 1.485.742 2.225.742 3.71 0 8.164.743 11.872.743 2.97 0 6.678-.743 9.646-.743l.742.743 1.486 3.708c-.743 0-.743.742-1.486.742-.742 1.485-1.482 2.965-.742 3.714l4.453 7.414v1.486c-1.485.743-1.485 1.485-1.485 2.971 2.228 8.163 5.936 11.129 8.906 13.356 2.225 1.48 2.968 2.222 3.708 4.444 0 1.485.742 2.971 1.485 4.456 1.482 3.707 3.71 9.65 2.226 11.872-1.483 2.97-2.969 3.707-5.193 5.192-.742.743-2.968 2.228-4.453 3.707-5.193 4.457-5.193 10.393-1.482 17.07l.74.742c0 .737 1.485 1.486 2.971 1.486 1.483 0 2.225-1.486 2.225-2.229 1.482-5.199 9.646-8.906 11.129-9.643 2.968 0 5.195 0 7.421-2.228 2.967-2.965 19.293-2.965 19.293-2.965s1.482 0 4.449.736c.744 0 1.486.743 2.225.743 0 .743.744.743 1.486.743l5.936 2.97c.743.737 10.389 5.931 11.128 5.931.742.748 5.936 8.163 6.68 8.163 1.483 1.485 2.228.743 2.228-.736 2.967-2.234 6.675-6.679 7.418-11.878 1.484-4.449.742-9.643-1.482-13.351l-.744-.748c-.742 0-2.225-1.485-3.71-2.965-2.226-1.485-5.936-4.45-6.678-5.193-2.225-2.964-3.711-5.936-4.45-8.906.739 0 1.482-.737 2.226-1.485 0-.736.741-1.485.741-2.222l-.741-2.229c-.744-2.229-1.486-5.193-2.226-8.906h.739c1.486 0 2.968-1.48 2.968-3.708 0 0 0-.736-.74-1.485l-2.967-8.9.739.743c.742.742 2.968 2.228 3.711 1.479 1.485 0 1.485-2.223 1.485-3.708.739-5.936 5.192-12.613 10.386-16.321 0 .743.743 1.479.743 1.479.742 1.486.742 3.714 1.484 3.714 1.482 0 2.225-1.484 3.707-3.714 2.229-2.222 4.455-3.707 6.68-4.443l10.389 4.443c.742 1.486 2.225 4.457 4.451 6.68 2.228 1.485 4.453 2.97 7.42 5.192l1.485.749h-.742c-1.485.736-5.193 2.222-5.193 2.965 0 1.485 3.708 2.965 4.45 2.965 2.968 1.484 5.192 1.484 8.16 1.484 5.196 0 9.648-1.484 12.614-5.192 2.228-2.222 2.969-5.936 2.228-9.649 0-2.964-1.484-9.637-1.484-12.608l2.968-8.905v-1.479c0-4.457-1.483-9.649-3.711-14.842l-.739-1.485-.743-.743c-.742-1.479-1.484-2.965-2.226-4.451-8.163-12.614-18.55-23.005-19.291-23.742-.742-.742-2.968-2.228-3.711-1.485-1.484 0-1.484 2.971-1.484 4.456-.74-1.485-3.709-4.456-4.451-5.199-1.486-2.228-2.225-4.45-2.967-5.936 9.646-43.035 37.84-71.23 38.581-71.973 0-.74.742-.74.742-1.482 5.936-61.585 76.423-89.037 77.165-89.037l2.227-.743c2.223-2.227 2.964-2.97 2.223-3.712M304.77 343.397h.742-1.482.74z"/><path fill="#3B4478" d="M272.867 550.412c-33.392 0-54.91-11.134-77.166-23.748-12.614-6.678-25.228-13.351-40.067-18.549-43.777-14.101-73.458 4.45-73.458 4.45l-2.226-3.708c1.486-.742 31.164-20.034 77.167-4.456 14.838 5.198 28.195 11.878 40.067 18.549 24.485 12.621 47.488 25.227 84.586 23.006 35.614-2.222 59.359-14.093 82.358-25.228 9.646-5.193 19.293-9.649 28.938-13.356.744 0 1.482-.736 2.227-.736 13.356-5.199 48.227-19.299 78.651 4.443l-2.227 3.714c-28.938-22.264-62.325-8.907-74.94-4.449-.742.735-1.484.735-2.228 1.484-9.646 2.965-18.548 7.414-28.195 12.607-22.256 11.136-48.227 23.742-83.84 25.977h-9.647"/><path fill="#195D9B" d="M268.414 516.279l-.743-.744v7.415h.743c2.226 0 3.709-.736 4.454-3.708-.001-2.221-1.487-2.963-4.454-2.963m22.26 9.643l5.193-.737-3.711-8.164m-74.938-4.456l2.225-8.901-6.678 6.68m-84.587-42.292h-1.482l-.743 7.413h2.226c2.228 0 3.711-.735 3.711-2.964.741-2.965-.741-3.714-3.712-4.449M338.9 511.828l4.455-2.228-5.937-6.678"/><path fill="#195D9B" d="M367.839 467.302c-30.421 19.298-55.648 31.169-86.812 31.169-43.035 0-75.681-28.197-120.943-43.04-45.26-15.578-96.458 9.649-96.458 9.649s16.324 16.328 17.067 45.264c0 0 30.421-19.293 75.68-4.458 44.52 15.585 68.263 45.264 126.141 42.292 50.451-2.964 78.647-26.707 111.297-38.578 9.643-3.714 46.741-20.776 78.649 2.966 2.967-28.193 18.55-46 18.55-46-38.584-27.451-100.168-14.1-123.171.736M106.66 491.051c-8.16 1.478-14.096-2.965-15.582-11.128-1.483-8.164 2.228-14.843 10.389-16.329 2.967-.735 5.192-.735 7.42 0v7.422c-1.485-1.479-2.967-1.479-5.196-1.479-3.707.737-5.936 4.444-5.192 8.9 1.485 4.449 4.453 6.678 8.16 5.936 1.486-.742 2.968-1.486 5.196-2.964l2.225 6.678c-2.224 1.478-4.452 2.221-7.42 2.964zm25.229-.743l-4.451-8.899h-1.486l-.742 8.157-7.418-.742 1.482-26.714 10.389.749c6.678 0 10.389 3.707 10.389 9.643 0 2.964-2.228 5.935-5.195 7.422l5.195 9.642-8.163.742zm21.516 4.456l-7.418-2.234 2.226-9.644-4.454-18.548 8.907 1.484 2.225 11.129 7.418-8.164 8.164 2.228-14.1 14.099-2.968 9.65zm24.486-9.65c5.196 4.451 6.678 7.415 5.196 11.872-2.968 5.936-8.164 5.936-13.357 3.708-3.711-1.486-5.936-3.708-8.16-5.931l3.708-5.198c2.228 2.228 4.453 4.449 7.42 5.936 1.486.742 2.226 0 2.968-.737.743-.749 0-2.234-2.968-4.456-4.451-3.708-5.936-6.678-3.71-11.129 2.229-5.198 6.678-5.936 11.872-3.714 3.71 1.486 5.939 2.972 7.421 5.193l-3.711 5.193c-1.482-2.222-3.71-3.707-5.936-4.443-1.482-.75-2.226-.75-2.968 0-.001.737-.001 1.478 2.225 3.706zm8.906 23.001l9.643-17.808-6.675-3.708 2.968-5.941 19.289 10.393-2.225 6.678-6.678-3.714-9.646 18.551-6.676-4.451zm36.357 18.549l-7.421-2.964.743-4.458-8.161-4.449-2.968 3.714-6.678-3.714 20.775-20.029 7.421 4.444-3.711 27.456zm20.775 7.421l-16.325-5.193 8.164-25.97 8.161 2.964-6.679 19.299 7.421 2.223-.742 6.677zm24.485-5.193h-1.483v8.165h-8.163l.743-27.457 9.646.744c7.418 0 11.129 2.97 11.129 9.643-.001 5.935-5.194 9.642-11.872 8.905zm31.905 6.679l-2.225-5.193-8.163 1.485-.744 4.443-8.16 1.486 5.936-28.193 8.904-1.484 12.612 24.484-8.16 2.972zm13.354-3.708l-7.418-25.978 7.418-2.222 5.938 19.286 7.418-2.222 2.969 6.679-16.325 4.457zm37.1-13.356l-2.969-3.714-8.16 3.714.742 4.443-7.422 2.972-2.225-28.936 8.16-3.707 19.293 20.771-7.419 4.457zm20.777-10.392c-7.422 3.713-14.099 1.484-17.807-6.679-3.71-7.422-1.485-14.837 5.935-18.551 2.225-.741 4.449-1.478 6.675-1.478l2.23 6.678c-1.486 0-3.711 0-5.197.737-3.707 1.484-4.449 5.191-2.967 9.647 2.229 3.708 5.935 5.193 9.647 3.708 1.484-.742 2.967-2.222 3.709-4.45l3.711 5.936c-1.485 1.487-2.967 3.709-5.936 4.452zm9.645-5.193l-10.388-24.485 17.065-7.421 2.227 5.936-9.646 3.707 1.483 3.714 7.421-2.964 2.967 5.929-7.421 2.971 1.485 4.456 9.647-4.456 2.225 5.936-17.065 6.677zm34.873-11.871l-7.419 1.478-5.936-26.707 17.064-2.964 1.485 5.929-8.904 2.228.741 4.449 5.936-1.484 2.968 5.942-7.418 1.485 1.483 9.644zm11.13-1.486c-1.484 0-3.711-1.479-3.711-3.714 0-2.222 1.483-3.707 3.711-4.443 1.483 0 3.711 1.478 3.711 3.706 0 2.223-1.486 3.709-3.711 4.451zm25.968-17.806c-1.482-1.485-2.968-2.972-5.193-2.972-3.71 0-6.677 2.228-7.421 6.678 0 5.193 2.228 8.165 5.938 8.165 2.225 0 3.708 0 5.936-.744v5.938c-2.228 1.484-4.453 1.484-8.163 1.484-8.16-.742-12.613-6.678-11.129-15.578.743-8.164 6.679-13.357 14.839-12.62 2.969.749 5.193 1.484 6.68 2.228l-1.487 7.421zm5.936 21.52c-2.225 0-4.449-1.486-4.449-3.714 0-2.228 1.482-3.714 3.709-4.451 2.227 0 3.709 1.485 3.709 3.709.741 2.228-.741 4.456-2.969 4.456z"/><path fill="#C5394A" d="M453.166 530.378l-2.968-2.229c-2.225-1.485-7.419-2.228-11.871-1.485-.742 0-2.225 0-2.967.743-2.969.742-6.68 1.484-8.904-.743-1.485-.742-2.225-2.964-2.225-5.193 0-2.229.739-3.712 2.967-5.191 6.679-5.935 28.196-.744 30.421 0 2.225.741 8.904 1.479 11.871 0 .743-.744.743-1.486.743-2.966 2.226-24.49 13.357-40.812 17.807-46.012-37.099-24.479-95.716-12.607-118.719 1.485-26.71 16.327-54.904 31.907-88.294 31.907h-.742c-27.453 0-51.196-11.871-75.682-23.743-14.099-6.678-28.938-14.093-45.263-20.035-37.838-12.608-81.616 4.456-92.747 8.906 4.453 5.936 15.581 20.777 16.325 44.522 0 1.484.742 2.222 1.485 2.97 2.968 1.48 8.903.737 11.129.737 2.968-.737 24.484-5.193 31.163.742 1.482 1.486 2.226 3.714 2.226 5.935 0 2.222-.743 3.707-2.226 5.193-2.225 1.485-5.935.742-8.903 0-.743-.737-2.225-.737-2.968-.737-4.454-.749-9.646-.749-11.872.737l-3.71 2.228v-10.391h-2.967c-.743.748-9.646 2.228-14.839-1.479-1.486-1.486-2.228-2.966-2.228-5.2-1.482-28.193-17.064-43.777-17.064-44.514l-2.225-1.485 2.225-1.486c2.225-1.484 53.424-25.228 98.683-10.385a361.482 361.482 0 0 1 45.26 20.034c24.485 11.871 47.488 23 74.199 23 29.68 0 54.908-11.871 86.811-31.163 24.485-14.842 86.811-27.449 125.397 0l1.482 1.485-1.482 1.486s-14.841 17.8-17.81 45.999c0 2.229-1.482 4.456-2.967 5.191-5.193 3.708-14.098 1.486-14.84.744h-2.969m-16.323-2.226c-3.708 0-6.676.748-8.162 1.483-.742.744-.742 1.486-.742 2.229v2.229c1.486 0 3.711 0 5.935-.75.744 0 2.229-.736 2.969-.736 2.967 0 8.163-.743 11.874.736l.739-4.443c-4.45 0-8.902-.748-12.613-.748zm-327.957 2.227c2.228 0 4.453.742 5.939.742 1.481.742 2.225.742 2.968.742 2.225.743 5.192 1.479 5.935.743v-1.485c.74-1.486 0-1.486-.743-2.222-2.968-2.972-11.871-2.972-20.035-1.486v3.708c1.486.001 3.711-.742 5.936-.742z"/><path fill="#C5394A" d="M272.867 551.149c-33.392 0-54.91-11.871-77.166-23.742-12.614-6.679-25.228-13.356-40.067-18.55-43.777-14.843-73.458 3.708-73.458 3.708L79.95 509.6c1.486-.742 31.164-20.034 77.167-5.198 14.838 5.198 28.195 12.619 40.067 19.299 24.485 12.606 47.488 24.477 84.586 22.256 35.614-1.484 59.359-13.357 82.358-25.228 9.646-4.449 19.293-8.9 28.938-12.613.744-.743 1.482-.743 2.227-1.479 13.356-5.199 48.227-18.55 78.651 5.192l-2.227 2.965c-28.938-22.264-62.325-8.907-74.94-3.714-.742 0-1.484.749-2.228.749-9.646 3.707-18.548 8.158-28.195 12.607-22.256 11.136-48.227 23.742-83.84 25.977-2.969-.001-6.68.736-9.647.736"/><path fill="#C5394A" d="M124.47 519.242c-9.646-8.898-14.1-16.32-14.1-17.063l3.711-1.484s3.711 7.421 13.357 14.841m301.243 4.45l-2.225-3.707c11.129-7.422 12.613-16.322 12.613-16.322l3.71.737s-1.483 10.385-14.098 19.292"/><path fill="#2F58A5" d="M324.805 295.163l.742.749-.742-.749m-22.26-164.717c-.742-2.968-1.483-7.418-2.226-11.128.742 2.967 1.484 7.42 2.226 11.128"/><defs><path id="e" d="M301.061 120.059h2.227v11.129h-2.227z"/></defs><clipPath id="f"><use xlink:href="#e" overflow="visible"/></clipPath><path clip-path="url(#f)" fill="#FFFFFD" d="M302.545 130.446c-.742-2.968-1.483-7.418-2.226-11.128.742 2.967 1.484 7.42 2.226 11.128"/><path fill="#EBEBEB" d="M332.965 245.456c0-.748 0 0 0 0"/><defs><path id="g" d="M102.953.599h278.243v399.933H102.953z"/></defs><clipPath id="h"><use xlink:href="#g" overflow="visible"/></clipPath><path clip-path="url(#h)" fill="#195D9B" d="M376.001 282.556v-.749c-.741 0-.741-.736-1.482-1.479 0-1.486-1.486-2.965-2.226-4.451-7.421-12.62-18.55-23.006-18.55-23.006v2.971l.739 5.193s-35.613-20.771-51.194-40.07c-11.872-14.836-25.228-31.158-33.39-50.453l-2.968-5.192c-10.389-11.872-20.777-9.646-44.52-37.1-8.161-8.903-17.064-27.453-19.292-39.324-5.936-25.97-5.192-54.906 1.485-80.134 0 0 2.969-8.903-13.356 17.064-8.16 12.615-14.096 27.453-17.063 42.292-1.486 8.164-1.486 15.584-1.486 23.003-5.192-11.128-9.646-23.003-12.614-34.874-4.451-16.321-5.936-33.389-4.451-49.713 0 0-2.967-2.225-12.614 23.746-9.646 26.71-11.131 48.97-6.678 74.198-18.549-15.581-22.26-43.777-28.195-66.037l-.743.742s0 1.482-.743 2.968v5.193c-.739 11.131-2.225 41.552 13.356 72.715.743.743.743 1.483.743 2.226 2.226 5.193 5.192 8.903 7.418 13.357 3.711 6.675 7.421 8.903 11.874 14.839-.743 0-27.453-5.936-37.099-7.421 5.936 4.454 16.322 14.1 28.936 25.229 0 0 37.099 2.968 65.294 24.484 0 0-24.485-11.871-54.906-14.096 2.225 1.482 3.71 2.968 5.193 4.453 8.903 8.163 17.807 16.321 25.228 23l-22.26-2.228L181.6 229.13l5.936.743s10.389-.743 20.777 1.485c11.129 2.965 17.064 6.679 17.064 6.679-5.935-2.229-16.324-2.972-23.002-2.229-4.45 0-6.675 1.486-10.386 1.486l2.226 1.485 19.293 16.321h17.806c-14.838 9.644-29.678 13.357-48.227 6.678-9.646-2.964-19.293-8.163-27.454-14.836 2.968 8.158 11.129 14.836 17.064 20.771-20.032-1.485-35.614-5.936-53.423-14.099 6.678 11.128 11.875 17.806 17.81 23.748 5.193 5.93 12.614 11.872 16.321 14.093 2.228 1.486 13.357 1.486 20.778.743 1.482 0 2.968-.743 3.708-.743 1.485 0 3.71-.742 5.936-.742 7.42-2.228 16.324-4.45 15.581-4.45-2.968 2.222-6.675 4.45-10.386 5.936-2.225 1.486-4.453 2.229-6.678 3.714-10.389 4.444-21.517 7.415-31.906 5.93 11.132 3.714 23.746 6.678 35.617 8.163 4.45.743 5.935.743 9.646-1.485 5.192-2.223 10.386-4.45 14.096-6.678 2.225-.737 4.453-2.222 6.679-2.965 2.968-1.485 6.678-3.714 9.646-5.192-1.486 1.478-3.711 3.707-5.936 5.192-.743 1.479-2.229 2.227-3.71 2.965-3.711 3.714-8.903 7.421-14.1 11.87 14.1.75 22.26 2.972 40.809-2.964 0 0-3.71 2.964-8.903 5.936l5.192 11.129-5.936-2.965 3.71 7.415s2.968 3.714 6.679 6.678l1.485 3.713c-2.968-.741-6.678-3.713-8.906-5.198 2.968 12.62 10.388 9.649 12.614 17.07 1.485 5.192 6.679 14.836 3.711 19.292-3.711 5.935-5.937 5.192-11.129 9.643-5.196 5.198-.743 11.877 0 14.1 1.482-5.935 5.936-10.386 8.161-11.129 4.453-.742 8.903 0 11.131-2.229 5.936-5.935 20.032-7.415 29.679-1.485-4.453-7.415-6.678-7.415-15.582-9.643 15.582.742 16.324 4.45 24.485 13.356 0-5.199-3.71-11.877-7.421-14.842-1.482-.743-13.354-2.229-25.226-3.708-4.453 0-5.936-5.936-6.678-8.164.743 0 3.711 2.228 7.418 1.486-.74-3.714-2.225-8.906-2.968-11.871 1.485.742 2.228 1.478 5.196 1.478l-1.485-6.678c-.743-5.93-2.968-9.644 2.226-18.55 3.71 2.228 4.453 2.971 5.935 4.456 0 0 1.486 5.193 2.229 8.164.742.736 5.936 5.192 5.936 5.93l-8.904-2.965s2.969 7.421 8.904 11.129c3.711 1.484 6.678 2.971 8.16 4.456.743 1.484 2.969 5.192 1.485 7.414-.742 1.485-5.196-5.93-15.581 2.972 6.678 0 15.581 2.222 17.064 4.45 2.228 2.228 4.452 5.198 5.936 5.936 7.421 4.456 8.162 6.678 7.421 15.578 4.449-3.707 2.967-12.607 2.967-14.835 5.936 7.421 4.454 17.069 2.227 20.776 5.194-2.227 10.388-12.613 5.194-20.776-1.485-.743-8.906-6.679-10.388-8.158-4.453-4.457-5.193-9.65-7.421-14.842 1.485 0 3.71.736 4.452.736-.742-2.965-1.484-7.415-2.225-11.122v-2.23c0-.741 0-.741-.742-1.484v-2.965c2.225 2.222 4.449 2.222 4.449 2.222l-4.449-11.128v-2.965c.742-.749.742-1.485.742-2.229v-.743c0-.742.74-1.484.74-2.222v-.748c.742-.737.742-1.486 1.484-2.223-2.225 4.45 3.71 10.386 3.71 10.386.74-9.649 8.904-17.807 15.582-21.52 0 2.97 1.482 5.198 1.482 5.198 1.486-4.45 5.935-5.936 8.904-6.678l5.935 2.228 5.936 2.965h1.486s.742 5.193 3.71 7.421c2.226 1.485 5.192 2.971 11.127 7.415 0 1.485-1.48 2.971-4.449 3.714 8.904 3.713 20.032 0 18.55-10.393-.743-2.964-2.227-12.608-2.227-12.608l2.227-6.677.739-2.228.743-1.479c.003-4.456-1.48-8.906-3.707-13.355m-31.903 14.092l-5.197-8.9-11.871-5.942 9.646 11.878c-5.193-2.972-14.096-8.164-23.742-9.644 0 0 8.16 7.415 11.871 11.123l.742.749-.742-.749c-.742-.736-3.711-1.478-9.646-2.222-5.935 0-11.87-1.486-18.549-5.193 0 0 1.485 2.223 3.71 3.707v.743c2.969 1.486 5.936 3.714 10.386 5.193l5.939 2.228c-3.711 1.484-6.68 2.97-8.907 4.449-4.449 3.714-7.418 8.164-8.903 11.872-2.967 7.42-5.192 20.777-2.967 28.192-6.68-8.157-11.871-19.286-8.904-31.9-9.647 5.192-16.324 3.708-23 2.965-2.968 3.707-6.678 14.1-7.421 22.257-.742-.736-1.485-1.479-1.485-2.965-2.968-5.192-3.708-11.129-4.45-17.064v-6.678l22.261-15.585-31.907-2.965 1.486-.743c12.611-8.899 27.453-14.841 43.035-14.093h3.707c-10.385-5.199-27.453-5.199-37.838-1.485-13.357 4.451-19.292 4.451-34.131 1.485 15.581-2.971 14.839-3.714 24.485-7.427 7.418-4.444 22.26-12.607 40.066-8.9-4.453-2.222-8.164-3.707-13.356-5.193-5.936-1.485-14.097-2.227-23.743-.743 0 0 6.678-6.678 18.55-8.158-16.325-14.842-63.813-37.099-63.813-37.099 67.523 15.578 95.717 47.485 100.169 52.678l.742.736c-2.225-5.929-17.067-40.807-57.873-66.034-5.938-3.708-11.874-6.678-17.81-9.643-9.646-5.192-17.807-11.129-25.967-17.807-75.683-60.102-47.488-143.946-47.488-143.946-2.226 19.292.743 38.584 6.678 55.649 2.968 10.389 7.418 20.035 12.614 28.938 4.451 9.646 9.646 17.807 14.097 23 9.646 11.874 20.777 21.518 34.131 28.938 0 0-57.874-39.323-25.228-122.425-1.483 2.968-23.743 70.487 60.844 128.362 2.225 1.485 2.968 1.485 3.707 2.225 11.132 27.453 54.909 70.488 63.069 91.265-.742-3.714-.742-8.163-1.482-12.614 5.193 5.193 8.904 11.872 11.129 18.549 0-4.456.742-10.385.742-14.842 6.68 3.714 17.809 11.872 25.969 21.52v-.743l-.741-.742v.742h.741v.743-6.678l-.741-2.222s13.355 15.579 17.809 28.193c0 .742.741 1.478.741 2.228 0 2.965-.741 5.192-1.485 6.678 0 1.479-2.225 3.707-2.967 4.445 0-.738.742-1.479.742-2.966 0-.742-.742-2.228-.742-3.713-.742-1.479-1.486-2.965-1.486-4.444-.738-.749-1.482-1.485-1.482-1.485.744 2.965.744 4.45 0 6.678-.742 2.965-2.225 3.708-2.225 3.708l-.742-1.485c0-.737-.744-2.223-.744-2.971-1.48-3.708-6.677-14.094-8.901-17.801-1.483 2.222.742 7.415.742 7.415.741 1.484 2.225 5.192 2.225 5.192-1.483 2.971.743 6.679 3.71 8.164-.742.742-3.71 0-5.193-.737 0 1.479 2.969 4.445 4.451 5.93-3.714-1.484-12.618-8.163-17.067-11.871zm19.288 25.229l-3.707-2.972-2.969-2.222-.741-1.485v-.736l-.742-2.972c2.967 1.486 5.192 5.193 6.677 7.415l2.225 3.714-.743-.742zm11.874 2.227c-1.485 1.48-2.967 2.965-5.194 3.708-2.227.742-4.451 1.485-5.938.742h.744c4.449-2.971 2.225-8.163-2.225-13.356h-.744l-9.646-8.901-.742-.741h.742l1.485.741 5.193 2.966h.742l2.225 1.485 2.225 1.485c2.226-.743 5.193-1.485 5.938-1.485 1.484 0 2.228-.743 2.967-1.485 0 .742 4.453 11.877 2.228 14.841z"/><path fill="#195D9B" d="M429.423 74.057h.744c-14.84 1.483-28.939 5.193-40.81 12.615 9.646-18.55 31.163-31.907 50.455-39.327 0 0 2.226-3.711-20.777 0-2.967 0-5.936.743-8.904 1.485-12.613 2.225-25.228 8.161-35.612 16.325-5.197 4.45-10.391 9.644-14.84 15.579-20.034 25.97-26.714 48.973-26.714 48.973s-2.225-33.391 40.067-77.909c5.196-8.164 10.389-15.582 16.325-22.26 0 0 .742-5.193-23.743 13.357-17.067 12.614-32.65 28.196-43.778 46.746-3.71 6.675-12.612 23-14.838 33.389v.742s0 6.676 1.482 14.839c1.485 10.386 5.193 24.485 5.193 24.485-2.225-5.935-7.418-18.549-9.643-24.485-.742-2.968-1.485-5.936-1.485-8.164-.742-1.482-.742-2.968-.742-4.45-.741-1.486-.741-2.226-.741-2.968 0-1.486-.742-2.969-.742-3.71-.742-5.193-.742-9.646-.742-14.84 0-5.935 0-11.871.742-15.581-11.132 25.968-12.612 45.26-12.612 53.424-.744 5.193-.744 8.903-.744 11.871 2.969 8.16 8.162 19.289 17.067 33.389 0 0-8.163-5.192-17.81-22.26-.74 3.711-1.482 8.16-2.969 14.838 11.132 18.549 22.261 33.392 32.648 44.521v-22.264c2.969 2.972 5.935 5.942 7.419 8.164 1.485-7.415 3.71-15.579 6.679-25.228 20.035-57.874 43.034-75.681 43.034-75.681-21.517 33.388-40.81 100.172-40.067 132.072 4.453 2.965 8.164 5.936 11.133 8.163-2.229-2.228-2.969-5.199-3.711-7.421 9.646-44.514 39.324-74.198 39.324-74.198 5.936-63.81 78.65-91.262 78.65-91.262 5.938-4.454-28.938-2.969-28.938-2.969"/><path fill="#C8CBCD" d="M440.552 444.308v-36.361c-3.707 2.971-7.418 5.192-11.129 7.42v11.129h-5.191v-7.415c-23.747 15.579-35.617 17.801-35.617 17.801 16.325-8.157 27.454-16.314 35.617-22.994v-14.104c-28.938 25.228-54.91 37.849-64.553 42.298v5.935h49.713c9.644-2.228 20.031-2.97 31.16-2.228"/><path fill="#9DA2A5" d="M395.293 450.238c-7.421 2.227-14.84 4.456-20.774 7.427v-7.427m-41.554 30.42c-2.225 1.486-5.193 2.972-6.678 2.972v-22.258h6.678v15.579m-6.678-35.613h6.678v17.807h-6.678zm30.423 25.227v-5.193h-5.937v10.387c1.484-1.485 3.709-2.223 5.937-3.707m-5.937-26.714h5.937v17.807h-5.937zm-10.386 31.905v-11.871h-4.453v18.551c1.484-.744 2.967-1.486 4.453-2.229m-4.453-36.356h4.453v17.807h-4.453zm7.421 0h4.449v17.807h-4.449zm4.45 30.421v-10.387h-4.449v14.843c1.48-.75 2.967-2.234 4.449-2.972m-21.518-46.005h30.423v11.877h-30.423zm-121.684 41.549c-2.227-1.485-4.453-2.222-6.677-2.965v-4.45h6.677v2.966m-6.677-23h6.677v17.807h-6.677zm23.742 35.613c2.228 1.485 4.454 2.228 6.678 2.972v-18.551h-6.678v5.193m.743-25.227h5.935v17.807h-5.935zm-15.582 0h5.193v17.807h-5.193zm8.161 0h4.454v17.807h-4.454zm-17.064-14.1h30.42v11.877h-30.42zm17.064 46.742c.743.749 2.968 1.484 4.454 2.234v-14.843h-5.193V472.5m-23.746-10.391c1.485.749 2.968 1.484 4.453 2.228v-14.1h-4.453v9.648m16.324 10.388h1.485c.74.742 2.225 1.485 3.708 2.228v-11.129h-5.193v7.415"/><path fill="#C8CBCD" d="M115.567 430.951v-23.005c3.707 2.971 7.418 5.192 10.385 7.42v11.129h5.937v-7.415c23.745 15.579 34.874 17.801 34.874 17.801-15.581-8.157-27.453-16.314-34.874-22.994v-14.104c27.452 23.749 52.681 36.362 63.069 41.556v6.678h-43.034c-12.615-2.97-25.229-2.97-36.356-2.228"/><path fill="#9DA2A5" d="M180.119 457.665c-5.936-2.234-14.1-5.942-18.549-7.427h18.549m2.968 6.678v-6.678h4.45v10.392c-.74 0-2.226-.743-4.45-2.228m181.041 2.97v-11.134h-4.449v16.327c1.482-.743 2.969-2.228 4.449-2.972m7.422-5.928v-7.427h-4.453v11.134c1.486-.742 2.969-1.485 4.453-2.228m-48.231-20.029v-8.912c0-25.222-20.774-46-46.003-46-25.967 0-46.002 20.778-46.002 46v8.912h7.421c-.743-2.971-.743-5.198-.743-8.164 0-21.52 17.808-38.584 38.582-38.584 21.521 0 39.326 17.064 39.326 38.584 0 2.966-.742 5.193-.742 8.164"/><path fill="#C8CBCD" d="M125.952 404.981V394.59l-10.385-10.387v11.871c1.481 2.229 4.449 6.679 10.385 12.615m314.6-12.615c-1.483 2.229-5.191 6.679-11.129 12.615v-14.1l11.129-10.387v8.164"/><path fill="#9DA2A5" d="M269.156 475.465c-.743 0-1.486.75-1.486 2.229 0 1.484 0 2.229 1.486 2.229 1.483 0 2.225 0 2.967-.744 0-2.228-1.484-3.714-2.967-3.714m11.871 0c-1.482 0-2.225 1.486-2.225 4.458 0 2.963.742 4.449 2.225 4.449 1.486 0 2.225-1.486 2.225-4.449 0-2.972-.738-4.458-2.225-4.458"/><path fill="#9DA2A5" d="M314.417 442.08c-4.452 16.322-20.033 28.193-37.843 28.193-17.807 0-32.645-11.871-37.099-28.936h-8.161v40.07c15.581 6.678 31.907 11.871 48.971 11.871h.742c14.84 0 28.938-2.972 42.292-8.165v-43.776m-60.841 44.515h-2.226v-9.637l-2.968.736v-1.486l2.968-1.484h2.226v11.871zm4.453.748v-2.228c2.226-.742 4.451-1.486 4.451-3.714-.742.75-1.483.75-2.968.75-1.483 0-2.968-.75-2.968-3.714 0-2.229 1.485-3.714 3.71-3.714 2.967 0 4.45 1.484 4.45 5.198 0 3.708-2.225 6.674-6.675 7.422zm14.096 0c-2.967 0-4.453-2.228-4.453-6.677 0-3.708 1.486-5.942 4.453-5.942 2.969 0 5.193 2.234 5.193 5.942.001 4.449-2.224 6.677-5.193 6.677zm11.129 0c-1.482 0-2.969-.748-3.707-1.485v-1.484c.738 0 2.225.742 3.707.742.742 0 2.228-.742 2.228-2.228 0-.736-.742-1.486-2.228-1.486h-3.707l.738-6.678h6.68v2.234h-5.193v2.222h1.482c2.969 0 4.453 1.486 4.453 3.708 0 2.969-2.225 4.455-4.453 4.455zM105.178 379.01c1.482 0 2.968.743 4.45 1.486v20.035c-1.482 0-2.968-.749-4.45-.749m-2.968-.737h-4.454v-20.776h4.454m-11.871 20.776h4.45v-20.776h-4.45m-7.421 22.262c1.485 0 2.967-.749 4.453-.749V379.01c-1.485 0-2.968.743-4.453 1.486m-4.45-18.55c1.482 0 2.225-.742 3.707-.742v2.228m12.614 5.929c-1.482 0-2.968 0-4.45.749v-11.135h4.45m7.421.001h-4.454v10.386c1.485 0 2.968 0 4.454.749m2.968-10.393c1.482 0 2.968 0 4.45.743v11.129c-1.482-.743-2.968-.743-4.45-1.479m-17.807-.001c-1.485.736-2.968.736-4.453 1.479V360.46c1.485-.743 2.967-.743 4.453-.743m23 1.487c1.486 0 2.228.742 3.711.742l-3.711 1.485m-31.903 18.55c1.482-.749 2.225-1.485 3.707-1.485v2.222m28.196-2.222c1.486 0 2.228.736 3.711 1.485l-3.711.736"/><path fill="#9DA2A5" d="M114.081 355.269c-5.193-2.229-11.129-3.708-17.807-3.708-6.679 0-12.615 1.48-17.807 3.708v4.449c5.192-2.228 11.128-3.713 17.807-3.713 6.678 0 12.613 1.485 17.807 3.713m0 14.837c-5.193-2.222-11.129-2.965-17.807-2.965-6.679 0-12.615.743-17.807 2.965v5.198c5.192-2.228 11.128-3.713 17.807-3.713 6.678 0 12.613 1.485 17.807 3.713"/><path fill="#9DA2A5" d="M114.081 353.04c-5.193-2.229-11.129-3.707-17.807-3.707-6.679 0-12.615 1.478-17.807 3.707l14.097-13.35h7.42m-7.42-3.713v2.228h7.42v-2.228c0-.743-2.228-.743-2.228-.743h-2.968c-.739-.001-2.224-.001-2.224.743m17.064 87.554c-1.482-.743-2.968-.743-4.45-1.486v-20.028c1.482 0 2.968.736 4.45 1.479m-7.418 18.549c-1.486-.743-2.968-.743-4.454-.743v-20.034h4.454m-7.421 20.034c-1.482 0-2.968 0-4.45.743v-20.777h4.45m-7.418 20.777c-1.485.743-2.968.743-4.453 1.486v-20.035c1.485-.743 2.967-1.479 4.453-1.479m380.637-23.007c1.482 0 2.968.743 4.451 1.486v20.035c-1.483 0-2.969-.749-4.451-.749m-2.229-.737h-5.191v-20.776h5.192m-12.614 20.776h5.195v-20.776h-5.195m-6.676 22.262c1.483 0 2.969-.749 4.451-.749V379.01c-1.482 0-2.969.743-4.451 1.486m-4.452-18.55c.741 0 2.225-.742 2.968-.742v2.228m13.355 5.929c-1.484 0-2.967 0-5.195.749v-11.135h5.195m7.418.001h-5.191v10.386c1.482 0 3.711 0 5.191.749m2.229-10.393c1.482 0 2.968 0 4.451.743v11.129c-1.483-.743-2.969-.743-4.451-1.479m-17.067-.001c-1.482.736-2.969.736-4.451 1.479V360.46c1.483-.743 2.969-.743 4.451-.743m23.003 1.487c.739 0 2.225.742 2.967.742l-2.967 1.485m-31.906 18.55c.741-.749 2.225-1.485 2.968-1.485v2.222m28.938-2.222c.739 0 2.225.736 2.967 1.485l-2.967.736"/><path fill="#9DA2A5" d="M476.911 355.269c-4.452-2.229-11.132-3.708-17.067-3.708-6.678 0-13.354 1.48-17.806 3.708v4.449c4.452-2.228 11.128-3.713 17.806-3.713 5.936 0 12.615 1.485 17.067 3.713m0 14.837c-4.452-2.222-11.132-2.965-17.067-2.965-6.678 0-13.354.743-17.806 2.965v5.198c4.452-2.228 11.128-3.713 17.806-3.713 5.936 0 12.615 1.485 17.067 3.713"/><path fill="#9DA2A5" d="M476.911 353.04c-4.452-2.229-11.132-3.707-17.067-3.707-6.678 0-13.354 1.478-17.806 3.707l14.096-13.35h6.679m-6.679-3.713v2.228h6.679v-2.228c0-.743-1.482-.743-2.225-.743h-2.227c-.742-.001-2.227-.001-2.227.743m16.325 87.554c-1.483-.743-2.969-.743-4.451-1.486v-20.028c1.482 0 2.968.736 4.451 1.479m-6.68 18.549c-1.48-.743-3.709-.743-5.191-.743v-20.034h5.191m-7.418 20.034c-1.484 0-2.967 0-5.195.743v-20.777h5.195m-7.42 20.777c-1.482.743-2.969.743-4.451 1.486v-20.035c1.483-.743 2.969-1.479 4.451-1.479m21.518 49.706c-1.483-.736-2.969-.736-4.451-1.484V425.01s2.968 0 4.451.749v14.836m-6.68 8.906c-1.48-.749-3.709-.749-5.191-1.485v-23.742h5.191v25.227zm-7.418-8.163v-17.064h-5.195v23c2.228 0 3.711 0 5.195.742v-6.678zm-7.42.742v-17.07c-1.482 0-4.451.749-4.451.749v20.029c1.483.742 2.969.742 4.451.742v-4.45zm-341.313-2.965v-13.356c-1.482-.749-4.45-.749-4.45-.749v22.264s2.968-.743 4.45-.743v-7.416zm-7.418-14.842h-4.454v24.479c1.485-.736 2.968-.736 4.454-1.479v-23zm-7.421 25.228c-1.482 0-2.968.737-4.45.737v-25.965h4.45v25.228zm-7.418 1.485c-1.485.736-2.968.736-4.453 1.479v-26.707s2.967-.749 4.453-.749v25.977z"/><path fill="#C5394A" d="M261.735 444.308c6.679 3.708 12.615 5.193 16.326 5.931h.742l.742-1.486c0-6.672-1.484-12.608-1.484-14.835l-.744-.743c-8.16-3.707-14.838-7.415-19.292-12.607-3.707-2.972-5.936-5.941-7.418-9.649l-.742-.743-1.483.743c-2.968 3.708-4.453 8.163-5.936 12.614l.74.742c3.709 8.899 10.389 15.578 18.549 20.033"/><path fill="#C5394A" d="M259.51 419.08h2.225c8.904-12.62 19.292-17.064 25.972-19.298l.742-.737-.742-1.484c-2.969-1.486-6.68-1.486-10.391-1.486-5.193 0-9.646.743-14.096 2.229-3.71 2.229-8.164 4.45-11.132 8.157v.75c.001 2.221 2.229 6.676 7.422 11.869"/><path fill="#C5394A" d="M263.221 420.566v1.478c4.45 2.965 8.902 5.937 14.096 8.906h.744l.742-.748c2.967-3.708 12.613-12.608 28.195-14.837l.739-.741v-.738c-2.967-5.197-6.676-8.905-11.128-11.87l-.742-.749c-1.483 0-6.68 0-13.353 2.971-7.422 3.708-14.1 8.901-19.293 16.328m46.744-2.234s-.741-.737-1.485-.737c-2.967.737-5.191.737-8.16 1.485l-.742.737v1.484c1.484 2.23 2.968 8.165 2.968 14.843 0 4.45 0 8.163-.742 11.871-.741 2.971-1.483 5.193-2.969 7.415l.743 1.485h1.484c3.709-3.707 6.676-8.164 8.903-12.608 2.969-8.162 2.969-17.812 0-25.975m-31.162 34.877l-.742-.743a78.673 78.673 0 0 1-16.326-5.192c-7.418-3.714-13.354-8.907-17.806-15.585l-.743-.737-1.482 1.486c.743 4.443 1.482 8.157 2.968 12.608 2.225 5.192 6.678 10.385 11.871 14.099 4.454 3.714 10.389 5.936 16.326 6.678l.739-.742c2.968-2.971 4.454-6.678 5.197-11.129v-.743"/><path fill="#C5394A" d="M297.352 422.045l-.743-.743h-.742c-8.16 3.708-13.353 8.901-15.582 11.136v1.479c.742 2.228 1.484 6.678 2.229 12.613 0 3.708-.744 6.679-1.486 9.649-.742 2.965-1.482 5.93-2.967 8.158v.742l.742.742c3.711 0 7.418-.742 10.385-2.228h.744c3.71-3.707 5.936-7.414 8.163-11.871 1.482-4.449 2.225-8.899 2.225-13.356-.001-6.677-1.486-13.356-2.968-16.321"/></svg>