<svg xmlns="http://www.w3.org/2000/svg" width="186" height="186" viewBox="0 0 186 186"><path d="M101.852 178.117c-.727 2.178-3.092 7.509-8.799 7.509-6.484 0-8.747-7.023-8.856-7.312l-.186-.674s5.588.465 8.664.465c3.075 0 8.332-.299 9.192-.465l-.015.477z"/><path d="M118.871 174.653l1.338.179c-1.588 4.143-4.441 8.787-10.05 8.787-5.425 0-8.115-3.145-9.263-5.26l-.936-.575c.001 0 9.384-.309 18.911-3.131zm-51.443 0l-1.339.179c1.587 4.143 4.442 8.787 10.051 8.787 5.424 0 8.355-3.32 9.558-5.26l.64-.575s-9.382-.309-18.91-3.131z"/><path fill="#FFF200" d="M97.6 178.549c-.877 1.273-1.465 1.212-2.523 1.212-.531 0-1.327.441-1.303 1.238.018.623.527 1.146 1.391 1.146 1.916 0 3.375-2.679 3.787-3.808 0 0 1.131-.05 1.463-.082 0 0-2.03 6.046-7.293 6.046-5.274 0-7.422-5.98-7.422-5.98s4.438.274 6.98.274c2.541 0 4.16-.013 4.92-.046zm20.568-2.659c-3.441.927-5.885 1.674-11.661 2.379 0 0 .181.596 1.438.53.483-.024.546-.144.724-.176.357-.065.905.31.84.938-.049.438-.424.992-1.702.992s-2.776-1.048-3.526-2.018c0 0-.77.176-1.562.219 0 0 2.458 3.445 7.306 3.445 5.334 0 7.304-4.766 8.143-6.309z"/><path fill="#FFDF00" d="M114.589 179.255c0-.834-.257-1.61-.696-2.248-1.867.439-4.002.841-7.13 1.231a3.665 3.665 0 0 0-.062.28c.188.153.554.317 1.243.28.483-.024.546-.144.724-.176.357-.065.905.31.84.938-.049.438-.424.992-1.702.992-.329 0-.675-.07-1.017-.19a3.99 3.99 0 0 0 .855 1.545 9.63 9.63 0 0 0 2.379.292c1.71 0 3.074-.489 4.166-1.207.256-.523.4-1.115.4-1.737z"/><path fill="#FFE100" d="M114.534 179.255c0-.83-.257-1.601-.697-2.233-1.843.429-3.952.826-7.015 1.209a3.924 3.924 0 0 0-.074.325c.202.141.562.276 1.196.243.483-.024.546-.144.724-.176.357-.065.905.31.84.938-.049.438-.424.992-1.702.992-.31 0-.632-.062-.954-.168.176.585.484 1.111.889 1.547a9.635 9.635 0 0 0 2.283.268c1.663 0 2.999-.462 4.076-1.148a3.908 3.908 0 0 0 .434-1.797z"/><path fill="#FFE300" d="M114.48 179.255c0-.826-.26-1.594-.701-2.222-1.816.424-3.899.813-6.9 1.19a3.563 3.563 0 0 0-.081.364c.208.129.562.242 1.146.211.483-.024.546-.144.724-.176.357-.065.905.31.84.938-.049.438-.424.992-1.702.992-.29 0-.591-.054-.892-.149.184.589.502 1.118.923 1.551a9.725 9.725 0 0 0 2.187.245c1.616 0 2.924-.438 3.984-1.09.301-.55.472-1.183.472-1.854z"/><path fill="#FFF200" d="M68.132 175.89c3.439.927 5.883 1.674 11.66 2.379 0 0-.18.596-1.436.53-.484-.024-.546-.144-.725-.176-.355-.065-.904.31-.838.938.046.438.422.992 1.701.992 1.278 0 2.774-1.048 3.524-2.018 0 0 .771.176 1.565.219 0 0-2.458 3.445-7.308 3.445-5.336 0-7.306-4.766-8.143-6.309z"/><path fill="#FFF200" d="M92.612 147.526c18.385 0 38.755-11.286 53.041-27.556 1.544-1.758 4.168-5.092 10.383-5.092 6.219 0 14.484 5.664 13.51 15.98-.708 7.521-11.459 24.472-29.844 34.921-18.387 10.449-35.316 12.697-47.089 12.697-11.771 0-28.703-2.248-47.088-12.697C27.14 155.33 16.389 138.38 15.68 130.858c-.974-10.316 7.292-15.98 13.508-15.98s8.841 3.334 10.385 5.092c14.283 16.27 34.654 27.556 53.039 27.556z"/><path d="M92.612 146.865c8.909 0 18.299-2.688 27.228-7.326 9.302-4.833 18.094-11.775 25.317-20.002.795-.906 1.866-2.216 3.576-3.324 1.721-1.113 4.049-1.996 7.303-1.996.338 0 .699.02 1.079.055 2.996.281 6.29 1.732 8.831 4.256 2.543 2.523 4.34 6.119 4.34 10.688 0 .537-.027 1.106-.084 1.706-.406 4.319-3.996 11.617-10.336 19.036-4.977 5.822-11.658 11.745-19.839 16.396-9.256 5.26-18.145 8.455-26.2 10.338a93.344 93.344 0 0 1-21.214 2.447 93.35 93.35 0 0 1-21.214-2.447c-8.056-1.883-16.944-5.078-26.2-10.338-8.181-4.648-14.863-10.574-19.838-16.395-6.34-7.421-9.93-14.717-10.337-19.038a18.06 18.06 0 0 1-.084-1.706c0-4.568 1.796-8.164 4.34-10.688 2.541-2.523 5.835-3.975 8.83-4.256.38-.035.74-.055 1.078-.055 3.256 0 5.585.883 7.303 1.996 1.712 1.108 2.782 2.418 3.578 3.324 7.222 8.226 16.015 15.169 25.317 20.002 8.927 4.64 18.317 7.327 27.226 7.327zm0 1.323c-9.126 0-18.725-2.742-27.837-7.477-9.439-4.902-18.364-11.953-25.699-20.305-.749-.853-1.762-2.088-3.304-3.086-1.532-.993-3.625-1.781-6.586-1.781-.329 0-.648.015-.954.045-2.715.256-5.708 1.576-8.024 3.877-2.313 2.297-3.947 5.576-3.947 9.754 0 .529.024 1.057.073 1.584.386 4.088 3.866 11.091 10.028 18.301 4.888 5.721 11.452 11.541 19.487 16.106 9.13 5.189 17.9 8.343 25.849 10.198a91.942 91.942 0 0 0 20.914 2.413c5.845 0 12.972-.559 20.914-2.413 7.949-1.855 16.721-5.009 25.85-10.198 8.035-4.567 14.6-10.386 19.488-16.106 6.162-7.21 9.641-14.213 10.025-18.301.051-.527.074-1.055.074-1.584 0-4.178-1.634-7.457-3.947-9.754-2.318-2.301-5.311-3.621-8.025-3.877a9.816 9.816 0 0 0-.955-.045c-2.959 0-5.052.788-6.584 1.781-1.541.998-2.555 2.233-3.303 3.086-7.334 8.352-16.26 15.4-25.699 20.305-9.112 4.734-18.712 7.477-27.838 7.477z"/><path fill="#E22F22" d="M37.508 121.588l-.214-.244c-1.463-1.682-3.468-3.983-8.256-3.983-2.792 0-5.955 1.493-8.058 3.802-1.571 1.726-3.352 4.758-2.915 9.392.598 6.336 10.656 22.764 28.568 32.946 14.437 8.204 29.856 12.364 45.83 12.364s31.392-4.16 45.829-12.364c17.912-10.183 27.973-26.61 28.568-32.946.436-4.635-1.344-7.666-2.916-9.392-2.102-2.309-5.264-3.802-8.055-3.802-4.789 0-6.795 2.302-8.258 3.983l-.215.244c-15.393 17.529-36.451 28.42-54.954 28.42-18.504 0-39.563-10.891-54.954-28.42z"/><path fill="#FFF200" d="M151.674 100.908c0-8.821 7.15-15.973 15.972-15.973s15.974 7.152 15.974 15.973c0 8.82-7.152 15.971-15.974 15.971s-15.972-7.15-15.972-15.971z"/><path d="M151.014 100.908a16.58 16.58 0 0 1 4.871-11.762 16.58 16.58 0 0 1 11.761-4.872c4.594 0 8.752 1.863 11.762 4.872a16.579 16.579 0 0 1 4.872 11.762c0 4.592-1.861 8.751-4.872 11.761a16.584 16.584 0 0 1-11.762 4.871 16.584 16.584 0 0 1-11.761-4.871 16.578 16.578 0 0 1-4.871-11.761zm1.322 0c0 4.226 1.714 8.056 4.484 10.825a15.26 15.26 0 0 0 10.825 4.485c4.229 0 8.056-1.715 10.827-4.485a15.26 15.26 0 0 0 4.484-10.825c0-4.229-1.714-8.057-4.484-10.827a15.263 15.263 0 0 0-10.827-4.484 15.262 15.262 0 0 0-10.825 4.483 15.272 15.272 0 0 0-4.484 10.828z"/><path fill="#FFF200" d="M1.942 100.934c0-8.82 7.151-15.972 15.973-15.972 8.82 0 15.972 7.151 15.972 15.972 0 8.822-7.151 15.973-15.972 15.973-8.821-.001-15.973-7.151-15.973-15.973z"/><path d="M1.281 100.934c0-4.594 1.862-8.751 4.872-11.761a16.58 16.58 0 0 1 11.761-4.872 16.58 16.58 0 0 1 11.761 4.872 16.58 16.58 0 0 1 4.872 11.761c0 4.593-1.861 8.752-4.872 11.762a16.578 16.578 0 0 1-11.761 4.871 16.584 16.584 0 0 1-11.762-4.871 16.588 16.588 0 0 1-4.871-11.762zm1.323 0a15.26 15.26 0 0 0 4.484 10.826 15.26 15.26 0 0 0 10.827 4.485c4.228 0 8.055-1.714 10.825-4.485a15.26 15.26 0 0 0 4.484-10.826 15.26 15.26 0 0 0-4.484-10.826 15.26 15.26 0 0 0-10.825-4.484 15.262 15.262 0 0 0-10.826 4.484 15.26 15.26 0 0 0-4.485 10.826zm169.414-42.986l.09-4.276c1.305.986 3.789 1.023 5.244-.531.668-.71 1.045-1.794.984-2.928-.07-1.26-.634-2.582-1.588-3.511-5.379-5.242-10.133-10.482-10.133-10.482-.481-.775-1.271-1.348-1.704-1.54-.674-.3-2.999-1.365-4.772 1.334-1.611 2.446-1.371 5.907-1.08 7.164l5.046 6.857c1.72 2.181 6.57 6.833 7.913 7.913zM64.475 13.472c6.341-2.126 12.129-3.88 19.933-4.574l-19.933 4.574z"/><path d="M64.475 13.489c6.341-2.128 12.129-3.88 19.933-4.574l1.189-.671c-4.364-3.429-8.691-5.762-13-5.762-2.707 0-8.206 1.835-9.441 11.535l1.319-.528zm56.292 0c-6.342-2.128-12.13-3.88-19.933-4.574l-1.19-.671c4.363-3.429 8.691-5.762 13.001-5.762 2.706 0 8.206 1.835 9.44 11.535l-1.318-.528zm-33.35-5.55c1.289-.066 4.266-.132 5.456-.132 1.19 0 4.476.157 5.197.21l-10.653-.078z"/><path d="M85.451 8.585C88.64 2.47 91.563.243 93.18.243c2.022 0 4.39 3.218 6.246 7.359l.393.933-1.615-.134c-1.097-.197-4.14-.229-5.33-.229-1.191 0-3.77 0-5.324.132l-2.099.281z"/><path fill="#FFF200" d="M79.21 153.367l-2.856 10.654-5.323-12.845-3.314-.891-4.037 15.067 3.594.964 2.878-10.74 5.408 12.96 3.229.866 4.036-15.066-3.615-.969zm12.409 1.903l-4.094-.215-.816 15.574 4.094.215.816-15.574zm3.677-.135l.287 2.054 4.368-.617 1.883 13.395 4.06-.572-1.882-13.39 4.3-.607-.287-2.051-12.729 1.788zm42.249-6.347c1.983 3.477 1.584 6.003-1.475 7.771l-1.451.837-5.734-9.929 1.568-.906c3.659-2.114 5.725-.234 7.092 2.227zm-7.976-4.118l-5.286 3.051 7.822 13.553 5.248-3.031c5.459-3.15 5.963-7.907 3.824-11.707-2.585-4.522-6.827-4.626-11.608-1.866zm-9.902 19.187l-1.556-4.788 4.621-1.502-.649-1.993-4.618 1.502-1.33-4.09 4.748-1.542-.641-1.969-8.667 2.816 4.819 14.831 9.558-3.104-.648-1.993-5.637 1.832zm-59.334-17.182l-4.618 8.331c-1.393 2.512-2.83 4.102-5.179 2.746-2.332-1.291-1.792-3.221-.365-5.795l4.628-8.352-3.729-2.066-4.888 8.818c-2.697 4.865.704 7.863 3.339 9.322 2.837 1.574 6.958 2.745 9.632-2.079l4.91-8.859-3.73-2.066zm-2.642-91.608v73.022l34.92 22.448 34.92-22.448.043-72.908c-1.105-.991-3.432-3.16-5.264-4.281H62.751c-1.522 1.067-4.544 3.605-5.06 4.167z"/><path d="M58.352 55.067v72.664l34.259 22.021 34.258-22.021.045-72.549h1.322l-.044 72.908v.359l-.305.197-34.92 22.446-.356.229-.357-.229-34.919-22.446-.306-.197V55.067h1.323z"/><path d="M127.133 55.676c-.314-.283-.077-.072-.411-.374h-.003c-1.191-1.077-3.188-2.881-4.752-3.838l.688-1.127c1.691 1.037 3.734 2.882 4.953 3.984h-.002l.41.368-.883.987z"/><path d="M122.31 51.562H62.751V50.24h59.559v1.322z"/><path d="M63.13 51.443c-.713.5-1.72 1.293-2.64 2.05-1.078.888-2.051 1.735-2.313 2.021l-.971-.894c.292-.319 1.32-1.217 2.447-2.145.979-.807 2.024-1.63 2.718-2.117l.759 1.085z"/><path fill="#E22F22" d="M95.079 86.301c-.244-.107-1.112.595-1.51 1.223-.397.628-.513 1.438.05 1.736.562.298 1.27-.088 1.439-1.074.099-.579.286-1.769.021-1.885zm-6.685 1.884c.145.991.877 1.372 1.439 1.074.562-.298.446-1.107.05-1.736-.398-.628-1.216-1.33-1.46-1.223-.265.117-.111 1.322-.029 1.885zm3.506 9.713a15.63 15.63 0 0 0 1.662-3.926h-3.357c0 .001.538 2.051 1.695 3.926zm.578-14.464l2.713-4.718 2.113 4.718h3.506c-2.115 1.984-2.975 4.983-2.975 6.967v2.182c0 .927-.464 2.448-.464 2.448s3.036 2.319 3.506 2.711c.198.165.407.262.265.662-.242.684-2.295 1.596-2.514 1.784-.463.396-.587.657-.452 1.058.134.396.518.465 1.311.198.794-.264 2.448-1.123 3.838-1.718 1.387-.596 3.238-.465 3.238-.465v-2.646h-5.224v-8.464l-.927-1.477 2.316-4.101 2.314 4.124-.926 1.454v4.431h2.679v-4.431l-.926-1.454 2.313-4.102 2.313 4.102-.924 1.454v4.431h2.678v-4.431l-.924-1.454 2.313-4.102 2.315 4.102-.928 1.454.029 8.46-5.252.002v3.888c1.19 1.123 2.316 3.654 2.316 5.176s-.993 2.184-.993 2.184c.331 1.188.265 1.686.132 2.777-.136 1.113-1.521 2.842-1.521 2.842v20.166c0 1.373-3.176 1.242-3.176.064v-19.766c-1.785-1.984-6.679-3.505-6.679-3.505-1.786 1.784-2.91 4.895-2.91 4.895.794.527 1.983 0 2.446-.53.464-.529 1.389-.66 1.919-.331.529.331.663.464.462 1.259-.197.791-.527 2.108-.527 3.031 0 .927 1.058.729 1.852.796 1.586.131 1.851 1.917 1.719 2.909-.133.992-.596 3.108-.596 4.432 0 1.322.066 2.645.199 3.374.131.726.396 1.52.33 2.444-.09 1.257-.859 1.457-1.652.664-.794-.797-11.839-12.567-11.839-12.567-.727 2.38 2.315 6.479 3.308 7.739.991 1.256.925 2.182.065 3.041-.86.859-2.513 1.322-2.844 2.115-.331.795.794 3.176 3.109 6.15 2.314 2.977-2.646 4.962-5.622 5.557-2.976.596-2.976-1.456-2.777-2.58.198-1.125.198-1.785.132-2.777-.066-.99-.992-2.38-2.249-4.035-1.256-1.65-1.256-3.173-.727-7.01.53-3.836.397-6.283.397-6.283s-1.324.066-3.242 0c-1.918-.064-3.505-1.182-3.637-5.813-.132-4.63-.243-15.674-.551-16.82-.309-1.145-1.543-1.366-2.072-1.497-.529-.133-.567-.927-.038-1.192 1.377-.688 3.037-2.379 2.418-3.438-.617-1.059-3.042-.838-4.673-.045-1.631.793-3.351 2.512-3.793 2.998-.441.484-.793.484-.749-.043.044-.531-.308-3.043-.528-3.925-.221-.882-1.015-2.557-1.279-2.998-.265-.441 0-.618.441-.441s1.411.573 2.337.838c.927.265 1.808-.176 2.249-1.059.441-.881 1.278-2.776 1.72-3.615.441-.838 1.147-.662 1.719-.529.573.132 1.103.484 1.631.705.529.221.97.177 1.147-.088.177-.265.397-.353.706-1.015.308-.661.704-.353.748-.088 1.581 9.483 5.688 9.921 5.688 9.921-.617 1.586-2.072 4.102-2.425 4.717-.353.617-.485 1.455-.573 2.115-.088.663.221 6.922.662 9.217.441 2.292 1.852 1.412 2.293.705.441-.705 1.808-3.615 1.808-3.615s.353-.793.353-1.455c0-.661-1.147-2.117-1.412-2.559-.264-.439-1.234-1.32-1.234-3.526 0-2.204 1.983-3.749 2.689-4.321.706-.572.706-1.365.618-1.852-.31-1.705-2.117-5.291-2.998-6.658A563.403 563.403 0 0 0 81.5 83.39h3.571l2.293-4.761 2.514 4.784 2.6.021zm14.086 24.031v-2.714s-.727-1.123-2.513-1.123c-1.784 0-2.843.528-2.843.992.001.727 1.588 2.845 5.356 2.845zM60.427 73.282h64.423v4.393H60.427v-4.393zm0-2.259V53.521h64.423v17.502H60.427z"/><path fill="#FFF200" d="M112.17 71.544v-2.988h-4.68V66.63h3.819v-8.466h-3.506l-1.19-2.314-1.191 2.314h-3.505v8.466h3.819v1.926H96.57V66.63h3.817v-8.466h-3.505l-1.191-2.314-1.189 2.314h-3.506v8.466h3.817v1.926h-9.345V66.63h3.818v-8.466H85.78l-1.19-2.314-1.19 2.314h-3.506v8.466h3.818v1.926l-7.389.021-7.363-1.721 1.485 4.688h41.725z"/><path fill="#FFF200" d="M71.503 66.476l4.937 1.212 2.648-7.433.001-1.874-7.586 8.095zM83.417 8.425c-7.649.68-12.355 2.306-18.572 4.39.463-2.674 1.084-4.259 2.165-5.834-.087 1.383 1.042 2.856 3.289 2.856 2.246 0 3.497-1.296 3.497-2.075 0-.776-.473-1.9-1.682-1.9-1.21 0-1.469.864-1.383 1.21.087.346-.172.432-.518.52-.346.085-1.296-.434-.951-1.643.379-1.33 1.988-2.053 3.887-2.053 0-.002 4.524-.183 10.268 4.529zm37.034 4.443c-6.215-2.086-11.134-3.711-18.781-4.392 3.521-2.453 6.809-4.537 10.422-4.537 1.899 0 3.508.723 3.887 2.052.346 1.21-.605 1.728-.95 1.642-.346-.086-.604-.173-.519-.519.086-.345-.174-1.209-1.383-1.209-1.21 0-1.683 1.123-1.683 1.901s1.251 2.074 3.497 2.074 3.377-1.474 3.289-2.856c1.08 1.576 1.76 3.17 2.221 5.844zM88.129 7.004c-.205.327-.386.572-.605.938 1.263-.066 4.18-.131 5.346-.131 1.167 0 4.388.156 5.095.207-1.141-2.638-3.291-6.281-4.793-6.281-.296 0-.952-.155-2.186 1.267 0 0-.192.626.592.507.994-.151 1.37.874 1.296 1.383-.174 1.188-1.555 2.333-2.939 2.333-1.382-.001-1.806-.223-1.806-.223z"/><path d="M21.514 50.034l5.048-6.857c.291-1.256.529-4.718-1.08-7.164-1.774-2.699-4.101-1.635-4.776-1.334-.431.192-1.221.765-1.704 1.54 0 0-4.842 5.352-10.199 10.617-.745.732-1.585 2.116-1.653 3.376-.063 1.134.383 2.263 1.048 2.975 1.457 1.552 4.008 1.471 5.313.485l.088 4.276c1.345-1.08 6.195-5.732 7.915-7.914z"/><path fill="#FFF200" d="M92.612 40.042c28.748 0 45.119 26.995 48.675 31.737 6.35 8.465 14.107 15.33 23.104 13.05 13.227-3.35 12.52-22.948 12.52-22.948-3.173-2.294-8.616-5.183-18.518-19.224-9.699-13.755-31.657-34.164-65.782-34.164-34.126 0-56.083 20.409-65.783 34.164-9.9 14.042-15.344 16.93-18.517 19.224 0 0-.707 19.597 12.521 22.948 8.997 2.279 16.754-4.585 23.103-13.05 3.558-4.742 19.931-31.737 48.677-31.737z"/><path d="M92.612 39.381c26.73 0 42.839 22.958 48.08 30.428.476.675.862 1.227 1.123 1.574 3.133 4.176 6.604 7.953 10.389 10.395 3.711 2.394 7.729 3.5 12.028 2.411 11.743-2.976 12.047-19.45 12.023-21.966-.253-.178-.53-.37-.821-.571-3.327-2.296-8.676-5.986-17.578-18.615-5.569-7.897-15.211-18.004-28.908-25.117-9.965-5.175-22.078-8.765-36.336-8.765s-26.372 3.59-36.336 8.765c-13.697 7.114-23.338 17.221-28.907 25.117-8.906 12.631-14.253 16.32-17.582 18.616-.292.201-.568.393-.82.57-.022 2.516.281 18.99 12.026 21.966 4.299 1.089 8.318-.017 12.028-2.411 3.784-2.442 7.256-6.219 10.388-10.395.26-.347.647-.898 1.121-1.574 5.243-7.469 21.352-30.428 48.082-30.428zm0 1.323c-26.045 0-41.857 22.533-47.001 29.865-.455.647-.825 1.175-1.147 1.605-3.217 4.289-6.798 8.178-10.729 10.715-4.004 2.584-8.363 3.771-13.062 2.581C6.924 81.987 7.648 61.921 7.65 61.863l.009-.323.268-.193c.361-.261.722-.51 1.112-.779 3.252-2.244 8.478-5.849 17.25-18.291 5.661-8.025 15.46-18.3 29.382-25.53 10.135-5.264 22.452-8.914 36.94-8.914s26.804 3.651 36.939 8.914c13.923 7.23 23.723 17.503 29.383 25.53 8.771 12.439 13.996 16.045 17.249 18.289.39.269.752.519 1.112.781l.269.193.009.323c.002.058.727 20.124-13.021 23.607-4.697 1.19-9.057.003-13.061-2.581-3.931-2.537-7.512-6.425-10.729-10.715-.324-.431-.694-.959-1.148-1.605-5.144-7.332-20.957-29.865-47.001-29.865z"/><path fill="#E22F22" d="M92.612 37.495c27.713 0 44.207 23.508 49.628 31.232.438.627.818 1.167 1.084 1.524 7.333 9.775 14.02 13.737 20.44 12.11 9.288-2.354 10.429-15.133 10.558-18.994l.004-.145-.117-.082c-3.268-2.253-8.736-6.024-17.896-19.015-5.474-7.762-26.241-33.085-63.702-33.085-37.459 0-58.228 25.323-63.701 33.085-9.097 12.899-14.805 16.841-17.872 18.958l-.119.082.004.145c.133 3.877 1.287 16.707 10.534 19.051 6.423 1.627 13.109-2.334 20.44-12.11.268-.357.647-.897 1.086-1.522 5.421-7.726 21.914-31.234 49.629-31.234z"/><path fill="#FFF200" d="M32.986 48.324l-2.893 3.448 5.426 11.212-11.642-3.804-2.492 2.969 11.948 10.025 1.805-2.15-8.435-7.106 11.314 3.675 1.188-1.416-5.39-10.804 8.483 7.116 2.636-3.14-11.948-10.025zm15.105-2.347l-2.706 2.9-2.772-5.357 5.478 2.457zm-6.303-7.079l-2.659 2.851L46.6 56.606l1.823-1.955-2.029-3.933 3.616-3.878 4.081 1.733 3.009-3.226-15.312-6.449zM60.03 24.78l5.845 9.354-13.024-4.867-2.911 1.819 8.266 13.226 3.155-1.971-5.892-9.429 13.167 4.883 2.834-1.773-8.265-13.225-3.175 1.983zm49.361 7.659l1.638-4.76 4.592 1.581.686-1.981-4.594-1.58 1.397-4.068 4.72 1.626.675-1.96-8.616-2.966-5.077 14.746 9.502 3.272.68-1.98-5.603-1.93zm26.677-.986l-1.405 1.525 3.28 2.952-9.05 10.051 3.046 2.743 9.051-10.051 3.23 2.907 1.384-1.539-9.536-8.588zm4.477 23.419l3.856-3.235 3.122 3.72 1.606-1.347-3.121-3.72 3.293-2.765 3.209 3.825 1.586-1.333-5.858-6.981-11.945 10.026 6.457 7.696 1.604-1.345-3.809-4.541zm18.072 3.971c1.086 1.208 1.092 2.645-.152 3.763-1.241 1.119-2.805.878-3.997-.446l-.702-.779 3.939-3.547.912 1.009zm-2.076 7.686c.031.033 2.412 1.214 5.047-1.156 2.201-1.983 1.461-4.704-.836-7.254l-4.25-4.718-11.589 10.436 2.742 3.047 4.605-4.145 1.356 1.506-2.933 6.567 3.482 2.802 2.376-7.085zm-58.66-49.505l-.11 6.37-6.127-.106.112-6.372-4.1-.07-.271 15.593 4.098.073.124-7.131 6.127.108-.125 7.128 4.1.072.271-15.594-4.099-.071zm22.201 23.178c2.908 1.747 6.087 1.467 7.564-.996 1.088-1.72 1.098-3.141-.197-5.685-.349-.737-.775-1.257-1.068-1.909-.566-1.08-1.098-1.952-.596-2.786.537-.891 1.788-.956 2.932-.269 1.203.722 1.696 1.917 1.938 2.747l1.889-.817c-.58-1.536-1.436-2.922-3.373-4.087-3.336-2.003-6.055-1.475-7.184.407-1.142 1.899-.817 3.467.031 5.085 0 0 .545.936.863 1.548.744 1.265 1.615 2.843 1.01 3.851-.744 1.24-2.045 1.516-3.294.739-1.604-1.018-1.979-2.193-2.315-3.345l-2.068.894c.456 1.568 1.524 3.214 3.868 4.623zM77.567 17.841c-5.107 1.087-8.452 4.834-7.349 9.915.628 2.741 3.086 7.81 10.834 6.163 2.144-.41 3.316-1.279 4.447-2.349l-1.427-1.628c-.519.594-1.326 1.456-3.107 1.833-3.742.795-5.978-2.249-6.533-4.869-.824-3.873 1.434-6.563 4.009-7.109 1.806-.384 2.919.093 3.625.38l.021-.004.475-1.988c-1.233-.497-2.706-.829-4.995-.344zm82.679 25.937c-.215-.925-.518-4.875.981-6.959 1.386-1.922 2.648-1.271 3.323-.97.307.135 1.221.727 1.4 1.896.097.627-.1 1.557-.584 2.237-.951 1.233-3.108 2.05-3.108 2.05s2.767 5.42 8.629 10.803l-.02 3.658c-8.027-7.743-10.621-12.715-10.621-12.715z"/><path fill="#FFF200" d="M164.271 42.659c.795 1.368 2.81 4.715 7.854 9.443.838.784 2.924 1.438 4.103.114.451-.508.74-1.235.695-2.079-.054-.97-.65-2.103-1.225-2.596-1.008-.864-5.345-5.244-8.453-8.684-.068.627-.617 1.676-.617 1.676-.415.587-.939 1.433-2.357 2.126zM14.746 56.272l-.02-3.454c5.865-5.383 8.635-10.787 8.635-10.787s-2.158-.817-3.108-2.05c-.486-.681-.684-1.61-.586-2.237.182-1.169 1.095-1.761 1.399-1.896.678-.301 1.94-.952 3.324.97 1.5 2.084 1.107 6.008.894 6.933-.001 0-2.735 4.762-10.538 12.521z"/><path fill="#FFF200" d="M21.246 42.659c-.792 1.368-2.807 4.715-7.853 9.443-.837.784-2.923 1.438-4.101.114-.453-.508-.742-1.235-.696-2.079.053-.97.65-2.103 1.226-2.596 1.006-.864 5.344-5.244 8.452-8.684.069.627.618 1.676.618 1.676.414.587.937 1.433 2.354 2.126z"/><path fill="#E22F22" d="M4.948 101.066c0-7.176 5.818-12.993 12.993-12.993 7.175 0 12.992 5.817 12.992 12.993 0 7.177-5.817 12.992-12.992 12.992-7.175.001-12.993-5.815-12.993-12.992z"/><path fill="#FFF200" d="M24.93 91.657c.224.179.787.641.787.641 1.126 1.007 2.141 2.187 2.728 3.594.744 1.776-1.547 4.442-2.217 5.067-3.03 2.826-4.915 2.781-5.997 2.938-1.083.152-1.765-.517-1.741-1.326.07-2.388 1.759-6.453 2.236-7.202.313-.491.85-.804.85-.804 1.118-.313 2.202-.795 2.765-1.432.562-.635.589-1.476.589-1.476zm-10.872-1.714a12.107 12.107 0 0 1 3.822-.635c2.031 0 3.964.38 5.608 1.421.417.263.542.597.542 1.067 0 1.529-2.41 2.049-4.015 2.049-1.603 0-3.571-.639-4.964-1.072-1.394-.436-1.705-1.25-1.705-1.609 0-.358.268-1.073.712-1.221zm-5.139 18.719c-1.636-1.615-2.804-4.522-2.804-7.588 0-1.19.176-2.334.503-3.417 0 0 .275-.493.544-.073.191.301.45.607.682 1.017.234.409 1.505 1.375 1.387 2.136-.448 2.873-.044 6.707.09 7.333.135.627-.063.928-.402.592zm.312-9.85c-.58-.319-1.27-1.794-1.494-2.233-.161-.316-.151-1.195.068-1.584.956-1.691 2.319-3.232 4.086-4.049.203-.093.515-.102.515.398 0 .279.138.718.143.99.006.267.126.844-.232 1.292-.357.445-1.94 3.219-2.325 4.785-.088.356-.182.722-.761.401zm8.9 14.024c-.083-.004-.167.002-.251.002-2.166 0-4.535-.82-5.939-1.605-1.451-.813-1.995-4.525-1.995-6.426 0-6.129 2.526-9.812 2.929-10.527.402-.715 1.297-.805 1.969-.627.67.18.93.316 1.699.547.417.129 1.252.303 1.878.438.626.136 1.296.269.894 1.433-.403 1.162-1.751 3.977-1.899 7.304-.135 3.007.268 6.005.95 7.84.444 1.192.436 1.644-.235 1.621zm3.086-.479c-.673.219-.983-.26-1.296-.619-1.208-1.379-1.52-5.091-1.52-5.584 0-.492.178-1.029.521-1.037 2.936-.074 5.024-.931 6.938-2.504 1.913-1.574 2.742-3.354 2.917-3.699.174-.348.551-.287.642.217.074.409.226 1.151.226 1.943 0 5.338-3.595 9.719-8.428 11.283z"/><path fill="#E22F22" d="M180.783 101.066c0-7.176-5.816-12.993-12.992-12.993-7.178 0-12.992 5.817-12.992 12.993 0 7.177 5.814 12.992 12.992 12.992 7.176.001 12.992-5.815 12.992-12.992z"/><path fill="#FFF200" d="M161.393 93.133c.561.637 1.645 1.118 2.763 1.432 0 0 .538.313.851.804.475.749 2.166 4.814 2.237 7.202.021.81-.659 1.479-1.743 1.326-1.082-.156-2.967-.111-5.994-2.938-.672-.625-2.963-3.291-2.219-5.067.586-1.407 1.602-2.587 2.729-3.594 0 0 .561-.462.785-.641-.001 0 .026.841.591 1.476zm10.992-1.969c0 .359-.31 1.174-1.704 1.609-1.394.434-3.361 1.072-4.964 1.072-1.605 0-4.016-.52-4.016-2.049 0-.471.127-.805.541-1.067 1.645-1.042 3.58-1.421 5.607-1.421 1.34 0 2.622.236 3.824.635.444.148.712.863.712 1.221zm4.026 16.905c.133-.626.536-4.46.089-7.333-.117-.761 1.152-1.727 1.388-2.136.233-.409.491-.716.683-1.017.268-.42.543.073.543.073.328 1.083.503 2.228.503 3.417 0 3.066-1.167 5.973-2.805 7.588-.339.337-.537.036-.401-.592zm-.671-9.659c-.385-1.566-1.969-4.34-2.326-4.785-.358-.448-.238-1.025-.232-1.292.006-.271.145-.711.145-.99 0-.501.312-.491.513-.398 1.767.818 3.132 2.358 4.087 4.049.22.389.23 1.268.068 1.584-.223.439-.914 1.914-1.494 2.233-.579.322-.673-.044-.761-.401zm-8.375 12.804c.681-1.835 1.084-4.833.949-7.84-.148-3.327-1.496-6.142-1.896-7.304-.404-1.164.267-1.297.892-1.433.625-.136 1.459-.309 1.879-.438.768-.231 1.027-.367 1.698-.547.671-.178 1.565-.088 1.97.627.402.715 2.928 4.398 2.928 10.527 0 1.9-.544 5.613-1.996 6.426-1.404.785-3.771 1.605-5.939 1.605-.084 0-.166-.006-.25-.002-.671.024-.68-.428-.235-1.621zm-11.279-10.14c0-.792.152-1.534.228-1.943.09-.504.466-.564.642-.217.174.346 1.003 2.125 2.917 3.699 1.914 1.573 4.001 2.43 6.937 2.504.342.008.521.545.521 1.037 0 .493-.312 4.205-1.52 5.584-.312.359-.621.838-1.297.619-4.832-1.564-8.428-5.945-8.428-11.283z"/><path fill="#FFE600" d="M154.854 100.998c0-3.607 1.462-6.87 3.826-9.234a13.015 13.015 0 0 1 9.233-3.825c3.605 0 6.87 1.461 9.233 3.824a13.02 13.02 0 0 1 3.825 9.234c0 3.605-1.463 6.871-3.825 9.234a13.015 13.015 0 0 1-9.233 3.823c-3.607 0-6.871-1.46-9.234-3.823a13.015 13.015 0 0 1-3.825-9.233zm.133 0c0 3.568 1.446 6.801 3.785 9.14 2.34 2.339 5.571 3.787 9.142 3.787s6.802-1.446 9.141-3.787a12.89 12.89 0 0 0 3.785-9.14c0-3.57-1.447-6.803-3.785-9.141a12.894 12.894 0 0 0-9.141-3.785c-3.57 0-6.801 1.447-9.141 3.787a12.88 12.88 0 0 0-3.786 9.139z"/></svg>