<?xml version="1.0" encoding="utf-8"?>
<!-- Generator: Adobe Illustrator 17.0.0, SVG Export Plug-In . SVG Version: 6.00 Build 0)  -->
<!DOCTYPE svg PUBLIC "-//W3C//DTD SVG 1.1//EN" "http://www.w3.org/Graphics/SVG/1.1/DTD/svg11.dtd">
<svg version="1.1" id="svg2817" xmlns:svg="http://www.w3.org/2000/svg"
	 xmlns="http://www.w3.org/2000/svg" xmlns:xlink="http://www.w3.org/1999/xlink" x="0px" y="0px" width="500.9px"
	 height="709.019px" viewBox="24.181 24.181 500.9 709.019" enable-background="new 24.181 24.181 500.9 709.019"
	 xml:space="preserve">
<g id="layer1" transform="translate(-342.21922,-486.55002)">
	<path id="path2724" fill="#94BEE5" d="M630.612,1205.161c7.947-6.167,13.673-9.255,26.938-14.103
		c70.859-25.954,208.628-41.428,208.628-136.44V511.853H367.522v542.765c0,93.295,134.231,111.774,206.837,135.738
		c0,0,16.165,6.543,22.887,11.109c9.538,6.491,19.076,16.678,19.076,16.678S625.252,1209.339,630.612,1205.161"/>
	<path id="path2726" fill="none" stroke="#7A003C" stroke-width="2.2437" stroke-miterlimit="6" d="M630.612,1205.161
		c7.947-6.167,13.673-9.255,26.938-14.103c70.859-25.954,208.628-41.428,208.628-136.44V511.853H367.522v542.765
		c0,93.295,134.231,111.774,206.837,135.738c0,0,16.165,6.543,22.887,11.109c9.538,6.491,19.076,16.678,19.076,16.678
		S625.252,1209.339,630.612,1205.161z"/>
	<path id="path2728" fill="#FFFFFF" d="M480.688,683.136l8.062,16.573l18.008,2.66l-13.045,12.888l3.089,18.249l-16.113-8.606
		l-16.113,8.606l3.078-18.249l-13.024-12.888l17.997-2.66L480.688,683.136"/>
	<path id="path2730" fill="#7A003C" d="M464.648,545.534c-0.387,0-1.214,0.544-2.094,1.309l-7.067,5.235
		c-1.508,1.12-2.701,3.151-3.664,6.282c-0.932,3.078-1.654,6.01-2.356,8.637l-18.322,54.18c-2.481,7.203-4.774,12.407-6.805,15.443
		c-2,3.036-4.952,4.45-8.899,4.45c-1.413,0-2.356,0.838-2.356,2.094v2.356c0,0.848,0.565,1.309,1.57,1.309
		c0.618,0,2.869-0.293,6.544-0.523c3.685-0.241,6.376-0.262,8.114-0.262c1.728,0,4.167,0.021,7.59,0.262
		c3.455,0.23,5.779,0.523,6.805,0.523c1.738,0,2.617-0.513,2.617-1.309v-2.617c0-1.12-0.638-1.832-1.832-1.832
		c-6.523,0-9.684-1.78-9.684-5.497c0-1.529,0.503-3.758,1.57-6.805l6.543-19.631h28.53l6.805,15.966
		c1.55,3.811,2.492,6.428,2.879,7.59c0.44,1.12,0.785,2.073,0.785,3.141c0,3.486-2.806,5.235-8.376,5.235
		c-1.487,0-2.356,0.796-2.356,2.094v2.356c0,0.722,0.544,1.309,1.309,1.309c1.068,0,4.178-0.293,9.684-0.523
		c5.507-0.241,9.297-0.262,11.255-0.262c2.356,0,5.476,0.021,9.423,0.262c3.999,0.23,6.826,0.523,8.376,0.523
		c0.984,0,1.57-0.618,1.57-1.832v-2.356c0-0.754-0.638-1.361-1.832-1.57c-3.497-0.503-5.957-1.225-7.329-2.617
		c-1.371-1.424-3.026-4.439-4.711-8.637l-32.979-82.186C465.339,546.33,464.889,545.534,464.648,545.534z M780.569,547.628
		c-15.453,0-28.687,4.628-39.261,14.134c-10.564,9.517-15.704,21.117-15.704,34.55c0,16.94,5.371,29.88,15.966,38.999
		c10.595,9.098,23.546,13.61,39.261,13.61c12.145,0,22.887-2.293,32.194-7.067l4.188-17.275c0.304-1.12,0.523-1.843,0.523-2.094
		c0-0.544-0.68-1.089-2.094-1.57c-1.434-0.544-2.544-0.785-3.141-0.785c-0.461,0-0.984,1.005-1.832,2.879
		c-2.973,6.722-6.449,11.569-10.208,14.657c-3.737,3.047-9.391,4.45-17.275,4.45c-10.804,0-19.808-4.292-26.959-12.825
		c-7.161-8.585-10.731-19.107-10.731-31.671c0-12.469,3.319-22.74,9.946-30.885c6.627-8.177,15.223-12.302,25.912-12.302
		c7.224,0,13.014,1.989,17.537,6.02c4.523,3.979,7.748,8.585,9.423,13.872c0.22,0.806,0.398,1.518,0.523,1.832
		c0.178,0.314,0.325,0.262,0.785,0.262c0.691,0,1.853,0.01,3.141-0.262c1.34-0.262,2.094-0.691,2.094-1.047
		c0-0.586-0.366-3.57-1.047-8.899c-0.68-5.381-1.33-8.177-1.57-8.899c-0.68-1.602-4.229-3.622-10.993-6.02
		C794.483,548.884,787.583,547.628,780.569,547.628z M512.023,549.983c-1.057,0-1.57,0.534-1.57,1.57v2.356
		c0,0.995,0.628,1.57,2.094,1.57c3.727,0,6.638,0.586,8.637,2.094c2,1.529,3.989,4.659,5.758,8.899l32.456,80.354
		c0.356,0.942,0.639,1.529,1.047,1.832c0.429,0.272,1.246,0.262,2.356,0.262h2.356c0.796,0,1.393-0.042,1.832-0.262
		c0.44-0.272,0.733-0.764,1.047-1.57l32.194-79.831c1.853-4.784,3.298-8.156,4.45-9.684c1.131-1.508,3.434-2.094,6.543-2.094
		c1.152,0,1.57-0.659,1.57-1.832v-2.094c0-1.131-0.555-1.57-1.57-1.57c-0.953,0-2.67,0.021-5.497,0.262
		c-2.806,0.23-4.91,0.262-6.282,0.262c-1.832,0-5.067-0.031-9.423-0.262c-4.313-0.241-6.742-0.262-7.59-0.262
		c-1.068,0-1.57,0.534-1.57,1.57v2.094c0,1.225,0.565,1.832,2.094,1.832c3.822,0,6.47,0.168,7.852,0.785
		c1.414,0.586,2.094,1.916,2.094,3.926c0,2.146-0.324,4.607-1.309,7.067l-21.724,56.798l-23.818-58.368
		c-1.193-3.089-1.57-5.287-1.57-6.544c0-1.246,0.681-2.293,2.094-2.879c1.424-0.618,3.905-0.785,7.329-0.785
		c1.288,0,1.832-0.503,1.832-1.57v-2.356c0-1.131-0.638-1.57-2.094-1.57c-1.099,0-4.732,0.021-10.731,0.262
		c-5.978,0.23-10.26,0.262-12.564,0.262c-2.659,0-6.114-0.031-10.47-0.262C515.573,550.004,512.997,549.983,512.023,549.983z
		 M635.565,549.983c-1.612,0-2.617,0.367-2.617,1.309v2.617c0,0.995,1.11,1.57,2.879,1.57c4.031,0,6.523,0.869,7.852,2.879
		c1.372,2.01,2.094,5.727,2.094,10.993v59.938c0,3.926-0.879,6.942-2.617,8.899c-1.685,1.958-4.303,2.879-7.852,2.879
		c-1.549,0-2.356,0.639-2.356,1.57v2.617c0,0.995,0.754,1.57,2.356,1.57c0.89,0,4.408-0.293,10.208-0.523
		c5.853-0.241,9.527-0.262,11.255-0.262c1.948,0,5.172,0.021,9.684,0.262c4.575,0.23,7.36,0.523,8.114,0.523
		c1.476,0,2.094-0.513,2.094-1.309v-3.141c0-0.722-0.618-1.309-2.094-1.309c-3.654,0-6.439-0.879-8.114-2.617
		c-1.696-1.738-2.617-4.795-2.617-9.161V597.62h18.845c3.999,0,6.983,0.932,8.899,2.617c1.958,1.654,3.528,4.586,4.45,8.637
		c0.21,1.162,0.775,1.57,1.57,1.57h2.879c0.67,0,0.785-0.461,0.785-1.832c0-0.9-0.042-3.036-0.262-6.02
		c-0.199-2.984-0.262-4.994-0.262-6.282c0-1.832,0.063-4.554,0.262-7.852c0.22-3.298,0.262-5.172,0.262-6.02
		c0-1.026-0.419-1.57-1.309-1.57h-2.617c-0.67,0-1.131,0.335-1.309,1.309c-0.754,3.832-1.979,6.429-3.403,7.59
		c-1.434,1.162-4.208,1.832-8.376,1.832h-20.416v-26.959c0-3.382,1.058-5.643,2.879-6.805c1.874-1.162,5.329-1.57,10.47-1.57h4.188
		c7.277,0,12.176,0.681,14.657,2.094c2.481,1.435,4.387,3.884,5.758,7.591l1.57,3.926c0.45,1.382,0.942,2.094,1.832,2.094h2.094
		c0.932,0,1.309-0.408,1.309-1.57v-19.107c0-0.984-0.324-1.309-1.309-1.309c-1.319,0-8.606,0.021-21.463,0.262
		c-12.815,0.23-20.792,0.262-24.08,0.262c-3.989,0-9.109-0.031-15.443-0.262C639.962,550.004,636.444,549.983,635.565,549.983z
		 M455.487,571.184l12.825,31.147h-22.771L455.487,571.184z M520.922,1105.396c-4.808-0.279-9.423,0.523-9.423,0.523v35.073h4.973
		v-18.322c0,0,14.134-3.267,14.134-11.517C530.607,1107.035,525.731,1105.675,520.922,1105.396z M546.573,1105.396
		c-4.808-0.279-9.684,0.523-9.684,0.523v35.073h5.235v-18.322c0,0,2.59-0.806,5.497-2.094c0.388,0.618,2.042,3.439,4.45,9.161
		c2.701,6.408,3.403,11.255,3.403,11.255h4.973c0,0-1.162-6.366-3.403-12.04c-1.905-4.838-4.685-8.948-5.497-10.208
		c2.618-1.799,4.711-4.375,4.711-7.59C556.257,1107.035,551.381,1105.675,546.573,1105.396z M601.538,1105.396
		c-4.805-0.279-9.684,0.523-9.684,0.523v35.073h5.235v-18.322c0,0,14.134-3.267,14.134-11.517
		C611.223,1107.035,606.344,1105.675,601.538,1105.396z M653.886,1105.396c-4.811-0.279-9.684,0.523-9.684,0.523v35.073h4.973
		v-18.322c0,0,2.624-0.83,5.497-2.094c0.372,0.588,2.287,3.401,4.711,9.161c2.712,6.408,3.141,11.255,3.141,11.255h4.973
		c0,0-1.162-6.366-3.403-12.04c-1.957-4.996-4.539-9.402-5.235-10.47c2.481-1.779,4.45-4.235,4.45-7.329
		C663.309,1107.035,658.697,1105.675,653.886,1105.396z M701,1105.396c-2.076,0.134-3.664,0.523-3.664,0.523v35.073h5.235
		c0,0,17.013,0.293,17.013-21.463C719.583,1106.079,707.227,1104.994,701,1105.396z M568.036,1105.92v3.926v7.067v3.926v15.966
		v4.188h15.443v-4.188h-10.47v-15.966h7.067v-3.926h-7.067v-7.067h10.47v-3.926H568.036z M621.169,1105.92l-10.993,35.073h5.497
		l5.758-20.154h6.805l5.758,20.154h5.235l-10.731-35.073h-2.879H621.169z M673.517,1105.92v3.926v7.067v3.926v20.154h15.443v-4.188
		h-10.208v-15.966h6.805v-3.926h-6.805v-7.067h10.208v-3.926H673.517z M624.833,1108.799l2.356,8.114h-4.711L624.833,1108.799z
		 M520.922,1109.322c2.209,0.051,4.45,0.581,4.45,1.832c0,4.669-8.899,6.543-8.899,6.543v-8.114
		C516.473,1109.584,518.713,1109.271,520.922,1109.322z M546.573,1109.322c2.209,0.051,4.188,0.581,4.188,1.832
		c0,4.669-8.637,6.543-8.637,6.543v-8.114C542.123,1109.584,544.364,1109.271,546.573,1109.322z M601.538,1109.322
		c2.212,0.051,4.45,0.581,4.45,1.832c0,4.669-8.899,6.543-8.899,6.543v-8.114C597.089,1109.584,599.327,1109.271,601.538,1109.322z
		 M653.625,1109.322c2.212,0.051,4.45,0.581,4.45,1.832c0,4.669-8.899,6.543-8.899,6.543v-8.114
		C649.175,1109.584,651.413,1109.271,653.625,1109.322z M703.879,1109.846c3.522-0.211,10.47,0.5,10.47,9.946
		c0,15.724-8.841,17.58-11.778,17.798v-27.483C702.901,1110.049,703.138,1109.89,703.879,1109.846z"/>
	<path id="path2776" fill="#FFE600" d="M631.293,697.689c-2.89,4.502-10.438,7.287-10.438,7.287s-1.728-0.063-0.408-3.204
		c1.204-2.837,1.654-4.219,1.654-4.219l-6.052,2.199c0,0,2.104-1.926,2.953-5.025c0.848-3.099,0.649-5.12,0.649-5.12
		s-0.796,2.649-3.8,3.884c-2.366,0.984-7.193,1.539-7.193,1.539s5.832-12.03,14.846-11.15
		C632.497,684.759,634.193,693.197,631.293,697.689z M590.577,710.912c-1.141,2.649-3.748,5.308-6.711,6.073
		c-2.523,0.638-4.722,0.565-6.491-0.053c-4.502-1.581-5.403-4.753-5.403-4.753l4.837-2.303c0.848,2.439,2.471,3.811,4.533,3.884
		c2.01,0.073,3.486-0.901,4.083-2.596c0.346-1.016,0.146-2.513,0.146-2.513s-0.576,1.35-1.822,1.413
		c-0.858,0.042-2.303-0.638-1.79-2.732l10.773-5.162C592.733,702.17,592.398,706.661,590.577,710.912z M806.491,747.231
		c0,0-9.977,13.705-20.688,15.945c-7.538,1.56-12.689,0.838-12.689,0.838s2.816-0.241,4.942-1.853
		c2.471-1.895,3.884-5.162,3.884-5.162s-4.46,2.325-11.956,0.304c-3.382-0.911-10.826-1.612-16.699,0.555
		c-4.46,1.633-9.842,6.187-9.842,6.187s1.738-1.79,2.617-3.884c1.089-2.68,0.544-5.664,0.544-5.664s-0.597,2.9-4.292,4.492
		c-2.209,0.943-6.962,3.026-9.088,6.198c-2.816,4.188-2.523,9.339-3.57,10.522c-0.869,1.005-28.142,13.328-29.954,38.361
		c-1.832,25.032,16.825,44.297,22.939,51.416c6.114,7.119,31.995,37.314,36.225,44.066c3.371,5.361,6.209,11.129,2.952,18.06
		c-1.906,4.115-8.449,8.91-18.039,4.45c-9.758-4.565-16.416-10.982-26.708-15.537c-8.229-3.654-17.767-6.303-19.945-7.716
		c-1.612-1.057-15.851-10.229-17.222-26.833c-1.057-12.919,4.104-33.094,4.868-47.082c1.089-19.327-4.47-27.64-4.565-28.362
		c-0.167-1.288,4.921,0.304,7.015,4.094c2.953,5.298,2.638,7.413,2.638,7.413s6.575-12.323,3.821-27.933
		c-3.151-17.746-14.103-19.871-14.207-21.17c-0.073-1.005,3.266-1.706,6.742-0.618c9.611,3.026,11.297,12.271,11.297,12.271
		s4.146-13.004-1.56-26.185c-5.245-12.071-12.961-13.202-13.202-14.605c-0.115-0.691,2.429-1.895,7.58-0.597
		c8.02,2.01,9.779,8.826,9.779,8.826s1.874-11.328-1.508-20.908c-6.104-17.243-18.531-18.96-18.594-20.342
		c-0.031-0.764,3.539-1.79,7.119-0.796c6.031,1.654,6.764,3.445,6.764,3.445s-0.283-4.157-3.581-10.501
		c-3.602-6.91-12.427-16.06-16.029-18.238c-20.164-12.145-31.22-9.663-34.811-9.936c-0.963-0.073-3.057-1.843-2.136-4.785
		c1.392-4.471,4.502-6.062,4.502-6.062s-8.543-0.283-16.186,2.586c-9.014,3.361-13.59,8.365-14.657,8.355
		c-0.942-0.031-2.031-1.602-2-3.769c0.052-3.267,1.152-4.303,1.152-4.303s-10.574,3.539-15.683,7.266
		c-3.56,2.607-9.014,6.774-11.768,13.307c-2.157,5.141-3.319,11.715-3.319,11.715s-2.419-1.79-5.779,0.628
		c-3.507,2.534-7.318,7.391-9.255,10.312c-1.811,2.753-4.554,5.706-6.387,6.418c-2.083,0.806-13.998,4.973-16.354,6.418
		c-2.063,1.267-3.015,5.685-2.617,7.454c0.178,0.817,0.995,2.775,2.858,4.858c1.016,1.131,1.664,0.168,2.261-1.141
		c0.335-0.733,0.827-1.1,1.235-0.89c2.492,1.277,0.314,7.046,0.942,8.637c0.796,1.979,2.649,3.748,4.68,5.088
		c2.743,1.79,8.156,3.549,8.156,3.549s-0.785-2.471,0.157-3.968c0.775-1.246,3.088-2.952,5.35-3.267
		c4.303-0.576,10.878-0.209,14.322,2.743c4.764,4.094,4.125,9.465,4.125,9.465s-8.491,3.277-12.574,3.926
		c-4.104,0.649-7.245,0.555-10.229-0.523c-2.984-1.079-5.633-4.188-5.633-4.188s-0.932,4.784-1.309,5.371
		c-0.293,0.44-2.502,1.487-2.303,2.869c0.356,2.722,4.157,2.931,4.575,3.675c0.534,0.932-2.356,3.706-0.367,7.852
		c1.068,2.262,3.424,4.167,5.57,5.361c2.398,1.33,4.554,1.842,4.554,1.842s-0.785-3.329,1.057-5.748
		c1.026-1.361,3.068-1.79,3.35-1.644c0.576,0.282,0.649,1.518,2.984,2.816c2.544,1.424,5.696,0.921,5.696,0.921
		s-2.419-3.026-0.283-5.622c1.455-1.769,4.638-2.46,5.203-2.324c0.722,0.167,3.392,3.382,9.978,5.35
		c3.047,0.911,7.8,1.267,10.103-0.011c5.486-3.025,5.622-5.423,11.234-6.491c0,0-2.994,1.424-5.884,8.627
		c-2.555,6.397-9.59,8.763-14.04,10.156c-5.413,1.696-11.37,2.889-16.762,5.413c-3.612,1.696-8.208,4.596-12.281,8.292
		c-4.073,3.685-7.863,9.59-9.946,10.815c-2.104,1.225-20.332,3.466-37.397-2.272c-17.066-5.727-23.525-14.417-30.697-23.735
		c-7.496-9.726-14.427-16.751-19.222-18.5c-4.439-1.602-7.339-2.429-11.307-1.57c-3.026,0.649-5.371,2.492-6.177,5.318
		c-1.277,4.492-0.377,6.743,0.691,8.125c1.267,1.633,5.109,2.942,5.109,2.942s-4.596-0.817-7.214,1.717
		c-2.523,2.429-3.225,10.355,0.408,13.359c2.994,2.481,5.905,2.513,5.905,2.513s-1.947,0.094-2.649,1.424
		c-1.246,2.272-2.24,6.01-0.534,8.543c4.282,6.345,8.616,3.874,13.286,4.847c6.512,1.351,8.983,1.769,13.736,4.104
		c7.339,3.622,14.438,10.354,21.431,17.285c8.323,8.25,15.411,12.553,17.683,14.365c18.971,15.202,38.308,13.443,38.308,13.443
		s-1.529-0.68-3.999-2.063c-1.832-1.015-3.266-2.251-2.628-2.356c1.298-0.178,5.664,1.236,11.789,0.932
		c5.957-0.314,8.669-1.78,9.35-1.644c0.974,0.167-0.649,10.124-7.14,16.008c-6.366,5.758-10.417,6.951-17.547,7.465
		c-5.915,0.44-26.928,2.931-31.534,2.22c-4.628-0.712-12.187-4.167-15.223-4.69c-3.078-0.503-5.423-1.131-8.732,1.769
		c-3.287,2.889-6.355,10.25-4.732,13.914c1.633,3.633,6.921,4.009,6.921,4.009s-7.203-0.041-9.831,3.78
		c-2.188,3.193-3.486,7.329-0.649,13.736c1.633,3.675,5.852,6.764,8.805,6.366c2.754-0.377,6.334-3.277,6.334-3.277
		s-4.01,4.931-2.241,7.685c1.759,2.754,7.214,5.266,11.684,5.036c4.45-0.23,8.941-6.836,11.789-11.035
		c3.141-4.648,7.601-6.229,12.543-8.271c5.559-2.335,40.109-6.606,45.417-5.685c5.465,0.942,5.392,1.193,8.46,1.916
		c0,0-0.325-1.706-1.56-3.779c-1.57-2.628-3.151-3.957-2.785-4.45c0.492-0.659,7.936-0.712,13.893,0.638
		c6.983,1.602,12.637,6.073,12.637,6.073s-4.994-1.539-10.145-1.1c-3.424,0.283-6.282,1.194-6.282,1.194
		c0.513,0.827,0.597,1.309,0.995,2.366c0.859,2.377,1.633,5.622,1.152,5.622c-0.702-0.01-3.466-0.9-6.889-1.56
		c-4.156-0.827-5.664-1.487-9.255-1.225c-2.23,0.188-26.279,6.24-33.712,20.164c-7.036,13.171-3.35,20.782-1.172,24.834
		c2.198,4.051,8.91,9.862,11.098,11.59c3.413,2.722,15.359,8.135,15.307,9.276c-0.052,1.11-7.905,3.937-16.699,4.879
		c-8.857,0.953-21.693-2.23-25.671-6.721c-2.586-2.9-7.936-12.072-11.161-15.662c-3.204-3.581-11.443-7.392-16.657-5.256
		c-3.528,1.403-5.256,4.324-6.659,7.193c-1.403,2.868-0.115,5.392,0.869,6.323c0.681,0.618,2.754,1.906,2.754,1.906
		s-2.241-0.618-4.743,1.476c-2.136,1.811-3.466,3.884-3.916,8.857c-0.398,4.355,0.984,7.025,2.973,8.721
		c2.031,1.717,4.68,1.267,4.68,1.267s-4.062,1.319-4.23,4.271c-0.136,3.005,1.748,7.842,5.549,9.674
		c3.811,1.832,17.317-0.429,23.368-1.068c4.481-0.471,12.574,0.586,16.94,3.413c2.879,1.885,4.931,5.099,7.538,7.099
		c1.916,1.466,5.434,1.874,7.737,0.188c2-1.434,2.062-3.078,3.319-4.146c1.194-1.005,1.979-1.623,10.951-2.282
		c7.475-0.576,10.511,2.408,11.642,4.198c0.45,0.743,0.712-0.052,0.984,2.314c0.419,3.424-0.68,4.659-0.68,4.659
		s4.156-0.199,7.318-2.157c1.801-1.11,4.135-2.91,4.565-3.319c0.503-0.503,1.811-1.089,2.209,0.565
		c0.482,2.062-0.283,2.701-0.283,2.701s4.073-0.544,7.057-2.45c3.445-2.198,4.418-3.445,5.517-3.581
		c0.691-0.084,1.11,0.691,0.513,3.089c0,0,13.265-2.586,11.883-17.16c-1.853-19.233-3.905-26.886-2.01-34.623
		c1.864-7.737,8.784-15.223,8.784-15.223l2.942,4.418c0,0-5.172,7.141-5.79,16.427c-0.388,5.612,1.372,16.846,3.141,22.039
		c2.146,6.24,5.518,11.454,7.151,13.464c3.413,4.22,5.989,4.512,5.989,4.512s-0.01-1.11,0.565-2.91
		c0.44-1.382,1.581-1.497,1.791-1.434c0.597,0.167,0.995,2.23,3.319,4.219c2.565,2.22,9.391,3.183,9.391,3.183
		s-0.523-0.963-0.377-2.617c0.136-1.539,1.047-2.628,1.487-2.502c0.67,0.21,0.042,1.278,4.146,3.309
		c3.863,1.947,7.999,0.984,7.999,0.984s-0.817-1.078-0.817-2.23c0-1.361,0.775-2.513,1.246-2.596
		c0.586-0.126-0.23,0.544,4.732,1.549c4.648,0.963,7.58-2,7.58-2s-2-1.968-3.109-4.051c-0.67-1.246-0.346-2.617,0.282-3.319
		c0.691-0.753,6.847-0.9,9.758,3.235c2.576,3.622,4.586,20.175,3.738,29.44c-0.607,6.753-7.025,18.961-16.228,24.614
		c-7.988,4.879-10.773,2.837-13.558,0.754c-3.288-2.429-9.004-7.276-12.721-7.832c-3.716-0.555-7.454-0.555-10.375,0.084
		c-2.439,0.555-1.256,0.084-5.706,1.309c-3.015,0.827-7.967,2.419-9.988,6.251c-1.801,3.434-1.57,9.496,1.34,11.642
		c2.743,2.062,5.298,2.555,6.627,1.309c0,0-1.476,1.246-2.638,3.266c-1.675,2.942-1.665,5.497,1.12,9.789
		c2.387,3.675,6.313,5.172,8.208,5.287c3.036,0.209,4.785-0.649,4.785-0.649s0.691-0.21,2.261-2.167c0,0-3.507,5.183-1.445,8.826
		c0.963,1.696,4.229,3.56,7.789,3.591c4.952,0.031,9.59-0.827,11.799-2.063c3.549-1.968,6.627-4.314,9.234-6.554
		c4.722-4.063,8.889-9.004,15.223-13.035c3.413-2.188,17.055-9.444,23.494-10.742c3.685-0.743,5.392-1.068,7.632-3.152
		c2.157-1.989,4.23-7.287,2.052-12.019c-2.177-4.732-0.387-11.297,1.372-20.301c1.759-8.982,4.031-14.908,6.889-16.96
		c2.837-2.052,6.104-1.801,11.789-5.507c6.104-3.947,5.381-10.585,5.381-10.585s-1.675,0.785-6.324-1.591
		c-3.853-1.979-3.403-4.376-3.277-5.308c0.167-1.11,1.235-0.974,4.638-3.968c3.916-3.476,2.785-12.03,2.785-12.03
		s-1.33,1.822-5.371,1.759c-2.9-0.052-5.654-0.283-6.219-2.774c-0.576-2.617,1.633-3.078,2.136-6.606
		c0.649-4.439-1.707-7.308-1.707-7.308s-1.706,3.005-9.046,3.476c-4.554,0.304-6.941-0.356-8.857-1.204
		c-2.785-1.246-6.01-4.617-6.68-8.219c-1.298-6.962,1.162-10.26,1.937-11.108c2.732-3.005,9.067-1.654,17.076,3.863
		c9.014,6.261,26.582,15.066,40.831,9.213c13.223-5.444,25.284-29.189,11.412-49.332c-12.344-17.893-47.668-55.908-51.594-62.169
		c-3.466-5.518-9.15-14.94-7.936-24.122c1.047-7.831,4.649-12.992,8.24-16.029c3.507-2.963,7.884-5.057,9.171-5.214
		c1.204-0.168,10.878,5.622,19.201,6.596c7.852,0.932,15.045-2.617,20.573-5.716c4.471-2.502,8.522-1.968,8.522-1.968
		c-2.01-1.236-1.361-1.319-3.57-2.178c-1.298-0.523-4.303-0.429-4.303-0.429s12.333-3.696,18.814-10.972
		C804.701,767.165,806.491,747.231,806.491,747.231"/>
</g>
</svg>
