<svg xmlns="http://www.w3.org/2000/svg" xmlns:xlink="http://www.w3.org/1999/xlink" width="542" height="542" viewBox="0 0 542 542"><defs><path id="a" d="M40 2h461.024v540.336H40z"/></defs><clipPath id="b"><use xlink:href="#a" overflow="visible"/></clipPath><g clip-path="url(#b)"><defs><path id="c" d="M40.075 2h460.949v540.262H40.075z"/></defs><defs><path id="e" d="M40.075 2h460.949v540.262H40.075z"/></defs><clipPath id="d"><use xlink:href="#c" overflow="visible"/></clipPath><clipPath id="f" clip-path="url(#d)"><use xlink:href="#e" overflow="visible"/></clipPath><path clip-path="url(#f)" fill="#FFF" d="M493.078 371.227l-.161-.162-22.271-19.49-4.746-4.331c-4.502-4.5-11.421-10.003-23.33-9.616-1.963-.032-3.919.168-5.854.525 2.046-9.453 3.57-19.439 4.497-29.971.645-7.295.986-14.526 1.021-21.492.002-.143.012-2.775.012-2.775l-.151-5.701.018.476V2H98.644v276.688l.018-.483-.15 5.708.011 2.776c.032 6.975.376 14.203 1.02 21.492.925 10.51 2.445 20.479 4.483 29.923-1.845-.329-3.704-.508-5.579-.478-11.905-.387-18.82 5.116-23.321 9.616l-4.746 4.331-22.272 19.49-.162.162c-7.69 7.67-8.453 15.144-7.733 20.065 2.039 13.993 19.825 24.34 21.616 25.308l10.433-8.184c7.365-2.866 11.626 1.163 11.626 1.163.725.427 3.213 2.453 4.757 10.624l.894 4.725c-5.791 5.012-9.905 8.567-9.905 8.567l3.515 5.129c10.253 14.953 14.209 19.566 20.88 27.077 44.527 50.136 101.873 76.636 165.831 76.636h1.028c63.966 0 121.311-26.5 165.834-76.638 6.67-7.495 10.628-12.108 20.884-27.075l3.515-5.129s-4.003-3.464-9.674-8.367l.933-4.925c1.545-8.171 4.03-10.197 4.753-10.624 0 0 4.266-4.029 11.629-1.163l10.437 8.184c1.79-.968 19.575-11.314 21.614-25.308.719-4.92-.047-12.394-7.735-20.063"/><path clip-path="url(#f)" fill="#234895" d="M466.298 355.418s11.284 24.139-22.91 26.674l35.233 27.603s28.251-16.508 10.475-34.238l-22.798-20.039"/><defs><path id="g" d="M40 2h461.024v540.336H40z"/></defs><clipPath id="h"><use xlink:href="#g" overflow="visible"/></clipPath><path clip-path="url(#h)" fill="#E13A3F" d="M459.232 371.097c6.243-6.566.257-17.63.257-17.63s-5.42-10.163-16.343-9.666c-2.674-.058-5.379.422-8.064 1.303-2.253 8.893-4.992 17.273-8.264 25.039l.02.006c-.459 1.146-4.3 10.509-11.985 23.301.916.796 2.337 2.023 4.109 3.562l26.477 22.863c3.274-22.437 15.857-16.955 15.857-16.955l-29.706-23.658c22.611-.865 27.642-8.165 27.642-8.165"/><defs><path id="i" d="M40 2h461.024v540.336H40z"/></defs><clipPath id="j"><use xlink:href="#i" overflow="visible"/></clipPath><g clip-path="url(#j)"><defs><path id="k" d="M40.075 2h460.949v540.262H40.075z"/></defs><clipPath id="l"><use xlink:href="#k" overflow="visible"/></clipPath><path clip-path="url(#l)" fill="#234895" d="M74.457 355.69s-11.289 24.138 22.905 26.675l-35.233 27.603s-28.246-16.508-10.47-34.241l22.798-20.037"/><defs><path id="m" d="M40 2h461.024v540.336H40z"/></defs><clipPath id="n"><use xlink:href="#m" overflow="visible"/></clipPath><path clip-path="url(#n)" fill="#E13A3F" d="M81.518 371.367c-6.248-6.565-.251-17.629-.251-17.629s5.419-10.16 16.337-9.666c2.676-.06 5.38.422 8.067 1.303 2.253 8.889 4.992 17.275 8.265 25.038l-.021.01c.455 1.143 4.296 10.509 11.987 23.3-.917.8-2.338 2.021-4.114 3.561l-26.474 22.865c-3.274-22.439-15.857-16.957-15.857-16.957l29.706-23.661c-22.609-.861-27.645-8.164-27.645-8.164"/><defs><path id="o" d="M40 2h461.024v540.336H40z"/></defs><clipPath id="p"><use xlink:href="#o" overflow="visible"/></clipPath><path clip-path="url(#p)" fill="#234895" d="M405.813 394.832c9.674-15.128 14.273-26.544 14.562-27.27l-.141.338c7.309-17.188 12.035-37.486 14.047-60.333.623-7.052.953-14.089.991-20.909.008-.97.013-1.884.013-2.744 0-1.986-.037-3.702-.135-5.226V8.96H105.605v269.728c-.105 1.523-.134 3.239-.134 5.226 0 .859.005 1.776.012 2.744.029 6.818.37 13.857.991 20.909 2.002 22.729 6.694 42.937 13.935 60.068.576 1.443 5.149 12.63 14.451 27.27l-45.969 39.78c10.219 14.912 14.035 19.297 20.343 26.393 43.17 48.611 98.719 74.3 160.626 74.3h1.028c61.921 0 117.463-25.688 160.629-74.3 6.313-7.096 10.132-11.48 20.35-26.393l-46.054-39.853"/><defs><path id="q" d="M40 2h461.024v540.336H40z"/></defs><clipPath id="r"><use xlink:href="#q" overflow="visible"/></clipPath><path clip-path="url(#r)" fill="#FFF" d="M270.376 24.078H120.72v254.858s-2.415 45.127 13.708 83.051c0 0 38.336 97.826 135.433 97.826h.516c97.098 0 135.952-97.826 135.952-97.826 16.12-37.924 13.705-83.051 13.705-83.051V24.078H270.376"/><defs><path id="s" d="M40 2h461.024v540.336H40z"/></defs><clipPath id="t"><use xlink:href="#s" overflow="visible"/></clipPath><path clip-path="url(#t)" fill="#E13A3F" d="M242.619 168.953h55.229v215.96h-55.229z"/><defs><path id="u" d="M40 2h461.024v540.336H40z"/></defs><clipPath id="v"><use xlink:href="#u" overflow="visible"/></clipPath><path clip-path="url(#v)" fill="#E13A3F" d="M197.251 87.323V50.931c-7.489.396-14.405 2.151-21.132 5.188l4.329-13.491h53.589L228.271 54.6c-4.609-2.316-9.698-3.515-15.845-3.669v36.393c0 5.749.767 10.851 3.071 15.728h-21.32c2.303-4.878 3.074-9.98 3.074-15.729"/><defs><path id="w" d="M40 2h461.024v540.336H40z"/></defs><clipPath id="x"><use xlink:href="#w" overflow="visible"/></clipPath><path clip-path="url(#x)" fill="#E13A3F" d="M300.534 87.323v-28.97c0-5.75-.769-10.857-3.068-15.726h21.314c-2.301 4.869-3.076 9.977-3.076 15.726v11.648l18.442-20.906c1.826-2.076 2.786-3.914 2.786-5.752 0-.237-.095-.481-.095-.716h23.817c-5.664 3.511-10.08 6.703-12.967 9.819l-15.843 17.159 21.509 25.378c2.018 2.394 4.806 5.029 8.354 8.066h-23.812c.094-.725.194-1.441.194-2.076 0-2.399-1.065-4.319-2.982-6.625L315.703 71.04v16.282c0 5.749.775 10.851 3.073 15.728h-21.312c2.302-4.876 3.07-9.978 3.07-15.727"/><defs><path id="y" d="M40 2h461.024v540.336H40z"/></defs><clipPath id="z"><use xlink:href="#y" overflow="visible"/></clipPath><path clip-path="url(#z)" fill="#E13A3F" d="M367.568 87.323v-28.97c0-5.75-.766-10.857-3.071-15.726H405.7l-6.817 11.812c-4.325-1.677-9.606-2.554-16.138-2.712v16.682h20.846l-7.783 10.931c-2.974-1.834-6.918-2.63-11.719-2.63h-1.344v17.318c2.016.083 4.036.164 5.958.164 8.643 0 15.85-.962 21.893-3.197l-5.758 12.057h-40.341c2.306-4.878 3.071-9.98 3.071-15.729"/><defs><path id="A" d="M40 2h461.024v540.336H40z"/></defs><clipPath id="B"><use xlink:href="#A" overflow="visible"/></clipPath><path clip-path="url(#B)" fill="#E13A3F" d="M225.128 122.632c-8.268 0-14.132 5.467-14.132 14.063 0 8.698 6.109 14.272 15.243 14.272 5.123 0 8.95-1.698 12.403-5.414l-1.354 9.185c-4.382 1.641-9.013 2.49-14.009 2.49-5.557 0-10.31-1.274-14.258-3.879-5.739-3.764-8.581-8.855-8.581-15.221 0-6.687 3.152-12.527 8.829-16.556 4.997-3.501 11.045-5.363 17.772-5.363 3.331 0 6.974.535 10.8 1.593v10.032c-4.009-3.446-8.207-5.202-12.713-5.202"/><defs><path id="C" d="M40 2h461.024v540.336H40z"/></defs><clipPath id="D"><use xlink:href="#C" overflow="visible"/></clipPath><path clip-path="url(#D)" fill="none" stroke="#E13A3F" stroke-width=".657" d="M225.128 122.632c-8.268 0-14.132 5.467-14.132 14.063 0 8.698 6.109 14.272 15.243 14.272 5.123 0 8.95-1.698 12.403-5.414l-1.354 9.185c-4.382 1.641-9.013 2.49-14.009 2.49-5.557 0-10.31-1.274-14.258-3.879-5.739-3.764-8.581-8.855-8.581-15.221 0-6.687 3.152-12.527 8.829-16.556 4.997-3.501 11.045-5.363 17.772-5.363 3.331 0 6.974.535 10.8 1.593v10.032c-4.009-3.446-8.207-5.202-12.713-5.202z"/><defs><path id="E" d="M40 2h461.024v540.336H40z"/></defs><clipPath id="F"><use xlink:href="#E" overflow="visible"/></clipPath><path clip-path="url(#F)" fill="#E13A3F" d="M246.315 146.3v-19.263c0-3.823-.492-7.215-1.971-10.457h13.696c-1.478 3.241-1.975 6.633-1.975 10.457V146.3c0 3.816.497 7.216 1.975 10.453h-13.696c1.479-3.237 1.971-6.635 1.971-10.453"/><defs><path id="G" d="M40 2h461.024v540.336H40z"/></defs><clipPath id="H"><use xlink:href="#G" overflow="visible"/></clipPath><path clip-path="url(#H)" fill="none" stroke="#E13A3F" stroke-width=".657" d="M246.315 146.3v-19.263c0-3.823-.492-7.215-1.971-10.457h13.696c-1.478 3.241-1.975 6.633-1.975 10.457V146.3c0 3.816.497 7.216 1.975 10.453h-13.696c1.479-3.237 1.971-6.635 1.971-10.453z"/><defs><path id="I" d="M40 2h461.024v540.336H40z"/></defs><clipPath id="J"><use xlink:href="#I" overflow="visible"/></clipPath><path clip-path="url(#J)" fill="#E13A3F" d="M275.201 146.3v-24.2c-4.816.27-9.261 1.431-13.583 3.452l2.784-8.971h34.438l-3.704 7.96c-2.961-1.541-6.234-2.332-10.185-2.441v24.2c0 3.816.492 7.216 1.971 10.453h-13.697c1.482-3.237 1.976-6.635 1.976-10.453"/><defs><path id="K" d="M40 2h461.024v540.336H40z"/></defs><clipPath id="L"><use xlink:href="#K" overflow="visible"/></clipPath><path clip-path="url(#L)" fill="none" stroke="#E13A3F" stroke-width=".657" d="M275.201 146.3v-24.2c-4.816.27-9.261 1.431-13.583 3.452l2.784-8.971h34.438l-3.704 7.96c-2.961-1.541-6.234-2.332-10.185-2.441v24.2c0 3.816.492 7.216 1.971 10.453h-13.697c1.482-3.237 1.976-6.635 1.976-10.453z"/><defs><path id="M" d="M40 2h461.024v540.336H40z"/></defs><clipPath id="N"><use xlink:href="#M" overflow="visible"/></clipPath><path clip-path="url(#N)" fill="#E13A3F" d="M328.964 156.753h-13.699c1.479-3.237 1.973-6.636 1.973-10.453v-8.333l-10.31-14.699a60.82 60.82 0 0 0-5.551-6.687h13.64c-.066.322-.066.639-.066.906 0 1.007.249 1.909.679 2.549l6.978 10.344 5.805-9.604c.553-.953.86-1.961.86-2.972 0-.421-.063-.793-.12-1.222h12.464a34.972 34.972 0 0 0-5.986 6.845l-8.646 12.901v9.973c-.002 3.815.496 7.215 1.979 10.452"/><defs><path id="O" d="M40 2h461.024v540.336H40z"/></defs><clipPath id="P"><use xlink:href="#O" overflow="visible"/></clipPath><path clip-path="url(#P)" fill="none" stroke="#E13A3F" stroke-width=".657" d="M328.964 156.753h-13.699c1.479-3.237 1.973-6.636 1.973-10.453v-8.333l-10.31-14.699a60.82 60.82 0 0 0-5.551-6.687h13.64c-.066.322-.066.639-.066.906 0 1.007.249 1.909.679 2.549l6.978 10.344 5.805-9.604c.553-.953.86-1.961.86-2.972 0-.421-.063-.793-.12-1.222h12.464a34.972 34.972 0 0 0-5.986 6.845l-8.646 12.901v9.973c-.002 3.815.496 7.215 1.979 10.452z"/><defs><path id="Q" d="M40 2h461.024v540.336H40z"/></defs><clipPath id="R"><use xlink:href="#Q" overflow="visible"/></clipPath><path clip-path="url(#R)" fill="#E13A3F" d="M261.909 49.444c-9.768 0-14.287 11.316-14.287 23.186 0 11.865 4.52 23.182 14.287 23.182 9.761 0 14.284-11.317 14.284-23.182-.001-11.87-4.523-23.186-14.284-23.186m31.528 23.48c0 19.94-14.091 30.719-31.478 30.719-17.384 0-31.48-10.203-31.48-30.719 0-16.971 14.097-30.725 31.48-30.725 17.387 0 31.478 13.754 31.478 30.725z"/><defs><path id="S" d="M40 2h461.024v540.336H40z"/></defs><clipPath id="T"><use xlink:href="#S" overflow="visible"/></clipPath><path clip-path="url(#T)" fill="#234895" d="M246.59 428.885c0-6.913 1.546-10.362 4.884-10.362 3.283 0 4.891 3.449 4.891 10.362 0 6.839-1.729 10.297-4.891 10.297-3.508 0-4.884-3.32-4.884-10.297m10.754-12.69c4.425-1.409 6.73-5.002 6.73-9.944 0-7.112-4.317-11.06-12.197-11.06-8.225 0-13.055 4.441-13.055 11.06 0 5.008 2.415 8.602 6.787 9.878v.49c-5.525 1.479-8.342 5.853-8.342 12.687 0 8.457 5.118 12.127 14.208 13.887 9.128 1.772 14.207-2.599 14.207-11.196 0-6.204-2.994-14.035-8.337-15.377v-.425h-.001zm-10.471-9.303c0-5.289 1.553-8.04 4.602-8.04 3.283 0 4.543 2.538 4.543 8.041 0 5.352-1.494 7.96-4.543 7.96-3.107 0-4.602-2.609-4.602-7.961z"/><defs><path id="U" d="M40 2h461.024v540.336H40z"/></defs><clipPath id="V"><use xlink:href="#U" overflow="visible"/></clipPath><path clip-path="url(#V)" fill="none" stroke="#234895" stroke-width=".749" d="M246.873 406.892c0-5.289 1.553-8.04 4.602-8.04 3.283 0 4.543 2.538 4.543 8.041 0 5.352-1.494 7.96-4.543 7.96-3.107 0-4.602-2.609-4.602-7.961z"/><defs><path id="W" d="M40 2h461.024v540.336H40z"/></defs><clipPath id="X"><use xlink:href="#W" overflow="visible"/></clipPath><path clip-path="url(#X)" fill="none" stroke="#234895" stroke-width=".749" d="M257.344 416.195c4.425-1.409 6.73-5.002 6.73-9.944 0-7.112-4.317-11.06-12.197-11.06-8.225 0-13.055 4.441-13.055 11.06 0 5.008 2.415 8.602 6.787 9.878v.49c-5.525 1.479-8.342 5.853-8.342 12.687 0 8.457 5.118 12.127 14.208 13.887 9.128 1.772 14.207-2.599 14.207-11.196 0-6.204-2.994-14.035-8.337-15.377v-.425h-.001z"/><defs><path id="Y" d="M40 2h461.024v540.336H40z"/></defs><clipPath id="Z"><use xlink:href="#Y" overflow="visible"/></clipPath><path clip-path="url(#Z)" fill="none" stroke="#234895" stroke-width=".749" d="M246.59 428.885c0-6.913 1.546-10.362 4.884-10.362 3.283 0 4.891 3.449 4.891 10.362 0 6.839-1.729 10.297-4.891 10.297-3.508 0-4.884-3.32-4.884-10.297z"/><defs><path id="aa" d="M40 2h461.024v540.336H40z"/></defs><clipPath id="ab"><use xlink:href="#aa" overflow="visible"/></clipPath><path clip-path="url(#ab)" fill="#234895" d="M279.615 418.068v-.215c0-11.534 2.395-18.236 7.622-18.236 2.477 0 4.373 1.363 6.1 4.179l.346-.146c.117-2.162.406-4.395.801-6.848-2.354-1.084-7.217-1.658-9.631-1.658-11.389 0-15.249 12.983-15.249 30.647 0 13.481 5.103 20.017 14.612 18.516 8.637-1.359 13.924-6.196 13.924-16.506 0-8.433-4.142-13.413-10.643-13.413-3.512.001-6.387 1.446-7.882 3.68m8.911 11.608c0 7.283-1.433 10.885-4.311 10.885-2.987 0-4.485-3.678-4.485-11.175 0-6.631 1.441-9.876 4.372-9.876 3.218 0 4.424 3.245 4.424 10.166z"/><defs><path id="ac" d="M40 2h461.024v540.336H40z"/></defs><clipPath id="ad"><use xlink:href="#ac" overflow="visible"/></clipPath><path clip-path="url(#ad)" fill="none" stroke="#234895" stroke-width=".757" d="M288.526 429.676c0 7.283-1.433 10.885-4.311 10.885-2.987 0-4.485-3.678-4.485-11.175 0-6.631 1.441-9.876 4.372-9.876 3.218 0 4.424 3.245 4.424 10.166z"/><defs><path id="ae" d="M40 2h461.024v540.336H40z"/></defs><clipPath id="af"><use xlink:href="#ae" overflow="visible"/></clipPath><path clip-path="url(#af)" fill="none" stroke="#234895" stroke-width=".757" d="M279.615 418.068v-.215c0-11.534 2.395-18.236 7.622-18.236 2.477 0 4.373 1.363 6.1 4.179l.346-.146c.117-2.162.406-4.395.801-6.848-2.354-1.084-7.217-1.658-9.631-1.658-11.389 0-15.249 12.983-15.249 30.647 0 13.481 5.103 20.017 14.612 18.516 8.637-1.359 13.924-6.196 13.924-16.506 0-8.433-4.142-13.413-10.643-13.413-3.512.001-6.387 1.446-7.882 3.68z"/><defs><path id="ag" d="M40 2h461.024v540.336H40z"/></defs><clipPath id="ah"><use xlink:href="#ag" overflow="visible"/></clipPath><path clip-path="url(#ah)" fill="#234895" d="M303.946 431.511c1.549 2.921 5.566 3.175 5.566 3.175 8.378-.346 7.402-13.541 7.402-13.541-.907-6.793-6.02-5.97-10.131-5.596-.687.06-1.683.146-2.311.258l.152-4.946c.427.012.905.029 1.382-.017 4.427-.408 7.438-1.729 8.279-6.114.509-2.658-.021-6.823-4.544-6.704-5.085.138-5.889 3.897-7.337 5.865l-.602-.325-.546-5.856c2.634-3.154 9.302-3.595 9.302-3.595 6.846-.626 12.139 3.179 12.635 8.589.366 3.958-1.08 5.572-5.922 7.847l.036.382c5.687-.325 7.915 1.558 9.229 5.539 2.13 6.424 1.457 22.936-26.611 24.209 0 0 2.259-2.527 3.063-8.831l.958-.339"/><defs><path id="ai" d="M40 2h461.024v540.336H40z"/></defs><clipPath id="aj"><use xlink:href="#ai" overflow="visible"/></clipPath><path clip-path="url(#aj)" fill="none" stroke="#234895" stroke-width=".627" d="M303.946 431.511c1.549 2.921 5.566 3.175 5.566 3.175 8.378-.346 7.402-13.541 7.402-13.541-.907-6.793-6.02-5.97-10.131-5.596-.687.06-1.683.146-2.311.258l.152-4.946c.427.012.905.029 1.382-.017 4.427-.408 7.438-1.729 8.279-6.114.509-2.658-.021-6.823-4.544-6.704-5.085.138-5.889 3.897-7.337 5.865l-.602-.325-.546-5.856c2.634-3.154 9.302-3.595 9.302-3.595 6.846-.626 12.139 3.179 12.635 8.589.366 3.958-1.08 5.572-5.922 7.847l.036.382c5.687-.325 7.915 1.558 9.229 5.539 2.13 6.424 1.457 22.936-26.611 24.209 0 0 2.259-2.527 3.063-8.831l.958-.339z"/><defs><path id="ak" d="M40 2h461.024v540.336H40z"/></defs><clipPath id="al"><use xlink:href="#ak" overflow="visible"/></clipPath><path clip-path="url(#al)" fill="#234895" d="M232.606 438.21c-4.679-1.762-11.758-5.558-11.758-5.558.397-3.781 1.241-11.863 1.241-25.312 0-1.485-.119-2.524-.232-4.644-2.245.919-1.325.138-3.568 1.456l-2.47-3.779c5.98-2.002 8.475-2.245 14.344-5.396l1.15.63c-.171 12.079-.071 18.826-.071 22.72 0 4.98.64 12.982 1.091 17.899.095 1.034.273 1.984.273 1.984"/><defs><path id="am" d="M40 2h461.024v540.336H40z"/></defs><clipPath id="an"><use xlink:href="#am" overflow="visible"/></clipPath><path clip-path="url(#an)" fill="none" stroke="#234895" stroke-width=".675" d="M232.606 438.21c-4.679-1.762-11.758-5.558-11.758-5.558.397-3.781 1.241-11.863 1.241-25.312 0-1.485-.119-2.524-.232-4.644-2.245.919-1.325.138-3.568 1.456l-2.47-3.779c5.98-2.002 8.475-2.245 14.344-5.396l1.15.63c-.171 12.079-.071 18.826-.071 22.72 0 4.98.64 12.982 1.091 17.899.095 1.034.273 1.984.273 1.984z"/><defs><path id="ao" d="M40 2h461.024v540.336H40z"/></defs><clipPath id="ap"><use xlink:href="#ao" overflow="visible"/></clipPath><path clip-path="url(#ap)" fill="#E13A3F" d="M190.202 414.029a151.576 151.576 0 0 1-12.533-12.463c-19.938-22.175-29.09-44.9-29.176-45.127l-.081-.199-.075-.168c-11.367-26.752-12.619-58.256-12.619-70.799 0-3.444.09-5.457.099-5.548l.015-.406V115.786h54.226l.144 298.243"/><defs><path id="aq" d="M40 2h461.024v540.336H40z"/></defs><clipPath id="ar"><use xlink:href="#aq" overflow="visible"/></clipPath><path clip-path="url(#ar)" fill="#E13A3F" d="M350.558 414.029a152.613 152.613 0 0 0 12.527-12.463c19.932-22.175 29.092-44.9 29.182-45.127l.079-.199.071-.168c11.376-26.752 12.624-58.256 12.624-70.799 0-3.444-.093-5.457-.096-5.548l-.023-.406V115.786h-54.219l-.145 298.243"/><defs><path id="as" d="M40 2h461.024v540.336H40z"/></defs><clipPath id="at"><use xlink:href="#as" overflow="visible"/></clipPath><path clip-path="url(#at)" fill="#FFF" d="M224.461 497.099c.557.194 1.08.336 1.606.467 8.082 2.1 13.07-.39 14.926-7.538 1.649-6.361-.978-9.883-7.801-11.659-2.835-.734-5.579-1.126-8.114-1.789-.919-.237-2.029-.626-3.345-1.129-1.177 6.319-2.562 12.012-3.852 16.993-1.167 4.479-2.613 10.05-4.891 16.667 1.742.297 3.165.564 4.217.835 1.137.297 2.462.746 4.083 1.327.712-4.186 1.221-6.685 1.43-7.473l1.741-6.701m.867-3.512l1.959-7.546c.329-1.277.574-2.211.729-2.806.06-.243.256-.985.63-2.256.813.105 1.346.191 1.609.264 3.235.838 4.373 3.291 3.348 7.234-1.282 4.932-3.643 6.315-8.275 5.11z"/><defs><path id="au" d="M40 2h461.024v540.336H40z"/></defs><clipPath id="av"><use xlink:href="#au" overflow="visible"/></clipPath><path clip-path="url(#av)" fill="#FFF" d="M246.958 500.427c.01 11.34 6.084 17.56 16.995 17.554 11.282-.015 17.748-6.914 17.737-18.86-.013-11.085-6.261-17.308-16.954-17.29-11.049.004-17.789 6.745-17.778 18.596m8.197-.469c-.014-9.442 3.604-14.809 9.172-14.814 5.527-.003 9.155 5.25 9.165 14.799.01 9.448-3.702 14.714-9.135 14.72-5.571-.001-9.194-5.203-9.202-14.705z"/><defs><path id="aw" d="M40 2h461.024v540.336H40z"/></defs><clipPath id="ax"><use xlink:href="#aw" overflow="visible"/></clipPath><path clip-path="url(#ax)" fill="#FFF" d="M301.423 484.179c.305 2.834.715 5.247 1.04 7.102.132.75.253 1.462.351 2.056 1.269 7.329 2.457 14.253 4.143 20.842-1.985.184-3.43.33-4.273.479-1.109.187-2.471.522-4.186.972-.578-6.304-1.426-11.997-2.322-17.218-.472-2.76-1.36-7.104-2.502-12.901a54.57 54.57 0 0 0-7.946 1.988c-.074-.966-.142-1.888-.271-2.638-.074-.449-.29-1.133-.559-2.176 4.886-.636 8.911-1.178 11.987-1.704 2.934-.509 6.87-1.342 11.816-2.396.096 1.067.169 1.777.249 2.23.13.747.329 1.646.581 2.583-2.693.052-5.4.312-8.108.781"/><defs><path id="ay" d="M40 2h461.024v540.336H40z"/></defs><clipPath id="az"><use xlink:href="#ay" overflow="visible"/></clipPath><path clip-path="url(#az)" fill="#FFF" d="M330.34 475.7c.769 2.754 1.567 5.059 2.192 6.838.257.722.484 1.396.694 1.971 2.448 7.022 4.769 13.654 7.51 19.864-1.918.516-3.317.893-4.131 1.177-1.062.374-2.356.929-3.968 1.658-1.608-6.126-3.379-11.604-5.129-16.602-.922-2.642-2.51-6.782-4.59-12.313a54.09 54.09 0 0 0-7.515 3.273c-.229-.943-.444-1.837-.697-2.557-.149-.438-.479-1.078-.911-2.063 4.715-1.432 8.598-2.627 11.538-3.65 2.813-.981 6.558-2.451 11.261-4.315.27 1.039.464 1.729.614 2.158.251.723.595 1.571 1 2.455a54.085 54.085 0 0 0-7.868 2.106"/><defs><path id="aA" d="M40 2h461.024v540.336H40z"/></defs><clipPath id="aB"><use xlink:href="#aA" overflow="visible"/></clipPath><path clip-path="url(#aB)" fill="#FFF" d="M352.758 483.083c-.562-1.024-1.125-2.052-1.691-3.08-.343-.626-.681-1.251-1.026-1.877-2.443-4.466-4.91-8.864-7.855-13.118 3.832-1.925 6.457-3.241 7.842-4.005 2.134-1.17 4.903-2.799 8.231-4.806.386.898.676 1.609.942 2.102.273.493.696 1.074 1.241 1.881a70.594 70.594 0 0 0-6.427 3.108c-.876.484-1.743.959-2.551 1.457a219.342 219.342 0 0 0 3.472 6.633l1.301 2.368a1238.12 1238.12 0 0 0 8.455-5.156c.393 1.006.745 1.739.989 2.188.22.401.664 1.025 1.28 1.971a171.52 171.52 0 0 0-8.888 4.341l2.661 4.876c1.229 2.232 2.349 4.172 3.455 5.83a81.958 81.958 0 0 0 8.327-5.206c.382.896.72 1.584 1.032 2.163.223.402.689 1.075 1.307 2.015-4.626 2.361-7.999 4.096-10.063 5.223a91.564 91.564 0 0 0-5.892 3.527c-1.852-4.51-4.01-8.549-6.142-12.435"/><defs><path id="aC" d="M40 2h461.024v540.336H40z"/></defs><clipPath id="aD"><use xlink:href="#aC" overflow="visible"/></clipPath><path clip-path="url(#aD)" fill="#FFF" d="M385.354 478.679c1.226-1.146 2.226-2.061 3.055-2.694.776-.614 1.908-1.364 3.317-2.272-2.183-2.363-4.231-4.839-6.237-7.405l-4.099-5.263c8.022 3.171 13.584 5.745 16.747 7.668 1.26-1.181 2.369-2.172 3.366-2.951.853-.662 2.234-1.614 4.039-2.82-5.138-1.812-11.314-4.228-18.551-7.558 3.167-2.988 3.303-7.226.293-11.078-3.917-5.012-8.144-5.082-13.522-.888-2.593 2.03-4.759 4.167-6.965 5.893-.818.638-1.775 1.253-2.833 1.951 4.432 4.803 8.069 9.395 11.174 13.369.343.44.722.925 1.096 1.407 2.662 3.409 5.787 7.493 9.12 12.641m-5.567-19.684l-4.319-5.541a94.156 94.156 0 0 1-3.435-4.619c.504-.386.816-.57.923-.655 3.272-2.552 5.835-2.354 8.467 1.013 2.912 3.741 2.39 6.668-1.493 9.692l-.143.11z"/><defs><path id="aE" d="M40 2h461.024v540.336H40z"/></defs><clipPath id="aF"><use xlink:href="#aE" overflow="visible"/></clipPath><path clip-path="url(#aF)" fill="#FFF" d="M405.588 448.053l.508-.576c3.796 2.315 6.836 2.102 9.367-.779 2.298-2.618 2.212-5.451-.122-7.504-2.25-1.988-4.471-1.162-8.467.374-5.748 2.219-9.416 3.077-13.622-.618-4.896-4.309-5.307-10.314-.384-15.913 2-2.269 4.255-3.836 6.943-4.658a52.628 52.628 0 0 0 3.819 5.765l-.362.404c-3.623-1.503-6.21-1.189-8.26 1.146-2.121 2.414-1.856 5.119.021 6.762 2.257 1.978 4.521.722 9.101-1.017 5.333-1.982 8.816-3.009 13.251.889 5.359 4.712 5.545 11.198.125 17.367-2.031 2.301-4.304 3.97-6.567 4.927-1.903-2.393-3.709-4.577-5.351-6.569"/><defs><path id="aG" d="M40 2h461.024v540.336H40z"/></defs><clipPath id="aH"><use xlink:href="#aG" overflow="visible"/></clipPath><path clip-path="url(#aH)" fill="#E13A3F" d="M169.558 72.164c-2.105-1.491-7.171-3.92-13.101-7.309-4.711-2.718-8.281-4.996-8.159-8.264.122-3.509 3.309-6.583 8.779-6.397 5.569.187 11.3 3.879 15.532 9.055l-.217-15.104c-3.81-1.166-7.632-1.771-11.657-1.909-16.418-.555-26.563 6.293-26.955 17.061-.246 6.938 4.205 11.404 12.771 16.162 7.708 4.337 14.25 6.262 14.458 11.665h-.004c-.147 3.952-3.813 7.345-9.524 7.152-5.815-.19-11.75-4.208-16.158-10.017l.188 16.991c3.966 1.304 9.02 2.014 13.229 2.161 17.145.574 27.542-7.093 27.985-19.219-.027-4.787-2.302-8.585-7.167-12.028"/><defs><path id="aI" d="M40 2h461.024v540.336H40z"/></defs><clipPath id="aJ"><use xlink:href="#aI" overflow="visible"/></clipPath><path clip-path="url(#aJ)" fill="#FFF" d="M145.077 428.375c-2.165 1.856-3.914 3.56-5.264 4.876-.546.531-1.058 1.023-1.496 1.457-5.328 5.184-10.366 10.088-14.837 15.2-1.282-1.527-2.211-2.635-2.812-3.252-.787-.813-1.837-1.745-3.172-2.895 4.871-4.044 9.085-7.965 12.875-11.66 2.013-1.954 5.093-5.146 9.232-9.355a55.692 55.692 0 0 0-6.138-5.438c.757-.605 1.475-1.178 2.019-1.711.332-.321.775-.882 1.485-1.694 3.286 3.672 6.009 6.693 8.185 8.918 2.077 2.138 4.989 4.911 8.663 8.391-.832.68-1.373 1.146-1.698 1.467a28.39 28.39 0 0 0-1.807 1.948 52.615 52.615 0 0 0-5.235-6.252"/><defs><path id="aK" d="M40 2h461.024v540.336H40z"/></defs><clipPath id="aL"><use xlink:href="#aK" overflow="visible"/></clipPath><path clip-path="url(#aL)" fill="#FFF" d="M146.618 452.01c.447-.558.876-1.068 1.26-1.537 3.207-3.893 6.856-8.404 10.679-13.765 1.304 1.337 2.286 2.346 2.981 2.913.911.742 2.085 1.516 3.54 2.45a96.845 96.845 0 0 0-5.417 6.095l-3.528 4.282c2.204 1.939 3.667 3.283 4.472 3.944 1.432 1.182 3.167 2.469 5.115 3.942l3.528-4.284a103.263 103.263 0 0 0 4.899-6.526c1.368 1.393 2.39 2.43 3.09 3.003.728.604 1.868 1.344 3.432 2.363-4.46 4.71-8.186 9.16-11.45 13.141-.389.466-.808.976-1.26 1.532-2.618 3.185-5.819 7.143-9.385 12.19-1.228-1.209-2.21-2.15-3.045-2.841-.875-.719-2.017-1.523-3.476-2.523a86.637 86.637 0 0 0 5.094-5.63l5.759-7.003a155.956 155.956 0 0 0-4.889-4.22c-.94-.776-2.505-1.999-4.702-3.665l-5.757 6.996a86.966 86.966 0 0 0-4.572 6.065c-1.267-1.237-2.278-2.211-3.151-2.93-.833-.684-1.986-1.494-3.368-2.437 4.26-4.471 7.527-8.376 10.151-11.555"/><defs><path id="aM" d="M40 2h461.024v540.336H40z"/></defs><clipPath id="aN"><use xlink:href="#aM" overflow="visible"/></clipPath><path clip-path="url(#aN)" fill="#FFF" d="M178.193 478.03c.556-1.026 1.118-2.052 1.674-3.086.338-.629.679-1.254 1.016-1.882 2.42-4.48 4.781-8.938 6.751-13.719 3.698 2.172 6.229 3.66 7.624 4.413 2.144 1.156 5.016 2.598 8.499 4.308-.539.802-.983 1.432-1.25 1.932-.266.485-.525 1.157-.9 2.053a72.72 72.72 0 0 0-6.11-3.707c-.876-.475-1.75-.946-2.606-1.349a212.128 212.128 0 0 0-3.681 6.52l-1.278 2.374c2.228 1.093 5.201 2.524 8.911 4.3-.626.877-1.058 1.573-1.295 2.023-.223.398-.502 1.113-.953 2.14a174.471 174.471 0 0 0-8.484-5.107l-2.637 4.886c-1.215 2.238-2.239 4.233-3.022 6.069a85.619 85.619 0 0 0 8.877 4.164c-.535.811-.937 1.452-1.252 2.041-.217.4-.522 1.157-.98 2.185-4.496-2.602-7.782-4.492-9.849-5.609a94.99 94.99 0 0 0-6.153-3.04c2.777-4 4.994-8.011 7.098-11.909"/></g></g></svg>