<?xml version="1.0" encoding="utf-8"?>
<!-- Generator: Adobe Illustrator 17.0.0, SVG Export Plug-In . SVG Version: 6.00 Build 0)  -->
<!DOCTYPE svg PUBLIC "-//W3C//DTD SVG 1.1//EN" "http://www.w3.org/Graphics/SVG/1.1/DTD/svg11.dtd">
<svg version="1.1" id="Ebene_1" xmlns="http://www.w3.org/2000/svg" xmlns:xlink="http://www.w3.org/1999/xlink" x="0px" y="0px"
	 width="396.2px" height="343.254px" viewBox="0 0 396.2 343.254" enable-background="new 0 0 396.2 343.254" xml:space="preserve">
<polygon fill="#FFFFFF" points="99.052,0 0,171.634 99.052,343.254 297.156,343.254 396.2,171.634 297.156,0 "/>
<path d="M295.023,3.688c1.048,1.814,95.877,166.139,96.926,167.947c-1.048,1.808-95.877,166.125-96.926,167.939H101.178
	c-1.042-1.815-95.878-166.132-96.919-167.94C5.3,169.827,100.136,5.502,101.178,3.688H295.023z"/>
<polygon fill="#FFFFFF" points="117.525,32.029 36.96,171.634 117.525,311.225 278.661,311.225 359.24,171.634 278.661,32.029 "/>
<path fill="#F6A800" d="M275.827,36.946c1.381,2.393,76.357,132.303,77.731,134.688c-1.374,2.394-76.35,132.281-77.731,134.675
	H120.359c-1.374-2.394-76.35-132.281-77.73-134.675c1.381-2.386,76.356-132.295,77.73-134.688L275.827,36.946L275.827,36.946z"/>
<polygon points="175.452,107.782 220.582,107.782 244.716,47.245 310.047,179.931 239.401,221.677 216.757,296.01 179.443,296.01 
	156.871,221.562 86.153,179.931 151.376,47.245 "/>
<polygon fill="#FFFFFF" points="244.77,156.831 244.77,192.54 211.396,192.54 "/>
<polygon fill="#FFFFFF" points="151.43,192.54 151.43,156.831 184.747,192.54 "/>
</svg>
