<?xml version="1.0" encoding="utf-8"?>
<!-- Generator: Adobe Illustrator 17.0.0, SVG Export Plug-In . SVG Version: 6.00 Build 0)  -->
<!DOCTYPE svg PUBLIC "-//W3C//DTD SVG 1.1//EN" "http://www.w3.org/Graphics/SVG/1.1/DTD/svg11.dtd">
<svg version="1.1"
	 id="svg85" xmlns:cc="http://creativecommons.org/ns#" xmlns:dc="http://purl.org/dc/elements/1.1/" xmlns:rdf="http://www.w3.org/1999/02/22-rdf-syntax-ns#"
	 xmlns="http://www.w3.org/2000/svg" xmlns:xlink="http://www.w3.org/1999/xlink" x="0px" y="0px" width="95.265px" height="99.6px"
	 viewBox="0.2 0.2 95.265 99.6" enable-background="new 0.2 0.2 95.265 99.6" xml:space="preserve">
<path id="path4" fill="#0070B5" d="M13.273,9.388c1.163-1.109,2.625-2.08,4.222-3.142c3.751-2.493,8.333-4.862,11.456-6.032
	c3.386,1.866,6.355,3.224,9.031,4.202c4.543,1.661,8.016,2.226,9.935,2.321c2.082-0.077,5.988-0.775,11.214-2.84
	c2.357-0.931,4.925-2.151,7.834-3.698c2.638,1.11,7.209,3.382,11.359,6.135c2.116,1.403,4.121,2.912,5.262,4.491
	c0.663,0.918,0.992,1.897,1.022,2.885c0.062,2.055-1.067,4.378-1.822,5.887c-5.029-2.43-10.286-4.371-15.716-5.735
	c-5.984-1.504-12.149-2.293-18.316-2.4c-6.672-0.116-13.383,0.711-19.854,2.33c-5.474,1.369-10.886,3.332-16.019,5.802
	c-0.553-1.126-1.174-2.5-1.515-3.583c-0.428-1.358-0.519-2.692-0.045-3.951C11.666,11.141,12.339,10.278,13.273,9.388L13.273,9.388z
	 M78.897,43.718c1.19,7.915,2.577,15.176,3.806,21.903c0.213,1.167,0.364,2.232,0.483,3.193c0.388,3.138,0.26,5.34-0.614,7.853
	c-1.734,4.986-7.073,9.482-12.62,12.216c-1.525,0.752-2.549,1.049-4.065,1.521c-1.638,0.511-3.707,1.278-5.59,2.141
	c-4.542,2.083-7.787,3.824-12.453,7.254c-3.948-3.053-8.249-5.397-10.734-6.567c-2.363-1.112-3.539-1.605-6.021-2.592
	c-1.144-0.455-2.339-0.779-3.422-1.227c-1.805-0.746-3.43-1.641-4.944-2.623c-3.869-2.51-7.429-5.945-8.96-9.664
	c-0.519-1.26-0.886-2.449-1.057-3.768c-0.503-3.882,0.499-8.192,1.164-11.997c0.996-5.702,2.028-11.536,2.94-17.653l13.369-6.801
	l-2.78-4.944c6.392-2.782,13.255-4.058,20.219-4.111c6.844-0.052,14.285,1.367,20.622,4.096l-2.794,4.951L78.897,43.718z"/>
<path id="path6" fill="#D11524" d="M66.859,3.313c-2.22,1.178-4.333,2.213-6.693,3.145c-3.579,1.414-7.968,2.817-12.146,3.088
	c-4.019-0.202-7.721-1.342-10.959-2.526c-2.837-1.037-5.38-2.273-8.048-3.695c-3.308,1.371-7.189,3.538-10.009,5.393
	c-1.291,0.85-2.621,1.714-3.74,2.782c-0.339,0.323-0.831,0.832-1.136,1.329c-0.197,0.321-0.307,0.66-0.352,1.007
	c-0.07,0.542,0.028,1.113,0.189,1.658c0.302,1.025,0.75,2.043,1.232,3.029c4.434-1.971,9.046-3.566,13.703-4.731
	c6.471-1.618,13.181-2.445,19.854-2.33c6.167,0.107,12.333,0.895,18.316,2.399c4.599,1.156,9.074,2.725,13.391,4.654
	c0.31-0.607,0.63-1.282,0.886-1.95c0.613-1.605,0.807-2.748-0.005-3.914c-1.076-1.541-3.092-2.883-4.543-3.845
	C73.825,6.836,70.18,4.803,66.859,3.313L66.859,3.313z M19.74,42.219c-0.937,6.571-2.017,13.159-3.23,19.679
	c-0.661,3.551-1.531,7.456-1.076,10.965c0.222,1.716,0.867,3.33,1.778,4.787c1.746,2.791,4.785,5.301,7.031,6.798
	c1.428,0.927,2.917,1.734,4.491,2.385c1.102,0.456,2.272,0.769,3.387,1.213c2.105,0.837,4.07,1.719,6.105,2.715
	c3.246,1.589,7.194,3.939,9.651,5.619c4.368-3.048,7.811-4.874,12.022-6.717c1.677-0.734,3.421-1.385,5.158-1.926
	c1.3-0.405,2.431-0.754,3.662-1.36c4.244-2.092,9.634-6.077,11.231-10.669c0.793-2.279,0.844-3.998,0.549-6.386
	c-0.127-1.016-0.338-2.705-0.528-3.71c-1.333-7.024-2.916-16.008-4.009-23.382L65.444,36.9l2.794-4.951
	c-6.337-2.728-13.779-4.147-20.622-4.096c-6.964,0.053-13.827,1.329-20.219,4.111l2.78,4.944L19.74,42.219z"/>
<path id="path8" fill="#FFFFFF" d="M28.941,5.009c-3.099,1.344-6.319,3.15-9.101,4.981c-1.21,0.796-2.476,1.61-3.526,2.612
	c-0.303,0.289-0.669,0.665-0.889,1.024c-0.078,0.126-0.121,0.259-0.14,0.406c-0.042,0.326,0.046,0.72,0.139,1.033
	c0.297,1.006,0.74,1.984,1.205,2.924c0.298,0.336,0.507,0.461,0.729,0.949c3.217,7.047,5.109,14.816,4.017,22.58
	c-0.971,6.91-2.094,13.799-3.371,20.659c-0.614,3.302-1.496,7.146-1.063,10.492c0.193,1.494,0.764,2.904,1.559,4.176
	c1.522,2.433,4.211,4.755,6.577,6.333c1.345,0.872,2.754,1.638,4.236,2.25c1.099,0.455,2.259,0.764,3.368,1.205
	c2.109,0.839,4.173,1.765,6.212,2.763c1.333,0.653,2.644,1.358,3.936,2.089c1.698,0.961,3.399,1.978,5.035,3.057
	c2.355-1.599,4.766-3.053,7.315-4.345c1.349-0.684,2.722-1.32,4.108-1.926c1.732-0.758,3.511-1.423,5.316-1.985
	c1.179-0.368,2.33-0.724,3.442-1.272c3.829-1.887,9.013-5.624,10.467-9.805c0.711-2.045,0.739-3.568,0.476-5.7
	c-0.148-1.195-0.288-2.431-0.512-3.613c-1.557-8.203-3.021-16.483-4.21-24.748c-0.185-0.526-0.308-1.188-0.408-1.707
	c-0.108-0.555-0.211-1.123-0.287-1.682c-1.102-8.16,1.124-11.879,4.912-18.766c0.527-0.958,1.052-1.945,1.443-2.968
	c0.301-0.788,0.704-1.731,0.168-2.501c-0.927-1.33-2.795-2.559-4.135-3.448c-2.831-1.878-5.948-3.632-9.051-5.07
	c-2.019,1.053-4.057,2.027-6.182,2.867c-3.953,1.562-8.342,2.914-12.607,3.191l-0.087,0.006l-0.088-0.004
	c-3.962-0.199-7.7-1.262-11.405-2.616c-2.632-0.962-5.124-2.144-7.597-3.441L28.941,5.009z"/>
<path id="path66" fill="#0070B5" d="M65.58,19.247l1.185,0.364l0.612,2.727l1.981-1.932l1.222,0.375l-3.012,2.735l-0.641,2.089
	l-1.053-0.323l0.641-2.089L65.58,19.247z M63.052,19.645l-0.999,4.642l-1.066-0.229l0.999-4.642l-1.628-0.351l0.197-0.913
	l4.323,0.931l-0.197,0.913L63.052,19.645z M73.644,21.905l3.488,1.458l-0.358,0.857l-2.471-1.033L73.711,24.6l2.351,0.983
	l-0.35,0.836l-2.351-0.983l-0.901,2.156l-1.019-0.426L73.644,21.905z M45.053,17.078l3.779-0.081l0.02,0.929l-2.678,0.058
	l0.033,1.531l2.548-0.054l0.019,0.906l-2.548,0.054l0.05,2.336l-1.102,0.023L45.053,17.078z M39.894,17.516l3.763-0.366l0.09,0.925
	l-2.666,0.26l0.148,1.524l2.536-0.247l0.088,0.902l-2.536,0.247l0.227,2.326l-1.097,0.107L39.894,17.516z M59.393,17.981
	l-0.889,5.62l-1.075-0.17l0.889-5.62L59.393,17.981z M38.239,17.758l0.852,5.626l-1.076,0.163l-0.852-5.626L38.239,17.758z
	 M32.07,24.736l-1.212-5.574l2.665-0.579c0.824-0.179,1.498-0.121,1.893,0.22c0.521,0.449,0.649,0.966,0.857,1.918
	c0.244,1.121,0.296,2.035,0.065,2.528c-0.252,0.538-0.811,0.736-1.685,0.926L32.07,24.736z M32.127,19.837l0.817,3.758l1.31-0.285
	c0.546-0.119,0.902-0.211,1.064-0.532c0.16-0.317,0.074-0.869-0.094-1.643c-0.111-0.511-0.207-0.904-0.318-1.171
	c-0.107-0.257-0.244-0.432-0.526-0.493c-0.203-0.043-0.462-0.024-0.742,0.036L32.127,19.837z M79.897,28.85l0.957,0.471
	l-0.134,0.294c-0.268,0.59-0.584,0.946-1.015,1.028c-0.431,0.083-1.08-0.135-1.87-0.516c-0.97-0.469-1.416-0.853-1.539-1.359
	c-0.123-0.506,0.157-1.288,0.676-2.361c0.442-0.915,0.815-1.535,1.273-1.755c0.509-0.245,1.197-0.127,2.078,0.291
	c0.816,0.387,1.419,0.73,1.59,1.186c0.183,0.492,0.062,0.833-0.304,1.622l-0.968-0.492c0.186-0.385,0.308-0.692,0.207-0.886
	c-0.101-0.194-0.447-0.395-0.935-0.614c-0.479-0.216-0.843-0.348-1.116-0.162c-0.235,0.16-0.499,0.635-0.865,1.391
	c-0.259,0.535-0.445,0.913-0.522,1.203c-0.055,0.205-0.063,0.39,0.071,0.57c0.135,0.181,0.391,0.368,0.744,0.539
	c0.455,0.22,0.806,0.351,1.02,0.329c0.214-0.021,0.368-0.195,0.506-0.48L79.897,28.85z M55.546,21.113l1.063,0.09l-0.017,0.322
	c-0.034,0.648-0.199,1.094-0.57,1.327c-0.371,0.234-1.055,0.269-1.93,0.202c-1.075-0.083-1.63-0.277-1.929-0.704
	c-0.3-0.426-0.324-1.257-0.232-2.445c0.078-1.013,0.199-1.727,0.544-2.098c0.385-0.414,1.068-0.555,2.042-0.487
	c0.901,0.063,1.588,0.161,1.913,0.524c0.35,0.391,0.361,0.753,0.309,1.621l-1.081-0.106c0.033-0.426,0.034-0.756-0.131-0.9
	c-0.165-0.144-0.56-0.204-1.094-0.231c-0.525-0.026-0.911-0.016-1.098,0.257c-0.16,0.234-0.233,0.773-0.298,1.611
	c-0.046,0.593-0.081,1.012-0.047,1.311c0.024,0.211,0.084,0.386,0.275,0.505c0.192,0.119,0.498,0.2,0.89,0.231
	c0.504,0.038,0.878,0.032,1.07-0.067c0.192-0.099,0.272-0.315,0.296-0.631L55.546,21.113z M18.428,27.506l0.954-0.504l0.145,0.275
	c0.303,0.574,0.42,1.051,0.231,1.446c-0.189,0.396-0.749,0.79-1.525,1.2c-0.953,0.503-1.527,0.635-2.007,0.434
	c-0.481-0.201-0.944-0.891-1.5-1.945c-0.474-0.899-0.752-1.567-0.658-2.066c0.105-0.555,0.608-1.039,1.467-1.501
	c0.795-0.427,1.429-0.71,1.898-0.576c0.504,0.144,0.707,0.444,1.125,1.206l-0.97,0.488c-0.2-0.378-0.374-0.658-0.591-0.692
	c-0.217-0.033-0.583,0.126-1.049,0.388c-0.458,0.258-0.78,0.472-0.792,0.803c-0.011,0.284,0.215,0.778,0.607,1.521
	c0.278,0.526,0.471,0.899,0.659,1.134c0.133,0.166,0.277,0.282,0.502,0.281c0.226-0.001,0.528-0.096,0.876-0.279
	c0.447-0.236,0.76-0.441,0.87-0.627c0.11-0.186,0.062-0.412-0.086-0.692L18.428,27.506z M23.991,26.167L21.7,27.083l0.072,1.144
	l-1.054,0.421l-0.357-6l1.492-0.596l3.913,4.579l-1.032,0.413L23.991,26.167z M23.455,25.504l-2.019-2.383l0.195,3.113
	L23.455,25.504z M26.956,24.259l0.562,1.822l-1.002,0.309l-1.684-5.456l2.66-0.821c0.607-0.187,1.093-0.202,1.46-0.029
	c0.367,0.172,0.645,0.563,0.833,1.173c0.131,0.424,0.177,0.787,0.132,1.047c-0.06,0.344-0.281,0.58-0.655,0.748l0.009,0.029
	c0.306-0.094,0.578-0.046,0.786,0.092c0.208,0.139,0.348,0.349,0.45,0.68l0.368,1.193l-1.049,0.324l-0.341-1.105
	c-0.08-0.258-0.208-0.42-0.385-0.486c-0.177-0.066-0.395-0.059-0.652,0.021L26.956,24.259z M26.112,21.524l0.577,1.871l1.491-0.46
	c0.316-0.097,0.516-0.223,0.605-0.408c0.089-0.185,0.065-0.477-0.035-0.799c-0.105-0.341-0.223-0.575-0.377-0.676
	c-0.172-0.113-0.411-0.099-0.727-0.001L26.112,21.524z"/>
<path id="path10" fill="#0070B5" d="M47.521,12.052c-6.12,0-12.364,0.794-18.476,2.323c-7.867,1.968-15.704,5.21-22.712,9.437
	c1.232,2.398,2.336,4.488,3.419,6.459L0.2,35.696l7.129,4.46l0.674,7.363L29.351,36.66l-2.797-4.973
	c6.654-3.009,13.804-4.375,21.058-4.43c6.822-0.051,14.704,1.375,21.473,4.412l-2.812,4.982l21.374,10.831l0.647-7.322l7.171-4.459
	l-9.571-5.442l3.428-6.461c-7.338-4.372-14.872-7.462-22.399-9.354c-6.096-1.532-12.234-2.279-18.18-2.381
	C48.336,12.056,47.929,12.053,47.521,12.052L47.521,12.052z M47.663,14.267c0.403-0.001,0.805,0.003,1.206,0.01
	c5.953,0.103,12.139,0.806,17.915,2.258c6.974,1.753,13.287,4.501,19.542,8.023c-0.985,1.778-1.848,3.489-2.686,5.194
	c-0.862,1.854-1.738,3.618-2.636,5.25c-9.631-5.101-21.245-9.818-33.573-9.725c-4.815,0.036-9.357,0.782-13.586,1.912
	c-6.819,1.821-13.047,4.707-18.91,7.725l-2.729-5.145L9.34,24.681c6.319-3.582,13.236-6.35,20.255-8.106
	C35.433,15.115,41.621,14.274,47.663,14.267L47.663,14.267z M84.942,31.978l6.951,3.823l-5.436,3.159l-0.615,5.799l-15.313-7.649
	l10.718,1.173l0.435-0.743l0.002,0.001L84.942,31.978L84.942,31.978z M10.716,32.001c0.934,1.657,1.877,3.269,2.9,4.959l0.774,1.322
	l10.725-1.174L9.809,44.766l-0.615-5.812l-5.437-3.145L10.716,32.001L10.716,32.001z M70.718,32.477
	c2.874,1.269,6.059,2.641,9.169,4.162l-10.93-1.118L70.718,32.477L70.718,32.477z M24.945,32.492l1.746,3.028l-11.127,1.138
	C19.189,35.066,21.951,33.713,24.945,32.492L24.945,32.492z"/>
<g id="dragon">
	<path id="path28" fill="#D11524" d="M39.723,78.088c-0.134,0.29-0.358,0.353-0.517,0.549c-0.141,0.173-0.205,0.36-0.149,0.565
		c0.076,0.276,0.308,0.342,0.6,0.473c0.146,0.066,0.327,0.144,0.462,0.264c0.211,0.188,0.375,0.548,0.428,0.989
		c0.008,0.067,0.001,0.12-0.04,0.171c-0.083-0.055-0.098-0.155-0.126-0.245c-0.08,0.117-0.142,0.233-0.184,0.35
		c0.025,0.062,0.105,0.235,0.153,0.344c0.011,0.025,0.019,0.021,0.03,0.024l0.016-0.192c0.137,0.046,0.314,0.119,0.367,0.116
		c0.08-0.004,0.317-0.117,0.458-0.186l0.055,0.139c0.032,0.08,0.154-0.155,0.197-0.226c0.035,0.005,0.074,0.009,0.115,0.011
		c-0.116,0.178-0.231,0.308-0.347,0.39c-0.034-0.026-0.064-0.053-0.101-0.078c-0.019-0.012-0.023-0.013-0.019,0.009l0.028,0.144
		c-0.099,0.065-0.194,0.097-0.296,0.108c-0.033-0.031-0.064-0.088-0.088-0.138c-0.016,0.069-0.01,0.147,0.021,0.215
		c-0.013,0.111-0.008,0.199,0.089,0.285c0.004,0.065,0.006,0.121,0.029,0.186c0.062-0.055,0.072-0.116,0.096-0.176
		c0.04,0.044,0.072,0.121,0.094,0.191c0.053-0.061,0.075-0.15,0.085-0.217c0.097-0.025,0.201-0.048,0.266-0.038
		c0.13,0.019,0.21,0.105,0.218,0.195c0.008,0.085-0.046,0.177-0.142,0.191c-0.054,0.008-0.124-0.009-0.199-0.066
		c0.027,0.142,0.147,0.232,0.282,0.218c0.13-0.014,0.237-0.11,0.24-0.291c0.002-0.121-0.055-0.254-0.183-0.393l0.143-0.063
		c0.088,0,0.168,0.014,0.247,0.041c-0.008-0.039-0.026-0.076-0.08-0.148l0.02-0.01c0.037,0.025,0.137,0.063,0.219,0.062
		c-0.002-0.032-0.032-0.099-0.083-0.16c0.191-0.028,0.382,0.117,0.498,0.26c0.241,0.299,0.234,0.686,0.128,1.032
		c-0.16,0.522-0.503,0.98-0.696,1.497c-0.136,0.365-0.165,0.749-0.119,1.18c-0.286,0.007-0.595-0.029-0.816-0.113
		c-0.49-0.185-0.504-0.68-0.582-1.449c-0.03-0.299-0.244-0.744-0.398-0.904l0.007-0.095c-0.113-0.047-0.247-0.081-0.359-0.099
		c0.111,0.253,0.248,0.562,0.239,0.755c-0.003,0.056-0.062,0.054-0.096,0.006c-0.098-0.138-0.164-0.267-0.414-0.528l-0.032-0.093
		c-0.134-0.06-0.289-0.094-0.437-0.107c0.19,0.232,0.42,0.545,0.501,0.805L39.41,83.82l-0.083-0.131
		c-0.122,0.001-0.276,0.005-0.409,0.048c0.323,0.22,0.592,0.479,0.829,0.775c0.002,0.216,0.001,0.406-0.018,0.574
		c-0.155,0.185-0.461,0.46-0.827,0.58c0.14,0.042,0.287,0.07,0.446,0.074l0.089-0.106c0.086-0.013,0.171-0.028,0.256-0.05
		c0.066-0.017,0.134-0.041,0.184-0.055c0.097-0.023,0.156,0.001,0.213,0.066c0.369,0.85,0.985,2.132,1.874,2.188
		c0.017,0.001,0.024-0.012,0.012-0.024c-0.343-0.36-0.442-0.669-0.066-0.817c0.051-0.02,0.065-0.022,0.108,0.009
		c0.223,0.168,0.396,0.455,0.644,0.649c-0.057-0.178-0.114-0.355-0.171-0.533c0.298,0.349,0.557,0.577,1.119,0.856
		c-0.162,0.186-0.302,0.372-0.425,0.572c-0.518,0.027-0.968,0.112-1.304,0.245l-0.127-0.065c-0.092,0.089-0.151,0.198-0.196,0.316
		c0.417-0.135,0.801-0.197,1.036-0.145c0.02,0.004,0.044,0.062,0.024,0.067c-0.392,0.105-0.659,0.242-0.906,0.393l-0.176-0.034
		c-0.077,0.141-0.107,0.279-0.117,0.401c0.479-0.32,0.87-0.391,1.248-0.373c-0.105,0.119-0.188,0.219-0.264,0.348l-0.242,0.085
		c-0.044,0.13-0.051,0.266-0.038,0.406c0.278-0.201,0.575-0.449,0.872-0.625c0.231-0.137,0.451-0.231,0.699-0.319
		c0.277-0.099,0.498-0.185,0.773-0.24c0.292-0.059,0.622-0.087,0.931-0.088c-0.1-0.106-0.18-0.151-0.329-0.213l-0.076,0.08
		c-0.226-0.044-0.403-0.067-0.637-0.074c0.274-0.455,0.735-0.455,1.251-0.337c0.01,0.002,0.031,0.012,0.011-0.028
		c-0.054-0.108-0.171-0.224-0.34-0.364c0.94-0.273,1.821-1.03,2.272-2.074c0.415-0.514,0.9-0.836,1.461-0.605
		c0.359,0.148,0.723,0.483,1.095,1.073c-0.126,0.117-0.206,0.199-0.298,0.267c-0.12,0.09-0.241,0.157-0.301,0.246
		c-0.26,0.386,0.33,0.734,1.273,1.257c-0.082,0.155-0.211,0.198-0.349,0.178l-0.642-0.094c-0.273-0.131-0.573-0.218-0.828-0.291
		l0.048-0.1c-0.273,0.052-0.518,0.13-0.627,0.22c0.356-0.017,0.553,0.087,0.783,0.177c-0.226,0.012-0.347,0.013-0.596,0.071
		c-0.098,0.022-0.138-0.009-0.178-0.062c-0.209,0.054-0.361,0.186-0.486,0.321c0.751-0.122,0.988-0.044,1.333,0.034
		c-0.155,0.061-0.34,0.128-0.495,0.188l-0.087-0.082c-0.215,0.085-0.404,0.237-0.545,0.377c0.729-0.106,1.229-0.174,1.895-0.234
		c0.645-0.059,1.284-0.016,1.616,0.022c0.069,0.008,0.143-0.07,0.073-0.207c-0.154-0.301-0.598-0.755-0.183-1.003
		c0.464,0.303,0.929,0.544,1.393,0.694c-0.131,0.429-0.718,0.681-1.224,0.731c-0.399,0.039-0.881-0.026-1.291,0.017l-0.1-0.128
		c-0.229,0.133-0.423,0.267-0.537,0.4c0.187,0.017,0.415,0,0.622,0.004c0.207,0.003,0.394,0.027,0.498,0.099
		c-0.054,0.079-0.494,0.092-0.719,0.134l-0.102-0.054c-0.227,0.152-0.338,0.267-0.475,0.445c0.208-0.017,0.485-0.055,0.742-0.11
		c0.376-0.08,0.695-0.157,0.821-0.146c-0.083,0.098-0.403,0.251-0.679,0.368l-0.075-0.071c-0.168,0.169-0.236,0.317-0.332,0.558
		c0.147-0.077,0.246-0.134,0.455-0.234c0.073-0.019,0.171-0.064,0.294-0.123c0.205-0.099,0.481-0.24,0.825-0.384
		c0.456-0.191,0.978-0.349,1.303-0.417c0.517-0.108,0.903-0.079,1.115-0.143c0.127-0.038,0.189-0.086,0.173-0.274
		c-0.012-0.142-0.093-0.321-0.229-0.511c0.367-0.011,0.671-0.03,0.968-0.103c0.591-0.145,1.053-0.457,1.403-0.824
		c0.261-0.273,0.475-0.574,0.597-0.887c0.151-0.387,0.172-0.845,0.114-1.252c-0.093-0.656-0.424-1.233-1.005-1.587
		c-0.749-0.455-2.367,0.134-2.519-0.675c-0.056-0.3,0.065-0.516,0.264-0.743c0.394-0.449,0.999-0.793,1.3-0.947
		c0.115-0.059,0.189-0.097,0.213-0.197c-0.031-0.011-0.085-0.012-0.134,0c-0.001-0.053,0.011-0.142,0.07-0.2
		c0.005-0.005,0.013-0.014,0.006-0.014c-0.134,0.012-0.199,0.168-0.242,0.276l-0.121,0.053c-0.031-0.093,0.032-0.21,0.097-0.31
		c0.012-0.018,0.028-0.039,0.006-0.031c-0.208,0.088-0.315,0.256-0.365,0.451l-0.097,0.048c-0.022-0.147,0.027-0.299,0.117-0.42
		c0.007-0.01,0.024-0.031,0.011-0.028c-0.304,0.071-0.453,0.417-0.519,0.686l-0.159,0.1c-0.002-0.247,0.036-0.444,0.145-0.582
		c0.01-0.013,0.023-0.037,0.007-0.033c-0.425,0.119-0.592,0.742-0.673,1.025l-0.036,0.04c-0.063-0.104-0.052-0.408,0.048-0.646
		c0.007-0.016-0.006-0.03-0.021-0.021c-0.586,0.367-0.456,0.842-0.42,1.245c-0.156,0.553,0.131,0.836,0.284,0.974
		c0.361,0.323,1.103,0.284,1.529,0.467c0.311,0.133,0.471,0.463,0.474,0.763c0.007,0.625-0.893,0.955-1.444,0.857
		c-0.656-0.117-1.502-0.57-2.225-1.343c0.14,0.009,0.351,0.074,0.524,0.148c0.016,0.007,0.026,0.001,0.017-0.011
		c-0.239-0.353-0.715-0.613-1.152-0.873c0.133-0.006,0.325,0.069,0.482,0.119c0.022,0.007,0.045,0.007,0.029-0.01
		c-0.31-0.323-0.828-0.625-1.498-0.854c0.118-0.018,0.353-0.019,0.535,0.033c0.024,0.007,0.033-0.01,0.013-0.026
		c-0.108-0.088-0.346-0.181-0.603-0.235c-0.271-0.057-0.572-0.136-1.103-0.201c0.031-0.078,0.322-0.084,0.387-0.078
		c0.019,0.002,0.019-0.009,0.011-0.013c-0.331-0.163-0.752-0.186-1.156-0.123c-0.324,0.051-0.622,0.155-0.956,0.294
		c-0.014-0.078-0.028-0.165-0.059-0.257l-0.357,0.485c-0.18,0.152-0.257,0.238-0.367,0.353c-0.141,0.147-0.26,0.31-0.346,0.359
		c-0.025,0.014-0.049,0.02-0.083,0.027c0.088-0.389,0.131-0.791,0.041-1.221c-0.009-0.041-0.02-0.032-0.022,0.009
		c-0.025,0.555-0.175,0.82-0.382,1.089c-0.172,0.224-0.36,0.327-0.536,0.499c-0.132,0.13-0.218,0.255-0.26,0.405
		c-0.115-0.082-0.067-0.211,0.122-0.485c0.02-0.028,0.023-0.056-0.02-0.029c-0.422,0.259-0.59,0.809-0.659,1.247
		c-0.482,0.024-0.643-0.311-0.561-0.686c0.083-0.383,0.392-0.933,0.623-1.549c0.096-0.256,0.194-0.529,0.236-0.787
		c0.143,0.104,0.213,0.196,0.258,0.339c0.07-0.289-0.06-0.621-0.178-0.878c0.142,0.054,0.23,0.117,0.278,0.197
		c0.035-0.086,0.027-0.205-0.03-0.301c-0.082-0.14-0.249-0.318-0.393-0.488c0.11,0.003,0.203-0.025,0.342-0.008
		c-0.125-0.183-0.284-0.223-0.582-0.289c0.101-0.086,0.145-0.176,0.379-0.226c-0.136-0.069-0.366-0.13-0.703-0.072
		c0.087-0.1,0.098-0.234,0.258-0.289c-0.055-0.047-0.147-0.049-0.241-0.022c-0.125,0.035-0.256,0.092-0.398,0.147
		c0.032-0.175,0.118-0.255,0.334-0.431c0.013-0.01,0.027-0.021,0.009-0.032c-0.104-0.065-0.27-0.029-0.382,0.032
		c0.012-0.206,0.384-0.622,0.675-0.738c0.019-0.008,0.022-0.029,0.002-0.031c-0.303-0.035-0.627,0.054-0.96,0.184
		c-0.151,0.06-0.323,0.146-0.483,0.18c0.043-0.06,0.071-0.116,0.082-0.165c-0.067-0.005-0.22,0.003-0.315,0.04
		c0.254-0.238,0.417-0.426,0.663-0.583c0.015-0.009,0.016-0.023-0.001-0.02c-0.37,0.072-0.68,0.187-0.925,0.316
		c-0.416,0.217-0.682,0.497-0.984,0.852c-0.019-0.045-0.024-0.116-0.014-0.21c-0.127,0.091-0.285,0.258-0.325,0.514
		c0.012,0.054,0.066,0.121,0.135,0.191l-0.297,0.314c0.016-0.323-0.018-0.571-0.202-0.824c-0.189-0.261-0.542-0.396-0.539-0.706
		c0.001-0.115,0.082-0.238,0.232-0.309c0.212-0.1,0.444-0.083,0.517-0.231c-0.107,0.113-0.33,0.117-0.509,0.186
		c-0.181,0.071-0.28,0.214-0.292,0.342c-0.012,0.128,0.042,0.239,0.14,0.343c0.114,0.121,0.295,0.248,0.414,0.427
		c0.076,0.114,0.128,0.266,0.147,0.439c0.011,0.103-0.001,0.237-0.037,0.337c-0.089-0.381-0.264-0.729-0.541-0.931
		c-0.209-0.153-0.491-0.232-0.705-0.339c-0.196-0.099-0.318-0.247-0.295-0.486c0.01-0.102,0.047-0.222,0.123-0.318
		c0.2-0.252,0.463-0.356,0.502-0.601L39.723,78.088z M42.32,80.26c0.027,0,0.056,0.012,0.006,0.081
		c-0.055,0.076-0.23,0.265-0.347,0.284c-0.069,0.011-0.164-0.08-0.208-0.154c-0.007-0.012-0.023-0.058,0.022-0.076
		c0.119-0.049,0.326-0.113,0.504-0.133C42.302,80.261,42.311,80.259,42.32,80.26L42.32,80.26z"/>
	<path id="path79" fill="#A51C22" d="M44.344,81.359c-0.038,0.021-0.085,0.049-0.135,0.093c-0.053,0.046-0.09,0.135-0.056,0.163
		c0.02,0.016,0.082-0.006,0.12-0.059C44.321,81.488,44.337,81.401,44.344,81.359L44.344,81.359z M44.04,81.101
		c-0.041,0.023-0.091,0.052-0.145,0.1c-0.057,0.051-0.096,0.144-0.06,0.174c0.021,0.018,0.088-0.006,0.129-0.063
		C44.015,81.239,44.032,81.146,44.04,81.101L44.04,81.101z M43.788,80.635c-0.084,0.047-0.19,0.109-0.3,0.206
		c-0.117,0.104-0.199,0.3-0.125,0.362c0.044,0.036,0.182-0.013,0.267-0.13C43.737,80.924,43.772,80.73,43.788,80.635z
		 M43.367,80.294c-0.098,0.078-0.196,0.105-0.258,0.165c-0.107,0.096-0.273,0.321-0.186,0.427c0.037,0.045,0.195-0.012,0.29-0.129
		C43.303,80.646,43.354,80.393,43.367,80.294z M40.755,81.184c0.199-0.056,0.391-0.123,0.59-0.226
		c-0.107-0.101-0.228-0.117-0.32-0.082C40.915,80.918,40.829,81.03,40.755,81.184L40.755,81.184z M39.744,84.511
		c-0.237-0.295-0.504-0.553-0.826-0.772c0.133-0.043,0.287-0.047,0.409-0.048l0.083,0.131l0.141,0.018l-0.003-0.008
		C39.658,84.096,39.739,84.332,39.744,84.511L39.744,84.511z M41.873,86.959c-0.332,0.153-0.229,0.453,0.103,0.801
		c0.012,0.012,0.005,0.025-0.012,0.024c-0.888-0.057-1.504-1.339-1.874-2.189c-0.004-0.004-0.008-0.009-0.012-0.013
		c0.002,0.001,0.003,0.003,0.005,0.004c0.18,0.18,0.579,0.725,1.071,1.068C41.407,86.832,41.649,86.953,41.873,86.959L41.873,86.959
		z M43.61,87.925c-0.557-0.277-0.818-0.505-1.113-0.849c-0.014-0.016-0.025-0.03-0.039-0.048c-0.25-0.348-0.44-0.732-0.524-1.366
		l0.003,0c-0.046-0.431-0.016-0.815,0.12-1.18c0.193-0.517,0.536-0.975,0.696-1.497c0.106-0.347,0.113-0.733-0.128-1.032
		c-0.115-0.143-0.306-0.288-0.497-0.26l0,0c0.061-0.029,0.185-0.068,0.26-0.074c0.293-0.023,0.649,0.135,0.721,0.496
		c0.152,0.768-0.337,1.455-0.479,2.189c-0.101,0.524-0.108,1.02-0.054,1.497c0.064,0.564,0.238,0.954,0.451,1.24
		c0.204,0.275,0.445,0.493,0.62,0.813C43.638,87.875,43.624,87.903,43.61,87.925L43.61,87.925z M52.906,88.304
		c-0.464-0.15-0.929-0.391-1.393-0.694c-0.415,0.248,0.03,0.702,0.183,1.003c0.07,0.137-0.004,0.215-0.073,0.207
		c-0.217-0.025-0.566-0.053-0.962-0.052c0.019-0.183-0.061-0.336-0.299-0.509l0.07,0.01c0.138,0.02,0.267-0.022,0.349-0.178
		c-0.944-0.523-1.533-0.871-1.273-1.257c0.06-0.089,0.18-0.156,0.301-0.246c0.092-0.069,0.173-0.15,0.298-0.267
		c-0.371-0.589-0.736-0.925-1.095-1.073c-0.561-0.231-1.046,0.092-1.461,0.605c-0.45,1.042-1.329,1.798-2.267,2.072l-0.086-0.065
		c0.102-0.135,0.139-0.271,0.168-0.384c0.076-0.289,0.029-0.511,0.325-0.789c-0.161-0.008-0.267,0.009-0.408,0.115
		c-0.181-0.666,0.317-0.806,0.756-1.204c0.222-0.201,0.452-0.425,0.589-0.749c-0.119,0.124-0.264,0.227-0.422,0.237
		c0.037-0.167,0.3-0.428,0.488-0.571c0.532-0.346,0.963-0.456,1.381-0.474c0.814-0.035,1.624,0.283,2.31,1.224
		c0.19,0.445,0.806,1.326,1.291,1.865c0.369,0.411,0.795,0.799,1.282,0.985c-0.015,0.065-0.029,0.131-0.05,0.187L52.906,88.304z
		 M40.854,81.808c0.101-0.011,0.197-0.043,0.295-0.108l0.013,0.076C41.053,81.853,40.938,81.843,40.854,81.808L40.854,81.808z
		 M41.24,81.626c0.116-0.083,0.232-0.213,0.347-0.391c0.08,0.001,0.161-0.005,0.18-0.009c-0.136,0.199-0.263,0.329-0.447,0.477
		C41.291,81.673,41.271,81.654,41.24,81.626L41.24,81.626z M41.269,79.949l0.001,0.002c0.112-0.132,0.219-0.253,0.331-0.365
		c0.341,0.007,0.607-0.062,0.929-0.212l-0.013,0.012c0.095-0.037,0.248-0.046,0.315-0.04c-0.011,0.049-0.039,0.105-0.082,0.165
		c0.16-0.033,0.332-0.121,0.483-0.18c0.333-0.13,0.657-0.219,0.961-0.184c0.021,0.002,0.018,0.023-0.002,0.031
		c-0.009,0.004-0.018,0.007-0.027,0.011c-0.606,0.147-1.182,0.44-1.455,1.012c-0.047-0.236-0.19-0.496-0.363-0.584
		c-0.213,0.208-0.514,0.459-0.626,0.445c-0.084-0.01-0.014-0.197,0.087-0.363c-0.145-0.022-0.258,0.232-0.382,0.346
		c-0.045-0.038-0.126-0.033-0.242,0.014C41.212,80.022,41.24,79.984,41.269,79.949L41.269,79.949z M56.872,84.707
		c0.101,0.215,0.169,0.448,0.203,0.691c0.057,0.406,0.036,0.865-0.114,1.252c-0.122,0.312-0.335,0.614-0.596,0.887
		c-0.351,0.367-0.813,0.679-1.403,0.825c-0.296,0.073-0.603,0.092-0.968,0.103c0.061-0.271,0.171-0.736,0.299-1.019
		c0.072-0.16,0.273-0.269,0.514-0.323c0.55-0.123,1.331-0.039,1.799-0.572C56.996,86.107,57.005,85.381,56.872,84.707L56.872,84.707
		z"/>
</g>
<g id="bluebird" transform="matrix(.17833 0 0 .17833 -5.2413 -25.043)">
	<path id="path19" fill="#F2F2F2" d="M195.83,404.26l6.261,6.724c0.183,7.958,3.296,15.857,7.631,22.607
		c5.232,8.147,15.985,14.898,24.596,21.508c-2.509,11.128-0.5,20.86,4.24,30.066c6.514,12.652,16.796,22.04,28.396,30.652
		c9.919,7.363,20.836,14.292,30.819,20.735c9.746,6.291,19.976,12.659,31.182,17.844c2.848,1.318,5.012,1.712,7.952,1.4
		c-13.987-6.455-27.643-19.332-36.439-29.728c-12.357-14.604-13.099-15.692-15.128-25.303c-2.65-12.549,3.556-19.84,13.458-23.282
		c15.305-5.319,40.676-0.884,50.298,2.133c18.459,5.786,35.726,13.06,54.656,24.28c-6.523-6.94-24.302-20.214-36.703-28.187
		c-10.604-6.818-15.724-11.322-27.659-15.584c7.251-2.531,14.114-4.774,23.053-6.789c13.728-3.094,24.657-5.07,42.414-7.752
		c0.898-0.136,1.895-0.477,2.266-1.026c-17.388,0.441-31.408,0.492-48.771-0.21c-9.932-0.402-21.964-1.216-30.722-2.412
		c-6.609-0.902-14.679-3.79-21.06-6.806c-9.055-4.28-14.098-8.199-17.973-16.576c-8.5-18.375-0.771-38.498,15.048-50.839
		c8.01-6.249,16.624-9.848,33.115-13.821c-2.009-0.973-4.706-1.598-9.172-1.4c-10.984,0.487-28.187,4.556-37.832,8.835
		c-16.467,7.306-31.996,14.385-40.906,24.418c-7.068,7.959-11.716,16.604-12.806,27.388c-10.634-7.866-24.181-11.787-31.915-6.989
		L195.83,404.26z"/>
	<path id="path21" fill="#005995" d="M190.28,403.12l5.697,7.333c1.122,8.279,5.185,15.674,9.811,22.472
		c5.584,8.204,14.563,19.117,22.123,25.278l65.772,54.865c-12.71-17.056-14.967-29.78-7.987-37.02
		c7.724-8.012,25.247-10.219,38.715-9.353c28.01,1.8,57.655,14.092,83.222,27.222c-6.833-6.929-21.423-13.889-34.2-21.709
		c-10.926-6.686-48.685-17.981-60.845-22.009l-81.806-38.637c-10.998-7.762-24.641-12.256-32.215-7.114L190.28,403.12z"/>
	<path id="path23" fill="#0070B5" d="M190.04,397.47l6.56,6.716c0.505,8.155,3.951,16.166,8.578,22.965
		c5.584,8.205,13.454,15.417,22.369,21.949c-2.071,11.484,0.34,21.406,5.474,30.712c5.296,9.601,13.843,18.544,26.269,27.607
		c6.373,4.648,13.579,8.969,21.822,13.875c14.712,8.757,31.87,19.069,49.34,26.682c2.915,1.27,5.103,1.612,8.044,1.208
		c-14.31-6.218-29.18-19.392-38.435-29.801c-13.002-14.623-20.451-27.696-22.896-37.49c-3.168-12.688,2.83-18.854,14.05-20.545
		c9.195-1.386,22.206-0.258,36.894,2.301c8.234,1.434,17.072,3.478,26.218,6.111c18.776,5.405,37.942,13.464,53.435,24.288
		c-6.833-6.929-22.778-17.695-35.557-25.516c-10.892-6.666-23.476-13.818-35.601-17.853c-0.101-0.032-0.072-0.059,0.002-0.084
		c7.15-2.786,15.153-5.303,24.002-7.613c13.664-3.568,29.154-5.785,45.875-9.398c0.891-0.193,1.884-0.544,2.235-1.117
		c-8.7,0.474-16.783,0.686-24.363,0.936c-10.388,0.343-19.762,0.586-28.219,0.478c-9.992-0.127-23.349-0.581-32.194-1.556
		c-6.675-0.736-14.896-3.465-21.428-6.375c-9.268-4.129-16.676-9.966-20.908-18.446c-2.447-4.905-3.703-10.06-3.718-15.104
		c-0.042-13.403,7.497-26.578,18.091-35.603c7.794-6.639,17.662-10.616,34.675-15.434c-2.057-0.94-5.277-1.237-9.755-0.905
		c-11.014,0.816-27.776,4.965-37.944,8.763c-16.949,6.33-31.868,17.199-40.412,27.744c-6.778,8.365-11.097,17.364-11.756,28.454
		c-10.998-7.762-24.764-11.393-32.338-6.25L190.04,397.47z"/>
</g>
<path id="path17" fill="#0070B5" fill-opacity="0" stroke="#0070B5" stroke-miterlimit="10" d="M48.013,31.386
	c12.542,0,22.713,10.162,22.713,22.692S60.555,76.77,48.013,76.77S25.3,66.608,25.3,54.078S35.471,31.386,48.013,31.386z
	 M48.013,31.635c12.404,0,22.463,10.05,22.463,22.443S60.417,76.521,48.013,76.521S25.55,66.471,25.55,54.078
	S35.609,31.635,48.013,31.635z M47.913,29.776c13.423,0,24.308,10.877,24.308,24.29s-10.885,24.29-24.308,24.29
	s-24.308-10.877-24.308-24.29S34.49,29.776,47.913,29.776z M47.925,30.724c12.906,0,23.372,10.453,23.372,23.342
	S60.831,77.408,47.925,77.408S24.553,66.955,24.553,54.066S35.019,30.724,47.925,30.724z"/>
<path id="path25" fill="#FFFFFF" d="M31.966,50.963l3.771,0.033c-0.764-3.3-2.761-4.46-5.421-4.288
	C30.598,48.479,31.157,50.088,31.966,50.963L31.966,50.963z M37.046,57.087c-0.116,1.653,0.523,2.96,1.253,4.034
	c1.258,1.851,3.042,3.284,4.85,4.543c-1.475-1.571-2.751-3.139-3.569-4.707c-0.548-1.051-0.968-2.102-0.95-3.155l-0.55,0.632
	C37.958,58.575,37.473,57.989,37.046,57.087L37.046,57.087z M37.354,48.049l1.056,0.88l0.747-0.121
	c-0.311-1.54-0.289-2.966,0.052-4.271c0.34-1.305,0.988-2.501,2.07-3.547c-1.393,0.597-2.441,1.65-3.107,2.98
	C37.621,45.072,37.365,46.351,37.354,48.049L37.354,48.049z M31.944,47.668c0.11,0.241,0.54,0.908,0.845,0.987
	c0.313,0.082,0.651-0.433,0.417-0.713C33.045,47.75,32.178,47.668,31.944,47.668z"/>
</svg>
