<svg xmlns="http://www.w3.org/2000/svg" width="480" height="480" viewBox="0 0 480 480"><path fill="#DBA111" d="M478.348 240.488c0 131.273-106.416 237.676-237.676 237.676-131.267 0-237.675-106.402-237.675-237.676 0-131.261 106.408-237.675 237.675-237.675 131.26.001 237.676 106.414 237.676 237.675"/><path fill="#034694" d="M470.418 240.488c0 126.889-102.858 229.746-229.746 229.746-126.891 0-229.749-102.857-229.749-229.746 0-126.891 102.859-229.749 229.749-229.749 126.888 0 229.746 102.859 229.746 229.749"/><path fill="#DBA111" d="M404.396 240.488c0 90.424-73.301 163.715-163.725 163.715-90.428 0-163.733-73.291-163.733-163.715 0-90.432 73.305-163.733 163.733-163.733 90.425 0 163.725 73.302 163.725 163.733"/><path fill="#FFF" d="M399.443 240.488c0 87.688-71.094 158.771-158.771 158.771-87.688 0-158.772-71.084-158.772-158.771S152.984 81.716 240.672 81.716c87.678 0 158.771 71.085 158.771 158.772"/><path fill="#DBA111" d="M104.628 377.465c1.757 1.676 6.079 5.793 6.079 5.793l4.143-4.363-12.357-11.781-1.59 1.668-16.593 17.395 6.3 5.996s5.321-5.58 7.268-7.613c1.627 1.545 5.531 5.266 5.531 5.266l4.146-4.352s-3.898-3.719-5.523-5.275c1.03-1.088 1.554-1.638 2.596-2.734m29.803 19.865c-.559-3.336-2.432-6.283-5.266-8.297-2.821-2.004-6.207-2.795-9.543-2.248-3.593.611-6.821 2.705-9.095 5.887-2.266 3.203-3.181 6.935-2.571 10.543.561 3.326 2.421 6.254 5.246 8.268 2.827 2.01 6.238 2.815 9.569 2.254 3.591-.607 6.821-2.703 9.087-5.895 1.814-2.531 2.76-5.43 2.76-8.328.001-.721-.06-1.463-.187-2.184m-17.746 9.24c-2.888-2.043-.504-6.314 1.178-8.662 1.678-2.367 4.931-6.027 7.819-3.986 3.014 2.156.198 6.814-1.154 8.705-1.356 1.912-4.823 6.098-7.843 3.943zm37.17-2.644c-6.65-3.365-14.342-.607-17.874 6.395-1.77 3.5-2.116 7.342-.976 10.799 1.053 3.213 3.336 5.834 6.431 7.391 3.095 1.576 6.578 1.85 9.797.793 3.455-1.127 6.337-3.68 8.096-7.178 3.547-7.015 1.189-14.835-5.474-18.2m-7.355 19.459c-.78.256-1.52.176-2.36-.242-1.319-.672-1.783-1.873-1.783-3.215 0-1.857.893-4.045 1.65-5.537 1.313-2.594 3.976-6.691 7.137-5.096.835.426 1.333.979 1.586 1.75.529 1.596-.003 4.217-1.428 7.025-1.418 2.805-3.212 4.789-4.802 5.315zm21.089-9.83l-1.224 3.508s3.13 1.098 4.08 1.412c-1.198 3.426-6.72 19.188-6.72 19.188l8.199 2.875s5.531-15.748 6.726-19.174c.956.334 4.087 1.422 4.087 1.422l1.987-5.662-16.373-5.744-.762 2.175m34.042 7.607l-11.08-2.34-.474 2.254-4.952 23.516 11.276 2.391c3.604.744 5.977-.141 7.33-1.016 1.718-1.121 2.922-2.959 3.385-5.156a8.374 8.374 0 0 0 .188-1.746 7.026 7.026 0 0 0-1.413-4.25c1.27-1.008 2.176-2.432 2.553-4.209a7.49 7.49 0 0 0 .153-1.518c0-3.01-1.719-6.832-6.966-7.926m-3.05 17.953c-.118.537-.334 1.248-.741 1.514-.376.244-1.099.275-2.035.072 0 0-.426-.094-.93-.193.36-1.697.601-2.826.952-4.525.482.113 1.098.234 1.098.234 1.454.307 1.733 1.383 1.733 2.164.001.314-.039.58-.077.734zm-.757-12.586c.973.221 1.688.578 1.963.994.126.191.188.459.188.775 0 .193-.026.412-.076.678-.149.691-.351 1.646-2.268 1.252 0 0-.239-.06-.568-.133.306-1.423.451-2.134.761-3.566zm24.262-1.537l-12.035 24.645 6.872.527s1.86-3.926 2.603-5.49c1.454.121 2.911.223 4.336.338.533 1.647 1.876 5.824 1.876 5.824l9.144.711-10.217-31.67-2.579 5.115m27.137 19.672l-.844-19.998-8.684.365 1.098 26.315 17.402-.721-.26-6.316s-6.216.265-8.712.355m23.82-2.521l-3.1-19.772-2.277.365-6.318.984 4.078 26.029 17.215-2.705-.986-6.244c-.001.001-6.141.97-8.612 1.343m49.836-17.506c-.07 2.256-1.4 4.199-3.475 5.022-1.15.457-2.248.457-3.346-.01-1.69-.723-3.252-2.551-4.193-4.9-1.105-2.773-1.33-5.125-.605-6.781.498-1.158 1.475-2.023 2.967-2.621 1.617-.641 3.152-.051 5.256 1.189l1.93 1.137 3.205-5.053-1.902-1.25c-3.496-2.297-7.824-2.766-11.57-1.271-3.473 1.385-6.168 3.977-7.592 7.291-1.445 3.363-1.445 7.207.021 10.857 2.766 6.914 10.582 10.32 17.416 7.584 4.939-1.973 7.734-5.725 8.09-10.85l.162-2.287-6.291-.467-.073 2.41m20.271-7.188c-1.779-3.162-9.77-17.498-9.77-17.498l-2.002 1.129-5.592 3.123 12.852 22.994 15.195-8.488-3.076-5.52c.001.001-5.439 3.032-7.607 4.26m16.901-35.463l-1.863 1.363-3.264 2.4 10.666 14.539c.488.658.488 1.096.445 1.352-.1.75-.883 1.565-1.574 2.063-.326.232-1.08.549-1.851.426-.549-.08-.986-.377-1.373-.902l-10.541-14.375-7.025 5.143 10.49 14.303c1.557 2.117 3.49 3.369 5.746 3.713 2.531.395 5.408-.467 8.082-2.443 5.5-4.023 5.41-9.361 3.01-12.633l-10.948-14.949m32.004-5.285c-1.617-1.678-3.611-2.432-5.705-2.318a7.105 7.105 0 0 0-2.012-4.484c-2.197-2.268-7.109-4.035-11.631.367l-8.135 7.867 18.33 18.924 8.277-8.023c2.643-2.563 3.225-5.043 3.252-6.648.042-2.056-.804-4.07-2.376-5.685m-13.848-.638c.273.291.607.631.607 1.105 0 .387-.211.867-.844 1.473l-.406.408a563.185 563.185 0 0 0-2.553-2.635c1.833-1.684 2.594-.965 3.196-.351zm4.34 6.515c1.486-1.434 2.916-.174 3.324.254.396.397.844.955.844 1.44v.016c-.01.447-.387 1.066-1.068 1.727 0 0-.316.307-.691.66-1.199-1.24-2.01-2.072-3.211-3.305.355-.354.802-.792.802-.792z"/><path fill="#FFF" d="M104.571 375.023c.717.691 6.069 5.795 6.069 5.795l1.765-1.861-9.861-9.404-.397.416-15.392 16.147 3.791 3.619s6.558-6.873 7.264-7.625l5.541 5.277 1.768-1.853-5.542-5.275c.642-.671 4.36-4.573 4.994-5.236m23.587 15.415c-2.444-1.74-5.369-2.434-8.24-1.955-3.152.541-5.979 2.381-7.98 5.197-2.007 2.826-2.813 6.1-2.277 9.24.481 2.879 2.099 5.42 4.546 7.156 2.459 1.75 5.396 2.432 8.28 1.951 3.135-.527 5.966-2.375 7.964-5.172 1.597-2.256 2.441-4.811 2.441-7.342 0-.631-.055-1.27-.158-1.9-.49-2.877-2.111-5.425-4.576-7.175m-2.225 13.197c-1.654 2.314-5.959 7.398-10.244 4.348-4.27-3.031-.88-8.762.767-11.09 1.652-2.328 5.959-7.402 10.223-4.371 4.286 3.058.906 8.793-.746 11.113zm27.143 1.84c-5.77-2.918-12.455-.49-15.555 5.641-1.561 3.082-1.869 6.436-.878 9.477.91 2.762 2.888 5.022 5.571 6.371 2.689 1.375 5.704 1.619 8.481.705 3.021-.998 5.544-3.236 7.104-6.316 3.091-6.13 1.063-12.962-4.723-15.878m-9.714 19.201c-4.672-2.348-2.185-8.531-.895-11.07 1.287-2.551 4.784-8.217 9.449-5.846 1.242.621 2.071 1.545 2.466 2.754.915 2.799-.57 6.416-1.54 8.338-.965 1.908-3.003 5.254-5.805 6.172-1.199.406-2.439.283-3.675-.348zm25.865-10.555l-.662 1.873 4.083 1.436c-.362 1.025-6.726 19.172-6.726 19.172l4.946 1.738s6.369-18.146 6.725-19.174l4.083 1.426.852-2.41-13.12-4.605-.181.544m32.055 8.725l-9.391-1.982-.127.57-4.59 21.838 9.582 2.012c2.436.51 4.463.256 6.031-.772 1.357-.885 2.266-2.297 2.638-4.055.095-.48.152-.938.152-1.385 0-1.91-.947-3.527-2.638-4.686 1.958-.56 3.36-2.004 3.811-4.141.077-.334.123-.728.123-1.176 0-2.186-1.149-5.286-5.591-6.223m-3.283 1.933c1.579.334 2.672.938 3.228 1.797.32.488.478 1.059.478 1.723 0 .324-.042.66-.118 1.025-.61 2.908-2.96 2.877-4.31 2.582 0 0-1.43-.295-2.259-.469.193-.895 1.283-6.08 1.471-6.973.6.122 1.51.315 1.51.315zm-.722 9.748c2.668.561 3.089 2.666 3.089 3.945 0 .549-.086.943-.097 1.006-.269 1.262-.75 2.115-1.489 2.592-.781.521-1.906.621-3.329.326 0 0-1.708-.365-2.623-.547.197-.938 1.474-6.988 1.667-7.91.782.163 2.782.588 2.782.588zm26.366-8.775l-10.923 22.359 3.146.234s2.313-4.859 2.618-5.48l6.668.518c.209.641 1.877 5.826 1.877 5.826l5.418.418-8.113-25.154-.691 1.279m-1.199 8.988c.528 1.689 1.544 4.945 1.88 6.008-1.079-.08-3.564-.273-4.632-.353l2.752-5.655zm25.12 11.725c-.043-1.088-.846-19.998-.846-19.998l-.557.022-4.676.191.961 22.875 13.955-.592-.123-2.855c.001-.001-7.706.324-8.714.357m24.045-2.328c-.174-1.078-3.111-19.795-3.111-19.795l-.559.09-4.615.732 3.547 22.613 13.797-2.178-.445-2.826s-7.627 1.198-8.614 1.364m52.989-19.461c-.082 2.978-1.83 5.502-4.555 6.6-1.586.631-3.152.609-4.666-.041-2.133-.902-3.996-3.039-5.125-5.844-1.27-3.203-1.475-6.008-.588-8.105.691-1.586 2.004-2.773 3.924-3.535 2.512-1.006 4.818.141 6.77 1.299l.488.285 1.404-2.205-.471-.316c-3.029-1.984-6.768-2.398-9.99-1.109-3.051 1.221-5.42 3.477-6.65 6.367-1.262 2.926-1.25 6.322.041 9.523 2.408 6.041 9.207 9.008 15.178 6.629 4.33-1.738 6.68-4.879 6.994-9.363l.041-.578-2.764-.193-.031.586m17.882-4.879c-.539-.945-9.771-17.486-9.771-17.486l-.508.283-4.066 2.279 11.152 19.969 12.191-6.805-1.385-2.5c.001 0-6.749 3.76-7.613 4.26m17.194-35.4l-.471.346-1.869 1.373 9.648 13.145c.648.885.902 1.768.762 2.633-.23 1.566-1.656 2.768-2.254 3.195-.682.516-1.934.943-3.135.748-1.016-.15-1.85-.688-2.521-1.584l-9.525-12.992-4.219 3.111 9.463 12.9c1.273 1.74 2.828 2.766 4.615 3.031 2.818.426 5.463-1.141 6.793-2.113 4.566-3.358 4.627-7.557 2.654-10.229l-9.941-13.564m31.139-6.495c-1.77-1.832-4.037-2.25-6.385-1.346a5.243 5.243 0 0 0 .297-1.666c0-1.359-.541-2.684-1.629-3.803-1.473-1.514-5.287-3.387-9.189.406l-6.893 6.68 15.918 16.432 7.047-6.834c1.779-1.707 2.707-3.547 2.727-5.408.026-1.625-.634-3.162-1.893-4.461m-10.28-.714c0 1.152-.75 2.096-1.352 2.685 0 0-1.057 1.027-1.656 1.615-.641-.66-4.332-4.461-4.963-5.135.428-.414 1.102-1.055 1.102-1.055 2.154-2.098 4.045-2.238 5.781-.438.795.826 1.088 1.607 1.088 2.328zm4.385 11.925c-.652-.672-4.953-5.123-5.613-5.795.568-.547 2.041-1.98 2.041-1.98 2.809-2.707 5.656.162 5.777.295.885.914 1.32 1.779 1.32 2.639v.033c-.01.945-.557 1.934-1.596 2.961.001 0-1.37 1.32-1.929 1.847z"/><path fill="#DBA111" d="M135.077 83.914l-9.607 2.591 1.103 3.441c1.327 4.172.126 8.539-3.127 11.392-1.809 1.586-3.898 2.314-6.202 2.156-3.501-.235-7.453-2.501-10.567-6.065-3.67-4.204-5.501-8.251-5.268-11.681.162-2.501 1.378-4.698 3.711-6.742 2.577-2.257 5.845-2.169 10.278-1.29l3.288.65 2.127-9.201-3.31-.807c-7.117-1.761-14.539-.031-19.834 4.604-10.37 9.074-11.216 23.893-1.967 34.47 8.595 9.826 23.508 10.897 33.228 2.395 7.001-6.115 9.44-13.939 7.062-22.602l-.915-3.311m26.088-48.185l-9.813 4.621s5.477 11.609 7.361 15.61c-2.799 1.316-5.51 2.597-8.311 3.92-1.89-3.998-7.371-15.612-7.371-15.612l-12.921 6.1 19.678 41.74 12.932-6.097s-6.097-12.91-8.058-17.096c2.801-1.311 5.51-2.591 8.317-3.913l8.056 17.087 12.929-6.101-19.672-41.73-3.127 1.471m43.75 25.858c-.63-3.108-1.27-6.27-1.892-9.374 3.992-.803 14.6-2.945 14.6-2.945l-1.866-9.271-14.608 2.952c-.575-2.842-1.051-5.229-1.63-8.067 4.146-.836 15.498-3.13 15.498-3.13l-1.871-9.267-3.396.682-26.113 5.281 9.129 45.237 29.748-6.014-1.869-9.262c0 .001-11.556 2.329-15.73 3.178m42.194-40.175l-14.306-.297-.071 3.45-.893 42.686 30.029.63.215-9.995s-11.529-.248-15.742-.334l.768-36.14m46.358 23.273c-3.711-2.726-4.797-3.819-4.422-5.308.184-.772 1.025-3.237 3.691-2.577 1.605.412 3.201 1.257 3.912 4.709l.781 3.832 9.447-3.192-.588-2.974c-1.162-5.841-6.102-10.813-12.303-12.362-4.441-1.103-8.893-.513-12.547 1.682-3.354 2.009-5.713 5.18-6.646 8.933-2.371 9.46 4.006 14.015 8.221 17.033 4.324 3.091 5.422 4.301 4.762 6.883-.207.807-.682 1.444-1.426 1.895-.865.509-1.951.693-2.834.463-2.272-.559-3.254-1.632-4.211-4.569l-1.16-3.521-9.477 3.876.918 3.009c1.777 5.847 6.018 9.532 12.961 11.271 7.801 1.952 17.266-1.636 19.625-11.004 2.458-9.87-4.261-14.816-8.704-18.079m34.129 24.613l13.291 6.72 4.268-8.438-13.287-6.714c1.299-2.588 2.4-4.764 3.697-7.347l14.117 7.133 4.256-8.438-26.862-13.574-1.553 3.075-19.267 38.109 27.086 13.68 4.271-8.433s-10.525-5.317-14.328-7.232c1.424-2.832 2.887-5.709 4.311-8.541m53.496 4.31l-43.041 22.271 8.234 7.161s7.104-3.777 9.686-5.133c1.92 1.672 4.75 4.134 6.639 5.775a5766.29 5766.29 0 0 1-3.557 10.467l11.344 9.87 18.402-54.263-7.707 3.852"/><path fill="#FFF" d="M133.464 86.722l-5.073 1.379.372 1.148c1.612 5.064.158 10.361-3.807 13.828-2.277 1.998-4.932 2.913-7.865 2.724-4.158-.279-8.58-2.775-12.149-6.857-4.081-4.672-6.104-9.291-5.836-13.359.21-3.089 1.724-5.887 4.5-8.315 3.645-3.187 8.234-2.605 12.241-1.811l1.101.213 1.11-4.809-1.103-.275c-6.396-1.57-13.033-.035-17.771 4.113-9.374 8.21-10.128 21.619-1.745 31.211 7.758 8.87 21.204 9.842 29.982 2.176 6.365-5.582 8.504-12.388 6.348-20.251l-.305-1.115m28.681-48.92l-7.72 3.65 7.354 15.604c-1.652.783-10.822 5.11-12.486 5.887-.853-1.816-7.348-15.606-7.348-15.606l-8.775 4.134 17.715 37.565 8.769-4.128s-7.192-15.245-8.058-17.09c1.663-.783 10.822-5.099 12.485-5.885.864 1.84 8.058 17.094 8.058 17.094l8.758-4.138-17.714-37.571-1.038.484M203.107 64.3c-.36-1.805-2.435-12.083-2.796-13.888 1.921-.386 14.598-2.948 14.598-2.948l-.96-4.746s-12.673 2.551-14.605 2.942c-.351-1.77-2.18-10.813-2.531-12.581 1.936-.397 15.489-3.127 15.489-3.127l-.961-4.747-24.99 5.043 8.22 40.716 25.229-5.093-.959-4.748c-.001.002-13.782 2.782-15.734 3.177m41.647-40.629l-9.688-.21-.021 1.144-.858 40.387 25.433.539.113-5.391-15.74-.333c.05-2.155.761-36.136.761-36.136m48.541 10.901c3.08.771 4.859 2.829 5.613 6.474l.262 1.274 5.053-1.708-.191-.997c-.998-4.977-5.256-9.23-10.605-10.574-3.844-.959-7.674-.456-10.797 1.419-2.826 1.698-4.818 4.373-5.602 7.528-1.99 7.935 3.182 11.631 7.33 14.596 4.199 3.003 6.73 5.053 5.652 9.312-.428 1.773-1.586 2.786-2.479 3.319-1.383.829-3.082 1.088-4.574.722-3.063-.768-4.639-2.415-5.836-6.089l-.389-1.174-5.246 2.14.305 1.007c1.525 5.011 5.229 8.188 11.326 9.714 6.699 1.673 14.816-1.358 16.816-9.337 2.084-8.363-3.406-12.41-7.848-15.658-3.771-2.784-6.049-4.645-5.275-7.721.678-2.75 2.956-5.13 6.485-4.247m41.256 15.857c1.768.889 14.102 7.122 14.102 7.122l2.195-4.327-22.75-11.493-.521 1.026-18.217 36.051 22.963 11.605 2.188-4.325s-12.537-6.339-14.313-7.24c.828-1.646 5.559-10.993 6.381-12.64l13.287 6.714 2.199-4.327s-11.549-5.825-13.299-6.714c.814-1.606 4.972-9.845 5.785-11.452m47.599 25.229l-40.025 20.714 4.473 3.889 9.689-5.136c.996.87 8.031 6.99 9.006 7.839a5591.454 5591.454 0 0 1-3.568 10.457l7.596 6.604 15.465-45.603-2.636 1.236m-21.228 17.084c1.893-.979 6.73-3.492 9.68-5.027-1.098 3.136-2.908 8.3-3.602 10.31a1528.526 1528.526 0 0 0-6.078-5.283z"/><path fill="#D1D3D4" d="M354.221 234.252c-3.283-8.694-14.586-12.471-25.272-8.438-4.455 1.676-8.103 4.478-10.592 7.786 7.055-20.136 35.793-24.409 35.793-43.142 0-31.399-44.59-22.604-38.102.005 0-10.258 16.326-12.138 16.326 0 0 12.14-28.467 20.101-28.467 40.61 0 22.608 22.613 24.7 20.324 45.379-.387 3.566-4.221 8.25-9.773 8.25-34.635 0-22.272-42.635-34.373-55.61l.633-8.76c6.996 4.29 25.557-5.76 13.338-21.08 0 7.534-15.688 7.117-15.688-7.117 0-19.26 18.006-9.21 18.881-4.957-.863-7.014-1.19-11.465-.031-15.507-9.707 3.13-10.615-2.481-9.387-4.652 1.406-2.511 3.287-5.444 7.07-5.444 2.043 0 3.272.285 3.994.783 1.209.827 2.092-1.063 1.92.695 1.039-1.581.623.393 1.625-1.193 1.021-1.575 2.395-3.357 4.813-5.729l-.104-3.553 2.828 1.037 2.715-4.391c-2.93-6.075-6.906-3.149-9.834-10.681-2.449-.636-40.59 3.512-39.484-11.703-3.111 0-10.477 1.704-5.918 7.899-3.545.427-6.1-3.599-11.445 7.29 6.695-1.255 3.229 6.227 3.229 8.357 0 13.796-18.365 13.563-18.365 7.101-4.426 4.301-1.915 13.706 4.779 16.023 0 0-2.546 10.06-8.83 16.439-9.328-.372-24.293-1.993-32.902-10.131-3.713-3.507-6.661-5.418-9.172-6.4v-4.56c3.676-1.799 7.707-4.983 11.896-10.304 3.268-3.991 5.037-9.109 4.561-14.544a23.16 23.16 0 0 0-.272-1.915c-.035-.199-.085-.392-.13-.59a16.668 16.668 0 0 0-.325-1.29c-.061-.21-.118-.423-.184-.63a18.292 18.292 0 0 0-.467-1.261c-.071-.173-.121-.357-.204-.518a18.927 18.927 0 0 0-.774-1.603c-.12-.213-.247-.412-.364-.608-.193-.316-.376-.636-.579-.941a37.442 37.442 0 0 0-.509-.731c-.178-.233-.366-.472-.549-.706-.203-.25-.403-.515-.62-.763a9.666 9.666 0 0 0-.452-.473 20.151 20.151 0 0 0-1.75-1.694c-.051-.044-.112-.101-.172-.148a20.039 20.039 0 0 0-1.363-1.053 23.272 23.272 0 0 0-1.193-.792c-.025-.015-.048-.026-.066-.044a22.667 22.667 0 0 0-13.66-3.259c-12.046.96-20.999 11.024-19.994 22.482.783 8.927 7.367 16.057 15.927 18.331-3.003 1.676-5.54 2.643-6.113 2.643.095.06.219.132.355.219.035.015.076.04.118.063.116.075.254.152.395.228.035.02.078.04.112.061.193.097.392.198.616.305.035.015.077.029.112.046.198.092.4.188.614.27.061.028.127.053.193.075.524.219 1.114.415 1.759.6.092.025.189.046.268.071.261.066.526.127.8.193.09.015.182.035.279.055.346.063.707.123 1.071.167.031 0 .063.017.092.017v2.593c-.136.03-.259.044-.386.064-3.918.645-6.464 1.851-7.615 5.339-1.144 3.501.031 4.766 1.866 7.222-1.55 2.771-5.612 3.807-.311 9.929-.386 2.313.103 5.994 3.468 7.111 1.098.372 2.013.57 2.978.737l-.004 45.896c-3.356 1.779-5.012 3.996-5.928 6.064 0 0-2.694-5.982-2.516 5.867 3.061-2.375 1.856 2.75 1.856 2.75-4.168 5.4 1.127 5.107 1.127 5.107 3.59-3.586 2.858 1.625 2.858 1.625 0 6.356 2.581 8.842 2.603 8.852v34.965l-3.049.01.029 9.648 5.332-.01c-2.992 1.242-4.966 4.197-4.678 7.463.362 4.117 4.165 7.176 8.496 6.842 4.327-.348 7.543-3.957 7.174-8.084-.245-2.848-2.132-5.172-4.698-6.24l4.92-.014-.02-9.648-2.934.012.005-31.023a7.24 7.24 0 0 0 1.969.717c.283.053.564.092.853.111.127.021.259.021.386.025-.789-4.078 1.647-6.781 1.647-6.781 1.251-1.883 3.06-3.35 5.119-4.387 6.157-3.088 14.559-2.307 17.07 2.721 15.911-4.195 29.585-20.186 29.585-20.186l7.832 13.33c-16.606 5.551-52.774 36.994-27.667 47.883-.009 3.17-.434 26.697-15.52 24.828-21.726-2.676-27.144 6.313-22.972 16.418-1.961 8.52 4.601 11.479 4.601 11.479-.985-4.922 1.382-9 10.361-8.949-.046 8.98 5.753 10.598 5.753 10.598.04-7.69 5.384-10.537 10.131-10.516-.035 6.336 7.326 8.744 7.326 8.744s-1.866-7.301 6.455-8.744c21.065-3.67 1.281-25.334 33.315-31.303 0 0-15.951-2.406-15.951-11.125 0-7.936 14.439-13.365 19.41-13.365 10.195 19.478 21.27 19.633 24.174 19.773 4.514 5.043 3.002 22.041-3.516 21.707-23.861-1.281-22.988 13.234-20.314 16.203-.305 5.633 4.078 8.887 4.078 8.887 0-6.039 5.746-7.738 13.115-7.338-.387 7.377 4.313 8.479 4.313 8.479.129-7.424 5.621-8.682 9.523-8.479-.285 5.203 4.879 6.736 4.879 6.736s-.508-6.605 6.445-6.605c13.189-.01-5.965-28.273 19.775-56.223-22.611 10.465-34.639-15.697-34.639-20.717 11.621 13.598 49.299 16.314 49.299-6.916 0-22.193-24.391-30.461-12.98-38.949 6.637-4.936 19.691 5.035 12.221 15.334 10.702-3.973 16.669-14.343 13.394-23.032m-144.521.701c-8.524 5.012-14.239 11.352-22.01 14.128-1.18.414-2.121.533-2.939.479v-43.316c2.059.193 7.402.924 13.649 3.507 6.187 3.376 6.187 10.353-1.621 12.008 4.935 9.449 22.03 4.823 25.756-2.873 1.825-.162 3.438 3.096 4.955 6.176-2.399 1.245-7.308 3.721-17.79 9.891zm95.409-71.808c-.938 1.272-1.863 2.537-2.672 3.621 2.162 3.593 6.228 5.839 10.684 5.427 6.158-.583 10.691-6.049 10.125-12.213-.033-.224-.065-.426-.094-.645-.66 3.192-4.422 5.895-9.207 6.337-3.623.34-6.902-.7-8.836-2.527z"/><path fill="#034694" d="M167.385 137.078c0 .006-.015.022-.015.037h-.004a8.71 8.71 0 0 1 .314-.682 5.83 5.83 0 0 0-.295.645m.393 181.68c.009-.006.026-.006.029-.018h-.003c-.007.012-.016.012-.026.018zm-.27-200.172h.011-.011zm-3.259 199.105l5.332-.006a7.478 7.478 0 0 0-1.774 1.055 4.69 4.69 0 0 1 1.688-.326 4.838 4.838 0 0 1 4.839 4.842 4.838 4.838 0 0 1-4.839 4.838 4.8 4.8 0 0 1-4.589-3.385v.438c.366 4.127 4.159 7.188 8.495 6.832 4.323-.338 7.538-3.957 7.181-8.074-.253-2.836-2.136-5.164-4.702-6.232l4.916-.02-.022-9.65-2.934.016v-31.023a7.48 7.48 0 0 1-3.883-8.059c1.836 0 3.478.477 4.577 1.23-1.695 3.731 2.521 7.678 2.521 7.678-.789-4.076 1.642-6.773 1.642-6.773 1.261-1.887 3.069-3.357 5.119-4.395 6.165-3.09 14.563-2.309 17.073 2.717 15.912-4.188 29.587-20.188 29.587-20.188l7.836 13.322c18.367 0 11.973-13.754 10.775-14.953 4.227 0 10.174 3.111 10.174 10 0 16.916-49.176 19.326-49.176 39.859 0 8.621 8.545 11.9 8.545 11.9 0 18.721-12.856 29.842-21.649 29.842-14.06 0-24.828-2.848-24.828 12.484h4.902c-4.657 4.656-.311 11.486-.311 11.486-.981-4.916 1.393-8.986 10.37-8.943h5.601c-3.559 3.557-1.48 8.957.158 10.605.031-7.699 5.369-10.545 10.122-10.516h4.065c-1.106 1.09.671 6.152 3.265 8.736 0 0-1.875-7.293 6.455-8.736 21.057-3.67 1.27-25.334 33.305-31.314 0 0-15.941-2.398-15.941-11.127 0-7.924 14.432-13.363 19.395-13.363 3.912-.559 7.637-.418 10.828.266 1.297 12.576 15.734 11.965 18.881 11.965 12.248 12.25-3.115 31.914-3.115 31.914-18.797 0-26.238 2.594-26.238 13.541h3.557c-1.994 2.004-.863 7.514.51 8.889 0-6.043 5.756-7.732 13.125-7.342h3.875c-1.891 1.889-1.557 6.484.445 8.478.111-7.424 5.611-8.684 9.518-8.478h3.23c-1.209 1.221 0 5.092 1.658 6.75 0 0-.51-6.609 6.438-6.617 13.193 0-5.971-28.273 19.783-56.223-22.609 10.471-34.648-15.699-34.648-20.721 11.623 13.603 49.309 16.318 49.309-6.906 0-18.738-17.383-27.545-15.943-34.943a11.088 11.088 0 0 1 11.051-10.102c6.123 0 11.086 4.974 11.086 11.098 0 4.67-2.869 8.656-6.953 10.295.008 0 .008-.012.008-.012-.008.012-.023.023-.023.043 10.699-3.969 16.674-14.342 13.41-23.029-3.293-8.694-14.596-12.48-25.273-8.449-4.473 1.688-8.109 4.479-10.594 7.793 7.043-20.135 35.787-24.401 35.787-43.142 0-31.399-44.592-22.6-38.103.009 0-.34.02-.675.061-1.002 1.137-12.78 23.982-15.392 23.982 1.267 0 14.233-29.258 22.122-29.258 41.27 0 19.667 21.615 24.587 21.615 45.282 0 2.465-1.303 13.078-15.66 13.078-13.855 0-20.514-7.744-24.297-17.85-7.057-13.633-4.465-34.913-12.412-43.424l.631-8.752c7 4.295 25.568-5.764 13.371-21.084 0 7.542-15.701 7.115-15.701-7.113 0-19.26 17.996-9.21 18.871-4.961-.865-7.01-1.203-11.473-.021-15.5-9.717 3.121-10.611-2.485-9.402-4.662 1.422-2.516 3.301-5.444 7.076-5.444 5.457 0 5.111 2.003 4.824 4.825 2.084-3.152 2.676-5.521 7.527-10.264l-.102-3.562 2.814 1.046 2.736-4.396c-2.926-6.075-6.904-3.137-9.844-10.675-2.438-.64-34.506-3.599-33.397-18.819-2.838 0-10.562 9.786-5.336 15.022h-6.658c-3.561.421-11.871-2.064-17.204 8.819 13.131-13.129 21.655 18.193-2.531 18.193v-.004c-3.569.009-6.63-1.48-6.837-3.996-2.41 10.572 12.826 13.862 12.826 13.862 0 3.141-7.632 20.145-11.341 23.85 2.5 2.501 3.277 17.599-8.282 17.599 4.168-11.271-8.091-20.821-19.998-27.138h.016c-2.156-.82-4.209-1.816-6.111-3.016-7.31-3.34-13.252-5.22-13.252-5.22v-8.835c3.676-1.803 7.707-4.987 11.896-10.308 3.273-3.987 5.033-9.105 4.555-14.544a15.802 15.802 0 0 0-.276-1.917c-.029-.198-.075-.386-.117-.585a17.763 17.763 0 0 0-.329-1.29 8.135 8.135 0 0 0-.193-.63 20.23 20.23 0 0 0-.458-1.27c-.072-.175-.132-.342-.204-.515a22.774 22.774 0 0 0-.777-1.592c-.11-.219-.245-.415-.36-.625-.193-.314-.38-.625-.581-.93-.167-.244-.334-.494-.513-.737-.177-.233-.355-.473-.544-.697a14.205 14.205 0 0 0-.624-.772 10.579 10.579 0 0 0-.447-.478 20.502 20.502 0 0 0-1.748-1.678c-.063-.05-.114-.118-.175-.162-.345-.29-.706-.57-1.077-.834-.098-.064-.189-.147-.285-.213a23.12 23.12 0 0 0-1.195-.793c-.024-.011-.049-.031-.072-.04-3.918-2.412-8.657-3.656-13.658-3.265-1.077.086-2.124.279-3.15.498-6.934 2.658-11.982 10.776-11.982 20.384 0 9.054 4.489 16.775 10.802 19.856.086.024.178.059.268.081-3.009 1.676-5.545 2.643-6.121 2.643.098.063.225.132.362.224.035.015.072.035.112.057.121.07.248.141.4.222.037.02.072.04.114.055.18.096.39.209.608.316.04.011.08.03.112.052.191.09.397.171.62.263.061.026.118.052.184.077.535.211 1.118.418 1.77.599.09.021.177.046.269.072.253.066.518.127.792.184.092.025.188.04.285.061.345.066.7.126 1.073.171.026 0 .055.005.081.022 2.297.188 5.012-.382 5.012-.382v5.124c-.412 0-4.022-1.164-5.012-2.154a9.8 9.8 0 0 0-.386.066c-3.909.64-6.457 1.843-7.605 5.337-1.144 3.502.031 4.766 1.865 7.222-1.561 2.761-5.611 3.803-.32 9.929-.376 2.307.107 5.998 3.468 7.117 1.101.372 2.017.559 2.978.732 1.992 0 5.012 1.663 5.012 5.799v39.442c1.814.105 3.782.35 5.571.504v-43.321c2.059.198 7.407.93 13.644 3.503.072.035.127.075.189.116-.005-.005-.011-.005-.011-.009.57.07 1.149.193 1.722.364 4.154 1.277 6.74 4.882 5.77 8.074-.97 3.186-5.139 4.738-9.286 3.465 4.926 9.456 22.031 4.83 25.756-2.866 1.816-.162 3.432 3.097 4.952 6.172 0 0 4.284 1.641 14.893 1.641 0 0-42.953 27.423-55.376 27.423-5.308 0-17.081 0-17.081 4.014-3.235 0-7.9 5.498-7.9 8.641 3.059-2.387 5.551-2.387 5.551-2.387 2.608 0 4.077.779 4.077.779-.956.945-5.242 5.781-5.242 9.537 3.589-3.594 5.155-3.58 5.155-3.58s3.752-.484 5.088.861c-.904.898-2.485 4.15-2.485 7.996 0 0 2.226-4.297 5.012-4.297v41.23c0 1.26-5.689 2.469-8.032 2.469m1.749-119.53c-1.059.04-1.562-1.336-1.571-1.834-.026-.504.371-1.906 1.428-1.948 2.516-.086 7.549 1.121 7.569 1.617.02.492-4.911 2.075-7.426 2.165zm-1.623-6.805c-1.459-.103-1.941-2.075-1.892-2.768.046-.68.814-2.566 2.272-2.459 3.483.261 10.234 2.689 10.177 3.374-.043.698-7.079 2.111-10.557 1.853zm-.599-8.719c-1.546-.406-1.672-2.618-1.485-3.349.193-.728 1.388-2.593 2.939-2.191 3.682.965 10.451 4.924 10.258 5.65-.188.728-8.027.855-11.712-.11zm11.407-24.567c.64-1.526.504-3.61.107-5.571-.066 0-.132.004-.199.004-4.431 0-8.021-3.593-8.021-8.016a4.88 4.88 0 0 1 .296-2.165h.004a.06.06 0 0 1 .015-.037c.957-3.354 4.036-5.824 7.706-5.824 4.419 0 8.018 3.593 8.018 8.026-.001 5.114-3.6 9.821-7.926 13.583z"/><path fill="#ED1C24" d="M295.541 159.868a11.216 11.216 0 0 0 10.678 5.424c6.168-.576 10.689-6.045 10.125-12.216-.023-.218-.063-.428-.092-.647-.654 3.188-4.434 5.898-9.209 6.341-3.633.34-6.908-.702-8.842-2.527-.931 1.276-1.867 2.54-2.66 3.625"/><path fill="#FFF" d="M280.566 139.071l3.873.204-1.939 2.658s-2.586.818-1.934-2.862m-9.24 0h5.58s-.201 4.503 3.873 4.906l-.865 1.434c0-.001-10.949-2.863-8.588-6.34z"/><path fill="#6A79B4" d="M175.489 177.541c.193-.726-6.576-4.686-10.258-5.65-1.551-.402-2.746 1.463-2.939 2.191-.188.731-.061 2.943 1.485 3.349 3.685.964 11.524.837 11.712.11m-.555 6.756c.057-.686-6.694-3.114-10.177-3.374-1.457-.107-2.226 1.779-2.272 2.459-.049.693.432 2.665 1.892 2.768 3.477.257 10.513-1.156 10.557-1.853zm-7.664-20.373v2.588c.99.991 4.6 2.154 5.012 2.154v-5.124s-2.715.57-5.012.382zm-1.414 25.247c-1.057.042-1.454 1.444-1.428 1.948.009.498.513 1.874 1.571 1.834 2.515-.09 7.446-1.673 7.426-2.165-.02-.495-5.053-1.703-7.569-1.617zm-5.18 68.319c-4.163 5.395-1.165 10.316-1.165 10.316 0-3.756 4.286-8.592 5.242-9.537 0 .001-1.468-.779-4.077-.779zm13.282 11.446a7.482 7.482 0 0 0 3.883 8.059c.61.316 1.272.566 1.967.703.298.068.577.104.866.137.127.002.255.004.382.01 0 0-4.216-3.947-2.521-7.678-1.099-.755-2.741-1.231-4.577-1.231zm-7.619-110.11c-6.314-3.081-10.802-10.802-10.802-19.856 0-9.607 5.047-17.726 11.982-20.384-10.412 2.307-17.757 11.56-16.838 21.99.779 8.836 7.234 15.901 15.658 18.25zm67.024-22.159c6.7-1.261 8.973 4.696 8.973 6.828 0 8.076-6.288 11.33-11.504 11.361v.004c24.186-.001 15.662-31.322 2.531-18.193zm-16.166 69.504c11.559 0 10.782-15.097 8.282-17.599 3.709-3.706 11.341-20.709 11.341-23.85 0 0-15.256-3.29-12.82-13.877-.005-.006-.005-.011-.005-.021l-.204-.037c-4.158 4.387-1.63 13.537 4.966 15.82 0 0-2.546 10.06-8.83 16.439-6.256-.243-15.025-1.066-22.727-4.014 11.906 6.318 24.166 15.868 19.997 27.139zm-45.155-72.487c2.989-.239 5.621 1.88 5.876 4.736.248 2.842-1.978 5.355-4.972 5.591-2.999.241-5.637-1.878-5.876-4.731 0 4.422 3.59 8.016 8.021 8.016.066 0 .132-.004.199-.004.397 1.961.533 4.045-.107 5.571 4.327-3.763 7.926-8.47 7.926-13.583 0-4.433-3.599-8.026-8.018-8.026-3.69 0-6.78 2.485-7.725 5.861.701-1.856 2.475-3.253 4.676-3.431zm85.183-5.836c-5.227-5.236 2.498-15.022 5.336-15.022-3.103 0-16.562 8.812-11.994 15.022h6.658zm-67.345 87.004c4.146 1.273 8.315-.279 9.286-3.465.971-3.192-1.616-6.797-5.77-8.074a10.533 10.533 0 0 0-1.722-.364c5.998 3.421 5.928 10.282-1.794 11.903zm-12.028-44.055s5.942 1.88 13.252 5.22c-1.468-.91-2.845-1.936-4.082-3.101-3.711-3.507-6.663-5.418-9.17-6.389v4.27zm2.254 76.426c12.423 0 55.376-27.423 55.376-27.423-10.609 0-14.893-1.641-14.893-1.641-2.395 1.248-7.31 3.714-17.787 9.885-8.525 5.018-14.239 11.363-22.012 14.132-1.184.428-2.125.529-2.937.484-1.788-.154-3.757-.398-5.571-.504v-39.442c0-4.136-3.02-5.799-5.012-5.799v45.898c-3.36 1.781-5.013 3.994-5.922 6.064 0 0-6.405-.855-6.222 11 0-3.143 4.665-8.641 7.9-8.641-.001-4.013 11.772-4.013 17.08-4.013zm107.142 63.496c-3.146 0-17.584.611-18.881-11.965-3.191-.684-6.916-.824-10.828-.266 10.207 19.48 21.287 19.635 24.185 19.785 4.512 5.033 3 22.029-3.518 21.686-23.861-1.27-22.986 13.246-20.313 16.215 0-10.947 7.441-13.541 26.238-13.541.002 0 15.365-19.664 3.117-31.914zm4.906 47.002h-3.23c-.273 5.215 4.889 6.75 4.889 6.75-1.659-1.658-2.868-5.53-1.659-6.75zm-30.193 7.342c-1.373-1.375-2.504-6.885-.51-8.889h-3.557c-.298 5.642 4.067 8.889 4.067 8.889zm71.227-181.233c0-16.664-22.852-14.046-23.982-1.25 1.008-9.379 16.277-10.763 16.277.985 0 12.14-28.475 20.093-28.475 40.611 0 22.609 22.607 24.701 20.32 45.371-.387 3.578-4.221 8.254-9.772 8.254-11.902 0-18.27-5.051-21.969-12.19 3.783 10.105 10.441 17.85 24.297 17.85 14.357 0 15.66-10.613 15.66-13.078 0-20.695-21.615-25.615-21.615-45.282.001-19.149 29.259-27.037 29.259-41.271zm-168.522 80.397c0 6.381 2.603 8.857 2.603 8.857 0-3.846 1.581-7.098 2.485-7.996-1.336-1.346-5.088-.861-5.088-.861zm165.135-35.268a11.088 11.088 0 0 0-11.051 10.102c.264-1.359 1.17-2.68 2.939-4.002 6.648-4.94 19.672 5.01 12.244 15.293a11.076 11.076 0 0 0 6.953-10.295c.001-6.125-4.962-11.098-11.085-11.098zm-50.84 128.762h-3.875c-.396 7.371 4.32 8.478 4.32 8.478-2.002-1.994-2.336-6.59-.445-8.478zm-109.466-39.307c-.599 0-1.158.123-1.691.326-1.842 1.402-2.965 3.58-2.898 5.969a4.8 4.8 0 0 0 4.589 3.385 4.838 4.838 0 0 0 4.839-4.838 4.838 4.838 0 0 0-4.839-4.842zm27.221 35.789h-5.601c-.048 8.977 5.758 10.605 5.758 10.605-1.637-1.648-3.715-7.048-.157-10.605zm17.369-56.769c0-20.533 49.176-22.943 49.176-39.859 0-6.889-5.947-10-10.174-10 1.197 1.199 7.592 14.953-10.775 14.953-16.609 5.559-52.777 36.998-27.672 47.898-.011 3.16-.437 26.688-15.515 24.838-21.721-2.688-27.14 6.291-22.971 16.397 0-15.332 10.767-12.484 24.828-12.484 8.793 0 21.649-11.121 21.649-29.842-.001-.001-8.546-3.28-8.546-11.901zm-41.803 12.584v-41.23c-2.787 0-5.012 4.297-5.012 4.297v35.176-.225l-3.046.01.026 4.441c2.343-.001 8.032-1.21 8.032-2.469zm8.464 53.129s-4.347-6.83.311-11.486h-4.902c-1.967 8.53 4.591 11.486 4.591 11.486zm30.315-8.854h-4.065c-.031 6.336 7.33 8.736 7.33 8.736-2.594-2.584-4.371-7.646-3.265-8.736z"/><path fill="#FFF" d="M74.321 285.842l-.271-.832-.116-.867c-.397-2.965-1.114-8.488-5.378-9.475-1.14-.264-2.318-.129-3.575.387.342-1.311.302-2.5-.11-3.588-1.572-4.088-7.137-4.037-10.128-3.998h-.879l-.864-.16c-2.937-.541-8.416-1.564-10.664 2.189-.604 1.002-.844 2.162-.741 3.512-1.138-.734-2.285-1.061-3.442-1.006-4.376.234-6.049 5.543-6.944 8.402l-.273.83-.406.772c-1.434 2.633-4.093 7.514-1.221 10.82.767.883 1.799 1.475 3.117 1.787-1.042.863-1.715 1.85-2.009 2.98-1.143 4.221 3.395 7.451 5.825 9.18l.713.527.614.621c2.059 2.178 5.885 6.211 9.914 4.504 1.066-.459 1.95-1.254 2.658-2.41.504 1.26 1.229 2.195 2.206 2.838 3.67 2.377 8.139-.934 10.543-2.703l.711-.521.789-.387c2.7-1.293 7.73-3.68 7.35-8.041-.101-1.17-.59-2.244-1.465-3.273 1.347-.08 2.461-.488 3.365-1.221 3.407-2.756 1.633-8.031.681-10.867"/><path fill="#ED1C24" d="M55.151 289.379c24.482 14.469 16.942-1.443 16.404-3.795-.542-2.346-.748-19.947-16.404 3.795M53.612 293c-6.196 27.744 6.607 15.666 8.672 14.436 2.064-1.241 18.74-6.881-8.672-14.436m-3.931-.336c-28.312 2.672-12.859 11.121-11.044 12.699 1.821 1.573 12.327 15.698 11.044-12.699m-.888-3.853c-11.3-26.094-14.559-8.791-15.5-6.568-.941 2.204-11.127 16.572 15.5 6.568"/><path fill="#FFF" d="M453.185 282.008l-.406-.772-.277-.83c-.895-2.859-2.568-8.168-6.932-8.402-1.17-.055-2.309.271-3.449.998.103-1.342-.15-2.502-.738-3.504-2.258-3.754-7.728-2.73-10.666-2.189l-.875.16h-.875c-2.979-.039-8.549-.09-10.115 3.998-.426 1.088-.457 2.277-.123 3.588-1.238-.516-2.418-.65-3.566-.387-4.26.986-4.992 6.51-5.369 9.475l-.131.867-.264.832c-.957 2.836-2.725 8.111.682 10.867.904.732 2.01 1.141 3.365 1.221-.875 1.029-1.363 2.103-1.465 3.273-.377 4.361 4.645 6.748 7.35 8.041l.781.387.711.521c2.412 1.77 6.885 5.08 10.543 2.703.99-.643 1.709-1.578 2.207-2.838.713 1.156 1.588 1.951 2.664 2.41 4.027 1.707 7.857-2.326 9.914-4.504l.619-.621.703-.527c2.438-1.728 6.973-4.959 5.834-9.18-.305-1.131-.965-2.117-2.014-2.98 1.313-.313 2.348-.904 3.111-1.787 2.877-3.306.223-8.187-1.219-10.82"/><path fill="#ED1C24" d="M431.541 286.787c-21.32-18.809-3.863-16.564-1.463-16.775 2.389-.201 19.201-5.451 1.463 16.775m-2.969 2.592c-24.483 14.469-16.957-1.443-16.408-3.795.537-2.346.74-19.947 16.408 3.795m1.533 3.621c6.201 27.744-6.605 15.666-8.672 14.436-2.064-1.241-18.734-6.881 8.672-14.436m3.926-.336c28.314 2.672 12.871 11.121 11.049 12.699-1.809 1.573-12.33 15.698-11.049-12.699m.883-3.853c11.307-26.094 14.559-8.791 15.504-6.568.935 2.204 11.123 16.572-15.504 6.568"/><path fill="#FFF" d="M440.414 289.625c-.027-.227-.1-.43-.131-.65 2.275-1.67 4.728-3.459 4.728-3.459l-.236-.529-5.613.979c-1.379-2.26-3.73-3.793-6.422-4.055-.855-2.57-1.709-5.188-1.709-5.188l-.576.049s-.387 2.726-.777 5.4a8.438 8.438 0 0 0-4.268 2.723c-.602.721-1.037 1.539-1.383 2.391-2.767 0-5.693.01-5.693.01l-.123.57s2.725 1.33 5.246 2.563c.01.23-.02.457 0 .69.193 2.219 1.232 4.211 2.908 5.664-.885 2.766-1.881 5.857-1.881 5.857l.488.295s2.297-2.379 4.342-4.478c1.068.35 2.205.49 3.354.387a8.422 8.422 0 0 0 3.252-.953c2.371 1.707 5.045 3.641 5.045 3.641l.436-.377s-1.514-2.865-2.867-5.43a8.492 8.492 0 0 0 1.88-6.1"/><path fill="#ED1C24" d="M431.498 285.365a4.903 4.903 0 0 0-3.414 1.775 4.958 4.958 0 0 0-1.158 3.662 5.025 5.025 0 0 0 5.438 4.576 5.06 5.06 0 0 0 3.426-1.779 5.056 5.056 0 0 0 1.158-3.672 5.024 5.024 0 0 0-5.45-4.562m-379.321 1.422c21.327-18.809 3.86-16.564 1.467-16.775-2.401-.201-19.211-5.451-1.467 16.775"/><path fill="#FFF" d="M60.251 290.428c2.537-1.232 5.251-2.563 5.251-2.563l-.127-.57s-2.919-.01-5.694-.01c-.336-.852-.773-1.67-1.378-2.391a8.438 8.438 0 0 0-4.27-2.723l-.767-5.4-.586-.049s-.849 2.617-1.691 5.188a8.492 8.492 0 0 0-6.44 4.055c-2.737-.479-5.619-.979-5.619-.979l-.222.529s2.45 1.789 4.722 3.459c-.037.221-.103.424-.127.65a8.48 8.48 0 0 0 1.886 6.098c-1.362 2.564-2.878 5.43-2.878 5.43l.449.377s2.669-1.934 5.038-3.641c.996.52 2.093.854 3.247.953a8.352 8.352 0 0 0 3.36-.387c2.039 2.1 4.333 4.478 4.333 4.478l.503-.295-1.888-5.848c1.673-1.463 2.711-3.455 2.908-5.674.025-.23-.01-.457-.01-.687"/><path fill="#ED1C24" d="M55.636 287.141a4.9 4.9 0 0 0-3.417-1.775 5.021 5.021 0 0 0-5.446 4.563 5.05 5.05 0 0 0 1.156 3.672 5.046 5.046 0 0 0 3.42 1.779c2.755.244 5.205-1.813 5.444-4.576a5.022 5.022 0 0 0-1.157-3.663"/><path fill="#FFF" d="M55.294 168.474c-11.919-2.105-23.331 5.896-25.438 17.816-2.103 11.927 5.889 23.339 17.809 25.444 11.93 2.104 23.348-5.893 25.447-17.818 2.11-11.922-5.887-23.334-17.818-25.442"/><path fill="#ED1C24" d="M60.266 185.085a36.22 36.22 0 0 1-.935-.605c-1.801-1.194-5.332-3.529-5.429-3.599-.489-.336-.965-.656-1.434-.972-1.57-1.052-2.974-1.967-4.294-2.73a27.562 27.562 0 0 0-1.496-.801c-2.099-1.059-4.111-1.699-6.486-1.908a19.524 19.524 0 0 0-4.707 4.851c5.461 1.972 10.793 5.13 21.895 12.026.634-1.466 2.759-5.986 2.886-6.262m-5.119 11.773c.222-.553 1.198-3.023 1.597-3.974-11.377-7.067-16.66-10.194-22.133-12.129a19.134 19.134 0 0 0-1.9 4.957c3.124 4.288 11.496 8.503 22.436 11.146m-1.231-17.96c4.26-2.52 9.1-1.834 12.836-.559-1.393-1.799-3.08-3.371-5.042-4.595-3.529-.702-8.403-.812-12.283 2.272 1.41.83 2.867 1.797 4.489 2.882m-16.999 20.355c.57.391 1.154.763 1.775 1.112a28.713 28.713 0 0 0 4.015 1.805c.595.225 1.2.434 1.81.631 2.134.702 7.031 1.974 7.396 2.059l2.606-6.45c-8.482-2.105-17.77-5.786-22.183-10.574a19.106 19.106 0 0 0 .305 6.472c.931 2.028 2.426 3.644 4.276 4.945m15.282 7.379l-1.77-.456c-1.641-.417-3.42-.884-5.229-1.439.882 1.88 2.27 3.345 3.75 4.48 1.983.263 3.94.213 5.821-.112-1.359-1.058-2.572-2.473-2.572-2.473"/><path fill="#ED1C24" d="M69.939 184.502a19.35 19.35 0 0 0-1.597-3.782c-3.344-1.491-8.437-2.948-12.885-.772l6.135 4.051a31.313 31.313 0 0 1 3.533-.123c.588.009 1.134.04 1.656.092 1.201.106 2.226.3 3.158.534m-3.141 1.122c-.179 10.082-4.932 17.858-9.028 22.723 6.411-2.228 11.467-7.753 12.728-14.89.432-2.439.356-4.838-.096-7.121a18.265 18.265 0 0 0-3.604-.712m-18.904-10.462c2.871-2.531 6.262-3.386 9.389-3.456a17.753 17.753 0 0 0-2.446-.616c-4.459-.787-8.821.042-12.526 2.049 1.973.387 3.756 1.078 5.583 2.023"/><path fill="#ED1C24" d="M61.826 185.635c-1.459 3.038-2.317 4.9-3.029 6.593-.219.513-.432 1.011-.647 1.529-.34.849-1.388 3.488-1.388 3.488l-.625 1.549-2.709 6.711c.747.991 1.652 1.799 2.542 2.43 4.025-4.591 9.034-12.307 9.187-22.407-1.013-.036-2.127 0-3.331.107M43.17 204.07c-1.351-.465-2.7-.995-3.974-1.616.476 1.47 1.162 2.775 1.853 3.895a19.218 19.218 0 0 0 4.724 2.18c-1.097-1.235-2.044-2.698-2.603-4.459m-5.962-2.702a19.074 19.074 0 0 1-2.557-1.831 19.373 19.373 0 0 0 3.323 4.345c-.31-.8-.582-1.63-.766-2.514"/><path fill="#FFF" d="M408.227 193.915c2.107 11.925 13.514 19.922 25.438 17.818 11.926-2.105 19.916-13.517 17.822-25.444-2.104-11.919-13.518-19.92-25.447-17.816-11.927 2.109-19.917 13.521-17.813 25.442"/><path fill="#ED1C24" d="M421.068 185.085c.191-.118.529-.336.945-.605 1.801-1.194 5.328-3.529 5.418-3.599l1.445-.972c1.553-1.052 2.969-1.967 4.291-2.73a30.827 30.827 0 0 1 1.492-.801c2.094-1.059 4.117-1.699 6.488-1.908a19.167 19.167 0 0 1 4.695 4.851c-5.457 1.972-10.773 5.13-21.889 12.026-.639-1.466-2.754-5.986-2.885-6.262m5.123 11.773a1350.15 1350.15 0 0 1-1.586-3.974c11.357-7.067 16.656-10.194 22.123-12.129a19.355 19.355 0 0 1 1.902 4.957c-3.13 4.288-11.501 8.503-22.439 11.146m1.233-17.96c-4.264-2.52-9.1-1.834-12.842-.559a19.438 19.438 0 0 1 5.053-4.595c3.525-.702 8.396-.812 12.271 2.272-1.4.83-2.867 1.797-4.482 2.882"/><path fill="#ED1C24" d="M444.41 199.253c-.557.391-1.139.763-1.77 1.112a28.42 28.42 0 0 1-4.004 1.805c-.6.225-1.209.434-1.82.631-2.123.702-7.025 1.974-7.391 2.059a806.635 806.635 0 0 1-2.603-6.45c8.478-2.105 17.76-5.786 22.185-10.574a19.39 19.39 0 0 1-.309 6.472c-.934 2.028-2.427 3.644-4.288 4.945m-15.267 7.379l1.758-.456c1.646-.417 3.435-.884 5.246-1.439-.894 1.88-2.277 3.345-3.754 4.48-1.98.263-3.943.213-5.814-.112 1.343-1.058 2.564-2.473 2.564-2.473m-17.745-22.13c.408-1.317.926-2.593 1.609-3.782 3.334-1.491 8.416-2.948 12.867-.772l-6.129 4.051a31.374 31.374 0 0 0-3.537-.123c-.58.009-1.129.04-1.658.092-1.198.106-2.214.3-3.152.534m3.143 1.122c.174 10.082 4.94 17.858 9.039 22.723-6.428-2.228-11.49-7.753-12.738-14.89a19.01 19.01 0 0 1 .1-7.121c.988-.31 2.187-.569 3.599-.712m18.908-10.462c-2.873-2.531-6.27-3.386-9.391-3.456a17.308 17.308 0 0 1 2.447-.616c4.455-.787 8.816.042 12.517 2.049-1.962.387-3.751 1.078-5.573 2.023"/><path fill="#ED1C24" d="M419.514 185.635c1.463 3.038 2.305 4.9 3.041 6.593.211.513.414 1.011.629 1.529.346.849 1.393 3.488 1.393 3.488l.621 1.549 2.715 6.711a11.585 11.585 0 0 1-2.543 2.43c-4.023-4.591-9.041-12.307-9.182-22.407a26.97 26.97 0 0 1 3.326.107m18.656 18.435a36.3 36.3 0 0 0 3.977-1.616 18.24 18.24 0 0 1-1.863 3.895 19.241 19.241 0 0 1-4.715 2.18c1.095-1.235 2.04-2.698 2.601-4.459m5.967-2.702a20.091 20.091 0 0 0 2.551-1.831 19.281 19.281 0 0 1-3.322 4.345c.304-.8.577-1.63.771-2.514"/></svg>