<svg xmlns="http://www.w3.org/2000/svg" width="1676" height="1676" viewBox="0 0 1676 1676"><path fill-rule="evenodd" clip-rule="evenodd" fill="#6EC9C2" d="M640.931 288.224c-38.779-6.512-39.923 50.103-7.558 55.418 17.127 2.812 37.395-5.808 35.268-24.56 7.361 1.454 11.141 6.492 12.594 13.854 23.498-5.39 27.648-54.584 5.039-64.234-6.279-2.68-15.934-.067-21.412 1.889-3.097-15.328 3.684-26.083 15.114-28.969-18.471-32.999-97.454-26.611-81.868 26.45-17.134.76-22.419-10.329-27.08-22.041-9.881 6.717-12.676 28.251-10.076 45.972-13.594-1.521-17.58-12.648-20.781-24.561-6.162 2.29-12.479 13.077-20.152 13.854-2.069-5.067-3.739-10.536-3.149-18.263-4.301.719-7.333 5.159-11.335 6.928-15.178 6.708-41.236 3.148-63.605 3.148h-66.754c12.668 30.887 4.896 78.275-22.672 88.167-20.447 7.335-44.5-13.022-28.969-32.118 3.599-4.424 14.217-9.41 20.152-3.148-5.932 3.954-13.113 5.952-11.965 15.744 1.156 9.871 14.254 10.245 21.411 5.037 17.269-12.562 19.239-53.014 6.928-73.681-3.388-5.686-7.634-8.702-11.335-12.595h67.383c11.865-11.055 6.945-44.631-10.705-42.824-6.653.681-10.576 8.589-4.409 13.855 3.99 1.239 6.243-2.544 8.186-1.259-.652 11.919-17.301 11.051-22.041 4.409-13.498-18.915 18.746-39.232 34.007-22.042-2.414-14.44-1.651-34.19 8.186-40.304 6.941 8.198 8.623 26.131 5.668 40.304 8.922-8.509 32.514-7.197 34.637 8.817 2.203 16.611-20.82 27.804-24.56 9.446 2.25-.215 5.438 2.054 8.816 0 6.563-3.989 2.234-13.197-6.928-11.965-14.871 2-18.09 29.763-8.816 41.564h46.603c-1.459-3.375-8.945-6.164-8.186-13.854 25.703 11.037 41.861-10.067 57.938-23.301 13.506-11.119 26.18-19.28 42.823-23.301-6.065-3.742-9.999-16.71-3.149-22.671 3.906 3.606 5.107 7.475 10.077 10.076 16.903 8.848 51.404-1.642 68.013 7.557-6.839-20.637 5.096-39.471 24.561-38.414 8.234.446 17.156 6.794 17.004 16.373-.276 17.317-29.311 14.081-22.041-5.038-9.269 2.271-10.826 13.837-8.188 21.412 5.983 17.175 34.712 24.619 53.529 14.485-4.955-3.144-9.229-13.425-3.779-19.522 3.879 1.51 6.037 6.981 10.707 8.816 16.122 6.334 36.025-4.632 36.525-20.152-8.227 2.73-18.989.205-19.522-8.817-.849-14.357 21.983-16.324 29.599-6.297-10.438-25.283-18.865-58.469-13.854-95.093 3.196-.932 5.052 3.118 7.558 5.038 14.313 10.967 60.225 23.741 71.791-.629 4.128-8.696 1.193-21.794-9.445-21.412-7.949.285-12.613 8.868-8.188 17.003-26.968-4.971-3.181-45.838 20.152-28.969-3.258-12.538.818-25.161 5.668-33.377 7.716 5.778 9.414 21.932 6.927 34.007 12.188-7.478 30.642-.014 29.599 15.114-.449 6.507-5.051 11.023-12.595 11.965 9.492-19.056-22.699-23.888-19.523-1.26 4.642 33.056 68.197 19.739 81.238.63 4.75 37.042-3.383 71.069-14.484 96.353 3.477-.405 5.467-4.799 10.706-5.668 7.997-1.327 17.753 2.025 18.892 9.446 1.493 9.718-8.561 16.465-18.892 11.335-.663 16.643 19.67 26.378 35.266 20.782 5.273-1.892 7.606-6.712 11.336-8.816 5.52 5.715 2.239 16.1-3.778 18.892 18.143 11.686 50.375 2.717 54.789-15.744 1.652-6.911-1.156-16.922-8.817-19.523 8.008 14.372-18.161 24.174-22.041 8.817-4.588-18.163 19.143-25.319 32.747-15.744 9.301 6.545 13.011 18.902 8.188 34.006 21.893-10.014 68.646 4.832 78.09-17.633 6.949 5.713 3.119 19.337-3.148 22.671 15.458 4.245 28.412 10.884 40.933 20.781 12.217 9.657 20.942 22.184 34.638 27.08 8.36 2.989 18.044 2.058 25.819-1.259-1.003 6.763-4.958 10.576-9.446 13.854h47.232c9.547-11.097 6.457-39.207-8.188-41.564-17.093-2.752-9.18 19.617 1.26 11.335 2.127 13.64-16.128 10.585-20.782 5.039-14.98-17.855 15.391-39.247 30.858-22.042-2.631-14.713-1.285-32.096 5.667-40.934 10.222 5.796 10.133 24.335 8.817 39.674 4.887-1.593 7.635-4.929 12.595-5.668 14.613-2.175 28.783 11.962 22.042 26.45-3.535 7.596-22.535 10.97-23.301-3.148 12.275 7.3 15.631-10.528 4.407-11.966-18.009-2.307-23.024 31.005-11.335 42.824h66.754c1.377 1.36-2.567 3.238-4.408 5.038-6.101 5.964-12.311 17.22-13.855 29.599-2.352 18.855 2.945 42.956 13.855 51.64 2.937 2.338 7.836 4.236 12.595 3.779 14.23-1.367 10.875-23.26-2.519-23.931 16.955-13.336 32.322 15.37 20.152 28.969-4.672 5.22-12.474 7.924-22.041 6.927-32.948-3.431-43.461-59.743-28.969-89.425-33.563-1.385-80.932 1.831-113.986 0-12.168-.674-20.452-4.545-27.709-10.706-.173 7.384-1.097 14.017-3.779 18.893-8.865-2.681-13.676-9.415-19.522-15.114-3.49 12.253-7.115 24.373-21.412 25.82 2.979-17.928.32-38.183-10.075-46.603-4.157 12.428-9.782 23.386-27.08 22.671 17.244-49.554-61.41-61.354-81.238-27.079 10.559 3.965 18.022 14.251 14.485 30.228-39.203-21.876-48.314 52.587-17.004 61.716 2.924-6.313 5.352-13.12 13.854-13.854-3.614 17.858 16.903 27.019 34.008 24.56 32.723-4.703 32.976-61.109-6.928-55.418 16.967 8.816-.509 31.831-15.744 19.522-8.692-7.022-5.77-21.999 2.519-27.08 14.99-9.188 38.259-2.601 47.861 7.558 12.302 13.011 13.655 35.712 1.26 51.01 20.762-8.439 50.021-11.665 51.01-37.785 8.027.366 12.958 6.49 10.706 15.114 29.985-12.97 53.037-31.928 95.094-29.598 31.476 1.743 65.351 27.608 45.972 61.086-10.881 18.798-52.274 21.357-62.976-2.519-4.485-10.007 1.834-26.788 17.004-20.782 6.005 2.378 10.618 17.446.63 22.041 14.835 10.571 37.001.574 37.785-15.743.951-19.834-19.365-32.513-41.564-32.748-32.529-.343-60.985 15.954-80.608 26.45 11.822 4.342 23.724 8.604 24.56 23.931-3.92.309-8.2-2.985-13.854-5.038-7.705-2.798-17.325-4.423-28.968-3.778-38.642 2.14-76.551 29.893-117.765 20.152-33.172-7.841-62.347-36.042-62.346-78.72 0-26.792 11.201-42.649 23.931-57.938-8.468.281-14.629-1.745-20.782-3.778.755 7.923-2.641 16.496-13.225 15.114 3.788-32.039-36.371-30.714-35.267-64.236-5.042 3.382-8.678 10.334-13.225 16.374-12.671 16.832-28.076 32.603-45.343 45.343v44.083c10.323-20.89 18.499-50.281 51.641-46.602 9.828 1.091 18.606 6.842 24.56 13.225 23.071 24.732 23.647 77.302 1.889 103.909-5.865 7.174-15.475 14.407-25.19 15.744-30.974 4.264-44.231-21.514-51.64-45.972-1.469 17.634-.211 37.996-.629 56.678h545.997c.138 39.668-1.423 78.599 0 117.765-366.384 1.317-741.669.665-1110.259 0V373.242h545.368c-.759-19.689 1.379-39.419 0-56.048-8.671 21.729-18.696 45.175-45.972 45.342-32.459.199-49.94-38.97-47.861-72.422 1.78-28.672 17.753-60.181 45.972-61.716 29.005-1.578 40.401 24.412 47.232 46.602 1.15-6.784.63-13.632.63-20.782 0-6.758 1.808-15.697 0-21.412-1.325-4.189-12.067-10.123-16.374-13.855-16.365-14.181-29.397-31.16-40.305-49.121-.188 32.884-39.383 33.092-36.525 64.865-9.902.988-14.502-6.356-12.596-15.114-6.365 1.821-12.281 4.091-20.781 3.778 11.863 15.595 24.74 32.317 23.301 61.086-2.082 41.641-30.175 70.739-68.643 76.201-21.881 3.107-41.824-1.185-61.717-8.187-29.561-10.405-66.229-20.778-92.574-2.518.589-15.786 11.572-21.175 24.561-24.561-22.055-15.098-87.897-44.745-115.245-13.225-17.29 19.927 4.89 49.91 30.228 35.266-1.004-3.937-4.52-5.292-5.037-9.446-2.653-21.292 32.146-16.23 23.931 5.668-8.546 22.777-47.374 25.876-61.716 6.928-11.404-15.067-5.801-36.964 3.778-47.232 11.271-12.083 28.722-17.547 52.27-16.374 32.64 1.626 60.106 18.219 82.499 29.598-.425-7.524 2.567-15.484 11.965-15.114.198 26.7 30.184 28.991 50.381 37.785-20.495-24.727-1.607-59.998 25.819-62.976 13.312-1.445 29.217 3.706 31.487 14.484 2.494 11.835-5.975 21.517-17.633 20.152-11.795-1.378-14.371-17.612-3.786-22.67zM843.712 83.553c-11.501 17.689-48.623 17.984-69.903 8.816-1.874 29.146 8.313 54.663 20.152 74.311 12.143 20.152 29.582 36.911 49.121 48.492 38.192-25.844 69.069-62.323 69.902-123.432-20.829 9.064-57.602 8.886-69.272-8.187zm-81.238 173.812c9.365 8.897 16.255 20.271 26.449 28.339 7.585-10.048 16.752-18.515 23.931-28.969-9.166-20.643-43.027-20.767-50.38.63zm139.175-16.373c-16.5-2.038-27.623 10.254-30.229 23.301 3.182-1.484 8.448.355 9.446 3.149-4.532 2.002-10.316 3.428-10.076 8.816.663 14.818 53.99 14.189 52.9-1.259-.297-4.203-5.262-3.779-7.558-8.187 2.865-1.241 6.798-2.191 10.076-1.26-4.577-11.288-11.379-22.933-24.559-24.56zm-102.65 57.937c6.868 6.986 12.325 15.385 20.152 21.412 3.595-12.817 4.516-32.66.63-45.973-6.753 8.362-15.153 15.076-20.782 24.561zm-42.193 21.412c4.641-2.367 6.523-5.931 10.706-10.706 1.467-1.675 10.149-9.321 10.076-11.336-.084-2.274-7.876-8.191-10.076-10.706-4.79-5.475-7.691-9.882-11.966-11.965-3.086 13.929-2.015 31.916 1.26 44.713zm163.737-27.08c1.834 11.247-7.471 8.148-9.447 2.519-2.776.163-4.871 1.006-8.188.629.419 9.028-.837 19.73.631 27.709 3.774-11.277 22.946-8.554 23.93 3.149 3.455-10.207 7.314-26.672 3.779-39.675-3.005 2.454-6.269 4.649-10.705 5.669zm-49.752 35.896c.821-5.587 3.384-10.814 8.817-11.965 7.889-1.672 10.809 3.727 13.225 3.148v-23.301c-2.955-1.033-7.224-.753-10.076-1.889-1.88 2.319-1.972 6.425-6.298 6.298-2.971-.598-1.579-5.558-1.889-8.817-3.961-.658-6.509-2.728-9.446-4.408-1.615 14.727-.112 31.528 5.667 40.934zm-83.127-18.262c-3.662 4.532-7.203 7.715-12.596 13.854-3.127 3.561-10.135 9.897-10.076 13.225.117 6.608 12.771 11.979 18.893 12.596 14.008 1.41 22.554-6.699 27.08-14.485-8.147-8.018-15.02-17.31-23.301-25.19zm95.093 15.743c-3.441.29-4.942 4.354-5.038 7.557-.236 7.892 7.199 16.652 15.114 17.003.458-10.181-1.725-25.266-10.076-24.56zm33.377.63c-11.835-2.262-14.901 12.682-13.226 23.931 10.372-1.453 19.828-13.424 13.226-23.931zM390.918 464.555c22.451-5.464 24.537-47.257 8.186-61.086-4.243-3.589-12.424-5.708-18.263-5.038-35.257 4.046-26.273 74.97 10.077 66.124zm833.167-5.668c5.851 6.197 17.38 9.85 26.449 6.298 26.714-10.462 20.547-70.389-13.225-65.495-25.632 3.714-28.345 43.183-13.224 59.197zm-918.814-58.568c-.034.806-.808.872-.63 1.89 3.926 1.06 8.123 4.565 11.336 8.816 8.133 10.76 18.615 27.068 11.965 44.713-1.283 3.406-5.184 4.782-4.408 8.186 6.541-.806 16.329 1.635 20.782-1.26-.268-2.301-2.602-2.937-3.778-5.667-5.99-13.902.288-25.487 5.037-34.007 5.199-9.326 9.434-18.292 17.635-22.042-4.376-2.036-16.408-2.036-20.783 0 5.156 9.205-3.08 17.252-6.297 23.931-3.913-6.609-13.566-17.759-4.408-24.561-7.396-1.041-19.058-1.041-26.451.001zm107.688 0c-.321 2.653 3.322 4.056 4.408 6.928 5.644 14.923-6.83 44.446 6.927 54.789 8.593 6.459 22.427.704 29.599-4.408.129 1.97-.424 4.623.63 5.668 6.306-.31 10.527.709 15.744 0-.704-2.67-4.23-4.401-5.038-8.187-.849-3.978-.654-10.564-.629-15.744.046-9.944-1.116-25.684 1.889-32.747 1.361-3.199 3.945-3.439 4.408-6.298-5.6-.968-15.202-1.089-20.781 0-.676 3.31 2.943 4.277 3.777 8.187 2.172 10.182-.564 25.836.63 37.786-3.724 4.905-15.165 14.749-22.671 7.558-4.189-4.014-3.407-31.658-1.889-43.454.594-4.622 5.998-7.665 5.667-10.077-6.15-1.041-16.523-1.041-22.671-.001zm57.938 17.634c7.933-.355 11.943-9.813 14.484-17.634-3.777.418-6.146-.571-9.446-.629-.426 7.341-2.476 13.059-5.038 18.263zm18.892-17.004c1.441 2.145 4.281 4.294 5.038 8.187 1.563 8.038 1.33 33.745 0 44.083-.638 4.958-5.989 7.269-5.038 10.076 10.078 1.468 22.88.211 34.007.629.771-5.526 3.487-9.107 4.408-14.484-5.256 1.926-11.745 7.954-22.041 6.927.554-18.295-4.697-45.146 5.038-56.049-6.958.391-15.493-.796-21.412.631zm40.305 0c.238 1.844 3.346 3.195 4.408 6.298 2.547 7.439 1.637 44.33 0 49.121-1.193 3.493-5.84 4.506-4.408 7.557 10.902.433 21.797.874 33.377.63 2.289-4.429 4.044-9.39 5.038-15.114-6.385 3.481-11.832 7.901-22.042 7.557 1.31-19.38-5.159-44.007 5.039-56.679-6.959.39-15.494-.797-21.412.63zm61.086 49.121c-.711 6.864-4.736 10.182-5.038 13.854 4.864.783 15.014 1.647 18.894-.629-8.412-8.171-5.013-29.35-5.039-44.083 9.688 14.874 21.536 27.585 28.969 44.712 5.17-.848 9.908 1.679 13.854 0 1.359-2.521-1.76-4.616-2.518-7.557-1.958-7.583-.526-25.229 0-37.156.154-3.498-.508-7.138 0-9.446.91-4.133 4.977-5.827 5.038-8.187-3.331-2.414-13.278-1.311-17.634-.63.346 2.91 3.559 3.913 4.408 8.187 1.986 9.991-1.002 26.178-.629 35.896-9.613-14.527-22.257-26.025-27.71-44.713-5.671.416-13.009-.834-17.633.63 7.241 8.515 6.871 31.437 5.038 49.122zm59.826-49.121v1.26c1.247 2.069 3.478 5.652 3.779 8.187 1.81 15.284 1.286 45.514-5.668 52.899 9.333 2.842 23.859.491 35.267 1.259 1.85-4.658 3.903-9.111 5.038-14.484-7.111 2.784-15.085 7.967-24.561 6.298.418-7.14-.836-15.95.629-22.041 6.865-.915 10.413 4.603 14.485 4.408v-17.633c-4.052 2.725-9.034 7.682-15.114 6.298.416-6.301-.836-14.271.629-19.522 8.736-.759 12.902 3.053 20.152 3.779-.113-4.295-.499-8.317-1.889-11.336-10.719.405-23.071-.822-32.747.628zm38.416 0c13.485 16.954 18.656 42.22 27.709 63.605h7.557c9.118-21.11 13.703-46.755 27.709-62.976-6.249-.892-13.773-1.688-20.151-.63 7.677 16.574-6.064 34.814-10.075 49.751-3.217-15.367-16.832-35.1-8.818-49.751-6.658-1.133-17.238-.909-23.931.001zm66.124 0v1.26c1.22 1.169 2.401 3.041 3.148 5.038 2.435 6.506 1.577 40.438.63 45.972-.854 4.995-5.445 7.417-5.037 10.706h35.896c.631-4.909 4.677-9.486 3.778-13.854-6.803 3.483-13.668 6.905-23.931 6.928.417-7.35-.837-16.371.63-22.671 6.314-.017 9.534 3.061 13.855 5.037 1.413-4.883.25-12.344.629-18.263-4.965 2.383-8.01 6.685-15.114 6.927.417-6.51-.835-14.69.63-20.152 9.091-.904 13.709 2.665 20.152 4.408.127-4.535-1.387-7.43-1.26-11.965-11.138.407-23.912-.822-34.006.629zm377.224 1.26c-9.769 18.674-15.543 49.174-30.857 61.716 5.998.563 16.697 2.963 22.041 0-1.305-2.217-5.94-8.385-1.889-13.225h25.189c4.027 4.989-.273 11.067-1.889 13.225 5.766 2.462 18.388 1.289 25.19.63-1.69-3.686-5.345-5.357-7.558-8.816-10.231-16-13.473-38.857-23.301-55.419-3.703-.38-5.972.067-6.926 1.889zm-296.616 20.152c5.536-19.057-18.597-24.595-38.415-20.782.522 2.082 2.965 3.657 3.779 6.298 2.614 8.48 1.979 40.364-1.26 49.121-1.167 3.153-4.185 4.335-3.149 6.927 5.459-.055 11.963 1.507 18.893 0-4.625-5.05-4.945-19.624-2.519-27.709 7.61 12.569 13.815 33.169 34.637 28.339-11.733-6.738-18.188-18.758-23.931-31.488 5.508-2.504 10.455-5.506 11.965-10.706zm16.375-20.782c-.035.805-.809.872-.631 1.89 9.755 5.357 11.191 20.275 15.115 32.747 3.282 10.434 6.318 20.675 10.705 28.339 6.837-1.591 6.893-10.926 8.817-17.003 2.11-6.674 4.376-13.502 6.926-18.893 3.477 12.268 7.279 24.21 11.336 35.896h5.668c7.851-15.898 10.806-41.216 19.522-55.418 1.864-3.037 5.833-4.341 6.298-7.557-5.802-.973-15.628-1.087-21.412 0 10.023 10.914-3.031 28.871-5.667 40.934-6.173-12.721-7.956-29.831-15.114-41.564-5.541 12.933-8.632 28.315-14.484 40.935-2.107-11.856-14.208-30.103-3.149-39.675-5.456-2.357-17.468-1.365-23.93-.631zm97.612-.63c-9.435 16.276-12.901 38.421-22.672 53.53-2.547 3.939-7.236 5.56-8.815 10.076h22.041c-2.584-2.952-6.09-9.649-1.89-13.854h25.19c2.997 5.124.077 10.121-2.52 13.225 6.979 1.042 18.214 1.042 25.191 0-15.287-15.991-19.94-42.616-30.858-62.976l-5.667-.001zm42.193.63c5.554 4.673 5.668 13.8 5.668 25.82 0 10.651.732 23.871-1.259 29.599-1.2 3.449-5.953 4.655-4.409 7.557 11.715-.378 22.193.478 33.377.63 1.879-4.838 3.886-9.55 5.039-15.115-6.395 3.473-12.055 7.678-22.043 7.558.941-18.725-4.976-45.473 5.669-56.049-5.942-1.04-16.1-1.04-22.042 0zm41.564 0c.038 2.425 3.372 3.389 4.408 6.298 2.588 7.265 1.669 43.693-1.26 49.751-1.401 2.899-5.334 3.369-4.409 5.668 4.845 2.156 18.026 1.739 22.042.629-.439-3.11-4.044-3.52-5.037-7.557-1.7-6.906.363-16.857 0-22.041 3.764 3.482 7.642 9.47 12.594 15.743 3.818 4.836 8.527 13.717 13.226 15.115 3.232.961 12.818.829 15.745-1.89-11.594-8.351-23.161-22.182-31.488-35.896 8.066-9.567 16.678-18.588 27.709-25.19-4.743-2.447-16.268-1.295-22.042-.63 1.895 10.224-10.038 19.362-15.743 23.931.443-7.009-.957-12.977 1.259-17.633 1.352-2.84 4.69-3.13 5.038-6.298-5.942-1.04-16.1-1.04-22.042 0zm142.956 0c-.197 2.916 3.58 4.561 4.407 8.817 2.514 12.925.607 48.548-5.667 54.159 10.79.964 22.365 1.145 34.006 1.26 1.959-4.76 3.773-9.661 5.039-15.114-5.43 1.754-11.6 8.099-22.042 6.928.198-18.388-4.32-45.505 5.668-56.049-6.269-.507-15.313-1.403-21.411-.001zm93.203 0c-.707.133-.979.699-1.26 1.26 10.987 6.81 7.103 52.275.631 62.346 6.4-.566 14.655 2.453 19.521-.63-8.03-8.732-5.713-29.831-4.408-43.453 8.791 15.561 21.47 27.232 28.339 44.713 4.681-.358 10.83.754 14.484-.629 1.175-2.03-1.756-4.541-2.52-7.557-2.282-9.025-1.777-43.559.63-49.122 1.327-3.063 4.963-3.624 4.409-6.927-6.126.381-13.803-.787-18.894.63 8.891 7.38 3.902 29.455 4.408 43.454-9.374-14.765-22.508-25.773-27.709-44.713-5.709.375-12.954-.782-17.631.628zm66.125 1.26c4.127 7.872 5.137 36.16 3.148 51.011-.779 5.811-4.9 8.08-5.038 11.335 10.706 1.467 24.14.21 35.896.629 1.842-4.456 3.498-9.097 4.407-14.485-7.094 2.853-15.318 7.664-24.561 6.298.392-7.167-.8-15.914.631-22.042 5.991.306 9.618 2.977 13.854 5.038 2.21-4.526-.148-11.444.631-18.263-4.788 2.35-7.254 7.022-15.115 6.297.686-4.136-1.338-15.315 1.26-19.522 8.078-.101 13.707 2.247 18.894 5.038 1.507-3.581.049-9.151-.63-12.595-10.72.827-24.752-1.659-33.377 1.261z"/><path fill-rule="evenodd" clip-rule="evenodd" fill="#6EC9C2" d="M853.788 159.123c1.757 3.301 9.454 8.705 6.298 17.004-1.363-3.675-.884-9.192-5.038-10.076-2.442 5.182 1.452 9.455 3.148 12.595-1.472-.207-2.601-.757-3.779-1.259.162 5.925 1.596 10.581 3.149 15.114 1.815 1.543 7.803-1.086 6.928 3.149-3.671-.802-13.753-2.543-17.634 1.259.917-3.121-.067-2.592-2.519-1.89 1.941-4.043 5.357-3.611 10.075-2.518-1.432-5.076-3.823-9.192-4.407-15.114-.427-2.145-2.093 2.774-2.519.629.634-3.264.195-5.092-.631-8.186h-3.778c.519 3.05 1.294 5.843 1.89 8.816-1.252-.008-.801-1.718-2.519-1.259-1.828 5.941-6.082 9.453-8.817 14.484 2.068.894 7.948.545 5.038 4.409-3.33-4.208-14.264-.746-16.374 0-.458-1.719 1.252-1.268 1.261-2.52-1.921-.798-3.207 2.153-3.779.63 1.142-2.965 5.455-3.534 8.816-2.519 5.234-3.162 7.049-9.745 9.446-15.744-.575-1.713-1.171 1.677-3.148.63.21-3.149 1.55-5.167 1.259-8.817-8.775-4.676-16.711-10.682-12.594-22.041 3.197-8.828 18.513-14.594 17.632-20.152-.769-4.852-7.56-3.527-9.446-.63.244 1.075 2.968 2.831 3.779 1.26 2.263 2.515-4.846 3.719-5.039.63-1.994 1.154-1.719 4.578-4.407 5.038-1.553-4.682 4.787-4.934 5.667-8.187.222-.819-1.076-.826.631-3.149-.205-1.341-2.748.102-3.15.63-2.681-2.114 4.804-2.689 2.519-4.409.945-2.081 1.54 1.309 3.149.63 5.352-5.228 12.712 2.396 18.893 0 1.893 1.946-3.854 4.198-5.668 2.519 5.5 10.138-12.604 14.058-8.187 27.08 4.338-4.684 3.438-10.667 6.927-15.114 6.047-7.712 16.825-11.182 19.522-22.041-.384-1.506.791-4.569-.63-5.039 4.459-.88 6.72 5.87 6.928 11.336 3.579-3.768 4.936-9.758 6.298-15.744 2.424 2.828 3.793 7.151 3.778 10.706-.022 5.372-3.699 7.601-5.668 12.595-.756 1.918-.122 4.306-.63 6.297-.987 3.876-3.533 7.407-5.038 10.706-2.464 5.402-4.411 7.348-6.297 13.225-2.157 1.411-3.575 3.563-7.558 3.149 9.364 3.288 16.919 16.234 9.447 27.08 1.426-11.938-5.223-20.644-13.224-25.192z"/><path fill-rule="evenodd" clip-rule="evenodd" fill="#6EC9C2" d="M824.19 127.006c1.071-1.799 3.76-2.677 5.668-1.89-.811 1.709-3.131 1.908-5.668 1.89zm60.456 125.321c9.597 1.108 18.111 1.108 27.709 0-10.756 6.374 3.712 24.275-9.447 28.339-10.419.56-15.025-1.958-15.743-8.186-.459-3.989 3.027-7.974 2.52-11.965-.539-4.234-3.922-4.879-5.039-8.188zm-505.064 153.03c23.228-5.425 27.965 55.183 3.778 52.271-15.973-1.924-21.955-48.025-3.778-52.271zm855.208 1.89c25.028-6.469 28.367 49.801 8.817 51.64-19.851 1.867-24.951-43.99-8.817-51.64zm-422.565 22.671c.029-8.814-.172-14.885 1.259-21.412 16.377-3.381 16.034 23.903-1.259 21.412zm138.546-12.595c4.616 7.559 6.59 17.76 10.705 25.819-5.582 1.378-14.422.574-20.151 0 2.683-9.071 6.545-16.963 9.446-25.819zm183.888 0c3.882 8.293 6.958 17.393 10.077 26.45-7.038.318-13.092-.344-19.524-.63 2.243-9.513 6.769-16.742 9.447-25.82z"/><path fill-rule="evenodd" clip-rule="evenodd" fill="#D1202A" d="M375.174 499.191c4.535 1.019 12.174-1.338 17.633 0 5.587 1.37 14.688 12.552 19.522 16.374 19.632 15.519 43.837 28.49 68.644 38.415 34.717 13.89 74.03 22.956 120.283 22.042 79.681-1.575 138.293-27.722 187.667-61.716 5.642-3.884 14.665-13.094 20.782-14.484 8.34-1.895 23.35 0 32.117 0 8.776 0 23.989-1.214 30.858.63 6.834 1.834 14.871 10.382 21.412 15.114 46.133 33.376 112.304 62.425 187.667 64.865 47.424 1.535 85.039-11.499 120.913-23.931 32.24-11.172 55.749-26.589 79.349-47.231 2.722-2.38 7.318-7.554 9.447-8.187 5.611-1.669 12.75 1.308 17.633 0 6.704 100.365 6.086 205.752-2.519 302.283-8.395 94.164-27.14 182.789-51.64 261.978-43.139 139.422-100.972 263.219-182.63 366.518-5.409 6.843-10.355 13.699-17.004 22.042-4.847 6.082-14.831 18.83-19.521 19.522-8.625 1.273-21.924-6.837-30.858-6.928-.401-3.124 4.029-6.07 6.927-9.445 89.333-104.076 158.46-228.342 205.93-375.965 36.343-113.017 60.251-238.343 64.866-385.41 1.486-47.353 3.962-96.399-1.261-144.844-8.265 2.736-15.428 8.135-23.3 12.595-51.779 29.331-126.421 54.065-211.599 42.194-85.82-11.961-151.655-47.541-205.301-90.055-26.407 21.32-57.233 40.079-91.944 55.418-34.296 15.157-69.973 29.712-113.986 33.377-48.861 4.069-94.51.816-132.878-10.706-37.21-11.174-69.499-29.191-100.131-46.602-20.945 356.639 67.142 629.807 207.819 834.427 18.021 26.212 36.504 50.023 57.309 73.682 2.396 2.725 7.166 6.286 6.297 9.446-9.059-.783-21.607 7.762-30.858 6.297-4.718-.746-14.646-13.536-19.522-19.522-87.34-107.242-153.411-238.907-197.742-387.93-23.707-79.69-42.33-167.949-50.381-261.978-8.273-96.618-8.685-201.916-.63-300.394-.054-.894-.104-1.785.63-1.891z"/><path fill-rule="evenodd" clip-rule="evenodd" fill="#D1202A" d="M841.192 533.828c51.75 38.528 114.392 76.059 195.225 86.906 90.882 12.196 173.018-11.542 231.121-42.824 10.473 292.845-53.601 530.003-158.069 716.033-30.014 53.446-64.109 104.704-105.799 149.882-4.406 4.774-13.488 17.293-17.634 18.264-2.647.619-11.564-1.695-12.595-2.52-2.379-1.901-1.224-.793.63-3.149 6.415-8.153 18.277-19.907 23.931-26.449 133.713-154.735 216.719-362.924 246.864-620.939-269.357-1.381-538.224-.673-807.977-.629 27.53 240.183 101.753 436.205 218.525 588.192 14.485 18.854 29.099 38.505 46.602 54.788 1.655 1.54 5.217 3.927 4.409 6.928-4.853-.067-8.457 2.27-12.596 1.89-4.214-.388-12.295-11.563-17.633-17.633-85.273-96.972-150.623-216.904-193.965-353.923-23.173-73.256-43.088-151.864-54.789-237.419-11.779-86.12-16.086-179.776-11.966-276.463 58.427 30.244 140.141 58.072 227.972 44.713 81.529-12.401 145.629-45.61 197.744-85.648zm246.236 125.321c-41.023 26.122-29.74 126.294 32.117 121.543 22.389-1.72 39.513-21.464 44.712-41.564 6.44-24.893-1.396-54.482-11.964-68.014-8.859-11.343-24.604-20.579-44.714-18.263-8.358.964-15.612 3.408-20.151 6.298zm-639.832-6.297c-.632-.002-.75.511-1.26.63.002.631-.51.75-.63 1.259 1.433 2.7 4.356 4.965 5.668 8.816 4.702 13.808 2.339 53.753 1.26 79.349-.369 8.756.067 16.473-1.89 22.042-1.822 5.187-7.135 7.938-6.297 11.336 21.422.62 43.311.771 65.494.63 2.796-9.799 7.112-18.078 9.445-28.339-4.407.661-7.512 4.961-11.965 7.557-8.887 5.181-20.448 7.532-33.377 6.297 3.935-28.673-6.328-74.087 2.52-96.982 1.865-4.826 7.094-6.811 6.928-11.965-10.708-1.469-24.14-.211-35.896-.63zm78.089.63c-2.063 3.457 2.526 6.274 3.778 10.076.718 2.184 1.628 7.055 1.89 10.706 1.271 17.759 1.225 52.145 0 73.681-.362 6.355-1.285 13.386-2.52 17.003-1.79 5.248-6.969 7.703-6.928 11.336 11.568 1.047 27.477 1.047 39.045 0 1.123-3.489-2.84-5.226-4.408-8.187-3.606-6.806-2.68-14.239-3.149-24.561-1.373-30.227-2.327-71.044 6.928-89.425-9.145-2.308-24.495-1.371-34.636-.629zm41.564.629c2.08 3.895 5.886 6.702 8.186 10.706 4.453 7.747 6.858 17.493 10.076 27.079 9.473 28.218 19.867 57.72 28.969 84.387 5.34 1.455 10.185-.494 16.374 0a25436.546 25436.546 0 0 0 20.782-58.567c6.133-17.333 12.447-43.505 23.301-56.048 2.322-2.685 6.673-3.486 6.927-7.558-9.173-2.301-25.995-1.759-35.266 0-.104 3.541 3.552 4.386 4.407 8.187.497 2.204.252 7.436 0 9.446-1.397 11.168-7.762 24.457-11.965 37.155-4.367 13.198-9.457 25.779-13.225 35.897-3.709-10.188-7.62-22.955-11.965-35.897-4.223-12.575-10.263-25.985-11.336-37.155-.918-9.547 3.154-12.472 4.408-17.633-12.296-.735-28.008-2.547-39.673.001zm122.173 0v1.26c4.099 3.973 7.406 9.755 8.187 17.003 1.845 17.126 1.013 48.242 0 70.533-.171 3.77-.25 7.979-.63 11.336-1.143 10.102-6.445 16.581-9.446 21.412 20.579 2.513 45.465.717 68.014 1.26 2.679-9.033 9.483-20.872 8.817-28.339-9.999 7.433-25.383 17.064-45.343 13.854.003-14.901.253-29.555 1.259-43.453 7.15 1.143 13.398.755 18.893 3.148 3.936 1.714 5.943 6.567 10.076 5.668-.577-11.007 1.497-21.88 0-30.229-4.104.083-6 4.475-10.705 6.298-5.17 2.001-11.65 2.239-18.893 2.519-.842-12.084-1.365-27.853.629-39.045 10.935.247 20.477.685 27.71 4.409 3.551 1.829 5.46 6.229 9.446 5.667-.183-8.424-1.529-15.684-1.89-23.93-21.835.416-45.337-.836-66.124.629zm256.94 39.045c4.341-36.971-37.17-41.879-74.312-39.674-1.283.186-1.234 1.704-2.519 1.889 11.189 11.993 6.927 34.787 6.927 59.197 0 15.109.913 30.602 0 41.564-.716 8.596-4.746 15.385-5.668 20.782 9.885 1.451 22.448.223 33.378.63.292-4.379-3.634-6.853-5.038-11.965-2.938-10.688-.375-24.828-1.26-37.786 25.738-1.664 45.778-11.514 48.492-34.637zm11.965-11.966c-3.859 8.321-9.083 30.469-6.298 47.862 2.953 18.434 14.148 39.894 30.858 47.862 22.362 10.662 47.54-.397 58.567-15.744 28.992-40.349 6.678-115.745-48.491-107.059-17.185 2.706-28.335 13.497-34.636 27.079zm213.487-25.819c1.113 2.95 4.929 5.275 6.298 9.446 1.817 5.543 2.13 14.289 1.89 22.671-.686 23.846 4.413 63.494-3.779 81.238-1.697 3.676-5.245 5.101-5.038 8.817 20.787 1.464 44.289.213 66.125.629 3.388-9.417 7.983-17.626 9.446-28.969-3.247.379-5.354 3.668-8.187 5.667-8.921 6.297-21.72 10.677-37.157 8.186.639-25.722-2.537-62.336 0-86.905.356-3.441 1.308-7.851 2.52-10.706 1.881-4.427 6.618-6.731 6.928-11.336-10.98.965-32.757-3.33-39.046 1.262zm-326.212 35.896c6.085-37.057-34.847-39.618-71.793-37.156-.631-.002-.749.51-1.259.63V656c3.637 4.705 6.362 11.01 6.927 18.893 1.252 17.485 1.365 51.078 0 73.051-.85 13.669-4.626 23.202-8.816 28.969 11.149 1.045 26.637 1.045 37.785 0-1.492-4.066-4.676-6.708-6.297-11.966-3.512-11.391-.83-28.522-1.26-40.935 13.305 17.391 21.941 51.053 47.861 54.789 3.304.477 10.838.928 13.226-1.889-17.169-16.208-29.483-37.271-40.935-59.197 10.605-6.727 22.307-12.724 24.561-26.448z"/><path fill-rule="evenodd" clip-rule="evenodd" fill="#D1202A" d="M1108.84 667.336c41.383-7.066 47.067 97.946 7.557 98.872-6.027.141-12.824-3.137-17.003-6.928-21.096-19.131-22.398-86.506 9.446-91.944zm-110.838.63c41.801-5.346 42.825 97.212 6.298 98.872-37.526 1.704-44.417-93.997-6.298-98.872zM800.259 710.79c.797-13.897-1.621-31.01 1.26-42.823 34.59-1.544 28.284 42.999-1.26 42.823zm97.612 3.149c.721-14.814-1.514-32.583 1.26-45.343 36.078-5.454 32.934 51.119-1.26 45.343zm-85.017 109.577c12.426 22.211 20.672 48.602 35.267 68.644-4.623 1.465-11.962.214-17.634.629 1.299-8.066-3.847-14.436-6.297-20.781h-24.561c-2.492 6.117-8.18 12.388-6.928 20.152-4.204 1.464-11.121.214-16.373.629 13.643-21.624 24.338-46.195 36.526-69.273zm-9.446 40.304h17.002c-2.981-6.045-4.373-13.68-8.816-18.264-2.287 6.53-5.705 11.927-8.186 18.264zm-250.014-39.045c26.975-4.079 48.365 27.905 30.858 54.789-15.626 23.997-54.698 13.849-57.938-15.113-2.339-20.921 9.59-37.031 27.08-39.676zm-3.148 58.568c35.231 17.03 39.88-57.425 3.148-50.381-21.9 4.2-20.472 42.007-3.148 50.381zm76.2-58.568c43.177-6.624 46.909 59.262 13.225 68.013-23.969 6.227-42.451-15.443-40.304-38.414 1.51-16.162 12.895-27.423 27.079-29.599zm-3.149 58.568c34.929 16.884 39.836-56.29 3.779-50.381-22.615 3.707-20.605 42.247-3.779 50.381zm410.601-57.308V838c-7.977-5.994-23.052-7.53-32.117-2.519-21.247 11.743-13.542 49.445 11.965 49.75 9.426.113 15.543-4.631 22.042-7.557v10.706c-29.735 13.393-62.464-.898-58.567-34.007 2.839-24.139 27.842-35.097 56.677-28.338zm-555.445-1.26h39.675c-1.605 3.645-3.786 6.711-5.038 10.706-6-1.976-11.576-4.377-20.152-3.778-1.466 6.301-.212 15.322-.629 22.671 6.301 1.466 15.321.212 22.671.63-1.901 3.556-4.102 6.813-6.298 10.075-4.172-2.125-9.369-3.226-15.744-3.148-1.324 9.725-1.173 23.423 1.89 30.857h-16.374c4.737-18.086 4.671-49.914-.001-68.013z"/><path fill-rule="evenodd" clip-rule="evenodd" fill="#D1202A" d="M721.539 824.775c-1.148 4.1-2.809 7.688-4.408 11.336-4.909-2.437-10.69-4.004-18.263-3.778-.736 19.211-2.325 44.729 2.518 60.456h-16.373c4.957-16.034 1.482-40.5 2.519-60.456-8.415-.018-15.095 1.698-21.411 3.778 1.416-3.621 1.14-8.936 3.778-11.336h51.64zm9.447 0c17.571-.935 36.342-.07 38.414 14.485 1.072 7.533-2.678 14.185-9.446 17.004 5.217 4.885 11.71 7.774 12.596 15.743 2.12 19.104-20.017 22.51-41.563 20.781 4.016-18.037 3.947-49.962-.001-68.013zm13.225 30.858c15.188 2.321 19.319-25.53.629-24.56-1.438 6.959-.234 16.56-.629 24.56zm0 30.858c23.527 3.35 18.642-30.055 0-28.339v28.339zm112.727-61.716h16.373c-5.656 15.966-2.193 41.051-3.148 61.716 9.278-1.428 19.19-2.222 25.82-6.298.757 3.917-3.444 8.306-4.409 12.595h-34.636c3.983-18.219 3.914-49.779 0-68.013zm49.75 0h16.374c-5.765 15.859-2.126 41.118-3.149 61.716 9.278-1.428 19.19-2.222 25.82-6.298.758 3.917-3.444 8.306-4.408 12.595h-34.637c3.942-18.261 3.942-49.751 0-68.013zm142.324.63c4.414-1.464 11.543-.214 17.004-.63-5.969 15.654-1.994 41.248-3.148 61.716 9.354-1.351 19.012-2.399 25.82-6.298.419 3.578-3.562 8.188-4.408 12.595h-35.268c4.797-17.02 5.021-50.408 0-67.383zm45.342 0c4.204-1.464 11.122-.214 16.373-.63-1.614 10.856-6.724 46.4 0 55.419 6.255 8.389 27.229 7.225 28.97-6.297 1.829-14.216-.01-36.893-2.52-49.122h16.374c-4.723 17.26-4.987 50.175 0 67.384-2.948 1.46-8.599.217-12.595.629v-6.926c-10.381 8.944-31.967 11.054-40.305-.631-10.112-14.171 2.935-43.995-6.297-59.826zm72.423-.63c17.601-.987 36.26.029 38.414 14.485 1.111 7.456-2.766 14.183-9.446 17.004 5.616 5.289 12.397 8.358 12.595 17.633.371 17.351-20.459 20.532-41.563 18.892 3.984-18.22 3.914-49.78 0-68.014zm13.854 31.489c15.083.192 17.508-26.18 0-25.191-1.022 6.958-1.068 18.239 0 25.191zm-.629 30.227c23.516 3.294 18.566-29.977 0-28.339v28.339zm-853.949-58.567c30.477 5.682 29.916 49.421 25.82 83.757-1.503 1.061-3.734-1.798-5.039-3.148-3.878-4.018-11.324-11.955-12.595-18.894-2.233-12.202 1.726-24.142.63-35.896-.995-10.676-6.331-15.166-8.816-23.93v-1.889zm1025.242 0c.394 8.88-7.197 15.187-8.188 27.08-.847 10.18 2.166 21.381 1.261 31.487-1.146 12.803-11.373 20.016-18.263 25.819-3.892-34.601-4.562-77.662 25.19-84.386zm-1080.66 30.857c22.555 13.248 35.581 50.462 23.93 84.388-1.984-12.079-3.291-24.838-11.965-30.228-6.963 13.996-5.314 41.132 1.259 54.159-1.175 3.021-3.368 5.028-4.407 8.186-10.932-10.236-21.469-21.271-20.152-39.675 1.174-16.427 10.469-33.328 11.965-52.269.62-7.863.004-16.028-.63-24.561zm1136.078 0c.536-.114.595.246.631.631-2.312 17.613.799 34.043 4.408 48.491 2.814 11.268 8.439 20.604 6.928 34.637-1.584 14.7-10.809 23.213-18.893 32.747-2.956-1.454-3.114-5.704-5.668-7.558 6.818-14.28 8.128-39.01 1.889-54.788-8.643 5.422-11.592 16.537-11.335 30.857-13.835-32.199.395-71.128 22.04-85.017z"/><path fill-rule="evenodd" clip-rule="evenodd" fill="#D1202A" d="M315.977 893.419c28.577 19.074 32.916 62.388 37.155 105.799 5.232-2.539 11.705-9.284 22.671-8.187-4.541 9.663-8.565 18.327-7.557 33.376 2.145 31.991 22.574 55.76 24.561 90.685 2.379 41.837-14.59 74.124-45.973 85.648 6.209-13.873 11.568-25.385 12.596-43.454 2.268-39.867-24.619-59.989-36.526-86.906-5.262 34.337-34.325 55.207-40.304 89.426-2.352 13.458 1.275 30.754 6.297 39.674-26.347-4.453-42.9-28.34-48.49-55.418-6.338-30.694 3.58-71.563-10.076-97.612 14.725 1.871 25.219 13.396 34.007 23.301 1.017-74.973 49.25-102.729 51.639-176.332zm-44.713 212.857c-4.83-5.246-7.289-12.863-13.854-16.374-7.952 26.068-3.705 60.875 6.928 79.35 2.327 4.043 4.278 10.135 7.557 9.445-6.776-40.535 12.378-64.332 23.931-93.833 4.87-12.437 7.622-26.222 10.706-38.415 3.081-12.18 7.022-24.252 17.003-30.857 1.578 34.826 21.986 51.609 34.637 78.719 10.713 22.957 16.865 52.814 8.188 83.128 7.99-14.197 13.899-31.273 12.594-52.27-1.012-16.307-7.328-29.77-13.224-43.453-17.036-39.535-33.413-82.094-40.305-130.36-11.447 58.25-46.831 92.557-54.161 154.92zm1145.526-37.155c8.453-7.923 17.569-20.636 34.007-22.672-9.271 18.638-8.161 44.803-7.557 71.792.469 21.003-4.985 39.01-13.226 52.899-7.998 13.482-18.732 25.091-37.155 28.339-.312-3.509 2.392-7.271 3.777-11.965 14.315-48.485-33.336-75.041-37.784-116.505-11.497 23.082-34.739 41.734-37.155 74.94-1.613 22.147 4.853 38.979 12.595 54.79-28.224-9.252-46.434-40.25-46.603-76.201-.092-19.604 4.445-37.123 10.706-52.899 9.562-24.095 22.61-55.081 6.928-80.608 11.165-.671 16.404 4.587 22.671 8.816 3.676-43.975 8.649-86.653 36.525-106.428 3.37 72.621 50.426 101.554 52.271 175.702zm-85.018-27.08a1383.83 1383.83 0 0 1-16.374 39.045c-5.896 13.49-12.143 27.087-13.225 42.193-1.505 21.01 3.529 41.042 13.225 54.159-3.182-12.156-5.975-23.316-5.038-38.415 3.261-52.482 42.792-73.885 47.231-124.063 19.056 17.735 18.73 48.015 29.6 73.683 11.395 26.911 28.527 55.195 22.041 90.685 17.721-14.455 22.556-58.494 14.485-89.426-5.74 2.031-9.285 11.706-14.485 16.374-6.884-62.389-41.345-97.201-54.158-153.66-5.669 30.166-11.996 61.216-23.302 89.425zm-294.725-137.287h1.89c24.241 24.131-.518 64.935-13.855 85.646-31.027 48.186-77.779 84.85-124.691 113.356 10.928 1.602 23.169-9.488 33.377-10.706.295 23.824-25.684 26.781-42.823 35.267 14.284 2.688 29.149-8.173 42.194-8.816-3.359 19.733-25.437 20.747-42.194 27.079 13.082 4.033 26.123-2.828 39.045-3.148-4.144 16.638-21.943 19.621-39.675 22.671 6.524 4.661 19.836 2.769 29.599 2.519-3.953 12.422-16.479 16.269-31.488 17.635 4.781 6.01 14.605 8.776 23.302 11.335 13.045 3.837 26.987 6.417 45.342 5.668-.789 5.571-7.615 9.011-12.595 11.966-17.272 10.244-40.849 6.853-58.567-3.779-11.083-6.648-19.061-16.22-27.079-21.412 2.34 10.75 10.387 19.733 18.263 27.08 24.576 22.927 63.026 42.102 59.197 92.574-.451 5.94-1.139 13.746-6.298 16.373 3.424-39.828-19.878-58.633-39.675-76.83-18.571-17.07-33.115-33.241-41.563-58.567-3.067 9.147.813 19.058 4.408 26.45 10.621 21.839 31.703 38.184 48.491 53.529-4.821 30.717 7.881 52.912 24.561 66.124-9.169 3.772-19.03-1.704-24.561-5.668 4.204 28.678 4.844 57.977 17.004 79.349 1.508 2.651 3.266 5.047 5.667 6.299 10.143 5.284 32.714-3.584 35.268 8.187 1.406 6.486-4.084 9.064-7.559 11.965-2.317-.868-5.329-6.03-9.445-6.927-18.326-3.99-63.14-5.151-73.052 5.037-1.599 1.644-2.445 3.864-3.149 5.669-11.433-.202-6.832-12.688-1.259-15.744-8.536-.56-12.641 3.314-16.374 7.558-7.453-6.295.604-17.316 11.965-14.484 3.388-18.782 28.717.634 40.935-3.149-.017-7.156-4.884-13.106-7.557-19.522-8.14-19.534-13.77-41.819-17.004-66.754-4.456 1.687-8.227 9.366-15.113 10.705 5.746-13.761 3.864-34.849-1.89-47.231-33.23-5.436-61.25-12.104-86.277-27.079-26.186-15.668-49.066-40.553-45.973-83.757 3.423-47.771 42.073-73.796 71.793-97.612 9.792-7.848 23.441-17.584 27.709-28.34 1.79-4.511 1.943-10.808.63-14.484-5.731-16.044-28.595-8.921-43.452-6.928-3.978 4.001-6.084 9.871-10.077 13.855 9.142-3.512 12.843 6.354 17.634 6.928 3.854.461 5.394-2.813 9.446-4.409-.591 18.213-28.624 19.219-30.858 1.89-1.951 2.332-5.713 1.876-6.928 5.038-.721 1.88.764 4.836 0 6.928-2.26 6.197-12.956 9.403-10.705 17.633-9.207.021-12.23-7.915-10.076-14.484 2.947-8.988 19.827-11.478 23.301-18.894-11.639.878-26.302 14.148-34.007.63 1.999-1.545 3.853-.658 6.298-1.259 9.966-2.451 21.103-12.929 30.228-1.89 2.844-2.824 5.029-6.306 6.927-10.076-.843-3.355-6.794-1.604-6.298-6.298.684-3.096 7.717.16 9.447-1.889 1.701-2.916 2.555-6.682 2.518-11.336-7.224-.713-15.587 2.883-22.042 5.038 1.688-10.907 10.861-14.328 20.782-17.003-.251-4.576-2.282-7.374-4.408-10.076 2.414-1.154 6.284-.853 8.817-1.89 1.076 3.751 2.552 7.105 3.777 10.706 4.01-.819 9.006-.651 13.855-.63 1.918-.758-1.676-4.523.629-5.668 19.479-23.812 64.817 16.772 91.315 8.187 3.978-1.288 5.764-4.655 8.815-5.667 1.354 18.748-22.641 20.077-40.933 17.633 6.416 6.11 14.03 11.297 12.595 25.82-.351 3.536-1.919 8.834-3.149 11.335-13.785 28.048-53.622 46.865-54.159 89.426-.104 8.297 2.258 19.908 7.558 20.152 8.951.411 12.2-24.479 13.855-30.857 2.645-10.204 6.734-24.588 11.336-33.378 9.784-18.692 28.468-33.074 43.452-45.973 16.115-13.869 32.219-28.032 45.343-44.082 11.955-14.618 28.746-37.762 30.858-58.567 1.064-10.473-3.499-16.292-4.408-22.671 13.871 3.403 21.505 11.337 20.152 30.227-1.696 23.677-16.83 42.619-30.229 57.938-26.631 30.448-68.981 53.881-88.796 86.907-5.528 9.215-9.702 19.66-13.225 30.858-3.706 11.78-6.955 23.978-12.595 30.858-2.782 3.392-7.586 5.108-11.966 10.076 5.127 2.872 10.516-1.031 13.855-3.149 10.438-6.619 16.623-20.044 22.041-34.636 5.56-14.979 11.34-24.628 22.671-34.007 20.328-16.827 44.816-30.63 65.495-47.862 20.213-16.845 38.112-37.201 52.898-60.457 15.146-23.817 27.829-54.695 30.858-88.165-.176-1.022.596-1.089.631-1.894zm-222.934 105.169c4.568 4.86 14.745.599 20.152-1.259-6.156-1.821-12.636-3.318-20.152-3.779v5.038zm-27.079 17.004c6.642-2.175 16.784-.849 17.003-9.445-3.31-2.148-8.961-1.956-14.484-1.89-1.012 3.606-1.16 8.076-2.519 11.335zm-15.114 154.291c3.277 37.585 32.745 58.864 64.234 68.643-3.866-6.235-11.411-8.963-17.003-13.854-16.495-14.429-30.564-36.8-32.117-64.865-1.452-26.22 8.433-40.873 17.003-57.937-.139-.491-.527-.732-1.26-.631-18.354 14.442-33.476 38.612-30.857 68.644z"/><path fill-rule="evenodd" clip-rule="evenodd" fill="#D1202A" d="M1055.31 944.43c1.017-.178 1.084.594 1.89.629 9.452 27.216-12.068 48.27-26.449 63.606-13.791 14.705-27.435 27.86-41.565 37.155.082-5.282 5.088-8.173 8.187-11.336 24.113-24.603 44.64-53.404 57.937-90.054zm-62.346 5.667h1.26c18.23 18.738-.99 46.994-12.595 62.347-23.027 30.464-52.003 48.927-82.498 71.791-5.692 4.268-10.749 10.416-17.633 11.335 2.053-7.458 9.138-11.62 14.484-16.373 26.978-23.981 56.54-44.987 78.089-76.2 9.916-14.363 19.289-30.523 18.893-51.01v-1.89z"/><path fill-rule="evenodd" clip-rule="evenodd" fill="#D1202A" d="M1052.162 994.18c-.777 15.345-10.295 27.639-18.264 38.415-23.906 32.327-59.565 55.873-95.723 76.2 3.399-4.675 4.258-14.272 1.259-20.151 43.602-25.042 80.594-56.695 111.467-94.464h1.261zm-25.191 57.937c2.341 11.992-6.873 21.438-13.225 28.969-19.915 23.611-47.796 42.038-78.09 54.789.727-4.732 6.93-12.096 3.778-20.783 34.268-15.902 62.434-37.906 87.537-62.975zm-15.744 45.973c-4.447 18.873-19.106 31.118-32.748 40.934-14.261 10.262-31.19 18.688-50.38 23.301-1.693-2.851 3.775-4.901 5.667-8.816 1.822-3.769 2.298-8.284 1.89-12.596 29.095-9.949 53.318-24.771 74.31-42.822l1.261-.001zm-687.694 10.076c24.758 14.152 30.621 74.743 4.408 91.943 5.708-13.245 6.254-40.095-4.408-50.38-4.441 15.938-18.313 28.394-12.595 50.38-9.001-4.229-14.12-13.073-14.484-24.561-.908-28.603 20.724-43.116 27.079-65.495v-1.887zm1033.43 0c5.506 25.065 31.178 38.391 27.079 71.791-1.11 9.058-5.922 16.537-13.854 20.152 5.709-21.699-8.218-33.438-11.966-49.75-11.771 8.531-11.145 35.387-5.038 49.75-26.463-16.84-20.243-77.412 3.779-91.943zm-363.369 30.857h1.26c-5.906 15.776-20.03 25.673-33.378 34.007-13.494 8.426-30.403 15.866-50.38 17.003 6.906-5.479 15.984-8.786 15.114-22.041 27.547-4.57 48.433-15.802 67.384-28.969zm-23.301 37.786c.774.275 1.293.806 1.259 1.889-4.761 4.148-6.626 14.788-13.854 17.634-8.982 3.536-27.85-.066-34.637-2.519 18.98-2.432 33.574-9.25 47.232-17.004z"/><path fill-rule="evenodd" clip-rule="evenodd" fill="#6EC9C2" d="M367.616 1217.113c-11.735 5.269-21.017 12.99-25.819 25.19-12.154-1.033-27.502-.931-39.675 0-7.132-11.342-16.595-20.353-29.599-25.82 4.012-3.853 10.65-4.432 17.003-5.668 17.853-3.472 40.663-3.845 59.198 0 7.126 1.478 15.051 1.946 18.892 6.298zm1040.988-1.259c-6.765 5.36-14.975 7.597-20.782 13.854-3.485 3.757-4.827 8.377-8.187 12.596-12.467-.764-27.915-1.177-40.305 0-4.863-12.141-14.271-19.735-25.82-25.19 8.721-6.499 23.232-7.744 37.156-8.816 20.85-1.609 43.473 1.097 57.938 7.556z"/><path fill-rule="evenodd" clip-rule="evenodd" fill="#D1202A" d="M887.795 1217.742h1.89c44.541 17.729 100.514 31.562 100.131 94.464-.077 12.619-3.02 24.382-6.928 34.007-3.669 9.037-8.688 18.603-15.743 24.561 12.423-39.104-3.54-76.508-23.302-102.021-15.829-20.436-38.828-34.334-55.419-49.121-.737-.101-.531-1.149-.629-1.89z"/><path fill-rule="evenodd" clip-rule="evenodd" fill="#6EC9C2" d="M339.906 1251.749v17.004c13.546.652 27.822.264 28.97 12.596 1.199 12.896-12.704 17.267-28.97 15.743-.392 7.374.803 16.337-.629 22.671-10.946 2.488-23.442 3.428-37.155 3.149v-25.82c-15.36 1.674-32.874-2.18-28.969-18.262 2.27-9.347 16.442-10.646 28.339-8.817 1.414-4.884.25-12.345.63-18.264h37.784zm1039.098 0v17.634c15.098-1.226 30.607 1.094 28.969 15.744-1.301 11.634-13.924 12.221-28.338 11.965-1.468 7.35-.212 17.422-.631 25.82-13.934.289-26.562-.728-37.785-3.149v-22.041c-7.435-2.175-15.297.618-22.041-2.52-7.541-3.508-9.707-15.348-3.779-21.411 4.969-5.083 14.115-4.386 25.191-4.408 1.139-3.227.42-11.617.629-17.634h37.785z"/><path fill-rule="evenodd" clip-rule="evenodd" fill="#6EC9C2" d="M490.419 1270.643c3.794 2.294 3.882 8.293 6.927 11.336-26.232 16.194-56.463 33.104-90.055 45.342-46.429 16.916-118.491 33.738-164.996 6.298-2.306-5.251-4.782-10.332-6.928-15.743 18.607 9.993 40.042 16.614 65.494 17.633 25.058 1.001 51.061-5.3 71.793-11.966 44.199-14.213 84.17-32.134 117.765-52.9zm951.56 50.38c.907 5.949-4.246 11.281-5.667 17.003-20.511 8.661-42.479 15.612-69.273 14.484-24.487-1.03-49.829-7.827-69.902-13.854-43.629-13.102-80.353-32.885-115.246-52.27 1.749-4.549 3.847-8.749 6.298-12.596 34.175 19.919 73.167 39.166 115.874 52.899 40.445 13.007 104.219 20.651 137.916-5.666z"/><path fill-rule="evenodd" clip-rule="evenodd" fill="#D1202A" d="M802.148 1283.237c11.994 5.009 23.813 10.195 38.415 12.595.352 17.912 5.419 31.106 11.966 42.824-8.719-.519-12.465-6.008-18.264-9.446-4.149 29.07-22.068 46.852-36.526 66.753-4.182 5.758-10.172 11.159-11.335 18.894 8.465 4.44 30.75-2.731 34.006 8.188 1.566 5.247-2.098 11.059-6.927 13.225-2.142-.588-1.134-4.325-3.148-5.038-19.821-6.611-57.874-6.597-75.571 1.89-1.326 1.611-1.559 4.317-2.519 6.297-13.39-.357-6.53-14.93.63-17.004-8.854-2.342-15.199 3.271-19.523 7.558-9.223-7.984 4.023-17.859 14.484-13.854 1.313-.997.213-4.406 1.26-5.669 12.59-8.419 24.685 5.798 35.896 1.89 5.893-2.053 11.868-14.757 15.114-20.151 12.848-21.352 26.137-47.228 32.747-71.162-5.66 2.529-11.752 10.077-22.041 10.075 5.959-13.776 10.239-29.229 11.336-47.865z"/><path fill-rule="evenodd" clip-rule="evenodd" fill="#6EC9C2" d="M557.803 1384.628c-31.092 17.19-63.869 32.693-79.35 65.495-29.807 14.998-64.759 29.279-104.539 36.526-39.17 7.135-90.828 8.423-121.543-8.817 23.91-16.813 47.361-34.088 66.125-56.048-27.84-17.083-50.589-39.259-65.495-69.273 54.87 23.59 118.591 4.076 165.626-15.113 31.478-12.844 60.063-27.282 85.017-42.195 17.27 30.591 35.669 60.054 54.159 89.425zm867.802-27.71c-15.127 29.166-36.574 52.011-65.494 67.385 17.08 23.645 42.111 39.338 64.865 57.309-13.148 6.885-25.643 12.748-43.453 13.854-73.982 4.595-134.044-18.436-181.37-42.193-15.104-33.177-47.477-49.087-78.719-66.124 18.253-29.398 36.998-58.305 54.159-88.795.535-.116.594.245.629.629 33.736 18.23 69.84 39.716 110.838 52.899 39.136 12.584 96.014 23.337 138.545 5.036zm-801.048 117.766c-27.273 4.744-60.538 16.8-95.093 14.484-16.451-1.104-37.821-5.858-39.675-22.672-1.289-11.694 6.369-22.587 11.965-28.968 15.391-17.549 42.565-29.447 63.605-40.935 19.063 26.281 40.275 53.77 59.198 78.091zm488.06-74.942c14.875 5.334 33.146 16.124 45.973 25.82 13.32 10.069 30.439 21.977 30.228 40.934-.206 18.539-22.82 24.703-40.935 25.82-15.46.953-33.187-2.765-49.119-5.667-16.243-2.959-31.797-6.563-44.714-9.447 19.224-26.118 40.455-50.229 58.567-77.46z"/><path fill-rule="evenodd" clip-rule="evenodd" fill="#6EC9C2" d="M1203.302 1469.646c31.342 14.132 70.142 28.621 110.838 35.266 44.341 7.24 94.134 3.031 124.691-15.113 5.946 1.401 10.454 4.24 15.114 6.927-30.412 21.972-78.759 28.904-128.471 23.301-45.125-5.087-86.514-19.92-119.653-35.266-19.121 47.932-94.474 34.938-146.103 22.041-74.828-18.69-149.295-39.789-244.976-35.267-57.814 2.733-111.419 11.884-163.737 23.931-23.275 5.36-49.584 13.336-76.83 17.004-42.299 5.694-89.902 4.338-101.391-30.229-35.312 14.916-72.734 30.626-120.912 34.637-25.891 2.155-50.103 3.016-72.422-1.89-21.158-4.648-39.758-11.466-56.049-21.412 3.93-3.417 9.57-5.123 14.484-7.557 68.25 38.603 179.93 9.407 237.418-18.892 7.865 43.983 77.24 36.924 121.543 27.079 23.848-5.3 47.475-11.198 69.902-16.374 49.727-11.475 99.885-19.029 151.143-21.412 62.48-2.904 123.016 7.992 175.071 18.894 25.539 5.349 51.427 13.567 77.46 18.893 46.699 9.549 122.166 28.451 132.88-24.561z"/><path fill-rule="evenodd" clip-rule="evenodd" fill="#6EC9C2" d="M1201.412 1512.469c-8.894 20.293-24.09 40.956-39.674 60.456-15.066 18.854-29.372 38.979-45.342 54.159-15.776 14.995-35.771 27.056-68.645 24.561-15.752-1.195-32.845-7.707-49.75-11.966-47.972-12.081-101.081-23.301-161.218-23.3-62.118 0-112.948 8.96-163.107 21.41-25.639 6.365-61.379 18.772-89.425 6.299-12.096-5.38-23.433-18.203-32.747-28.97-28.216-32.606-54.775-70.522-76.201-107.688 4.154-.423 5.444 4.338 7.557 6.298 11.504 10.673 33.959 16.536 57.938 16.373 45.581-.309 89.645-14.784 134.139-24.561 45.01-9.89 90.406-17.254 139.176-19.522 109.224-5.078 189.832 25.667 279.611 42.824 29.817 5.696 65.161 9.712 91.315-4.409 5.766-3.113 9.057-8.396 16.373-11.964zm-457.832 7.556c.727 5.537-3.164 15.168 1.26 18.264 3.543-5.277 10.107-12.983 21.412-12.595-.08 17.253 8.6 42.807 2.519 58.566-1.117 2.894-4.867 4.631-3.779 8.187 9.043-1.032 18.014-2.139 27.709-2.519.277-3.714-3.61-5.646-5.037-9.446-5.69-15.148-3.428-39.936-5.668-56.678 5.802.34 10.412.067 14.484 1.89 3.847 1.721 5.49 7.021 9.445 6.297.686-5.794-3.257-12.225-4.407-18.263-20.823.589-39.885 2.937-57.938 6.297zm122.173-6.296c-5.397 5.728-12.645 9.606-17.633 15.743 12.325 3.774 9.63 43.396 4.409 52.9-1.725 3.139-5.635 3.889-6.299 6.927 7.369 2.109 20.025 2.183 27.709 1.889-.031-3.997-3.52-6.158-4.407-10.705-3.08-15.766 4.373-47.216 2.519-66.124-2.434.123-4.641.021-6.298-.63zm65.495 26.45c3.829-30.068-44.572-27.778-40.935 0 .792 6.044 4.585 7.274 7.558 13.224-18.8 4.294-22.021 32.737-5.038 40.935 26.918 12.992 47.884-23.802 25.19-39.045 6.903-2.931 12.266-7.584 13.225-15.114zm-245.605 1.887c-.504 5.634 1.651 11.336 4.408 14.485 7.015 8.008 34.446 8.843 37.156 20.152 2.479 10.344-4.45 15.43-10.076 16.373-8.826 1.48-20.744-9.086-22.041-8.187-3.801 2.636 4.37 12.96 5.038 18.263 6.928-2.182 12.704-.354 19.522-1.259 17.074-2.271 28.729-22.772 17.633-37.156-3.688-4.78-11.412-8.144-18.263-10.075-7.739-2.183-17.666-3.312-18.893-10.077-1.659-9.149 7.131-13.354 14.483-12.595 6.242.645 8.999 6.277 13.225 6.298 1.422-5.095-1.983-10.534-3.148-15.114-22.568-1.194-37.606 2.83-39.044 18.892zm267.646 61.087c4.527-.347 10.328-5.129 14.485-8.187 11.823-8.697 26.9-23.22 26.449-42.193-.614-25.767-34.631-32.621-45.973-13.226-10.293 17.605 3.857 35.574 23.301 32.748-8.815 12.386-21.593 20.811-38.414 25.189 5.605 1.98 13.901 6.148 20.152 5.669zm-295.355-67.383c-16.646 3.924-34.957 6.188-49.121 12.596 1.839 1.736 4.514 3.245 6.299 5.667 4.845 6.58 12.443 32.271 13.853 47.232.922 9.778-2.344 14.158-3.148 18.892 16.627-2.064 34.238-8.578 51.641-11.965-.63-5.98 1.371-16.889-1.26-18.893-3.791 1.091-5.863 5.444-9.447 8.187-5.713 4.373-12.727 7.676-21.411 8.817-2.192-7.885-3.398-16.754-5.668-24.561 7.519-3.826 17.813-1.081 23.301 2.519-.462-7.971-3.067-19.157-6.927-25.82-4.175 6.952-10.047 12.204-19.523 13.855-1.727-6.88-3.961-13.251-5.037-20.782 8.172-5.386 24.205-3.507 32.117-1.26.596-4.884-3.973-9.818-5.669-14.484zm394.857 24.56c-2.87-23.155-38.723-24.842-49.121-6.298 4.555 3.633 5.854 10.521 12.596 11.966 2.041-7.526 4.469-15.73 14.484-13.855 11.707 2.193 7.1 18.664 1.259 25.191-11.532 12.888-36.046 23.68-49.75 29.599 7.588 5.296 17.944 5.727 27.708 8.186 9.717 2.448 19.622 5.429 28.97 7.558 3.474-5.132 7.786-9.426 10.075-15.743-9.134 1.842-24.693 2.55-34.007-1.89 14.284-9.564 40.724-21.005 37.786-44.714zm-233.01 1.259c13.764 3.899 15.707-21.308 0-15.743-6.726 2.383-7.056 13.745 0 15.743z"/><path fill-rule="evenodd" clip-rule="evenodd" fill="#6EC9C2" d="M909.207 1528.213c17.678-2.869 9.892 28.744-5.038 18.263-6.985-4.903-2.211-17.087 5.038-18.263zm57.307 11.335c17.049-4.577 16.749 19.96 6.298 22.672-15.041 3.903-19.952-19.007-6.298-22.672zm-64.235 22.041c18.715-4.464 14.923 24.736 1.89 25.191-13.424.468-13.943-22.314-1.89-25.191zm176.961 99.502c-6.147 9.299-25.264 14.439-42.823 14.484-15.005.038-30.376-4.788-46.602-8.816-43.669-10.84-92.112-19.216-144.214-21.411-53.549-2.258-104.304 6.567-148.623 16.373-25.461 5.633-55.988 14.792-83.127 5.038-5.137-1.846-11.593-3.092-13.856-7.558 36.763 8.468 77.895-7.81 113.356-15.113 30.317-6.245 63.955-11.634 97.613-13.225 67.484-3.192 123.726 8.927 177.591 21.412 26.92 6.239 59.81 18.933 90.685 8.816z"/></svg>