<svg xmlns="http://www.w3.org/2000/svg" width="360" height="360" viewBox="0 0 360 360"><g fill="#010101"><g fill-rule="evenodd" clip-rule="evenodd"><path d="M303.478 31.395c2.299 6.231-2.19 12.085-.835 18.158 1.524 6.939 6.1 10.435 6.1 18.638-30.87-2.908-50.584-53.791-85.945-36.538-6.851 3.294-11.887 10.334-12.861 17.96-3.974 30.076 41.442 49.43 62.5 59.157 10.056 5.754 20.101 11.498 30.147 17.253 12.881 8.591 25.447 20.776 31.131 35.123 2.647 6.749 3.165 16.219 2.201 23.904-3.068 23.584-20.964 40.813-42.672 49.596 0-.686 17.191-18.568 19.671-23.906 4.461-9.686 5.687-26.339.13-36.641-6.907-12.793-23.095-20.39-35.3-26.363-27.46-13.469-68.774-29.756-87.311-56.189-20.607-29.329-1.841-79.188 36.657-79.188 0-.348 69.251-.129 76.387 19.036zM27.717 211.431s29.492-5.471 50.972-25.597c14.067-13.182 54.203-62.264 78.097-64.919 30.355-3.373 46.593 15.739 46.593 15.739s-15.487 4.426-25.664 11.947c-10.177 7.522-53.636 63.839-80.53 69.468-38.053 7.963-69.468-6.638-69.468-6.638z"/><path d="M75.061 238.422s29.492-5.472 50.973-25.599c14.066-13.177 54.202-62.262 78.094-64.916 30.357-3.373 46.595 15.738 46.595 15.738s-15.488 4.424-25.664 11.947c-10.179 7.521-53.636 63.837-80.529 69.468-38.053 7.963-69.469-6.638-69.469-6.638z"/><path d="M123.733 265.225s29.492-5.471 50.971-25.598c14.065-13.182 54.202-62.263 78.096-64.919 30.356-3.374 46.594 15.737 46.594 15.737s-15.489 4.427-25.666 11.949c-10.176 7.523-53.636 63.837-80.528 69.469-38.052 7.963-69.467-6.638-69.467-6.638z"/></g><path d="M28.178 249.063l-5.077-1.227c.785-2.223.769-3.919-.046-5.086-.397-.568-.874-.928-1.432-1.076-.557-.149-1.027-.09-1.41.177-.382.268-.654.65-.814 1.146-.209.669-.446 2.409-.71 5.223-.23 2.62-.404 4.231-.52 4.835-.275 1.499-.691 2.716-1.246 3.649-.555.933-1.313 1.735-2.275 2.406-1.87 1.306-3.866 1.738-5.987 1.298-2.121-.44-3.906-1.699-5.356-3.775-1.133-1.622-1.722-3.313-1.766-5.073-.045-1.759.485-3.663 1.591-5.71l4.745 2.106c-1.251 2.501-1.378 4.467-.382 5.892.518.743 1.173 1.217 1.96 1.42.788.204 1.465.106 2.034-.29.516-.36.899-.912 1.149-1.655.25-.744.452-2.138.607-4.183.293-3.894.739-6.586 1.334-8.078.596-1.491 1.441-2.62 2.536-3.386 1.581-1.104 3.357-1.447 5.329-1.034 1.972.414 3.576 1.505 4.809 3.271a8.566 8.566 0 0 1 1.477 3.8c.192 1.394.009 3.179-.55 5.35zm5.455 1.742l3.593 3.784-10.112 15.133 16.298-8.622 3.034 3.195-9.409 15.873 15.608-9.349 3.593 3.784-24.476 14.617-3.503-3.688 9.509-16.099-16.501 8.737-3.464-3.646 15.83-23.719zm33.356 31.773l4.305 3.208-8.038 28.691-4.411-3.287 1.68-5.893-9.095-6.777-5.242 3.237-4.411-3.288 25.212-15.891zm-2.222 7.538l-8.676 5.441 5.927 4.417 2.749-9.858zm19.525 4.636l4.486 2.357 2.044 21.754 8.517-16.202 4.687 2.464-12.942 24.62-4.502-2.367-2.054-21.693-8.49 16.15-4.687-2.464 12.941-24.619zm39.177 21.691l-4.857 1.919c-.639-2.27-1.628-3.646-2.966-4.132-.651-.236-1.248-.255-1.789-.057-.541.2-.891.52-1.05.957-.158.438-.161.907-.006 1.405.213.668 1.022 2.228 2.425 4.68 1.32 2.274 2.106 3.691 2.359 4.253.638 1.383.998 2.615 1.082 3.698.083 1.082-.074 2.175-.474 3.276-.777 2.145-2.16 3.647-4.147 4.508-1.988.861-4.172.86-6.554-.002-1.86-.674-3.315-1.717-4.365-3.129-1.049-1.413-1.712-3.275-1.986-5.587l5.09-1.009c.419 2.765 1.446 4.443 3.08 5.036.853.31 1.66.321 2.421.033.76-.286 1.259-.757 1.495-1.409.214-.591.21-1.263-.014-2.015-.224-.75-.861-2.008-1.911-3.769-2.002-3.353-3.189-5.81-3.562-7.373-.372-1.563-.33-2.971.125-4.227.657-1.813 1.911-3.117 3.761-3.915 1.85-.796 3.788-.827 5.813-.093a8.553 8.553 0 0 1 3.395 2.255c.963 1.035 1.841 2.599 2.635 4.697zm8.091-1.581l14.773 3.496-1.193 5.041-9.659-2.285-1.158 4.895 9.659 2.285-1.171 4.948-9.659-2.285-1.685 7.12 9.659 2.286-1.197 5.06-14.773-3.497 6.404-27.064zm29.264 5.516l5.343.518 7.97 28.705-5.475-.53-1.612-5.909-11.289-1.093-2.809 5.482-5.475-.529 13.347-26.644zm1.999 7.6l-4.607 9.143 7.356.711-2.749-9.854zm58.023-4.982l-3.217 3.987c-2.846-2.311-5.83-3.262-8.954-2.852-2.638.344-4.743 1.535-6.313 3.57-1.571 2.036-2.184 4.372-1.841 7.01.241 1.838.856 3.416 1.841 4.737.985 1.32 2.264 2.291 3.833 2.913 1.567.621 3.245.815 5.034.581 1.524-.199 2.881-.666 4.069-1.4 1.187-.733 2.438-1.948 3.755-3.647l4.049 3.247c-1.777 2.255-3.521 3.884-5.234 4.89-1.712 1.006-3.73 1.66-6.056 1.964-4.286.56-7.974-.34-11.06-2.701-3.087-2.362-4.908-5.667-5.464-9.918-.359-2.749-.057-5.274.907-7.574.964-2.301 2.52-4.251 4.67-5.855a15.204 15.204 0 0 1 7.234-2.93 15.771 15.771 0 0 1 6.761.585 15.858 15.858 0 0 1 5.986 3.393zm4.863-6.555l5.098-1.284 6.792 26.97-5.098 1.283-6.792-26.969zm10.117-2.573l14.546-4.974 1.688 4.938-4.793 1.639 7.31 21.379-5.081 1.738-7.31-21.38-4.67 1.598-1.69-4.938zm17.55-5.988l5.138-2.45 8.974 6.784.348-11.226 5.068-2.416-.555 17.733 5.185 10.874-4.814 2.293-5.183-10.872-14.161-10.72zm41.95-24.13l4.247-3.286 25.483 15.453-4.353 3.366-5.225-3.202-8.972 6.942 1.709 5.918-4.351 3.367-8.538-28.558zm6.665 4.167l2.911 9.819 5.847-4.523-8.758-5.296zm9.829-17.988l9.723-9.799 3.665 3.636-6.033 6.08 3.582 3.558 6.034-6.081 3.61 3.581-6.033 6.081 8.886 8.817-3.688 3.718-19.746-19.591zm33.159-31.59l.588 5.089c-3.642.41-6.411 1.873-8.311 4.388-1.603 2.124-2.229 4.46-1.876 7.007.352 2.548 1.588 4.623 3.712 6.226 1.479 1.117 3.035 1.786 4.668 2.009 1.633.222 3.221-.01 4.765-.692 1.543-.685 2.857-1.745 3.944-3.185.926-1.227 1.543-2.523 1.853-3.885.31-1.36.321-3.107.03-5.236l5.154-.611c.362 2.848.303 5.234-.182 7.161-.482 1.926-1.43 3.825-2.843 5.696-2.604 3.452-5.83 5.451-9.681 5.997-3.847.547-7.482-.472-10.903-3.055-2.213-1.671-3.803-3.656-4.768-5.955-.964-2.301-1.267-4.779-.904-7.436a15.224 15.224 0 0 1 2.982-7.215 15.765 15.765 0 0 1 5.156-4.413 15.82 15.82 0 0 1 6.616-1.89z"/></g></svg>