<svg xmlns="http://www.w3.org/2000/svg" width="748.233" height="745.706" viewBox="29.616 34.172 748.233 745.706"><path fill="#FFF" stroke="#FFF" stroke-width="11.699" stroke-miterlimit="3.864" d="M623.791 532.675zm0 .549c0 .359.021.612 0 0zm0-.021c0 .02 0 .02 0 0 0 .02 0 .02 0 0z"/><path fill="#231F20" d="M623.791 533.224c0 .359.021.612 0 0m0-.021c0 .02 0 .02 0 0 0 .02 0 .02 0 0"/><path fill="#231F20" d="M764.838 572.799c-7.138-13.009-5.85-33.536-23.99-37.379-18.88-.55-39.195 6.779-56.068 17.042-6.59 6.589 2.386 12.27 2.745 18.69 2.027 9.144 6.61 17.21 7.518 26.735-4.202 1.457-8.426 3.484-12.819 4.583-3.674 1.288-6.778-.55-9.165-2.746-10.812-4.941-21.625.74-30.6 5.3-3.843 6.23-11.171.93-16.662 3.126-15.754.908-35.351.55-48.55 12.65-8.975 8.785.55 19.048-.38 28.931-24.708 6.61-49.1 14.107-75.095 17.592-7.138 1.288-14.656 2.196-21.984 3.294-22.892 3.485-46.354 6.04-68.317 6.589l-.739-.718c.19-.93 1.098-1.647.74-2.745 15.732-19.619 38.096-34.634 59.89-45.446 3.125-1.647 6.04-4.203 9.524-5.3 2.745-3.675 6.969-3.316 9.904-6.78 18.69-11.551 39.195-25.109 48.72-45.805 2.935-4.392 3.653-9.524 5.511-14.486 1.457-4.393 1.457-8.236 2.914-12.629 4.583 11.171 5.322 25.088 17.233 31.698 14.824 11.171 34.084 14.086 52.203 7.687 23.441-9.165 36.28-34.443 38.477-58.433 1.098-3.126 4.752-3.675 5.68-6.78-3.294-2.935-4.962-7.517-3.294-11.55 1.268-4.203 7.328-3.464 7.877-7.878-1.119-1.098-2.576-1.457-3.864-2.365-4.393-3.125-6.779-8.067-5.68-13.389.38-4.202 5.87-5.85 6.588-9.883-3.294-1.098-7.138-1.647-9.144-4.583 0-1.478 1.837-2.196 2.935-2.555 11.172-2.027 29.671-5.87 37.738 6.758 11.91 14.677-2.935 31.149-1.837 46.903 1.288 3.484.19 8.806 3.843 10.622 0-12.818 12.84-16.282 19.788-25.447l1.837 2.745c4.393-6.588-.93-16.493 4.583-22.913 1.647-1.098 3.294 1.099 4.941 0v-2.006c-4.582-4.202-4.392-10.263-5.322-15.944.55-2.745 3.844-.908 4.963-3.104-3.294-2.196-5.87-5.87-7.518-9.524-1.098-6.78-7.687-11.003-12.65-14.466l3.485-4.224c1.288-3.674 3.865-6.969 5.322-10.622-4.034-1.098-8.975-2.196-12.65-4.963 6.42-9.883 5.68-23.44 6.06-33.514l-1.836 1.098c-.93-6.779-1.098-14.276-4.224-19.787-1.457.38-.359 2.745-2.196 2.196-3.485-7.328-6.23-15.374-12.65-21.245-3.104-.739-.359 2.746-2.175 3.295-5.68-4.034-8.447-9.884-9.165-16.303-1.647 0-2.027 1.647-2.387 2.745-2.555 19.238 6.42 38.477 1.099 57.166-2.577 5.132-2.577 11.362-6.78 15.944-4.223 11.72-15.014 19.408-25.087 25.996-.74-.168-1.669.19-2.028-.359-1.288-5.49 3.675-9.904 3.485-15.014-4.034-.74-7.687-4.034-9.905-7.138-.908-4.963.74-9.546 5.322-12.65 1.457-3.484-3.484-1.837-4.941-3.484-4.224-3.295-6.97-8.785-6.97-14.846-.358-4.393 4.583-7.138 4.583-10.982-4.751 0-8.426-4.582-10.622-8.426-2.386-6.779-2.576-16.134 1.098-22.892 4.393-19.07 30.959-18.879 31.318-39.575 1.098-4.033 7.349.17 9.904-3.843 1.648-1.837-1.288-1.288-1.837-1.837-5.512-2.936-4.414-9.525-4.942-14.107 2.556-.93 4.013 1.816 6.4.359 1.118-.908 3.674-1.288 2.766-3.126-3.485.38-4.393-3.463-6.61-5.3 1.457-1.098 2.935.549 4.603 0 1.077-.36 3.084-.718 2.366-2.746-3.295-2.196-5.301-6.04-5.301-9.524h2.555c4.942-1.647-1.098-4.392-.739-7.138.36-.739 1.12-.929 1.837-.739.718-.549 1.289-1.457.909-2.006-7.138-1.837-4.393-10.453-11.172-12.84 5.132-4.033-2.935-5.321-2.555-9.165-.74-2.006-2.745-2.196-4.224-2.745-.19-1.098.19-2.006 1.098-2.746 2.197-3.484-2.006-3.843-4.202-4.582 0-2.196.549-7.328-4.224-5.68 2.387-6.23-5.3-4.013-8.046-4.583.17-2.556 1.458-4.942.55-7.497-2.936-.74-4.583 1.288-6.97 1.098l-.358-4.942c-2.577-.739-3.865 1.267-6.061 1.098-6.4 6.4-5.491-5.511-10.813-6.779-1.267-.739-3.463-2.027-4.941-.38.739 3.316 3.674 6.42 2.027 10.264-1.098 1.478-2.935 4.033-4.963 2.935-2.386-3.125-4.941-6.23-8.067-9.165-1.436-1.647-1.626-4.942-4.561-5.3-1.838 4.392-1.288 9.692-1.838 14.465-2.745-.549-5.49-3.484-8.067-1.837-2.006 6.61.908 12.818 5.681 17.591-3.484 3.126-6.04 6.589-9.165 9.883-4.583 8.975-14.086 14.297-20.865 22.174-7.518 5.87-8.067 15.395-9.165 23.631 2.746 4.583 7.497 3.126 11.72 5.322.55 1.457-1.288 2.006-1.837 2.935-2.006.718-2.386-2.386-4.202-1.837-2.386.359-2.745 2.935-3.485 4.583.909 1.626.55 3.843 2.746 4.941 4.223 2.387 8.975 0 12.65-3.125 3.104.739 6.947-1.267 10.242.38v-.74c6.588-2.005 9.355-10.073 15.944-13.008 2.576.93 4.941-1.647 6.589 1.288-5.301 7.518-15.205 9.715-21.794 15.564-11.91 6.97-22.892 18.69-28.573 30.96-2.196 3.125-1.647 7.876-4.941 10.262-6.42-10.263-8.807-22.342-16.494-31.698-4.582-3.843-11.551-4.033-17.042-1.816-11.002 7.877-24.539 9.144-35.182 17.401l-.718-.739c-.19-3.294-1.647-6.04-3.865-8.785-3.463-1.647-6.948-2.745-10.981-2.935-6.04-.55-11.91 4.202-17.591.359-1.267-2.555-2.007-5.132-2.197-8.046-1.077-2.576.74-8.637-3.104-9.545-2.935-4.752-2.386-10.982-2.745-16.853-.38-1.267-2.028 0-2.577-1.098-2.555-8.975-1.098-19.787-1.837-28.213 1.12-3.844-2.745-8.616 1.837-10.982.74-1.098 1.288-3.294-.359-3.843-.549-.55-.549-1.837.36-2.196 7.517-.74 6.039-11.91 14.106-10.813 1.098-.929.908-2.576 1.457-3.674-.359-4.203 1.31-8.236-.359-12.629l-11.72.36-.908-.74c-1.479-6.04-.74-13.368 3.843-17.57 3.844-1.12 6.97-3.484 10.813-1.478 2.745 1.647 4.202 4.582 4.582 7.518-.93 1.837-2.766 2.935-4.582 2.386-3.675-1.478-2.936-6.61-6.251-6.61-.908 5.512.929 11.003 5.701 14.107 2.366 1.288 6.23 1.288 8.427 0 3.484-2.196 5.49-5.3 6.23-9.524-2.746-6.78 6.23-2.197 8.594-5.3 6.61-2.577 4.583-8.997 4.942-14.488 0-3.463 5.132-5.85 5.132-8.785-2.197-.93-4.562-1.288-6.948-1.098-5.49 0-5.322 6.23-8.426 9.165l-.36-6.42c-1.287-2.386-3.674-4.941-6.06-6.23-1.837.19-3.844-1.647-5.3 0-.38 2.387 2.196 2.197 2.914 3.844-.718 6.42-8.046 5.132-12.439 6.969-5.87.908-6.42 8.046-11.91 9.165-8.427 5.11-8.617 15.923-7.518 24.73-4.583 1.097-.74 5.849-3.485 8.425-3.484-.929-4.224-5.131-5.3-8.067-2.028-5.87-1.12-13.367-.74-19.787 1.267-8.975 11.172-14.276 16.303-21.435-3.125-6.23 5.301-7.687 5.681-13.009-1.647-1.288-3.484 1.289-4.941-.739 0-.718 0-1.647.359-2.175 10.263-1.837 2.935-11.192 7.327-17.232-.359-2.936-2.006-3.844-3.843-6.04-2.006.718-3.843-.93-4.224-3.125-2.196-3.485-6.398-4.752-10.263-4.203-1.647-.739-3.463-2.196-5.3-1.098-3.844 4.752-9.715 6.399-13.01 12.27l-1.456-1.289c-2.218 2.936-4.942 6.23-4.942 10.454 1.816 4.751-4.583 4.582-6.61 7.497-3.294 3.484-2.555 8.806-6.399 11.551-4.413-7.159-11.741-10.812-15.205-18.33.17-9.693-12.65-15.015-7.327-25.996 24.539-15.036 52.562-2.028 79.319-.74 38.645 5.491 87.555 6.04 112.833-28.952.19-2.366 3.125-4.752 1.837-6.78-12.27 7.519-28.213 7.519-42.68 8.617-9.904-.36-21.244-.19-29.311-2.935-20.147-2.556-38.477-9.884-56.068-18.31-15.564-7.159-33.514-9.904-51.465-6.969-1.837.19-4.033 1.458-5.321.36.929-3.654-1.098-7.329-3.105-10.623-2.555-1.457-5.131-4.583-7.877-4.583-5.511-.908-10.812 1.289-14.465 5.322-3.316 4.034-3.675 10.982-1.289 15.374 2.007 3.484 5.3 5.87 8.046 7.898.93 22.533 0 41.771.74 62.277-.74 3.294-3.295 7.328-.74 10.622.55 14.107.55 32.247 0 47.262l-1.098 1.479c-.908 1.457-.169 3.104.74 4.202l.358 116.339c-2.365 2.386-5.3 3.653-6.757 6.779-.55 2.745 0 6.04 1.457 8.426 7.328 9.883 17.95 6.779 28.572 5.68l.74.719c-1.838 4.223-1.458 10.453 1.288 14.127 1.077 3.654-2.577 6.4-5.132 8.405-13.558 7.35-29.86 9.546-44.517 6.061-7.877-1.098.36-7.518-1.119-12.1-1.436-6.4-4.942-13.558-12.27-14.825-6.398-1.668-13.916.359-17.95 5.66-.169-5.301.55-11.89 6.23-14.466 5.322.908 10.453 2.386 14.846 6.06 3.294 4.013 5.68 7.138 10.981 7.307 2.577 4.583 1.669 10.074.74 15.205l1.288 1.098c6.42 1.289 13.557.74 20.146 1.838 3.844-6.04 10.453 1.478 14.107-5.681 1.288-1.288 4.583.549 4.583-2.196-6.23-9.884-17.592-14.466-26.018-21.435-9.714-13.009-27.115-13.009-39.575-21.984-23.082-5.68-21.963 22.533-32.057 34.253l-1.457-2.006c-6.42-21.984-27.855-38.836-47.262-48.36-2.386-1.647-5.87-3.294-6.61-6.42 10.453-5.3 14.487 11.72 24.92 12.1 7.707-2.744 11.002 5.872 19.407 3.844 1.668-.549 2.766-1.647 3.315-3.484.908-2.196.36-5.3-1.837-6.42-2.386-1.816-3.295 2.027-5.68 1.12-.74-.74-2.007-1.67-1.458-2.577 4.034-1.647 10.073-.908 12.08-6.23.929-13.917-10.074-24.18-20.147-32.606-9.144-5.49-11.171-16.303-19.788-22.533 2.936-2.745 5.132-5.68 6.42-9.165-.549-3.463 1.267-6.589-1.478-9.165-2.555.739-4.583 1.837-6.948 2.935-1.478-2.365-.359-6.04-.739-8.975-.549-2.006-.19-6.589-3.125-5.49-1.816 6.588-8.236 8.974-11.34 15.014h-1.099c-7.159-2.745-2.196-10.242-2.027-14.466-6.04-.359-8.595 5.871-11.34 9.884-2.957-1.817-6.061-2.915-9.546-3.464-2.745 1.267.38 3.464-1.077 5.3-2.217-.168-4.033-1.456-6.23-1.456-2.956 2.196.908 5.68-.76 8.785-1.816-.908-4.751-.908-6.758-.55 0 3.126-1.288 5.681-4.582 5.132-1.288 1.648.549 3.485 0 4.942-1.647.549-3.865 0-4.963 1.837.19 2.028.93 3.654 1.478 5.322-5.87-.38-2.555 6.948-8.067 7.687-1.267 1.647.74 2.745 1.288 4.223-6.947 2.366-4.033 10.982-11.17 12.82-.93 2.554 1.815 2.005 2.744 3.103-.19 2.387-2.935 3.295-2.745 5.681.36 3.126 3.844.36 4.942 2.386-1.838 2.746-2.197 6.78-5.681 8.236-.38 5.132 4.963 1.669 6.969 3.126-1.647 2.745-3.865 5.132-6.97 5.68 1.838 3.844 6.42 2.556 9.905 2.746.908 3.104-1.668 4.583-.739 7.687-1.478 2.935-2.576 6.969-6.779 6.779 1.457 4.223 6.59 2.576 10.242 3.484-.168 6.97 2.577 14.107 9.166 18.69 12.65 5.87 24.37 18.309 25.848 32.416-1.098 6.779-.19 14.297-6.42 19.048-2.006 1.478-4.223 2.386-6.589 2.935.908 3.126 4.013 4.963 4.583 8.068 1.098 6.23-.93 12.46-5.702 16.852-1.816 1.098-4.392.908-6.04 2.555 3.295 3.674 6.23 8.067 6.04 13.368-1.457 2.386-3.463 5.131-5.66 6.06-12.818 2.746 4.203 10.982-1.837 17.592-11.91-5.681-23.462-16.852-28.572-28.953-7.708-14.825-7.328-30.579-5.512-47.262 2.576-5.85 1.478-12.08 2.027-17.95.36-2.746-.549-6.42-2.745-8.067-1.478 6.23-4.034 12.65-9.524 16.493-.74-.36-.19-1.098-.38-1.647-.17-.55 0-2.197-1.099-1.838-7.877 4.942-9.714 14.297-13.747 21.794-.718-.908-.908-2.365-2.366-2.745-1.288 3.484-1.647 7.328-2.555 11.002-1.12 2.746.528 6.948-1.478 8.785-.55-.549-1.288-.718-2.006-.718v1.098c.549 11.72 1.457 23.082 6.588 32.775-2.006 1.648-4.582 1.479-6.588 3.126-1.669 1.647-6.04-.19-5.702 3.104 4.033 4.224 4.223 9.883 8.806 14.107-12.27 3.485-10.263 16.852-20.147 23.272.17 2.745 3.654.74 4.942 2.935-.549 6.4-1.647 12.27-5.49 17.212.168 3.294 2.935.359 4.582 1.098 2.196 1.837 2.006 4.582 3.104 6.969 1.648 5.3-1.837 11.361 1.458 15.923 2.027 1.478 1.098-1.627 2.407-2.366 5.66 7.138 15.923 11.362 19.407 20.337.908 1.457-.359 4.012 1.098 4.942 2.007-1.289 2.746-3.485 2.387-5.322 5.85-14.846-9.355-29.312-4.583-45.066 2.365-7.328 9.144-14.656 17.401-15.923 9.715-.549 19.049-1.098 27.116 3.295-1.478 3.463-5.322 4.582-8.806 4.941-1.077 1.647.549 2.936 1.647 3.844 3.674 2.006 5.132 6.23 4.941 10.263-.908 5.3-5.3 9.883-9.883 12.27.19 3.294 3.675 3.104 5.681 4.582 2.196 2.576 3.675 5.132 3.125 8.806-.549 2.006-2.196 3.654-3.864 5.3.19 2.936 3.125 4.583 4.941 6.4 2.408 18.52 8.617 35.541 22.554 49.289 16.113 15.205 41.75 16.493 61.348 7.518 17.063-5.49 20.717-22.913 25.49-37.189 1.267 2.006.717 5.49 1.816 7.877 4.582 34.803 41.222 56.786 68.337 72.54 24.73 12.27 49.1 27.116 67.789 50.198v1.288c-22.913 1.837-45.615-2.745-68.528-5.132-28.213-3.484-54.4-8.806-81.325-15.944-6.589-2.745-13.917-3.653-20.527-6.42 1.098-9.883 8.067-23.06-2.196-30.959-16.303-12.27-38.836-9.883-58.433-10.622-9.905-6.948-22.364-12.08-34.634-8.785-2.914.718-4.582 4.752-8.426 3.485-5.132-1.838-10.622-2.387-15.205-5.322 3.675-12.629 7.518-25.468 13.009-37.379 1.457-4.393-1.837-7.877-4.583-10.432h-1.647c-12.65-7.687-27.284-10.982-41.581-14.846-8.426-1.457-18.858.549-23.99 9.165-4.414 9.904-8.067 19.956-11.383 30.22-4.371 16.683-15.015 31.888-12.987 50.197 8.616 22.533 32.416 36.47 52.562 46.903 3.865 2.196 7.708 3.844 11.932 4.942 3.463 3.315 8.236 3.125 11.72 5.87-3.484 9.715-6.969 22.723 1.648 31.15 10.79 8.595 23.61 12.46 35.351 18.689 30.579 14.276 64.114 21.223 96.53 30.938 6.61 1.478 14.107 3.294 20.168 4.223 51.105 11.34 105.336 14.466 157.37 13.178 53.852-.36 105.696-6.399 155.513-18.12 19.429-6.968 40.125-10.643 59.553-17.59 3.844-1.648 8.046-2.746 11.91-4.583 19.24-6.589 38.097-15.205 55.118-26.376 9.166-8.068 5.343-21.245 2.028-30.79l1.457-1.627c6.8-1.478 12.48-5.87 19.07-7.898 21.054-11.53 47.261-25.447 56.047-49.627.19-18.14-8.786-33.535-13.01-50.197zm-169.26-77.503s19.45 19.238 21.857 23.504c2.386 4.245 6.314 11.784 6.356 13.875 0 0-2.914 12.185-18.605 12.987-15.69.803-29.248-11.7-28.72-26.334.528-14.635 10.812-19.048 19.111-24.032zm-62.995-57.715c.169-4.984.887-10.475 5.49-12.608 4.604-2.112 4.794-1.584 4.794-1.584s8.49 14.36 11.171 18.077c2.661 3.738 15.585 20.4 22.702 31.762 0 0-27.854 24.116-29.1 53.196 0 0-.36-7.624-1.415-11.53-1.077-3.907-1.415-10.116 4.076-13.115l.359-2.133s-5.322-1.246-5.322-4.435 4.435-3.737 4.435-6.208c0-2.492-3.19-3.19-4.076-3.358-.887-.19-5.68-.359-7.814-8.173-2.112-7.813-8.68-32.268-8.68-32.268s3.19-2.66 3.38-7.623zM438.67 329.393s2.66 1.33 6.652.528c3.992-.781 8.785-2.914 8.785-2.914l3.717 2.133-12.502 12.227s-2.914 4.245.275 4.245 3.991 1.077 4.519 2.407 4.52 1.859 6.652 1.33c2.112-.527 6.378 1.057 6.906 2.662l20.21-2.661 1.33-1.859s-2.112-9.313-.781-12.776c1.33-3.463 4.519-.803 7.708-4.794s11.446-10.643 17.02-10.369c5.597.254 7.18 5.597 8.237 13.833 0 0-4.498-7.18-12.755-6.125-8.258 1.077-15.163 2.133-17.824 17.57 0 0 .275 5.322 2.66 8.511 0 0-7.982 3.189-17.548 3.189-9.588 0-24.476-2.936-28.742-5.596-4.244-2.64-6.377-7.18-6.124-8.511.275-1.33 3.21-6.378 1.605-13.03zM235.706 521.99c-.274 3.463-.528 21.815-27.939 24.73 0 0-17.971.041-19.618-12.207-.866-6.399 12.713-23.166 16.155-26.102 3.463-2.914 12.776-12.016 12.776-12.016s13.917 8.89 17.592 14.846c0 0 1.288 7.286 1.034 10.749zm36.703-38.984c-.654.95-8.51 4.393-9.038 4.794-.528.422-1.605 1.204.401 3.738 1.985 2.513 4.393 4.773 2.914 5.976-1.457 1.204-1.985 1.605-1.985 1.605s-3.716.254-2.787 2.112c.929 1.88 2.914 4.794 3.991 5.998 1.056 1.182 1.183 3.062.781 4.519-.4 1.457-1.055 2.26-1.182 4.118-.148 1.858-.803 8.11-.803 8.11s-2.386-17.149-16.767-36.577c-6.061-8.194-12.756-13.03-12.756-13.03s.402-2.26 3.316-5.596c2.935-3.316 22.343-31.382 24.877-35.5 2.534-4.118 4.92-8.785 7.18-8.785 1.605 0 6.927 3.337 8.257 5.322 0 0 .528 11.446 3.991 17.021 0 0-9.714 35.267-10.39 36.175zm87.936-325.512c.549 0 .739.55 1.288.908-.55.74-1.098 1.647-.93 2.577 1.669 1.457 3.316 2.555 5.512 2.745 1.458 2.386-1.837 5.85 1.458 7.518 2.027-.55 4.772-1.837 6.778-.38-.169 1.478-2.196 1.837-3.294 2.745-2.196 3.316-5.322 5.512-9.144 4.942-2.576-.908-1.668-2.746-2.386-4.562l.718-16.493zM381.23 268.3l-3.083 2.26-2.534 16.598s-2.809-.295-3.083 3.084c-.296 3.378-1.415 12.1-2.83 12.65-1.394.57-3.654.57-5.047 1.14-1.415.549-3.084 1.393-4.794.274 0 0-2.239-83.521 0-107.997 0 0 13.22.274 16.303-.845v1.964s-1.668.845-3.928.57c-2.239-.274-6.737-.57-8.7.845v16.303s5.068.296 7.01 3.104c1.986 2.81 5.618 7.012 9.018 6.737v3.379s.549 2.534 1.668 2.534c1.14 0 1.985.55 1.985 2.809S381.23 268.3 381.23 268.3"/><path fill="#00B6F1" stroke="#00B6F1" stroke-width=".359" stroke-miterlimit="3.864" d="M415.674 57.647l.359 7.687c-5.301-.549-11.53-1.267-17.043-2.745-1.098-3.294-1.457-7.138.38-9.883 5.681 1.098 12.101 1.457 16.304 4.941zm-36.281-3.484c0 2.745 2.217 8.426-1.816 8.806-6.061.17-11.003 2.914-16.873 3.463-1.817-2.365.19-5.49-.36-8.045 1.838-1.838 4.773-1.099 6.61-2.936 3.844-.739 8.236-3.104 12.439-1.288zm36.281 30.241l.359 12.628c-5.871-.908-11.34-1.288-17.592-2.745-1.816-4.033.38-8.616-.359-14.107 2.387-.549 5.322-.549 7.708 0 3.654.55 6.78 2.197 9.884 4.224zm-36.64-4.224c1.837 4.942-.19 8.806.359 14.107-6.399 1.647-13.009 2.745-19.407 4.942V86.22c5.49-4.561 11.72-5.3 19.048-6.04z"/><path fill="#EF3E2E" d="M393.859 54.163c1.478 4.392-1.816 12.1 4.223 13.009 6.23 1.647 12.84 1.288 17.95 5.321l-.358 5.85c-6.59-1.457-13.009-3.653-20.147-3.843-2.745 3.294-1.098 9.165-1.668 12.818l-.718 6.61c-3.844-1.478-11.72 3.485-9.883-4.224-.38-4.392 3.484-11.53-2.218-14.824-6.948 1.098-14.276 2.006-20.695 4.561v-6.948c6.969-2.935 14.106-5.131 22.173-5.321l1.099-1.099V53.445c2.555-2.027 6.398-.74 9.524-1.098l.718 1.816m144.193 24.18l7.687-1.267v.718c-13.917 17.591-34.253 21.245-54.23 24.92-25.089 4.033-47.622-2.197-71.253-4.942-1.457-2.746-.549-5.132-.739-8.427 0-9.524-.359-17.59.36-28.952l1.097-1.647c35.563 16.493 76.215 28.044 117.078 19.597"/><path fill="#BBBDBF" d="M233.024 235.714c9.905 12.46 27.665 20.886 28.214 37.738-2.386 1.647-5.3 4.751-9.165 3.125-3.485-2.386-6.779-8.616-12.08-6.23-2.745 1.648-4.392 4.942-3.125 8.046 1.098 1.12 1.098 2.577 1.478 3.844-2.935-.55-4.033-3.654-4.392-6.04.718-2.006-1.12-5.132-3.126-6.589-2.386-.38-4.751-.739-6.589-2.196-2.386-2.745 3.654-8.426-2.196-7.687-3.843 4.013-4.414 12.819-11.91 10.622-2.197-3.674-6.59 1.458-8.258-3.674-2.555.74-5.3.19-7.327-1.267-3.485-3.675-4.034-8.447-6.4-12.48h-.738c.19 8.615 4.033 17.421 12.46 22.363l.358 1.288c-1.647 2.006-5.68-.929-6.04 1.816 3.295 1.838 7.138 2.936 11.003 1.838-.74 2.555-6.969 1.457-3.316 4.223 3.316.36 6.23-1.837 9.546-1.119v1.12c-.74 0-1.12.907-1.647 1.266 0 .55.718.93 1.267 1.457 2.576.38 4.772-3.843 7.159-.718 23.99 10.074 46.354 33.346 51.105 58.983 7.138 7.708 8.046 18.33 9.524 27.854.38 7.138-.38 13.748-2.196 19.788-.908-6.42 1.457-14.656 0-20.886-.55-2.576-.38-6.23-3.125-7.328-2.915 2.387-.55 4.393-.718 7.328-.57 5.491 1.457 12.629-3.485 15.564-3.125 0-2.745-3.294-3.843-5.3.169-6.97 2.196-18.69-4.583-23.272-1.288 1.837.718 4.223 1.098 6.04.17 6.61-.19 12.84-1.098 18.689.169 3.125 2.365 5.131 4.202 7.328 10.264 10.073 23.272 21.603 31.318 33.894 6.8 13.368-3.653 26.757 1.479 40.863.19 6.04-1.479 12.439-3.105 18.31 0 9.524 4.393 25.827-6.04 32.057 3.464-8.258 5.491-18.14 4.562-27.116-.718-.19-1.288-1.457-1.837-.359-1.816 3.295-2.555 7.138-3.844 10.622-.359-4.582 4.583-8.236 1.12-12.65-1.669 0-3.126 0-4.224 1.289.19.19-.19-1.647-1.12-2.006-2.745.549-4.18 4.202-6.757 4.941-1.647 0-2.745 1.648-4.224 1.648 4.034-4.393 9.715-7.687 12.46-13.009 1.837.19 4.224-.169 3.865-2.386-.93-2.556-1.289-5.491-2.577-7.877 3.295-10.074 8.426-22.343 1.457-32.416 1.838-13.2-11.89-17.782-20.505-22.554-4.583-.528-9.165-2.915-13.03-6.04l-1.626 1.837c-1.837-.908-2.935-3.653-5.322-3.843-1.837-5.132-4.751-11.362-10.263-13.368-6.399 1.457-11.91-1.837-17.042-4.583-1.267.74-.908 2.366-.55 3.126 2.767 8.046 12.84 2.555 15.755 10.622 4.413 7.497 9.904 13.178 18.33 15.374 3.294 2.006 7.518 2.196 11.002 4.034-7.327 5.49-17.59 6.398-26.397 4.582-8.236 0-16.852-2.386-24.73-4.941-2.005-1.479-4.94-1.479-6.778-3.316-4.583-3.294-11.171-6.589-11.53-13.009-.908-4.561 1.288-7.687 2.745-11.889 7.877 9.165 19.788 12.46 32.057 13.368.19-.36.93-.55.74-1.098-4.964-3.295-11.552-2.746-16.853-4.942-5.87-2.386-13.009-6.589-15.205-13.368-.19-5.321 1.647-9.904 1.457-15.205 9.524 2.007 19.788-.739 24.92-9.165 2.196-5.68 1.098-13.748-3.485-18.69-3.104-2.005-6.23-3.843-9.883-4.223 3.104-1.098 6.779-.359 9.883 1.478 4.202.74 4.393 10.982 8.046 3.844.57-4.034-.718-8.067-3.104-11.362 4.033-1.288.19-4.941.38-7.327-2.387-2.936-6.61-4.752-5.322-8.786-3.294-6.42-10.432-11.551-17.211-11.002 1.457-.718 3.463.19 4.561-1.457-3.463-8.426-14.465-.74-18.668-9.165-16.134-15.015-15.754-34.993-10.643-54.95 2.576-6.42 8.067-12.1 14.128-16.682 4.202-1.268 10.432 0 13.367-5.491 7.497-3.295 13.748 3.653 19.788 7.328 1.626 3.294 5.85 5.68 6.398 9.524"/><path fill="#BBBDBF" d="M329.935 315.413c7.708 4.393 10.263 12.27 18.33 15.184 4.942 2.935 10.263 6.8 14.107 11.002-1.837.55-2.745 2.387-4.583 2.387-3.294-5.322-8.426-9.524-13.367-12.65-.74 3.865 4.751 5.87 6.04 9.165l2.386 3.844c-1.288.38-4.393 3.315-4.583-.36-2.386-4.94-4.582-10.073-9.165-14.106-.908 0-2.196 0-2.386 1.098l4.582 14.846-.739.908c-2.745-5.132-1.098-13.727-6.779-17.232-2.006 2.766.19 5.87 1.12 8.447.527 2.745 1.076 5.68 1.816 8.236-.908 1.647-2.746.169-4.224 0 .57-6.589-.718-13.368-5.66-18.14-5.49 1.119-6.06-6.23-11.002-8.426-5.85-3.485-13.558-8.067-20.147-3.485-2.555 3.485-10.263 2.028-7.328 8.426l1.838 4.942c-2.746 13.199-2.028 26.397-6.42 38.857-1.288-4.414-2.006-9.524-3.844-14.107-.549-5.512-5.49-10.622-2.576-16.303 2.935-8.447 4.583-17.591 7.159-26.397.718-4.752 5.49-8.426 9.883-9.525 13.368.93 23.082 10.454 35.542 13.39m192.743-10.539c.021.36-.169.908.38 1.077.19-.169.38-.359.36-.739 5.448 7.434 5.258 17.866 9.63 26.039.443 4.582 3.99 9.101 1.689 13.346-3.717 7.201-4.498 15.48-5.998 23.378-4.266-12.565-5.068-27.221-7.476-40.188 1.415-2.576 3.19-5.913 1.31-8.806-.76-.908-1.859-1.246-3.147-1.056-4.266-2.85-9.25-5.322-14.91-3.569-7.264 2.682-12.86 7.73-17.337 14.044-.55-.74-1.837-.338-2.576-.338-4.667 4.667-6.019 11.298-4.984 17.507-1.267 1.119-2.746 1.499-4.203 1.351-.485-6.23 3.105-10.686 3.548-16.556l-1.288-1.077c-4.878 4.308-4.012 11.424-6.124 17.147-.36 0-.55.38-.718.57.084-5.321 3.294-10.495 3.928-16.197-.55-.908-1.479-.718-2.387-.697-4.329 4.477-7.328 10.2-9.63 15.733-.908.57-2.576-.296-3.484-1.035 1.056-1.837 2.302-3.864 3.379-5.723.676-2.407 6.145-4.329 4.076-7.39-4.688 3.906-10.116 7.855-13.136 13.219-1.309-.697-2.428-1.795-3.906-2.133 1.604-3.315 5.047-5.216 7.58-7.814 2.366-.232 2.894-2.45 4.88-3.569 5.279-2.28 9.777-6.23 13.177-11.234 2.175-1.5 5.068-3.57 7.053-5.428 14.065-2.09 25.3-19.323 39.934-10.96l.38 1.098"/><path fill="#F0B83D" d="M401.208 330.238c.739 2.935 2.196 5.512 2.365 8.806.38 4.034-.718 7.307-2.006 10.622-4.203 12.629-18.14 21.055-29.67 25.638-19.978 6.42-43.23 7.518-62.109-2.007-7.518-5.3-16.113-12.079-15.015-22.532-1.098-4.414 2.007-7.138 2.746-11.003 1.457-2.914 4.941-5.68 8.426-6.04 3.843-1.098 6.398 1.838 9.144 2.936 2.576 2.196 2.935 5.322 3.864 8.067 1.458 4.941-9.524 11.34 0 14.107 1.817.359 3.654.718 5.66 1.098 4.604 1.816 10.094 1.288 15.226 2.006 15.015-1.098 31.867-3.484 40.842-17.211 2.577-4.224-3.294-7.16-2.365-11.003-.57-2.935.718-4.941 2.006-7.686 2.555-3.844 7.138-4.224 11.362-3.485 3.484 1.837 7.687 3.844 9.524 7.687m32.057-1.458c0 3.844.359 8.786-2.745 11.721-1.12 5.681 4.392 9.165 8.045 12.65 15.945 8.954 40.484 12.08 57.526 3.484.908-3.674-1.267-4.962-2.577-7.708-.169-4.772-1.267-8.067 2.218-11.91 3.484-3.295 8.616-4.752 13.367-2.936 7.138 4.963 8.786 14.297 7.138 22.554-3.104 10.053-12.987 16.662-22.723 19.788-1.626 0-3.822 1.098-5.85 1.816-28.572 5.132-60.08-.93-76.573-24.729-4.393-7.518-3.294-19.429 2.006-26.376 3.675-3.675 8.996-5.491 14.107-4.224 2.027 1.647 4.963 3.126 6.06 5.87m-23.271-7.686v1.457c-9.524 2.386-16.852-5.68-21.794-12.46 2.745-2.386 6.42-.359 9.524-.359 5.132 1.817 9.884 6.4 12.27 11.362m15.564-4.963c-3.105.38-6.399 2.387-9.883 2.746l-6.061-7.328c2.576-1.458 6.61-3.295 9.904-1.458 2.745 1.099 4.583 3.675 6.04 6.04m-39.934.38c-3.844 0-5.3 2.915-8.785 3.464l-8.785-9.144.359-1.099c7.138-1.288 13.367 1.268 17.21 6.78m80.439-2.197c1.098 1.626 1.098 4.752 0 6.399-2.027 1.478-4.033 3.843-6.61 2.196-4.941-2.555-6.399-7.138-9.524-11.361 3.674-1.817 6.969-1.458 10.812-1.458 1.648 1.289 4.203 1.838 5.322 4.224m-19.048 2.555c0 2.007 3.273 2.746 2.555 4.942-3.485 2.386-8.067 2.027-11.72.38-4.224-2.027-6.78-6.969-8.807-11.002 3.865-2.387 5.871-.19 10.264-.36 2.935 1.268 5.68 3.295 7.708 6.04m-77.503 3.105v1.119c-6.948 1.647-15.754 2.555-20.147-3.844-.739-1.837-.19-4.033.718-5.701 7.898-3.844 14.656 2.027 19.429 8.426"/><path fill="#BBBDBF" d="M382.877 203.657c1.099 2.006-.718 5.132 1.479 6.589 4.561-.55 12.27 3.125 14.085-3.105v-3.125c3.316-1.098 7.35-.718 10.813-.359 1.478 2.006-.36 6.42 2.935 6.589 3.844-1.647 10.813 2.027 12.27-3.105v-3.484c4.413-1.837 9.524.359 14.106-.359.93 1.457 1.648 3.294.74 4.942-2.007.718-4.942 0-5.681 2.745 0 3.104-2.196 5.85-4.583 7.138-2.006 1.837-6.589-.55-6.398 3.484-.38 1.478.549 3.295-.93 4.224-11.171 1.267-23.63.549-34.253-.38-1.457-1.816.19-5.85-3.484-6.948-3.105-.93-7.328-.38-9.145-3.675-.549-1.837-.19-3.843-2.196-5.131-1.119-.908-3.125.549-3.864-1.098-2.007-8.976 9.714-4.942 14.106-4.942m38.477 29.671c-.739 2.386 2.197 8.067-2.555 6.969l-29.333-.36c-1.816-2.217-.169-4.962 0-7.327 9.524-.55 20.886-.55 31.15 0l.738.718m.359 12.29l.93 26.736c-9.546.359-22.533 0-34.824-.36.38-8.806-.908-19.787 1.098-27.854l1.288-.74 30.41.381 1.098 1.837m3.485 30.579c1.837 2.936.549 7.328 1.457 10.622l-1.457.74-41.581-.38c-.74-3.464 0-7.307.739-10.602 14.465-1.647 26.925-.19 40.842-.38m5.681 17.401c1.098 2.028 1.098 5.512 0 7.328-16.663-.908-35.183.38-52.204-1.098-.93-1.837 0-4.561.718-6.589 17.591-.549 35.182-.549 51.486.36"/><path fill="#F0B83D" d="M380.681 162.076c-2.935 3.294 4.034 7.877-1.647 8.046-1.457-7.307-12.27.739-9.524-8.426-.74-1.458-4.034-1.267-3.295-2.915 1.838-.549 3.844-2.027 4.942-3.864-2.006-3.844-5.87 1.647-8.046-.718.55 0 4.942.359 6.04-2.028-.38-4.202-5.871-1.098-8.447-2.555l-.718 1.098c-1.289-5.87 2.196-10.453 1.647-15.564-1.478-1.837.739-3.125 1.098-4.582 3.653 11.171 21.435 17.76 17.95 31.508m80.059-1.838c.38 1.648-.55 3.844-2.007 5.322-3.125 2.746-8.996 2.006-9.904 6.399 3.315 2.745 5.68-1.267 8.806-1.457 2.555.19 5.11-.19 7.307-1.478 2.935-2.556 3.864-5.85 5.322-9.145.908-.739 2.196-.38 3.294-.38-4.583 5.322 1.647 15.754-6.399 19.049-2.576 1.119-6.42.57-8.806-1.457-1.647-1.648-3.104-3.654-5.3-3.485-2.197 3.865 4.75 5.87 4.202 9.904.549 3.654-1.098 6.97-4.203 8.786h-5.321c1.837-1.099 4.941-1.458 6.04-4.203 1.647-3.674-1.268-6.42-1.817-9.545-2.766-3.464-7.349-4.942-10.643-4.203-5.11 1.288-11.53 4.034-12.629 9.883-.739 4.224-.739 9.905-1.098 13.39-3.125-5.513-2.745-13.939 1.098-19.43 2.387-4.392 8.426-3.104 9.524-8.425 6.04-5.681 17.402-2.197 20.147-11.91 1.457 0 1.457 1.646 2.386 2.385m-72.539 12.65c-.55 2.555-2.197 6.23 0 8.595 2.744.38 3.843-3.104 6.229-4.012l8.236-1.669c-3.675 2.387-7.138 6.061-10.981 8.067-1.289.74-1.669-1.098-2.767-1.098-2.175 1.288-1.626 4.773-4.561 5.681.908-1.647 1.816-3.653 1.267-5.322-.55-.359-.908-1.098-1.647-.718-2.007 1.816-2.007 4.393-4.203 6.04-.549-1.098 0-3.294-1.837-4.224-3.105.38-1.478 8.448-5.3 3.485-2.028-.169-2.936 2.386-4.583 2.935.718-.549.718-3.653-1.479-4.033l-3.843 2.935-.36-3.484c-2.934-1.267-4.772 2.386-6.968 3.484-1.098-2.006 6.61-3.294 2.386-6.04-2.386-.38-3.484 2.556-5.68 2.556 1.098-3.485 5.321-2.197 6.42-5.3 3.273 2.005 8.235 1.266 11.34-.74 4.772-5.49 11.91-6.969 18.33-7.138m20.696 7.877c-1.098 4.034-1.457 10.432.359 14.466v2.745c-4.942.908-11.72-.359-15.395 1.098-.908 2.577.38 4.583-1.077 6.97l-4.583-.38c-1.457-2.366 1.647-6.78-2.576-7.688-.908.36-2.365.36-3.105-.739-.359-3.294 2.746-4.033 4.942-5.3 3.484-4.393 8.975-5.871 12.65-9.905 2.914-.549 5.49-2.914 7.138-5.85 3.674-.19.549 2.936 1.647 4.583m14.465-64.305c1.289-.738 1.099-2.744 2.936-2.026 3.674 2.386 1.647 10.643 8.067 8.426 2.196 3.843-7.877 3.125-3.843 7.708 1.267-.38 3.104-.74 3.463 1.098-.17 1.837.38 4.392-1.816 4.941h-.93c0-1.457 2.028-3.294-.358-4.223-1.648-.36-2.197.93-2.936-.718.19-.93 1.837-1.837.74-3.126-2.028-.359-3.844-3.843-6.04-1.457-1.289-.739-.55-2.935-2.387-2.745-1.457-.38-3.104.74-4.223 2.006-.55-4.751-.908-8.616.38-13.748 2.745.57 4.202 3.675 6.948 3.865m-62.657 7.138c-4.393 1.647.929 6.589-2.915 8.785.19 3.125 1.098 5.68-.739 8.447-2.745-1.837-4.033-5.132-5.322-8.067 1.12-3.675 2.028-7.877 4.393-10.622l.93-2.767c1.836.57 2.386 2.936 3.653 4.224m47.283 1.647c0 .55 0 2.006 1.267 2.555h1.098c.38 1.12-1.098.93-1.098 1.838-.17 1.837 1.288 3.484 2.935 3.864 1.288.17 2.196 0 3.104-.739-1.457.55-3.463 2.196-5.3 1.457-2.745-1.267.739-6.04-3.104-6.42-2.577 2.218-1.099 6.42-2.936 8.447-.739 3.105-3.674 5.85-2.006 9.525-.93 3.653-4.224 4.033-7.159 5.3-3.294.74-6.779.74-9.524 2.197 1.288-7.687 12.46-4.393 14.466-12.439-2.556-2.027-4.562 1.816-6.948 2.555l-3.865 1.289c-.359-1.838 1.288-3.485 2.386-4.963 2.197-.718 4.773-3.295 7.138-1.647 2.028-.17 1.098-2.746.93-3.844-2.007-1.837-1.289-4.202-.38-6.42l.739-.718c.929 1.457 2.386 2.936 4.223 3.105 2.196-2.197-1.478-6.04 1.457-8.426 1.479 1.098 4.203.549 2.577 3.484m.549 26.925c-2.936 3.865-5.512 6.97-5.512 11.552.74.908 1.668 1.288 2.766 1.098-2.576 5.87-9.355 4.942-13.388 8.785.19-5.3 8.426-7.687 8.806-13.727-.55-.739-1.098-.929-1.837-.739-3.105 3.675-7.138 7.328-9.905 11.362-2.175-4.773 8.257-8.426 6.8-15.585 4.562.549 8.046-9.693 12.27-2.746m-16.493 3.485c1.288 5.322-6.04 7.328-7.16 11.72-1.816-2.365-1.456-4.392-.527-7.497 1.098-3.315 4.561-4.033 7.687-4.223m23.25-13.009c-.168.93-1.077 1.288-1.457 2.028h-1.647c-.359-1.099.74-1.669.908-2.387.74.17 1.647-.19 2.196.36m14.107 3.842c.57 1.099-.718 1.099-1.077 1.479-2.027 0-2.196-2.196-2.766-3.675 0-.718.19-2.006 1.098-1.647 0 1.647 1.288 3.295 2.745 3.844m-5.66 2.766c1.648 1.457 3.105 2.914 2.915 5.3-.169-.19-.36-.548-.718-.358-.19 1.098.718 2.196-.74 3.294-2.005-2.027-.548-7.159-4.223-8.236-2.365 1.626-.169 4.203-.359 6.399-1.647-1.837-5.322-2.745-3.843-5.68 1.837-1.099 2.576-4.034 4.941-4.583l2.028 3.864m-6.061 12.439c-1.816-1.648-1.267-4.203-3.464-5.66 1.817.908 3.654 3.294 3.464 5.66m-3.464 5.68l-1.119 2.387c.93-3.844-6.399-6.948-.528-9.884 1.077 2.366 2.724 4.942 1.647 7.497"/><path fill="#F0B83D" d="M409.423 141l-1.69-1.267s-.443 1.478.402 2.555c.865 1.056 1.288-1.288 1.288-1.288m9.714-1.52s2.196-1.648 3.928-1.69c-.613.063-2.429.127-2.429.127s-.866-1.394-.866-4.055c-.527 2.893-1.393 4.688-1.393 4.688l.76.93"/><path fill="#BBBDBF" d="M613.887 223.085c7.877 2.366 15.205 10.623 17.95 18.31 5.322 20.526 3.484 43.608-14.466 57.145-5.3 1.288-12.438 0-14.846 5.87.55 2.387 3.126 0 4.224 1.838-6.23-.74-11.552 3.653-15.754 8.426-.38 2.006-2.196 4.034-1.478 6.04-3.654 3.125-6.59 6.61-6.04 11.361.38.74 1.098.93 1.837.93-2.745 3.843-4.582 9.143-2.196 13.177.359.55.739 1.098 1.457.908 2.386-4.202 5.322-7.138 9.883-8.426h5.68c-4.94 1.478-10.98 3.484-12.818 9.165-2.365 4.393-2.365 10.073 0 14.466 4.393 6.23 11.742 10.263 20.168 9.545l3.822-1.119c.38 7.16 4.414 15.944-2.006 21.266-7.138 8.236-17.401 9.334-27.094 11.53-.38.36-1.12.74-1.12 1.457 2.767 2.218 6.04-.908 9.525-.359 8.447-2.555 16.873-4.941 23.272-12.27 2.006 4.774 4.223 11.172 1.098 16.114-3.675 4.223-8.785 8.426-14.107 10.263-12.819 6.061-28.382 9.165-43.418 6.78h-1.099c-.718-.909-2.555-.909-3.843-1.458-1.288-1.837-5.132-.55-4.942-3.485 12.27-2.745 24.73-9.165 30.6-20.885 3.464-5.68 13.727-2.196 14.466-11.172-2.027-1.457-3.843 1.289-5.87 2.007-4.393 1.119-7.878 2.745-12.46 1.837-5.491 2.196-8.236 8.257-9.503 13.368-2.387.19-3.506 2.935-5.322 3.843-2.745-4.012-5.512 2.576-8.426 3.125-2.767.74-4.414.17-6.97 1.479-6.968 4.202-17.041 7.497-19.407 16.662.719 8.067-5.87 14.656-3.315 21.794.74 7.708 8.257 15.563 2.196 23.272-.718 1.647 1.12 2.914 2.218 3.104 2.365-.908 2.555 1.478 3.484 2.576 3.104 3.654 7.497 6.589 11.171 9.883-4.223.36-8.257-3.104-10.812-6.04-.549.55-1.858.55-1.858 1.458 2.766 4.772 4.962 11.171 10.643 13.008.74.55.19 1.648 1.098 1.838.38-2.006 2.746-.74 3.865-.74.359.55.908.74.718 1.289-8.616 2.386-11.72-6.97-15.944-12.27.19-1.647-.55-3.125-1.816-3.843-1.648 0-3.485 0-3.865 1.457 1.837 9.165 4.393 18.88 12.46 25.658-10.243-4.603-9.334-16.873-14.107-25.109-1.098-.549-2.006.74-2.196 1.457.38 9.355 1.478 18.5 5.68 26.208-5.87-1.099-6.23-7.877-7.518-12.46-.908-10.622 2.408-20.886-2.006-30.22.19-11.171 1.457-24.37-1.098-35.731.93-4.942.74-10.433 3.104-14.846 4.224-5.491 8.448-10.792 13.558-15.374l.57.359 1.457-2.936 17.592-17.57c.908-7.518-1.669-16.493.359-24.37 0-1.288 2.196-2.745.359-3.843-3.105 1.267-3.485 4.941-4.562 7.687-.76 7.137 1.457 14.106-2.027 20.146-2.745 1.288-3.844-.19-4.583-2.745 0-5.68-1.647-10.813 0-15.923.19-1.31-.19-2.408-1.098-3.506-3.843.93-2.006 5.512-2.935 8.067v20.147c-4.393-16.852-3.105-34.803 7.518-49.458 4.202-22.343 22.174-44.137 43.418-53.492 4.034-1.457 8.046-7.518 12.65-3.295.718 0 1.457-.19 1.816-.739.36-1.647-1.457-1.267-1.816-2.386 2.745-2.555 6.399 2.027 10.622.38.718-.19.36-.93.36-1.478-1.289-1.098-2.936-.908-4.224-2.365 4.033 1.267 8.616-.19 10.812-2.936-2.006-1.288-4.012.908-5.66-.739 1.099-2.365 4.013-4.941 6.4-6.969 2.386-5.3 7.686-10.432 5.68-16.662-2.935.908-2.386 4.583-3.485 6.779-1.837 2.386-2.006 6.23-5.68 6.779-3.105 0-5.681-.19-8.067 2.745-2.915-2.386-5.132 3.126-8.236 1.098-5.871-1.267-5.132-8.595-9.884-10.981-2.576 2.745 1.817 8.785-3.843 9.524-2.766.55-5.87 1.647-6.99 4.583.19 3.484.38 7.328-3.273 8.785l-1.289-.36c1.289-2.385 3.295-4.94 2.007-8.066-.36-2.006-2.746-2.936-4.203-3.844-7.687-.908-12.27 13.178-19.787 4.224-1.267-21.076 24.729-27.665 31.149-44.897 5.85-5.49 12.628-11.72 21.054-11.171 3.485 2.196 6.42 6.04 11.362 5.321"/><path fill="#BBBDBF" d="M621.215 425.881c-12.819 13.917-30.6 19.598-48.91 18.31-4.582-.909-7.708-2.197-12.1-3.844-4.752-2.386-6.399-7.518-8.785-11.742 19.787 4.224 39.934.19 56.068-9.524 3.653-3.104 7.497-6.04 11.34-9.144 1.838 4.942 6.04 10.622 2.387 15.944"/><path fill="#BBBDBF" d="M628.353 432.47c1.478 2.555 1.288 6.23.739 9.165-6.04 11.172-18.88 15.733-30.77 17.76-13.008-.19-30.05 2.936-35.54-12.818l-.36-.38c3.485-.36 8.236 2.386 12.988 1.837 18.88 1.478 37.21-6.399 49.1-20.506 2.934.36 2.195 3.485 3.843 4.942"/><path fill="#BBBDBF" d="M636.06 451.16c1.458 5.49-3.125 8.594-5.321 12.459-13.368 10.073-33.894 16.852-49.648 7.328-2.007-2.935-4.393-5.68-6.04-8.806 8.616.739 19.977 3.674 29.312.38 8.426-1.837 15.563-6.23 22.532-11.742 1.838-2.006 3.675-5.131 6.04-5.85l3.126 6.23"/><path fill="#BBBDBF" d="M642.1 466.723c-1.457 9.715-12.46 17.592-21.244 20.147-8.785 2.576-20.527 4.033-27.834-2.555l-4.582-5.322c7.306-.19 17.57.739 25.088-2.365 5.85-1.289 11.72-5.322 17.21-8.448 3.126-2.745 4.774-6.947 8.427-9.144 1.647 2.197 1.478 5.301 2.935 7.687"/><path fill="#BBBDBF" d="M645.965 478.085c1.457 4.202.718 9.524-2.408 12.65-7.306 9.883-19.766 12.818-31.867 10.622-4.941-1.479-8.067-4.224-11.17-8.257 16.492 1.837 35.16-3.844 42.678-19.957 1.838.718 1.648 3.485 2.767 4.942"/><path fill="#BBBDBF" d="M648.14 503.722c-6.948 8.975-19.787 9.904-29.67 8.067-2.746-1.098-4.583-3.843-6.04-6.23 13.536 2.028 28.572-2.745 36.28-15.564 2.006 4.013 2.365 9.883-.57 13.727"/><path fill="#BBBDBF" d="M650.907 518.209c-7.35 5.132-18.33 6.589-26.757 3.104-2.006-.739-2.196-3.104-3.294-4.582 10.812.38 23.272-.908 30.41-11.172 1.647 3.675 2.006 9.355-.36 12.65m-1.119 13.727c-5.66 3.484-14.634 3.125-21.054.38-1.098-1.669-2.936-3.485-2.197-5.322 8.976 1.647 18.12-.74 25.469-5.322-.74 2.577 1.647 8.257-2.218 10.264m-.739 9.904c-5.11 4.202-13.177 3.294-18.668.739-2.196-1.668-1.457-3.125-1.647-5.702 6.23 1.837 15.395 3.316 21.434-1.098.17 1.837-.19 4.224-1.119 6.06m-2.006 5.301c-.908 3.675-2.914 6.78-4.942 9.905-4.202.739-9.165.908-12.08-2.577-1.097-2.745-2.576-4.751-.928-7.687 5.68 1.838 12.29 3.105 17.95.36m-12.08 13.747c1.458-1.098 3.464-.739 4.942-.38-7.877 10.813-18.69 19.07-30.959 21.266-8.616-.19-17.042 3.104-22.892-4.034-1.098-2.745.17-5.49 2.006-7.687 9.884-7.327 21.625-7.327 32.797-11.91l.359.549c-2.556 5.132-8.236 9.524-13.009 12.46v1.098c5.132 1.647 8.236-4.034 13.009-4.963.549 3.125 4.033 3.125 6.06 3.484.36-.359 1.078-.718 1.078-1.457-1.986-1.457-4.393-2.196-4.942-4.941.93-2.746 1.288-5.681 3.865-7.708 1.647 2.576 4.751 3.674 7.686 4.223M596.295 207.88l-2.196-2.217-1.077 1.478c.528.36.17 1.099.36 1.458-1.289-3.295-2.387-7.138-2.028-10.623 2.576 2.936 4.582 6.04 4.941 9.905m-8.595 3.463c.36.739-2.217-1.457-2.745.739v1.837c-1.647-1.837-3.315-4.223-2.196-6.779 2.006.36 4.012 2.197 4.941 4.203"/><path fill="#F0B83D" d="M523.206 367.997c1.098 8.236 5.132 15.184 6.78 23.25-3.654 3.126-8.427-1.837-10.982 3.126-6.04 7.497 2.935 19.957-6.42 26.186-5.322 11.552-1.647 26.187-1.288 37.38-1.267 8.425-1.098 18.118 1.668 27.115-8.447-33.726-24.75-69.626-9.545-104.429 4.033-6.588 10.453-13.747 18.69-13.747l1.097 1.119m90.681-164.699c1.098 3.653-3.675 6.948-.36 9.144 4.034-2.914 3.844-10.622 10.264-10.981 0 4.202-2.576 8.236-3.315 12.46l.739.907c4.582-2.745 4.582-8.785 10.263-9.714.359 4.773-3.125 8.806-4.583 13.009 2.936 1.288 3.844-2.556 6.42-3.844 1.647-.549 2.936-2.006 4.942-1.457-1.457 3.844-6.589 6.589-5.68 10.622 3.674 0 5.32-6.04 9.523-5.68-1.837 4.033-7.687 6.23-6.04 10.622 4.013-.739 6.04-6.23 10.623-5.3-1.098 3.843-8.975 6.398-6.42 11.17 2.767-.738 4.583-4.223 7.877-3.484-2.745 2.197-8.236 4.583-7.138 8.785 4.034-1.098 7.328-6.04 11.72-4.202-.527 1.267-2.935 1.837-2.555 3.843.36 2.007 2.556 1.458 3.844 2.556-3.104-1.647-6.42-.17-8.806 1.647.76 2.935 4.223.38 5.702 2.217-.93.36-2.197 0-2.767 1.098.908 2.746 4.414 3.464 7.328 3.464 3.125 1.478 4.583 4.582 6.06 7.328-5.13 0-7.327-4.583-12.1-4.942-1.098 0-1.647 1.647-.718 2.196 4.203 4.393 12.27 7.16 12.439 14.107-4.583-2.196-8.595-5.87-14.107-6.04-1.457 3.654 3.484 3.844 5.322 5.681 2.555 2.387 4.751 4.942 5.321 8.067-3.315-3.294-7.708-7.349-12.48-6.969-.718.55-.36 1.648-.36 2.387.55 1.647 2.387.718 3.295 1.457 7.877 5.131 6.61 14.846 10.094 22.174-7.708-2.556-7.327-12.1-14.677-14.846-2.555 2.555 2.767 4.941 3.485 7.518 3.674 6.589 6.06 15.754 2.386 22.892-10.263 10.263-25.827 15.036-28.952 30.05-4.583 10.433-20.506 8.617-19.957 21.794-2.576-2.196-.93-5.87-.38-8.426 4.033-7.687 15.036-4.583 17.232-13.009-.549-.908-1.478-.739-2.386-.739-6.779 5.491-18.858 6.8-20.147 17.592-.38 2.766 1.457 4.772 2.007 7.327-3.464-1.647-6.04-5.85-6.59-9.524.36-5.131 2.767-9.524 7.688-11.91 7.138-1.837 15.585-3.295 21.624-9.144.19-.74 0-1.479-.739-1.838-4.751 1.648-10.432 3.295-15.564 1.458-5.49-2.197-11.72.549-16.493 3.484 0-2.935 2.746-5.132 4.942-6.969 9.355-3.463 18.5 2.936 28.763 1.288 1.119-1.098 2.196-2.576 1.837-4.582 1.837-.718 4.223-1.647 4.963-3.485-1.838-.908-5.322 0-7.709-.718-6.398-2.386-5.85-11.361-13.747-11.551h-6.758c2.365-2.197 6.019-2.197 9.144-1.457 8.426 2.935 10.263 16.303 21.245 11.361 1.288-.93 3.315-.38 4.223-2.217l-1.457-1.457c-3.674-.55-8.067.908-11.002-1.268-3.485-4.413-3.844-10.453-9.144-13.747 2.745-.38 5.66.739 8.405 2.006 5.131 5.87 10.812 12.84 19.428 9.904 1.098-.739 2.745-.739 3.653-2.386l-.359-1.098c-5.3-.74-13.557 1.098-16.303-5.681-.929-1.288 0-2.555.38-3.865 3.823 4.055 9.694 9.356 16.853 7.35 1.837-1.648 5.85-1.099 6.04-4.583-2.387-3.126-4.393.908-6.97.739-3.125.169-6.23 0-8.236-2.386-3.864-9.905 8.068-16.134 6.78-26.567 3.843-20.336-.93-45.256-20.147-58.074-4.963-2.745-10.285-5.132-15.775-6.779-1.457-2.935 2.576-4.942 3.864-6.969.528-2.006 2.006-3.843 1.626-6.399 1.31.908 2.028 2.936 2.577 4.583"/><path fill="#F0B83D" d="M614.985 328.042c-7.687 2.196-14.107-10.074-23.272-5.132 3.484-3.843 8.806-3.484 13.368-2.555 4.054 1.457 5.321 7.328 9.904 7.687m13.009 46.354c-1.289 5.49-4.203 13.557-.36 19.048 1.648 3.675 4.942 6.23 7.687 8.806-2.914 4.942-5.49 10.982-1.647 16.113 2.387 4.393 11.362 4.583 5.871 10.623-1.478 3.294-1.288 6.04-1.288 9.904-10.073-22.174-19.598-46.185-18.33-71.632 2.386 2.555 4.941 6.04 8.067 7.138m22.173 78.221c-.739 4.392-4.962 8.236-2.386 13.008 2.006 3.654 5.322 6.97 8.785 8.785-1.647 3.126-2.555 6.78-3.843 10.285-4.752-13.199-7.138-27.496-12.46-40.505 2.767 3.485 6.61 5.681 9.904 8.427m9.525 46.903l-3.844 4.202c-.93-3.653-1.098-7.687-1.478-11.53 1.31 3.294 4.223 3.843 5.322 7.327"/><path fill="#231F20" d="M519.215 361.598c-1.183.36 1.351-1.837 1.52-3.189.17-1.372.845 3.041.845 3.041s-1.182-.169-2.365.148"/><path fill="#BBBDBF" d="M588.799 329.161l1.457-1.12h1.098l-2.555 1.12"/><path fill="#F0B83D" d="M610.402 358.093c1.457 2.555.57 5.85.908 8.785-1.098 1.647-2.724 0-3.822 0-2.217-1.458-3.484-4.013-2.407-6.59.929-1.287 1.309-3.294 2.766-4.033 1.837-.739 1.647 1.647 2.555 1.838"/><path fill="#231F20" d="M597.943 231.512c2.027-.74 4.413-.19 6.06 1.098.93 2.006-1.478 2.196-2.196 3.104-7.708 1.837-13.748 9.904-22.533 5.68.36-2.027 2.007-3.674 2.936-5.68 1.457-2.006 3.463-3.843 5.85-4.583 3.294.19 6.968 4.942 9.883.38"/><path fill="#BBBDBF" d="M652.005 461.782c-1.479-4.963 11.91-12.1 0-13.009-2.218-1.478-4.963-2.935-6.04-5.68 7.138-1.648 14.445-2.746 22.153-3.485 1.098.739 2.745.38 3.653 1.647 2.196 1.098 1.647 4.393 1.288 6.42-2.006 2.006-4.223 4.583-6.23 5.68 0 .74-1.457 1.838 0 2.387-4.434 2.703-13.367 5.68-14.824 6.04"/><path fill="#F0B83D" d="M678.381 348.21c3.484 3.463 5.85 8.045 10.622 10.242 1.098-.17 1.647-1.289 2.006-2.197 4.963 5.681 6.97 13.558 9.905 20.527.739 0 1.647.19 2.196-.74 2.006 5.301.74 10.074 1.077 16.304 3.675 6.04 1.31 14.297-.718 20.336-1.288 5.132-7.497 6.23-8.785 11.362 1.837 2.196 3.294 0 5.3-.38 4.393-.718 7.709.929 10.813 3.125-1.457 4.583-4.393 9.524-9.144 11.72-1.098.38-1.478 1.479-1.098 2.746 3.632 2.767 8.975 1.647 12.08 6.04 3.843 4.033 5.3 8.996 7.327 13.748-3.653 1.837.19 5.131-.359 7.877-.57 4.223 5.11 9.524.36 13.008-1.289 4.773-2.936 9.355-2.746 14.466-4.034 4.773-5.322 10.643-11.362 13.389-3.294 2.006-6.42 5.49-8.785 8.426-1.837-3.675 1.648-7.687 1.457-11.91 2.746-8.807 8.236-17.402 4.583-27.665-2.386-9.524-10.453-16.852-19.787-19.239-9.166-1.098-18.69-1.098-26.757 1.289-1.457.359-3.104.739-4.561 1.098 7.138-2.64 10.284-4.076 14.824-6.04 4.034-2.766 9.905-5.322 10.813-10.812-.55-2.218-.74-4.773-2.006-6.78-4.583-4.223-9.715-1.478-15.226-2.386l-8.046.908c14.465-9.693 25.468-25.637 28.213-43.228 1.816-14.825-1.478-30.769-2.935-45.235h.739"/><path fill="#231F20" d="M685.16 359.55c6.779 20.146 4.392 43.25-3.844 61.749-.739 1.457-2.386 3.294-4.033 2.006-1.288-2.936 1.457-6.04 2.914-8.806 5.512-14.825 9.165-31.867 4.224-47.98-.908-2.577-1.648-5.301-.74-8.067.55 0 1.099.739 1.479 1.098m13.008 29.311v1.289h-1.098v-2.007c.528 0 1.098.17 1.098.718m-4.582 26.757c-2.745 3.463-4.034 9.165-9.165 9.883-2.197-4.751 4.772-6.779 5.68-11.34 4.034-6.251 4.942-13.748 6.59-21.076l1.097-.74c.38 8.068-1.816 15.945-4.202 23.273m16.493 42.679c4.034 6.61 6.04 15.564 4.034 23.272-1.479-2.006-.212-3.843-1.12-6.04-1.647-9.355-6.04-18.16-14.825-24.37-.19-1.288.55-2.935 2.387-2.386 3.632 2.555 6.758 5.87 9.524 9.524m-1.669 29.312c-1.647 8.426-3.822 17.591-8.425 25.278-.55-.359-.74-1.288-.74-2.365.74-1.858 1.859-3.675 2.028-6.06 1.837-6.59 4.223-13.01 4.963-20.147-.38-8.258-4.414-15.754-10.264-22.174-.38-.908 0-2.006 1.098-2.197 9.166 6.061 12.65 17.782 11.34 27.665"/><path fill="#00B6F1" stroke="#FFF" stroke-width=".359" stroke-miterlimit="3.864" d="M737.722 555.926c1.479 12.1-10.242 22.913-19.048 29.332l-6.779 4.203c-3.653-8.236-6.779-17.591-9.165-26.735 7.349-6.23 16.683-7.877 26.017-10.264 3.316 1.647 6.97-.549 8.975 3.464zm22.174 16.873c4.034 17.21 15.395 32.606 12.27 52.203-12.08 25.828-40.483 37.738-64.114 48.74-2.746.719-5.322 1.817-8.426 1.817-6.97-18.859-12.27-38.287-17.402-57.885 2.387-1.267 6.4-.908 9.166-2.745 25.088-8.426 54.04-21.435 64.663-49.1 1.816 1.29 2.576 4.583 3.843 6.97z"/><path fill="#00B6F1" stroke="#00B6F1" stroke-width=".359" stroke-miterlimit="3.864" d="M659.333 614.93c-.38 1.646-2.218 3.103-3.485 3.843-2.935 1.837-5.68 3.674-8.806 4.941 1.837-2.914 7.518-7.307 12.29-8.785z"/><path fill="#00B6F1" stroke="#FFF" stroke-width=".359" stroke-miterlimit="3.864" d="M194.189 655.792c30.768 8.975 61.2 18.31 93.066 24.35 25.279 6.778 53.302 8.806 80.798 11.55 40.103 5.133 80.776-1.097 118.873-4.962 29.691-4.202 58.433-10.981 86.668-19.027 33.345-9.355 67.218-17.232 96.34-36.64l7.349-8.447 1.457 1.478c5.49 21.794 12.65 42.87 20.146 63.755 1.838 7.497 3.675 17.402-2.914 22.892-50.197 28.573-104.977 41.94-161.763 54.4-11.552 1.288-24.011 3.675-35.373 5.322-41.201 5.132-86.816 6.209-129.326 5.132-14.656-.57-28.024-1.838-42.32-3.485-21.055-.908-40.843-5.322-61.01-8.806-52.943-11.34-106.245-25.067-153.148-51.465-5.87-4.202-7.138-10.432-6.04-16.852 5.491-20.146 13.368-39.195 19.049-59.362 1.288-4.752 2.196-9.524 4.582-13.727 17.592 19.238 41.033 25.827 63.566 33.894z"/><path fill="#00B6F1" stroke="#00B6F1" stroke-width=".359" stroke-miterlimit="3.864" d="M617.012 623.714c-6.61 3.865-13.558 5.49-21.076 4.963-.739-2.196 2.746-1.478 3.844-2.935 5.87-1.648 10.812-1.648 17.232-2.028zm-25.299 21.456c-1.816.908-5.85 2.196-9.503 2.196-.93-1.098-.74-3.315-.74-4.582l10.243 2.386z"/><path fill="#F0B83D" d="M749.654 546.401c6.758 15.226-2.766 29.692-13.389 39.956-13.748 12.079-30.41 19.048-47.262 24.539l-8.067 1.098c.74-1.816-1.457-2.746-.739-4.583 23.652-7.687 48.191-17.76 61.749-41.94 1.647-4.034 2.027-8.975 0-13.009-4.224-5.68-10.263-4.033-16.303-3.843-9.524 2.745-19.048 5.131-27.116 11.171l-1.098 2.555c3.675 9.715 6.42 19.619 9.525 29.502-1.838 1.288-4.393 2.196-6.4 3.295-4.033-5.85-4.772-13.917-8.066-20.506-.36-6.969-10.264-15.944-1.098-21.076 13.726-7.159 28.762-12.65 44.516-14.106 4.942.19 10.433 2.196 13.748 6.947m-549.784 85.76c6.588 1.457 15.014 2.725 19.956-2.576 1.478-3.843-3.105-5.68-5.11-7.328-10.264-4.942-23.273-4.392-34.993-4.942-1.838-1.478-3.675-2.576-5.322-4.582 14.297-1.647 29.502.908 43.06 3.843 4.392 3.105 11.53 4.034 12.65 10.623.907 4.223-1.289 8.067-4.605 9.545-10.622 4.392-19.766 1.816-30.958.359-10.982-2.027-20.316-8.257-28.573-17.042-6.42-6.23-13.368-14.107-22.153-11.172-1.647 1.648-1.858 4.393-1.098 6.59l2.006 3.294c14.466 11.361 30.96 17.59 47.642 23.272 6.04 1.837 12.629 4.751 19.408 6.588 40.842 10.813 79.509 23.462 123.117 27.855 18.12 3.104 39.195 3.843 57.505 5.66l.739-.718c53.872.168 102.042-6.04 152.218-18.33 10.812-2.915 20.168-5.85 31.149-8.427 24.18-6.04 48.36-14.466 71.273-25.088 6.779-5.132 19.978-7.328 17.971-18.69-1.478-2.935-5.342-2.386-8.067-2.006-14.846 6.59-23.462 25.659-39.955 27.855-13.177 1.457-29.121 8.046-38.836-4.224-.169-3.125-.169-6.42 1.838-8.806 8.785-8.405 21.075-8.595 32.796-10.622h21.075c-3.505 9.355-14.296 2.935-20.357 5.322-8.046 1.267-17.401 1.457-23.99 7.328-.74 1.457-2.006 3.463-.36 4.941 8.976 6.779 21.245.74 30.58-2.386 16.493-8.426 28.572-31.867 50.197-24.35 2.745 1.078 4.583 4.203 4.963 6.949-.19 6.969-4.963 13.008-10.644 16.683-12.438 9.693-27.094 15.015-41.581 20.695-49.648 16.684-102.591 29.122-156.252 36.09-15.585.74-31.339 3.105-47.283 3.844-37.717.36-74.905-2.555-111.735-9.165-2.935.74-5.68-1.267-8.785-1.098-48.001-10.812-95.812-21.245-140.519-41.201-10.453-6.06-28.023-13.389-25.658-28.594 2.196-4.202 6.23-5.87 10.643-6.779 22.702.74 34.422 26.926 56.047 30.79"/><path fill="#00B6F1" stroke="#FFF" stroke-width=".359" stroke-miterlimit="3.864" d="M106.084 561.986l-9.165 26.377c-11.361-5.49-21.984-15.184-26.566-27.475-.19-2.555-.19-5.321 1.457-7.328 7.159-3.484 15.036 0 21.794 1.648 4.413 1.837 8.806 4.392 12.48 6.778zm-44.537 19.788c16.493 20.337 41.053 27.474 64.135 35.182-.55 6.758-3.675 13.368-5.132 20.147-3.294 10.812-6.779 21.414-10.263 32.057-2.196 1.647 0 8.236-4.942 5.68-21.815-7.137-42.51-17.59-59.721-34.992-7.518-8.426-14.487-18.858-10.454-30.24 3.865-14.466 10.623-27.834 14.846-42.321l1.647-2.914c2.197 6.23 5.681 12.27 9.884 17.4z"/><path fill="#00B6F1" stroke="#00B6F1" stroke-width=".359" stroke-miterlimit="3.864" d="M161.772 623.355c-4.582-1.816-10.453-4.941-12.1-9.165 4.773 1.478 8.616 5.68 12.1 9.165zm51.106 3.844c0 2.196-2.745.549-3.844 1.478-5.131-1.098-11.91-1.647-16.324-5.322 7.16.36 14.318.36 20.168 3.844zm14.846 15.205c-.74 1.647 0 4.223-1.837 4.962l-8.807-2.576c3.506-1.098 7.16-1.457 10.644-2.386z"/><path fill="#F0B83D" d="M104.606 546.781c5.68 2.936 12.1 4.393 16.852 9.525-1.288 8.067-5.3 14.846-7.328 22.533-2.555 4.941-2.745 10.812-5.68 15.585-2.366-.38-4.752-2.028-6.4-3.126.55-4.582 2.746-9.883 3.654-14.466 2.028-4.582 4.224-9.165 5.322-14.106 1.098-3.844-3.294-5.322-5.68-6.8-9.905-5.66-22.175-9.525-33.536-8.405-2.745.739-5.49 3.104-6.399 5.68-2.196 16.852 13.727 28.573 25.827 37.358 11.53 6.969 23.631 11.91 36.26 16.134.93 1.267 0 3.485-.718 4.942-14.846-2.936-28.763-8.616-41.602-16.493-16.113-8.976-31.318-25.469-28.573-44.137 1.098-6.06 6.969-11.192 13.009-12.29 12.27-.17 24.18 4.223 34.992 8.066"/><path fill="#231F20" d="M130.94 697.775c3.21.887 4.773 1.098 6.146-2.26l9.756-24.159c-1.436-4.667-2.196-5.152-2.85-5.427l.506-1.267 10.749 4.35 8.89 28.91.106.022 6.251-15.437c1.225-3.063 1.288-4.984-2.703-6.97l.507-1.245 10.96 4.413-.507 1.267c-3.864-1.013-4.646.043-5.638 2.492l-12.122 30.009-1.436-.591-11.51-36.788-.105-.042-8.236 20.4c-1.478 3.674-.802 5.068 2.809 7.011l-.507 1.267-11.573-4.667.507-1.288m48.74-18.732l30.157 9.799-3.4 10.517-1.31-.423c1.204-7.834-2.069-10.326-9.122-12.628-2.893-.93-3.886-1.014-4.625 1.204l-3.95 12.142c5.006 1.669 8.131 1.183 11.024-5.047l1.352.444-5.744 17.675-1.373-.443c1.5-6.737-.655-9.165-5.828-10.855l-4.097 12.65c-.76 2.302.042 3.252 3.42 4.35 5.132 1.669 10.898 2.049 16.768-4.772l1.458.464-5.618 10.2-30.579-9.925.423-1.31c3.083.655 4.751 1.014 5.807-2.238l8.215-25.278c1.12-3.464-1.035-4.287-3.4-5.216l.422-1.31m82.53 23.885c-1.901-.275-3.38.739-4.499 2.576l-18.14 29.776-1.436-.359-3.231-27.136-.36-.064-15.542 22.808-1.5-.36-3.906-34.865c-.317-2.788-.74-3.421-2.893-4.266l.295-1.351 15.754 3.632-.316 1.352c-1.964-.296-3.485-.528-3.95 1.457-.126.57-.105 1.203-.02 1.858l1.9 20.801.106.021 10.052-14.888-.697-5.575c-.422-1.33-.887-2.07-3.421-2.766l.295-1.33 16.726 3.843-.317 1.351c-2.344-.38-3.907-.676-4.33 1.14-.147.634 0 2.028.064 3.126l1.626 19.133.106.042 10.137-16.83c.295-.508.654-1.036.908-2.176.506-2.196-1.352-2.682-3.168-3.21l.317-1.33 9.756 2.26-.317 1.33m29.185 33.788c-4.667 3.865-9.44 6.61-16.387 5.512-12.65-2.006-18.077-11.995-16.472-22.131 1.753-11.024 10.897-18.246 22.3-16.451 4.879.781 8.659 4.097 10.053 4.329 1.457.232 2.133-.824 2.893-2.112l1.478.232-2.027 12.713-1.352-.232c-1.161-5.005-4.71-12.08-10.897-13.072-7.919-1.246-11.361 6.716-12.818 15.88-.507 3.274-.993 8.532.443 12.312 1.669 4.287 5.829 5.766 7.518 6.04 4.224.676 8.553-.317 13.854-4.646l1.414 1.626m34.528 11.636l-17.675-2.196.169-1.351c3.42.147 4.413.21 4.624-1.584.17-1.457-1.077-5.723-1.626-7.56l-12.27-1.5c-2.005 3.738-3.146 5.85-3.273 6.737-.253 2.07 2.345 2.555 4.203 2.872l-.19 1.372-11.066-1.351.169-1.373c3.02-.063 3.991-1.816 6.124-5.702l15.796-28.424 1.52.19 8.638 30.198c1.732 6.125 2.387 8.088 5.005 8.3l-.148 1.372zm-15.057-14.93l-3.885-13.917-6.758 12.629 10.643 1.288m42.067-9.63c-.718-3.907-3.569-10.432-10.03-10.897-2.873-.19-5.998 1.246-6.252 4.794-.21 2.978.76 4.245 5.216 6.885l7.772 4.561c1.795 1.056 5.744 4.52 5.321 10.517-.337 4.794-4.308 11.192-14.402 10.495-5.216-.38-7.54-2.407-9.25-2.534-1.14-.084-1.499.887-1.774 1.753l-1.583-.106.95-13.536 1.584.105c.718 5.618 3.463 12.017 10.41 12.523 6.59.444 7.244-4.941 7.287-5.66.274-3.674-2.218-5.173-5.66-7.116l-3.548-2.006c-9.08-5.174-8.743-9.883-8.574-12.396.254-3.337 2.471-10.686 12.882-9.947 4.393.296 6.842 2.28 8.426 2.386 1.267.106 1.584-.697 1.943-1.731l1.647.126-.823 11.89-1.542-.106m30.135 27.601l-19.597-.697.042-1.372c4.034-.19 5.343-.254 5.512-4.878l1.014-28.932c-3.844.084-9.524.169-10.94 8.912l-1.583-.064.549-11.023 32.965 1.161-.275 11.045-1.605-.063c-.78-8.828-6.44-9.313-10.22-9.651l-1.014 28.952c-.17 4.646 1.161 4.815 5.216 5.217l-.064 1.393m41.286.359h-31.761v-1.372c3.083-.38 4.73-.55 4.73-3.886v-26.609c0-3.632-2.26-3.738-4.73-3.885v-1.394h19.175V716c-3.844.147-5.533.21-5.533 5.047v25.912c0 2.64 1.204 3.083 4.878 3.083 8.3 0 11.383-4.562 13.896-10.75h1.605l-2.26 12.46m1.14-37.231l31.656-1.647.592 11.024-1.373.084c-1.668-7.75-5.66-8.912-13.051-8.531-3.02.169-3.991.443-3.886 2.808l.676 12.713c5.28-.21 8.004-1.774 8.468-8.637l1.415-.063.972 18.541-1.415.064c-1.014-6.822-3.907-8.32-9.334-8.025l.697 13.262c.126 2.428 1.203 3.04 4.751 2.83 5.385-.254 10.918-1.985 13.938-10.454l1.542-.084-1.605 11.53-32.1 1.669-.084-1.352c3.125-.507 4.815-.76 4.646-4.16l-1.415-26.546c-.17-3.632-2.492-3.61-5.026-3.653l-.064-1.373m82.677-4.921c-2.956.74-4.16 1.48-3.78 5.09l1.837 17.444c.338 3.21.085 8.172-1.942 10.854-2.429 3.253-7.075 4.794-10.37 5.11-2.386.254-7.56.466-11.445-2.259-2.556-1.837-4.182-3.59-4.815-9.482l-1.922-18.267c-.486-4.603-1.9-4.561-5.005-4.561l-.148-1.352 18.479-1.943.147 1.352c-3.59.549-5.28.781-4.772 5.596l1.921 18.246c.317 3.126 1.12 10.644 8.976 9.82 9.63-.993 8.87-9.376 8.489-12.86l-1.753-16.684c-.338-3.337-1.182-5.11-5.913-4.857l-.148-1.352 12.016-1.246.148 1.352m5.512 33.683c3.189-.908 4.646-1.52 4.097-5.11l-4.097-25.722c-3.632-3.273-4.52-3.295-5.216-3.168l-.232-1.373 11.467-1.816 22.511 20.21.085-.02-2.598-16.452c-.506-3.252-1.457-4.941-5.892-4.582l-.21-1.352 11.656-1.837.212 1.351c-3.823 1.098-3.95 2.408-3.527 5.005l5.047 31.973-1.52.232-28.805-25.574-.106.021 3.442 21.689c.613 3.928 1.922 4.772 5.998 4.561l.211 1.373-12.312 1.943-.211-1.352m58.328-9.44l-18.816 4.013-.296-1.352c2.851-.887 4.9-1.563 4.203-4.878l-5.533-26.017c-.76-3.548-3.316-3.126-5.829-2.767l-.274-1.33 18.816-4.013.274 1.352c-2.492.633-5.068 1.246-4.287 4.9l5.533 26.017c.74 3.442 2.914 3.146 5.913 2.724l.296 1.351m28.277-7.37l-18.964 5.09-.338-1.33c3.78-1.374 5.026-1.817 3.843-6.273l-7.518-27.981c-3.653 1.204-9.06 2.956-7.834 11.72l-1.542.402-2.682-10.707 31.846-8.532 2.956 10.644-1.541.422c-3.337-8.215-8.87-7.011-12.586-6.251l7.496 27.981c1.204 4.52 2.513 4.266 6.505 3.485l.359 1.33m-.972-38.266l29.967-10.305 3.61 10.453-1.287.423c-3.76-6.948-7.877-6.99-14.888-4.583-2.873.993-3.738 1.52-2.978 3.759l4.16 12.058c5.005-1.668 7.201-3.928 5.765-10.643l1.352-.465 6.04 17.57-1.352.465c-2.872-6.272-6.04-6.927-11.192-5.153l4.329 12.565c.781 2.302 1.985 2.577 5.364 1.415 5.09-1.752 9.946-4.941 10.516-13.916l1.436-.486 1.648 11.53-30.41 10.454-.423-1.289c2.83-1.33 4.393-2.048 3.295-5.279l-8.659-25.151c-1.182-3.422-3.42-2.767-5.85-2.112l-.443-1.31m47.199 21.161c3.168-1.415 3.506-3.316 2.682-5.153l-11.024-24.772c-1.351-3.062-3.61-2.175-5.66-1.499l-.57-1.267 15.332-6.8c14.065-6.272 22.512.422 25.954 8.152 4.097 9.25 2.175 19.491-10.284 25.531l-15.881 7.075-.549-1.267zm10.77-8.891c.908 2.006 1.753 2.703 4.16 1.647 5.618-2.513 8.616-7.687 3.274-19.682-2.049-4.582-7.94-14.761-16.578-10.918-3.231 1.436-2.619 2.661-2.07 3.76l11.214 25.193M218.2 233.328c2.006-2.007 4.941-2.007 7.306-.718 2.746 2.196 4.773 6.04 6.42 9.144-4.033-.17-9.714 2.386-13.367-.718-3.295-3.316-7.328-4.414-11.362-6.061-.169-.55-.739-1.457 0-2.006 1.098-1.457 2.936-1.457 4.942-1.457 2.027.718 3.674 3.463 6.06 1.816m34.254 27.854c-.19.55-.93.74-.74 1.288 1.648-.19 3.844.17 5.323 1.099 2.006 2.006.549 4.392.549 6.778-1.099 1.268-3.126.909-4.224.36-1.837-.909-1.647-2.936-3.104-4.034-.74.74-.19 2.935-1.838 2.555-1.647-2.555-3.294-5.11-4.223-8.046.929.19 2.766 1.457 4.223.36.908-1.099 2.197-2.007 3.654-2.197.739.38.38 1.288.38 1.837"/><path fill="#FFF" d="M227.09 240.107l-3.78.464c-1.035.127-2.26-.19-3.294-1.267-.317-.274-.57-.76-.993-1.014.486-.063.803-.147 1.183-.59 0 0 .401 2.09 2.682 2.09 1.605 0 2.365-1.69 2.365-1.69l1.837 2.007"/><path fill="#231F20" d="M565.907 260.823h1.077c-.718 2.365-3.105 4.942-3.844 7.687-1.837.55-1.837-1.647-2.196-2.745-1.267 1.647-1.647 4.033-3.843 4.941-1.458.36-2.746 0-3.844-1.098.718-2.386-1.647-6.42 2.006-7.138.908-.19 1.838-.549 2.936-.38l.908.74c.57-.909-.718-2.197-.55-3.485 3.295-1.457 4.414 4.583 7.35 1.478"/><path fill="#FFF" d="M582.843 239.895s1.626.866 2.851.824c1.183-.042 3.168-.338 4.245-1.373.338-.253.612-.718 1.035-.992-.486-.085-.803-.17-1.162-.613 0 0-.464 2.07-2.766 2.007-1.584-.064-2.302-1.795-2.302-1.795l-1.9 1.942"/><path fill="#BBBDBF" d="M224.24 331.336c-1.648-1.647-4.034-2.555-5.681-3.843 2.196.929 4.392 2.196 5.68 3.843"/><path fill="#F0B83D" d="M205.191 210.246v1.837c-13.917 3.843-29.333 14.846-33.535 29.67-6.23 17.592-5.491 41.223 5.321 56.787.55 3.484-.549 5.702-2.935 7.349-3.484 1.267-8.257.908-11.171-1.098-.908-.19-2.218 0-2.218 1.098.57 4.202 5.512 4.012 8.806 4.942 5.871 0 11.172-3.485 14.107-8.448 1.288 1.859.17 3.506 0 5.322-3.125 6.61-11.72 3.295-16.493 5.68 2.196 4.774 7.877 2.556 11.552 2.746 8.046-2.006 10.622-14.107 20.146-11.72-7.877 3.484-4.033 15.754-14.466 15.564-2.576 0-5.321-1.816-7.328.38 2.746 2.745 7.138 4.202 11.53 3.104 7.899-2.555 10.264-15.754 20.886-11.91.909.38 1.648 1.119 2.746 1.119-4.203 0-8.785 0-12.629 2.745-3.484 3.105-4.223 10.073-10.263 9.524-2.006.908-5.132-2.027-5.68 1.099 1.456 2.745 7.327 1.457 5.32 5.68 4.393 3.654 11.172 1.457 15.924.36l.38.548c2.555-.739 4.942-1.837 7.687-2.027 4.202.93 9.334 1.668 11.361 6.42l.55 2.027c-5.681-3.674-14.297-5.87-20.337-2.745-4.942.169-8.046-.93-12.46-2.218-1.098.38-1.098 1.669-.359 2.218 8.595 10.981 32.416 3.463 28.953 23.63-1.31 2.556-3.125 5.491-5.87 6.59 1.646-2.936 2.005-6.59 1.287-9.884-3.315-9.545-13.747-9.355-20.357-15.036-.718 0-1.267.19-1.816.909-.74 2.935 2.914 4.033 4.582 5.321 4.583 2.387 11.172 2.387 13.368 8.806.19 2.007 1.098 5.111-.74 6.78-.168-4.583-4.202-9.905-9.165-12.65-6.947-2.028-12.27-7.877-13.726-15.205-5.49-12.27-20.147-13.558-27.496-24.37-4.582-10.264 1.12-19.788 7.35-27.475 0-.93-.19-2.196-1.289-2.196-6.969 2.935-6.779 12.818-14.466 14.825 3.654-7.856 2.556-20.316 12.988-22.892.38-.74.929-1.288.739-2.387-3.104-2.365-6.589 1.289-9.524 2.767-1.479 1.098-2.556 3.104-4.203 3.463 1.816-4.202 5.681-9.334 10.264-10.622.908-.55 1.267-1.647 1.626-2.386-1.816-1.648-3.844 0-5.85 0l-8.616 5.321c-.55-7.328 8.806-9.714 12.46-15.564-2.936-1.288-6.061 2.007-9.166 3.105l-4.202 1.098c.169-1.837 2.555-3.844 3.843-5.68 2.936-1.817 6.42-2.556 9.524-3.844.38-1.098-.549-1.648-1.098-2.387h-1.837c1.647-1.288 5.132-.359 6.04-2.196-2.365-1.837-5.3-2.935-8.405-2.006 0-.19 4.202-.55 3.463-3.316-.908-.718-1.647-2.006-2.745-2.365v-.739c4.582-1.098 8.236 2.935 11.91 4.583.55-.36.74-1.099.74-1.838-1.479-3.484-5.132-4.941-8.068-6.947 2.746-1.12 5.322 2.006 8.068 3.104 2.386-5.132-4.773-6.04-6.42-10.263 4.223-2.387 6.969 3.843 10.622 4.941 1.457-.549.55-2.196.38-3.104-1.668-3.105-4.582-4.583-6.42-7.687 3.844-.93 5.681 4.392 9.524 5.85.74-1.099 0-3.295-.908-4.583-2.196-1.647-3.315-4.393-4.941-6.589 4.751-.359 7.307 4.583 11.171 6.04.19-4.583-5.131-8.046-4.223-13.558 5.87.19 6.23 7.328 10.622 9.545.739-4.582-2.555-8.447-3.104-13.03 1.816-1.097 3.843 1.479 5.87 2.218 2.176 2.555 1.267 9.334 6.04 7.328-1.478-4.034-2.386-9.355.718-13.009.93 4.034 2.386 8.785 6.061 11.53"/><path fill="#F0B83D" d="M218.918 323.46c.19.38-.908-.17-2.197 0-3.484-.909-7.518.548-10.981 2.216-2.935 1.458-5.68 4.013-8.806 3.105 5.512-3.105 9.524-11.53 18.69-7.687l3.294 2.365m-12.819 36.83c.55 2.576.55 5.85-2.006 6.969-1.098.908-2.218 1.267-3.865 1.098-.718-4.034-.359-8.806 2.767-11.362 1.647.17 2.365 2.007 3.104 3.295"/><path fill="#BBBDBF" d="M203.354 419.081c9.334 6.061 19.787 11.003 31.318 11.003 8.257 2.555 17.95.19 25.848-.74-2.407 7.519-8.996 13.01-16.324 14.846-15.564 2.387-31.508.19-44.327-8.426-5.321-4.751-13.198-9.334-10.622-17.78 1.647-2.007 1.457-7.308 4.942-6.21 2.745 3.105 5.68 5.85 9.165 7.307"/><path fill="#BBBDBF" d="M244.196 448.393l4.941-1.816c0 3.294-4.202 5.68-5.68 8.806-9.334 5.85-21.414 6.758-32.775 4.561-11.003-2.386-23.082-6.42-28.214-17.232-1.837-5.11 1.098-10.073 4.034-14.107 15.014 17.043 36.45 22.913 57.694 19.788"/><path fill="#BBBDBF" d="M227.724 464.527c2.006-.74 4.751-.359 6.589-.549.549-.19.169-.93 1.098-.74h1.098c-3.295 7.878-10.622 13.01-19.048 13.39-13.917.549-26.947-3.485-37.38-12.65-1.837-3.484-6.23-6.61-4.582-11.361 1.647-2.007 1.12-4.942 3.485-6.78 12.29 14.107 29.86 22.343 48.74 18.69"/><path fill="#BBBDBF" d="M173.303 460.684c12.1 15.754 30.6 21.434 49.838 19.048-4.033 7.687-11.72 11.171-20.146 10.622-12.1-.169-25.849-5.66-32.078-17.21-3.654-4.393.739-7.878 1.478-12.46h.908"/><path fill="#BBBDBF" d="M211.04 494.198c-3.653 6.23-9.333 8.426-15.753 9.524-12.27.57-24.37-4.562-30.051-15.564-1.457-4.583.929-9.355 2.217-13.748 8.595 16.134 26.018 21.625 43.588 19.788"/><path fill="#BBBDBF" d="M199.13 507.206c-3.843 8.617-13.727 6.78-22.153 6.42-6.969-1.478-14.296-6.589-15.944-13.748.74-2.555 0-5.87 1.838-8.067 8.046 12.65 22.891 17.043 36.26 15.395"/><path fill="#BBBDBF" d="M190.704 518.209c-.718 2.196-2.386 4.751-4.942 5.3-6.23 2.387-14.296 1.648-20.526-.359-2.175-1.478-5.132-3.125-6.04-5.68-.908-3.485-.169-7.138.74-10.264 7.137 10.074 19.238 11.552 30.768 11.003m-5.301 10.263c0 2.365-1.098 4.203-2.935 5.66-4.942 1.647-12.1 3.674-17.591 1.288-2.555-.55-3.844-2.745-5.322-4.583v-7.328c7.16 5.132 17.063 6.23 25.848 4.963m-2.196 9.883c.19 2.556-.19 5.132-2.766 6.23-5.66 2.555-12.439 3.485-17.57-.908-1.838-1.478-1.099-4.033-1.838-6.06 6.59 3.104 15.205 4.033 22.174.738m.359 11.531c.908 2.576-1.837 3.674-1.647 6.04-2.386 1.668-4.773 3.864-7.877 3.505-1.288-.38-3.294-.549-4.942-.739-1.478-3.294-3.674-6.06-4.223-9.714 5.68 2.935 12.1 1.457 17.971-.36l.718 1.268m4.942 15.204c1.098 4.963-6.589 3.126-4.203 7.16 2.936.929 4.583-1.098 6.4-2.577v-.718c4.582.908 7.876 5.85 12.649 5.3.739-.358.359-1.266.359-2.005-3.654-2.028-7.687-4.393-10.242-8.257-.76-1.458-2.408-2.556-2.408-4.203 11.003 5.68 25.468 3.654 34.443 13.389.57 1.816 2.028 4.561.38 6.399-8.425 7.497-19.597 3.463-29.311 1.837-9.714-3.844-18.88-10.644-24.92-19.429 4.203 1.289 9.715 0 12.65-3.294 2.556.908 2.746 4.224 4.203 6.399M144.73 457.2l.36-.381c-2.007-4.752-10.074-6.589-6.949-12.988 3.823-4.392 8.595-.929 13.727-1.478 4.203 1.288 9.165.74 13.368 1.837-1.816 4.942-7.856 5.491-10.982 8.786.36 4.033 6.4 5.511 4.942 10.263-2.724-1.183-11.446-5.068-14.466-6.04m75.096-258.484c-.17 3.654-.908 6.4-2.006 9.166-.36.718.739-1.838-.74-1.479-1.077-.549-2.006.74-2.365 1.479-.929-3.126 2.914-6.061 4.203-9.166h.908m8.257 8.785c.908 2.577-.55 4.942-2.196 6.78v-2.556h-2.746c1.267-1.478 2.746-4.034 4.942-4.224"/><path fill="#F0B83D" d="M129.715 375.304c-.929 18.33 1.458 35.731 14.107 49.48 4.562 4.75 9.144 9.143 14.466 12.987-7.159.549-15.754-2.915-22.723 1.478-2.196 2.386-2.196 6.23-1.647 9.144 2.745 4.414 6.399 6.99 10.812 8.806 2.028.148 10.96 3.76 14.466 6.04-12.27-3.485-29.122-5.132-40.483 1.668-10.073 6.04-12.27 17.57-11.362 27.834 1.648 9.524 7.16 17.59 7.16 27.664-5.702-8.447-18.69-11.551-20.907-22.723.19-6.23-1.457-11.72-4.562-16.493 1.098-4.941 2.196-10.073 3.295-15.184.19-1.288-.19-2.386-1.099-3.125h-.38v-1.098c2.936-8.257 8.807-17.401 18.69-17.95 3.294-4.034-4.013-4.224-5.3-7.16-2.197-2.365-2.746-5.3-4.224-8.067 3.315-2.724 8.067-4.371 12.27-2.724.738.36 1.477 1.098 2.575.908 1.838-.908.74-2.386.36-3.484-8.976-5.68-11.53-17.211-10.623-27.116 3.844-4.751 0-12.27 2.386-18.309.36-.74 1.268 1.098 2.556.36 2.576-6.97 5.49-13.918 9.165-20.528l1.098-.359c0 .93.36 1.648 1.288 2.197h1.457l9.905-10.264c1.647 8.426-2.936 16.852-2.746 26.018m45.425 59.721l-1.837 4.583c1.837-6.42-8.975-14.466 1.478-17.401 2.555-1.648 3.844-4.393 4.942-6.97 2.365-6.039-8.975-11.72 0-15.204 5.49-5.132 7.138-13.727 4.582-20.147-1.098-.908-.739-2.576-1.837-3.463 3.485-2.386 6.23-5.512 9.165-8.806.36 24.919-6.969 46.713-16.493 67.408"/><path fill="#231F20" d="M127.139 359.93c-.55 12.27-5.68 24.729-1.457 37.738.908 9.144 4.582 17.02 8.595 24.898.38 1.288-.36 2.386-1.457 2.576-2.936.36-3.295-2.935-4.583-4.583-8.236-18.499-8.975-41.032-2.196-60.63h1.098m-13.368 30.58v1.119c-.549 0-1.288.359-1.478-.38-.169-.74 0-1.457.74-1.838.19.55.928.19.738 1.099m.359 4.223c2.028 10.982 4.942 21.625 13.368 30.051.38 1.098-.718 2.006-1.457 2.365-3.485-.359-5.132-4.202-6.969-6.589-4.562-7.708-6.04-16.852-6.779-26.186.74-.739 1.12 0 1.837.36m-1.098 56.785c0 2.936-2.935 2.577-4.223 4.942-8.046 6.969-10.433 17.042-11.89 27.115h-.739c-2.006-13.916 3.675-26.017 14.466-33.155 1.098-.359 1.647.55 2.386 1.098"/><path fill="#231F20" d="M110.287 470.208c-10.622 14.107-1.478 30.05 1.288 44.516-2.027-.359-2.386-2.935-3.125-4.582-4.942-13.009-11.34-31.867 0-44.137 1.837-1.478 3.125-3.864 5.321-4.582 3.844 3.653-2.745 5.66-3.484 8.785"/><path fill="#BBBDBF" d="M345.879 347.09c-.55-.549-1.837-1.816-1.457-3.104.549.908 1.267 2.006 1.457 3.104m120.541 0c-.908-.549-.19-2.006.74-2.745-.19.929-.38 2.006-.74 2.745M235.03 483.575c1.289 5.871 3.675 12.46 2.218 18.69.55.359.908.908 1.626.739 3.865-4.963 2.027-12.27 1.478-17.591 6.78 8.236 7.518 19.787 8.067 30.41.36.908 1.099.908 1.838.549 3.822-4.414.359-10.623 1.457-16.113 5.49 8.046 5.322 19.766 4.582 28.931.55.38.908 1.098 1.648.74 1.288-1.289 2.027-2.936 2.196-4.942 1.837 9.334.38 19.956-3.104 29.121 1.626-25.637-15.754-47.452-36.45-61.368.359-2.556 2.914-5.681 5.66-6.97.549 2.936-1.458 6.97 1.098 8.807 4.413-4.224-1.267-13.748 4.941-16.493l2.746 5.49m350.283 9.905c2.006-2.746-.739-5.871.74-8.785 2.386 1.626 4.75 3.653 5.659 6.398-20.696 14.656-38.097 35.9-36.45 62.108-3.484-7.898-4.941-19.238-3.104-30.05.359 2.196.718 4.582 2.745 5.68 3.105-1.837-1.288-6.42.74-9.904 0-6.969.527-14.635 5.3-20.147 0 5.871-2.006 12.46 1.478 16.684.908.359 1.647-.38 2.006-1.099-1.288-10.263 1.099-21.075 7.138-29.311.36 5.85-2.745 12.818 2.746 16.662l.739-.74c-.55-8.425 0-17.59 5.322-23.99 5.68 4.013-.19 12.63 4.941 16.494"/><path fill="#FFF" d="M270.403 503.363l-2.196-.359c2.196-1.837 5.85-1.098 8.426-3.126 3.125-2.745 4.202-6.398 7.138-9.524-3.126 5.322-6.42 12.46-13.368 13.009m8.047 3.843c-2.197-2.365 2.195-3.484 3.125-5.85.19 2.556-2.556 3.654-3.126 5.85m-.359 6.42c3.675-3.484 6.779-8.426 8.806-13.367.17 5.3-4.772 10.073-8.806 13.367m256.119-6.42c-1.479-2.365-3.295-4.582-4.224-7.328.93 2.936 6.589 3.485 4.224 7.328m5.301.74v1.457c-.55.19-.719-.36-1.099-.74v-1.457c.55-.169.74.38 1.098.74m-266.36 2.576c-.93-.38 0-1.478.359-2.217h.739l-1.098 2.217"/><path fill="#231F20" d="M293.443 362.21c1.12.529-.993-2.069-.93-3.442.064-1.351-1.372 2.851-1.372 2.851s1.204.042 2.302.592"/><path fill="#FFF" d="M356.121 144.675c.19 10.073-.169 21.603-.359 31.127-.359.74-1.098.38-1.816.38-.55-11.551-.55-21.983 0-32.796.908 0 2.175.19 2.175 1.289M241.45 278.752s4.54.465 6.125 2.577c1.605 2.133 5.892 8.7 11.467 5.85 0 0 1.668 2.85-3.485 2.85-4.962 0-7.792-3.737-9.207-6.208-1.415-2.492-3.189-3.274-4.52-3.59l-.38-1.479m328.28-.359s-1.585 3.147-4.119 4.203c-2.534 1.056-2.217 2.724-2.47 3.125 0 0-4.14 4.118-7.688 4.118-3.569 0-3.083-.507-3.379-1.752-.295-1.268 1.246-1.605 2.133-1.077.887.527 3.02 1.773 6.04-2.302 2.999-4.076 7.814-6.758 9.482-6.315"/><path fill="#F0B83D" d="M311.625 388.861c8.976 33.536-4.033 65.044-11.91 95.834 1.267-6.8 2.386-14.846 2.006-22.174-4.033-11.742 4.414-22.723-.739-33.535.38-4.752-2.175-9.356-5.66-13.01-.38-8.235 1.077-17.4-4.223-23.63-2.936.359-6.78 1.288-9.165-.718 2.027-8.447 4.962-16.324 7.518-24.37 11.171 1.267 19.238 11.72 22.173 21.603"/><path fill="#FFF" d="M363.829 44.28c1.288 1.647.908 4.392.38 6.23-.929 1.098-1.837 1.647-2.956 1.837.549-2.387 2.217-4.583 1.119-7.16-2.027-2.364-4.393-5.49-7.708-5.49-3.104.36-5.85 2.386-7.497 4.942-2.935 4.582 1.816 8.257 2.196 11.91-2.196-1.098-3.843-2.745-4.941-4.941-.93-3.295-.38-6.78 1.457-9.525 4.033-2.196 8.975-5.68 13.748-2.745 1.816 1.647 3.104 3.105 4.202 4.942"/><path fill="#FFF" d="M356.691 48.482l-.929 4.963c.359 20.505 1.098 40.293.93 61.348-.93.929-1.099 2.935-2.746 2.766-.19-25.468-1.478-47.452-.38-70.534 1.288 0 3.125-.19 3.125 1.457"/><path fill="#F0B83D" d="M158.837 485.772c-1.457-3.295-1.837-6.78-4.224-9.524 4.583-2.197 9.525-6.97 9.525-12.629.38-3.484-2.007-6.06-3.105-9.165 2.936-3.126 7.328-5.132 9.884-9.165-5.301 13.008-8.046 27.474-12.08 40.483m-3.125 19.069c-1.099 0-2.746-3.125-4.203-4.223 1.837-1.648 4.203-4.393 5.68-6.78-.358 3.654-.358 7.688-1.477 11.003M539.89 516.73c1.647 2.387 1.647 6.78 1.647 9.905 2.386 30.769-10.623 57.884-36.64 73.09-32.627 23.82-70.724 38.286-98.008 70.892l-1.099.36c-15.395-19.767-37.927-32.417-57.884-45.595-7.349-3.125-13.579-8.067-20.717-11.551-4.392-3.294-9.524-5.322-13.726-9.165-26.208-14.825-43.25-38.287-42.7-68.507 1.456-5.322-1.268-12.818.928-17.591 2.197-1.288 5.491.93 8.236-.36l1.648-.738c.359 1.288-1.289 3.653 1.098 4.941 2.935.19 5.321-.739 8.067-1.647-3.295 31.15 12.08 57.906 38.836 72.181 26.376 14.656 54.23 27.475 76.573 50.747 3.464.19 3.464-3.844 5.681-5.49 25.468-24.73 58.434-34.993 85.739-55.879 18.31-15.944 26.735-38.287 23.8-62.298 3.315 0 7.328 3.484 9.904 0l-1.288-4.202c2.745 2.386 6.969 2.555 9.904.908"/><path fill="#FFF" d="M347.906 386.665s25.49-4.287 33.873-8.785v236.69s-.485 1.415-4.033-1.415c-3.527-2.85-30.22-17.274-30.22-17.274l.38-209.216m81.98-8.785s13.114 5.068 20.231 6.145c7.075 1.056 12.924 1.817 13.558 3.738V596.43s-30.093 16.789-33.536 19.407l-.253-237.957m-74.504-182.987l.274 100.965-1.14 8.996s-1.12-15.162-1.12-23.335v-84.092s0-2.534 1.986-2.534"/></svg>