<svg xmlns="http://www.w3.org/2000/svg" width="602" height="602" viewBox="0 0 602 602"><path fill="#FDE500" d="M584.379 335.244c-8.565-12.752-12.973-45.551-12.973-56.751 0-7.399-3.991-24.615-40.926-24.615-18.832 0-36.558 11.217-45.449 17.906-5.435 4.089-23.184 18.393-23.184 30.622 0 9.998 5.761 16.338 10.391 21.434 1.383 1.521 2.656 2.934 3.755 4.368-38.001 29.175-82.514 48.373-129.664 55.89 3.641-4.043 5.563-9.181 5.563-15.132 0-3.792-1.568-9.255-9.024-13.739-1.227-.764-4.676-2.535-11.847-4.05 4.875-1.368 10.095-2.695 15.256-4.003 24.55-6.234 55.109-13.992 79.807-31.209 29.471-20.544 44.414-50.796 44.414-89.918 0-36.578-10.603-65.292-19.119-88.368-5.341-14.459-9.95-26.946-9.95-36.602 0-17.965 18.943-39.131 25.475-44.403l7.594-6.138-7.342-6.439-44.554-39.123L418.077 1l-5.153 3.119-.5.302c-21.229 12.847-35.251 21.331-61.806 21.331-19.907 0-40.755-11.236-43.726-13.646l-5.178-4.205-5.18 4.205c-2.968 2.41-23.819 13.646-43.726 13.646-26.551 0-40.579-8.483-61.801-21.327l-.501-.306L185.349 1l-4.525 3.977-44.558 39.122-7.329 6.438 7.59 6.132c6.526 5.275 25.467 26.452 25.467 44.409 0 9.653-4.606 22.142-9.943 36.602-8.52 23.076-19.119 51.791-19.119 88.368 0 39.122 14.937 69.374 44.411 89.918 24.691 17.217 55.257 24.975 79.807 31.209 5.002 1.268 10.041 2.548 14.778 3.867-8.002 1.617-11.716 3.572-12.874 4.287-6.053 3.648-9.12 8.24-9.12 13.638 0 5.951 1.917 11.089 5.565 15.132-47.154-7.517-91.671-26.715-129.668-55.89 1.101-1.435 2.376-2.85 3.75-4.368 4.636-5.096 10.399-11.436 10.399-21.434 0-12.229-17.75-26.533-23.184-30.625-8.891-6.686-26.621-17.903-45.446-17.903-36.945 0-40.928 17.216-40.928 24.615 0 11.2-4.416 43.996-12.972 56.751-1.443 1.91-2.45 4.425-2.45 7.455 0 2.853.872 6.129 3.07 9.706l.081.131.082.134c.147.223 15.564 22.711 30.558 22.716 1.125 1.008 2.246 2.018 2.246 2.018 65.299 58.81 149.591 92.819 237.356 95.775l8.809.293s-.667-28.601-.871-37.28c1.688-.32 3.244-.492 4.581-.492 1.329 0 2.891.172 4.583.492-.199 8.68-.868 37.28-.868 37.28l8.81-.293c87.757-2.956 172.061-36.966 237.355-95.775 0 0 1.117-1.01 2.239-2.018 15.001-.005 30.406-22.493 30.562-22.716l.085-.134.083-.131c2.193-3.574 3.068-6.854 3.068-9.706-.001-3.031-1.013-5.544-2.45-7.456z"/><path fill="#25579C" d="M577.48 339.901c-10.049-14.953-14.402-49.715-14.402-61.408 0-11.678-14.668-16.292-32.598-16.292-27.435 0-60.309 29.884-60.309 40.206 0 11.96 12.49 16.574 16.539 28.005-41.698 33.643-92.707 56.213-148.538 63.265l-.331-13.059c3.327-2.414 5.729-5.993 5.729-11.651 0-2.439-1.746-4.664-5.022-6.63 0 0-8.077-5.389-37.444-5.389-29.165 0-37.705 5.479-37.705 5.479-3.302 1.98-5.149 4.093-5.149 6.539 0 5.658 2.409 9.237 5.735 11.651l-.333 13.059c-55.838-7.052-106.833-29.622-148.536-63.265 4.045-11.431 16.543-16.045 16.543-28.005 0-10.322-32.874-40.206-60.31-40.206-17.933 0-32.612 4.615-32.612 16.292 0 11.693-4.346 46.455-14.391 61.408-1.625 1.624-1.353 4.612.815 8.145 2.72 4.078 14.945 19.02 23.637 19.02 4.072 0 6.237-1.908 6.792-5.702.192-2.012 1.259-6.495 2.907-12.16a340.925 340.925 0 0 0 5.826 4.99l-7.717 17.022c61.895 55.741 142.942 90.638 232.077 93.64l-.827-35.043c2.453-.807 7.888-2.442 13.056-2.442 5.17 0 10.604 1.636 13.057 2.442l-.822 35.043c89.131-3.002 170.176-37.898 232.073-93.64l-9.158-20.198a562.168 562.168 0 0 0 6.167-5.471c2.268 7.357 3.765 13.381 4.014 15.816.541 3.794 2.71 5.702 6.788 5.702 8.695 0 20.92-14.941 23.636-19.02 2.171-3.53 2.443-6.519.813-8.143z"/><path fill="#FFF" d="M109.235 324.034c-4.481-3.842-9.393-8.079-13.652-12.189 1.838-2.108 2.926-2.372 4.014-2.372 2.446.264 14.672 4.07 17.118 3.531-2.719 2.171-7.081 9.562-7.48 11.03zm164.029 60.743c5.059 1.607 9.442 2.613 9.442 5.379 0 1.085-1.084 5.707-9.78 4.619l.338-9.998zm55.296 0c-5.056 1.607-9.438 2.613-9.438 5.379 0 1.085 1.084 5.707 9.776 4.619l-.338-9.998z"/><path fill="#FFF" d="M300.912 364.618c22.825 0 31.247 2.993 31.247 6.792 0 6.256-22.82 5.171-22.82 19.022 0 7.052 3.258 9.229 5.365 10.877l-.361 15.738c-6.356-1.353-9.076-2.173-13.43-2.173-4.35 0-7.068.82-13.424 2.173l-.367-15.738c2.112-1.647 5.369-3.825 5.369-10.877 0-13.852-22.829-12.767-22.829-19.022-.001-3.799 8.425-6.792 31.25-6.792zm191.674-40.584c4.479-3.842 9.4-8.079 13.647-12.189-1.834-2.106-2.918-2.372-4.01-2.372-2.438.266-14.67 4.073-17.109 3.531 2.718 2.171 7.073 9.562 7.472 11.03zM60.764 341.823c5.482-16.979 14.259-38.651 21.173-41.315-9.234-1.096-31.243-8.423-31.243-23.64 0-4.071 9.234-6.788 18.752-6.788 23.628 0 51.337 22.95 51.337 31.79 0 3.794-3.795 3.794-5.977 3.794-4.346 0-8.695-2.994-15.744-2.994-3.273 0-11.627.087-16.82 12.003L67.347 347.53c-2.388-2.03-4.59-3.94-6.583-5.707z"/><path fill="#FFF" d="M533.018 344.305l-13.433-29.632c-5.194-11.916-13.556-12.003-16.816-12.003-7.064 0-11.406 2.994-15.76 2.994-2.169 0-5.967 0-5.967-3.794 0-8.839 27.708-31.79 51.343-31.79 9.507 0 18.746 2.717 18.746 6.788 0 15.217-22.007 22.548-31.248 23.64 6.432 2.474 14.471 21.375 19.975 37.668a518.19 518.19 0 0 1-6.84 6.129z"/><path fill="#FFF" d="M530.592 304.644c22.006-6.927 25.674-17.926 25.951-20.907-.692 21.321 10.045 51.213 13.44 56.641 1.63 2.717 1.216 5.156.679 5.975-.956 1.356-12.224 13.718-15.896 14.95-4.893 1.083-4.615-1.907-4.893-3.271-4.344-23.634-17.109-49.853-19.281-53.388m-460.77 0c-2.176 3.536-14.937 29.755-19.29 53.387-.265 1.364 0 4.354-4.884 3.271-3.674-1.232-14.941-13.594-15.898-14.95-.538-.818-.95-3.258.685-5.975 3.392-5.428 14.129-35.32 13.444-56.641.273 2.979 3.938 13.981 25.943 20.908m19.143 10.884c49.747 48.879 116.362 80.644 190.316 85.784l1.623 57.656c-82.951-4.461-158.42-37.058-217.046-88.402l25.107-55.038m232.166 85.785c73.954-5.141 140.565-36.905 190.317-85.784l25.112 55.038c-58.63 51.345-134.104 83.941-217.055 88.402l1.626-57.656"/><path fill="#25579C" d="M61.946 307.238c-2.984-.823-13.044-7.069-14.129-8.704-.135 14.27-10.865 40.748-12.768 42.927-.807.813-.946 2.714 0 4.071.815 1.09 8.018 7.882 9.645 8.965 1.765 1.232 1.907-.678 1.907-.678 2.716-15.479 13.714-43.05 15.345-46.581m29.67 18.404L71.829 368.83c55.012 46.519 125.277 77.606 201.489 83.404l-1.097-46.122c-68.825-6.272-132.453-36.34-180.605-80.47m236.577 80.47l-1.093 46.122c76.207-5.798 146.468-36.886 201.489-83.404l-19.791-43.188c-48.156 44.13-111.779 74.198-180.605 80.47m210.276-98.874c1.626 3.53 12.629 31.106 15.352 46.585 0 0 .13 1.907 1.899.675 1.626-1.083 8.826-7.875 9.646-8.965.95-1.357.819-3.258 0-4.071-1.904-2.18-12.634-28.657-12.768-42.927-1.085 1.634-11.146 7.881-14.129 8.703M57.56 113.176H45.201l5.802 5.802v35.748l-5.802 5.803h24.716l-5.803-5.803v-35.748l5.803-5.802H57.56zm414.663 16.578v-16.399h41.786l-22.482 61.888v6.083h-11.901l25.126-58.713h-25.918zm-354.829-5.31c.564-.351 9.502-6.032 9.502-14.423 0-12.886-8.657-19.049-21.066-19.06h-.062c-12.409.011-21.066 6.174-21.066 19.06 0 8.391 8.938 14.072 9.502 14.423-.564.35-12.664 4.061-12.664 18.211 0 14.151 11.818 19.05 24.228 19.06h.062c12.409-.01 24.228-4.909 24.228-19.06s-12.1-17.862-12.664-18.211zm-11.609-30.931c5.485 0 9.934 6.672 9.934 14.901s-4.449 14.899-9.934 14.899c-5.487 0-9.935-6.67-9.935-14.899.001-8.228 4.448-14.901 9.935-14.901zm0 66.069c-6.689 0-12.115-7.668-12.115-17.128 0-9.458 5.426-17.126 12.115-17.126 6.699 0 12.129 7.668 12.129 17.126 0 9.46-5.43 17.128-12.129 17.128zm452.867-35.138c.565-.351 9.504-6.032 9.504-14.423 0-12.886-8.657-19.049-21.066-19.06h-.062c-12.41.011-21.065 6.174-21.065 19.06 0 8.391 8.938 14.072 9.502 14.423-.563.35-12.663 4.061-12.663 18.211 0 14.151 11.816 19.05 24.227 19.06h.062c12.409-.01 24.229-4.909 24.229-19.06-.002-14.151-12.102-17.862-12.668-18.211zm-11.608-30.931c5.485 0 9.936 6.672 9.936 14.901s-4.45 14.899-9.936 14.899-9.934-6.67-9.934-14.899c0-8.228 4.448-14.901 9.934-14.901zm0 66.069c-6.688 0-12.114-7.668-12.114-17.128 0-9.458 5.426-17.126 12.114-17.126 6.698 0 12.129 7.668 12.129 17.126 0 9.46-5.431 17.128-12.129 17.128zM55.749 546.024v-41.55L44.17 493.576h72.882v22.479l-12.941-13.624H75.503v36.783h21.115l8.174-9.537v26.59l-8.174-9.536H75.503v42.888h28.609l12.941-13.622v22.477H44.17l11.579-10.896v-41.554zm105.579-20.432h-40.869l10.898 10.217 25.203 62.667h12.261l24.521-64.027 10.898-8.859h-28.608l10.218 8.175-17.029 42.914-17.029-42.23zm162.943-4.416c-4.412 0-16.711 12.16-20.58 16.102v-15.941c-8.917 2.972-29.973 10.219-29.973 10.219l10.9 10.898v45.637l-9.538 10.217h38.144l-9.534-10.217v-39.183l12.94-14.63s1.672-2.098 3.311-2.098c1.638 0 3.043 2.107 3.043 2.107l14.748 15.099v-28.21h-13.461zm188.203 27.902v39.181l9.537 10.219h-38.145l9.536-10.219v-45.638l-10.898-10.898s21.056-7.246 29.97-10.216v15.939s12.991-17.648 31.582-17.648c10.726 0 17.159 8.578 17.159 15.729v52.91l10.727 10.01h-30.029v-58.055c0-7.866-2.862-9.872-9.296-9.872-6.435.001-20.143 18.558-20.143 18.558zm-120.001-18.557v-7.148h-21.449v-20.021l-25.741 26.454v6.437h6.434v48.621c0 9.295 11.44 17.16 21.452 17.16 10.008 0 18.589-12.871 18.589-12.871l-2.859-4.289c-10.013 11.439-17.874 11.439-17.874 5.721v-60.063l21.448-.001zm43.617-8.949c-21.451 0-38.84 18.01-38.84 40.226 0 22.217 17.389 40.226 38.84 40.226s38.84-18.009 38.84-40.226c0-22.216-17.389-40.226-38.84-40.226zm0 73.517c-9.957 0-18.031-14.904-18.031-33.291s8.074-33.293 18.031-33.293 18.031 14.906 18.031 33.293-8.074 33.291-18.031 33.291zm-193.705-1.237c-6.276 0-10.692-1.859-13.797-4.699-6.111-5.047-7.902-16.528-7.905-29.899l51.609-.181c-1.119-21.256-16.847-38.104-36.087-38.104-19.965 0-36.149 18.146-36.149 40.528 0 22.385 16.184 40.527 36.149 40.527 12.478 0 27.129-4.898 33.627-15.68l-4.288-3.391s-7.492 10.899-23.159 10.899zm-5.466-66.753c16.329.019 14.968 25.202 14.968 25.202h-29.936s-1.363-25.184 14.968-25.202z"/><path fill="#FFF" d="M120.278 360.142l3.29 2.187-16.441 24.711-3.521-2.335 4.843-22.204-.045-.026L96.68 380.1l-3.282-2.188 16.437-24.715 3.706 2.468-4.753 21.651.044.04 11.446-17.214zm-1.842 33.738l-3.629-2.163 15.23-25.483 3.628 2.17-15.229 25.476zm14.219 1.91l8.851 4.786-2.553 4.728-12.568-6.797 14.118-26.116 3.713 2.02-11.561 21.379zm31.173 11.3c-.627 1.516-1.365 4.631 2.022 6.098 1.848.8 4.163 1.041 5.414-1.842.917-2.128-.232-3.307-1.904-4.835l-1.688-1.545c-2.556-2.327-5.022-4.57-2.43-10.561 1.313-3.035 4.75-7.903 10.771-5.295 5.687 2.471 4.847 8.597 3.429 11.948l-3.729-1.619c.427-1.254 1.369-4.275-2.023-5.742-1.476-.645-3.571-.603-4.651 1.854-.917 2.131.077 3.099.734 3.696l3.819 3.603c2.136 2.006 3.808 4.53 1.688 9.422-3.547 8.198-9.552 6.452-11.178 5.744-6.776-2.937-5.455-9.166-4-12.546l3.726 1.62zm30.951-2.464l.044.019-1.619 11.895-4.855-1.753 6.43-10.161zm-9.231 14.604l7.025 2.526-.861 6.196 4.326 1.557 3.375-30.328-4.59-1.664-16.865 25.47 4.191 1.519 3.399-5.276zm24.023 14.391l-4.06-1.21 6.971-23.414-5.858-1.746 1.497-5.027 15.78 4.686-1.509 5.039-5.857-1.744-6.964 23.416zm17.114 4.53l-4.112-1.008 7.064-28.831 4.112 1.011-7.064 28.828zm13.645-6.319c-.281 1.639-.318 4.821 3.318 5.506 1.965.377 4.281.105 4.868-2.993.432-2.271-.942-3.161-2.915-4.286l-1.997-1.145c-3-1.696-5.907-3.352-4.691-9.759.618-3.253 2.889-8.761 9.347-7.538 6.091 1.16 6.62 7.311 5.973 10.89l-3.992-.75c.139-1.322.392-4.468-3.241-5.151-1.577-.308-3.624.194-4.117 2.828-.436 2.278.747 3.012 1.525 3.453l4.508 2.662c2.536 1.483 4.716 3.588 3.727 8.824-1.664 8.777-7.901 8.393-9.65 8.061-7.252-1.367-7.334-7.737-6.649-11.352l3.986.75zm107.63-19.003l3.914-.529 4.036 29.407-4.188.571-11.061-19.837-.052.004 2.878 20.965-3.91.537-4.04-29.397 4.407-.621 10.783 19.39.049-.01-2.816-20.48zm16.693 27.199l-4.153.783-5.476-29.173 4.157-.783 5.472 29.173zm5.597-10.469c.412 1.604 1.676 4.533 5.271 3.688 1.953-.457 3.955-1.655 3.238-4.707-.531-2.257-2.158-2.52-4.404-2.744l-2.291-.232c-3.436-.337-6.754-.658-8.251-7.02-.757-3.215-.908-9.171 5.479-10.671 6.041-1.418 9.02 3.991 9.878 7.526l-3.946.938c-.411-1.264-1.461-4.247-5.057-3.406-1.564.368-3.23 1.65-2.616 4.269.526 2.259 1.903 2.442 2.794 2.536l5.209.595c2.914.338 5.769 1.364 6.991 6.565 2.038 8.681-3.819 10.867-5.548 11.271-7.185 1.683-9.854-4.097-10.697-7.681l3.95-.927zm21.999 3.788l-4.061 1.16-8.092-28.568 4.072-1.157 8.081 28.565zm10.297-18.792c-2.841-7.808-.534-10.845 1.614-11.623 2.141-.797 5.869.057 8.716 7.858 2.841 7.812.533 10.845-1.614 11.64-2.139.777-5.87-.062-8.716-7.875zm-3.966 1.45c4.769 13.095 11.964 12.268 14.487 11.351 2.508-.918 8.545-4.914 3.784-18.016-4.771-13.083-11.974-12.263-14.489-11.349-2.524.921-8.553 4.924-3.782 18.014zm25.14-10.728l-3.51-7.98 3.073-1.352c2.401-1.058 3.885-.401 5.048 2.25.533 1.214 1.865 4.239-1.029 5.503l-3.582 1.579zm2.058 4.698l4.44-1.957c4.98-2.18 3.184-8.794 2.103-11.25-2.344-5.342-5.992-7.758-9.58-6.189l-8.467 3.727 11.943 27.171 3.87-1.699-4.309-9.803zm26.245-.53l-3.775 1.907-11.035-21.802-5.454 2.764-2.372-4.694 14.688-7.43 2.373 4.689-5.459 2.759 11.034 21.807zm11.66-6.257l-3.697 2.046-14.355-25.987 3.698-2.047 14.354 25.988zm20.81-12.407l-3.367 2.056-12.927-21.169-.045.038 9.707 23.128-3.539 2.166-16.078-19.245-.054.023 12.932 21.169-3.372 2.069-15.471-25.341 5.271-3.223 15.323 18.062.046-.033-9.11-21.844 5.212-3.194 15.472 25.338zm11.753-20.64c4.444 6.422 3.71 11.006-.489 13.902-1.529 1.064-4.175 2.091-7.329.708-1.941-.874-3.653-2.604-5.391-5.016l-11.201-16.181 3.543-2.457 10.965 15.832c2.353 3.408 4.734 3.98 6.354 2.846 2.388-1.65 2.187-4.021.141-6.978l-11.13-16.083 3.546-2.453 10.991 15.88zm25.483-6.402l-3.117 2.412-15.179-19.62-.044.028 12.188 21.933-3.274 2.539-18.102-17.36-.044.042 15.183 19.615-3.131 2.411-18.159-23.478 4.886-3.773 17.217 16.257.049-.021-11.468-20.721 4.843-3.745 18.152 23.481z"/><radialGradient id="a" cx="-3187.04" cy="-3529.044" r="141.817" gradientTransform="translate(4045.635 4329.148) scale(1.1746)" gradientUnits="userSpaceOnUse"><stop offset=".55" stop-color="#1dade4"/><stop offset="1" stop-color="#25579c"/></radialGradient><path fill="url(#a)" d="M141.697 50.275l44.545-39.12c22.013 13.313 37.492 22.817 66.566 22.817 21.729 0 44.554-11.951 48.903-15.483 4.354 3.532 27.18 15.483 48.907 15.483 29.065 0 44.554-9.504 66.559-22.817l44.56 39.12c-7.067 5.708-28.53 29.07-28.53 50.802 0 27.443 29.07 65.929 29.07 124.97 0 117.63-139.362 104.32-160.565 129.855-21.19-25.535-160.56-12.226-160.56-129.855 0-59.041 29.066-97.528 29.066-124.97-.001-21.732-21.461-45.093-28.521-50.802z"/><path fill="#FFF" d="M255.796 84.522c0 3.26 1.09 4.891 3.258 4.891 6.522 0 5.699-10.867 5.162-15.487-.817 4.888-8.42 6.523-8.42 10.596zM205.81 55.454c7.33 0 5.975-11.954 11.406-12.768-4.076.271-15.213 2.716-15.213 8.965-.001 2.17 1.903 3.803 3.807 3.803zm-11.139 10.053c1.624 0 4.073-2.446 4.073-4.618 0-2.177-2.45-7.339.277-10.053-2.182.815-7.615 3.26-7.615 11.408.001 1.627 1.366 3.263 3.265 3.263z"/><path fill="#FFF" d="M203.906 64.959c2.987 0 9.776-5.973 9.233-10.863-1.896 4.347-13.033 1.629-13.033 7.876 0 1.36 1.354 2.987 3.8 2.987zm-14.669 12.227c1.9 0 3.253-1.903 3.253-5.432 0-2.715-4.884-8.423-5.421-11.14-1.365 2.718-4.35 16.572 2.168 16.572zm4.889-4.62c0 .819 1.088 2.446 3.265 2.446 1.631 0 9.78-3.801 10.587-9.778-2.984 3.531-13.852.273-13.852 7.332zm-7.331 16.847c2.165 0 3.254-1.631 3.254-4.891 0-4.073-7.612-5.708-8.414-10.597-.554 4.621-1.366 15.488 5.16 15.488zm2.984 13.858c1.901 0 3.804-1.088 3.804-3.804 0-6.249-9.784-3.803-11.948-9.782-.281 3.257 2.442 13.586 8.144 13.586zm12.953-27.812c.219-.058.433-.116.627-.176a1.674 1.674 0 0 0-.627.176zm0 0c-3.752.992-10.775 1.831-10.775 8.248 0 2.172 1.904 2.989 3.795 2.989 3.821 0 4.061-9.78 6.98-11.237zm-5.614 22.919c4.884 0 2.988-10.322 4.614-12.5-2.446 1.629-8.148 3.806-8.148 8.967-.001 1.088.542 3.533 3.534 3.533zm2.168 13.856c0-6.795-12.491-4.08-14.125-8.426.812 4.346 6.519 11.412 9.51 11.412 1.354.001 4.615.272 4.615-2.986zm4.897-2.175c1.626 0 2.71-1.904 2.71-3.804 0-2.171-6.245-6.788-4.353-10.591-2.165 2.983-6.245 14.395 1.643 14.395zm4.607 6.519c-3.796 0-8.142 4.62-13.303 2.174 3.258 2.719 8.96 5.702 12.769 5.702 2.173 0 5.16-1.354 5.16-4.344 0-1.903-1.903-3.532-4.626-3.532zm31.247-61.124c1.902 0 3.811-1.632 3.811-3.803 0-6.249-11.137-8.694-15.215-8.965 5.428.814 4.078 12.768 11.404 12.768zm7.064 5.435c0 2.172 2.443 4.618 4.073 4.618 1.903 0 3.269-1.636 3.269-3.263 0-8.148-5.434-10.593-7.615-11.408 2.715 2.714.273 7.875.273 10.053z"/><path fill="#FFF" d="M232.711 54.096c-.554 4.89 6.249 10.863 9.229 10.863 2.442 0 3.808-1.627 3.808-2.987 0-6.247-11.142-3.53-13.037-7.876zm23.9 23.09c6.526 0 3.536-13.854 2.168-16.571-.541 2.717-5.425 8.424-5.425 11.14.001 3.528 1.35 5.431 3.257 5.431zm-4.892-4.62c0-7.059-10.868-3.801-13.856-7.333.82 5.978 8.965 9.778 10.595 9.778 2.177.001 3.261-1.626 3.261-2.445zm.543 26.9c0 2.716 1.908 3.804 3.807 3.804 5.703 0 8.422-10.329 8.146-13.586-2.173 5.979-11.953 3.533-11.953 9.782zm-9.157-24.007a1.66 1.66 0 0 0-.627-.176c.195.06.408.118.627.176zm10.788 8.248c0-6.417-7.029-7.256-10.787-8.248 2.923 1.457 3.165 11.237 6.988 11.237 1.899 0 3.799-.817 3.799-2.989zm-5.165 14.671c2.992 0 3.535-2.446 3.535-3.532 0-5.162-5.699-7.338-8.153-8.967 1.638 2.178-.262 12.499 4.618 12.499zm-2.165 13.856c0 3.258 3.257 2.986 4.611 2.986 2.997 0 8.692-7.066 9.51-11.412-1.63 4.346-14.121 1.631-14.121 8.426zm-4.892-2.175c7.872 0 3.803-11.411 1.63-14.396 1.903 3.803-4.342 8.42-4.342 10.591 0 1.9 1.078 3.805 2.712 3.805zm-4.619 6.519c-2.715 0-4.623 1.629-4.623 3.532 0 2.989 2.996 4.344 5.165 4.344 3.799 0 9.506-2.983 12.768-5.702-5.157 2.446-9.51-2.174-13.31-2.174z"/><path fill="#FFF" d="M227.818 114.95c0-.319-.012-.621-.03-.915.676.989 1.904 2.004 3.015 2.004 5.977 0 6.792-9.24 6.792-12.5-.504 3.534-8.974 4.026-10.174 8.217-.874-3.14-3.013-4.14-4.497-4.14-1.486 0-3.624 1.004-4.491 4.157-1.182-4.207-9.68-4.695-10.176-8.234 0 3.26.815 12.5 6.787 12.5 1.121 0 2.355-1.027 3.028-2.021-.019.299-.031.607-.031.933 0 1.897.261 13.31-3.536 14.668 4.611 1.087 5.427-2.446 8.419-2.446 2.988 0 3.808 3.533 8.426 2.446-3.813-1.359-3.532-12.772-3.532-14.669zm116.555-25.537c2.168 0 3.257-1.631 3.257-4.891 0-4.073-7.606-5.708-8.419-10.597-.541 4.621-1.36 15.488 5.162 15.488zm53.248-33.959c1.896 0 3.804-1.632 3.804-3.803 0-6.249-11.138-8.694-15.214-8.965 5.43.814 4.076 12.768 11.41 12.768zm7.057 5.435c0 2.172 2.445 4.618 4.076 4.618 1.9 0 3.261-1.636 3.261-3.263 0-8.148-5.428-10.593-7.605-11.408 2.713 2.715.268 7.875.268 10.053z"/><path fill="#FFF" d="M390.287 54.096c-.55 4.89 6.246 10.863 9.229 10.863 2.446 0 3.806-1.627 3.806-2.987 0-6.247-11.138-3.529-13.035-7.876zm23.901 23.09c6.52 0 3.535-13.854 2.178-16.571-.55 2.717-5.434 8.424-5.434 11.14 0 3.528 1.352 5.431 3.256 5.431zm-4.887-4.62c0-7.059-10.873-3.801-13.853-7.333.815 5.978 8.961 9.779 10.591 9.779 2.173 0 3.262-1.627 3.262-2.446zm4.072 11.956c0 3.26 1.089 4.891 3.265 4.891 6.52 0 5.707-10.867 5.161-15.487-.816 4.888-8.426 6.524-8.426 10.596zm-3.525 14.944c0 2.716 1.9 3.804 3.799 3.804 5.703 0 8.422-10.329 8.152-13.586-2.176 5.979-11.951 3.533-11.951 9.782zm-9.159-24.007a1.64 1.64 0 0 0-.625-.176c.195.06.407.118.625.176zm10.79 8.248c0-6.417-7.035-7.256-10.789-8.248 2.92 1.456 3.16 11.237 6.984 11.237 1.896 0 3.805-.817 3.805-2.989zm-5.163 14.671c2.984 0 3.531-2.446 3.531-3.532 0-5.162-5.708-7.338-8.153-8.967 1.628 2.178-.269 12.499 4.622 12.499zm-2.176 13.856c0 3.258 3.262 2.986 4.614 2.986 2.994 0 8.699-7.066 9.512-11.412-1.628 4.347-14.126 1.631-14.126 8.426zm-4.893-2.175c7.876 0 3.804-11.411 1.635-14.396 1.899 3.803-4.349 8.421-4.349 10.591 0 1.901 1.088 3.805 2.714 3.805zm-4.613 6.519c-2.72 0-4.623 1.629-4.623 3.533 0 2.989 2.988 4.343 5.161 4.343 3.811 0 9.506-2.983 12.771-5.702-5.162 2.446-9.515-2.174-13.309-2.174zm-31.248-61.124c7.335 0 5.977-11.954 11.415-12.768-4.08.271-15.215 2.716-15.215 8.965 0 2.17 1.904 3.803 3.8 3.803zm-11.138 10.053c1.631 0 4.077-2.446 4.077-4.618 0-2.177-2.446-7.338.272-10.053-2.172.815-7.603 3.26-7.603 11.408.001 1.627 1.355 3.263 3.254 3.263z"/><path fill="#FFF" d="M361.49 64.959c2.988 0 9.781-5.973 9.23-10.863-1.901 4.348-13.037 1.629-13.037 7.876.001 1.36 1.357 2.987 3.807 2.987zm-14.676 12.227c1.908 0 3.261-1.903 3.261-5.432 0-2.715-4.888-8.423-5.434-11.14-1.362 2.718-4.346 16.572 2.173 16.572zm4.893-4.62c0 .819 1.085 2.446 3.261 2.446 1.63 0 9.78-3.801 10.595-9.779-2.989 3.532-13.856.274-13.856 7.333zm-4.351 30.705c1.901 0 3.804-1.088 3.804-3.804 0-6.249-9.775-3.803-11.949-9.782-.276 3.257 2.442 13.586 8.145 13.586zm12.96-27.812c-3.754.992-10.782 1.831-10.782 8.248 0 2.172 1.899 2.989 3.798 2.989 3.825 0 4.065-9.78 6.984-11.237zm0 0c.219-.058.433-.116.627-.176a1.69 1.69 0 0 0-.627.176zm-5.621 22.919c4.891 0 2.988-10.322 4.623-12.5-2.451 1.629-8.158 3.806-8.158 8.967 0 1.088.547 3.533 3.535 3.533zm2.172 13.856c0-6.795-12.494-4.08-14.121-8.426.811 4.346 6.512 11.412 9.502 11.412 1.354.001 4.619.272 4.619-2.986zm4.887-2.175c1.632 0 2.725-1.904 2.725-3.804 0-2.17-6.259-6.788-4.35-10.591-2.169 2.984-6.25 14.395 1.625 14.395zm4.625 6.519c-3.805 0-8.159 4.62-13.312 2.174 3.258 2.719 8.961 5.702 12.764 5.702 2.173 0 5.162-1.354 5.162-4.343 0-1.904-1.904-3.533-4.614-3.533z"/><path fill="#FFF" d="M385.395 114.95c0-.32-.013-.623-.03-.917.675.99 1.903 2.006 3.015 2.006 5.977 0 6.793-9.24 6.793-12.5-.501 3.535-8.979 4.026-10.175 8.22-.873-3.142-3.013-4.143-4.494-4.143-1.484 0-3.623 1.001-4.495 4.144-1.195-4.194-9.668-4.686-10.177-8.221 0 3.26.817 12.5 6.792 12.5 1.112 0 2.343-1.018 3.018-2.009-.018.295-.03.6-.03.92 0 1.897.274 13.31-3.533 14.668 4.628 1.087 5.435-2.446 8.426-2.446 2.993 0 3.8 3.533 8.423 2.446-3.801-1.358-3.533-12.771-3.533-14.668zm-29.07 52.708c4.219-.604 6.399-2.434 6.399-7.067 0-3.202-2.596-6.799-9.318-9.913l-44.758-87.462 4.013-7.895c2.959-5.801-3.967-9.266-6.972-3.402l-1.386 2.856-1.403-2.856c-3.004-5.864-9.93-2.399-6.966 3.402l4.006 7.84-44.748 87.517c-6.727 3.114-9.332 6.711-9.332 9.913 0 4.634 2.193 6.464 6.413 7.067v25.028c-3.465 2.222-11.574 9.565-11.574 26.856 0 13.288 1.578 24.396 11.574 30.114v57.537l7.79-2.444v-51.124l82.971 42.258c6.348 3.533 5.556 11.136 5.556 14.393 8.722-2.443 14.012-15.213 14.012-27.166 0-11.03-2.873-19.241-6.277-24.919v-90.533zM254.716 243.43l-.065-.034c-4.142-2.145-5.85-7.815-6.563-13.137.855 1.465 3.794 3.521 6.628 5.279v7.892zm0-15.609c-3.139-2.007-6.312-4.204-7.134-5.403 0-.45-.004-.873-.004-1.244 0-1.948.212-4.262.579-6.637.412 1.302 3.376 3.538 6.56 5.647l-.001 7.637zm0-15.165c-2.952-2.018-5.341-4.053-5.031-5.325.786-2.841 1.718-5.252 2.645-6.528 0 1.243.966 2.545 2.386 3.832v8.021zm49.597-140.975l5.601 10.954a247.6 247.6 0 0 0-6.767.017c-1.908-.034-2.181 3.354.273 3.699 2.752-.012 5.585.028 8.442.091l1.831 3.584a363.103 363.103 0 0 0-3.76-.066c-3.794.131-4.067 3.389.274 3.771 1.814.032 3.635.086 5.459.149l2.266 4.444c-3.886-.165-8.042-.25-12.475-.216-3.264.132-3.811 3.521.127 3.729 4.695.01 9.547.131 14.34.386l2.289 4.472a237.7 237.7 0 0 0-11.729-.432c-2.177-.009-2.987 3.627.408 3.778 4.443.086 8.947.281 13.342.604l3.176 6.216a222.017 222.017 0 0 0-14.341-.77c-2.585-.053-4.488 3.493-.142 3.762 5.547.149 11.222.487 16.541 1.04l3.649 7.137c-6.409-.745-14.187-1.309-23.185-1.395-3.395-.005-7.74 3.906-1.895 3.906 9.188.093 18.85.542 27.252 1.728l3.636 7.122c-5.287-.789-11.851-1.506-19.604-1.886-3.538-.006-9.372 2.878.27 3.812 7.721.404 15.254 1.185 21.609 2.525l1.691 3.307c-9.029-2.193-21.646-3.676-38.63-3.676-17.003 0-29.527 1.482-38.56 3.675l38.612-75.467zm-36.385 178.538l-7.655-3.94v-7.475c.032.021.085.056.126.074l7.529 3.914v7.427zm0-14.86l-6.559-3.441c-.252-.159-.636-.389-1.096-.67v-7.563c.852.52 1.577.961 2.074 1.269l5.581 2.956v7.449zm0-14.913l-4.594-2.46c-.783-.481-1.863-1.116-3.062-1.834v-7.572c1.418.874 2.833 1.698 4.031 2.444l3.624 1.96.001 7.462zm15.61 37.796l-9.257-4.759v-7.393l9.257 4.807v7.345zm0-14.703l-9.257-4.855v-7.418l9.257 4.9v7.373zm0-14.749l-9.257-4.95v-7.421l9.257 5.012v7.359zm15.861 37.609l-9.523-4.894v-7.318l9.523 4.943v7.269zm0-14.551l-9.523-4.987v-7.336l9.523 5.04v7.283zm0-14.584l-9.523-5.085v-7.32l9.523 5.155v7.25zm15.345 37.025l-8.99-4.622v-7.237l8.99 4.667v7.192zm0-14.396l-8.99-4.714v-7.251l8.99 4.758v7.207zm0-14.427l-8.99-4.807v-7.209l8.99 4.869v7.147zm15.07 36.572l-8.728-4.485v-7.163l8.728 4.529v7.119zm0-14.243l-8.728-4.574v-7.175l8.728 4.617v7.132zm0-14.274l-8.728-4.662v-7.105l8.728 4.72v7.047zm13.483 35.45l-7.138-3.669v-7.084l7.138 3.706v7.047zm0-14.11l-7.138-3.743v-7.096l7.138 3.778v7.061zm0-14.13l-7.138-3.818v-7.003l7.138 3.865v6.956zm5.234-88.617c-7.836-1.908-23.604-4.72-45.658-4.686-4.628.23-6.527 3.367.545 3.695 15.862.223 34.174 1.566 45.112 5.713v4.678a279.465 279.465 0 0 0-19.353-3.381c-6.783-.861-7.709 1.714-.985 2.829 2.409.301 10.366 1.777 20.338 4.162v6.279c-6.192-1.51-17.317-3.583-32.642-4.371v-13.671h-22.796v13.551c-5.973.23-12.316.677-19.026 1.393-6.788.815-7.065 3.53-.278 2.987 2.308-.277 9.727-.742 19.304-.874v4.674h22.796v-4.267c12.287.668 24.491 2.205 32.642 5.295v5.988a277.383 277.383 0 0 0-19.078-3.33c-6.789-.856-7.715 1.714-.992 2.835 2.395.295 10.225 1.745 20.07 4.091v5.799c-9.688-2.358-31.496-6.095-62.27-4.138-8.386.226-9.072 3.519.708 3.25 17.375-.509 46.542-.07 61.561 5.603v6.971c-6.082-1.479-16.932-3.506-31.81-4.321-3.52.404-9.516 3.178.541 3.826 11.802.711 23.429 2.24 31.269 5.21v6.425c-2.531-.617-5.879-1.329-10.021-2.007-3.578-.276-6.322 2.044.752 4.14 3.439.708 6.578 1.558 9.27 2.577v10.436a9.926 9.926 0 0 0-1-.595l-82.241-44.819c-1.614-.994-3.453-2.067-5.226-3.191v-33.622c6.124-1.429 17.228-5.027 44.198-5.027 26.967 0 38.142 3.598 44.269 5.027l.001 4.866zm-36.761 12.788a4.77 4.77 0 1 1-9.538-.002 4.77 4.77 0 0 1 9.538.002zm-7.507-29.202c-25.633 0-42.124 5.467-44.851 5.467-2.743 0-3.807-.712-3.807-2.48 0-2.038 2.784-2.987 4.859-3.837 9.119-2.995 23.375-5.106 43.798-5.128 20.587 0 34.7 2.122 43.873 5.128 2.073.851 4.855 1.8 4.855 3.838 0 1.768-1.064 2.479-3.804 2.479-2.735 0-19.305-5.467-44.923-5.467zM353.289 267c-.947-.854-2.776-2.146-4.436-3.202v-5.379c1.854 2.422 3.33 5.4 4.436 8.581zm.26 31.326c0-2.085-2.23-4.205-4.695-5.959v-7.136c3.013 1.897 5.638 3.845 6.343 6.028.009 0 .009-.007.009-.014a46.344 46.344 0 0 1-1.657 7.081zm2.245-13.271a6.948 6.948 0 0 0-.069-.587c-.37-2.127-3.561-4.39-6.871-6.415v-7.194c3.077 1.739 5.38 3.07 6.424 4.193.387 2.433.587 4.812.587 6.973a63.944 63.944 0 0 1-.071 3.03z"/><path fill="#FFF" d="M278.932 278.1c-2.422.143-4.196.279-5.142.394-6.787.545-6.51-2.179.278-2.989a227.57 227.57 0 0 1 4.875-.474c1.24-.071 3.775 2.676-.011 3.069zm15.506-4.034c-1.696.056-3.412.132-5.165.223-2.442.265-5.287 3.99-.538 3.418 1.805-.046 3.709-.084 5.711-.109 1.901-.326 3.781-3.746-.008-3.532zm19.83 10.688a255.174 255.174 0 0 0-20.359-.074c-2.455.193-4.228 3.302.808 3.516 6.009-.056 12.764.023 19.551.343 2.461.001 5.013-3.503 0-3.785zm-34.212 16.104c-3.008.155-5.185.32-6.266.452-6.787.542-6.51-2.172.278-2.984 2.026-.221 4.015-.408 5.977-.576 1.902.03 4.496 2.927.011 3.108zm17.643-4.059c-1.769.034-3.583.093-5.429.167-1.77.131-3.942 3.442 0 3.486 1.826-.029 3.739-.044 5.707-.051 1.908-.041 3.66-3.637-.278-3.602zm23.657.602a225.835 225.835 0 0 0-8.699-.486c-2.725.05-5.022 3.141-.27 3.765 2.979.132 5.985.299 8.947.53 2.46.101 4.783-3.504.022-3.809zm21.411 2.775a174.38 174.38 0 0 0-8.903-1.458c-2.328-.263-4.562 2.99-.049 3.877 2.878.441 5.613.952 8.146 1.567 1.935.546 5.518-2.133.806-3.986zM301.78 137.288a341.27 341.27 0 0 0-4.223.129c-1.752-.054-2.707 3.02 1.228 3.588.991-.021 1.989-.032 2.996-.037 1.907.06 3.265-3.348-.001-3.68zm-19.718-9.413c-.725.067-1.443.145-2.165.216-1.761.447-2.506 3.048.216 3.048.522-.033 1.411-.043 1.974-.08 1.352-.08 2.519-3.292-.025-3.184zm13.873-.983c-1.423.063-2.875.142-4.343.231-2.31.325-2.177 3.334.4 3.457 1.281-.038 2.597-.082 3.943-.114 1.496-.169 2.845-3.856 0-3.574zm2.045-10.681a301.26 301.26 0 0 0-5.857.283c-1.342-.053-3.111 3.197.415 3.474 1.656-.055 3.392-.102 5.17-.137 1.899.011 2.715-3.444.272-3.62zm5.304-9.921c-1.907.028-3.864.087-5.853.165-1.489.071-2.304 3.146 1.354 3.58 1.476-.022 2.971-.039 4.5-.047.945-.069 2.854-3.534-.001-3.698zm-4.5-8.033c-1.02.03-2.063.071-3.124.122-1.214.133-3.668 3.176.551 3.557.848-.018 1.7-.039 2.573-.053 1.639.024 2.581-3.619 0-3.626zm.685-4.533c.856-.018 1.721-.024 2.585-.03 2.316-.064 1.365-3.465-.82-3.666-.498.017-.991.027-1.496.042-1.353.158-3.119 3.209-.269 3.654zm-24.301 78.14c-.566.05-1.026.098-1.378.138-6.787.54-6.51-2.175.278-2.989 3.534 0 5.458 2.717 1.1 2.851z"/></svg>