<svg xmlns="http://www.w3.org/2000/svg" width="998" height="998" viewBox="0 0 998 998"><path fill="#144A95" stroke="#144A95" stroke-width=".094" d="M481.47 1.2c74-2.6 148.6 11.5 216.4 41.3 92.4 40.3 171.8 109.5 224.5 195.4 72.2 115.7 92.6 261.9 56.1 393.2-28.4 104.6-92.5 198.9-178.8 264.3-78 59.8-174.2 95.4-272.4 100.8-70.3 4.1-141.5-6.6-207.1-31.9-113-42.8-208.9-128.6-264.2-236C8.57 638-9.03 532.9 4.47 432c13.8-103.9 61.7-202.9 134.6-278.2 88.4-92.9 214.1-149.2 342.4-152.6m-11.7 41.5c-110 6.1-216.6 54.5-294.4 132.4-69.7 69.3-116.4 161.6-129.8 259.1-4.5 31.7-5.4 63.9-3.5 95.9 4.9 76.9 30 152.4 72.1 217.1 48.6 75.4 120 135.9 202.4 171.5 54.1 23.5 112.8 36 171.7 37.4 93.6 2.1 187.8-25.2 265.2-77.9 50.6-34 94.2-78.4 127.6-129.4 47.3-72 73.3-157.7 74.2-243.8.9-64.2-11.8-128.7-37.4-187.6-40.9-95.1-115.3-175.1-206.9-223.2-73.6-39-158.1-56.7-241.2-51.5z"/><path fill="#FFF" stroke="#FFF" stroke-width=".094" d="M469.77 42.7c83.1-5.2 167.6 12.5 241.2 51.5 91.6 48.1 166 128.1 206.9 223.2 25.6 58.9 38.3 123.4 37.4 187.6-.9 86.1-26.9 171.8-74.2 243.8-33.4 51-77 95.4-127.6 129.4-77.4 52.7-171.6 80-265.2 77.9-58.9-1.4-117.6-13.9-171.7-37.4-82.4-35.6-153.8-96.1-202.4-171.5-42.1-64.7-67.2-140.2-72.1-217.1-1.9-32-1-64.2 3.5-95.9 13.4-97.5 60.1-189.8 129.8-259.1 77.8-77.9 184.4-126.3 294.4-132.4m-30.2 13.9c3 9-2.3 18.1-2.2 27.2 8.5-8.2 20.8-10.4 32.2-10.4.7 24.9 2.2 49.8 3.3 74.6.3 4.7-1.9 9-4.7 12.6 10.5.4 20.8-1.1 31.3-1.1-5.3-4.6-7.1-11.8-7.4-18.5-1.1-22.9-2.1-45.7-3.4-68.5 11.6-1.2 23.8.3 33.5 7.2-1.4-8.9-6.9-17.5-5.3-26.7-25.8.9-51.5 2.5-77.3 3.6m99.3-2.7c3.4 4.5 4.2 10.5 3 15.9-4.4 24.7-8.9 49.4-13.9 74-.9 5.5-4 10.2-8 13.9 27 4.9 54 10.2 81.1 15.3-.7-10.7 8.2-19 11.5-28.7-9 6.3-20.5 8.6-31.2 6.3-11.1-2.1-22.4-4-33.5-6.3 1.8-8.6 3-17.4 5-26 10.8 1.9 21.6 4.5 32.4 5.8 8.1-2.5 10.7-11.9 15.7-17.9-3.5.8-7.1 1.5-10.7.7-11.3-2.2-22.7-4-34-6.3 1-8.2 2.8-16.3 4.5-24.3 19.4 5.1 43 3.5 57.4 19.8.9-9-2.7-18.6 1.1-27.2-26.8-5.2-53.6-10-80.4-15m-172.8 20.9c-17 11.8-16.1 41.3 1.8 51.7 12.8 7.2 27.6 1.6 41.3 2.7 9.4.4 13.4 13.5 7.2 19.9-13.4 11.9-33.5 9.7-49.4 4.9 3.9 9.1 8.2 18 12.3 27 5.4-3.4 12-2.9 18.1-4 13-1.9 26.8-5.9 35.5-16.4 10.4-12.2 8.2-31.1-.6-43.6-7.8-10.4-22-11.3-34-10.5-6.8 0-14.2 2.4-20.7-.8-5.5-3.8-5.3-13.3.9-16.5 11.9-6.3 26.6-6.3 39-1.2-.7-8.7-1.7-17.3-2-26-16.5 3.6-35.2 2-49.4 12.8m281.6 2.3c2.2 5.5 1.3 11.8-1.3 17-9.8 21.1-19.9 42.2-29.7 63.3-2.9 6.2-6.6 12.8-13.5 15.4 9.2 4.7 18.7 8.8 28 13.5-3.9-14.2 7-26.4 11.8-39 5.3 2.9 11.5 4.7 15.3 9.6 5.3 6.8 5.6 15.9 5.5 24.1 0 6.3-1.2 13.7-7 17.3 10.1 4.7 20.2 9.4 30.2 14.2-6.1-17.1 1.5-36.2-6.9-52.8 6.9.3 14.2.4 20-3.9 11.3-8.2 17.6-23.5 14.8-37.3-1.7-8.2-8.9-13.6-16-17-17-8.4-34.2-16.1-51.2-24.4M247.07 131c6.1 1.6 10.3 6.7 13.2 12 11.7 21 23.4 42 35 63 3 5.2 4.9 11.5 2.5 17.3 24.3-13.5 48.5-27 72.9-40.4-7.5-7.7-5.8-19.8-9.5-29.3-2.4 8.3-7.3 15.9-14.3 21-11.3 7.6-23.6 13.5-35.4 20.2-4.3-7.6-8.7-15.2-12.8-23 9.2-5.7 19.2-10.2 28.2-16.2 5.3-6.6 1.2-15.9.9-23.5-2.3 2.8-4.9 5.5-8.2 7.2-9.9 5.5-19.9 11.1-29.9 16.5-3.8-7.2-8.3-14.1-11.6-21.6 18.3-8.3 35.3-25 56.8-21.2-5.2-7.6-14-12.8-16.7-21.8-23.7 13.3-47.7 26.1-71.1 39.8m-31.9 25.9c-10.8 5.9-21.1 14.1-26.7 25.4-7.8 15.2-4.5 34 4.7 47.8 10.7 15.9 26.3 30.8 46 33.4 15.9 2.1 30.6-7.5 39.9-19.7 5.1-5.9 8.5-14 16-17.3-6.3-7-13-13.6-19.4-20.5-2.3 8.4-4.7 17.2-10.2 24.2-5.5 7.5-14.5 13.6-24.2 12.1-11.4-2-20.2-10.4-27.4-18.9-7-8.8-12-21.1-7.4-32.1 5.1-12.2 18.5-18.8 31.2-19.1-4.1-7.8-8.4-15.6-12.5-23.5-2.5 3.6-6.1 6.1-10 8.2m259.6 15c-65.4 4.4-129.2 29.4-180.4 70.3-76.8 60.4-124.7 156.8-123.8 254.8-.9 44.8 8.3 89.7 25.9 130.9 34.9 82.4 105.2 149.1 189.5 179.3 78.9 28.9 169 25.8 245.7-8.8 59.9-26.6 111.2-71.7 145.6-127.4 30.6-49.3 47.7-107 48.6-165 2.5-85.9-31.2-172-91-233.7-46.2-48.6-107.8-82.4-173.7-95.2-28.4-5.7-57.5-6.8-86.4-5.2m280.8 27.4c-12.1 11-22.8 25.7-22.7 42.7.4 15.1 10.4 27.8 22.1 36.3 5.4 4.4 12.7 7.5 15.3 14.5 6.5-6.7 14-12.5 20.1-19.7-13.4-2.9-27.7-9.2-34-22.1-5-10.2.1-21.9 7-29.9 9.2-10.9 22.8-20.9 37.9-18.3 14.6 3.1 23.2 18.4 23.1 32.5 8-4.2 15.9-8.5 23.8-12.7-6.5-4-8.6-11.7-13-17.5-7.8-12-20.3-21.7-34.9-23.2-16.6-1.8-32.8 6.3-44.7 17.4m-622 47.4c6.4-1.1 12.3 1.9 17.3 5.6 19.2 14.1 38.4 28.4 57.5 42.6 4.9 3.5 9.3 8.3 10.1 14.5 6.7-7.9 12.4-16.7 18.9-24.9-5.8.9-11.5-1-16.1-4.5-19.5-14.2-38.7-28.6-58.1-42.9-5.3-3.8-10.5-9-10.5-16-6.3 8.6-12.4 17.3-19.1 25.6m709.4 13c-17.7 11.7-35.4 23.3-53 35-5 3.2-11.1 6.1-17.1 4 5.7 8.9 11.7 17.7 17.5 26.5.9-6.9 6.4-11.6 11.9-15.2 19-12.7 38.1-25.2 57.2-37.8 5.5-3.7 12.1-7 18.9-5.4-5.7-8.7-11.5-17.3-17.2-26-1.9 9.4-10.9 14.1-18.2 18.9m-760.7 82.1c6.5-2.6 13.4-.1 19.3 2.9 21.2 10.6 42.5 20.8 63.7 31.3 5.2 2.6 9.7 6.8 11.8 12.2 11.8-24.9 24.8-49.4 36.2-74.5-2.8 0-5.5-1.2-7.5-3.2-5.6-5.3-11.2-10.6-16.9-15.8 3.8 9.9 3 21-1.3 30.6-5 10.7-10.5 21.1-15.5 31.8-8.3-2.8-15.8-7.6-23.8-11.2 4-9.6 9.3-18.6 13.4-28.1 2.1-9.3-7.7-15-12.4-21.7-.2 3.6-.6 7.3-2.3 10.6-5.1 10.4-10.1 20.8-15.3 31.1-7.3-3.7-14.6-7.2-21.9-10.8 5.1-10.4 10.1-20.9 15.4-31.2 4.1-8.1 10.8-14.9 19-19-8.5-3.4-18.7-2.4-26-8.3-11.9 24.5-24.2 48.8-35.9 73.3m776.7-59.5c10.1 5.7 17.1 15.2 21.3 25.9-22.6 10.6-45.3 21.2-67.9 31.9-4.3 2.2-9.3 1.7-13.7 0 4.7 9.5 8.9 19.3 13.6 28.7 2.5-7.3 9.3-11.7 16.1-14.7 20.2-9.2 40-19.3 60.4-28 5.2 10.2 8.8 21.8 5.9 33.3 7.8-4.7 13.6-13.1 22.6-15.2-10.8-23.4-21.9-46.6-32.8-70-7 6.1-17.2 4.9-25.5 8.1m44.8 91.2c-13.3 11.3-26.9 22.5-40.2 33.8-3.1 2.9-7.6 2.8-11.4 3.8-8.4 1.7-18.4 5.3-25.8-.9 2.3 10.4 4.6 20.8 6.7 31.2 4.1-6.2 11.2-9 18.2-10.3 6.7-1 13.7-4.5 20.3-1.4 23.8 8.1 48.4 13.6 71.6 23-1.1-10.3-4.3-20.2-6-30.4-3.2 3.7-8.2 5.1-12.9 3.8-13.1-3.4-26.2-7-39.3-10.8 9.8-8.8 20.4-16.7 30.4-25.2 3.7-3.4 9.2-5.1 13.9-2.8-1.9-11.1-4.7-21.9-7.1-32.9-4.1 8.1-11.6 13.4-18.4 19.1m-755.3 5.3c3.4 5.5 6.4 11.5 6.6 18.1.9 12.4-3.9 24.1-5.8 36.2-22.9-4.5-45.6-9.7-68.4-14.7-6.3-1.2-12.1-4.4-15.8-9.8-2.4 10.3-4.5 20.7-6.7 31.1 4.6-3.4 10.5-3.9 15.9-2.7 24.4 5.1 48.7 10.5 73 16 5.6 1.2 11.2 4 14.1 9.3 5.2-23.6 10.5-47.2 15.6-70.9-2.5.2-5.1.6-7.3-.8-7.1-3.9-14-8.1-21.2-11.8m-55.8 93.7c-8.5 3.1-11.6 14.9-5.5 21.6 6.1 8.2 21 5.5 23.7-4.4 3.9-10.5-8-21.9-18.2-17.2m802 0c-4.2 1.5-7.4 5.3-8.4 9.6-2.3 7.9 4.5 17.4 13 16.7 9.1 1.2 16.7-9.1 13.6-17.5-2.1-7.4-11.1-11.9-18.2-8.8m-753.4 52.8c-24 4.2-48 8.6-72.1 12.8-5.8 1-12.2.6-16.9-3.3 1.9 10.4 3.6 20.8 5.7 31.2 9.5-12.4 27.2-9.6 40.7-13.6 2.8 10.8 3.2 22.2 6.4 32.8 5.4 6 14.6 5.8 21.9 7.8-1.8-2.9-3.7-5.9-4.3-9.3-2.2-11.4-3.8-22.8-6-34.1 8.6-1.6 17.3-3.6 26-4.5 2.3 17.5 9.5 36.2.6 53 8.8-2.2 16.4-8.5 25.6-8.4-4.3-24.2-8.7-48.5-12.6-72.9-3.6 4.8-9.1 7.6-15 8.5m709.8-2.5c-9.6 4.1-13.2 15.1-15.5 24.6-3.2 16.7-5.5 33.6-8.6 50.4 6.1-5.2 14.5-3.7 21.7-2.6 22.3 3.7 44.5 7.6 66.8 11.5 5.9.9 11.8 3.2 15.3 8.3 2.8-15.7 5.3-31.6 8.1-47.3 1.7-10.6 2.5-22.4-3.3-32-6.6-10.3-19.9-13.5-31.4-12.9-8.7.5-15.4 7.4-18 15.3-4.2-14.4-22-19.8-35.1-15.3m-36.8 109.1c4.5-2 9.5-1.9 14 0 16.1 6.7 31.7 14.5 47.7 21.5 6.2 2.8 12.5 7.2 14.7 14 1.9 9.1-2.6 20-11.5 23.6-6.4 2.8-13.6.4-19.6-2.3-14.8-6.9-29.8-13.4-44.6-20.4-5.1-2.3-9.9-6-11.7-11.5-4.9 9.1-8.8 18.7-13.2 28.1 8-3.3 16.1.7 23.2 4.1 13.1 5.9 26.1 11.9 39.1 17.8 9.9 4.4 21.3 7.6 32.1 4.5 9.8-2.8 16.8-11.1 21.1-20 4.6-9.3 8-20.1 4.9-30.5-3.1-10.7-12.4-18.1-22-23-15.5-7.3-31.2-14.2-46.8-21.3-6-2.8-12.4-6.7-14.2-13.6-4.5 9.6-8.9 19.3-13.2 29m-672.6-21.3c-19.2 3.3-38.5 12.6-49.9 28.8-15.3 22.6-2.4 57.4 23.2 65.9 16.5 5.3 34.8 1.3 49.7-6.9 13.7-7 26.5-18.7 29.6-34.4 3.1-17.7-5-37.1-20-47.1-9.5-6.4-21.4-7.4-32.6-6.3m59 86c-17.4 2.8-32.8 13.5-44.2 26.6-8.1 9.6-13.7 22-12.5 34.8 2.2 21.2 20.6 40.3 42.3 41.1 16.2.6 31.5-7.2 43.3-17.8 11.4-10 21-23.7 21.7-39.3.3-25.6-24.5-49.8-50.6-45.4m546.9 33.2c6.9-1.7 13.3 2.4 18.5 6.4 18.6 14.7 37.4 29.3 56 44 4.5 3.5 7.8 8.4 9 14 14.7-18.8 29.6-37.5 44.2-56.5-2.2-.9-4.6-1.7-5.9-3.7-4.9-6.6-9.3-13.5-14-20.2 2.7 14.1-4.7 27.4-13.8 37.6-3.5 3.4-5.6 9.2-10 11.3-18-13.6-35.5-27.8-53.3-41.6-5.4-4-10.1-9.4-10.9-16.3-6.7 8.3-13 16.8-19.8 25m-22.7 19.8c-13.5 7.4-24.7 20.6-26 36.5-1.8 20 9.4 38.6 23.2 52.1 10.3 10.3 24.9 18 39.8 15.3 13.8-2.3 24.8-12 33.3-22.6 3.3-4 6.7-8.5 12-9.9-5.8-7.4-11.6-14.8-17.8-21.9-4 13.6-11.9 28.2-26.2 32.9-12.8 3.5-24.5-5.4-32.1-14.7-8.3-9.4-14.2-22.4-10.6-35 4.6-13.8 20.1-21.1 34-19.8-3.6-8.2-7.2-16.4-10.8-24.5-4.6 6.1-12.6 7.6-18.8 11.6m-475.8 20.5c11.7-.8 22.6 4.8 31.5 11.9-14.2 20.2-28.9 40-43.3 60-2.7 4.2-7.4 6.2-12 7.6 8.4 6.2 17 12.2 25.4 18.4-1.5-6.9 1.7-13.5 5.6-19 12.7-17.6 25.5-35.2 38.2-52.9.7-.7 1.3-2.4 2.6-1.9 9.8 5.7 17.7 14.7 20.9 25.7 4.4-7.9 5.6-17.9 12.5-24.1-20.7-15.2-41.4-30.2-62.2-45.1-4 8.5-13.2 12.6-19.2 19.4m91.2 32.5c2.5 5.9 1.1 12.3-1.3 18-9.2 22.3-18.1 44.6-27.3 66.8-2.1 5.4-5.9 10.3-11.4 12.6 21.4 7.4 41.5 19.5 64 23.2 18.5 2.9 32.7-16.2 31.8-33.2.3-7.3-5.1-13.2-10.8-17 15.1-1 24.7-17.7 22.4-31.6-2.5-10.4-12.8-16-21.7-20.2-15.2-6.3-30.4-12.6-45.7-18.6m236 28.2c7.9 3.2 10.6 11.8 13.1 19.1 7.3 21.3 15.1 42.4 22.3 63.7 1.9 5.3 2.1 11.2-.3 16.4 22.7-7.9 45.3-15.9 67.9-23.9-6.1-8.7-2.1-20.2-4-30.1-3 4.3-5.5 9-9.5 12.5-10.4 8.7-24.2 11.1-36.6 16-7.6-22.1-15.6-44-23.2-66.1-2.2-5.9-2.7-12.5.2-18.3-9.9 3.6-19.9 7.1-29.9 10.7m-135.2 2.5c0 2.7 0 5.6-1.4 8-12.5 24.6-24.7 49.3-37.2 73.9-3.2 6.4-6.8 12.6-11.4 18.1 9.9.8 19.8 2.3 29.8 3.4-3.4-7-1.1-14.9 2.3-21.4 15.1 1.7 30.3 3.3 45.3 5.5 1.5 7.1 3 15.4-2.2 21.5 9.7 1.1 19.4 2.5 29.1 3.4-2.6-6.3-5.1-12.6-6.5-19.3-5.7-27.1-10.8-54.3-16.7-81.4-.9-2.8-.1-5.6.8-8.2-10.6-.9-21.2-2.7-31.9-3.5m61.5 6.3c5 3.5 7.2 9.5 7.9 15.4 2.6 22.7 5.4 45.3 8.3 68 .6 7.1 1.5 15.1-3.5 20.9 24-2.3 47.9-5.7 71.8-8.5-.9-2.1-2.5-4.1-1.9-6.4 1.1-8.1 3.2-16 4.2-24.2-7.4 9.7-19 15.2-31 15.8-6.7.2-14.1 3-20.3 1.5-2.7-23-5.5-46-8.3-69-.8-6 .2-12.4 4.2-17-10.5.5-20.9 2.2-31.4 3.5z"/><path fill="#144A95" stroke="#144A95" stroke-width=".094" d="M439.57 56.6c25.8-1.1 51.5-2.7 77.3-3.6-1.6 9.2 3.9 17.8 5.3 26.7-9.7-6.9-21.9-8.4-33.5-7.2 1.3 22.8 2.3 45.6 3.4 68.5.3 6.7 2.1 13.9 7.4 18.5-10.5 0-20.8 1.5-31.3 1.1 2.8-3.6 5-7.9 4.7-12.6-1.1-24.8-2.6-49.7-3.3-74.6-11.4 0-23.7 2.2-32.2 10.4-.1-9.1 5.2-18.2 2.2-27.2zm99.3-2.7c26.8 5 53.6 9.8 80.4 15-3.8 8.6-.2 18.2-1.1 27.2-14.4-16.3-38-14.7-57.4-19.8-1.7 8-3.5 16.1-4.5 24.3 11.3 2.3 22.7 4.1 34 6.3 3.6.8 7.2.1 10.7-.7-5 6-7.6 15.4-15.7 17.9-10.8-1.3-21.6-3.9-32.4-5.8-2 8.6-3.2 17.4-5 26 11.1 2.3 22.4 4.2 33.5 6.3 10.7 2.3 22.2 0 31.2-6.3-3.3 9.7-12.2 18-11.5 28.7-27.1-5.1-54.1-10.4-81.1-15.3 4-3.7 7.1-8.4 8-13.9 5-24.6 9.5-49.3 13.9-74 1.2-5.4.4-11.4-3-15.9zm-172.8 20.9c14.2-10.8 32.9-9.2 49.4-12.8.3 8.7 1.3 17.3 2 26-12.4-5.1-27.1-5.1-39 1.2-6.2 3.2-6.4 12.7-.9 16.5 6.5 3.2 13.9.8 20.7.8 12-.8 26.2.1 34 10.5 8.8 12.5 11 31.4.6 43.6-8.7 10.5-22.5 14.5-35.5 16.4-6.1 1.1-12.7.6-18.1 4-4.1-9-8.4-17.9-12.3-27 15.9 4.8 36 7 49.4-4.9 6.2-6.4 2.2-19.5-7.2-19.9-13.7-1.1-28.5 4.5-41.3-2.7-17.9-10.4-18.8-39.9-1.8-51.7zm281.6 2.3c17 8.3 34.2 16 51.2 24.4 7.1 3.4 14.3 8.8 16 17 2.8 13.8-3.5 29.1-14.8 37.3-5.8 4.3-13.1 4.2-20 3.9 8.4 16.6.8 35.7 6.9 52.8-10-4.8-20.1-9.5-30.2-14.2 5.8-3.6 7-11 7-17.3.1-8.2-.2-17.3-5.5-24.1-3.8-4.9-10-6.7-15.3-9.6-4.8 12.6-15.7 24.8-11.8 39-9.3-4.7-18.8-8.8-28-13.5 6.9-2.6 10.6-9.2 13.5-15.4 9.8-21.1 19.9-42.2 29.7-63.3 2.6-5.2 3.5-11.5 1.3-17m15.2 27.9c-3.9 8.8-8.4 17.2-12.2 26 8.8 3.6 16.9 8.6 25.9 11.6 13.6 5.1 24.5-18.7 11.7-25.6-8.2-4.5-16.6-8.9-25.4-12zm-415.8 26c23.4-13.7 47.4-26.5 71.1-39.8 2.7 9 11.5 14.2 16.7 21.8-21.5-3.8-38.5 12.9-56.8 21.2 3.3 7.5 7.8 14.4 11.6 21.6 10-5.4 20-11 29.9-16.5 3.3-1.7 5.9-4.4 8.2-7.2.3 7.6 4.4 16.9-.9 23.5-9 6-19 10.5-28.2 16.2 4.1 7.8 8.5 15.4 12.8 23 11.8-6.7 24.1-12.6 35.4-20.2 7-5.1 11.9-12.7 14.3-21 3.7 9.5 2 21.6 9.5 29.3-24.4 13.4-48.6 26.9-72.9 40.4 2.4-5.8.5-12.1-2.5-17.3-11.6-21-23.3-42-35-63-2.9-5.3-7.1-10.4-13.2-12z"/><path fill="#FFF" stroke="#FFF" stroke-width=".094" d="M662.87 105c8.8 3.1 17.2 7.5 25.4 12 12.8 6.9 1.9 30.7-11.7 25.6-9-3-17.1-8-25.9-11.6 3.8-8.8 8.3-17.2 12.2-26z"/><path fill="#144A95" stroke="#144A95" stroke-width=".094" d="M215.17 156.9c3.9-2.1 7.5-4.6 10-8.2 4.1 7.9 8.4 15.7 12.5 23.5-12.7.3-26.1 6.9-31.2 19.1-4.6 11 .4 23.3 7.4 32.1 7.2 8.5 16 16.9 27.4 18.9 9.7 1.5 18.7-4.6 24.2-12.1 5.5-7 7.9-15.8 10.2-24.2 6.4 6.9 13.1 13.5 19.4 20.5-7.5 3.3-10.9 11.4-16 17.3-9.3 12.2-24 21.8-39.9 19.7-19.7-2.6-35.3-17.5-46-33.4-9.2-13.8-12.5-32.6-4.7-47.8 5.6-11.3 15.9-19.5 26.7-25.4zm259.6 15c28.9-1.6 58-.5 86.4 5.2 65.9 12.8 127.5 46.6 173.7 95.2 59.8 61.7 93.5 147.8 91 233.7-.9 58-18 115.7-48.6 165-34.4 55.7-85.7 100.8-145.6 127.4-76.7 34.6-166.8 37.7-245.7 8.8-84.3-30.2-154.6-96.9-189.5-179.3-17.6-41.2-26.8-86.1-25.9-130.9-.9-98 47-194.4 123.8-254.8 51.2-40.9 115-65.9 180.4-70.3m.8 4.2c-73.3 4.8-144.4 36-197.9 86.3-63.4 58.5-101.9 143.3-103 229.6-1.5 56 12.2 112.4 39.1 161.6 29.8 54.8 75.8 100.6 130.7 130.3 49.3 26.8 105.8 40.2 161.8 38.5 82.4-1.5 163.4-36.7 221.1-95.3 61.1-60.7 96.3-146.9 94.3-233.1-.6-80.5-33.6-160.1-89.3-218.1-65.1-69.3-162-107.1-256.8-99.8z"/><path fill="#FFF" stroke="#FFF" stroke-width=".094" d="M475.57 176.1c94.8-7.3 191.7 30.5 256.8 99.8 55.7 58 88.7 137.6 89.3 218.1 2 86.2-33.2 172.4-94.3 233.1-57.7 58.6-138.7 93.8-221.1 95.3-56 1.7-112.5-11.7-161.8-38.5-54.9-29.7-100.9-75.5-130.7-130.3-26.9-49.2-40.6-105.6-39.1-161.6 1.1-86.3 39.6-171.1 103-229.6 53.5-50.3 124.6-81.5 197.9-86.3m-155.4 81c24.6 10.1 45.9 26.5 69.4 38.7 3.6-14.8 11.2-28.8 22.9-38.6 18.3-15.7 44.1-18.2 62.8-33.3 7.6-6 12.6-14.9 14.5-24.4-60.8-.5-121.5 20.3-169.6 57.6m194.9-57.6c-2.4 8.5 4 15.7 9.3 21.4 3.4 4.6 9.3 5.6 14.3 7.7 20.7 8.1 42.6 16.2 58.5 32.5 7.9 8.2 13.1 18.7 15 29.9 19.8-12.2 38.8-25.5 58.4-38.1-45.1-32.6-100-51.1-155.5-53.4m-21.3 24c-20.8 20.8-51.9 25.1-74.1 43.9-8.3 6.8-14.4 16.2-17.6 26.5-1 3.5-3.3 7.2-1.5 10.8 2 3.9 6 6.5 9.9 8.2-.5-13.7 4.3-27.8 14.3-37.4 19.1-18 46.5-23.4 66-41.1 4.9-4.3 8.7-9.7 12-15.3 12.8 25.3 42.5 31.8 64.8 45.6 14.9 8.4 25 24.4 25.4 41.6 3.5-2.2 8-4.1 9.3-8.4-1.6-13.7-9.5-26.2-20.6-34.4-18.3-14-41.4-18.9-61.6-29.4-10.2-7-15.4-18.9-18.6-30.4-3.3 6.3-1.7 15-7.7 19.8m5.4 31.4c1.3.9 2.7 1.7 4.2 2.3.2-2.3.6-4.7-.3-6.9-2.9-1-3.7 2.5-3.9 4.6m13.3 6.2c-.8 2.4-.3 4.9.1 7.2 1.5-1.1 2.6-2.7 3.6-4.3-1.1-1.2-1.8-3.3-3.7-2.9m-22.8 1v5.9c1.1-.2 2.1-.3 3.2-.5 0-1.7-.1-3.4-.1-5.2-1.1 0-2.1-.1-3.1-.2m97.6 65.9c-3.1 3.2-7.8 4.3-12 5.4-4.2-4.3-10.5-4.1-16-5.2-47.5-8-96.6-5.4-143.3 6.4-27.4-31.6-64.6-52.4-102.8-68.1-12.4 13.5-14.5 33.8-13.5 51.5 1.7 15.8 4.3 32.1 12.9 45.7 7.7 16.1 7 34.4 9.1 51.7 1.5 13.2 5 26.9 14.4 36.8-7.1 7.5-14 15.1-21.3 22.2-5.1 1.6-14.7.5-14.9 7.6 3.5 10.2 14.4 16.2 16.7 27 .9 3-.6 5.8-1.9 8.4 7.9 7.2 16.5 13.6 24.2 21.1 2.5 3.6 7.2 8.3 3.4 12.7 1.2 1 2.5 2 3.8 3-.2 12.6 5.3 24.9 15 33 15.6 13.7 36.3 21 50.1 36.9 13.4 9.4 26.6 21.1 31.7 37.2 2.1 5.1-.8 10.5.6 15.7 1.1 7.4 6.3 13.5 12.6 17.2 12 7.5 26.1 11.1 37.4 19.7 17 5.6 30.3-9.7 45.4-14.3 14.9-5.2 20.2-22.3 21.1-36.5-.9-9.7 9-14.6 13.8-21.6 3.8-3.6 3.6-9.9 8.4-12.6 14.4-10.9 27.7-23.3 42.7-33.2 6.5-3.7 12.2-8.7 16.3-14.8 9.8-14.3 12-32.2 21.3-46.7 4.9-8.1 12.5-14.3 21.1-18.2-1-3.4-2.2-7.1-.9-10.7 3.2-10.4 13.9-16.5 16.6-27.1-8.7-5.5-17.4-11.2-24.5-18.7-3.4-3.5-9.1-5.8-9.2-11.4-.7-11.6 9.5-19.7 12.4-30.3 2.6-11.7.9-23.9 2.4-35.8.7-8.5 6.5-15.1 8.8-23.1 5.9-18.5 6.8-38.1 10.7-56.9-3.2-14.6-8.4-29.7-19.9-39.9-34.1 16.8-67.4 37.1-92.7 65.9m-371.1 65.8c10.8 1.2 21.6-3.1 29.4-10.5 15.5-14.7 24.3-36.1 43.2-47.3-1.4-19.6-3.1-40.8 7.2-58.4-35.6 31.2-64.2 71.2-79.8 116.2m277.6-81.6c4.4-.1 8.9.5 13.3-.5-2.1-10.6-5.5-21-4.5-31.9-2.9 10.8-6.1 21.6-8.8 32.4m217.6-25c1.7 15.3-.4 30.8-4.6 45.6 19.5 10.1 29.6 30.8 46.1 44.6 6.5 5.3 14.6 9.5 23.2 9.4-13-37.9-36.3-71.6-64.7-99.6m-7.5 59.7c-.7 2.5-1.2 5.1-1.4 7.7 21.3 17.3 40.6 39.4 67.9 47.4-20 27.5-9.7 64.7-25 94-7.3 13.8-22.4 20.9-37 24.3-6.7 1.4-16.7.8-19.3 8.8 12.6.5 25.7.5 37.8-3.6 12.5-5 24.1-14.1 28.8-27.1 9.8-26.3-.7-55.8 10.1-81.8 3-8.3 10.1-13.6 15.8-19.8-7.3 0-14.9-.1-21.7-3.4-22.8-9.9-36.1-32.5-56-46.5m-464 51.7c-8.2 5.1-18.2 6.6-27.7 5.4 8.1 4.7 15.5 11 19.6 19.6 13.2 25.9 4.4 57.2 17.9 83 13.2 24 44 34.3 69.8 27.8-6.3-6.5-16-2.7-23.6-5.9-15.9-3.7-29.3-15.2-36.5-29.7-10-20.1-12.7-42.6-17.6-64.2-2.2-10.4-11.3-17.2-14.7-27 30.3-6.8 50.8-32.2 70.3-54.5-1.5-1.8-2.9-3.6-4.4-5.4-21.1 13.2-31.7 38-53.1 50.9m473.2 4.7c.6 0 1.9-.1 2.5-.1 0-2.5 0-5.2-1.3-7.4-1.7 2.1-1.1 5-1.2 7.5m-426.4-3c0 1.2-.1 2.3-.2 3.5 1.5.9 3.2 1.6 4.9 1.7 2.1-3.6-.9-7.8-4.7-5.2m414.9 8.9c-2.3 1.4-1.4 4.9.7 6.2 4.4.3 3.3-8.7-.7-6.2m22.4-.5c-1 2.7-.1 5 2.4 6.3.9-2.1 1.1-4.2 1.1-6.3h-3.5m-425.4 6.7c2 .5 4 .6 5.5-1.2-.3-6.2-5.5-3-5.5 1.2m474 28.6c-.5 13.4 1.7 26.7.2 40-.7 10.4-5.6 19.9-10.8 28.7-11.3 16.8-31.2 25.7-50.7 28.6-11.7.5-23.2-4.6-34.9-2.3-7.1 1.7-9.5 9.9-8.9 16.4 18.6 7.5 35.9 19.3 47.7 35.7 9 12.4 12.5 28.5 9.7 43.6-2.6 15.4-10.9 28.9-18.6 42.3-9.2 15.9-18.9 33.9-15.5 52.9 3.6-3.2 7-6.5 10.6-9.8 44.3-39.2 75.4-92.7 89.2-150.1 12.6-52.8 11-109.2-5.8-160.9-9 9.1-12.4 22.3-12.2 34.9m-494.6-32.3c0 2.4 0 4.7.1 7.1 3.7-1.3 4-6.1-.1-7.1m-68.6 3.3c-3.1 9.9-6.7 19.7-7.9 30.1-9.7 58.9-3.8 121 21 175.6 18.8 42.4 48.2 79.7 83.5 109.6 2.9 2.4 5.5 5.2 9 6.8 1.1-4.5 3.9-8.9 2.5-13.7-7.5-31.2-32.3-55-39.1-86.4-3.3-15.1-1.1-31.6 7.1-44.8 11.1-18 29.4-30.7 49-38.1-1.1-2.9-2.4-5.8-3.6-8.7-16.7.8-34.2 5.7-50.3-.7-22-6.7-41.5-24.2-46.8-47.1-4.3-19.7.7-40.2-4.3-59.8-2.5-10.3-10.2-18.9-20.1-22.8m493 53.5c2.2-.4 4.5-1 6.8-1 2.3 1.8 2.6 5.2 3.7 7.9 2.8-3.7 4.6-9.1 10.2-9.1-3.1-13-8-25.8-7.6-39.3-4.7 13.8-8.9 27.6-13.1 41.5m-422 1c6.2-2.4 9.5 3.7 11.2 8.5 1.7-4.3 4.4-9.4 9.9-8.9-4.7-12.7-9.9-25.6-9.7-39.3-2.4 13.6-7.6 26.5-11.4 39.7m9.7 160.5c4.1 30.4 29.1 52.2 36.9 81.3 3 10.6 1.7 21.8-1.9 32 7.8-8.4 18.6-14.1 30.1-15 24.9-1.8 48.3 10.2 73.1 9.5 16.9.7 35-8.5 41.9-24.3-2.9-1.7-6-3.4-9.4-3.4-7.1 7.9-17.9 10.4-28 12-27 4-54.3 1.3-81.5 2.4-6.3.1-11.6 7.2-17.9 3.6 1-12.6-2-25.3-7.4-36.8-8.7-18.6-22.1-35.6-25-56.5-.6-9.1-1.3-18.8 2.9-27.2 7.1-15 21.7-24.7 36.1-31.9.2-3.7-.8-7.3-2.2-10.7-28 7.4-51.3 35.2-47.7 65m368.2-52c10.8 4.1 21.1 9.5 29.8 17.2 11.3 11 16.8 27.7 13.6 43.2-4.4 24.5-19.6 45-29.6 67.4-2.2 6.2-.3 12.9-2 19.2-25.1-5.3-49.2 5.8-73.8 8.3-16.9 1.9-34.8-4.3-45.8-17.5-2.8-2.8-5.9-6.4-10.2-6.4-2.8 1.5-6.5 4-6.2 7.5 7.9 12.4 21.5 21.3 36.2 22.5 20.9 1.8 40.8-5.5 61-9.3 15.6-3.3 32.4-3.4 46.8 4-4.7-15.2-1.7-31.7 6-45.4 8.2-15.9 19.9-30.1 25.4-47.3 4-12.2 4.7-26.1-.6-38-9.3-18.9-28.3-30.9-47.4-38.4-2.1 3.7-6.9 9-3.2 13m-34.6 46.6c.6 0 2 .1 2.7.2.1-2.3.1-4.7.1-7-3.8-.1-4.7 4.1-2.8 6.8m-239.7 1.5c0-2.3 0-4.5-.1-6.8-6.1-1.2-5.2 6.7.1 6.8m251.3 8.8c1.2-.2 2.4-.3 3.6-.5-.5-1.8.5-5.6-2.5-5.2-2.7.7-1.2 3.8-1.1 5.7m-242.5.8c1.1-.1 2.1-.2 3.2-.3 0-2.2-.4-4.4-1.5-6.3-2.5 1.3-1.5 4.3-1.7 6.6m-24-2.2v2c.7.6 1.3 1.3 1.9 2 .7.1 1.9.2 2.5.2.2-2 .3-4.1.4-6.2-1.9-.3-3.5.6-4.8 2m242.8-2.5v6.5h4.6c.1-2.2.1-4.4.1-6.5h-4.7m14.6 17.8c-3.7 13.6-7 27.3-10.8 40.8 6-2.6 9 2.5 10 7.5 1.9-2.5 3.6-5.1 5.2-7.8l4.2-.6c-2.7-13.3-7.1-26.3-8.6-39.9m-254.9 39.6c4.7 0 9 2.4 11 6.6 2-3.5 4.9-7.7 9.6-6.7-3.7-12.7-7-25.5-8.4-38.6-3.8 12.9-5.5 26.7-12.2 38.7m132.9 36.5c0 .7.1 1.4.2 2.2 5.4.1 8.9 5.9 8.1 10.9-1.2 12.3-2.4 25.1-7.9 36.4-3.6-10.6-8.4-21.1-8.7-32.4-.2-6.3 3.2-11.7 7-16.4-7.1.5-14.3-.3-20.9-3.2-9 14.8-25.5 24.1-42.7 25.2-21.9 2.4-43.7-3.4-65.1-7.4-13.8-3.6-30.6-.3-40 10.8 12.2 7.5 24.6 14.9 37.1 22 62.2 29.5 134.7 33.2 201.2 17.2 34.7-8.7 68.3-23 97.3-44.2-5.2-2.3-10.8-4.1-16.6-4.4-23.6-1.7-45.3 11.6-68.9 10.1-24.2.8-48.8-11-61.9-31.5-5.8 2.3-11.8 4.9-18.2 4.7z"/><path fill="#144A95" stroke="#144A95" stroke-width=".094" d="M755.57 199.3c11.9-11.1 28.1-19.2 44.7-17.4 14.6 1.5 27.1 11.2 34.9 23.2 4.4 5.8 6.5 13.5 13 17.5-7.9 4.2-15.8 8.5-23.8 12.7.1-14.1-8.5-29.4-23.1-32.5-15.1-2.6-28.7 7.4-37.9 18.3-6.9 8-12 19.7-7 29.9 6.3 12.9 20.6 19.2 34 22.1-6.1 7.2-13.6 13-20.1 19.7-2.6-7-9.9-10.1-15.3-14.5-11.7-8.5-21.7-21.2-22.1-36.3-.1-17 10.6-31.7 22.7-42.7zm-435.4 57.8c48.1-37.3 108.8-58.1 169.6-57.6-1.9 9.5-6.9 18.4-14.5 24.4-18.7 15.1-44.5 17.6-62.8 33.3-11.7 9.8-19.3 23.8-22.9 38.6-23.5-12.2-44.8-28.6-69.4-38.7zm194.9-57.6c55.5 2.3 110.4 20.8 155.5 53.4-19.6 12.6-38.6 25.9-58.4 38.1-1.9-11.2-7.1-21.7-15-29.9-15.9-16.3-37.8-24.4-58.5-32.5-5-2.1-10.9-3.1-14.3-7.7-5.3-5.7-11.7-12.9-9.3-21.4z"/><path fill="#144A95" stroke="#144A95" stroke-width=".094" d="M493.77 223.5c6-4.8 4.4-13.5 7.7-19.8 3.2 11.5 8.4 23.4 18.6 30.4 20.2 10.5 43.3 15.4 61.6 29.4 11.1 8.2 19 20.7 20.6 34.4-1.3 4.3-5.8 6.2-9.3 8.4-.4-17.2-10.5-33.2-25.4-41.6-22.3-13.8-52-20.3-64.8-45.6-3.3 5.6-7.1 11-12 15.3-19.5 17.7-46.9 23.1-66 41.1-10 9.6-14.8 23.7-14.3 37.4-3.9-1.7-7.9-4.3-9.9-8.2-1.8-3.6.5-7.3 1.5-10.8 3.2-10.3 9.3-19.7 17.6-26.5 22.2-18.8 53.3-23.1 74.1-43.9zm-360.2 23.2c6.7-8.3 12.8-17 19.1-25.6 0 7 5.2 12.2 10.5 16 19.4 14.3 38.6 28.7 58.1 42.9 4.6 3.5 10.3 5.4 16.1 4.5-6.5 8.2-12.2 17-18.9 24.9-.8-6.2-5.2-11-10.1-14.5-19.1-14.2-38.3-28.5-57.5-42.6-5-3.7-10.9-6.7-17.3-5.6zm709.4 13c7.3-4.8 16.3-9.5 18.2-18.9 5.7 8.7 11.5 17.3 17.2 26-6.8-1.6-13.4 1.7-18.9 5.4-19.1 12.6-38.2 25.1-57.2 37.8-5.5 3.6-11 8.3-11.9 15.2-5.8-8.8-11.8-17.6-17.5-26.5 6 2.1 12.1-.8 17.1-4 17.6-11.7 35.3-23.3 53-35z"/><path fill="#144A95" stroke="#144A95" stroke-width=".094" d="M499.17 254.9c.2-2.1 1-5.6 3.9-4.6.9 2.2.5 4.6.3 6.9-1.5-.6-2.9-1.4-4.2-2.3zm13.3 6.2c1.9-.4 2.6 1.7 3.7 2.9-1 1.6-2.1 3.2-3.6 4.3-.4-2.3-.9-4.8-.1-7.2zm-22.8 1c1 .1 2 .2 3.1.2 0 1.8.1 3.5.1 5.2-1.1.2-2.1.3-3.2.5v-5.9z"/><path fill="#144A95" stroke="#144A95" stroke-width=".094" d="M587.27 328c25.3-28.8 58.6-49.1 92.7-65.9 11.5 10.2 16.7 25.3 19.9 39.9-3.9 18.8-4.8 38.4-10.7 56.9-2.3 8-8.1 14.6-8.8 23.1-1.5 11.9.2 24.1-2.4 35.8-2.9 10.6-13.1 18.7-12.4 30.3.1 5.6 5.8 7.9 9.2 11.4 7.1 7.5 15.8 13.2 24.5 18.7-2.7 10.6-13.4 16.7-16.6 27.1-1.3 3.6-.1 7.3.9 10.7-8.6 3.9-16.2 10.1-21.1 18.2-9.3 14.5-11.5 32.4-21.3 46.7-4.1 6.1-9.8 11.1-16.3 14.8-15 9.9-28.3 22.3-42.7 33.2-4.8 2.7-4.6 9-8.4 12.6-4.8 7-14.7 11.9-13.8 21.6-.9 14.2-6.2 31.3-21.1 36.5-15.1 4.6-28.4 19.9-45.4 14.3-11.3-8.6-25.4-12.2-37.4-19.7-6.3-3.7-11.5-9.8-12.6-17.2-1.4-5.2 1.5-10.6-.6-15.7-5.1-16.1-18.3-27.8-31.7-37.2-13.8-15.9-34.5-23.2-50.1-36.9-9.7-8.1-15.2-20.4-15-33-1.3-1-2.6-2-3.8-3 3.8-4.4-.9-9.1-3.4-12.7-7.7-7.5-16.3-13.9-24.2-21.1 1.3-2.6 2.8-5.4 1.9-8.4-2.3-10.8-13.2-16.8-16.7-27 .2-7.1 9.8-6 14.9-7.6 7.3-7.1 14.2-14.7 21.3-22.2-9.4-9.9-12.9-23.6-14.4-36.8-2.1-17.3-1.4-35.6-9.1-51.7-8.6-13.6-11.2-29.9-12.9-45.7-1-17.7 1.1-38 13.5-51.5 38.2 15.7 75.4 36.5 102.8 68.1 46.7-11.8 95.8-14.4 143.3-6.4 5.5 1.1 11.8.9 16 5.2 4.2-1.1 8.9-2.2 12-5.4m36.9-15.1c-3.8 2.9-8.3 4.9-11.3 8.6-11.4 13.6-23.7 26.6-38 37.1-5 3.7-10.2 7.6-16.4 9.2 1.8-6.7 7.6-11.8 8.2-18.9-1.7-4.3-7.3-4.6-11-6.4-42-14-87.7-7.2-129.1 5.5 1 7 7.5 12.5 5.9 20-13-9.3-24.6-20.3-37.4-29.7-3.3-2.4-6.1-5.3-8.9-8.2-18.3-17.4-40.8-29.2-61.1-44-3.7-1.7-8.1-.4-12.1-.7-.7 7.6-7.1 13.7-6.2 21.6.7 3.9 3.3 7.1 4.7 10.7 9.4 23.1 7.9 49.2 18.1 72 2.2 4.4 1.5 9.5 2.4 14.2 2.1 12.7 7.9 24.4 11.9 36.5 2.6 5.2 5.8 11.2 2.8 17-5.2 10.7-17.1 15.6-24 24.9-4.5 11.8 6.9 20.4 11.3 30 1.9 4.6-1.8 12.4 4.7 14.3 13.4 5.3 16.9 22.6 30.7 27.2 11.9 1.8 26.3 5 32.7 16.4-2.6 2.2-6.5 3.4-9.5 1.5-8.4-4.6-18.3-4.8-26.5-9.6-1.7 6.1-1.4 13.2 3.1 18 9.1 9.6 22.7 12.3 33.3 19.6 3.5 2.3 3.7 6.9 6.1 10 10.4 15.5 32.4 20.3 38.6 39.2 6.2-5.2 4.6-13.9 5.5-21 2.3 1 4.6 2 6.8 3 3.3-1.9 3.8-5.6 4.8-8.9 12.4-25.7 6.8-55.6 16.7-82-2.2-3.9-8.9-9.3-3.4-13.8 5.6-.1 8.1 6.5 12.8 8.7.6 8.1-5 15.1-3.6 23.1.9 22.5-6.3 44.1-11.8 65.6-1.2 5.5-4.2 11.6.1 16.4-1.6 5.7-7.5 7.8-12.1 3.8-2.1 10.7-8.4 20.3-9.1 31.2 1.6 8.8 8.9 15.9 17.5 18 12.1 3.1 24.6 1.9 36.9 2.5 8.5.9 17-1.5 24.8-4.6 4.5-1.7 6.6-6.6 8.4-10.7 4.6-12.4 1.1-26-4.4-37.5-2.9 1.7-5.3 4.3-8.5 5.6-.8-24.3-12.1-46.4-15.4-70.2-1.1-7.3-.4-14.7-.5-22.1-1.8-8.4-5.5-18.3.8-25.8 3.4-4 5.7-12.7 12.4-10.6-2.8-4.6.7-9.1 3-13 6.1-11.3 19.1-17 31.5-18.1 23.7-2.4 47.5 5.3 71.1.5-8.5 8.8-21.7 10.3-33.2 8.6-14.9-1.1-31.4-5.9-45 2.4-16.3 10-26.1 27.1-35.9 42.9 10.1 25.8 9.8 54 17.8 80.3 3.2 1 7 1.8 8.9 5 4.2 6.6 1.8 15 5.3 21.8.6.8 1.5 2.6 2.6 1.8 7.3-7.1 11.2-17.6 20.3-22.8 13.4-9.9 17.5-28.3 31.9-37.1 9.3-4.2 18.4-9.2 25.9-16.1 5.4-4.8 6.3-12.8 3.4-19.2-4 1.8-7.7 4.2-11.6 6.1-2.9 1.3-6.5-.4-9.1 1.8-3 2.8-3.9 7.2-6.9 10.1-2.3.8-2.2-2.7-3.1-4.1-1.8 0-3.8 0-5.3-1.1 5.7-6.9 10.8-15.2 19.4-18.9 17.8-6.8 33.1-18.8 47.2-31.4-5.7-15.1 9.3-25.8 12.9-39.1-6.3-5.9-13-11.6-19.2-17.6-3.8-8.8-6.9-18.7-5.6-28.4.4-4.4 4.1-7.3 5.9-11.1 9.6-18.2 4-40.7 14.6-58.5 1.5-2.2 1-4.9 1.1-7.4.8-18.7 12.3-35.2 12.3-54 .5-7.4-3.8-13.9-5.6-20.9-21.5 4.4-38.8 18.6-56.3 30.8m-132.5 389.5c0 1-.1 2-.2 3 3.4.8 6.7 1.5 10.1 2.3.9-1.4 1.9-2.8 2.8-4.2-4.2-.2-8.4-1.9-12.7-1.1zM82.27 341.8c11.7-24.5 24-48.8 35.9-73.3 7.3 5.9 17.5 4.9 26 8.3-8.2 4.1-14.9 10.9-19 19-5.3 10.3-10.3 20.8-15.4 31.2 7.3 3.6 14.6 7.1 21.9 10.8 5.2-10.3 10.2-20.7 15.3-31.1 1.7-3.3 2.1-7 2.3-10.6 4.7 6.7 14.5 12.4 12.4 21.7-4.1 9.5-9.4 18.5-13.4 28.1 8 3.6 15.5 8.4 23.8 11.2 5-10.7 10.5-21.1 15.5-31.8 4.3-9.6 5.1-20.7 1.3-30.6 5.7 5.2 11.3 10.5 16.9 15.8 2 2 4.7 3.2 7.5 3.2-11.4 25.1-24.4 49.6-36.2 74.5-2.1-5.4-6.6-9.6-11.8-12.2-21.2-10.5-42.5-20.7-63.7-31.3-5.9-3-12.8-5.5-19.3-2.9zm776.7-59.5c8.3-3.2 18.5-2 25.5-8.1 10.9 23.4 22 46.6 32.8 70-9 2.1-14.8 10.5-22.6 15.2 2.9-11.5-.7-23.1-5.9-33.3-20.4 8.7-40.2 18.8-60.4 28-6.8 3-13.6 7.4-16.1 14.7-4.7-9.4-8.9-19.2-13.6-28.7 4.4 1.7 9.4 2.2 13.7 0 22.6-10.7 45.3-21.3 67.9-31.9-4.2-10.7-11.2-20.2-21.3-25.9zm-642.8 111.5c15.6-45 44.2-85 79.8-116.2-10.3 17.6-8.6 38.8-7.2 58.4-18.9 11.2-27.7 32.6-43.2 47.3-7.8 7.4-18.6 11.7-29.4 10.5z"/><path fill="#144A95" stroke="#144A95" stroke-width=".094" d="M493.77 312.2c2.7-10.8 5.9-21.6 8.8-32.4-1 10.9 2.4 21.3 4.5 31.9-4.4 1-8.9.4-13.3.5z"/><path fill="#F8BC16" stroke="#F8BC16" stroke-width=".094" d="M624.17 312.9c17.5-12.2 34.8-26.4 56.3-30.8 1.8 7 6.1 13.5 5.6 20.9 0 18.8-11.5 35.3-12.3 54-.1 2.5.4 5.2-1.1 7.4-10.6 17.8-5 40.3-14.6 58.5-1.8 3.8-5.5 6.7-5.9 11.1-1.3 9.7 1.8 19.6 5.6 28.4 6.2 6 12.9 11.7 19.2 17.6-3.6 13.3-18.6 24-12.9 39.1-14.1 12.6-29.4 24.6-47.2 31.4-8.6 3.7-13.7 12-19.4 18.9 1.5 1.1 3.5 1.1 5.3 1.1.9 1.4.8 4.9 3.1 4.1 3-2.9 3.9-7.3 6.9-10.1 2.6-2.2 6.2-.5 9.1-1.8 3.9-1.9 7.6-4.3 11.6-6.1 2.9 6.4 2 14.4-3.4 19.2-7.5 6.9-16.6 11.9-25.9 16.1-14.4 8.8-18.5 27.2-31.9 37.1-9.1 5.2-13 15.7-20.3 22.8-1.1.8-2-1-2.6-1.8-3.5-6.8-1.1-15.2-5.3-21.8-1.9-3.2-5.7-4-8.9-5-8-26.3-7.7-54.5-17.8-80.3 9.8-15.8 19.6-32.9 35.9-42.9 13.6-8.3 30.1-3.5 45-2.4 11.5 1.7 24.7.2 33.2-8.6-23.6 4.8-47.4-2.9-71.1-.5-12.4 1.1-25.4 6.8-31.5 18.1-2.3 3.9-5.8 8.4-3 13-6.7-2.1-9 6.6-12.4 10.6-6.3 7.5-2.6 17.4-.8 25.8.1 7.4-.6 14.8.5 22.1 3.3 23.8 14.6 45.9 15.4 70.2 3.2-1.3 5.6-3.9 8.5-5.6 5.5 11.5 9 25.1 4.4 37.5-1.8 4.1-3.9 9-8.4 10.7-7.8 3.1-16.3 5.5-24.8 4.6-12.3-.6-24.8.6-36.9-2.5-8.6-2.1-15.9-9.2-17.5-18 .7-10.9 7-20.5 9.1-31.2 4.6 4 10.5 1.9 12.1-3.8-4.3-4.8-1.3-10.9-.1-16.4 5.5-21.5 12.7-43.1 11.8-65.6-1.4-8 4.2-15 3.6-23.1-4.7-2.2-7.2-8.8-12.8-8.7-5.5 4.5 1.2 9.9 3.4 13.8-9.9 26.4-4.3 56.3-16.7 82-1 3.3-1.5 7-4.8 8.9-2.2-1-4.5-2-6.8-3-.9 7.1.7 15.8-5.5 21-6.2-18.9-28.2-23.7-38.6-39.2-2.4-3.1-2.6-7.7-6.1-10-10.6-7.3-24.2-10-33.3-19.6-4.5-4.8-4.8-11.9-3.1-18 8.2 4.8 18.1 5 26.5 9.6 3 1.9 6.9.7 9.5-1.5-6.4-11.4-20.8-14.6-32.7-16.4-13.8-4.6-17.3-21.9-30.7-27.2-6.5-1.9-2.8-9.7-4.7-14.3-4.4-9.6-15.8-18.2-11.3-30 6.9-9.3 18.8-14.2 24-24.9 3-5.8-.2-11.8-2.8-17-4-12.1-9.8-23.8-11.9-36.5-.9-4.7-.2-9.8-2.4-14.2-10.2-22.8-8.7-48.9-18.1-72-1.4-3.6-4-6.8-4.7-10.7-.9-7.9 5.5-14 6.2-21.6 4 .3 8.4-1 12.1.7 20.3 14.8 42.8 26.6 61.1 44 2.8 2.9 5.6 5.8 8.9 8.2 12.8 9.4 24.4 20.4 37.4 29.7 1.6-7.5-4.9-13-5.9-20 41.4-12.7 87.1-19.5 129.1-5.5 3.7 1.8 9.3 2.1 11 6.4-.6 7.1-6.4 12.2-8.2 18.9 6.2-1.6 11.4-5.5 16.4-9.2 14.3-10.5 26.6-23.5 38-37.1 3-3.7 7.5-5.7 11.3-8.6m-17.1 20.8c-6.4 10.6-2.4 23.5-5.2 35-1.3 6.2-6.2 10.7-11.3 14.1 15.7 15 29.9 32 48.8 43.2.9.5 2.1 1 3.1.2 8.2-5.6 11.6-15.6 12.9-25.1 1.2-6.7-.1-14.2 3.7-20.2 11.1-25.5 5.7-54.6 15.5-80.4-.1-4.6.8-13.2-5.3-13.9-19.8 16.9-46.7 25.2-62.2 47.1m-291.4-42.8c2.7 26.6 6.2 53.2 12.4 79.3 1.9 7.3 3.9 14.8 7.4 21.5 4.9 10.2 1.4 22.3 6.8 32.3 1.8 3.8 5.5 5.8 9.1 7.6 17.1-12.1 32.3-26.8 45.7-42.8 4.7-9.9-12.7-14.4-8.3-24.4 5-14.8-8.2-26.1-16.1-36.7-2.6-5.3-8.9-5.6-13.2-8.9-14.6-9.3-25.5-25.7-43.8-27.9m183.8 81.3c.5 5.5-.8 13.5 5.6 16.1-.2-2.7-.6-5.3-.3-7.9 2.5-11.5 19.8-13.2 19.3-26-8.9 4.9-17.1 11-24.6 17.8m-31.7-15.4c1.6 3.9 2.9 7.9 5.3 11.4 2.6 3 6.9 3.6 9.6 6.4.9 2.7-.9 6.3 1.6 8.3 2.2 2 4.8 3.4 7.3 5 .5-4.5 2.1-9 1.2-13.4-6.5-8.2-16.3-12.4-25-17.7m80 70.3c-.9 1.6-1.9 3.2-2.8 4.8 10.3-2.4 18.3 7.7 28.6 5.7-8.4-3.9-17-7.7-25.8-10.5m-126.9 11.8c2.6.7 5.2 2 8 1.6 4.7-2.3 8.7-8.2 14.5-6.4 3.5 1.2 4.9-3.3 6.2-5.7-4-.1-8.1-.1-12.1-.1-3.3 6.8-11.7 6.3-16.6 10.6m1.4 48.6c-16.6 3.9-34.1 5.4-51.1 3 5.5 6.7 14.5 10.2 23.1 8.8 13.3-2.1 26.5-8.2 40-4.5 17.2 3.7 24.4 22.2 39.1 30 .8-2.5 1.6-5.1 2.4-7.7-10-19.1-31.7-32.2-53.5-29.6m128.5 14.9c-2.8 2.8-2.9 7-3.8 10.7 2.7 6 9.8 9.4 16.2 8 5.6-2.9 6.9-10.6 5.1-16.1-3.5-6.5-12.1-6.5-17.5-2.6m-121.2-.1c-11.3 3.1-6.5 23.2 4.7 21.2 6.8-.2 11-7.4 11.5-13.5-1.1-7.2-10.1-9.9-16.2-7.7m161.8.5c-7.5 7.9-13.9 17.9-24.7 21.5-4.8 1.9-9.9.9-14.5-.8-4 1.4-7.7 4.3-7.7 8.9 15 0 31.2-2.2 43.3-11.9 5-4.5 10.9-10.2 10.2-17.6-2.2 0-4.4-.1-6.6-.1m-197.4 7.1c9.7 8.2 18.8 18.2 31.5 21.8 5.6 1 11.1 3.4 16.9 3.4 3.9 0 6.3-3.4 7.4-6.7-20 1.4-37.4-10.6-51.6-23.3a48.1 48.1 0 0 0-4.2 4.8m149.3 26.8c-3.4 12.9-6.7 25.7-10.7 38.4-4.1 21.3 10.8 39.4 14.7 59.5 5.2-4.2 5.8-11.7 3.9-17.6-5.7-6.8-9.4-15.1-10.2-24-1.6-19.1 4.9-37.5 6.3-56.3h-4m-97.3 11.6c11.1 19.7 8.7 45-2 64.4-2.9 4.7-6.4 13.4-.6 17 3.5-7.6 10.2-13 14.1-20.4 2.1-3.7.6-8.4 3-12.1 4.8-8.1 4-18.4.5-26.9-4.2-10.7-10.1-20.9-11.6-32.6-4.7 1-5.9 7-3.4 10.6m129.3 30.3c1.3 2.6 3.2 6 6.8 4.9 5.4-2.2 9.5-7.2 15.8-7-1.6-2.8-3.7-6.7-7.6-5.8-5.5 1.5-9.5 6.2-15 7.9m-173.3-1.6c3.6 4.8 9.1 7.9 13.5 12 7-8-6.6-14.5-13.5-12m74.9 69.6c-5.6 5.5-6.3 14.6-3.8 21.6 6.9 7.9 14.4 18.8 26.2 18.1 15.1-1.9 23.2-18.1 23.8-31.9-12.9-10.2-30.8-10.3-46.2-7.8z"/><path fill="#144A95" stroke="#144A95" stroke-width=".094" d="M607.07 333.7c15.5-21.9 42.4-30.2 62.2-47.1 6.1.7 5.2 9.3 5.3 13.9-9.8 25.8-4.4 54.9-15.5 80.4-3.8 6-2.5 13.5-3.7 20.2-1.3 9.5-4.7 19.5-12.9 25.1-1 .8-2.2.3-3.1-.2-18.9-11.2-33.1-28.2-48.8-43.2 5.1-3.4 10-7.9 11.3-14.1 2.8-11.5-1.2-24.4 5.2-35m17.1-2.8c-5.8 5.6-9.6 13.2-10.3 21.2.8 3.6 3.4 7 2.5 10.9-1.4 7.3-6.7 13.1-9 20.1 11.1 9.2 17.6 25.4 33.1 27.8 10.3-15.3 6.1-35.5 16.1-50.9-2.2-20.1 7.2-39 7.6-58.9-11.4 12.4-28 18.1-40 29.8zm87.2-43.7c28.4 28 51.7 61.7 64.7 99.6-8.6.1-16.7-4.1-23.2-9.4-16.5-13.8-26.6-34.5-46.1-44.6 4.2-14.8 6.3-30.3 4.6-45.6zm-395.7 3.7c18.3 2.2 29.2 18.6 43.8 27.9 4.3 3.3 10.6 3.6 13.2 8.9 7.9 10.6 21.1 21.9 16.1 36.7-4.4 10 13 14.5 8.3 24.4-13.4 16-28.6 30.7-45.7 42.8-3.6-1.8-7.3-3.8-9.1-7.6-5.4-10-1.9-22.1-6.8-32.3-3.5-6.7-5.5-14.2-7.4-21.5-6.2-26.1-9.7-52.7-12.4-79.3m11.5 17.2c14.7 22.9.7 53.2 16.6 75.4 7.3 6.1 3.6 16.3 5.7 24.4.7 4.7 4.2 10.2 9.5 9.9 11.6-6.6 16.3-20.8 28.3-27 0-5.5-3.1-10.1-6.6-14 1.2-13.5-2.6-28-12.6-37.6-4.6-4.6-11.2-6.5-16-11-8-6.9-14.4-16.5-24.9-20.1z"/><path fill="#F8BC16" stroke="#F8BC16" stroke-width=".094" d="M624.17 330.9c12-11.7 28.6-17.4 40-29.8-.4 19.9-9.8 38.8-7.6 58.9-10 15.4-5.8 35.6-16.1 50.9-15.5-2.4-22-18.6-33.1-27.8 2.3-7 7.6-12.8 9-20.1.9-3.9-1.7-7.3-2.5-10.9.7-8 4.5-15.6 10.3-21.2zm-297-22.8c10.5 3.6 16.9 13.2 24.9 20.1 4.8 4.5 11.4 6.4 16 11 10 9.6 13.8 24.1 12.6 37.6 3.5 3.9 6.6 8.5 6.6 14-12 6.2-16.7 20.4-28.3 27-5.3.3-8.8-5.2-9.5-9.9-2.1-8.1 1.6-18.3-5.7-24.4-15.9-22.2-1.9-52.5-16.6-75.4z"/><path fill="#144A95" stroke="#144A95" stroke-width=".094" d="M703.87 346.9c19.9 14 33.2 36.6 56 46.5 6.8 3.3 14.4 3.4 21.7 3.4-5.7 6.2-12.8 11.5-15.8 19.8-10.8 26-.3 55.5-10.1 81.8-4.7 13-16.3 22.1-28.8 27.1-12.1 4.1-25.2 4.1-37.8 3.6 2.6-8 12.6-7.4 19.3-8.8 14.6-3.4 29.7-10.5 37-24.3 15.3-29.3 5-66.5 25-94-27.3-8-46.6-30.1-67.9-47.4.2-2.6.7-5.2 1.4-7.7zm-464 51.7c21.4-12.9 32-37.7 53.1-50.9 1.5 1.8 2.9 3.6 4.4 5.4-19.5 22.3-40 47.7-70.3 54.5 3.4 9.8 12.5 16.6 14.7 27 4.9 21.6 7.6 44.1 17.6 64.2 7.2 14.5 20.6 26 36.5 29.7 7.6 3.2 17.3-.6 23.6 5.9-25.8 6.5-56.6-3.8-69.8-27.8-13.5-25.8-4.7-57.1-17.9-83-4.1-8.6-11.5-14.9-19.6-19.6 9.5 1.2 19.5-.3 27.7-5.4zm259.6-26.4c7.5-6.8 15.7-12.9 24.6-17.8.5 12.8-16.8 14.5-19.3 26-.3 2.6.1 5.2.3 7.9-6.4-2.6-5.1-10.6-5.6-16.1zm404.3 1.3c6.8-5.7 14.3-11 18.4-19.1 2.4 11 5.2 21.8 7.1 32.9-4.7-2.3-10.2-.6-13.9 2.8-10 8.5-20.6 16.4-30.4 25.2 13.1 3.8 26.2 7.4 39.3 10.8 4.7 1.3 9.7-.1 12.9-3.8 1.7 10.2 4.9 20.1 6 30.4-23.2-9.4-47.8-14.9-71.6-23-6.6-3.1-13.6.4-20.3 1.4-7 1.3-14.1 4.1-18.2 10.3-2.1-10.4-4.4-20.8-6.7-31.2 7.4 6.2 17.4 2.6 25.8.9 3.8-1 8.3-.9 11.4-3.8 13.3-11.3 26.9-22.5 40.2-33.8zm-436-16.7c8.7 5.3 18.5 9.5 25 17.7.9 4.4-.7 8.9-1.2 13.4-2.5-1.6-5.1-3-7.3-5-2.5-2-.7-5.6-1.6-8.3-2.7-2.8-7-3.4-9.6-6.4-2.4-3.5-3.7-7.5-5.3-11.4zm-319.3 22c7.2 3.7 14.1 7.9 21.2 11.8 2.2 1.4 4.8 1 7.3.8-5.1 23.7-10.4 47.3-15.6 70.9-2.9-5.3-8.5-8.1-14.1-9.3-24.3-5.5-48.6-10.9-73-16-5.4-1.2-11.3-.7-15.9 2.7 2.2-10.4 4.3-20.8 6.7-31.1 3.7 5.4 9.5 8.6 15.8 9.8 22.8 5 45.5 10.2 68.4 14.7 1.9-12.1 6.7-23.8 5.8-36.2-.2-6.6-3.2-12.6-6.6-18.1z"/><path fill="#144A95" stroke="#144A95" stroke-width=".094" d="M713.07 403.3c.1-2.5-.5-5.4 1.2-7.5 1.3 2.2 1.3 4.9 1.3 7.4-.6 0-1.9.1-2.5.1zm-426.4-3c3.8-2.6 6.8 1.6 4.7 5.2-1.7-.1-3.4-.8-4.9-1.7.1-1.2.2-2.3.2-3.5zm414.9 8.9c4-2.5 5.1 6.5.7 6.2-2.1-1.3-3-4.8-.7-6.2zm22.4-.5h3.5c0 2.1-.2 4.2-1.1 6.3-2.5-1.3-3.4-3.6-2.4-6.3zm-425.4 6.7c0-4.2 5.2-7.4 5.5-1.2-1.5 1.8-3.5 1.7-5.5 1.2zm474 28.6c-.2-12.6 3.2-25.8 12.2-34.9 16.8 51.7 18.4 108.1 5.8 160.9-13.8 57.4-44.9 110.9-89.2 150.1-3.6 3.3-7 6.6-10.6 9.8-3.4-19 6.3-37 15.5-52.9 7.7-13.4 16-26.9 18.6-42.3 2.8-15.1-.7-31.2-9.7-43.6-11.8-16.4-29.1-28.2-47.7-35.7-.6-6.5 1.8-14.7 8.9-16.4 11.7-2.3 23.2 2.8 34.9 2.3 19.5-2.9 39.4-11.8 50.7-28.6 5.2-8.8 10.1-18.3 10.8-28.7 1.5-13.3-.7-26.6-.2-40m-66.8 111.5c-2.6 1.9-3.5 6.5-.3 8.3 14.8 11.8 34.7 13.6 52.9 13.6-9.8-12.6-24.9-19.8-40.2-23.5-4.1-1-9-1.3-12.4 1.6zm-427.8-143.8c4.1 1 3.8 5.8.1 7.1-.1-2.4-.1-4.7-.1-7.1zm-68.6 3.3c9.9 3.9 17.6 12.5 20.1 22.8 5 19.6 0 40.1 4.3 59.8 5.3 22.9 24.8 40.4 46.8 47.1 16.1 6.4 33.6 1.5 50.3.7 1.2 2.9 2.5 5.8 3.6 8.7-19.6 7.4-37.9 20.1-49 38.1-8.2 13.2-10.4 29.7-7.1 44.8 6.8 31.4 31.6 55.2 39.1 86.4 1.4 4.8-1.4 9.2-2.5 13.7-3.5-1.6-6.1-4.4-9-6.8-35.3-29.9-64.7-67.2-83.5-109.6-24.8-54.6-30.7-116.7-21-175.6 1.2-10.4 4.8-20.2 7.9-30.1m31 168.5c15.5 1 31.4-1.6 44.9-9.6 4.4-2.6 6.9-10.5 1.6-13.4-18.5-1.9-34.2 10.7-46.5 23zm307.4-156.4c8.8 2.8 17.4 6.6 25.8 10.5-10.3 2-18.3-8.1-28.6-5.7.9-1.6 1.9-3.2 2.8-4.8zm154.6 41.4c4.2-13.9 8.4-27.7 13.1-41.5-.4 13.5 4.5 26.3 7.6 39.3-5.6 0-7.4 5.4-10.2 9.1-1.1-2.7-1.4-6.1-3.7-7.9-2.3 0-4.6.6-6.8 1zm-281.5-29.6c4.9-4.3 13.3-3.8 16.6-10.6 4 0 8.1 0 12.1.1-1.3 2.4-2.7 6.9-6.2 5.7-5.8-1.8-9.8 4.1-14.5 6.4-2.8.4-5.4-.9-8-1.6zm-140.5 30.6c3.8-13.2 9-26.1 11.4-39.7-.2 13.7 5 26.6 9.7 39.3-5.5-.5-8.2 4.6-9.9 8.9-1.7-4.8-5-10.9-11.2-8.5zm-187.7 3c10.2-4.7 22.1 6.7 18.2 17.2-2.7 9.9-17.6 12.6-23.7 4.4-6.1-6.7-3-18.5 5.5-21.6zm802 0c7.1-3.1 16.1 1.4 18.2 8.8 3.1 8.4-4.5 18.7-13.6 17.5-8.5.7-15.3-8.8-13-16.7 1-4.3 4.2-8.1 8.4-9.6zm-472.4 15c21.8-2.6 43.5 10.5 53.5 29.6-.8 2.6-1.6 5.2-2.4 7.7-14.7-7.8-21.9-26.3-39.1-30-13.5-3.7-26.7 2.4-40 4.5-8.6 1.4-17.6-2.1-23.1-8.8 17 2.4 34.5.9 51.1-3zm128.5 14.9c5.4-3.9 14-3.9 17.5 2.6 1.8 5.5.5 13.2-5.1 16.1-6.4 1.4-13.5-2-16.2-8 .9-3.7 1-7.9 3.8-10.7m9.4 10.1c0-1.9-.1-3.7-.3-5.5-3.6.6-1.6 4 .3 5.5z"/><path fill="#144A95" stroke="#144A95" stroke-width=".094" d="M429.57 502.3c6.1-2.2 15.1.5 16.2 7.7-.5 6.1-4.7 13.3-11.5 13.5-11.2 2-16-18.1-4.7-21.2m2.6 10.8c1.9.9 4 1.3 6.2.6-1-1.6-2.1-3.1-3.3-4.6-1 1.3-2 2.6-2.9 4zm159.2-10.3c2.2 0 4.4.1 6.6.1.7 7.4-5.2 13.1-10.2 17.6-12.1 9.7-28.3 11.9-43.3 11.9 0-4.6 3.7-7.5 7.7-8.9 4.6 1.7 9.7 2.7 14.5.8 10.8-3.6 17.2-13.6 24.7-21.5z"/><path fill="#144A95" stroke="#144A95" stroke-width=".094" d="M393.97 509.9c1.3-1.7 2.7-3.3 4.2-4.8 14.2 12.7 31.6 24.7 51.6 23.3-1.1 3.3-3.5 6.7-7.4 6.7-5.8 0-11.3-2.4-16.9-3.4-12.7-3.6-21.8-13.6-31.5-21.8z"/><path fill="#F8BC16" stroke="#F8BC16" stroke-width=".094" d="M560.17 512.5c-1.9-1.5-3.9-4.9-.3-5.5.2 1.8.3 3.6.3 5.5zm-128 .6c.9-1.4 1.9-2.7 2.9-4 1.2 1.5 2.3 3 3.3 4.6-2.2.7-4.3.3-6.2-.6z"/><path fill="#144A95" stroke="#144A95" stroke-width=".094" d="M141.27 525.3c5.9-.9 11.4-3.7 15-8.5 3.9 24.4 8.3 48.7 12.6 72.9-9.2-.1-16.8 6.2-25.6 8.4 8.9-16.8 1.7-35.5-.6-53-8.7.9-17.4 2.9-26 4.5 2.2 11.3 3.8 22.7 6 34.1.6 3.4 2.5 6.4 4.3 9.3-7.3-2-16.5-1.8-21.9-7.8-3.2-10.6-3.6-22-6.4-32.8-13.5 4-31.2 1.2-40.7 13.6-2.1-10.4-3.8-20.8-5.7-31.2 4.7 3.9 11.1 4.3 16.9 3.3 24.1-4.2 48.1-8.6 72.1-12.8zm709.8-2.5c13.1-4.5 30.9.9 35.1 15.3 2.6-7.9 9.3-14.8 18-15.3 11.5-.6 24.8 2.6 31.4 12.9 5.8 9.6 5 21.4 3.3 32-2.8 15.7-5.3 31.6-8.1 47.3-3.5-5.1-9.4-7.4-15.3-8.3-22.3-3.9-44.5-7.8-66.8-11.5-7.2-1.1-15.6-2.6-21.7 2.6 3.1-16.8 5.4-33.7 8.6-50.4 2.3-9.5 5.9-20.5 15.5-24.6m2.7 25.8c-2.7 8.7-3.2 18-5.2 26.9 8.3 1.4 16.5 3.3 24.9 4 .7-8.9 3.7-17.6 3.4-26.6-.4-10.9-19.4-15.2-23.1-4.3m41.2 8.2c-1.6 8.6-2.9 17.1-4.4 25.7 8.9 1.7 17.9 3.3 26.9 4.5 1.4-7.9 2.7-15.9 4.1-23.9.8-4.8 1.2-10.3-1.9-14.4-3.5-4.5-9.9-6.1-15.4-4.9-5.7 1.6-8.3 7.7-9.3 13zm-351.7-20.1h4c-1.4 18.8-7.9 37.2-6.3 56.3.8 8.9 4.5 17.2 10.2 24 1.9 5.9 1.3 13.4-3.9 17.6-3.9-20.1-18.8-38.2-14.7-59.5 4-12.7 7.3-25.5 10.7-38.4zm-97.3 11.6c-2.5-3.6-1.3-9.6 3.4-10.6 1.5 11.7 7.4 21.9 11.6 32.6 3.5 8.5 4.3 18.8-.5 26.9-2.4 3.7-.9 8.4-3 12.1-3.9 7.4-10.6 12.8-14.1 20.4-5.8-3.6-2.3-12.3.6-17 10.7-19.4 13.1-44.7 2-64.4z"/><path fill="#FFF" stroke="#FFF" stroke-width=".094" d="M853.77 548.6c3.7-10.9 22.7-6.6 23.1 4.3.3 9-2.7 17.7-3.4 26.6-8.4-.7-16.6-2.6-24.9-4 2-8.9 2.5-18.2 5.2-26.9zm41.2 8.2c1-5.3 3.6-11.4 9.3-13 5.5-1.2 11.9.4 15.4 4.9 3.1 4.1 2.7 9.6 1.9 14.4-1.4 8-2.7 16-4.1 23.9-9-1.2-18-2.8-26.9-4.5 1.5-8.6 2.8-17.1 4.4-25.7zm-189.2-1.3c3.4-2.9 8.3-2.6 12.4-1.6 15.3 3.7 30.4 10.9 40.2 23.5-18.2 0-38.1-1.8-52.9-13.6-3.2-1.8-2.3-6.4.3-8.3zm-465.4 28c12.3-12.3 28-24.9 46.5-23 5.3 2.9 2.8 10.8-1.6 13.4-13.5 8-29.4 10.6-44.9 9.6z"/><path fill="#144A95" stroke="#144A95" stroke-width=".094" d="M290.07 630c-3.6-29.8 19.7-57.6 47.7-65 1.4 3.4 2.4 7 2.2 10.7-14.4 7.2-29 16.9-36.1 31.9-4.2 8.4-3.5 18.1-2.9 27.2 2.9 20.9 16.3 37.9 25 56.5 5.4 11.5 8.4 24.2 7.4 36.8 6.3 3.6 11.6-3.5 17.9-3.6 27.2-1.1 54.5 1.6 81.5-2.4 10.1-1.6 20.9-4.1 28-12 3.4 0 6.5 1.7 9.4 3.4-6.9 15.8-25 25-41.9 24.3-24.8.7-48.2-11.3-73.1-9.5-11.5.9-22.3 6.6-30.1 15 3.6-10.2 4.9-21.4 1.9-32-7.8-29.1-32.8-50.9-36.9-81.3zm368.2-52c-3.7-4 1.1-9.3 3.2-13 19.1 7.5 38.1 19.5 47.4 38.4 5.3 11.9 4.6 25.8.6 38-5.5 17.2-17.2 31.4-25.4 47.3-7.7 13.7-10.7 30.2-6 45.4-14.4-7.4-31.2-7.3-46.8-4-20.2 3.8-40.1 11.1-61 9.3-14.7-1.2-28.3-10.1-36.2-22.5-.3-3.5 3.4-6 6.2-7.5 4.3 0 7.4 3.6 10.2 6.4 11 13.2 28.9 19.4 45.8 17.5 24.6-2.5 48.7-13.6 73.8-8.3 1.7-6.3-.2-13 2-19.2 10-22.4 25.2-42.9 29.6-67.4 3.2-15.5-2.3-32.2-13.6-43.2-8.7-7.7-19-13.1-29.8-17.2zm-83 .6c5.5-1.7 9.5-6.4 15-7.9 3.9-.9 6 3 7.6 5.8-6.3-.2-10.4 4.8-15.8 7-3.6 1.1-5.5-2.3-6.8-4.9zm-173.3-1.6c6.9-2.5 20.5 4 13.5 12-4.4-4.1-9.9-7.2-13.5-12zm412.3 54.9c4.3-9.7 8.7-19.4 13.2-29 1.8 6.9 8.2 10.8 14.2 13.6 15.6 7.1 31.3 14 46.8 21.3 9.6 4.9 18.9 12.3 22 23 3.1 10.4-.3 21.2-4.9 30.5-4.3 8.9-11.3 17.2-21.1 20-10.8 3.1-22.2-.1-32.1-4.5-13-5.9-26-11.9-39.1-17.8-7.1-3.4-15.2-7.4-23.2-4.1 4.4-9.4 8.3-19 13.2-28.1 1.8 5.5 6.6 9.2 11.7 11.5 14.8 7 29.8 13.5 44.6 20.4 6 2.7 13.2 5.1 19.6 2.3 8.9-3.6 13.4-14.5 11.5-23.6-2.2-6.8-8.5-11.2-14.7-14-16-7-31.6-14.8-47.7-21.5-4.5-1.9-9.5-2-14 0zm-672.6-21.3c11.2-1.1 23.1-.1 32.6 6.3 15 10 23.1 29.4 20 47.1-3.1 15.7-15.9 27.4-29.6 34.4-14.9 8.2-33.2 12.2-49.7 6.9-25.6-8.5-38.5-43.3-23.2-65.9 11.4-16.2 30.7-25.5 49.9-28.8m4.1 20.1c-14.5 2.6-29.9 8.8-38.1 21.7-8.7 14.1 3.5 34.2 19.6 34.7 14.8.5 29.5-6 40.4-15.7 8.4-7.3 10.1-20.4 3.8-29.6-5.1-8.8-16-12.8-25.7-11.1z"/><path fill="#144A95" stroke="#144A95" stroke-width=".094" d="M623.67 624.6c-1.9-2.7-1-6.9 2.8-6.8 0 2.3 0 4.7-.1 7-.7-.1-2.1-.2-2.7-.2zm-239.7 1.5c-5.3-.1-6.2-8-.1-6.8.1 2.3.1 4.5.1 6.8zm251.3 8.8c-.1-1.9-1.6-5 1.1-5.7 3-.4 2 3.4 2.5 5.2-1.2.2-2.4.3-3.6.5z"/><path fill="#FFF" stroke="#FFF" stroke-width=".094" d="M145.77 630.7c9.7-1.7 20.6 2.3 25.7 11.1 6.3 9.2 4.6 22.3-3.8 29.6-10.9 9.7-25.6 16.2-40.4 15.7-16.1-.5-28.3-20.6-19.6-34.7 8.2-12.9 23.6-19.1 38.1-21.7z"/><path fill="#144A95" stroke="#144A95" stroke-width=".094" d="M392.77 635.7c.2-2.3-.8-5.3 1.7-6.6 1.1 1.9 1.5 4.1 1.5 6.3-1.1.1-2.1.2-3.2.3zm-24-2.2c1.3-1.4 2.9-2.3 4.8-2-.1 2.1-.2 4.2-.4 6.2-.6 0-1.8-.1-2.5-.2-.6-.7-1.2-1.4-1.9-2v-2zm242.8-2.5h4.7c0 2.1 0 4.3-.1 6.5h-4.6V631zm-134.7 15.6c15.4-2.5 33.3-2.4 46.2 7.8-.6 13.8-8.7 30-23.8 31.9-11.8.7-19.3-10.2-26.2-18.1-2.5-7-1.8-16.1 3.8-21.6m13.8 10.1c-2.8.7-7.6 2.3-6.5 6.1 2.2 5.7 4.2 12.6 10.2 15.3 5.6 2.2 10-2.9 13.4-6.6 3.4-3.7 4.2-11.7-1.7-13.3-5-.9-10.2-2.2-15.4-1.5zm135.5-7.9c1.5 13.6 5.9 26.6 8.6 39.9l-4.2.6c-1.6 2.7-3.3 5.3-5.2 7.8-1-5-4-10.1-10-7.5 3.8-13.5 7.1-27.2 10.8-40.8zm-254.9 39.6c6.7-12 8.4-25.8 12.2-38.7 1.4 13.1 4.7 25.9 8.4 38.6-4.7-1-7.6 3.2-9.6 6.7-2-4.2-6.3-6.6-11-6.6z"/><path fill="#F8BC16" stroke="#F8BC16" stroke-width=".094" d="M490.67 656.7c5.2-.7 10.4.6 15.4 1.5 5.9 1.6 5.1 9.6 1.7 13.3-3.4 3.7-7.8 8.8-13.4 6.6-6-2.7-8-9.6-10.2-15.3-1.1-3.8 3.7-5.4 6.5-6.1z"/><path fill="#144A95" stroke="#144A95" stroke-width=".094" d="M200.67 696.6c26.1-4.4 50.9 19.8 50.6 45.4-.7 15.6-10.3 29.3-21.7 39.3-11.8 10.6-27.1 18.4-43.3 17.8-21.7-.8-40.1-19.9-42.3-41.1-1.2-12.8 4.4-25.2 12.5-34.8 11.4-13.1 26.8-23.8 44.2-26.6m4.1 20c-16.4 2.9-31 14.6-38.7 29.1-7.6 14.1 4.9 32.5 20.2 33 10.3.7 19.7-5 27.5-11.2 7.9-6.2 15.4-14.3 17.1-24.5 2.4-14.4-11.9-28.3-26.1-26.4z"/><path fill="#F8BC16" stroke="#F8BC16" stroke-width=".094" d="M491.67 702.4c4.3-.8 8.5.9 12.7 1.1-.9 1.4-1.9 2.8-2.8 4.2-3.4-.8-6.7-1.5-10.1-2.3.1-1 .2-2 .2-3z"/><path fill="#144A95" stroke="#144A95" stroke-width=".094" d="M747.57 729.8c6.8-8.2 13.1-16.7 19.8-25 .8 6.9 5.5 12.3 10.9 16.3 17.8 13.8 35.3 28 53.3 41.6 4.4-2.1 6.5-7.9 10-11.3 9.1-10.2 16.5-23.5 13.8-37.6 4.7 6.7 9.1 13.6 14 20.2 1.3 2 3.7 2.8 5.9 3.7-14.6 19-29.5 37.7-44.2 56.5-1.2-5.6-4.5-10.5-9-14-18.6-14.7-37.4-29.3-56-44-5.2-4-11.6-8.1-18.5-6.4z"/><path fill="#FFF" stroke="#FFF" stroke-width=".094" d="M204.77 716.6c14.2-1.9 28.5 12 26.1 26.4-1.7 10.2-9.2 18.3-17.1 24.5-7.8 6.2-17.2 11.9-27.5 11.2-15.3-.5-27.8-18.9-20.2-33 7.7-14.5 22.3-26.2 38.7-29.1z"/><path fill="#144A95" stroke="#144A95" stroke-width=".094" d="M504.17 724.9c6.4.2 12.4-2.4 18.2-4.7 13.1 20.5 37.7 32.3 61.9 31.5 23.6 1.5 45.3-11.8 68.9-10.1 5.8.3 11.4 2.1 16.6 4.4-29 21.2-62.6 35.5-97.3 44.2-66.5 16-139 12.3-201.2-17.2-12.5-7.1-24.9-14.5-37.1-22 9.4-11.1 26.2-14.4 40-10.8 21.4 4 43.2 9.8 65.1 7.4 17.2-1.1 33.7-10.4 42.7-25.2 6.6 2.9 13.8 3.7 20.9 3.2-3.8 4.7-7.2 10.1-7 16.4.3 11.3 5.1 21.8 8.7 32.4 5.5-11.3 6.7-24.1 7.9-36.4.8-5-2.7-10.8-8.1-10.9-.1-.8-.2-1.5-.2-2.2zm220.7 24.7c6.2-4 14.2-5.5 18.8-11.6 3.6 8.1 7.2 16.3 10.8 24.5-13.9-1.3-29.4 6-34 19.8-3.6 12.6 2.3 25.6 10.6 35 7.6 9.3 19.3 18.2 32.1 14.7 14.3-4.7 22.2-19.3 26.2-32.9 6.2 7.1 12 14.5 17.8 21.9-5.3 1.4-8.7 5.9-12 9.9-8.5 10.6-19.5 20.3-33.3 22.6-14.9 2.7-29.5-5-39.8-15.3-13.8-13.5-25-32.1-23.2-52.1 1.3-15.9 12.5-29.1 26-36.5zm-475.8 20.5c6-6.8 15.2-10.9 19.2-19.4 20.8 14.9 41.5 29.9 62.2 45.1-6.9 6.2-8.1 16.2-12.5 24.1-3.2-11-11.1-20-20.9-25.7-1.3-.5-1.9 1.2-2.6 1.9-12.7 17.7-25.5 35.3-38.2 52.9-3.9 5.5-7.1 12.1-5.6 19-8.4-6.2-17-12.2-25.4-18.4 4.6-1.4 9.3-3.4 12-7.6 14.4-20 29.1-39.8 43.3-60-8.9-7.1-19.8-12.7-31.5-11.9zm91.2 32.5c15.3 6 30.5 12.3 45.7 18.6 8.9 4.2 19.2 9.8 21.7 20.2 2.3 13.9-7.3 30.6-22.4 31.6 5.7 3.8 11.1 9.7 10.8 17 .9 17-13.3 36.1-31.8 33.2-22.5-3.7-42.6-15.8-64-23.2 5.5-2.3 9.3-7.2 11.4-12.6 9.2-22.2 18.1-44.5 27.3-66.8 2.4-5.7 3.8-12.1 1.3-18m7.3 48.5c7.5 3.7 15.5 7.2 23.7 9.4 11.6 3.8 21.1-15.8 10.2-21.7-7.8-4.2-16.5-6.6-24.6-10.4-3.2 7.5-6.3 15.1-9.3 22.7m-6.9 16.8c-3.3 8.4-6.9 16.7-10.2 25 9.9 3.8 19.4 8.9 29.7 11.5 12.5 2.9 21.4-16.7 10.3-23.7-9.2-5.5-19.8-8.7-29.8-12.8zm235.6-37.1c10-3.6 20-7.1 29.9-10.7-2.9 5.8-2.4 12.4-.2 18.3 7.6 22.1 15.6 44 23.2 66.1 12.4-4.9 26.2-7.3 36.6-16 4-3.5 6.5-8.2 9.5-12.5 1.9 9.9-2.1 21.4 4 30.1-22.6 8-45.2 16-67.9 23.9 2.4-5.2 2.2-11.1.3-16.4-7.2-21.3-15-42.4-22.3-63.7-2.5-7.3-5.2-15.9-13.1-19.1z"/><path fill="#FFF" stroke="#FFF" stroke-width=".094" d="M347.57 851.1c3-7.6 6.1-15.2 9.3-22.7 8.1 3.8 16.8 6.2 24.6 10.4 10.9 5.9 1.4 25.5-10.2 21.7-8.2-2.2-16.2-5.7-23.7-9.4z"/><path fill="#144A95" stroke="#144A95" stroke-width=".094" d="M441.07 833.3c10.7.8 21.3 2.6 31.9 3.5-.9 2.6-1.7 5.4-.8 8.2 5.9 27.1 11 54.3 16.7 81.4 1.4 6.7 3.9 13 6.5 19.3-9.7-.9-19.4-2.3-29.1-3.4 5.2-6.1 3.7-14.4 2.2-21.5-15-2.2-30.2-3.8-45.3-5.5-3.4 6.5-5.7 14.4-2.3 21.4-10-1.1-19.9-2.6-29.8-3.4 4.6-5.5 8.2-11.7 11.4-18.1 12.5-24.6 24.7-49.3 37.2-73.9 1.4-2.4 1.4-5.3 1.4-8m-8.9 63.5c10.9 1.5 21.7 3 32.6 3.9-3.9-16.6-7.2-33.3-11.2-49.9-7.5 15.2-14.2 30.7-21.4 46zm70.4-57.2c10.5-1.3 20.9-3 31.4-3.5-4 4.6-5 11-4.2 17 2.8 23 5.6 46 8.3 69 6.2 1.5 13.6-1.3 20.3-1.5 12-.6 23.6-6.1 31-15.8-1 8.2-3.1 16.1-4.2 24.2-.6 2.3 1 4.3 1.9 6.4-23.9 2.8-47.8 6.2-71.8 8.5 5-5.8 4.1-13.8 3.5-20.9-2.9-22.7-5.7-45.3-8.3-68-.7-5.9-2.9-11.9-7.9-15.4z"/><path fill="#FFF" stroke="#FFF" stroke-width=".094" d="M432.17 896.8c7.2-15.3 13.9-30.8 21.4-46 4 16.6 7.3 33.3 11.2 49.9-10.9-.9-21.7-2.4-32.6-3.9zm-91.5-28.9c10 4.1 20.6 7.3 29.8 12.8 11.1 7 2.2 26.6-10.3 23.7-10.3-2.6-19.8-7.7-29.7-11.5 3.3-8.3 6.9-16.6 10.2-25z"/></svg>