<svg xmlns="http://www.w3.org/2000/svg" width="1096" height="1096" viewBox="0 0 1096 1096"><path fill="#1C2854" d="M431.058 739.705c-3.04-.76-5.666-2.645-7.693-5.472-10.279 15.845-14.613 30.01-10.834 42.723 15.813 53.349 62.922 92.747 119.34 97.995-53.92-16.363-93.826-72.5-100.813-135.246m-11.041-31.527c-3.397-2.419-6.307-4.683-8.376-6.659-3.606 13.272-5.27 27.313-4.679 41.78.116 2.922.325 5.818.616 8.686 2.086-8.549 6.196-17.481 12.085-26.59-1.14-5.33-.959-11.393.354-17.217zm2.659-8.144c1.424-3.234 3.209-6.217 5.333-8.734 1.708-2.01 3.529-3.61 5.461-4.797 5.131-23.894 15.848-45.176 31.513-61.264-23.389 16.615-41.315 40.306-50.739 67.795 1.25 1.713 4.576 4.298 8.432 7zm202.333 122.66c-11.676-1.296-27.296-4.378-34.116-6.738-7.612-2.63-14.384-8.984-18.106-17.012a34.355 34.355 0 0 1-3.159-13.082c-.125-3.199.18-6.727 1.117-10.544-42.807-13.044-88.149-31.162-119.715-48.004-1.112 2.032-2.382 3.922-3.806 5.605-2.373 2.807-5.041 4.842-7.785 6.004 2.964 26.242 12.085 51.957 26.608 74.362 19.265 29.72 45.502 50.087 73.845 56.498 10.048 2.263 23.181 5.086 34.933 2.485 43.566-9.639 79.08-39.748 96.437-79.355-2.033.361-4.318.569-6.772.653-9.939 29.058-30.844 30.079-39.481 29.128zm57.649-90.607c-.619-15.304-3.709-29.916-8.876-43.477-6.354-16.63-27.591-28.422-55.565-34.753-51.718-11.682-119.652 7.616-162.88 43.954 1.66 6.628 1.169 14.532-1.061 21.743 31.148 16.734 76.447 34.846 119.187 47.844 10.058-23.079 29.316-27.479 44.336-23.729 10.76 2.681 17.677 4.088 22.726 5.104l5.556 1.173c7.138 1.669 13.402 6.408 17.159 13.011 2.662 4.665 5.107 12.043 3.438 22.205 5.252-.307 7.794-1.187 8.381-1.882 5.605-15.977 8.335-33.259 7.599-51.193zm-24.509 53.073c1.72-8.514-.14-14.44-2.212-18.063-2.595-4.575-6.896-7.851-11.761-8.989l-5.321-1.118a484.601 484.601 0 0 1-23.092-5.191c-14.66-3.658-27.238 3.049-34.183 18.007a625.392 625.392 0 0 0 21.029 5.727c1.104-5.328 1.34-9.024 1.34-9.09a4.203 4.203 0 0 1 4.438-3.935 4.181 4.181 0 0 1 3.938 4.428c-.013.3-.284 4.538-1.556 10.586 1.357.318 2.717.638 4.05.937 1.375.315 2.728.613 4.055.894 1.195-5.894 1.966-10.902 1.986-11.005a4.194 4.194 0 0 1 4.773-3.511 4.195 4.195 0 0 1 3.529 4.771c-.061.402-.84 5.419-2.07 11.432 2.812.549 5.48 1.027 8.008 1.459.931-5.084 1.159-9.126 1.159-9.202a4.194 4.194 0 0 1 4.397-3.979c2.319.11 4.105 2.076 3.986 4.382-.015.345-.241 4.589-1.238 10.055 5.813.786 10.695 1.219 14.745 1.405zm-77.748 10.249c3.276 7.071 8.987 11.159 13.239 12.622 5.526 1.915 20.144 4.982 32.287 6.313 13.319 1.473 23.732-5.932 29.668-20.893-4.456-.256-9.229-.778-14.166-1.464-.926 3.011-2.104 6.014-3.626 8.681-1.144 2.012-3.7 2.706-5.716 1.568a4.195 4.195 0 0 1-1.568-5.726c1.007-1.768 1.839-3.775 2.529-5.843a378.171 378.171 0 0 1-7.82-1.436c-.89 3.476-1.91 6.779-2.979 9.25-.926 2.122-3.405 3.087-5.529 2.165a4.187 4.187 0 0 1-2.167-5.516c.866-1.986 1.695-4.679 2.458-7.597-1.36-.298-2.708-.597-4.042-.897a302.674 302.674 0 0 1-4.293-1.004 80.728 80.728 0 0 1-2.728 7.515c-.895 2.131-3.369 3.128-5.501 2.23-2.129-.897-3.138-3.359-2.235-5.488a67.826 67.826 0 0 0 2.293-6.239 636.89 636.89 0 0 1-21.701-5.93c-1.778 7.718-.236 13.754 1.597 17.689zM442.178 690.945c-1.86-.34-5.551-.312-9.238 3.694-5.841 6.324-8.583 14.895-8.16 25.454.117 2.693.493 4.202 1.256 6.372 1.362 3.837 4.633 6.374 7.023 6.807 2.84.519 6.047-1.14 9.041-4.68 6.541-7.754 9.362-21.973 6.153-31.044-1.332-3.783-3.486-6.128-6.075-6.603z"/><path fill="#FFF" d="M485.033 2c-54.05 0-66.863 27.69-66.863 27.69s62.365-4.504 62.365 57.039c0 27.697-15.085 46.47-31.052 66.337-18.55 23.073-39.564 49.226-39.564 93.099 0 72.625 46.696 106.696 87.894 136.752 35.892 26.191 69.789 50.924 69.789 97.497 0 46.831-20.557 83.136-29.94 92.507-15.737 15.724-29.918 18.584-41.302 20.884-11.694 2.358-22.744 4.624-25.063 21.409-43.276 25.969-69.492 72.221-69.492 122.402 0 1.956.041 3.922.119 5.889 1.555 38.137 17.881 73.387 45.968 99.25 28.085 25.87 64.574 39.254 102.736 37.699 38.168-1.553 73.44-17.868 99.332-45.923 25.891-28.063 39.288-64.523 37.725-102.649-2.363-58.217-39.338-108.673-94.189-128.54l.21.078-.748-.3c-.008-.007-1.294-.453-1.294-.453-6.937-2.393-14.807-5.111-14.807-22.937 0-17.274 7.848-18.707 23.468-21.574 9.286-1.704 20.646-3.785 31.787-10.586 19.829-12.093 23.551-26.683 19.94-30.284-4.912-4.916-10.329 5.409-30.288 11.417-7.194 2.17-14.437 3.432-19.329 3.432-4.068 0-7.105-.341-9.333-.745 10.482-19.623 22.226-35.685 22.356-35.853l2.558-3.48-3.058-3.057c-4.055-4.05-6.389-12.477-6.389-23.777 0-13.942 3.549-32.25 11.785-52.127 9.745-23.488 48.415-100.145 137.115-100.145h5.036v-5.03c0-31.684-2.898-60.824-8.606-86.61l-1.112-5.01s-8.611 2.442-15.784 4.042c-.855.188-7.564 1.835-7.868.421-.271-1.25 4.91-3.851 6.701-4.748 6.736-3.348 15.132-6.87 15.132-6.87l-1.159-4.032c-6.326-22.062-12.694-32.606-12.966-33.046l-2.055-3.361-3.748 1.186c-73.864 23.249-89.658 72.223-99.096 101.478-4.593 14.217-7.434 22.26-12.57 22.26-15.246 0-27.857-12.598-32.003-16.738-46.05-46.017-42.525-79.192-37.176-129.415 1.893-17.723 4.034-37.806 4.034-60.743C554.226 28.925 532.24 2 485.033 2"/><path fill="#1C2854" d="M572.638 480.413c0 46.64-19.91 84.57-31.414 96.061-35.647 35.621-65.051 9.682-65.369 45.418-16.176 14.638-27.814 36.892-33.525 62.31.355.035.708.084 1.056.15 3.347.61 6.222 2.521 8.418 5.539 45.276-36.869 114.986-56.254 168.268-44.216 16.941 3.826 31.308 10.074 42.192 19.636-16.363-26.443-41.376-46.851-70.943-57.44-7.02-2.515-19.494-5.394-19.494-28.145 0-42.463 46.496-9.449 77.131-55.699 1.499-2.284-.659-4.278-2.458-2.482-9.266 9.251-32.023 15.619-44.06 15.619-12.05 0-16.583-2.742-16.583-2.742 11.375-22.617 25.543-41.868 25.543-41.868-28.44-28.414 19.425-184.637 146.072-184.637 0-36.239-3.832-64.505-8.489-85.524-3.014.734-26.868 6.354-27.959 1.342-.966-4.441 17.571-14.069 23.954-17.236-6.224-21.661-12.423-31.813-12.423-31.813-108.551 34.171-86.735 123.968-113.179 123.968-17.211 0-30.732-13.386-35.56-18.211-64.836-64.772-34.619-107.641-34.619-193.716 0-57.984-22.537-79.7-64.16-79.7-41.619 0-56.49 18.007-56.49 18.007s57.026 1.845 57.026 61.693c0 62.656-70.618 79.95-70.618 159.434-.002 132.316 157.683 129.83 157.683 234.252M497.464 86.73c0-7.682-.827-14.618-2.327-20.878 0 0 12.412-.648 12.412-15.741 0-12.441-8.307-20.924-10.533-20.924-1.797 0-2.243 1.906-6.133 1.906-9.479 0-10.174-12.103-10.174-12.103 1.403-.048 2.845-.069 4.324-.069 27.141 0 52.261 8.211 52.261 67.81 0 22.04-2.09 41.652-3.931 58.954-1.825 17.088-3.512 32.984-3.027 48.505 0 0-47.262-5.566-47.262-41.092 0-23.069 14.39-28.683 14.39-66.368zm-66.406 652.975c-3.04-.76-5.666-2.645-7.693-5.472-10.279 15.845-14.613 30.01-10.834 42.723 15.813 53.349 62.922 92.747 119.34 97.995-53.92-16.363-93.826-72.5-100.813-135.246zm-11.041-31.527c-3.397-2.419-6.307-4.683-8.376-6.659-3.606 13.272-5.27 27.313-4.679 41.78.116 2.922.325 5.818.616 8.686 2.086-8.549 6.196-17.481 12.085-26.59-1.14-5.33-.959-11.393.354-17.217zm2.659-8.144c1.424-3.234 3.209-6.217 5.333-8.734 1.708-2.01 3.529-3.61 5.461-4.797 5.131-23.894 15.848-45.176 31.513-61.264-23.389 16.615-41.315 40.306-50.739 67.795 1.25 1.713 4.576 4.298 8.432 7zm202.333 122.66c-11.676-1.296-27.296-4.378-34.116-6.738-7.612-2.63-14.384-8.984-18.106-17.012a34.355 34.355 0 0 1-3.159-13.082c-.125-3.199.18-6.727 1.117-10.544-42.807-13.044-88.149-31.162-119.715-48.004-1.112 2.032-2.382 3.922-3.806 5.605-2.373 2.807-5.041 4.842-7.785 6.004 2.964 26.242 12.085 51.957 26.608 74.362 19.265 29.72 45.502 50.087 73.845 56.498 10.048 2.263 23.181 5.086 34.933 2.485 43.566-9.639 79.08-39.748 96.437-79.355-2.033.361-4.318.569-6.772.653-9.939 29.058-30.844 30.079-39.481 29.128zm48.772-134.085c-6.354-16.63-27.591-28.422-55.565-34.753-51.718-11.682-119.652 7.616-162.88 43.954 1.66 6.628 1.169 14.532-1.061 21.743 31.148 16.734 76.447 34.846 119.187 47.844 10.058-23.079 29.316-27.479 44.336-23.729 10.76 2.681 17.677 4.088 22.726 5.104l5.556 1.173c7.138 1.669 13.402 6.408 17.159 13.011 2.662 4.665 5.107 12.043 3.438 22.205 5.252-.307 7.794-1.187 8.381-1.882 5.605-15.977 8.337-33.258 7.599-51.192-.618-15.304-3.708-29.915-8.876-43.478zm-93.38 106.8c3.276 7.071 8.987 11.159 13.239 12.622 5.526 1.915 20.144 4.982 32.287 6.313 13.319 1.473 23.732-5.932 29.668-20.893-4.456-.256-9.229-.778-14.166-1.464-.926 3.011-2.104 6.014-3.626 8.681-1.144 2.012-3.7 2.706-5.716 1.568a4.195 4.195 0 0 1-1.568-5.726c1.007-1.768 1.839-3.775 2.529-5.843a378.171 378.171 0 0 1-7.82-1.436c-.89 3.476-1.91 6.779-2.979 9.25-.926 2.122-3.405 3.087-5.529 2.165a4.187 4.187 0 0 1-2.167-5.516c.866-1.986 1.695-4.679 2.458-7.597-1.36-.298-2.708-.597-4.042-.897a302.674 302.674 0 0 1-4.293-1.004 80.728 80.728 0 0 1-2.728 7.515c-.895 2.131-3.369 3.128-5.501 2.23-2.129-.897-3.138-3.359-2.235-5.488a67.826 67.826 0 0 0 2.293-6.239 636.89 636.89 0 0 1-21.701-5.93c-1.778 7.718-.236 13.754 1.597 17.689zm77.748-10.249c1.72-8.514-.14-14.44-2.212-18.063-2.595-4.575-6.896-7.851-11.761-8.989l-5.321-1.118a484.601 484.601 0 0 1-23.092-5.191c-14.66-3.658-27.238 3.049-34.183 18.007a625.392 625.392 0 0 0 21.029 5.727c1.104-5.328 1.34-9.024 1.34-9.09a4.203 4.203 0 0 1 4.438-3.935 4.181 4.181 0 0 1 3.938 4.428c-.013.3-.284 4.538-1.556 10.586 1.357.318 2.717.638 4.05.937 1.375.315 2.728.613 4.055.894 1.195-5.894 1.966-10.902 1.986-11.005a4.194 4.194 0 0 1 4.773-3.511 4.195 4.195 0 0 1 3.529 4.771c-.061.402-.84 5.419-2.07 11.432 2.812.549 5.48 1.027 8.008 1.459.931-5.084 1.159-9.126 1.159-9.202a4.194 4.194 0 0 1 4.397-3.979c2.319.11 4.105 2.076 3.986 4.382-.015.345-.241 4.589-1.238 10.055 5.813.786 10.695 1.219 14.745 1.405zm-215.971-94.215c-1.86-.34-5.551-.312-9.238 3.694-5.841 6.324-8.583 14.895-8.16 25.454.117 2.693.493 4.202 1.256 6.372 1.362 3.837 4.633 6.374 7.023 6.807 2.84.519 6.047-1.14 9.041-4.68 6.541-7.754 9.362-21.973 6.153-31.044-1.332-3.783-3.486-6.128-6.075-6.603zm-108.52 167.358c10.583 6.974 21.791 13.247 21.791 13.247l-3.923 10.158c-1.466-6.154-7.576-9.494-15.46-14.37l-25.814 37.296c-3.152 4.497-9.299 14.344-9.794 18.18 0 0-4.237-2.686-8.102-5.564-4.042-3.011-7.883-5.8-7.883-5.8 3.847-.935 10.492-10.727 14.5-16.155l25.114-35.804c-9.406-7.266-13.078-8.689-19.725-9.035l8.939-6.697s8.591 6.795 20.357 14.544m409.059 126.341l.779.854c-.729-.04-1.335.338-2.119.778l2.266 4.35c.442.805 1.068 2.027 1.479 2.117 0 0-.485.275-1.065.569-.507.249-.985.445-.985.445.007-.543-.168-.973-.771-2.21l-2.372-4.565c-.795.401-1.665.797-1.9 1.441l-.201-1.263s1.172-.567 2.436-1.219a115.152 115.152 0 0 0 2.453-1.297m-392.351-33.828c-17.931-8.551-20.314-28.29-11.486-46.769 8.868-18.556 25.771-29 43.621-20.477 17.842 8.513 20.355 28.206 11.481 46.767-8.829 18.48-25.685 29.035-43.616 20.479m29.57-61.889c-11.466-5.467-20.481 7.472-27.279 21.699-6.798 14.224-11.245 29.461.223 34.931 11.466 5.462 20.529-7.564 27.329-21.79 6.798-14.225 11.195-29.374-.273-34.84zm50.672 13.725c12.126 3.42 21.994 5.711 21.994 5.711l-1.05 10.844c-3.25-4.69-4.742-5.836-15.092-8.471l-12.549 42.159c-1.007 3.859-6.014 18.458-4.41 21.204 0 0-3.486-.742-9.112-2.302-6.326-1.751-9.299-2.937-9.299-2.937 3.245-2.131 7.327-14.611 8.662-19.685l12.611-42.44c-10.723-3.574-13.215-3.823-18.34-1.443l6.216-9.248c-.002.002 7 2.825 20.369 6.608m50.023 11.199c11.951 1.804 23.211 2.825 23.211 2.825l.452 10.881c-4.466-3.969-6.148-5.254-17.947-6.738l-6.833 43.294c-.48 3.968-3.02 19.027-1.056 21.524 0 0-4.139-.458-9.855-1.257-5.716-.811-9.228-1.616-9.228-1.616 2.791-2.178 5.112-16.437 5.597-20.408l7.001-43.833c-10.225-2.04-12.326-1.257-17.236 1.588l4.451-10.295c-.002-.002 9.546 2.239 21.443 4.035m44.314 41.164l-.9 29.095c15.269.201 25.721-.764 30.376-7.383l-2.335 13.219s-8.457.172-20.841 0c-13.61-.195-24.292-1.082-24.292-1.082 2.266-2.241 2.827-16.42 2.854-20.406l1.244-28.556c.054-7.604.749-19.893-1.806-22.476 11.062.764 9.654.75 19.813 1.144 13.301.528 20.834.132 20.834.132l1.674 10.915c-5.192-4.331-12.978-4.839-25.688-4.913l-.7 24.42 19.52.111c1.758.02 1.868.998 1.863 2.955-.021 1.928-.048 2.955-1.903 2.935l-19.713-.11m85.263 8.758c1.126 10.587 2.243 18.193 4.659 19.582-.604 1.095-2.519 2.531-5.06 2.802-3.062.327-5.377-1.179-7.501-3.635l-34.614-39.673 1.304 25.24c.419 3.968.876 19.004 3.347 21.011l-11.534.524c2.007-2.477 1.474-16.804 1.048-20.782l-1.631-28.483c-.423-3.969-1.167-19.722-3.646-21.712l10.576-.383 35.474 42.098-2.951-24.222c-.422-3.983-2.581-18.416-4.968-20.422 0 0 1.273-.124 5.579-.708 4.298-.584 5.863-.896 5.863-.896-1.994 2.484.319 17.291.748 21.262l3.307 28.397m65.032-15.01c1.23 4.926 3.669 17.575 7.287 20.051 0 0-5.475 1.583-8.822 2.611-2.979.915-9.542 2.615-9.542 2.615 1.548-2.733-1.903-17.916-2.855-21.706l-3.289-13.211-21.994 5.391 2.5 13.434c.723 4.344 3.014 18.958 5.98 20.742 0 0-3.076.637-9.487 1.949-5.367 1.103-9.107 1.694-9.107 1.694 1.647-2.734-.561-16.288-1.243-20.611l-5.331-28.403c-.972-5.294-3.418-18.686-6.361-20.254 0 0 2.854-.541 9.134-1.761 6.283-1.222 9.362-2.055 9.362-2.055-1.548 3.179 1.18 16.031 1.923 20.533l1.692 9.014 21.643-5.272-2.334-9.209c-1.273-4.88-3.96-16.585-6.967-18.757 0 0 2.971-.859 8.992-2.569 6.023-1.699 8.619-2.67 8.619-2.67-1.193 3.247 2.156 14.649 3.542 20.525l6.658 27.919m40.183-16.836l-21.461 8.397.744 11.776c.479 4.019.494 7.711 1.375 9.792a4.152 4.152 0 0 0 1.883 2.088s-2.238.813-5.925 2.007c-3.689 1.192-5.716 1.778-5.716 1.778 1.286-2.218 1.598-5.269 1.485-9.078l-1.891-55.826c-.178-2.027-.423-3.928-1.096-5.523-.596-1.423-1.603-2.223-2.304-2.818 2.443-1.583 5.501-3.318 8.611-4.621 4.93-2.076 7.01-1.992 10.606 2.198l31.486 39.018c5.724 7.447 10.786 12.457 14.079 13.455 0 0-3.217 1.484-9.271 4.177-6.051 2.685-10.056 4.212-10.056 4.212.36-1.263.401-2.602-.388-4.614-.842-2.172-3.94-5.849-5.938-8.638l-6.223-7.78m-3.895-4.621l-19.071-26.404 1.345 33.162 17.726-6.758zm93.817-15.618a926.598 926.598 0 0 0-7.549 5.134c-.317-4.245-8.52-14.738-10.93-17.922l-18.495-24.107 14.878 47.524c-.579.945-1.632 2.264-2.613 3.005-2.936 2.23-5.792 1.791-8.401-.262l-35.22-29.173 12.328 22.685c3.015 5.745 8.827 17.702 12.738 18.881 0 0-2.431 1.298-5.509 2.789-3.055 1.478-4.923 2.347-4.923 2.347.682-3.338-5.041-13.26-8.373-19.611l-13.717-25.779c-4.161-7.757-8.751-15.653-12.694-17.228a1001.24 1001.24 0 0 0 8.333-4.081c3.638-1.791 6.843-3.546 6.843-3.546l39.653 33.703-15.597-47.719s2.089-1.417 6.054-4.06c3.955-2.645 7.523-5.274 7.523-5.274.3 4.268 8.558 15.149 11.565 19.042l17.078 21.955c3.623 4.517 10.395 14.573 15.216 15.724-.006-.004-3.867 3.05-8.188 5.973m-53.811 70.819l1.946 2.492c.571.694 1.147 1.553 1.758 1.811 0 0-.508.361-1 .694-.492.325-.857.584-.857.584-.137-.671-.962-1.713-1.233-2.076l-2.07-2.733 1.693 5.393a1.317 1.317 0 0 1-.3.338c-.444.341-.771.147-1.068-.089l-4.078-3.255 1.593 2.581c.378.666 1.061 1.895 1.604 2.146l-.667.394c-.32.188-.634.348-.634.348.076-.653-.748-1.936-.994-2.38l-1.75-2.929c-.401-.665-1.033-1.638-1.598-1.803 0 0 .546-.285 1.084-.584.338-.186.677-.404.881-.516l4.512 3.753-1.736-5.35c.167-.076.429-.237.833-.486.52-.318.952-.609.952-.609 0 .652.756 1.775 1.129 2.276m-352.007 15.952a622.746 622.746 0 0 0 8.418 2.992c-3.993 2.893-7.66 14.397-10.042 20.644l-9.21 25.53c-2.464 6.93-6.666 16.973-5.258 20.558 0 0-5.067-1.748-9.167-3.203-3.507-1.25-5.499-1.916-9.215-3.504 4.514-1.196 8.769-16.198 10.154-19.971l4.215-11.915-22.072-9.194-6.382 13.628c-2.078 4.733-7.049 15.452-5.867 18.81 0 0-3.898-1.588-9.606-4.212-6.722-3.092-8.186-3.912-8.186-3.912 4.737-2.325 7.541-9.966 11.147-17.683l11.542-25.54c3.9-8.744 7.422-16.321 7.158-21.305 0 0 2.061 1.229 7.737 3.776 4.522 2.032 6.833 3.048 9.37 4.065-3.591 1.428-8.591 14.314-11.23 20.096l-3.382 7.218 21.562 8.876 3.308-8.181c1.548-4.179 6.896-16.668 5.742-20.944 0-.002 4.425 1.603 9.264 3.371m24.933 82.853c-19.222-5.051-25.335-23.65-20.237-43.024 5.125-19.478 19.68-32.529 38.808-27.497 19.119 5.023 25.361 23.543 20.245 43.02-5.105 19.382-19.591 32.552-38.816 27.501m17.094-64.908c-12.286-3.227-18.634 10.845-22.564 25.766-3.94 14.911-5.356 30.393 6.922 33.627 12.286 3.219 18.669-10.952 22.592-25.865 3.938-14.917 5.333-30.295-6.95-33.528zm34.972 71.765s1.223-1.321 2.057-4.012c1.175-3.781 1.931-11.052 2.836-16.724l5.382-41.579c-11.466-1.436-14.377-.612-19.413 2.366l4.724-10.647c3.57.792 11.481 1.646 21.105 2.86 6.44.805 25.621 2.535 25.621 2.535l.652 10.648c-4.23-4.89-8.619-5.333-18.175-6.084l-5.361 41.719c-.48 3.884-2.613 17.36-.498 21.349a725.064 725.064 0 0 0-9.329-1.013c-3.321-.338-7.691-1.094-9.601-1.418m91.366-14.442c.134 12.517-10.056 21.58-25.73 21.349-12.189-.178-18.563-5.19-21.003-7.23l2.537-11.879c3.785 7.569 10.056 13.073 17.117 13.183 7.376.104 13.181-4.233 13.301-11.539.076-5.31-2.849-8.516-15.153-14.913-11.793-6.084-16.181-12.156-16.181-21.206 0-12.325 10.728-18.584 23.335-18.587 9.269-.008 15.736 2.83 19.799 5l-2.619 10.884c-5.623-7.503-10.715-10.284-16.855-10.368-6.049-.099-10.332 3.198-10.292 9.408.041 6.768 7.493 10.429 17.543 16.037 11.556 6.461 14.134 12.937 14.201 19.861m57.074-38.345c.446 1.469.716 3.254.855 4.655.119 1.291.182 3.003.028 4.622-.332 4.057-2.258 8.77-5.445 12.086-4.867 5.079-11.21 7.604-19.619 7.997-3.245.199-4.021-.792-4.237-3.13l-.02-.508s-.069-.904.639-.952l.814-.081c2.486-.308 6.173-1.085 9.13-4.678 2.836-3.697 3.806-8.612 3.313-13.9-.526-5.493-2.179-9.451-5.874-12.294-3.209-2.464-6.98-3.264-10.862-2.957 0 0-1.556.132-3.284.404 0 0-1.013.089-.926 1.08l4.166 43.126c.361 3.795 1.398 17.159 4.514 19.916 0 0-3.547.374-10.23.922-5.097.417-9.068.519-9.068.519 1.34-3.31 1.117-8.203.784-13.9l-3.23-34.006c-.366-3.892-1.025-17.232-4.201-20.527 0 0 8.543-1.263 24.348-2.754 8.266-.783 15.036.27 20.875 4.218 3.822 2.573 6.448 6.318 7.53 10.142m64.67 13.906c3.384 14.948-3.638 27.674-19.203 31.561-10.938 2.733-26.688-1.276-31.085-20.449l-5.354-22.636c-1.409-6.338-3.714-17.556-7.394-20.479 0 0 4.111-.582 10.55-1.783s9.429-1.916 9.429-1.916c-1.692 2.663.084 13.152 1.766 20.855l6.835 28.774c1.22 5.274 2.943 8.884 5.902 11.013 2.193 1.583 5.123 2.015 8.173 1.459 2.778-.516 5.668-2.083 7.181-4.893 1.606-2.949 1.598-7.215.361-12.484l-7.672-28.774c-2.099-7.921-4.516-17.833-7.114-19.492 0 0 3.126-.846 9.05-2.54 4.486-1.276 7.153-2.055 9.089-2.736-1.771 4.332 2.444 17.614 3.339 21.415l6.147 23.105m69.893-5.898c1.509.577 3.133.973 4.496.394-.155.938-1.036 2.812-2.514 4.324-6.293 6.445-12.202 5.337-14.203 4.545-10.854-4.136-29.002-20.207-29.75-21.961 0 0-.186-.458.284-.653l.659-.29c2.834-1.179 6.051-4.38 7.32-7.409 2.029-4.443 1.687-8.432-.375-13.317-2.132-5.079-5.867-8.279-8.792-9.139-4.326-1.276-7.554-.264-9.522.519 0 0-2.596 1.021-3.369 1.798 0 0-.522.43.084 2.2l13.711 39.128c2.083 5.755 5.701 16.983 8.979 18.876 0 0-3.704 1.456-9.32 3.483-5.618 2.027-9.035 2.97-9.035 2.97 1.144-4.37-3.182-16.25-4.273-19.583l-8.866-26.422c-2.217-6.369-6.264-17.784-9.558-19.611 0 0 6.473-1.811 21.024-7.917 7.737-3.247 15.236-4.636 21.999-2.657 4.105 1.206 6.878 3.265 9.147 6.55.868 1.271 1.505 2.52 2.056 3.814.505 1.202.853 2.582 1.083 3.865.716 3.993.116 8.237-2.195 12.241 0 0-2.085 4.032-6.534 7.195 0-.001 14.292 12.097 27.464 17.057"/></svg>