<svg xmlns="http://www.w3.org/2000/svg" width="522" height="522" viewBox="0 0 522 522"><path fill="#020202" d="M84.837 25v6.003c-.014 233.029-.003 233.16.013 233.429 11.328 157.585 172.707 231.864 174.333 232.591l2.462 1.107 2.462-1.107c1.63-.732 162.784-75.011 174.107-232.558.021-.307.026-.433.013-233.462V25H84.837z"/><path fill="#F4B11B" d="M96.842 90.059c-.003 68.745-.006 173.535-.017 173.541 10.075 140.109 145.23 211.638 164.819 221.288 19.566-9.649 154.528-81.16 164.577-220.907V90.06l-329.379-.001z"/><path fill="#FFF" d="M126.159 37.464v40.501h-10.533V60.952h-3.148v17.013h-10.533V37.464h10.533V51.95h3.148V37.464h10.533m29.454 0v27.068c0 3.07-.101 5.23-.304 6.481-.199 1.234-.789 2.507-1.774 3.829-.985 1.3-2.288 2.291-3.902 2.976-1.603.671-3.492.998-5.678.998-2.419 0-4.55-.393-6.409-1.198-1.849-.799-3.23-1.847-4.147-3.133-.92-1.279-1.463-2.634-1.63-4.048-.168-1.435-.249-4.438-.249-9.008V37.464h10.533v30.375c0 1.767.091 2.899.272 3.397.203.484.599.723 1.182.723.664 0 1.093-.262 1.271-.795.2-.55.302-1.839.302-3.855V37.464h10.533m15.892 0v32.397h6.401v8.104h-16.931V37.464h10.53m20.766 0v32.397h6.41v8.104h-16.939V37.464h10.529m45.146 17.665h-10.536v-7.06c0-2.05-.115-3.326-.351-3.827-.212-.517-.71-.773-1.472-.773-.865 0-1.421.312-1.65.927-.235.616-.353 1.951-.353 4v18.811c0 1.97.118 3.256.353 3.855.229.603.76.897 1.575.897.786 0 1.297-.294 1.522-.897.255-.599.376-2.006.376-4.232v-5.073h10.536v1.579c0 4.188-.301 7.151-.904 8.905-.582 1.751-1.892 3.287-3.928 4.599-2.019 1.323-4.513 1.977-7.482 1.977-3.083 0-5.623-.557-7.626-1.675-2-1.113-3.325-2.661-3.977-4.625-.651-1.984-.979-4.959-.979-8.936V51.748c0-2.913.102-5.1.302-6.552.202-1.469.792-2.877 1.777-4.232.998-1.345 2.373-2.406 4.13-3.178 1.76-.783 3.793-1.172 6.078-1.172 3.096 0 5.659.603 7.675 1.803 2.026 1.201 3.345 2.701 3.984 4.498.628 1.791.942 4.572.949 8.36l.001 3.854m5.054-17.665h10.533v40.5h-10.533zm37.255 0v8.104h-6.245v32.397h-10.537V45.568h-6.225v-8.104h23.007m27.41 0l-7.679 25.841v14.66h-9.755v-14.66l-7.409-25.841h9.688c1.511 7.891 2.364 13.199 2.552 15.933.584-4.317 1.552-9.633 2.92-15.933h9.683m26.007 26.044c-.538-4.585-1.067-10.251-1.604-16.988-1.066 7.735-1.735 13.4-2.003 16.988h3.607m5.578-26.044l6.021 40.5h-10.775l-.53-7.279h-3.776l-.623 7.279h-10.911l5.354-40.5h15.24zm9.183 32.25h7.633v8.258h-7.633zm11.947-32.25h17.831v8.104h-7.304v7.682h6.505v7.702h-6.505v17.013h-10.527V37.464m17.753 32.25h7.632v8.258h-7.632zm36.535-14.585h-10.54v-7.06c0-2.05-.111-3.326-.347-3.827-.215-.517-.707-.773-1.479-.773-.865 0-1.414.312-1.65.927-.229.616-.353 1.951-.353 4v18.811c0 1.97.123 3.256.353 3.855.237.603.759.897 1.585.897.778 0 1.289-.294 1.518-.897.255-.599.374-2.006.374-4.232v-5.073h10.54v1.579c0 4.188-.301 7.151-.912 8.905-.574 1.751-1.885 3.287-3.927 4.599-2.017 1.323-4.504 1.977-7.476 1.977-3.083 0-5.63-.557-7.633-1.675-2.001-1.113-3.325-2.661-3.979-4.625-.649-1.984-.969-4.959-.969-8.936V51.748c0-2.913.098-5.1.301-6.552.196-1.469.786-2.877 1.772-4.232 1.002-1.345 2.377-2.406 4.125-3.178 1.774-.783 3.804-1.172 6.088-1.172 3.096 0 5.655.603 7.671 1.803 2.024 1.201 3.345 2.701 3.986 4.498.628 1.791.95 4.572.95 8.36v3.854m3.849 14.585h7.633v8.258h-7.633zm-20.05 89.59c1.153-5.812 2.372-16.451 2.372-17.798 0-7.241-2.449-18.124-12.178-18.124-2.166 0-4.09.206-6.245 2.002.028.429 1.022.776 2.181 2.01-2.389 4.834-8.104 4.936-12.025 7.443-1.486.943-2.527 2.733-3.737 3.947-.883.885-2.41.845-3.286 1.454-.877.609-.739 2.979-2.155 3.99-2.447 1.688-6.016 1.313-8.561 2.203 2.514 2.53 1.165 6.163 4.876 6.163 7.849 0 11.503-8.654 19.75-8.654 1.349 0 3.398.046 5.132 1.287-1.237 2.36-3.796 1.06-6.101 2.072-2.305 1.011-3.574 3.256-5.328 5.014-.883.878-2.279.718-3.09 1.797-1.885 2.566-.687 4.978-3.6 4.978-1.348 0-2.735-.743-4.353-.952-1.251-.155-2.513-.004-3.777.147l5.407 8.493 10.721 4.727 1.63 7.079.597.691c.595.022 1.38.173 2.094.173 8.993 0 18.117-12.228 19.676-20.142zm-160.941 47.332c3.192 5.597 4.413 13.58 10.586 20.222-1.388-.563-3.398-.354-4.573-.91-1.889-.952-3.122-3.019-4.478-3.019-1.353 0-1.159.466-1.633.915v1.501c.678 2.246 4.651 2.203 6.877 3.149 1.629.677 3.833 2.595 5.558 4.01-3.012-.383-7.554-2.541-8.902-2.541-3.587 0-3.755 3.499-6.013 7.568-.35-2.956-5.935-5.764-7.469-6.49l-.864.863c1.726 2.508.089 7.522 5.365 7.878v1.944c-2.219 1.708-4.189 4.215-6.556 5.84-3.044 2.097-7.021 3.43-10.195 6.045v1.904c1.466.429 3.544-.127 5.816-.102.625.596.703.25.703 1.601 0 5.611-11.763 5.943-13.252 5.943-10.684 0-47.218-8.529-49.449-9.301v-1.95c8.977-3.597 17.127-15.063 15.438-23.039-.344-1.555.193-3.303.34-5.168 1.899 1.1 4.183 2.677 5.539 2.677 1.354 0 1.394-.418 1.694-.866-.743-4.504 2.845-12.245 8.521-13.601 4.196-.946 9.204-1.22 13.917-2.206-.056-.367-1.086-.75-1.495-1.299-.684-1.093-.154-2.2-.677-3.237-.507-.51-.046-.429-1.401-.429-1.353 0-1.575.668-2.662.871-1.62.269-3.318-.289-4.805.321-7.24 3.178-19.111 6.249-19.445 14.994-1.342-.526-2.353-.507-4.929-1.051l-.896.871c1.044 1.421 3.25 2.923 3.25 4.279 0 5.073-15.96 8.385-17.852 8.385-2.098 0-3.613-.471-5.375-3.722h8.278c3.855-.065 10.375-4.824 8.654-9.027 2.225.314 3.263-2.32 4.833-3.862 3.755-.095 5.725-5.954 7.62-8.051.746-.81 2.736-1.107 3.414-2.258.743-1.215 1.594-6.072 4.396-6.563 0 0 .102 1.293.076 2.271.487.452.026.376 1.371.376 1.355 0 3.112-2.129 5.352-3.445 3.326.195 8.444-1.428 9.8-1.428 1.354 0 3.25 1.087 4.598 1.087 1.355 0 2.855-.517 4.269-1.047v2.87c.062 1.355-1.562 1.963-1.562 3.313 0 2.298 1.823 1.896 2.167 1.896 2.566 0 6.537-3.601 8.795-7.017h6.556c1.352-.014 4.906 2.412 6.735 3.966 1.144.98 2.665 3.277 3.965 4.069m19.4 47.977l.111-.566c-.029.19-.085.379-.111.566zm-81.808 37.628c-1.125.26-2.481-.059-3.309-.08-.455.485-.376.289-.376 1.644 0 13.316 28.803 21.433 30.024 21.433 2.166-.066 4.33.747 6.689.824.082 1.277-1.623 2.009-2.628 2.874 1.502.883 4.324 1.918 5.678 1.918 13.394 0 22.202-11.261 28.221-26.342 1.49-3.654 1.964-8.313 3.587-12.438 2.409-6.028 6.779-14.086 11.341-19.999 1.205-2.86 1.878-4.653 2.092-5.239-1.483 1.197-3.663 1.59-5.009 2.936-1.829 1.827-3.096 3.836-4.719 5.8-1.08 1.354-.167 3.855-.844 5.354-2.023 4.458-4.619 9.302-7.593 13.558-.747 1.085-2.527 1.662-3.977 3.227-.115.478.435.948.435 2.311 0 7.097-10.195 7.973-13.088 8.052-.452 1.492.104 3.029.084 4.759a4.026 4.026 0 0 1-2.955 1.249c-2.092 0-6.762-2.526-8.769-4.896-.428.025-1.241.569-1.241 1.917 0 1.017 1.912 7.692 3.78 10.344 0 0 .01.752-1.346.752-1.354 0-2.896-1.702-3.888-2.717h-11.73c-1.355.007-2.707-2.599-4.541-3.678-.877-.543-2.189-.151-3.217-1.009.592-6.487-9.666-5.191-12.052-10.12-.004-.183.148-.386.255-.583-.259-.399-.596-1.047-.904-1.851zm-29.11-30.67c1.299-.745 8.11-1.374 8.11-4.831 0-1.989-2.641-5.105-4.56-7.151-1.011-1.07-1.816-1.849-1.927-2.016 1.247-2.582 2.246-1.842 3.826-3.381v-2.426c-4.867-.306-3.152 3.889-5.449 3.889-1.355 0-2.017-1.113-2.468-1.348-3.358-4.029-2.17-8.88-4.203-12.87-.401-.877-2.526-2.285-2.526-3.64 0-1.353.811-7.333 1.214-10.585.138-1.11.998-2.75 2.461-4.147l-.105-.203c-.501-.242-1.312-.236-2.317-.436-.366-.225-.756-.769-1.172-1.414-.249-.376-.503-.786-.772-1.181 0 0-.314-.508-.629-.969-.442.802-.644 1.518-.703 2.156-.134 1.395.396 2.341.396 2.714 0 1.348-2.108 2.366-2.577 4.123-.543 2.03-.671 4.799-.671 6.154 0 1.355.671 5.207 1.208 7.234.474 1.761 3.123 3.587 3.123 4.939 0 1.354-1.083 1.897-1.083 3.243 0 1.355 1.518 1.951 3.001 3.099.615 2.203-.289 4.874-.089 7.063.056.576.189 1.126.438 1.624 2.976 5.81 5.85.998 5.85 6.071 0 .55-.272.949-.7 1.378.704 1.411 2.579 3.264 2.579 3.264l.091-.026c-.111-.117-.238-.21-.346-.327zm94.71-100.034h-.04c-2.284 2.929-3.237 3.165-3.237 5.937 0 1.624-.082 3.004 2.988 4.599 3.204-1.198 2.288-3.741 2.448-5.79.596-.625 1.326-.704 2.681-.704.36 0 1.329.357 2.56.862-2.484-2.845-3.931-4.089-5.198-4.586-.743-.096-2.124-.309-2.202-.318zm-85.012 17.648v1.751c.036 1.346-2.144 3.417-2.848 5.093v.678c2.762-2.988 3.554-5.33 7.073-7.502.16-.461.148-1.516.321-2.144a10.195 10.195 0 0 1 4.588-1.859c.148-.115.334-.274.495-.399.815-.861 1.25-2.115 1.414-3.688 4.223-2.259 5.04-5.417 6.307-9.038 0 0 .079-.36-.242-.828-.884 1.505-1.823 3.25-2.7 4.736-.679 1.156-2.649 1.578-3.46 2.729-1.153 1.624-2.73 4.438-5.23 4.438-1.352 0-2.492.282-4.632-1.859-3.162-4.421-2.131-6.251-2.131-7.605 0-2.099 2.167-4.056 3.244-4.056 1.354 0 3.171 2.782 4.645 4.33.919-.517 1.931-1.004 2.952-1.996-.089-2.193-5.564-5.041-7.321-5.041-1.352 0-2.976 2.707-4.33 2.707-1.356 0-1.081-.543-1.817-.625-.072-.73-.615-.462-.615-1.813 0-1.175.802-1.604 1.151-2.033-.32.029-1.669.288-2.773 1.894-1.357 4.283-2.708 8.533-2.708 9.607 0 3.044 3.793 12.311 8.617 12.523z"/><path fill="#FFF" d="M236.995 206.636c3.192 5.597 4.413 13.58 10.586 20.222-1.388-.563-3.398-.354-4.573-.91-1.889-.952-3.122-3.019-4.478-3.019-1.353 0-1.159.466-1.633.915v1.501c.678 2.246 4.651 2.203 6.877 3.149 1.629.677 3.833 2.595 5.558 4.01-3.012-.383-7.554-2.541-8.902-2.541-3.587 0-3.755 3.499-6.013 7.568-.35-2.956-5.935-5.764-7.469-6.49l-.864.863c1.726 2.508.089 7.522 5.365 7.878v1.944c-2.219 1.708-4.189 4.215-6.556 5.84-3.044 2.097-7.021 3.43-10.195 6.045v1.904c1.466.429 3.544-.127 5.816-.102.625.596.703.25.703 1.601 0 5.611-11.763 5.943-13.252 5.943-10.684 0-47.218-8.529-49.449-9.301v-1.95c8.977-3.597 17.127-15.063 15.438-23.039-.344-1.555.193-3.303.34-5.168 1.899 1.1 4.183 2.677 5.539 2.677 1.354 0 1.394-.418 1.694-.866-.743-4.504 2.845-12.245 8.521-13.601 4.196-.946 9.204-1.22 13.917-2.206-.056-.367-1.086-.75-1.495-1.299-.684-1.093-.154-2.2-.677-3.237-.507-.51-.046-.429-1.401-.429-1.353 0-1.575.668-2.662.871-1.62.269-3.318-.289-4.805.321-7.24 3.178-19.111 6.249-19.445 14.994-1.342-.526-2.353-.507-4.929-1.051l-.896.871c1.044 1.421 3.25 2.923 3.25 4.279 0 5.073-15.96 8.385-17.852 8.385-2.098 0-3.613-.471-5.375-3.722h8.278c3.855-.065 10.375-4.824 8.654-9.027 2.225.314 3.263-2.32 4.833-3.862 3.755-.095 5.725-5.954 7.62-8.051.746-.81 2.736-1.107 3.414-2.258.743-1.215 1.594-6.072 4.396-6.563 0 0 .102 1.293.076 2.271.487.452.026.376 1.371.376 1.355 0 3.112-2.129 5.352-3.445 3.326.195 8.444-1.428 9.8-1.428 1.354 0 3.25 1.087 4.598 1.087 1.355 0 2.855-.517 4.269-1.047v2.87c.062 1.355-1.562 1.963-1.562 3.313 0 2.298 1.823 1.896 2.167 1.896 2.566 0 6.537-3.601 8.795-7.017h6.556c1.352-.014 4.906 2.412 6.735 3.966 1.144.98 2.665 3.277 3.965 4.069m-12.385-37.218h1.929c1.57 6.926 6.987 8.608 11.723 8.608 1.349 0 4.259-1.074 6.74-1.469-2.252 1.951-4.995 3.6-7.028 4.526.53.878.825 1.267 2.18 1.267 5.007 0 10.817-7.034 13.796-7.034 1.351 0 2.896 1.163 4.592 2.917-2.985 8.607-13.073 10.746-18.932 11.691l-23.808-4.324c-1.644.27-4.252 2.628-6.458 2.01.605-1.522 8.218-4.717 9.171-4.717 1.348 0 6.756 1.62 8.11 1.62 1.355 0 3.434-.521 4.88-.864-3.299-2.713-9.748-4.343-9.748-8.333.002-1.352 1.672-4.21 2.853-5.898"/><path fill="#FFF" d="M158.206 239.701c.779 1.809 2.877 3.868 4.56 5.859h-4.144c-.623-.531-1.785-.993-1.785-2.344 0-1.349.57-2.288 1.369-3.515m26.289 23.899c5.558 1.539 13.246 3.824 18.83 3.824-3.303 6.554-3.479 9.454-3.316 14.421-4.31-1.447-7.597-9.577-8.192-14.185-2.131-2.987-5.744-.118-7.322-4.06m-30.325 1.572h3.951c1.352-.046 1.787 1.054 2.231 1.262.802 2.678 1.326 5.879 2.906 9.42-1.58-.399-9.128-5.25-9.089-7.684l.001-2.998"/><path fill="#020202" d="M384.308 211.006c-.322-.455-.51-1.061-.878-.999-.446-2.547-1.033-4.815-2.264-6.543-1.27.556-2.24.53-2.998.645.693 2.324 1.891 4.992 2.604 6.903v.006c.355.953.589 1.722.589 2.171 0 1.354.08 1.162-.275 1.623-.34-.461-.537-1.623-1.885-1.623-1.355 0-4.242 2.206-4.721 3.561-1.086 2.976-1.772 8.271-1.759 9.626v1.823c6.676 4.022 5.014 11.142 7.724 16.892l.891-.536c.026-1.875-.51-3.231-.51-4.586 0-1.42 1.558-2.906 3.397-3.001l.93.891c-1.067 2.556-2.168 6.166-2.168 7.521s.577 2.828 1.297 4.056l1.087-1.086c.131.395.275.811.417 1.24.767 2.38 1.527 5.195 1.527 6.343 0 2.233-1.213 5.726.739 8.015 1.151 1.356 3.863 3.346 5.21 3.346.543 0 4.334-1.689 4.295-4.667v-5.011h-1.964c-.629.563-1.703 1.096-2.107 1.568-2.148-.914-1.906-6.825-1.847-9.594v-.691c0-1.354 0-5.086.353-7.586 1.362 1.496 3.247-.543 4.712-1.081 2.037 2.71 1.218 6.497 2.372 9.358.654 1.604 1.916 2.91 4.646 3.568-.17-1.242-.34-1.944-.549-3.083l-.026-.485c-.669-3.57-1.467-6.709-2.181-9.679-.608-2.641.543-5.924.216-8.627-.144-1.086-.961-2.324-1.427-2.674 1.002-.894 1.362-1.893 1.78-1.918l2.173 2.131h3.025c-.353-2.56-3.863-7.512-5.617-7.512-1.362 0-.275 1.076-1.624 1.076-1.361 0-3.575-3.135-5.146-5.118.458-.371 1.349-.832 1.794-.851.989 1.023 2.264 3.269 3.613 3.269 1.362 0 2.166-1.63 3.515-1.63 1.355 0 3.371-.025 4.589-.735-1.198-2.118-2.972-4.439-4.654-6.308a29.347 29.347 0 0 0-1.828-1.876c1.277-1.168 2.397-1.214 3.248-2.743-1.165-1.24-2.192-1.708-2.743-2.526.853.127 1.931.127 3.24.013-.51-1.866-1.61-2.985-2.133-3.863.943-.378 1.636-1.708 1.61-2.372-3.338-2.265-6.521-4.37-8.653-6.789 1.911.154 4.084 1.235 5.431 1.235 1.357 0 1.545-.082 2.168-.811-1.159-1.277-2.194-2.825-2.75-3.647 1.396.124 1.939.667 3.293.667s.812-.544 1.545-.616c.078-.735-.551-1.476-.551-1.476-2.513-1.063-2.029-4.337-2.336-5.368-2.572-1.689-5.82-2.776-8.405-4.229 1.041-1.418 3.201-3.581 4.156-5.097 3.621 1.087 7.345 2.147 10.997 4.063-.928.308-2.014.308-3.207.932v1.882c2.75 2.796 6.023 4.989 8.078 6.409-1.544 1.414-3.064 2.435-4.831 3.057v1.879c.137.271 6.729 10.471 8.955 10.415h2.317c-.504-1.925-1.617-3.613-2.658-5.041l.837-.857c4.694 3.332 9.716 8.654 14.585 8.654 1.35 0 1.27-.075 1.885-.845-2.828-1.816-5.459-3.914-7.038-5.852.95-.363 1.552-.952 2.173-1.669-2.218-2.891-4.968-5.636-7.573-7.593l1.624-1.604c-1.676-2.347-3.862-3.997-5.951-5.974.464-.347 1.355-.268 2.122-.334v-3.378c.044-4.874-15.07-18.587-16.734-21.772l.544-17.792c-.34-9.21-4.667-16.503-13.524-16.503-10.016 0-37.195 10.82-43.559 10.82-4.392 0-8.615-5.067-10.605-8.218 4.053 1.178 10.344 3.352 11.691 3.352.275 0 1.978-.18 3.51-2.507-5.022-2.341-9.688-4.504-14.219-6.536-1.493-.678-3.398-.341-4.884-.884-2.84-1.011-5.879-3.446-8.653-4.524-8.93-3.521-20.758-7.527-30.061-8.716.485 1.876 1.021 3.447 1.205 4.995 4.306 1.914 8.602 2.988 12.253 4.952-.458.314-1.622.235-1.622 1.583 0 1.352 5.957 9.473 5.957 10.825 0 1.348-.518 2.821.131 4.022 2.042-.102 6.912-.416 7.986 2.393-2.055 1.482-5.681 4.13-7.043 4.13-1.349 0-1.807-1.135-2.894-1.477-2.094-.671-4.306-1.234-5.864-2.454-1.689-1.352-6.363-4.046-8.464-4.108-.085 1.816.451 3.983.492 5.462-2.05.985-4.244.998-5.99 2.301 2.271 1.85 4.968 2.38 7.404 4.458.183 2.062 2.336 4.478 2.336 5.83 0 1.348-.34.818-.34.818-1.401-1.044-3.286-1.172-4.092-1.774-3.718-2.844-2.055-4.182-5.578-4.182-1.347 0-4.496 1.138-6.611 2.88.538 2.724-3.587 7.662-4.333 10.297-.608 2.097-.68 4.336-1.007 6.3-2.848-3.819-4.687-5.954-6.979-5.954-.68 0-6.225.947-6.225 2.704 0 1.355 2.704 3.25 2.704 4.6 0 4.394-6.29 9.467-10.279 9.467-1.354 0-11.093-4.87-12.441-4.87-1.355 0-2.085.079-2.681.704-.16 2.049.755 4.592-2.448 5.79-3.07-1.595-2.988-2.975-2.988-4.599 0-2.775.953-3.007 3.244-5.944 0 0 2.72.416 2.688.367-1.353-1.639-3.987-1.722-3.987-1.722-2.857 1.099-7.355 3.244-8.709 3.244-1.352 0-1.078-1.087-2.433-1.087-7.849 0-8.909 14.48-16.509 15.868-.752 1.018-.792 2.883-.465 3.862-1.125 2.196-5.073 2.452-6.562 2.452-1.352 0-8.117-3.244-9.469-3.244-1.35 0-7.06 1.208-8.104 3.05 6.434 3.143 13.498 2.854 18.927 6.442-.46.327-1.004 1.407-1.453 1.876h-8.487c-1.355-.008-5.483-1.627-6.831-1.627-1.354 0-4.15.557-5.898 1.185-.19 2.723-2.831 4.222-3.843 4.222-1.352 0-.622-2.624-1.368-3.243-2.357 2.802-6.205 7.578-6.205 8.923 0 1.354.082 1.273.703 1.875 1.188.023 2.079-.059 2.547.337-1.333 2.68-3.577 2.877-5.656 5.093-.887-1.5-.959-3.205-2.729-4.331-2.246 1.329-3.706.906-5.591 1.826-1.044 1.407-2.078 2.772-3.07 4.114-1.944 2.636-3.735 5.194-5.143 7.898.618.694.658 1.273.658 1.273h2.441c1.715-2.232 3.391-6.451 4.746-6.451 1.352 0 .815 1.316.815 1.316-4.376 3.754-4.331 8.961-9.737 8.961-1.356 0-1.169.083-1.637-.363v-2.547c.006-1.351 1.764-3.819 1.97-5.443.154-1.486-.039-3.167.154-4.638.147-1.06.497-2.019 1.342-2.707.262.682.327 1.715.616 2.701.114.377.249.743.448 1.086.665-.363 1.24-.724 1.744-1.086 4.083-2.929 3.492-5.921 6.589-8.546 1.446-.59 5.538.851 5.538-2.534 0-1.348-1.081-1.623-1.12-2.02.972-.441 2.727-.232 3.672-.645 3.109-1.486 1.804-4.69 3.827-6.179 1.898-1.352 9.855-.353 9.855-4.952 0-1.348-.543-1.348-.625-2.085-2.894-.082-4.973.475-6.435.053v-1.409c2.147-3.167 4.271-6.375 6.759-9 1.152 2.035.776 4.33 3.544 4.33 1.354 0 6.765-4.33 8.117-4.33 1.354 0 2.978 1.62 4.324 1.62 1.355 0 2.831-1.646 4.72-2.592 1.42-.677 3.525-.599 4.405-1.476 1.755-1.754 4.403-5.394 4.403-6.749s-1.63-5.208-2.291-7.534c-4.13.91-3.536 4.458-4.343 5.469-.813 1.018-3.101 2.609-3.101 3.954 0 1.355.665 1.316.665 1.316 1.229.039 2.118-.043 2.603.415-.02.436-1.028 1.326-1.476 1.804h-9.571c-1.348-.013-3.99 1.646-5.59 2.74.379-1.358 1.44-2.367 2.003-3.607-.615-.687-2.239-.687-2.7-1.057 2.104-2.521 4.33-6.21 4.33-7.556 0-1.354-.563-2.137-.422-2.615.808-2.097 2.042-4.693 2.042-6.045 0-1.355-.782-1.349-.782-1.349-2.943 3.339-6.287 6.831-8.245 10.418-1.289 2.432-1.675 5.45-3.567 8.091-.742 1.077-1.741 2.049-2.092 2.125.082-1.97.121-3.627.73-5.116 1.021-2.367 3.99-4.72 5.07-7.018 1.688-3.453 2.036-8.602 6.032-10.56 1.42-.673 3.614-1.03 4.222-1.843 1.011-1.345 2.418-4.215 2.418-5.57 0-1.352-.622-1.273-1.23-1.869h-1.852c-1.166 1.139-1.634 2.173-2.553 2.687-.396-.467-.314-.794-.314-.794 1.038-1.496 2.163-4.079 2.163-5.431 0-1.355-.079-1.273-.73-1.885-2.023.331-7.374 2.481-8.316 5.59-.478 1.624-.478 3.339-1.898 4.759-1.221 1.214-3.66 2.354-3.66 3.708s1.62 1.081 1.62 2.432c0 1.489-3.878 6.307-4.984 6.81.111-1.401.104-2.412.602-4.811-.756-.102-1.342-.645-1.342-.645-.69.615-.769 1.08-2.124 1.08-1.35 0-.826-.356-.826-.356 1.067-1.957 3.05-4.094 3.587-5.784.475-1.554-.376-3.299.302-4.251.811-1.081 3.165-2.66 3.123-4.012v-2.288c-.769-.082-1.313-.622-1.936-.609-4.611 3.358-11.013 15.812-11.013 17.576 0 1.345 1.093 2.767 1.632 4.792-.467.422-.281.883-1.632.883-5.27 0-1.624-5.95-7.302-5.95-1.352 0-6.02 1.633-8.707 2.374-.207.514-1.299.876-1.299 2.226 0 1.351.543 1.083.615 1.813.736.081.461.625 1.817.625 1.354 0 2.978-2.707 4.33-2.707 1.757 0 7.232 2.847 7.321 5.041-1.021.992-2.033 1.479-2.952 1.996-1.473-1.548-3.29-4.33-4.645-4.33-1.077 0-3.244 1.958-3.244 4.056 0 1.354-1.031 3.184 2.131 7.605 2.14 2.142 3.28 1.859 4.632 1.859 2.5 0 4.078-2.815 5.23-4.438.811-1.152 2.781-1.573 3.46-2.729.876-1.486 1.815-3.23 2.7-4.736.321.468.242.828.242.828-1.267 3.621-2.084 6.779-6.307 9.038-.183 1.75-.625 3.184-1.644 4.021-1.548.181-3.299.78-4.853 1.925-.173.628-.161 1.683-.321 2.144-3.519 2.173-4.311 4.514-7.073 7.502v-.678c.704-1.675 2.883-3.747 2.848-5.093v-1.751c-4.825-.212-8.618-9.479-8.618-12.522 0-1.351 2.15-7.761 3.747-12.902h-2c-.635 1.146-.608 2.321-1.352 3.263-1.283 1.63-3.414 3.235-4.022 4.515-1.489 2.975-3.407 8.372-3.407 9.724 0 1.355-.54 4.867-.54 6.222 0 1.353 1.083 8.117 1.083 9.467 0 3.859-1.267 11.662-5.656 13.802-2.916-2.121-10.981-8.661-14.166-8.569h-1.81c3.613 3.031 15.138 8.7 15.138 12.355 0 1.346-2.704 3.787-4.056 3.787-1.355 0-6.863-5.352-10.297-8.117-.716.615-.792 1.286-.792 1.286-.006.603 1.074.876 1.074 2.226 0 1.352-.456.89-.456.89-1.011.497-1.977.462-3.325.462-1.356 0-14.883-1.621-16.235-1.621-1.348 0-10.068 1.626-15.144 3.015 5.706-.314 12.441-.851 13.796-.851 7.165 0 18.212 1.731 23.537 4.084-1.804 1.09-3.748-.658-5.679 1.306h-.007a6.193 6.193 0 0 0-.785 1.024h9.371c1.558.075 3.044 1.495 3.044 3.594 0 1.355-.39 3.004-1.354 3.518-4.759-2.144-9.624-3.766-14.33-5.691.932-.288 1.62-1.07 1.601-1.715-.602-.629-1.063-.711-2.419-.711-1.348 0-5.135 1.081-6.487 1.081-1.355 0-8.654-1.081-10.009-1.081-2.167 0-5.397-.262-8.091 2.546 6.219-.382 8.847-.39 11.341-.059a18.115 18.115 0 0 1-4.062 1.568c3.787.275 9.734-.813 11.086-.813 4.598 0 19.834 5.879 22.014 7.977 1.261 6.952 3.421 20.159 3.421 21.511 0 1.931-1.155 3.895-2.812 5.833-3.217 3.774-8.336 7.426-10.529 10.379-2.5 3.376-3.954 8.033-5.47 12.15 1.361-1.199 13.466-21.597 20.163-21.597 1.349 0 2.435.813 2.435 2.163 0 1.356-9.197 9.673-9.165 11.021v1.905h1.963c3.333-3.267 6.557-6.487 9.077-8.601.363.464.907 1.548 1.369 1.924-2.118 2.925-8.117 12.825-8.117 16.746 0 1.355.543 1.623.615 2.375h2.501c2.333-4.555 3.089-12.457 7.623-16.646 2.565-2.376 3.872-2.768 3.872-4.124 0-5.073-2.874-.262-5.85-6.071-.249-.498-.382-1.048-.438-1.624-.2-2.19.704-4.86.089-7.063-1.483-1.148-3.001-1.744-3.001-3.099 0-1.346 1.083-1.889 1.083-3.243 0-1.353-2.648-3.178-3.123-4.939-.537-2.027-1.208-5.878-1.208-7.234 0-1.354.127-4.124.671-6.154.468-1.757 2.577-2.775 2.577-4.123 0-.373-.53-1.319-.396-2.714.059-.638.261-1.354.703-2.156.314.461.629.969.629.969.269.396.523.805.772 1.181.416.645.806 1.188 1.172 1.414 1.126.223 2.073.141 2.534.499-1.548 1.426-2.433 3.142-2.572 4.288-.403 3.252-1.214 9.232-1.214 10.585 0 1.355 2.125 2.762 2.526 3.64 2.033 3.989.845 8.84 4.203 12.87.452.235 1.113 1.348 2.468 1.348 2.297 0 .582-4.195 5.449-3.889v2.426c-1.58 1.539-2.579.799-3.826 3.381.111.167.917.946 1.927 2.016 1.918 2.046 4.56 5.162 4.56 7.151 0 3.458-6.811 4.086-8.11 4.831 1.702 1.854 3.895 3.504 5.243 4.503.167 2.057.815 4.674 1.964 6.502 3.041 4.863 9.698 7.705 13.888 7.705 1.354 0 1.548-.085 2.16-.747-1.087-3.929-3.785-10.074-3.785-11.431 0-4.398 1.336-2.506 5.256-3.207 1.14-.909 1.63-2.5 2.449-3.051-.128 1.387-.639 2.894-1.201 4.15 2.265 1.788 4.733 3.129 5.207 4.883 1.081 4.125 2.36 11.292 2.36 12.641 0 1.355-.403 5.099-.743 7.265-.134 1.087-1.292 1.971-1.811 2.3-.516.196-1.234.987-1.227 1.589 2.386 4.929 12.644 3.633 12.052 10.12 1.028.858 2.34.466 3.217 1.009 1.833 1.079 3.186 3.685 4.541 3.678h11.73c.992 1.015 2.533 2.717 3.888 2.717 1.356 0 1.346-.752 1.346-.752-1.868-2.652-3.78-9.327-3.78-10.344 0-1.347.813-1.891 1.241-1.917 2.006 2.369 6.677 4.896 8.769 4.896a4.026 4.026 0 0 0 2.955-1.249c.02-1.73-.537-3.268-.084-4.759 2.893-.079 13.088-.956 13.088-8.052 0-1.362-.55-1.833-.435-2.311 1.45-1.565 3.23-2.142 3.977-3.227 2.975-4.256 5.57-9.1 7.593-13.558.678-1.499-.235-4 .844-5.354 1.624-1.964 2.89-3.974 4.719-5.8 1.415-1.414 3.774-1.748 5.251-3.104.232-1.509.213-3.069.877-4.66.39-.515-.102-.407 1.254-.407 1.351 0 .89-.074 1.374.374-.023 1.522-.35 3.292.128 4.848.534 1.688 1.473 3.166 1.473 4.514 0 1.362-.537 9.505.082 14.029h2.446l2.026-2.129c.883 2.016 1.4 4.609 1.4 5.959 0 5.949-4.331 7.167-4.331 9.464 0 1.362 1.622 1.087 1.622 2.436 0 1.354-3.788 7.854-3.788 9.196 0 1.354 2.815 2.652 4.167 3.654.164 1.524.7 3.92.7 5.276 0 1.354-2.701 6.225-4.056 6.225s-1.08-.538-1.4-.425c.71-1.723-1.165-4.445-2.923-4.445-2.029 0-11.093 17.04-11.093 19.206 0 1.349.54 1.086.609 1.826h1.958c.576-.876 2.775-9.668 6.087-9.668 1.353 0 1.353.536 1.715.472.455 3.626-.363 7.403.046 10.644.134 1.151 1.758 2.408 2.442 2.369.635-1.192 1.132-2.749 1.977-3.757.884 2.016 1.87 4.012 1.938 5.701.409 7.038.551 8.57.115 10.422h3.078c-.904-3.94 1.996-9.943 3.09-13.419 1.373 1.55 2.918 4.064 2.918 5.413 0 1.362-2.173 3.522-2.173 4.877 0 1.348.576 2.553 1.204 3.75h2.382c1.141-.536 2.102-1.597 2.501-1.623 1.728 3.469 1.847 7.939 5.042 10.854 1.348-2.023-.708-4.872 1.86-4.872 1.354 0 1.354 0 2.055-.044.642-1.761.111-3.463.091-13.644.486-.451.826-.917 1.244-.948l.971.974c.522 2.102.522 15.626 1.086 17.589-2.075.551-3.28 3.046-3.28 4.46 0 0 .406 3.515 2.703 3.515 1.35 0 1.002-.079 1.604-.708.019-1.185-.013-2.683.359-3.626 1.401 1.047 3.175 2.173 4.531 2.173 1.152 0 2.159-.811 2.159-2.979 0-1.341-1.623-7.842-1.623-9.196 0-1.349-.08-1.97.222-2.436 1.429 3.626 2.488 7.306 2.567 10.749 2.763.007 3.711 1.695 3.711 4.406 0 6.894-3.791 2.835-3.791 9.734 0 .208 4.635-.224 9.474-2.266.261-1.203.17-2.12 1.249-3.031.943-.111 2.042.427 3.188.203 1.682-1.465 3.214-2.488 4.975-3.136.046-1.78.589-3.402.589-4.752 0-1.354-1.081-8.398-1.29-12.732-.196-5.341.052-13.224-2.54-18.611h-2.585c-1.579 2.246-3.327 10.651-3.327 12.129 0 1.362 1.087 4.602 1.087 5.957 0 1.486.543 5.317-1.774 6.796-.392-8.438.157-11.123.079-13.472-6.808-.556-2.225-7.515-6.796-8.72-1.753 2.815-2.84 5.511-4.254 8.091-.314-.458-.51-1.081-.85-.989.471-4.262 1.648-8.902-1.264-10.914-1.224.569-1.839 1.702-2.187 2.168-.348-.466-.538-1.087-.891-1.01.079-3.724-2.088-5.079-2.088-7.651 0-1.35-.072-.616.314-1.081.924.517 2.127 1.081 3.477 1.081 3.319 0 5.178-8.274 5.702-9.742 2.317 3.811 1.179 12.438 7.385 11.3-.105 2.5-.643 5.256-.007 8.117h2.493c.648-1.741 1.199-3.424 1.264-4.354 1.897-.463 4.261-2.611 5.624-2.611 1.347 0 .863.425.863.425.484 3.129-.851 6.631.098 9.131 1.081 2.973 3.09 2.946 3.09 5.048 0 1.354-1.08 8.923-1.08 10.285 0 1.348 1.623 4.319 1.623 5.674 0 1.357-.543 3.765-1.015 12.085.739.084 1.283.635 1.924.608.636-.601 1.171-.601 1.774-1.23.026-2.808.484-6.047 1.231-8.687.268-1.079 1.494-2.776 1.494-4.131 0-1.347-2.161-7.031-2.161-8.385 0-1.349.458-2.513 1.308-3.515.878 2.017 3.556 3.791 3.556 5.138 0 1.356-1.624 2.443-1.624 3.791 0 1.349 1.086 2.436 1.086 3.785 0 1.354-.948 4.332-.948 5.949 0 1.087-1.218 1.898-1.218 3.248 0 1.087 1.689 2.808 3.083 3.502.7-2.352.688-4.479 1.316-6.023.878-.49 1.964-1.033 2.895-1.61.777-1.125.654-2.284.915-2.763.878-1.419 15.057-24.686 15.057-31.25 0-1.349-1.35-1.073-1.991-1.061-5.354 4.648-8.797 13.589-12.346 21.085-.845-2.016-2.258-3.692-3.404-6.33-1.558-3.457-2.133-7.476-2.277-11.267-.342-9.196-.543-9.727-.543-11.082 0-1.349.536-5.088.889-7.588.275.479.203.883.203.883-.013 1.565-.013 3.229.145 4.373.445.603-.668 1.166-.668 1.166h3.057c3.07-3.175.438-9.183 4.72-9.361.837-2.096 1.388-4.268 2.009-6.343.87-.479 1.996-.505 2.913-1.277.826-1.387 1.426-4.412 3.281-6.898.222-1.139.149-2.462-.315-2.815 1.002-.891 2.991-1.205 3.542-2.017 1.623-2.501 3.75-4.949 4.36-7.11.407-1.558-.34-3.77-.059-5.217.288 1.447.824 3.064 1.499 4.852 1.833-.538 2.266-.786 2.266-.786.811-1.506 1.924-3.522 1.924-4.87 0-1.349-1.086-1.349-1.086-2.711 0-1.754 3.574-11.573 4.012-12.176.883 2.017 2.042 4.283 4.555 5.944v-2.349c.087-3.11-.378-2.541 2.534-6.295.34.462.531 1.084.839 1.005v8.53c-.041 1.362-1.664 7.776-1.664 9.131 0 1.354.615 1.813 1.329 2.436 1.801-1.125 3.515-2.861 3.855-3.791.309.464.497 1.08.878 1.036 1.118 3.717-.667 7.749 3.706 9.137v12.354c-.028 1.354 1.092 1.151 1.414 1.656.799 3.345.202 8.588 4.417 10.376-1-3.528-1.538-9.119-1.538-10.481 0-1.347 1.087-7.306 1.087-8.653 0-1.362-.203-12.425.137-16.208.139-1.617.414-2.998.414-4.354 0-5.55-.878-11.756-2.266-17.972-1.414-6.353-3.392-12.709-5.552-18.391-.34-.563-1.662-1.235-2.387-1.156-.085 1.817-.623 3.165-.623 4.521 0 1.352 1.624 1.62 1.624 2.975s-1.212 2.373-1.48 3.459c-.209 1.012.667 2.213.394 8.164l-.027.435c-.183 1.879-1.165 2.006-1.858 2.006-1.356 0-.891.079-1.37-.363v-5.25c.013-1.352 1.638-1.689 1.638-3.041 0-.402-.937-1.783-2.487-2.703-2.233 3.172-2.181 6.33-2.501 9.344a18.199 18.199 0 0 1-.314 2.053h-3.516c-.7-.717-1.184-1.407-1.493-2.053-.379-.763-.518-1.453-.518-2.045l-.537-15.147c0-1.355-.425-6.045.649-8.546.889-2.033 5.302-2.68 5.302-5.794 0-1.049-1.65-4.301-2.966-7.043a45.12 45.12 0 0 1-.976-2.124c-.974.281-1.486.798-1.746 2.124-.216 1.159-.263 2.929-.263 5.699 0 .537-.465 1.427-.767 1.895-1.125-2.453-1.688-4.973-2.46-7.594-.21-.69-.427-1.395-.675-2.098-1.238-.052-2.814.497-3.842.302-.498-.314-1.729-1.435-2.39-1.408-.924 1.241-1.65 2.265-2.219 3.205-1.244 2.045-1.715 3.646-1.715 5.967 0 1.352 2.161 5.676 2.161 7.03 0 1.355-1.617 3.788-1.617 5.143 0 1.351 1.617 11.629 1.617 12.984s-.812 1.888-1.277 1.905c-1.826-1.061-1.42-3.938-1.42-5.424 0-1.355.536-4.055.458-6.408-1.277-.082-2.899-.625-4.243-.625-1.36 0-1.007.625-1.623 1.279.536 2.301 1.074 5.754 1.074 7.106 0 2.91.458 4.789-2.004 8.406-1.524-.239-2.56.281-3.286 1.214-1.715 2.2-1.767 6.631-2.691 8.54h-4.064l-.956-.949c.019-.982-.067-2.256-.538-2.508 2.539-.029 3.796-2.864 3.796-4.961v-.122c-.052-1.326-1.072-2.896-1.072-4.209 0-1.355-.079-1.427.261-1.889.355.461.812.809.884 1.562h1.931c1.166-1.1 1.787-1.562 1.787-2.917s-1.617-5.953-1.617-7.306c0-1.355 2.227-6.189 2.495-8.896.477-3.855-.688-7.885 2.141-10.585.917.518 1.583 1.087 2.933 1.087 1.362 0 1.545-.081 2.161-.766-.564-1.247-1.71-2.955-2.869-3.947-.772-.052-1.603-.341-2.416-.71h-.013c-1.538-.684-3.003-1.61-3.894-1.61-1.35 0-1.571.107-2.004.69a4.53 4.53 0 0 1-.406.919v.006c-1.001 1.83-3.003 3.447-3.003 4.606 0 1.355 1.63 5.954 1.63 7.305 0 1.356-.551 7.26-.826 10.278-.268-1.958-1.347-4.579-1.754-6.811-.602-3.179.479-6.469.204-9.712-.19-2.032-2.22-4.278-2.467-5.672-.015-.089-.033-.174-.033-.255 0-1.42 4.674-6.22 6.762-6.22 1.36 0 9.478 4.324 10.821 4.324 1.354 0 1.283-.082 1.891-.767-3.534-7.4-11.352-5.255-11.352-13.029 0-1.355.301-.812.301-.812 1.514 2.065 4.97 7.574 7.542 7.574 1.347 0 1.315-.651 1.315-.651v-1.869c-2.717-3.859-5.204-8.291-7.233-11.944-.61-1.155-2.076-2.032-2.684-2.167-1.553-.333-3.116-.602-4.118-1.446.935-.351 2.625-.396 3.789-1.696-3.299-2.36-7.036-5.315-7.036-7.279 0-1.348.536-1.84 1.027-4.769-.752-.098-.752-.642-2.108-.642-1.347 0-1.898 1.627-2.802 1.689l-.471-1.83c1.467-.409 3.196-1.021 4.066-2.026 2.508 3.683 4.68 7.477 7.038 10.284 1.289-1.162 2.37-1.702 2.972-2.333.019-1.186-1.599-1.722-1.599-3.077s1.074-.544 1.074-1.898c0-1.346-4.831-10.268-7.265-14.733-.813-1.489-3.09-1.682-4.099-2.5 2.5-.347 5.173.193 7.444-.039 2.31-2.982 4.195-2.475 6.356-2.475 4.334 0 1.885.302 7.973 4.088.878.537 2.292.03 3.312.364 2.161.677 4.282 2.982 6.521 3.46 2.632.543 5.426-.537 8.137-.203 1.618.209 3.005.952 4.353.952 2.913 0 1.715-2.412 3.6-4.978.812-1.08 2.207-.919 3.09-1.797 1.754-1.758 3.023-4.003 5.328-5.014 2.305-1.012 4.864.288 6.101-2.072-1.734-1.24-3.784-1.287-5.132-1.287-8.247 0-11.9 8.654-19.75 8.654-3.711 0-2.362-3.633-4.876-6.163 2.545-.89 6.114-.514 8.561-2.203 1.416-1.012 1.277-3.381 2.155-3.99.876-.609 2.403-.569 3.286-1.454 1.21-1.214 2.251-3.004 3.737-3.947 3.921-2.507 9.636-2.608 12.025-7.443-1.159-1.234-2.153-1.581-2.181-2.01 2.155-1.796 4.079-2.002 6.245-2.002 9.729 0 12.178 10.883 12.178 18.124 0 1.348-1.218 11.986-2.372 17.798-1.558 7.914-10.683 20.142-19.677 20.142-.956 0-2.212-.389-2.684-.18-2.029.878-4.491 3.896-4.491 6.333 0 1.35.563 1.991.746 2.399 2.088 1.343 4.662 4.631 6.016 4.631 1.355 0 1.342-.73 1.342-.73-2.251-4.267 1.767-5.112 4.059-7.93.865 1.509 1.906 3.787 1.906 5.143 0 1.355 0 6.389.347 9.23.196 1.624.188 3.217.188 4.565 0 1.549-.273 6.557-1.354 8.104l-.013.013a.013.013 0 0 0-.013-.013v-.004"/><path fill="#FFF" d="M224.61 169.418h1.929c1.57 6.926 6.987 8.608 11.723 8.608 1.349 0 4.259-1.074 6.74-1.469-2.252 1.951-4.995 3.6-7.028 4.526.53.878.825 1.267 2.18 1.267 5.007 0 10.817-7.034 13.796-7.034 1.351 0 2.896 1.163 4.592 2.917-2.985 8.607-13.073 10.746-18.932 11.691l-23.808-4.324c-1.644.27-4.252 2.628-6.458 2.01.605-1.522 8.218-4.717 9.171-4.717 1.348 0 6.756 1.62 8.11 1.62 1.355 0 3.434-.521 4.88-.864-3.299-2.713-9.748-4.343-9.748-8.333.002-1.352 1.672-4.21 2.853-5.898m-66.404 70.283c.779 1.809 2.877 3.868 4.56 5.859h-4.144c-.623-.531-1.785-.993-1.785-2.344 0-1.349.57-2.288 1.369-3.515m26.289 23.899c5.558 1.539 13.246 3.824 18.83 3.824-3.303 6.554-3.479 9.454-3.316 14.421-4.31-1.447-7.597-9.577-8.192-14.185-2.131-2.987-5.744-.118-7.322-4.06m-30.325 1.572h3.951c1.352-.046 1.787 1.054 2.231 1.262.802 2.678 1.326 5.879 2.906 9.42-1.58-.399-9.128-5.25-9.089-7.684l.001-2.998"/><path fill="#F4B11B" d="M314.395 112.063c2.434 1.067 5.341 1.872 7.299 2.825 1.29.609 1.426 2.354 2.238 3.162 1.29 1.28 3.752 1.866 4.708 3.286 7.437 11.086 15.933 16.107 24.049 16.107 1.355 0 6.678-1.067 9.755-1.81-3.443 1.394-9.348 6.141-13.538 6.141-1.362 0-5.957-2.164-7.311-2.164-.669 0-2.849-.282-1.985 3.182-1.381-.501-1.793-1.018-3.147-1.018-1.356 0-2.168 3.786-3.523 3.786s-6.526-1.086-10.481-1.714c-.064-.717-.603-1.803-.497-3.103 1.872.506 4.216 1.031 5.57 1.031 2.168 0 4.602-1.012 4.602-3.244 0-1.355-1.033-1.194-1.473-1.797-.149-1.145-.149-2.212-.307-3.191-.798-.461-2.369-1.522-4.169-2.36.804-.226 1.695-.69 2.166-1.106-2.769-8.714-13.263-9.914-13.956-18.013m-3.09 30.791c1.348 0 3.85 1.093 6.219 1.931-.811.232-1.086 1.319-2.436 1.319s-1.623-1.087-2.972-1.087c-1.355 0-3.248 1.087-3.248 2.442 0 1.349.458.884 1.081 1.623-1.159 1.273-3.241 2.976-3.241 4.321 0 1.354.996 1.437 2.134 2.602v6.71c-.595.625-1.676 1.157-2.331 1.77l-5.21-.717c1.486-1.698 3.232-2.992 3.232-4.412 0-1.355-1-2.514-2.159-3.741.569-1.247 1.911-2.2 2.532-3.411.466-.946-.195-2.386.34-3.267 1.087-1.83 2.56-3.757 3.301-5.335.505-.192 1.403-.748 2.758-.748m-28.409 21.913l-.603 1.259c-.557.557-1.833.096-2.514.053-.641-1.192-.131-2.936.04-4.806.836.597 2.505 2.293 3.077 3.494m35.689-2.809c-.603.838-1.14.838-1.808 1.447l-2.5-.844c.811-.229 1.349-.773 4.308-.603m-23.365 3.13c.124.766-.451 1.964-1.105 3.166-10.03-1.188-6.116-.332-7.975-1.35 2.928-.776 6.129-.762 9.08-1.816m14.461 2.654c1.349 0 4.596 3.25 4.596 4.599 0 1.623-4.582 4.785-5.866 5.067.458-2.495-1.27-4.275-2.776-4.986 1.31-2.186 1.951-4.68 4.046-4.68m-28.143 1.087c1.357 0 4.512 1.683 6.528 3.385.235 1.715.786 3.645.786 5.001 0 1.348-1.625 1.62-1.625 2.968 0 1.354 1.074.275 1.074 1.63 0 1.349-3.784 3.787-3.784 5.136 0 1.351 1.087 1.083 1.087 2.438 0 1.349-1.139 1.516-1.506 1.991-.124 1.021.08 2.488.419 4.175.196 1.087-1.079 1.944-1.079 3.3 0 1.355 1.002 1.434 1.623 2.206-1.237.743-2.311 1.279-3.26 1.668.522.872 1.552 1.882 2.173 2.661-1.224.737-2.769 1.217-4.131 2.701-1.506.229-3.711.235-5.681.154.078.35-.466.082-.466 1.427 0 1.624 5.571 4.35 6.487 4.923-1.348.219-2.847-.351-3.889.167-.51.517-.43.052-.43 1.408 0 3.243 5.746 4.055 7.574 4.055 1.354 0 8.831-2.688 13.021-4.209v-1.388c-1.035-.972-2.737-1.437-2.737-2.789 0-1.355.615-1.273 1.074-1.623-.458-.348-.93-1.382-2.161-2.157 2.238-1.394 4.569.059 6.325-2.851.34-.609.785-2.216 1.792-3.149-.917-1.656-3.562-2.687-4.306-3.057v-1.835c-.027-1.355 2.14-1.83 2.14-3.178 0-1.356-1.002-1.977-2.167-3.25 1.166-1.273 3.791-2.16 3.791-3.513 0-1.354-1.08-1.354-1.061-2 .597-.628 1.761-2.056 2.915-2.19 2.171-.343 5.452-1.221 6.807-1.221 1.349 0 2.972 1.08 4.753 1.133.642 1.753 1.19 4.003 1.19 5.354 0 2.033-3.109 5.505-1.623 7.348-2.356 1.607-4.321 1.106-4.321 3.472 0 1.355 1.584 8.605 3.353 12.052 1.347 2.709 5.89 3.869 9.046 5.39.039 2.305-.368 6.52 1.662 8.808-.621.724-.536 1.073-.621 1.811-.726.072-.726.615-2.088.615-1.35 0-3.194-2.822-4.11-4.337-1.833 1.126-1.833 2.173-1.833 2.716 0 1.353 1.08 2.701 1.08 4.052 0 1.356-.543 1.63-.765 2.979-.837-1.803-1.813-3.292-3.188-4.35-.374 2.514-2.534 7.326-2.534 8.68 0 1.355 1.081 2.432 1.081 3.787 0 3.986-8.117-.268-8.15 5.744v2.272c-.837.292-3.626 1.195-3.981 4.425-1.373-2.877-1.256-6.187-1.597-8.886-.137-1.087-1.427-1.932-1.427-3.287s1.623-.812 1.623-2.167c0-1.346-4.242-6.36-7.489-9.404-2.016-1.823-6.466-.946-8.581-1.165-.623-.599-1.238-.518-1.238-1.872 0-1.352 1.625-1.62 1.625-2.976 0-5.679-8.406-3.862-10.514-3.453-4.005-1.708-5.652-2.501-7.885-2.501-1.348 0-7.862 1.086-14.749.511 0 0-.403-.511-.403.845 0 4.055 7.208 6.173 9.575 7.119 5.475 2.167 12.913 6.596 17.234 13.291.942 1.422 1.753 3.922 3.39 5.137.942.677 15.796 8.539 15.796 13.95 0 1.354-.543 5.361-.19 8.338l-2.801-1.576c-1.072.641-1.885 1.354-1.885 2.167 0 1.354.551 5.119 1.035 13.414-2.323.575-3.195 7.214-3.195 8.563 0 1.348 0 11.833-.242 17.517-4.221-22.95-8.411-11.227-8.411-27.047 0-2.704-.288-6.587 1.808-9.623.811-1.153 2.526-2.424 2.867-3.706.746-2.58 2.9-7.777 2.9-9.125 0-1.42-.884-2.976-2.166-2.976-4.937 0-4.126 9.732-11.089 9.732-1.349 0-3.064-.583-3.875-1.728-3.451-4.806-2.639-14.111-10.826-17.086-1.42-.536-9.921-.589-9.921-4.712 0-2.508 2.307-6.623 6.733-5.342.435-.301.923-.806 1.384-1.188-1.58-2.534-4.435-5.041-6.935-7.197-1.287-1.153-3.935-.71-5.358-1.381-1.889-.952-3.122-3.019-4.478-3.019-1.353 0-1.159.466-1.633.915v1.501c.678 2.246 4.651 2.203 6.877 3.149 1.629.677 3.833 2.595 5.558 4.01-3.012-.383-7.554-2.541-8.902-2.541-3.587 0-3.755 3.499-6.013 7.568-.35-2.956-5.935-5.764-7.469-6.49l-.864.863c1.726 2.508.089 7.522 5.365 7.878v1.944c-2.219 1.708-4.189 4.215-6.556 5.84-3.044 2.097-7.021 3.43-10.195 6.045v1.904c1.466.429 3.544-.127 5.816-.102.625.596.703.25.703 1.601 0 5.611-11.763 5.943-13.252 5.943-10.684 0-47.218-8.529-49.449-9.301v-1.95c8.977-3.597 17.127-15.063 15.438-23.039-.344-1.555.193-3.303.34-5.168 1.899 1.1 4.183 2.677 5.539 2.677 1.354 0 1.394-.418 1.694-.866-.743-4.504 2.845-12.245 8.521-13.601 4.196-.946 9.204-1.22 13.917-2.206-.056-.367-1.086-.75-1.495-1.299-.684-1.093-.154-2.2-.677-3.237-.507-.51-.046-.429-1.401-.429-1.353 0-1.575.668-2.662.871-1.62.269-3.318-.289-4.805.321-7.24 3.178-19.111 6.249-19.445 14.994-1.342-.526-2.353-.507-4.929-1.051l-.896.871c1.044 1.421 3.25 2.923 3.25 4.279 0 5.073-15.96 8.385-17.852 8.385-2.098 0-3.613-.471-5.375-3.722h8.278c3.855-.065 10.375-4.824 8.654-9.027 2.225.314 3.263-2.32 4.833-3.862 3.755-.095 5.725-5.954 7.62-8.051.746-.81 2.736-1.107 3.414-2.258.743-1.215 1.594-6.072 4.396-6.563 0 0 .102 1.293.076 2.271.487.452.026.376 1.371.376 1.355 0 3.112-2.129 5.352-3.445 3.326.195 8.444-1.428 9.8-1.428 1.354 0 3.25 1.087 4.598 1.087 1.355 0 2.855-.517 4.269-1.047v2.87c.062 1.355-1.562 1.963-1.562 3.313 0 2.298 1.823 1.896 2.167 1.896 2.566 0 6.537-3.601 8.795-7.017h6.556c1.352-.014 4.906 2.412 6.735 3.966 1.349 1.155 3.404 4.674 4.759 4.674h18.261c1.352 0 2.232-1.623 3.583-1.623 1.356 0 6.224 3.247 7.578 3.247 1.35 0 2.697-.269 2.697-1.624 0-2.167-1.551-4.337-3.725-4.976-.059-1.38.386-2.11-1.113-3.537 1.95.408 3.763.938 5.112.938s1.426-.465 2.441-1.414c-.53-1.477-2.676-3.063-3.775-5.453 1.583-.629 5.393.376 5.393-2.599 0-1.356-.458-.891-1.086-1.624l1.63-1.683c-.518-.903-1.551-1.918-2.704-3.204 2.127-1.817 6.605-1.896 8.655-4.874-.924-1.755-2.436-2.312-3.752-3.09-.046-.677.583-1.407 1.041-1.796-1.178-1.997-2.5-1.856-3.24-1.856-1.355 0-4.012.536-7.566.884 4.488-1.954 12.971-4.13 14.312-4.13m-105.366 4.9c-.135 1.643-3.132 6.389-3.971 6.991 0 0-.755.006-.755-1.349 0-1.345 2.782-3.973 4.726-5.642m-8.059 9.78c-.481 1.4-1.541 1.816-1.541 3.171 0 1.352.46 1.159 1.086 1.882-2.77 3.433-3.849 6.67-6.363 9.439 1.853-5.065-.133-10.68 6.818-14.492m-23.385 9.129c.206 8.038-4.124 6.823-4.124 7.026 0-1.354 2.736-4.72 4.124-7.026m12.99 1.087c.403 1.567-.013 6.477-2.972 6.938.478-2.413 1.06-4.681 2.972-6.938m-11.21 8.761c-2.157 3.551-4.448 6.514-2.693 10.036h-3.712c1.95-4.252 2.405-9.333 6.405-10.036m5.191.422c.73.622-.35 2.628-2.327 4.285.461-1.43 1.051-3.12 2.327-4.285m223.837 46.532c.956 5.654.956 11.653.183 17.852-.837-1.806-1.35-3.364-2.475-5.12.576-1.223 2.173-2.388 2.292-3.743v-8.989m-23.081 3.244c.234.813.778 1.893.752 13.902-.595.629-1.329 1.793-2.063 1.702-.078-6.677.471-13.236 1.311-15.604m-32.476 2.167c.778 1.804 1.826 3.908 2.815 5.444.412-.033.687-.577 2.029-.577 1.355 0 1.749 1.651 2.972 2.377-2.887 4.007-1.551 7.594-1.198 11.652-1.924-1.094-4.164-2.245-5.04-3.757-.865 1.007-1.872 2.985-1.872 4.333 0 1.356 1.086 2.443 1.086 3.785 0 4.811-8.851 9.367-10.212 10.191-.629 1.552-1.151 3.615-1.231 5.428-4.517.078-9.367 1.159-15.521 1.635v-2.029c5.728-.072 7.012-7.226 7.156-10.885.981 1.643.757 5.524 2.735 7.023 5.04-5.315-.824-12.503 2.593-18.892 1.224-.039 2.846.499 3.822.525 2.199-2.5-.301-5.866 2.907-7.581.707 1.788 1.78 3.953 2.161 5.414 2.212-1.342 2.343-4.208 2.343-5.702 0-.536.812-.275 1.204-.235.445-.971.445-6.92 1.251-8.149m9.518 8.199h1.749c.889 25.608 1.427 30.21 1.427 31.565 0 2.776-4.262 7.203-4.071 10.554-.263-2.442-.25-5.748.445-8.509.438-.584 1.504-1.65 1.819-2.147.183-1.028.721-2.063.721-3.417l-2.09-28.046"/><path fill="#F4B11B" d="M293.866 273.813c1.205 1.08 2.553 6.729 2.553 9.984 0 2.637-.274 3.01-4.791 5.099v-3.051c2.919-2.854 3.168-3.064 3.168-5.838-.001-1.351-.524-3.72-.93-6.194m44.409 7.555c.804.614 1.427.529 1.427 1.885 0 1.354-1.074 3.783-1.324 6.217-.836-2.362-.836-5.184-.103-8.102m-65.567 14.12c3.137.477 3.137 5.177 3.548 6.945-1.434-1.715-4.177-4.295-4.177-5.657.001-1.347.538-.536.629-1.288m-2.697 7.527c2.56 3.351 5.31 8.641 5.31 9.995 0 1.349-1.625 2.436-1.625 3.785 0 2.166 3.24 12.176 6.5 12.176 1.341 0 2.699-1.625 2.699-2.979 0-1.355-1.625-4.051-1.625-5.406 0-1.357.544-1.082.78-1.893 1.375 3.979 1.918 8.313 2.952 12.333-1.291.105-2.179.026-3.214 1.028l-.739 13.144c-4.079-9.367-7.339-18.99-10.448-28.861-.61-2.029.595-4.903.196-7.071-.064-.608-.89-1.334-.786-2.683v-3.568m-7.757 17.917c.082 1.82 1.503 3.621-.288 5.315-.168-.791-.443-5.393.288-5.315m6.292.458c.824 2.926 1.348 6.142 2.31 9.714-2.297-2.362-2.899-6.428-2.31-9.714m54.85 9.826c.085.727.616 1.275.536 4.169-.727.078-.974-1.153-1.538-2.343 0 0 .275-1.911 1.002-1.826"/><path fill="#FFF" d="M236.995 206.636c3.192 5.597 4.413 13.58 10.586 20.222-1.388-.563-3.398-.354-4.573-.91-1.889-.952-3.122-3.019-4.478-3.019-1.353 0-1.159.466-1.633.915v1.501c.678 2.246 4.651 2.203 6.877 3.149 1.629.677 3.833 2.595 5.558 4.01-3.012-.383-7.554-2.541-8.902-2.541-3.587 0-3.755 3.499-6.013 7.568-.35-2.956-5.935-5.764-7.469-6.49l-.864.863c1.726 2.508.089 7.522 5.365 7.878v1.944c-2.219 1.708-4.189 4.215-6.556 5.84-3.044 2.097-7.021 3.43-10.195 6.045v1.904c1.466.429 3.544-.127 5.816-.102.625.596.703.25.703 1.601 0 5.611-11.763 5.943-13.252 5.943-10.684 0-47.218-8.529-49.449-9.301v-1.95c8.977-3.597 17.127-15.063 15.438-23.039-.344-1.555.193-3.303.34-5.168 1.899 1.1 4.183 2.677 5.539 2.677 1.354 0 1.394-.418 1.694-.866-.743-4.504 2.845-12.245 8.521-13.601 4.196-.946 9.204-1.22 13.917-2.206-.056-.367-1.086-.75-1.495-1.299-.684-1.093-.154-2.2-.677-3.237-.507-.51-.046-.429-1.401-.429-1.353 0-1.575.668-2.662.871-1.62.269-3.318-.289-4.805.321-7.24 3.178-19.111 6.249-19.445 14.994-1.342-.526-2.353-.507-4.929-1.051l-.896.871c1.044 1.421 3.25 2.923 3.25 4.279 0 5.073-15.96 8.385-17.852 8.385-2.098 0-3.613-.471-5.375-3.722h8.278c3.855-.065 10.375-4.824 8.654-9.027 2.225.314 3.263-2.32 4.833-3.862 3.755-.095 5.725-5.954 7.62-8.051.746-.81 2.736-1.107 3.414-2.258.743-1.215 1.594-6.072 4.396-6.563 0 0 .102 1.293.076 2.271.487.452.026.376 1.371.376 1.355 0 3.112-2.129 5.352-3.445 3.326.195 8.444-1.428 9.8-1.428 1.354 0 3.25 1.087 4.598 1.087 1.355 0 2.855-.517 4.269-1.047v2.87c.062 1.355-1.562 1.963-1.562 3.313 0 2.298 1.823 1.896 2.167 1.896 2.566 0 6.537-3.601 8.795-7.017h6.556c1.352-.014 4.906 2.412 6.735 3.966 1.144.98 2.665 3.277 3.965 4.069"/><path fill="#020202" d="M248.271 97.414c1.356 0 28.746 3.243 30.095 3.256h10.853c1.172 1.146 2.305 2.298 2.848 3.62-5.454 1.299-4.236 1.509-15.933 1.234-4.941-.069-2.114 3.04-4.602 5.208.667 1.81 4.739 1.26 6.906 2.54 1.826 1.086 3.959 3.767 4.772 5.39.745 1.555.772 3.346.889 4.893.368.475.917 1.032 1.284 1.622.209 1.125.209 2.225.307 3.191.857.455 2.207 1.791 2.402 2.802.209 1.018.196 2.314-.19 3.266.348.416 1.454.999 2.526 3.424-.771.127-.497.67-1.852.67-1.35 0-3.287-1.221-4.909-1.496-2.436-.402-6.286.275-9.402-2.45-.025-1.196 1.205-2.515 2.142-2.845-2.613-1.922-5.853-3.009-8.655-5.329.564-1.26 2.344-2.475 3.791-2.802-3.686-2.445-8.03-4.618-11.896-7.977.393-2.71 2.76-3.135 8.674-2.923-1.604-1.881-4.317-2.98-5.859-5.462-6.851-.779-16.195-5.578-23.108-4.969-5.963 0-6.5-.543-7.292-.697 3.761-4.684 12.082-4.166 16.209-4.166m-23.57 4.326c1.657-.006 2.2.537 2.973.665-1.073 2.428-2.128 6.396-4.425 7.751-4.733 2.775-10.955 1.646-16.297 3.07-.608.133-1.105 1.626-2.189 1.83-1.624.275-3.862.531-5.895 1.407-.743.269-9.23 6.376-11.528 6.362h-2.756c-.615-.605-.615-1.147-1.234-1.898 12.146-8.988 27.598-16.143 41.351-19.187"/><path fill="#020202" d="M237.178 106.607c1.353 0 2.165 2.704 3.52 2.704 1.354 0 2.975-1.08 4.33-1.08 1.348 0 2.01.569 3.23 1.273-2.193 3.934-8.143 3.715-10.988 4.791-1.689.611-3.289 2.114-4.919 2.39-1.624.266-3.875-.76-5.355-.223-1.286.474-2.595 1.904-4.356 2.379-2.025.537-4.988.537-7.557 1.414-.809.269-12.735 7.453-15.505 7.453-1.352 0-2.163-1.083-2.163-2.438 0-3.446 4.331-2.808 3.833-7.728 3.472-.92 1.174-.658 12.562-.638.458-.475 1.495-1.502 2.104-2.533.638-.18 1.155-.173 1.643-.351 2.662-2.599 5.839-1.568 8.137-2.72 1.624-.811 3.374-3.613 4.72-3.613 1.355 0 1.355 1.086 2.71 1.086 1.351.001 2.699-2.166 4.054-2.166m45.821 1.136h8.431c.917 2.076.662 2.246.662 2.651 0 1.354 3.953 1.878 5.309 2.897 4.523 3.446 5.249 10.572 11.417 12.369-.157 2.144-1.578 3.672-3.469 3.672-1.349 0-4.414-2.448-6.574-3.123-1.02-.344-2.001-.141-3.168.2-4.189-4.746-5.472-10.169-11.495-13.547-.472-.269-1.185-1.535-1.754-2.693l.641-2.426m-36.558 12.454h2.871c-.518 1.915-1.042 2.916-1.061 3.353.481.448 1.375-.167 6.786-.167 3.987 0 3.244 4 3.06 6.615 2.782 1.044 2.999 4.184 2.072 6.051 1.008.934 2.589.901 4.291 2.079v2.445c-1.195.632-2.661 1.745-4.016 1.745-5.817 0-9.673-10.284-17.583-10.284-1.352 0-6.118 1.611-8.941 2.71 0 0-.527-.543-1.299-.671.53-1.348 1.662-2.5 3.204-3.921-2.481-2.181-5.865 1.784-7.567-2.756 2.895-3.647 17.983-7.261 18.183-7.199m-50.837 3.738l1.268 1.316c-.569 1.228-.537 1.915-.537 3.27 0 2.366-2.164 3.512-3.25 3.512-1.355 0-1.081-1.62-2.433-1.62-1.354 0-3.158 1.064-5.05 1.554.726-3.915 6.631-7.501 10.002-8.032m-26.699 4.367h3.009c.075.755.611.219.611 1.568 0 1.355-3.313 5.584-3.653 8.418-.203 1.624.406 3.781.187 6.026-.919 1.148-1.944 1.246-3.299 1.246-2.565 0-2.507-1.119-7.842-4.562 3.326-3.473 6.569-8.34 10.987-12.696m34.797.533h3.385c-.141 3.823-4.538 6.421-6.045 8.045h-1.856c-.611-.596-.69-.249-.69-1.601-.002-1.014 3.314-6.49 5.206-6.444m18.849 3.741c1.222.569 1.918 1.354 1.918 2.704 0 1.895-9.908 17.93-11.462 19.216-.409.337-1.771.21-2.717.887-1.086.809-2.186 2.586-5.067 4.242-.697-.618-1.316-.269-1.316-1.624 0-1.346 1.637-4.14 2.193-5.548-1.99-.408-4.156.135-6.421-.458 0 0-.019-.563-.642-1.279 2.223-2.891 6.494-6.507 6.494-7.862 0-1.348-1.004-1.158-1.568-1.791v-2.467c.757-.066 1.025-.609 2.38-.609 1.354 0 4.388 2.716 6.421 3.256.959-1.011 1.473-2.599 2.177-3.583.978-.704 2.71-.753 3.722-.933 1.567-1.374 2.13-3.026 3.888-4.151"/><path fill="#020202" d="M239.343 135.28c2.91 0 7.841.476 7.841 5.142 0 1.353-.576 3.366-1.796 3.839-3.11 1.146-6.723 1.332-9.698 3.025-2.432 1.352-2.842 6.494-6.557 8.507h-2.473v-4.079c-.034-.199 3.943-9.891 4.687-10.913.742-1.011 1.044-3.001 1.855-3.819 1.279-1.28 4.785-1.702 6.141-1.702m32.463 0c1.348 0 1.813.622 2.416 1.253.019.642-.603 1.914-1.239 2.521l-7.934-.733c1.741-1.372 5.408-3.041 6.757-3.041m-21.368 14.611c1.345 0 5.406.537 6.762.537 4.323 0 4.598 5.341 4.598 6.767 0 2.163-.208 5.138-3.518 5.138-1.355 0-9.875-4.362-14.841-7.164v-1.896c2.229-1.706 5.644-3.382 6.999-3.382m84.054 3.8c1.125.408 4.215 2.67 6.263 5.793-1.316.147-2.402.684-3.345.644 0 0-.418-.497-.418.853 0 1.351.987 1.414 2.022 2.264 2.318.658 4.025-1.604 5.812 1.254.314-.932.289-1.898.309-3.076l1.244-1.241c.628-.013 1.898.609 3.05 1.777v6.527c.013 1.355-3.273 7.253-5.406 10.277.943.37 2.356.354 4.242-.134-.445 3.499-.445 5.073-.484 6.837-1.193.645-2.934.671-4.321.537 1.951 2.904-1.296 5.43 3.495 7.178.407-.468.865-1.358.95-2.13h1.741c1.625-.04 6.265 6.401 7.141 8.238.211.55.237.92.237 2.271 0 1.348-.551 3.787-.564 5.512-.608.629-.247.71-1.61.71-6.754 0-3.142-5.905-9.458-8.661 0 0-.361-.074-.819.275 1.009.891 2.684 2.042 3.196 3.181v2.429c-.76.066-.485.609-1.847.609-2.016 0-3.783-2.687-3.915-4.576-.34-4.874-1.073-10.425-2.5-15.089-.734-2.441-3.044-4.949-3.044-6.304 0-1.352.575-1.492.902-2.016.19-.517-.372-.691-.372-2.045 0-3.579 4.875-1.556 4.875-5.944 0-3.043-5.06-1.971-5.833-2.147-1.7-2.579-3.286-5.24-5.524-7.573 1.676-2.349 2.75-4.499 3.981-6.23m-133.9 4.346v3.417c.065 1.355-2.366 3.044-3.682 2.961v-2.418c-.039-1.355 1.705-2.86 3.682-3.96m170.571.02h3.547l1.238 1.32c-.615.709-1.689 2.411-3.031 2.373h-2.849c-.064-1.851 1.016-2.937 1.095-3.693m-218.234 8.111c1.182 2.828 1.739 6.133 2.174 9.638-1.362-.517-2.566-1.725-3.129-2.877 0 .001.265-6.807.955-6.761m212.474 4.28c1.347 0 3.79 1.081 6.206 1.248-.603.839-.576 1.961-1.323 2.972-.811 1.083-2.716 2.271-4.071 2.271-1.349 0-2.684-1.771-3.196-2.91v-2.431c.759-.069 1.035-1.15 2.384-1.15m-8.741 10.835c4.054.665 5.769 5.195 5.769 7.018 0 1.355-.543 1.899-.628 2.648h-2.488c-1.702-2.209-3.914-5.623-3.914-6.979-.001-1.345.615-2.085 1.261-2.687m-266.709 6.019c.268-.079 2.268.871 2.991 2.507-2.961-.295-6.3-.243-8.045-2.507h5.054m282.401 6.965c1.898 1.689 3.522 4.39 5.742 6.645v1.85c-.597.609-.25.69-1.604.69-1.35 0-3.745-2.288-4.857-3.99l.719-5.195m34.484 3.292h1.985c3.731 4.986 10.219 7.084 13.654 9.377-1.159 1.307-2.704 1.925-4.059 1.925-3.791 0-7.705-3.07-11.581-7.744v-3.558m-98.243 5.892c.734.622.813.543.813 1.896 0 1.348-1.081 1.624-1.18 2.91l-3.128-.635c.551-1.316 2.225-3.012 3.495-4.171m60.37 3.316c3.495.203 4.484 5.577 4.692 8.549-1.316-.76-4.739-3.548-4.692-5.034v-3.515m-122.048 1.558c1.354 0 2.261-.134 8.69.537 4.798.541 12.114.541 17.004 5.181-1.224.743-1.89.769-3.24.769-1.349 0-3.85-1.08-5.205-1.08h-10.151c-1.344 0-5.2-2.164-6.555-2.164-1.352 0-2.642.53-4.946 1.074l-1.273-1.363c.616-.716 1.185-1.822 1.791-2.264 1.145-.146 2.533-.69 3.885-.69m164.243 1.663h2.331c1.349-.043 6.18 3.8 8.438 5.724-.798.181-.798.724-2.154.724-2.37 0-7.476-1.853-8.615-4.533v-1.915m-203.722 2.117s.527.543 1.299.622v1.751c.039 1.346-3.152 4.786-4.907 6.543-.876.883-2.955 1.05-4.369 1.996-1.764 1.152-2.141 3.09-3.804 4.536-.583.229-.674.786-2.029.786-1.356 0-2.138-1.233-2.711-2.444 4.17-6.759 3.791-3.777 3.791-6.484.001-3.11 10.248-6.333 12.73-7.306m12.286.079h1.984c-.422 3.413 2.552 2.628 3.299 2.628 1.352 0 4.33-1.08 5.683-1.08 1.348 0 1.745.03 2.896.618 0 0 0 .543.596 1.172.019.646-1.14 1.374-1.768 1.987h-7.61c-1.354.007-2.654 1.601-3.601 1.99.531.878.826 1.267 2.181 1.267 1.354 0 3.787-1.081 5.142-1.081 1.352 0 1.621.537 2.38.619v1.921c-2.448 2.844-3.051 2.929-5.457 2.269.098.87-.979 2.759-.979 4.114 0 1.354.455.89 1.076 1.62-.622.733-.54.813-1.895.813-1.349 0-3.787-1.078-5.596-1.159-.082-.73-.626-.187-.626-1.542 0-1.895 3.428-4.074 4.331-4.579-.93-.32-2.163-.832-3.518-.832s-2.164 1.081-3.345 1.061c-.629-.595-1.254-.524-1.254-1.872 0-1.352 4.356-6.615 6.081-9.934m84.812 4.471s0 1.944-1.348 1.944c-1.354 0-3.476-2.284-4.57-4.182 2.403-.149 4.177.984 5.918 2.238m-215.702.403h1.965c-.796 2.252-2.681 3.23-5.355 2.997 1.138-1.374 2.218-1.917 3.39-2.997m216.829 2.755c2.389-.127 2.932.41 3.666.492.08.73.623 1.273.577 1.957 0 0 .046.667-1.311.667-1.355 0-2.408-1.773-2.932-3.116m-3.221 4.835c2.436.455 4.726 2.15 6.402 3.859.026.645-.595 1.918-1.244 2.52-2.14-.186-4.594-4.677-5.158-6.379m-113.413 3.149c.73.625 1.889.812 1.889 2.166 0 1.352-.615 2.085-1.787 3.192h-1.932c-.068-.759-.605-.216-.605-1.571 0-1.356 1.162-2.625 2.435-3.787m25.157 2.706c1.354 0 1.354.538 2.111.619v1.932c-1.113 1.159-1.843 2.317-3.191 2.317-1.353 0-2.085-.623-2.701-1.3.826-2.18 3.038-3.568 3.781-3.568m-28.904 2.168c.69.614 1.313 1.079 1.313 2.434 0 1.353-1.205 1.843-3.001 2.975-.703-.625-.786-.543-.786-1.897-.001-1.353 1.233-2.95 2.474-3.512m17.34 2.716h3.83c.622.603.704.796.704 2.15 0 2.029-2.098 3.244-3.521 3.244-1.353 0-2.286-.569-3.477-1.205v-2.428c.583-.616 1.113-1.777 2.464-1.761m55.659.527c1.351 0 6.141 5.492 9.467 8.903 0 0 0 1.917-1.349 1.917-1.355 0-6.704-6.045-9.99-10.124.792-.152.517-.696 1.872-.696m7.424.02h2.253c1.754-.02 4.916 5.908 5.15 6.952h-1.772c-2.24.062-6.291-4.203-6.291-5.349l.66-1.603m-45.902 3.273h3.506c.075.762.618 1.03.618 2.386 0 1.355-1.168 1.816-1.79 2.387h-4.652v-2.501c.57-.616 1.18-1.749 2.318-2.272m-25.364.494c1.352 0 2.433.536 2.433 1.891 0 2.573-3.856 2.975-5.201 2.969 0 0-.478-.538-1.241-.643.505-1.871 2.655-4.217 4.009-4.217m-10.98 3.286h2.439c.618.583 1.233 1.313 1.214 1.958-.596.628-1.87 1.247-2.513 1.227-.629-.599-1.172-.599-1.784-1.252l.644-1.933m26.076.504c3.296 0 3.296.533 4.029.616.079 1.273-2.154 4.248-3.499 4.196h-3.944c.632-3.051 1.274-3.991 3.414-4.812m-96.104 4.905c.125 1.791-1.329 4.069-3.649 3.028.556-1.292 2.301-2.5 3.649-3.028m83.608-.021h4.003l1.24 1.316c-.435.89-3.044 2.994-3.787 2.994-1.349 0-2.046-.588-2.046-.588-.576-.569-.658-.219-.658-1.575.001-1.355.62-1.542 1.248-2.147m-8.278.522c1.348 0 2.674 1.234 3.244 2.436-.569 1.204-1.352 1.894-2.707 1.894-1.348 0-1.892-.543-2.628-.621-.076-.73-.616-1.816-.596-2.461.596-.628 1.332-1.248 2.687-1.248m-82.256 7.208c-1.662 2.419-3.826 5.125-5.545 7.339h-1.983v-1.9c-.025-1.347 3.895-4.493 6.275-5.809l1.253.37m101.897-.691c.643-.026 1.372.053 1.944.685v2.469c-.759.072-1.302.608-4.225.529v-1.924c.57-.62 1.65-1.163 2.281-1.759m-99.779 24.368v1.782c.063 1.354-1.581 3.43-2.34 5.06-.341.557-1.922-1.205-1.922.137 0-1.007 1.991-6.193 4.262-6.979m117.824 25.937l.723 4.576c-.134 4.955-7.911 7.312-10.552 7.312-1.352 0-2.821-.026-4.014-.667a49.408 49.408 0 0 1 0-3.528c2.138-1.121 6.648.438 8.681-1.867 1.621-1.899 3.257-4.136 5.162-5.826m-47.97 18.918c1.356 0 2.979.543 4.5.562l.838-.51v3.039l-3.931 3.94c-1.761-.551-2.367-2.75-4.095-3.966.544-1.731 1.477-3.065 2.688-3.065m7.783 3.266h1.81c.609.602.609 1.146 1.228 1.841-.569 1.244-1.892 3.01-3.244 3.01-1.355 0-2.085-.621-2.704-1.308.564-1.244 1.771-2.987 2.91-3.543m4.426 4.315c.697.614 1.044.536 1.694.562.622.603.705.524.705 1.867 0 2.166-3.178 9.472-4.6 9.472-2.5 0-2.431-2.298-2.431-2.696 0-.959 3.577-8.631 4.632-9.205m-18.536 2.186h2.386c.619.601.697 1.059.697 2.408 0 1.355-.588 2.861-1.636 4.262.946.373 2.716.072 2.716 1.419 0 1.357-.543 2.436-.563 3.621-.596.635-1.991.674-3.186.046-.039-1.231.53-2.186.236-3.123-.3.937-1.63 2.16-2.769 2.154-1.139-.563-1.836-1.341-1.836-2.698.002-3.108 3.264-7.421 3.955-8.089m10.798.013c.671-.041 1.75.503 2.487.587.076.729.619.185.619 1.54s-1.126 3.665-2.367 5.4c-1.273-.563-3.044-1.349-3.044-2.696.001-1.349 1.127-3.128 2.305-4.831m62.971-.025s.729-.015.729 1.342c0 .811-4.288 9.178-6.435 9.969v-3.549c-.058-2.37 4.004-6.933 5.706-7.762m-32.43.554c.671 1.212.697 2.411.697 3.765 0 1.349-.959 4.066-1.502 5.761-.467 1.558.485 3.213.216 4.831-.21 1.086-1.568 2.364-2.834 2.92-1.778-2.258-4.534-6.482-4.534-7.836 0-3.044.877.557.639-9.407 2.399.491 4.971.491 7.318-.034m7.011 1.076l1.215 1.249v5.152c-.767.07-1.042.614-2.386.614-1.965 0-2.443-2.03-2.443-3.516 0-1.831.324-3.244 3.614-3.499m-24.051 1.098h2.432c.618.584.697.237.697 1.591 0 1.349-1.97 9.046-2.913 13.315-.068.529-1.148 1.289-2.494 1.289-1.355 0-3.254-1.079-3.254-2.434.001-1.357 3.811-9.289 5.532-13.761m5.463 7.019c.645-.02 1.28.543 1.731.752.259 1.061.802 1.924.802 3.286 0 1.348-.537 1.623-.616 3.463h-4.088c-.625-.571-.704-.759-.704-2.116.001-1.347 1.704-4.247 2.875-5.385m37.975 2.146c.73.616.812.268.812 1.617 0 2.573-2.167 7.582-4.668 7.556h-2.795s-.654.026-.654-1.331c-.001-2.573 5.354-6.004 7.305-7.842m-65.05 3.28l3.607.641a100.906 100.906 0 0 1-1.63 5.146c-.583.589-1.978.641-3.162 0-.043-.682-.582-.413-.582-1.767 0-1.349 1.113-2.823 1.767-4.02m7.97 1.583c1.348 0 2.013.57 3.224 1.218v1.689c.023 2.985-1.941 5.753-3.768 5.753-2.841 0-3.787-1.892-3.787-4.066.001-2.84.748-4.594 4.331-4.594m45.571 2.233h2.514c.065 2.913.065 6.152.046 8.962-.603.628-1.811.706-2.298.817-2.595 1.938-2.013 3.687-4.713 3.687-1.354 0-1.898-.551-2.655-.628v-7.332c.57-.628 1.722-1.218 2.923-1.782 1.205.563 1.742 1.65 2.6 2.187.388-1.46.401-3.665 1.583-5.911m-38.818 1.558s.549.544 1.313.621v6.796c-.57.616-.57 1.165-1.201 1.754h-1.849c-.609-.589-1.768-1.329-1.768-2.678-.001-2.029 2.29-5.78 3.505-6.493m27.869 3.789c1.356 0 2.085.618 2.698 1.277-.537 2.305-1.074 4.406-1.148 6.757-.737.084-.462.621-1.817.621-2.5 0-2.432-2.029-2.432-3.515 0-.675.334-5.14 2.699-5.14m-18.934 1.618c2.03 0 3.25 2.167 3.25 3.254 0 2.696-2.301 2.696-2.708 2.696-1.355 0-3.791-1.347-3.791-2.696.002-1.355 1.9-3.254 3.249-3.254m9.204.543c1.346 0 2.654 3.366 3.781 5.173-1.162 1.241-3.515 2.945-4.867 2.945-1.354 0-3.243-1.086-3.243-2.436-.001-1.413 2.162-5.682 4.329-5.682"/><path fill="#020202" d="M253.95 261.885c1.767 2.062 5.142 1.689 5.142 4.596 0 1.355-1.081 2.166-1.081 3.522 0 1.347 2.701 4.319 2.701 5.676 0 1.355-2.17 6.016-2.949 9.13-.932.813-1.997.8-3.001 1.689.461.355 1.353.263 2.668.355v1.741c.039 1.355-2.2 2.565-2.542 3.927-.266 1.074.229 3.064-.38 3.876-1.012 1.354-3.071 2.735-4.631 4.267.02.981 1.492 1.826 2.693 2.487-.314 2.266-5.384 6.946-5.384 10.396 0 1.36 1.086 3.247 1.086 4.602 0 1.354-.588 3.665-1.823 5.4-1.272-.564-3.038-1.8-3.325-3.234-.825 2.534-1.369 5.238-2.776 8.197 1.061-.603 2.239-1.167 3.388-1.159 0 0 .475.536 1.254.615v1.747c.039 1.349-3.07 5.645-5.506 7.13-1.889 1.146-6.359 1.321-7.714 1.321-1.146 0-5.974-2.689-6.639-3.698-9.364-1.44-1.272-3.876-8.778-3.876-1.355 0-1.898 1.625-3.247 1.625-1.42 0-9.161-1.82-10.65-4.347-4.767 1.36-.034 8.13-4.498 8.13-1.355 0-1.355-.538-2.125-.616v-3.51c-.042-1.347 1.064-1.674 1.594-2.552-.945-.379-2.719-.798-4.209-1.676-1.146-.681-1.751-2.146-1.898-3.104-1.306-.458-4.256-.981-5.61-1.007h-1.715c-.619-1.21-1.581-2.711-2.602-3.227-.481.005-1.375 1.002-1.998 1.603h-1.849c-.612-.601-.69-.523-.69-1.871 0-1.356 1.619-1.624 1.619-2.979 0-1.342-1.594-2.854-1.915-3.791-.979 1.52.161 4.399-3.836 5.408-.665-.609-.736-.806-.736-2.155 0-1.354 2.7-6.219 2.7-7.573 0-3.384-7.574-8.588-7.574-16.502 0-2.101.945-5.138 3.787-5.138 1.354 0 3.165 1.701 4.291 2.873v1.879c-1.194.628-2.936.119-3.915.098-.455.485-.376.289-.376 1.644 0 13.316 28.803 21.433 30.024 21.433 2.166-.066 4.33.747 6.689.824.082 1.277-1.623 2.009-2.628 2.874 1.502.883 4.324 1.918 5.678 1.918 13.394 0 22.202-11.261 28.221-26.342 1.49-3.654 1.964-8.313 3.587-12.438 2.434-6.087 6.866-14.263 11.478-20.188m108.1 4.346c1.311.543 2.514 1.205 3.051 2.358v11.166c1.401-.025 3.09-.549 4.805.047.601 1.164.098 2.907.078 13.084.484.453 1.375-.17 3.096-.144l1.251 1.311c-1.113 2.305-4.02 4.058-5.302 6.637-1.965 3.987-4.438 12.046-4.438 13.407 0 1.349.523 3.7 1.072 5.466-.615.675-.26.752-1.609.752-3.05 0-3.706-2.789-5.748-4.883-1.479.536-3.606 2.691-6.062 3.732.458-1.912.989-4.257.989-5.617 0-1.349-1.623-6.992-2.133-10.153-.492-.477-1.388-.392-2.049-.426-1.728-2.382 1.4-6.219-.943-9.165-.878 1.499-2.096 3.234-4.02 3.731v-5.151c-.052-1.356 4.347-3.909 6.67-6.154 3.013 1.656 1.722 3.554 1.526 5.191-.144.551-.138.76-.138 2.107 0 3.798-.124 1.336 3.527 3.759.786 2.1.773 4.242 1.651 6.258l2.938-2.959c-1.499-.877-3.791-2.999-3.791-4.347 0-1.354 1.702-2.899 3.293-4.432v-7.764c-1.406.02-3.018.02-4.785-.019 0 0-.667.039-.667-1.315 0-2.024 3.888-4.733 4.7-6.083 1.763-2.975 1.807-6.989 3.038-10.394"/><path fill="#020202" d="M345.254 298.702c1.904.522 2.905 5.341 3.076 6.61.491.471 1.382-.144 2.114-.072.08 1.277.623 1.813.623 3.168 0 1.356-1.625 9.539-2.907 14.056-3.502-3.104-5.21-9.178-5.21-11.888-.001-1.354 1.092-7.921 2.304-11.874m-5.153 7.579c.688 2.887 2.305 8.079 2.305 9.441 0 1.478-.216.994-1.511 2.264-.106 2.612.425 5.905-.368 9.047-.412.275-1.499.282-2.362.747-.636 3.142-1.187 6.979-3.013 10.919-2.743-2.789-2.48-3.639-2.48-5.944 0-1.349 3.791-15.69 3.791-17.032 0-1.362-1.087-2.174-1.087-3.523-.001-1.428 1.851-4.858 4.725-5.919M103.435 193.825c4.255 1.957 9.19 4.733 13.848 6.818-4.127-5.142-12.683-9.633-19.906-10.605.788 1.902 4.905 3.244 6.058 3.787m14.418 33.582c-6.903.664-15.174 3.466-22.548 7.253-1.958 1.015-6.094 3.42-5.967 6.081 9.391-4.517 17.731-9.165 27.262-11.737.535-.134.663-.746 1.253-1.597"/><path fill="#F4B11B" d="M239.565 328.538c-.57.891-1.725 2.03-2.865 2.54h-1.888c-.069-.76.474-1.296.557-2.03 1.266-.077 2.775-.051 4.196-.51"/><path fill="#020202" d="M1.137 416.531c7.214-2.003 21.886-4.012 42.566-3.234 12.218.458 24.419 5.874 33.965 7.777 8.225 1.65 16.712-.917 22.636-3.09a82.485 82.485 0 0 1 1.441 3.216c3.023 7.074-.394 19.958-5.964 26.648-5.564 6.678-5.659 5.506-8.032 9.217-3.29 5.132-.141 9.341-.141 9.341 3.633 5.964 11.55.218 11.564.203 3.142-1.636 11.488-5.589 17.723-6.716 5.516-.987 15.875-2.854 22.604-3.312 7.21-.477 9.443-.052 11.213 1.8 1.427 1.499 2.046 2.993 2.354 4.339-3.122 2.228-11.933 7.654-30.835 13.813-24.816 8.078-35.961 4.916-43.79 1.532-7.833-3.379-21.138-9.054-35.356-6.292-14.222 2.763-30.128 7.005-35.353 10.074-5.213 3.07-5.368 3.222-5.368 3.222s1.018-8.071 8.847-16.365c7.83-8.288 22.411-14.676 32.646-16.064 10.229-1.375 20.767-2.613 26.908-3.68 6.14-1.074 9.054-2.003 9.054-2.003s-10.845-5.472-17.292-11.298c-6.452-5.84-19.494-13.054-26.654-14.585-7.162-1.538-11.462-2.303-16.378-2.303-4.906 0-10.375-.1-13.445-.564-3.077-.458-5.686-1.223-4.913-1.676"/><path fill="#F4B11B" d="M152.814 444.843c-5.397.517-10.516 1.035-13.993 1.486-8.333 1.087-17.917 1.782-25.065 2.861-4.568.688-7.324 1.447-12.533 3.528-8.389 3.358-9.521 10.671-9.569 10.715 1.439 2.273 4.709 1.973 4.709 1.973s1.83-.355 4.939-2.266c3.421-1.749 9.547-4.622 20.761-6.763 13.648-2.611 21.752-3.188 28.316-2.31 5.328.721 5.884 6.925 5.957 6.899 1.254-.556 5.06-11.966-3.522-16.123z"/><path fill="#020202" d="M521.929 417.134c-7.213-1.99-21.897-4-42.568-3.221-12.222.458-24.424 5.866-33.97 7.777-8.22 1.65-16.718-.917-22.636-3.088a82.847 82.847 0 0 0-1.44 3.207c-3.024 7.083.399 19.965 5.957 26.656 5.578 6.677 5.67 5.511 8.04 9.217 3.286 5.132.137 9.335.137 9.335-3.626 5.969-11.54.216-11.553.209-3.144-1.636-11.496-5.591-17.728-6.709-5.511-.997-15.868-2.874-22.604-3.319-7.206-.479-9.446-.052-11.22 1.794a9.03 9.03 0 0 0-2.349 4.339c3.121 2.239 11.926 7.667 30.838 13.819 24.81 8.078 35.965 4.909 43.794 1.538 7.829-3.377 21.124-9.053 35.355-6.29 14.218 2.756 30.125 7.003 35.342 10.067 5.218 3.077 5.375 3.227 5.375 3.227s-1.02-8.084-8.849-16.372c-7.831-8.287-22.414-14.683-32.641-16.058-10.231-1.388-20.764-2.612-26.903-3.685-6.141-1.074-9.06-2.004-9.06-2.004s10.839-5.465 17.295-11.298c6.441-5.833 19.495-13.053 26.648-14.585 7.162-1.538 11.455-2.305 16.372-2.305 4.911 0 10.383-.098 13.453-.562 3.069-.451 5.688-1.223 4.915-1.689"/><path fill="#F4B11B" d="M421.838 452.718c-5.21-2.082-7.96-2.841-12.529-3.528-7.148-1.079-16.731-1.774-25.072-2.861-3.477-.451-8.594-.969-13.994-1.486-8.576 4.156-4.773 15.567-3.517 16.123.072.026.63-6.178 5.964-6.899 6.559-.878 14.663-.301 28.306 2.31 11.22 2.141 17.347 5.014 20.764 6.763 3.109 1.911 4.95 2.266 4.95 2.266s3.26.301 4.699-1.958c-.033.019-1.139-7.359-9.571-10.73z"/><path fill="#020202" d="M261.144 377.164c-12.85 0-26.869-.322-55.885 1.27-29.114 1.584-55.115 4.61-69.674 6.126-14.552 1.507-32.371 4.609-37.86 7.477-5.493 2.861-3.184 6.52-1.194 10.1 1.99 3.582 6.765 10.973 9.779 18.049 3.024 7.083.174 20.489-5.959 26.649-6.111 6.134-11.803 10.702-8.7 16.62.033.065 1.119-7.35 9.573-10.736 5.209-2.082 7.964-2.841 12.533-3.528 7.149-1.079 16.732-1.774 25.065-2.861 8.327-1.087 25.969-2.514 34.648-3.508 8.688-.997 55.885-3.693 88.812-4.007 32.936.314 78.62 3.01 87.314 4.007 8.681.994 26.321 2.421 34.642 3.508 8.341 1.087 17.924 1.782 25.072 2.861 4.569.688 7.319 1.447 12.529 3.528 8.458 3.386 9.546 10.801 9.571 10.736 3.104-5.918-2.58-10.486-8.693-16.62-6.14-6.16-8.988-19.566-5.964-26.649 3.019-7.077 7.79-14.468 9.781-18.049 1.991-3.58 4.301-7.239-1.192-10.1-5.491-2.867-23.312-5.97-37.862-7.477-14.552-1.517-40.562-4.542-69.672-6.126-29.018-1.592-43.813-1.27-56.664-1.27"/><path fill="#FFF" d="M141.176 407.683l-.396-3.471c-.21-1.818-.16-3.325.141-4.535.308-1.213.946-2.285 1.912-3.228a8.771 8.771 0 0 1 3.396-2.031l.314 2.776c-.876.641-1.331 1.427-1.351 2.356l1.601-.183.864 7.573-6.481.743m29.922-15.647l.742 7.764-5.986.576 2.985 31.015-10.081.97-2.984-31.016-5.963.574-.747-7.762 22.034-2.121m26.908-1.715l2.379 38.87-10.11.615-.999-16.325-3.021.184.999 16.324-10.118.631-2.38-38.886 10.119-.615.851 13.898 3.021-.178-.851-13.903 10.11-.615m4.786-.289l16.872-.732.334 7.788-6.749.296.32 7.378 6.321-.275.323 7.396-6.323.276.377 8.562 7.426-.327.337 7.79-17.544.765-1.694-38.917m50.778-1.321l.066 7.803-6.013.046.273 31.152-10.128.093-.277-31.16-5.982.052-.069-7.79 22.13-.196m12.444-.237l.34 38.95-10.13.08-.344-38.944 10.134-.086m28.307 15.032l-10.134-.263.098-3.536c.059-2.23 0-3.626-.177-4.195-.183-.563-.628-.857-1.347-.878-.63-.012-1.061.217-1.297.688-.235.479-.379 1.715-.433 3.692l-.484 18.696c-.052 1.748.028 2.899.237 3.469.216.549.654.832 1.329.852.74.019 1.237-.283 1.512-.898.288-.621.458-1.839.51-3.646l.118-4.615-2.042-.059.157-5.911 11.862.307-.549 20.903-6.376-.17-.866-2.815c-.726 1.185-1.622 2.075-2.696 2.65-1.061.563-2.305.826-3.731.8a9.86 9.86 0 0 1-4.753-1.362c-1.452-.865-2.54-1.925-3.286-3.169-.732-1.231-1.178-2.52-1.342-3.861-.149-1.35-.195-3.366-.124-6.036l.301-11.574c.098-3.718.366-6.415.811-8.091.446-1.676 1.63-3.175 3.562-4.524 1.944-1.354 4.424-2.001 7.437-1.916 2.972.064 5.413.745 7.337 2.015 1.924 1.271 3.162 2.75 3.711 4.452.551 1.689.78 4.123.701 7.305l-.046 1.69m5.013-14.273l16.876.735-.34 7.79-6.755-.296-.329 7.377 6.325.276-.322 7.404-6.317-.275-.379 8.557 7.425.327-.33 7.789-17.556-.767 1.702-38.917m30.801 8.198l-.531 8.647c1.139.072 1.937-.034 2.408-.309.484-.301.772-1.296.886-3.011l.123-2.135c.078-1.236-.098-2.055-.524-2.475-.405-.403-1.198-.646-2.362-.717m-9.702-7.267l7.155.433c4.771.301 7.986.68 9.649 1.151 1.676.465 2.985 1.499 3.953 3.077.976 1.578 1.362 4.02 1.167 7.332-.183 3.023-.688 5.04-1.506 6.036-.812.989-2.331 1.525-4.556 1.598 1.97.615 3.273 1.367 3.915 2.238.641.878 1.02 1.669 1.133 2.39.137.695.111 2.611-.085 5.755l-.628 10.25-9.389-.574.785-12.917c.131-2.088.041-3.384-.26-3.901-.301-.51-1.141-.812-2.526-.896l-1.074 17.529-10.107-.621 2.374-38.88zm48.023 15.874l-9.369-.896.275-2.879c.131-1.336.099-2.199-.111-2.601-.203-.384-.584-.601-1.146-.66-.603-.067-1.094.145-1.455.603-.353.471-.575 1.203-.68 2.212-.118 1.291-.039 2.285.25 2.964.274.688 1.152 1.579 2.617 2.652 4.236 3.103 6.847 5.55 7.856 7.378.994 1.826 1.309 4.634.948 8.437-.268 2.758-.791 4.767-1.563 6.01-.772 1.244-2.122 2.226-4.059 2.946-1.939.693-4.138.93-6.6.688-2.689-.255-4.947-.989-6.768-2.199-1.801-1.2-2.92-2.626-3.358-4.262-.438-1.637-.518-3.909-.242-6.809l.242-2.547 9.369.91-.453 4.714c-.137 1.453-.111 2.396.111 2.841.237.438.682.695 1.349.752.674.072 1.192-.144 1.565-.646.386-.492.628-1.256.727-2.292.222-2.292.059-3.809-.497-4.568-.577-.773-2.029-2.088-4.381-3.981-2.351-1.898-3.894-3.26-4.627-4.097-.747-.824-1.329-1.926-1.741-3.312-.399-1.375-.499-3.09-.302-5.146.281-2.972.864-5.106 1.754-6.409.891-1.303 2.226-2.246 3.994-2.854 1.767-.615 3.848-.813 6.245-.584 2.617.257 4.803.891 6.559 1.918 1.767 1.028 2.887 2.207 3.351 3.556.484 1.334.577 3.546.275 6.631l-.135 1.53m11.148-10.402l-.394 3.471c-.209 1.792-.589 3.258-1.151 4.399-.563 1.112-1.429 2.008-2.593 2.696a8.935 8.935 0 0 1-3.77 1.217l.32-2.789c1.015-.425 1.643-1.081 1.867-1.978l-1.617-.175.857-7.581 6.481.74"/><path fill="#020202" d="M446.358 25c.958 0 1.895.246 2.808.738a5.241 5.241 0 0 1 2.134 2.112c.51.916.765 1.871.765 2.865 0 .984-.251 1.93-.753 2.839a5.304 5.304 0 0 1-2.111 2.115 5.785 5.785 0 0 1-2.842.753 5.78 5.78 0 0 1-2.842-.753c-.906-.502-1.611-1.207-2.116-2.115s-.757-1.854-.757-2.839c0-.994.256-1.949.768-2.865s1.225-1.62 2.139-2.112c.912-.492 1.848-.738 2.807-.738zm0 .945c-.803 0-1.583.206-2.343.617-.76.412-1.354 1-1.783 1.764a4.818 4.818 0 0 0-.644 2.388c0 .823.21 1.611.632 2.366a4.471 4.471 0 0 0 1.768 1.764c.757.421 1.547.632 2.37.632s1.612-.211 2.37-.632c.757-.421 1.345-1.009 1.764-1.764s.628-1.543.628-2.366c0-.828-.213-1.624-.64-2.388-.427-.765-1.021-1.353-1.783-1.764s-1.542-.617-2.339-.617zm-2.504 7.93v-6.148h2.117c.723 0 1.247.057 1.57.17.324.114.582.312.774.594.192.283.289.583.289.901 0 .449-.161.84-.483 1.173-.323.333-.75.52-1.283.56.217.091.391.199.522.326.248.242.55.649.909 1.219l.75 1.205h-1.214l-.546-.97c-.429-.761-.773-1.238-1.033-1.431-.182-.142-.447-.212-.795-.209h-.583v2.609l-.994.001zm.992-3.461h1.208c.577 0 .97-.086 1.181-.257a.834.834 0 0 0 .315-.68.825.825 0 0 0-.152-.487.911.911 0 0 0-.421-.321c-.18-.07-.513-.106-.999-.106h-1.131v1.851h-.001z"/></svg>