<svg xmlns="http://www.w3.org/2000/svg" width="400" height="400" viewBox="0 0 400 400"><path fill="#010101" d="M328.964 62.99l-.662-6.158h-34.757C288.432 26.281 261.885 3 229.877 3c-32.001 0-58.555 23.277-63.666 53.832h-94.73l-.666 6.158c-.025.204-.637 5.957-.637 15.776.003 20.65 2.69 59.318 19.45 102.332 16.741 43.001 47.729 90.357 103.879 127.577h.006c1.599 1.088 3.712 1.795 5.763 1.776.208 0 .409-.016.612-.027.202.012.403.027.61.027 2.044.02 4.162-.688 5.756-1.764l.022-.012c56.15-37.226 87.129-84.583 103.875-127.586 16.76-43.02 19.447-81.688 19.447-102.328.003-9.815-.608-15.568-.634-15.771z"/><path fill="#E43525" d="M315.815 78.759c0-3.222-.071-5.944-.162-8.131h-21.289c-1.606 34.231-29.851 61.492-64.487 61.492-34.628 0-62.88-27.261-64.484-61.492H84.126c-.091 2.19-.162 4.918-.162 8.138-.003 19.443 2.579 56.478 18.514 97.324 15.829 40.545 44.651 84.85 97.414 120.251a279.58 279.58 0 0 0 22.814-17.032l-43.992-50.772 2.124-1.745.646-.528.837-.057.84-.02c1.57.013 3.12.179 4.884.179 2.831 0 6.151-.388 10.453-2.655 1.77-.956 2.913-2.287 3.696-3.897.774-1.605 1.125-3.496 1.125-5.292.009-1.961-.443-3.82-.962-4.827-.933-1.948-3.295-3.387-5.658-4.19a21.28 21.28 0 0 0-3.076-.79l-.942-.146-.29-.032-.115-.006-1.627-.28-.882-.159-8.264-9.193 3.906-3.377 2.685-2.321 3.912-3.382 58.151 67.116c.688-.767 1.364-1.536 2.039-2.307l-57.886-66.8 3.908-3.379 57.375 66.219a251.11 251.11 0 0 0 1.971-2.384l-57.035-65.832 1.339-1.158s1.967.545 5.076.676l53.903 62.216c.641-.817 1.282-1.633 1.906-2.452l-51.848-59.847a31.025 31.025 0 0 0 5.908-1.072l49.105 56.678c.617-.844 1.227-1.688 1.83-2.534l-47.87-55.259a9.465 9.465 0 0 0 3.835-3.463l47.083 54.347c.597-.878 1.176-1.758 1.757-2.637l-47.484-54.801c.868-3.063.61-6.126.444-7.372l49.956 57.664c.572-.906 1.131-1.813 1.687-2.72l-54.17-62.522v-7.883l56.961 65.74c.622-1.065 1.23-2.13 1.83-3.194L229.34 148.35l3.257-2.824 51.4 59.311a258 258 0 0 0 13.309-28.756c15.93-40.853 18.516-77.878 18.509-97.322z"/><path fill="#FFF" d="M241.523 131.07v24.756l21.433 24.732V123.01a64.11 64.11 0 0 1-21.433 8.06zm-33.032 83.451a19.283 19.283 0 0 1-.19 2.666l36.234 41.801c.708-.738 1.417-1.476 2.11-2.218l-38.251-44.147c.061.619.094 1.252.097 1.898zm-3.876 10.882l34.14 39.443c.73-.715 1.443-1.436 2.161-2.155l-34.498-39.798a13.75 13.75 0 0 1-1.803 2.51z"/><path fill="#FFF" d="M232.526 145.585c-4.93-5.016-13.757-10.87-22.187-16.478a64.513 64.513 0 0 1-25.579-15.376c-6.292 1.03-11.489 8.07-11.489 8.07l-26.509-.682-.455 10.507s-3.891-.227-7.998 0c-4.117.235-4.343 5.947-4.343 5.947s-3.2-.235-6.625.681c-3.432.917-2.97 6.167-2.97 6.167s-8.915.226-11.885 3.661c-2.971 3.426-3.433 10.516-.456 14.624 2.964 4.117 19.883 28.342 24.216 37.932 4.346 9.596 5.034 42.052 5.034 42.052l.27.774c15.153 18.677 34.245 36.706 58.343 52.875a279.58 279.58 0 0 0 22.814-17.032l-43.992-50.772 2.124-1.745.646-.528.837-.057.84-.02c1.57.013 3.12.179 4.884.179 2.831 0 6.151-.388 10.453-2.655 1.77-.956 2.913-2.287 3.696-3.897.774-1.605 1.125-3.496 1.125-5.292.009-1.961-.443-3.82-.962-4.827-.933-1.948-3.295-3.387-5.658-4.19a21.28 21.28 0 0 0-3.076-.79l-.942-.146-.29-.032-.115-.006-1.627-.28-.882-.159-8.264-9.193 3.906-3.377 2.685-2.321 3.912-3.382 58.151 67.116c.688-.767 1.364-1.536 2.039-2.307l-57.886-66.8 3.908-3.379 57.375 66.219a251.11 251.11 0 0 0 1.971-2.384L200.53 178.45l1.339-1.158s1.967.545 5.076.676l53.903 62.216c.641-.817 1.282-1.633 1.906-2.452l-51.848-59.847a31.025 31.025 0 0 0 5.908-1.072l49.105 56.678c.617-.844 1.227-1.688 1.83-2.534l-47.87-55.259a9.465 9.465 0 0 0 3.835-3.463l47.083 54.347c.597-.878 1.176-1.758 1.757-2.637l-47.484-54.801c.868-3.063.61-6.126.444-7.372l49.956 57.664c.572-.906 1.131-1.813 1.687-2.72l-54.17-62.522v-7.883l56.961 65.74c.622-1.065 1.23-2.13 1.83-3.194l-52.437-60.509 3.185-2.763z"/><path fill="#FFF" d="M197.559 229.799l35.223 40.698c.748-.687 1.502-1.373 2.237-2.063l-34.557-39.929a29.59 29.59 0 0 1-2.903 1.294zm96.805-159.171c-.689 14.673-6.273 28.064-15.157 38.578v90.104l4.789 5.525a258 258 0 0 0 13.309-28.756 263.05 263.05 0 0 0 3.336-9.064V70.628h-6.277zM188.161 231.542l38.488 44.427c.774-.668 1.532-1.341 2.292-2.012l-36.951-42.692a26.557 26.557 0 0 1-3.829.277zm4.659-32.161v-.002c.123.018 2.293.198 5.02 1.066l-9.744-11.246-2.685 2.321 7.001 7.795.408.066zm24.17-75.725l-13.561-20.315-23.025-6.358a57.143 57.143 0 0 1-7.847-24.316l15.109-19.174-1.088-23.836a58.224 58.224 0 0 1 2.597-2.799 57.694 57.694 0 0 1 18.266-12.32l22.911 8.534 22.397-8.338a57.566 57.566 0 0 1 17.824 12.125c.962.962 1.879 1.97 2.772 2.998l-1.027 24.374 14.86 18.689a57.102 57.102 0 0 1-7.951 24.283l-23.529 6.597-13.172 19.916a57.761 57.761 0 0 1-12.648 1.413 57.931 57.931 0 0 1-12.888-1.473z"/><path fill="#010101" d="M254.953 61.175l-24.602-17.871-24.598 17.871 9.398 28.912h30.41zm105.119 227.937l-15.28-8.91c3.57-8.366 6.507-17.446 8.909-25.845 4.61-16.263 6.992-29.858 7.007-29.928a3.459 3.459 0 0 0-1.627-3.565 3.452 3.452 0 0 0-3.896.254L329 241.647l-18.692-32.188a3.441 3.441 0 0 0-4.12-1.522 3.44 3.44 0 0 0-2.273 3.757c.242 1.662.359 3.477.359 5.4.029 11.22-4.11 25.948-8.326 37.639a250.922 250.922 0 0 1-5.784 14.652 171.53 171.53 0 0 1-1.9 4.292c-.456 1-.704 1.516-.704 1.528a3.446 3.446 0 0 0 1.445 4.508l13.257 7.302c-20.02 34.373-58.33 57.693-102.372 57.693s-82.352-23.32-102.373-57.693l13.257-7.302a3.446 3.446 0 0 0 1.445-4.508c0-.013-.249-.528-.704-1.528a165.651 165.651 0 0 1-1.901-4.292 251.117 251.117 0 0 1-5.785-14.652c-4.215-11.691-8.354-26.419-8.326-37.639 0-1.923.118-3.738.359-5.4a3.44 3.44 0 0 0-2.273-3.757 3.44 3.44 0 0 0-4.12 1.522l-18.692 32.188-26.184-20.53a3.454 3.454 0 0 0-3.897-.254 3.461 3.461 0 0 0-1.627 3.565c.016.07 2.397 13.665 7.008 29.928 2.401 8.399 5.338 17.479 8.908 25.845l-15.279 8.91a3.452 3.452 0 0 0-1.452 4.279c25.415 62.035 88.236 105.807 161.636 105.807s136.22-43.772 161.633-105.805a3.452 3.452 0 0 0-1.451-4.28z"/><path fill="#FFF" d="M93.945 280.394l6.584-3.788-9.992-3.828a109.855 109.855 0 0 0 3.408 7.616zm205.305-3.788l6.584 3.788c1.231-2.49 2.366-5.03 3.408-7.616l-9.992 3.828zM83.037 263.85c.044-.025.082-.058.127-.082.036-.018.075-.025.111-.042a3.511 3.511 0 0 1 .651-.225c.189-.045.38-.075.574-.087.031-.001.061-.001.091-.003a3.47 3.47 0 0 1 1.349.217c.061.023.119.053.178.08l16.219 6.202a258.99 258.99 0 0 1-5.002-12.847c-3.556-9.974-7.159-21.976-8.33-33.057L74.753 248.55a3.464 3.464 0 0 1-2.334 1.644 3.417 3.417 0 0 1-2.776-.663l-21.951-17.22c1.445 6.653 3.732 16.232 6.815 26.223 1.864 6.096 4.055 12.345 6.5 18.159l21.966-12.81c.021-.012.043-.021.064-.033zm230.626-.142c.059-.027.115-.056.176-.08a3.47 3.47 0 0 1 1.349-.217l.092.003a3.36 3.36 0 0 1 .745.131c.163.048.324.108.481.181.036.017.074.023.109.041.045.022.082.056.126.081.021.013.044.021.065.034l21.967 12.81c2.444-5.813 4.636-12.063 6.5-18.159 3.083-9.991 5.371-19.57 6.815-26.223l-21.951 17.22a3.425 3.425 0 0 1-2.776.663 3.457 3.457 0 0 1-2.333-1.644l-14.253-24.543c-1.172 11.082-4.774 23.083-8.331 33.057a260.861 260.861 0 0 1-5.001 12.847l16.22-6.202z"/><path fill="#FFF" d="M199.89 392.313c-69.523 0-129.046-40.844-154.086-98.769l37.025-21.601c17.042 46.463 63.057 79.648 117.062 79.648s100.02-33.185 117.062-79.648l37.025 21.601c-25.041 57.925-84.565 98.769-154.088 98.769z"/><path fill="#E43525" d="M83.276 290.386l2.945 4.585-18.062 24.611-3.041-4.744 3.744-5.038-6.313-9.837-6.183 1.248-3.041-4.75m25.048.318l-10.354 2.032 4.171 6.501 6.183-8.533zm15.12 8.418l9.182 10.717-3.974 3.394-5.673-6.623-3.967 3.4 5.677 6.629-3.967 3.394-5.677-6.622-9.737 8.335-3.502-4.094m48.325 14.327l-5.209.299c-.197-3.751-1.519-6.667-3.97-8.743-2.066-1.783-4.413-2.547-7.033-2.343-2.623.21-4.813 1.35-6.584 3.42-1.235 1.445-2.016 2.986-2.343 4.648a8.822 8.822 0 0 0 .411 4.896c.605 1.63 1.608 3.031 3.006 4.228 1.197 1.019 2.477 1.719 3.846 2.114 1.372.408 3.155.522 5.352.357l.299 5.298c-2.938.191-5.374 0-7.313-.611s-3.824-1.694-5.651-3.248c-3.365-2.872-5.212-6.291-5.54-10.258-.322-3.967.939-7.609 3.786-10.946 1.847-2.165 3.967-3.667 6.38-4.508 2.404-.853 4.951-1.005 7.641-.477 2.693.535 5.091 1.7 7.189 3.489a16.233 16.233 0 0 1 4.203 5.534 16.293 16.293 0 0 1 1.53 6.851m.496 27.267l12.287-25.707 4.031 1.93c2.343 1.114 3.979 2.088 4.916 2.897 1.337 1.14 2.203 2.49 2.579 4.024.379 1.541.213 3.056-.506 4.56-.468.974-1.099 1.764-1.888 2.355-.79.611-1.818 1.032-3.072 1.293 1.21 1.477 1.92 2.942 2.114 4.393.191 1.452-.066 2.917-.79 4.433a8.11 8.11 0 0 1-3.005 3.419c-1.315.834-2.7 1.254-4.164 1.292-1.455.025-3.226-.458-5.295-1.452m3.039-12.39l-3.159 6.604 1.236.592c2.031.974 3.531 1.375 4.482 1.191.958-.172 1.672-.751 2.14-1.726.525-1.107.532-2.184.006-3.235-.525-1.031-1.754-2.018-3.687-2.941l-1.018-.485zm4.667-9.768l-2.576 5.394 1.073.516c1.204.573 2.21.745 3.031.522.818-.216 1.429-.758 1.847-1.611.382-.809.407-1.573.076-2.299-.325-.738-1.054-1.375-2.178-1.916l-1.273-.606zm22.138 10.525c1.91.554 3.566 1.561 4.979 3 1.401 1.445 2.34 3.126 2.808 5.031.468 1.91.427 3.808-.124 5.711a10.988 10.988 0 0 1-2.98 4.929c-1.436 1.381-3.104 2.311-5.018 2.77-1.911.458-3.853.395-5.83-.172-2.903-.847-5.084-2.598-6.54-5.26-1.458-2.655-1.757-5.469-.904-8.417.923-3.152 2.85-5.444 5.785-6.877 2.57-1.236 5.175-1.486 7.824-.715m-1.303 4.789c-1.582-.465-3.053-.299-4.425.491-1.366.802-2.302 2.05-2.802 3.775-.516 1.758-.411 3.344.309 4.725.723 1.401 1.882 2.331 3.474 2.795 1.592.458 3.082.293 4.461-.502 1.378-.796 2.317-2.07 2.827-3.814.5-1.732.395-3.292-.325-4.687-.73-1.389-1.898-2.312-3.519-2.783m14.013-.872l5.237.668-1.286 10.067c-.255 1.961-.293 3.336-.112 4.139.185.795.548 1.439 1.108 1.948.554.503 1.28.802 2.174.917.901.121 1.685 0 2.359-.332.678-.331 1.223-.891 1.627-1.662.299-.567.58-1.84.831-3.814l1.315-10.239 5.234.675-1.134 8.851c-.468 3.642-1.076 6.1-1.834 7.374-.917 1.541-2.117 2.662-3.604 3.362-1.5.713-3.305.917-5.429.649-2.308-.299-4.113-1.044-5.406-2.254s-2.111-2.764-2.458-4.667c-.251-1.318-.166-3.648.261-6.998m22.601-6.348l4.636.077-.057 2.661c.5-1.031 1.143-1.827 1.942-2.336.802-.529 1.672-.79 2.607-.771.663.019 1.356.21 2.073.586l-1.697 4.515c-.596-.313-1.092-.484-1.484-.49-.796-.007-1.48.477-2.047 1.47-.564.993-.882 2.968-.933 5.897v1.031l-.168 8.507-5.273-.102m13.203-20.708l5.256-.483.194 2.152c1.108-1.114 2.12-1.91 3.06-2.394a7.898 7.898 0 0 1 2.923-.873c2.083-.185 3.913.382 5.499 1.701 1.334 1.121 2.108 2.884 2.331 5.304l1.273 13.856-5.26.478-.837-9.169c-.236-2.509-.497-4.152-.796-4.947-.299-.809-.748-1.395-1.337-1.777-.599-.376-1.299-.528-2.117-.458-1.063.102-1.939.535-2.637 1.325-.688.776-1.13 1.808-1.305 3.095-.092.662-.039 2.088.162 4.272l.768 8.412-5.253.478m43.006-16.616l-16.479 4.19c.605 1.388 1.528 2.381 2.777 2.98 1.248.592 2.674.694 4.272.279 1.91-.477 3.387-1.572 4.419-3.253l4.82.923c-.688 1.796-1.687 3.248-2.993 4.368-1.318 1.108-3.006 1.93-5.069 2.445-3.209.815-6.068.472-8.59-1.044-2.528-1.503-4.171-3.776-4.945-6.813-.795-3.107-.442-5.96 1.045-8.533 1.49-2.56 3.753-4.234 6.785-5.005 3.209-.814 6.1-.452 8.634 1.095 2.534 1.554 4.235 4.018 5.094 7.386m-5.889-1.743c-.63-1.038-1.528-1.783-2.712-2.234-1.178-.453-2.433-.51-3.757-.179-1.439.363-2.592 1.089-3.484 2.152-.547.668-.955 1.7-1.219 3.101l11.172-2.84zm4.445-8.889l4.744-2.305 1.07 2.203c.376-1.299.942-2.419 1.732-3.343.771-.942 1.745-1.688 2.922-2.254 1.191-.592 2.401-.815 3.636-.694 1.248.121 2.426.599 3.56 1.439.197-1.497.713-2.801 1.528-3.916.809-1.127 1.873-2.006 3.171-2.656 1.343-.649 2.687-.917 4.018-.796 1.324.133 2.464.592 3.4 1.382.942.796 1.961 2.318 3.075 4.591l5.419 11.086-4.737 2.324-4.681-9.571c-1.044-2.14-2.019-3.451-2.922-3.948-.917-.503-1.911-.484-2.98.044a4.132 4.132 0 0 0-1.865 1.764c-.427.79-.592 1.663-.516 2.624.089.981.566 2.369 1.439 4.165l4.165 8.513-4.738 2.324-4.464-9.144c-.828-1.681-1.547-2.84-2.171-3.49-.624-.624-1.273-1.005-1.961-1.133-.688-.121-1.381-.006-2.101.344a4.125 4.125 0 0 0-1.834 1.764c-.408.783-.579 1.681-.484 2.681.09 1.006.574 2.407 1.465 4.228l4.101 8.38-4.744 2.324m28.641-41.204c1.573-1.21 3.355-1.975 5.355-2.242 1.993-.299 3.897-.077 5.718.675a10.725 10.725 0 0 1 4.534 3.471 10.99 10.99 0 0 1 2.242 5.31c.267 1.974.038 3.866-.713 5.687-.758 1.802-1.955 3.343-3.58 4.604-2.394 1.847-5.094 2.579-8.099 2.197-3.012-.389-5.457-1.796-7.335-4.228-2.013-2.611-2.732-5.521-2.153-8.724.497-2.815 1.847-5.069 4.031-6.75m3.1 3.871c-1.299 1.006-2.038 2.305-2.203 3.878-.165 1.573.299 3.063 1.388 4.476 1.121 1.452 2.458 2.299 4.012 2.535 1.554.242 2.986-.153 4.298-1.159 1.318-1.019 2.057-2.305 2.222-3.896.166-1.592-.306-3.107-1.414-4.534-1.108-1.426-2.439-2.254-3.986-2.503-1.547-.224-2.979.166-4.317 1.203m7.616-11.875l3.623-3.833 7.374 6.979c1.433 1.363 2.528 2.197 3.279 2.528.745.332 1.49.414 2.223.255.726-.153 1.407-.548 2.024-1.21.618-.656 1-1.35 1.127-2.102.127-.745 0-1.516-.376-2.292-.287-.586-1.152-1.554-2.598-2.923l-7.495-7.1 3.63-3.833 6.47 6.132c2.674 2.534 4.305 4.477 4.891 5.839.7 1.643.903 3.292.585 4.903-.318 1.617-1.21 3.196-2.687 4.756-1.605 1.688-3.261 2.7-5.005 3.037-1.731.332-3.477.077-5.215-.763-1.21-.586-3.043-2.032-5.489-4.343m3.07-28.12l3.196-4.203 6.183 4.699 1.885-2.489 3.598 2.744-1.891 2.471 13.161 10.022-3.19 4.197-13.168-9.997-1.63 2.133-3.598-2.738 1.624-2.14m-.624-12.43l2.751-4.508 8.769 5.349c-.223-1.356-.255-2.585-.096-3.713.165-1.126.522-2.146 1.083-3.056 1.088-1.789 2.623-2.91 4.597-3.394 1.707-.388 3.604.051 5.667 1.312l11.882 7.233-2.712 4.457-7.883-4.801c-2.076-1.26-3.553-2.025-4.406-2.273-.866-.249-1.618-.249-2.267.006-.662.254-1.197.738-1.63 1.452a3.918 3.918 0 0 0-.522 2.903c.21 1.02.764 1.974 1.655 2.866.459.465 1.644 1.273 3.579 2.445l7.221 4.406-2.751 4.496"/></svg>