<svg xmlns="http://www.w3.org/2000/svg" xmlns:xlink="http://www.w3.org/1999/xlink" width="56.75" height="57.083" viewBox="0 0 56.75 57.083"><defs><path id="a" d="M.725-6.294H71.59V60.32H.725z"/></defs><clipPath id="b"><use xlink:href="#a" overflow="visible"/></clipPath><path clip-path="url(#b)" fill="#FFF" d="M54.971 28.66c0 14.612-11.848 26.459-26.459 26.459-14.613 0-26.459-11.847-26.459-26.459 0-14.613 11.846-26.46 26.459-26.46 14.611 0 26.459 11.847 26.459 26.46"/><defs><path id="c" d="M.725-6.294H71.59V60.32H.725z"/></defs><clipPath id="d"><use xlink:href="#c" overflow="visible"/></clipPath><path clip-path="url(#d)" fill="#005DAA" d="M23.503 48.367l-.656-.159-.77 3.222.018.005 2.085.498.141-.591-1.445-.344.627-2.631zm12.416-.758l.663 1.847-1.858-1.421-.563.203 1.112 3.117.638-.228-.662-1.853 1.856 1.427.011-.005.555-.199-1.114-3.116-.638.228zm-17.714 2.379l.652.267.403-.463 1.052.432-.04.609.013.006.642.263.134-3.525-.484-.197-2.372 2.608zm2.158-.363l-.708-.29.783-.886-.075 1.176zm13.028-.331a.937.937 0 0 0-.363-.442 1.211 1.211 0 0 0-.442-.2 1.076 1.076 0 0 0-.25-.027c-.082 0-.166.008-.254.024-.181.031-.337.09-.473.176a1.218 1.218 0 0 0-.349.338.958.958 0 0 0-.181.54v.035c0 .187.028.449.089.782.061.355.127.619.196.796a.979.979 0 0 0 .354.446c.139.098.29.164.446.2a1.267 1.267 0 0 0 .503.002c.182-.033.338-.091.473-.176.132-.085.25-.2.346-.338a.974.974 0 0 0 .189-.546v-.027c0-.184-.033-.447-.091-.785a4.824 4.824 0 0 0-.193-.798m-.392 1.55a.538.538 0 0 1-.075.286.503.503 0 0 1-.361.237.872.872 0 0 1-.111.009.55.55 0 0 1-.122-.013.424.424 0 0 1-.189-.092.378.378 0 0 1-.094-.098.626.626 0 0 1-.073-.147c-.022-.063-.046-.141-.067-.236s-.047-.224-.074-.387c-.028-.164-.051-.294-.064-.393a1.84 1.84 0 0 1-.017-.231v-.013a.804.804 0 0 1 .019-.164.395.395 0 0 1 .053-.118c.035-.063.084-.113.147-.155s.134-.068.217-.085c.04-.005.077-.01.114-.01a.485.485 0 0 1 .305.108.483.483 0 0 1 .17.244c.025.059.048.137.07.236a11.144 11.144 0 0 1 .136.777c.013.092.018.169.018.23v.015h-.002zm-3.826-1.864l.158 3.307.019-.001.656-.033-.159-3.305-.674.032zm-2.105-.041l-1.327-.108-.264 3.302 1.386.109c.042.004.082.005.121.005h.002c.248 0 .462-.066.634-.199.201-.153.313-.383.336-.682.003-.035.004-.064.004-.095a.73.73 0 0 0-.103-.399.869.869 0 0 0-.271-.275.776.776 0 0 0 .271-.219.712.712 0 0 0 .164-.424l.003-.102a.862.862 0 0 0-.219-.603c-.168-.182-.414-.286-.737-.31m.218 2.342a.39.39 0 0 1-.127.268.384.384 0 0 1-.262.086l-.051-.001-.648-.053.062-.765.648.051c.135.01.231.054.295.13a.365.365 0 0 1 .083.284m.061-1.353a.34.34 0 0 1-.124.252.4.4 0 0 1-.254.077l-.053-.002-.606-.049.056-.716.607.047c.13.012.226.052.291.122a.326.326 0 0 1 .085.231c0 .012 0 .025-.002.038m1.165-47.392c-14.428 0-26.124 11.696-26.124 26.123s11.696 26.125 26.124 26.125c14.427 0 26.123-11.698 26.123-26.125 0-14.428-11.697-26.123-26.123-26.123m0 51.242c-13.874 0-25.119-11.246-25.119-25.12 0-13.872 11.245-25.119 25.119-25.119s25.119 11.247 25.119 25.119c0 13.874-11.245 25.12-25.119 25.12m5.615-44.599c.143.049.271.074.383.077.035.001.066 0 .099-.003a1.8 1.8 0 0 0 .399-.094l.005-.003.132.326.764.255-.353-.847c.138-.083.256-.192.359-.325.103-.139.192-.309.271-.512l.007-.017-.564-.186-.007.016c-.079.215-.184.368-.308.46l-.304-.737c.037-.01.081-.023.128-.039l.127-.041a.97.97 0 0 0 .316-.164.567.567 0 0 0 .185-.273.83.83 0 0 0 .042-.24.693.693 0 0 0-.09-.36c-.101-.187-.276-.319-.518-.399a1.153 1.153 0 0 0-.343-.062.77.77 0 0 0-.338.062.704.704 0 0 0-.397.45.807.807 0 0 0-.04.223.638.638 0 0 0 .015.157c.023.113.063.233.115.358a1.733 1.733 0 0 0-.504.221.802.802 0 0 0-.313.419 1.227 1.227 0 0 0-.063.347c-.003.157.03.3.102.433.122.222.354.389.693.498m.594-2.445a.23.23 0 0 1 .118-.147.188.188 0 0 1 .102-.023c.029 0 .061.006.094.017.074.025.124.064.152.123a.243.243 0 0 1 .011.186.22.22 0 0 1-.087.112.494.494 0 0 1-.162.073.43.43 0 0 1-.076.024c-.024.008-.045.012-.065.016a2.033 2.033 0 0 1-.087-.23.318.318 0 0 1-.012-.087.214.214 0 0 1 .012-.064m-.742 1.349a.42.42 0 0 1 .153-.219.96.96 0 0 1 .286-.128l.368.884a.74.74 0 0 1-.24.058H34.5a.734.734 0 0 1-.203-.037.484.484 0 0 1-.284-.22.378.378 0 0 1-.055-.21.496.496 0 0 1 .021-.128m-5.457-1.642l1.259 1.922h.593V5.129h-.669v1.916l-1.259-1.916h-.593v3.234h.669V6.441zm16.39 10.195l1.186 1.803.496-.325-.828-1.259.619-.407.704 1.072.495-.325-.704-1.072.597-.392.827 1.258.495-.326-1.194-1.818-2.702 1.775.009.016zm-3.546-4.782a.934.934 0 0 0-.112.548c.013.167.056.322.13.462.072.14.179.27.317.386.139.12.279.203.431.253a1.223 1.223 0 0 0 .475.055.936.936 0 0 0 .529-.193c.144-.116.329-.305.557-.572.231-.269.391-.485.481-.643a.915.915 0 0 0 .105-.55 1.217 1.217 0 0 0-.443-.848 1.317 1.317 0 0 0-.432-.252 1.166 1.166 0 0 0-.479-.056.922.922 0 0 0-.521.194 4.472 4.472 0 0 0-.562.574 4.436 4.436 0 0 0-.476.642m.525.543c0-.039.004-.077.015-.111a.692.692 0 0 1 .065-.147c.031-.054.077-.12.135-.195a12.65 12.65 0 0 1 .502-.588 1.45 1.45 0 0 1 .176-.164c.048-.04.092-.069.134-.087s.082-.03.125-.035a.339.339 0 0 1 .064-.006c.046 0 .094.008.144.023.07.024.137.062.2.115a.5.5 0 0 1 .192.38v.022c0 .04-.005.078-.015.115a.656.656 0 0 1-.063.145 1.495 1.495 0 0 1-.135.196 9.39 9.39 0 0 1-.245.299c-.101.116-.186.214-.254.285a1.672 1.672 0 0 1-.174.167.485.485 0 0 1-.337.125.505.505 0 0 1-.335-.134.616.616 0 0 1-.146-.181.481.481 0 0 1-.048-.201v-.023zm-2.464-2.436l.905.559-.7 1.139.014.01.554.341 1.694-2.753-.568-.35-.686 1.112-.907-.558.688-1.113-.57-.351-1.695 2.752.57.353.701-1.141zm4.488 5.458l.013-.006 3.132-1.316-.46-.524-1.956.872 1.109-1.831-.459-.521-1.708 2.95.329.376zM24.604 7.845c.06.177.169.327.328.453a1.208 1.208 0 0 0 .928.244c.183-.023.339-.072.478-.149a1.22 1.22 0 0 0 .361-.314.956.956 0 0 0 .213-.522c.002-.042.005-.086.005-.136 0-.17-.019-.39-.05-.661a4.9 4.9 0 0 0-.151-.788.927.927 0 0 0-.335-.451 1.24 1.24 0 0 0-.427-.216 1.237 1.237 0 0 0-.499-.027c-.183.022-.34.071-.479.149a1.212 1.212 0 0 0-.363.314.932.932 0 0 0-.207.516 1.42 1.42 0 0 0-.006.151c0 .17.017.386.051.652.042.348.094.608.153.785m.464-1.492c.005-.064.013-.116.027-.158s.034-.081.059-.116a.432.432 0 0 1 .153-.14.564.564 0 0 1 .222-.072c.026-.002.054-.005.082-.005a.473.473 0 0 1 .416.223.588.588 0 0 1 .066.144c.018.058.037.135.052.232a7.295 7.295 0 0 1 .096.764c.006.062.008.119.008.167 0 .027 0 .052-.002.074a.76.76 0 0 1-.027.156.494.494 0 0 1-.432.332.575.575 0 0 1-.232-.015.459.459 0 0 1-.183-.1.383.383 0 0 1-.087-.099.757.757 0 0 1-.063-.147 1.51 1.51 0 0 1-.055-.234 8.795 8.795 0 0 1-.104-.931l.004-.075m-11.784 8.941l-.94-.862.287-.315 1.368.394.008-.009.515-.561-1.515-.401a.93.93 0 0 0 .052-.509.852.852 0 0 0-.287-.496 1.028 1.028 0 0 0-.333-.208.891.891 0 0 0-.378-.059c-.129.007-.26.043-.39.106a1.286 1.286 0 0 0-.357.278l-.869.951 2.388 2.184.451-.493zm-1.351-1.239l-.599-.547.392-.427a.466.466 0 0 1 .298-.161l.036-.001c.096 0 .181.035.263.111.09.082.134.175.134.286s-.044.215-.134.313l-.39.426zm-.277 3.292c.135-.207.203-.41.203-.614a.89.89 0 0 0-.01-.136c-.038-.246-.181-.449-.427-.611a.792.792 0 0 0-.428-.145c-.016 0-.028 0-.042.002a.863.863 0 0 0-.365.107l.001-.043a.83.83 0 0 0-.062-.295.694.694 0 0 0-.287-.341.903.903 0 0 0-.507-.165.826.826 0 0 0-.2.026c-.238.061-.442.228-.617.494l-.721 1.106 2.711 1.769.751-1.154zm-1.682-.972l-.329.504-.587-.382.328-.506c.071-.109.153-.173.244-.195a.256.256 0 0 1 .077-.011c.063 0 .128.02.19.062a.322.322 0 0 1 .163.278.458.458 0 0 1-.086.25m.17.832l.354-.54c.071-.112.155-.176.251-.196h.001a.43.43 0 0 1 .073-.008c.07 0 .141.023.209.068a.367.367 0 0 1 .178.304.43.43 0 0 1-.083.241l-.352.541-.631-.41zm4.956-3.77l.494-.423-2.103-2.458-.509.434 2.104 2.46.014-.013zm7.035-6.827l.703 2.546.644-.175-.702-2.547.818-.226-.16-.57-2.277.627.156.571.818-.226zm-6.703 4.465c.192.292.356.504.487.635a.975.975 0 0 0 .495.259 1.237 1.237 0 0 0 .936-.195 1.228 1.228 0 0 0 .578-1.008.938.938 0 0 0-.044-.282 2.158 2.158 0 0 0-.269-.528l-.265-.394-1.035.688.31.464.478-.318.054.079c.046.068.078.14.103.215a.476.476 0 0 1 .016.214.539.539 0 0 1-.253.377.535.535 0 0 1-.296.098.492.492 0 0 1-.243-.065.642.642 0 0 1-.121-.105 1.636 1.636 0 0 1-.153-.185 6.432 6.432 0 0 1-.22-.319c-.091-.133-.16-.245-.211-.327s-.086-.153-.11-.212a.616.616 0 0 1-.051-.216.5.5 0 0 1 .24-.421.623.623 0 0 1 .274-.108c.019-.004.043-.004.068-.004.074 0 .164.01.268.032l.016.002.131-.625-.017-.003a1.773 1.773 0 0 0-.341-.037c-.074 0-.147.006-.213.019a1.463 1.463 0 0 0-.516.23 1.209 1.209 0 0 0-.563.997c0 .12.022.235.068.346.071.172.201.405.399.697m4.297-.698l-.55-1.221.969-.436.553 1.221.017-.007.592-.268-1.331-2.949-.611.275.54 1.191-.97.438-.539-1.192-.609.275 1.332 2.95.607-.277zM39.29 30.295c.268 0 .483-.31.483-.31s-.216-.308-.483-.308-.482.308-.482.308.215.31.482.31m12.622-4.692c-.321-.172-.814-.4-1.521-.697-.728-.304-2.232-.784-3.791-1.2-2.174-7.956-9.446-13.803-18.088-13.803-9.681 0-17.646 7.336-18.646 16.75-.954.142-1.865.253-2.656.336-1.566.163-2.653.221-2.655.222a.12.12 0 0 0-.112.105l-.001.02c-.004.086.057.445.65.747.592.308 1.713.587 3.885.589.245 0 .506-.007.779-.013 0 10.358 8.396 18.755 18.756 18.755 10.357 0 18.755-8.397 18.755-18.755a18.99 18.99 0 0 0-.321-3.446c1.928.426 4.354.977 5.136.979a.72.72 0 0 0 .206-.024c.051-.011.126-.054.129-.142-.031-.17-.188-.237-.505-.423m.169.41c-1.225.002-6.856-1.459-7.656-1.462-1.25.008-4.063 1.552-5.524 2.501a15.25 15.25 0 0 1-1.281.75 4.896 4.896 0 0 1 2.635.946c.821.612 1.67 1.362 2.18 1.462.024.002.052.004.081.008h.002c.726.068 2.803.582 2.738 1.811 0 0-1.446-.437-3.18-.14-.683.146-1.679.238-3.187.718-1.428.45-5.153 1.862-8.065 1.863-2.216-.002-6.693-1.277-9.277-1.496a5.464 5.464 0 0 0-.46-.021c-1.967-.002-3.656 1.032-4.501 1.043-.762 0-2.098-.13-3.406-1.1-.995-.744-1.73-1.831-1.74-2.636-.002-.269.094-.519.304-.684.148-.113.356-.136.63-.139 1.014.001 3.021.441 5.402.44 1.416 0 2.957-.154 4.486-.647.355-.114 1.423-.363 2.111-.536.182.124.374.258.588.406a.11.11 0 0 0 .065.022.126.126 0 0 0 .099-.05.121.121 0 0 0-.028-.166c-1.324-.922-1.953-1.434-4.168-1.428-1.411 0-3.475.196-6.817.597-2.169.259-3.844.36-5.135.36-2.152.001-3.242-.281-3.775-.561-.329-.173-.45-.336-.493-.434.774-.048 4.641-.319 8.057-1.075 3.877-.862 9.948-3.288 12.776-3.283 1.054-.007 2.881 1.08 4.691 2.299 1.822 1.215 3.64 2.554 4.8 3.04a.117.117 0 0 0 .153-.063.118.118 0 0 0-.063-.155c-.664-.278-1.587-.87-2.611-1.561 1.405-.665 6.279-3.591 9.768-3.589 1.659-.003 6.567 1.394 8.043 2.016.703.296 1.195.521 1.507.69.155.083.268.151.334.203a.323.323 0 0 1 .049.043.87.87 0 0 1-.132.008"/><defs><path id="e" d="M.725-6.294H71.59V60.32H.725z"/></defs><clipPath id="f"><use xlink:href="#e" overflow="visible"/></clipPath><path clip-path="url(#f)" fill="#FDB913" d="M42.076 31.889c1.733-.297 3.18.14 3.18.14.068-1.281-2.188-1.785-2.821-1.819 0 0 .327.68-1.436.814 0 0-.823-.019-1.16.283 0 0 1.622-.124 2.192.51l.045.072z"/></svg>